<svg viewBox="0 0 72 72" xmlns="http://www.w3.org/2000/svg"><path fill="#B3B3B3" d="M68 4v64H4V4h64m4-4H0v72h72V0z"/><path fill="none" stroke="#00A5FF" stroke-miterlimit="10" stroke-width=".1" d="M12.9 11h46.2c1.1 0 1.9.9 1.9 1.9h0V59c0 1.1-.9 1.9-1.9 1.9H12.9c-1 .1-1.9-.8-1.9-1.9h0V12.9c0-1.1.9-1.9 1.9-1.9h0z"/><path fill="none" stroke="#00A5FF" stroke-miterlimit="10" stroke-width=".1" d="M18.3 4h35.5C55 4 56 5 56 6.3v59.5c0 1.2-1 2.3-2.3 2.3H18.3C17 68 16 67 16 65.7V6.3C16 5 17 4 18.3 4z"/><path fill="none" stroke="#00A5FF" stroke-miterlimit="10" stroke-width=".1" d="M68 18.3v35.5c0 1.2-1 2.3-2.3 2.3H6.3C5 56 4 55 4 53.7V18.3C4 17 5 16 6.3 16h59.5c1.2 0 2.2 1 2.2 2.3z"/><circle cx="36" cy="36" r="29" fill="none" stroke="#00A5FF" stroke-miterlimit="10" stroke-width=".1"/><g stroke-linecap="round" stroke-miterlimit="10" stroke-width="6" stroke="#fff" fill="none" stroke-linejoin="round"><path d="M18.8 46.6c-3.7-5.9-.6-10.1 1.2-14.7 1.6-4.2-.2-6.5 1.3-12s7.3-9 13.7-9c5.4 0 8 3 8 3 4.2.4 7.4 3.9 7.4 8 .4 7.2 1 7.2 3.4 12.8 1.7 3.9 1.1 8.3-1.4 11.7M17 59.9v-3c0-5 5-9 10-9 6 5 12 5 18 0 5 0 10 4 10 9v3"/><path d="M42 29.9c0 1.1-.9 2-2 2s-2-.9-2-2 .9-2 2-2 2 .9 2 2m-8 0c0 1.1-.9 2-2 2s-2-.9-2-2 .9-2 2-2 2 .9 2 2"/><path d="M25 30.9c0 8 5 14 11 14s11-6 11-14c0-5-2-8-6-12-4 4-16 9-16 11v1zm8 7.2c1.9 1 4.1 1 6 0"/></g><path fill="#D0CFCE" d="M18.1 47.3c1.1 1 2.3 1.9 3.6 2.7 1.6-1.2 3.4-1.9 5.4-2.1 6.2 5 12.5 5 18.7 0 1.5.1 3 .6 4.2 1.5 1.1-.7 2-1.5 3-2.3 1.2-.7 3.1-8.3.4-13-.4-.9-.8-1.7-1.2-2.6-1.5-3.3-2-4.5-2.3-10.5 0-3.7-3.8-6.8-7.5-7.1-.3 0-.5-.1-.7-.3-.1-.1-2.4-2.7-7.2-2.7-6.2 0-11.4 3.4-12.7 8.2-.5 2-.7 4.1-.6 6.2.2 2-.1 4.1-.8 6-.2.8-.6 1.5-1.1 2.1-3.8 4.3-1 14.2-1.2 13.9z"/><path fill="#FCEA2B" d="M25.4 29.4v1C25.4 38 30 44 35.9 44s10.5-6 10.5-13.6c0-4.7-1.8-7.5-5.3-11.1-2.8 2.2-5.8 4.1-9 5.8-2.6 1.4-6.2 3.5-6.7 4.3z"/><path fill="#92D3F5" d="M17 61v-4c0-5 5-9 10-9 6 5 12 5 18 0 5 0 10 4 10 9v4"/><path fill="none" stroke="#000" stroke-linecap="round" stroke-linejoin="round" stroke-width="2" d="M18.8 46.6c-3.7-5.9-.6-10.1 1.2-14.7 1.6-4.2-.2-6.5 1.3-12s7.3-9 13.7-9c5.4 0 8 3 8 3 4.2.4 7.4 3.9 7.4 8 .4 7.2 1 7.2 3.4 12.8 1.7 3.9 1.1 8.3-1.4 11.7M17 59.9v-3c0-5 5-9 10-9 6 5 12 5 18 0 5 0 10 4 10 9v3"/><path d="M42 29.9c0 1.1-.9 2-2 2s-2-.9-2-2 .9-2 2-2 2 .9 2 2m-8 0c0 1.1-.9 2-2 2s-2-.9-2-2 .9-2 2-2 2 .9 2 2"/><path fill="none" stroke="#000" stroke-linejoin="round" stroke-width="2" d="M25 30.9c0 8 5 14 11 14s11-6 11-14c0-5-2-8-6-12-4 4-16 9-16 11v1z"/><path fill="none" stroke="#000" stroke-linecap="round" stroke-linejoin="round" stroke-width="2" d="M33 38.1c1.9 1 4.1 1 6 0"/></svg>