<svg viewBox="0 0 72 72" xmlns="http://www.w3.org/2000/svg"><path fill="#B3B3B3" d="M68 4v64H4V4h64m4-4H0v72h72V0z"/><path fill="none" stroke="#00A5FF" stroke-miterlimit="10" stroke-width=".1" d="M12.9 11h46.2c1.1 0 1.9.9 1.9 1.9h0V59c0 1.1-.9 1.9-1.9 1.9H12.9c-1 .1-1.9-.8-1.9-1.9h0V12.9c0-1.1.9-1.9 1.9-1.9h0z"/><path fill="none" stroke="#00A5FF" stroke-miterlimit="10" stroke-width=".1" d="M18.3 4h35.5C55 4 56 5 56 6.3v59.5c0 1.2-1 2.3-2.3 2.3H18.3C17 68 16 67 16 65.7V6.3C16 5 17 4 18.3 4z"/><path fill="none" stroke="#00A5FF" stroke-miterlimit="10" stroke-width=".1" d="M68 18.3v35.5c0 1.2-1 2.3-2.3 2.3H6.3C5 56 4 55 4 53.7V18.3C4 17 5 16 6.3 16h59.5c1.2 0 2.2 1 2.2 2.3z"/><circle cx="36" cy="36" r="29" fill="none" stroke="#00A5FF" stroke-miterlimit="10" stroke-width=".1"/><g stroke-linecap="round" stroke-miterlimit="10" stroke-width="6" stroke="#fff" fill="none" stroke-linejoin="round"><path d="M18 60v-3.1c0-5 3.8-9 8.8-9 6 5 12 5 18 0 5 0 9.2 4 9.2 9V60M42 31c0 1.1-.9 2-2 2s-2-.9-2-2 .9-2 2-2 2 .9 2 2m-8 0c0 1.1-.9 2-2 2s-2-.9-2-2 .9-2 2-2 2 .9 2 2"/><path d="M25 32c0 8 4.8 12.9 10.8 12.9S47 40 47 32c0-4-1-6-1-6l-4-4s-12 2-16 4c0 0-1 2-1 6zm7.8 6.2c1.9 1 4.1 1 6 0"/><path d="M20 46c-4-6-1.8-8.3.1-13 1.6-4.2-.2-6.5 1.3-12s7.3-9 13.7-9c5.4 0 8 3 8 3 4.2.4 7.4 3.9 7.4 8 .4 7.2 1 7.2 3.4 12.8 1.8 4.1 1 6.8-1.9 10.1"/></g><path fill="#92D3F5" d="M18 60.9V57c0-5 3.8-9 8.8-9 6 5 12 5 18 0 5 0 9.2 4 9.2 9v3.9H18z"/><path fill="#F1B31C" d="M22.1 49.4c1.4-.9 3-1.4 4.7-1.4 6 5 12 5 18 0 1.7 0 3.3.5 4.7 1.3 1.2-.9 2.3-1.8 3.1-2.6 2.9-3.1 3.7-6.8 2-10.8-2.4-5.7-3-5.6-3.4-12.8 0-4.2-3.2-7.7-7.4-8 0 0-2.6-3-8-3-6.4 0-12.2 3.5-13.7 9-1.5 5.6.3 7.8-1.3 12C19 37.8 15 41.5 19.5 47c.6.7 1.5 1.6 2.6 2.4z"/><path fill="#FCEA2B" d="M25 32c0 8 4.8 12.9 10.8 12.9S47 40 47 32c0-4-1-6-1-6l-4-4s-12 2-16 4c0 0-1 2-1 6z"/><path fill="none" stroke="#000" stroke-linecap="round" stroke-linejoin="round" stroke-width="2" d="M18 60v-3.1c0-5 3.8-9 8.8-9 6 5 12 5 18 0 5 0 9.2 4 9.2 9V60"/><path d="M42 31c0 1.1-.9 2-2 2s-2-.9-2-2 .9-2 2-2 2 .9 2 2m-8 0c0 1.1-.9 2-2 2s-2-.9-2-2 .9-2 2-2 2 .9 2 2"/><path fill="none" stroke="#000" stroke-linejoin="round" stroke-width="2" d="M25 32c0 8 4.8 12.9 10.8 12.9S47 40 47 32c0-4-1-6-1-6l-4-4s-12 2-16 4c0 0-1 2-1 6z"/><path fill="none" stroke="#000" stroke-linecap="round" stroke-linejoin="round" stroke-width="2" d="M32.8 38.2c1.9 1 4.1 1 6 0M20 46c-4-6-1.8-8.3.1-13 1.6-4.2-.2-6.5 1.3-12s7.3-9 13.7-9c5.4 0 8 3 8 3 4.2.4 7.4 3.9 7.4 8 .4 7.2 1 7.2 3.4 12.8 1.8 4.1 1 6.8-1.9 10.1"/></svg>