<svg viewBox="0 0 72 72" xmlns="http://www.w3.org/2000/svg"><path fill="#B3B3B3" d="M68 4v64H4V4h64m4-4H0v72h72V0z"/><path fill="none" stroke="#00A5FF" stroke-miterlimit="10" stroke-width=".1" d="M12.9 11h46.2c1.1 0 1.9.9 1.9 1.9h0V59c0 1.1-.9 1.9-1.9 1.9H12.9c-1 .1-1.9-.8-1.9-1.9h0V12.9c0-1.1.9-1.9 1.9-1.9h0z"/><path fill="none" stroke="#00A5FF" stroke-miterlimit="10" stroke-width=".1" d="M18.3 4h35.5C55 4 56 5 56 6.3v59.5c0 1.2-1 2.3-2.3 2.3H18.3C17 68 16 67 16 65.7V6.3C16 5 17 4 18.3 4z"/><path fill="none" stroke="#00A5FF" stroke-miterlimit="10" stroke-width=".1" d="M68 18.3v35.5c0 1.2-1 2.3-2.3 2.3H6.3C5 56 4 55 4 53.7V18.3C4 17 5 16 6.3 16h59.5c1.2 0 2.2 1 2.2 2.3z"/><circle cx="36" cy="36" r="29" fill="none" stroke="#00A5FF" stroke-miterlimit="10" stroke-width=".1"/><g stroke-linecap="round" stroke-miterlimit="10" stroke-width="6" stroke="#fff" fill="none" stroke-linejoin="round"><path d="M27 28s1-1 2-1 2 1 2 1m10 0s1-1 2-1 2 1 2 1m6 1.3c3 3 4 21.7 4 29.7v2.5m-38 0V59c0-8 1-26.7 4-29.7M32 16l-1 1m5-2l-1 2m5-1l1 1"/><circle cx="36" cy="35.5" r="3"/><path d="M32.7 35.6c-1.1-.3-1.7-.6-1.7-.6m10 0s-.5.3-1.5.6"/><path d="M44 42c8-3 7-12 7-15.8C51 17.3 44.8 11 36 11s-15 6.3-15 15.2C21 30 20 39 28.1 42c3.7 1.4 12.1 1.3 15.9 0z"/></g><path fill="#92D3F5" d="M17 62.5v-1.9c0-8.4 1.1-25.7 4.1-32.1h30c3 6.3 3.9 23.6 3.9 32.1v1.9H17z"/><path fill="#61B2E4" d="M55 62.5H43V46c0-3-1-4-1-4l5.4-2.9 4.4-8 1.4 3.6L55 62.5z"/><circle cx="36" cy="35.5" r="3" fill="#EA5A47"/><path fill="#FCEA2B" d="M51.1 25.7c0-9.1-6.2-15.7-15-15.7s-15 6.5-15 15.7c0 6.3-.8 12.2 7.1 16.3 0 0 3.5 1 7.9 1 5 0 8-1.1 8-1.1 8-4 7-10 7-16.2zM36 38.5c-1.7 0-3-1.3-3-3s1.3-3 3-3 3 1.3 3 3-1.3 3-3 3z"/><g fill="none" stroke="#000" stroke-width="2"><path stroke-linecap="round" stroke-miterlimit="10" d="M27 28s1-1 2-1 2 1 2 1m10 0s1-1 2-1 2 1 2 1"/><path stroke-linecap="round" stroke-linejoin="round" d="M51 29.3c3 3 4 21.7 4 29.7v2.5m-38 0V59c0-8 1-26.7 4-29.7"/><path stroke-linecap="round" stroke-miterlimit="10" d="M32 16l-1 1m5-2l-1 2m5-1l1 1"/><circle cx="36" cy="35.5" r="3" stroke-miterlimit="10"/><path stroke-linecap="round" stroke-linejoin="round" stroke-miterlimit="10" d="M32.7 35.6c-1.1-.3-1.7-.6-1.7-.6m10 0s-.5.3-1.5.6"/><path stroke-linecap="round" stroke-linejoin="round" d="M44 42c8-3 7-12 7-15.8C51 17.3 44.8 11 36 11s-15 6.3-15 15.2C21 30 20 39 28.1 42c3.7 1.4 12.1 1.3 15.9 0z"/></g></svg>