<svg viewBox="0 0 72 72" xmlns="http://www.w3.org/2000/svg"><path fill="#B3B3B3" d="M68 4v64H4V4h64m4-4H0v72h72V0z"/><path fill="none" stroke="#00A5FF" stroke-miterlimit="10" stroke-width=".1" d="M12.9 11h46.2c1.1 0 1.9.9 1.9 1.9h0V59c0 1.1-.9 1.9-1.9 1.9H12.9c-1 .1-1.9-.8-1.9-1.9h0V12.9c0-1.1.9-1.9 1.9-1.9h0z"/><path fill="none" stroke="#00A5FF" stroke-miterlimit="10" stroke-width=".1" d="M18.3 4h35.5C55 4 56 5 56 6.3v59.5c0 1.2-1 2.3-2.3 2.3H18.3C17 68 16 67 16 65.7V6.3C16 5 17 4 18.3 4z"/><path fill="none" stroke="#00A5FF" stroke-miterlimit="10" stroke-width=".1" d="M68 18.3v35.5c0 1.2-1 2.3-2.3 2.3H6.3C5 56 4 55 4 53.7V18.3C4 17 5 16 6.3 16h59.5c1.2 0 2.2 1 2.2 2.3z"/><circle cx="36" cy="36" r="29" fill="none" stroke="#00A5FF" stroke-miterlimit="10" stroke-width=".1"/><g stroke-linecap="round" stroke-miterlimit="10" stroke-width="6" stroke="#fff" fill="none" stroke-linejoin="round"><path d="M25 31c-2 0-3-4-3-7 0-4 4-12 14-12s14 7 14 12c0 4-1 7-3 7M17 60v-3c0-5 5-9 10-9 6 5 12 5 18 0 5 0 10 4 10 9v3"/><path d="M25 31c0 8 4 14 10.9 14C43 45 47 39 47 31c0-6-3-11-4-12-2-2-3-2-3-2-2 1-6 1-8 0 0 0-1 0-3 2-1 1-4 6-4 12zm13 7c-1.2.8-2.6.8-4 0m-3-2c0 1-1 2-1 2m11-2c0 1 1 2 1 2"/><path d="M41.9 29c0 1.1-.9 2-2 2s-2-.9-2-2 .9-2 2-2 2 .9 2 2m-8 0c0 1.1-.9 2-2 2s-2-.9-2-2 .9-2 2-2 2 .9 2 2"/></g><path fill="#92D3F5" d="M55 61v-4c0-5-5-9-10-9-6 5-12 5-18 0-5 0-10 4-10 9v4h38z"/><path fill="#D0CFCE" d="M25 31c-2 0-3-4-3-7 0-4 4-12 14-12s14 7 14 12c0 4-1 7-3 7"/><path fill="#FCEA2B" d="M25 31c0 8 4 14 10.9 14C43 45 47 39 47 31c0-6-3-11-4-12-2-2-3-2-3-2-2 1-6 1-8 0 0 0-1 0-3 2-1 1-4 6-4 12z"/><path fill="none" stroke="#000" stroke-linecap="round" stroke-linejoin="round" stroke-width="2" d="M25 31c-2 0-3-4-3-7 0-4 4-12 14-12s14 7 14 12c0 4-1 7-3 7M17 60v-3c0-5 5-9 10-9 6 5 12 5 18 0 5 0 10 4 10 9v3"/><path fill="none" stroke="#000" stroke-linejoin="round" stroke-width="2" d="M25 31c0 8 4 14 10.9 14C43 45 47 39 47 31c0-6-3-11-4-12-2-2-3-2-3-2-2 1-6 1-8 0 0 0-1 0-3 2-1 1-4 6-4 12z"/><path fill="none" stroke="#000" stroke-linecap="round" stroke-linejoin="round" stroke-width="2" d="M38 38c-1.2.8-2.6.8-4 0m-3-2c0 1-1 2-1 2m11-2c0 1 1 2 1 2"/><path d="M41.9 29c0 1.1-.9 2-2 2s-2-.9-2-2 .9-2 2-2 2 .9 2 2m-8 0c0 1.1-.9 2-2 2s-2-.9-2-2 .9-2 2-2 2 .9 2 2"/></svg>