<svg viewBox="0 0 72 72" xmlns="http://www.w3.org/2000/svg"><path fill="#B3B3B3" d="M68 4v64H4V4h64m4-4H0v72h72V0z"/><path fill="none" stroke="#00A5FF" stroke-miterlimit="10" stroke-width=".1" d="M12.923 10.958h46.154c1.062 0 1.923.861 1.923 1.923h0v46.154a1.923 1.923 0 01-1.923 1.923H12.923A1.923 1.923 0 0111 59.035h0V12.881c0-1.062.861-1.923 1.923-1.923h0z"/><path fill="none" stroke="#00A5FF" stroke-miterlimit="10" stroke-width=".1" d="M18.254 4h35.492A2.254 2.254 0 0156 6.254v59.492A2.254 2.254 0 0153.746 68H18.254A2.254 2.254 0 0116 65.746V6.254A2.254 2.254 0 0118.254 4z"/><path fill="none" stroke="#00A5FF" stroke-miterlimit="10" stroke-width=".1" d="M68 18.254v35.492A2.254 2.254 0 0165.746 56H6.254A2.254 2.254 0 014 53.746V18.254A2.254 2.254 0 016.254 16h59.492A2.254 2.254 0 0168 18.254z"/><circle cx="36" cy="36" r="29" fill="none" stroke="#00A5FF" stroke-miterlimit="10" stroke-width=".1"/><g stroke-linecap="round" stroke-miterlimit="10" stroke-width="6" stroke="#fff" fill="none" stroke-linejoin="round"><path d="M27.096 41c-4-2-5.448-8.03-6-13-1-9 6-16 15-16 10 0 16 7 15 16.154-.743 6.806-3 11.846-6 12.846"/><path d="M25.096 31.5c0 8.286 4 14.5 10.936 14.5 7.064 0 11.064-6.214 11.064-14.5 0-6.214-1.216-8.102-2-9.321-2-3.108-4-5.179-4-5.179-2 1.036-10 0-12 2.071-1 1.036-4 6.215-4 12.429zM17 60v-3c0-4.994 5.008-9 10-9 6 5 12 5 18 0 4.994 0 10 4.006 10 9v3M38.127 38.438c-1.248.75-2.582.75-4 0m-3-2c0 1-1 2-1 2m11-2c0 1 1 2 1 2"/><path d="M42 29.438a2 2 0 11-4 0 2 2 0 014 0m-8 0a2 2 0 11-4 0 2 2 0 014 0"/></g><path fill="#92D3F5" d="M55 60.998V57c0-4.994-5.006-9-10-9-6 5-12 5-18 0-4.992 0-10 4.006-10 9v3.998h38z"/><path fill="#D0CFCE" d="M25 39c-2 0-4-10-4-13 0-4 5-14 15-14s15 8 15 14c0 5-3 14-5 14"/><path fill="#FCEA2B" d="M25 31.5C25 39.786 29 46 35.937 46 43 46 47 39.786 47 31.5c0-6.214-3-11.393-4-12.429C41 17 40 17 40 17c-2 1.036-9 0-11 2.071-1 1.036-4 6.215-4 12.429z"/><path fill="none" stroke="#000" stroke-linecap="round" stroke-linejoin="round" stroke-width="2" d="M27.096 41c-4-2-5.448-8.03-6-13-1-9 6-16 15-16 10 0 16 7 15 16.154-.743 6.806-3 11.846-6 12.846"/><path fill="none" stroke="#000" stroke-linejoin="round" stroke-width="2" d="M25.096 31.5c0 8.286 4 14.5 10.936 14.5 7.064 0 11.064-6.214 11.064-14.5 0-6.214-1.216-8.102-2-9.321-2-3.108-4-5.179-4-5.179-2 1.036-10 0-12 2.071-1 1.036-4 6.215-4 12.429z"/><path fill="none" stroke="#000" stroke-linecap="round" stroke-linejoin="round" stroke-width="2" d="M17 60v-3c0-4.994 5.008-9 10-9 6 5 12 5 18 0 4.994 0 10 4.006 10 9v3M38.127 38.438c-1.248.75-2.582.75-4 0m-3-2c0 1-1 2-1 2m11-2c0 1 1 2 1 2"/><path d="M42 29.438a2 2 0 11-4 0 2 2 0 014 0m-8 0a2 2 0 11-4 0 2 2 0 014 0"/></svg>