<svg viewBox="0 0 72 72" xmlns="http://www.w3.org/2000/svg"><path fill="#B3B3B3" d="M68 4v64H4V4h64m4-4H0v72h72V0z"/><path fill="none" stroke="#00A5FF" stroke-miterlimit="10" stroke-width=".1" d="M12.9 11h46.2c1.1 0 1.9.9 1.9 1.9h0V59c0 1.1-.9 1.9-1.9 1.9H12.9c-1 .1-1.9-.8-1.9-1.9h0V12.9c0-1.1.9-1.9 1.9-1.9h0z"/><path fill="none" stroke="#00A5FF" stroke-miterlimit="10" stroke-width=".1" d="M18.3 4h35.5C55 4 56 5 56 6.3v59.5c0 1.2-1 2.3-2.3 2.3H18.3C17 68 16 67 16 65.7V6.3C16 5 17 4 18.3 4z"/><path fill="none" stroke="#00A5FF" stroke-miterlimit="10" stroke-width=".1" d="M68 18.3v35.5c0 1.2-1 2.3-2.3 2.3H6.3C5 56 4 55 4 53.7V18.3C4 17 5 16 6.3 16h59.5c1.2 0 2.2 1 2.2 2.3z"/><circle cx="36" cy="36" r="29" fill="none" stroke="#00A5FF" stroke-miterlimit="10" stroke-width=".1"/><g stroke-linecap="round" stroke-miterlimit="10" stroke-width="6" stroke="#fff" fill="none" stroke-linejoin="round"><path d="M26 40c-6 0-5-16-2-20 6-8 18-8 24 0 3 4 4 20-2 20M18 60v-3.1c0-5 3.8-9 8.8-9 6 5 12 5 18 0 5 0 9.2 4 9.2 9V60"/><path d="M42 33c0 1.1-.9 2-2 2s-2-.9-2-2 .9-2 2-2 2 .9 2 2m-8 0c0 1.1-.9 2-2 2s-2-.9-2-2 .9-2 2-2 2 .9 2 2"/><path d="M25 34c0 8 4.8 11.9 10.8 11.9S47 42 47 34c0-5.9-2.2-9.2-2.2-9.2-2 0-5.8-3.5-5.8-3.5s-8.2 5.5-12.8 5.5c0 0-1.2 1.2-1.2 7.2zm7.8 5.2c1.9 1 4.1 1 6 0"/></g><path fill="#92D3F5" d="M18 61v-4.1c0-5 3.8-9 8.8-9 6 5 12 5 18 0 5 0 9.2 4 9.2 9V61"/><path fill="#F1B31C" d="M26 40c-6 0-5-16-2-20 6-8 18-8 24 0 3 4 4 20-2 20"/><path fill="#FCEA2B" d="M25 34c0 8 4.8 11.9 10.8 11.9S47 42 47 34c0-5.9-2.2-9.2-2.2-9.2-2 0-5.8-3.5-5.8-3.5s-8.2 5.5-12.8 5.5c0 0-1.2 1.2-1.2 7.2z"/><path fill="none" stroke="#000" stroke-linecap="round" stroke-linejoin="round" stroke-width="2" d="M26 40c-6 0-5-16-2-20 6-8 18-8 24 0 3 4 4 20-2 20M18 60v-3.1c0-5 3.8-9 8.8-9 6 5 12 5 18 0 5 0 9.2 4 9.2 9V60"/><path d="M42 33c0 1.1-.9 2-2 2s-2-.9-2-2 .9-2 2-2 2 .9 2 2m-8 0c0 1.1-.9 2-2 2s-2-.9-2-2 .9-2 2-2 2 .9 2 2"/><path fill="none" stroke="#000" stroke-linejoin="round" stroke-width="2" d="M25 34c0 8 4.8 11.9 10.8 11.9S47 42 47 34c0-5.9-2.2-9.2-2.2-9.2-2 0-5.8-3.5-5.8-3.5s-8.2 5.5-12.8 5.5c0 0-1.2 1.2-1.2 7.2z"/><path fill="none" stroke="#000" stroke-linecap="round" stroke-linejoin="round" stroke-width="2" d="M32.8 39.2c1.9 1 4.1 1 6 0"/></svg>