<svg viewBox="0 0 72 72" xmlns="http://www.w3.org/2000/svg"><path fill="#b3b3b3" d="M68 4v64H4V4h64m4-4H0v72h72V0z"/><path fill="none" stroke="#00a5ff" stroke-miterlimit="10" stroke-width=".1" d="M12.923 10.958h46.154A1.923 1.923 0 0161 12.881v46.154a1.923 1.923 0 01-1.923 1.923H12.923A1.923 1.923 0 0111 59.035V12.881a1.923 1.923 0 011.923-1.923z"/><rect x="16" y="4" rx="2.254" width="40" height="64" fill="none" stroke="#00a5ff" stroke-miterlimit="10" stroke-width=".1"/><rect x="16" y="4" rx="2.254" width="40" height="64" transform="rotate(90 36 36)" fill="none" stroke="#00a5ff" stroke-miterlimit="10" stroke-width=".1"/><circle cx="36" cy="36" r="29" fill="none" stroke="#00a5ff" stroke-miterlimit="10" stroke-width=".1"/><g stroke-linecap="round" stroke-miterlimit="10" stroke-width="6" stroke="#fff" fill="none" stroke-linejoin="round"><path d="M55 31l-9.111 18.795-7.668 15.817c-.897 1.85-3.545 1.85-4.442 0L26.11 49.795 17 31"/><path d="M55 5l-9.111 18.882-7.668 15.891c-.897 1.86-3.545 1.86-4.442 0l-7.668-15.89L17 5"/></g><g fill="none" stroke="#000" stroke-linecap="round" stroke-linejoin="round" stroke-miterlimit="10" stroke-width="2"><path d="M55 31l-9.111 18.795-7.668 15.817c-.897 1.85-3.545 1.85-4.442 0L26.11 49.795 17 31"/><path d="M55 5l-9.111 18.882-7.668 15.891c-.897 1.86-3.545 1.86-4.442 0l-7.668-15.89L17 5"/></g></svg>