<svg viewBox="0 0 72 72" xmlns="http://www.w3.org/2000/svg"><path fill="#b3b3b3" d="M68 4v64H4V4h64m4-4H0v72h72V0z"/><path fill="none" stroke="#00a5ff" stroke-miterlimit="10" stroke-width=".1" d="M12.923 10.958h46.154A1.923 1.923 0 0161 12.881v46.154a1.923 1.923 0 01-1.923 1.923H12.923A1.923 1.923 0 0111 59.035V12.881a1.923 1.923 0 011.923-1.923z"/><rect x="16" y="4" rx="2.254" width="40" height="64" fill="none" stroke="#00a5ff" stroke-miterlimit="10" stroke-width=".1"/><rect x="16" y="4" rx="2.254" width="40" height="64" transform="rotate(90 36 36)" fill="none" stroke="#00a5ff" stroke-miterlimit="10" stroke-width=".1"/><circle cx="36" cy="36" r="29" fill="none" stroke="#00a5ff" stroke-miterlimit="10" stroke-width=".1"/><path d="M49.261 18A4.744 4.744 0 0154 22.739v26.523A4.744 4.744 0 0149.261 54H22.74A4.744 4.744 0 0118 49.261V22.74A4.744 4.744 0 0122.739 18H49.26m0-2H22.74A6.739 6.739 0 0016 22.739v26.523A6.739 6.739 0 0022.739 56h26.523A6.739 6.739 0 0056 49.261V22.74A6.739 6.739 0 0049.261 16h0z" stroke-linecap="round" stroke-miterlimit="10" stroke-width="6" stroke="#fff" fill="none" stroke-linejoin="round"/><path d="M49.261 18A4.744 4.744 0 0154 22.739v26.523A4.744 4.744 0 0149.261 54H22.74A4.744 4.744 0 0118 49.261V22.74A4.744 4.744 0 0122.739 18H49.26m0-2H22.74A6.739 6.739 0 0016 22.739v26.523A6.739 6.739 0 0022.739 56h26.523A6.739 6.739 0 0056 49.261V22.74A6.739 6.739 0 0049.261 16z"/></svg>