<svg viewBox="0 0 72 72" xmlns="http://www.w3.org/2000/svg"><path fill="#b3b3b3" d="M68 4v64H4V4h64m4-4H0v72h72V0z"/><path fill="none" stroke="#00a5ff" stroke-miterlimit="10" stroke-width=".1" d="M12.923 10.958h46.154A1.923 1.923 0 0161 12.881v46.154a1.923 1.923 0 01-1.923 1.923H12.923A1.923 1.923 0 0111 59.035V12.881a1.923 1.923 0 011.923-1.923z"/><rect x="16" y="4" rx="2.254" width="40" height="64" fill="none" stroke="#00a5ff" stroke-miterlimit="10" stroke-width=".1"/><rect x="16" y="4" rx="2.254" width="40" height="64" transform="rotate(90 36 36)" fill="none" stroke="#00a5ff" stroke-miterlimit="10" stroke-width=".1"/><circle cx="36" cy="36" r="29" fill="none" stroke="#00a5ff" stroke-miterlimit="10" stroke-width=".1"/><path d="M52.612 16.394a4.634 4.634 0 00-1.576-.297c-.848 0-1.697.297-2.424.772l-30 15.98-.303.296c-.788.772-1.212 1.723-1.212 2.792 0 1.07.424 2.08 1.212 2.792l.303.297 30 16.098c1.09.832 2.667 1.01 4 .475 1.515-.594 2.485-2.079 2.485-3.683v-31.84c0-1.603-.97-3.088-2.485-3.682z" stroke-linecap="round" stroke-miterlimit="10" stroke-width="6" stroke="#fff" fill="none" stroke-linejoin="round"/><path fill="none" stroke="#000" stroke-linejoin="round" stroke-miterlimit="10" stroke-width="2" d="M52.612 16.394a4.634 4.634 0 00-1.576-.297c-.848 0-1.697.297-2.424.772l-30 15.98-.303.296c-.788.772-1.212 1.723-1.212 2.792 0 1.07.424 2.08 1.212 2.792l.303.297 30 16.098c1.09.832 2.667 1.01 4 .475 1.515-.594 2.485-2.079 2.485-3.683v-31.84c0-1.603-.97-3.088-2.485-3.682z"/></svg>