<svg viewBox="0 0 72 72" xmlns="http://www.w3.org/2000/svg"><path fill="#b3b3b3" d="M68 4v64H4V4h64m4-4H0v72h72V0z"/><path fill="none" stroke="#00a5ff" stroke-miterlimit="10" stroke-width=".1" d="M12.923 10.958h46.154A1.923 1.923 0 0161 12.881v46.154a1.923 1.923 0 01-1.923 1.923H12.923A1.923 1.923 0 0111 59.035V12.881a1.923 1.923 0 011.923-1.923z"/><rect x="16" y="4" rx="2.254" width="40" height="64" fill="none" stroke="#00a5ff" stroke-miterlimit="10" stroke-width=".1"/><rect x="16" y="4" rx="2.254" width="40" height="64" transform="rotate(90 36 36)" fill="none" stroke="#00a5ff" stroke-miterlimit="10" stroke-width=".1"/><circle cx="36" cy="36" r="29" fill="none" stroke="#00a5ff" stroke-miterlimit="10" stroke-width=".1"/><g stroke-linecap="round" stroke-miterlimit="10" stroke-width="6" stroke="#fff" fill="none" stroke-linejoin="round"><path d="M54.091 21.357H17.356m0 0H14V35.5h2.357v25.143h39.286V35.5H58V21.357h-3.909M16.357 35.5h40.072m-5.468-17.25c.384-.98.492-2.393-.49-4.229-1.608-3.009-3.536-4.534-5.728-4.534-2.525 0-5.146 2.063-7.794 6.133a36.644 36.644 0 00-.95 1.545 36.02 36.02 0 00-.949-1.545c-2.647-4.07-5.269-6.133-7.793-6.133-2.193 0-4.12 1.525-5.73 4.534-.901 1.69-.883 3.021-.574 3.987M42.286 60V44.273m-12.572-2.487V60m12.572-25V22m-12.572 0v13"/><path d="M42.286 44.707V35.5l-12.572.02v7.354"/></g><path fill="#D22F27" d="M51.024 14.021c-1.67-3.009-3.671-4.534-5.948-4.534-2.62 0-5.341 2.063-8.09 6.133A36.494 36.494 0 0036 17.165a35.896 35.896 0 00-.986-1.545c-2.748-4.07-5.47-6.133-8.09-6.133-2.276 0-4.278 1.525-5.948 4.534-1.248 2.252-1.145 4.02-.548 4.979 1.077 1.73 3.83 2.745 7.704 3.411 2.975.513 6.122.589 7.734.589h.269c1.611 0 4.759-.076 7.733-.589 3.873-.666 6.626-1.682 7.704-3.411.595-.96.701-2.727-.548-4.979z"/><path fill="#FCEA2B" d="M16 36h39v25H16z"/><path fill="#f1b31c" d="M53.39 35.5L17 35.558v5.5l27.143 3.929L55 46.5V35.558z"/><path fill="#EA5A47" d="M29.714 60h12.572V44.273l-12.572-2.487z"/><path fill="#FCEA2B" d="M14 21h44v14H14z"/><path fill="#EA5A47" d="M29.714 22h12.571v13H29.714z"/><path fill="#D22F27" d="M42.286 35.5l-12.572.02v7.354l12.572 1.833z"/><g fill="none" stroke="#000" stroke-miterlimit="10" stroke-width="2"><path stroke-linecap="round" stroke-linejoin="round" d="M54.091 21.357H17.356m0 0H14V35.5h2.357v25.143h39.286V35.5H58V21.357h-3.909M16.357 35.5h40.072m-5.468-17.25c.384-.98.492-2.393-.49-4.229-1.608-3.009-3.536-4.534-5.728-4.534-2.525 0-5.146 2.063-7.794 6.133a36.644 36.644 0 00-.95 1.545 36.02 36.02 0 00-.949-1.545c-2.647-4.07-5.269-6.133-7.793-6.133-2.193 0-4.12 1.525-5.73 4.534-.901 1.69-.883 3.021-.574 3.987"/><path d="M42.286 60V44.273m-12.572-2.487V60m12.572-25V22m-12.572 0v13m12.572 9.707V35.5l-12.572.02v7.354"/></g></svg>