<svg viewBox="0 0 72 72" xmlns="http://www.w3.org/2000/svg"><path fill="#B3B3B3" d="M68 4v64H4V4h64m4-4H0v72h72V0z"/><path fill="none" stroke="#00A5FF" stroke-miterlimit="10" stroke-width=".1" d="M12.9 11h46.2c1.1 0 1.9.9 1.9 1.9h0V59c0 1.1-.9 1.9-1.9 1.9H12.9c-1 .1-1.9-.8-1.9-1.9h0V12.9c0-1.1.9-1.9 1.9-1.9h0z"/><path fill="none" stroke="#00A5FF" stroke-miterlimit="10" stroke-width=".1" d="M18.3 4h35.5C55 4 56 5 56 6.3v59.5c0 1.2-1 2.3-2.3 2.3H18.3C17 68 16 67 16 65.7V6.3C16 5 17 4 18.3 4z"/><path fill="none" stroke="#00A5FF" stroke-miterlimit="10" stroke-width=".1" d="M68 18.3v35.5c0 1.2-1 2.3-2.3 2.3H6.3C5 56 4 55 4 53.7V18.3C4 17 5 16 6.3 16h59.5c1.2 0 2.2 1 2.2 2.3z"/><circle cx="36" cy="36" r="29" fill="none" stroke="#00A5FF" stroke-miterlimit="10" stroke-width=".1"/><g stroke-linecap="round" stroke-miterlimit="10" stroke-width="6" stroke="#fff" fill="none" stroke-linejoin="round"><path d="M57.1 35.6c0-4.9 3.9-9.1 9.4-10.6v-5.2h-62v5.5c4.9 1.7 8.4 5.7 8.4 10.3s-3.5 8.6-8.4 10.3v5.5h62v-5.2c-5.4-1.5-9.4-5.7-9.4-10.6z"/><path d="M18.5 25h34v20h-34z"/></g><path fill="#D22F27" d="M57.6 35.9c0-4.9 3.9-9.1 9.4-10.6v-5.2H5v5.5c4.9 1.7 8.4 5.7 8.4 10.3S9.9 44.6 5 46.3v5.5h62v-5.2c-5.4-1.5-9.4-5.7-9.4-10.7z"/><g fill="none" stroke="#000" stroke-linejoin="round" stroke-miterlimit="10"><path stroke-width="2.216" d="M57.1 35.6c0-4.9 3.9-9.1 9.4-10.6v-5.2h-62v5.5c4.9 1.7 8.4 5.7 8.4 10.3s-3.5 8.6-8.4 10.3v5.5h62v-5.2c-5.4-1.5-9.4-5.7-9.4-10.6z"/><path stroke-width="2.095" d="M18.5 25h34v20h-34z"/></g><path fill="none" stroke="#FFF" stroke-linejoin="round" stroke-miterlimit="10" stroke-width="2.1" d="M18.5 25h34v20h-34z"/></svg>