<svg viewBox="0 0 72 72" xmlns="http://www.w3.org/2000/svg"><path fill="#B3B3B3" d="M68 4v64H4V4h64m4-4H0v72h72V0z"/><path fill="none" stroke="#00A5FF" stroke-miterlimit="10" stroke-width=".1" d="M12.9 11h46.2c1.1 0 1.9.9 1.9 1.9h0V59c0 1.1-.9 1.9-1.9 1.9H12.9c-1 .1-1.9-.8-1.9-1.9h0V12.9c0-1.1.9-1.9 1.9-1.9h0z"/><path fill="none" stroke="#00A5FF" stroke-miterlimit="10" stroke-width=".1" d="M18.3 4h35.5C55 4 56 5 56 6.3v59.5c0 1.2-1 2.3-2.3 2.3H18.3C17 68 16 67 16 65.7V6.3C16 5 17 4 18.3 4z"/><path fill="none" stroke="#00A5FF" stroke-miterlimit="10" stroke-width=".1" d="M68 18.3v35.5c0 1.2-1 2.3-2.3 2.3H6.3C5 56 4 55 4 53.7V18.3C4 17 5 16 6.3 16h59.5c1.2 0 2.2 1 2.2 2.3z"/><circle cx="36" cy="36" r="29" fill="none" stroke="#00A5FF" stroke-miterlimit="10" stroke-width=".1"/><path d="M21.8 62.4L33 66l20-42.7c2.9-6 0-13.4-5.7-15.3L21.8 62.4zm17.1 0l1.3 2.6 11.2-3.5-6-12.2M34.2 27.6L25 8c-5.8 1.9-8.6 9.2-5.8 15.3l8.5 18.3m6-22.5h4.6m5.4-11H28.6" stroke-linecap="round" stroke-miterlimit="10" stroke-width="6" stroke="#fff" fill="none" stroke-linejoin="round"/><path fill="#D22F27" d="M21.8 62.4L33 66l20-42.7c2.9-6 0-13.4-5.7-15.3"/><path fill="#EA5A47" d="M45 48.5l-6.5 13.1 1.7 3.4 11.2-3.5M25 8c-5.8 1.9-8.6 9.2-5.8 15.3L28 42.2l6.4-13.8"/><path fill="#D22F27" d="M41 20l5.9-12.8H25.3l6 12.8z"/><path d="M21.8 62.4L33 66l20-42.7c2.9-6 0-13.4-5.7-15.3L21.8 62.4zm17.1 0l1.3 2.6 11.2-3.5-6-12.2M34.2 27.6L25 8c-5.8 1.9-8.6 9.2-5.8 15.3l8.5 18.3m6-22.5h4.6m5.4-11H28.6" fill="none" stroke="#000" stroke-linecap="round" stroke-linejoin="round" stroke-miterlimit="10" stroke-width="1.813"/></svg>