<svg viewBox="0 0 72 72" xmlns="http://www.w3.org/2000/svg"><path fill="#B3B3B3" d="M68 4v64H4V4h64m4-4H0v72h72V0z"/><path fill="none" stroke="#00A5FF" stroke-miterlimit="10" stroke-width=".1" d="M12.923 10.958h46.154c1.062 0 1.923.861 1.923 1.923h0v46.154a1.923 1.923 0 01-1.923 1.923H12.923A1.923 1.923 0 0111 59.035h0V12.881c0-1.062.861-1.923 1.923-1.923h0z"/><path fill="none" stroke="#00A5FF" stroke-miterlimit="10" stroke-width=".1" d="M18.254 4h35.492A2.254 2.254 0 0156 6.254v59.492A2.254 2.254 0 0153.746 68H18.254A2.254 2.254 0 0116 65.746V6.254A2.254 2.254 0 0118.254 4z"/><path fill="none" stroke="#00A5FF" stroke-miterlimit="10" stroke-width=".1" d="M68 18.254v35.492A2.254 2.254 0 0165.746 56H6.254A2.254 2.254 0 014 53.746V18.254A2.254 2.254 0 016.254 16h59.492A2.254 2.254 0 0168 18.254z"/><circle cx="36" cy="36" r="29" fill="none" stroke="#00A5FF" stroke-miterlimit="10" stroke-width=".1"/><g stroke-linecap="round" stroke-miterlimit="10" stroke-width="6" stroke="#fff" fill="none" stroke-linejoin="round"><path d="M34 16.01V13.5a2.5 2.5 0 012.5-2.5h0a2.5 2.5 0 012.5 2.5V16"/><path d="M47.45 56h-22.9C19.846 56 16 52.153 16 47.45v-22.9c0-4.703 3.847-8.55 8.55-8.55h22.9c4.703 0 8.55 3.847 8.55 8.55v22.9c0 4.703-3.847 8.55-8.55 8.55z"/><circle cx="44.835" cy="29.002" r="2.834"/><circle cx="27.334" cy="29.002" r="2.834"/><path d="M44.5 47.5h-17c-2.2 0-4-1.8-4-4h0c0-2.2 1.8-4 4-4h17c2.2 0 4 1.8 4 4h0c0 2.2-1.8 4-4 4zm-31-6.5h0a2.5 2.5 0 01-2.5-2.5v-8a2.5 2.5 0 012.5-2.5h0a2.5 2.5 0 012.5 2.5v8a2.5 2.5 0 01-2.5 2.5zm45 0h0a2.5 2.5 0 002.5-2.5v-8a2.5 2.5 0 00-2.5-2.5h0a2.5 2.5 0 00-2.5 2.5v8a2.5 2.5 0 002.5 2.5zM28 40v7m5-7v7m5-7v7m5-7v7"/></g><path fill="#D22F27" d="M34 16.112v-2.51a2.5 2.5 0 015 0v2.5"/><path fill="#D0CFCE" d="M13.5 41.101a2.5 2.5 0 01-2.5-2.5v-8a2.5 2.5 0 015 0v8a2.5 2.5 0 01-2.5 2.5zm45 0a2.5 2.5 0 002.5-2.5v-8a2.5 2.5 0 00-5 0v8a2.5 2.5 0 002.5 2.5zM47.45 56.112h-22.9c-4.703 0-8.55-3.847-8.55-8.55v-22.9c0-4.702 3.847-8.55 8.55-8.55h22.9c4.703 0 8.55 3.848 8.55 8.55v22.9c0 4.703-3.847 8.55-8.55 8.55z"/><path fill="#9B9B9A" d="M35.498 56.111h13.286c3.969 0 7.216-3.847 7.216-8.549V24.661c0-4.702-3.247-8.55-7.216-8.55h-2.352"/><circle cx="44.835" cy="29.003" fill="#FFF" r="2.834"/><circle cx="27.334" cy="29.002" fill="#FFF" r="2.834"/><path fill="#FFF" d="M44.5 47.5h-17c-2.2 0-4-1.8-4-4s1.8-4 4-4h17c2.2 0 4 1.8 4 4s-1.8 4-4 4z"/><g fill="none" stroke="#000" stroke-miterlimit="2" stroke-width="2"><path stroke-linecap="round" stroke-linejoin="round" d="M34 16.01V13.5a2.5 2.5 0 012.5-2.5h0a2.5 2.5 0 012.5 2.5V16"/><path stroke-linecap="round" stroke-linejoin="round" d="M47.45 56h-22.9C19.846 56 16 52.153 16 47.45v-22.9c0-4.703 3.847-8.55 8.55-8.55h22.9c4.703 0 8.55 3.847 8.55 8.55v22.9c0 4.703-3.847 8.55-8.55 8.55z"/><circle cx="44.835" cy="29.002" stroke-linecap="round" stroke-linejoin="round" r="2.834"/><circle cx="27.334" cy="29.002" stroke-linecap="round" stroke-linejoin="round" r="2.834"/><path d="M44.5 47.5h-17c-2.2 0-4-1.8-4-4h0c0-2.2 1.8-4 4-4h17c2.2 0 4 1.8 4 4h0c0 2.2-1.8 4-4 4z"/><path stroke-linecap="round" stroke-linejoin="round" d="M13.5 41h0a2.5 2.5 0 01-2.5-2.5v-8a2.5 2.5 0 012.5-2.5h0a2.5 2.5 0 012.5 2.5v8a2.5 2.5 0 01-2.5 2.5zm45 0h0a2.5 2.5 0 002.5-2.5v-8a2.5 2.5 0 00-2.5-2.5h0a2.5 2.5 0 00-2.5 2.5v8a2.5 2.5 0 002.5 2.5zM28 40v7m5-7v7m5-7v7m5-7v7"/></g></svg>