<svg viewBox="0 0 72 72" xmlns="http://www.w3.org/2000/svg"><path fill="#B3B3B3" d="M68 4v64H4V4h64m4-4H0v72h72V0z"/><path fill="none" stroke="#00A5FF" stroke-miterlimit="10" stroke-width=".1" d="M12.923 10.958h46.154c1.062 0 1.923.861 1.923 1.923h0v46.154a1.923 1.923 0 01-1.923 1.923H12.923A1.923 1.923 0 0111 59.035h0V12.881c0-1.062.861-1.923 1.923-1.923h0z"/><path fill="none" stroke="#00A5FF" stroke-miterlimit="10" stroke-width=".1" d="M18.254 4h35.492A2.254 2.254 0 0156 6.254v59.492A2.254 2.254 0 0153.746 68H18.254A2.254 2.254 0 0116 65.746V6.254A2.254 2.254 0 0118.254 4z"/><path fill="none" stroke="#00A5FF" stroke-miterlimit="10" stroke-width=".1" d="M68 18.254v35.492A2.254 2.254 0 0165.746 56H6.254A2.254 2.254 0 014 53.746V18.254A2.254 2.254 0 016.254 16h59.492A2.254 2.254 0 0168 18.254z"/><circle cx="36" cy="36" r="29" fill="none" stroke="#00A5FF" stroke-miterlimit="10" stroke-width=".1"/><g stroke-linecap="round" stroke-miterlimit="10" stroke-width="6" stroke="#fff" fill="none" stroke-linejoin="round"><path d="M23.443 21.175c2.9-1.555 6.194-1.613 8.656 0m7.802 0c2.899-1.555 6.194-1.613 8.656 0m1.251 25.371s-1.58 8.43-13.81 8.76c-12.18-.44-13.81-8.76-13.81-8.76-.46-1.73-1.24-5.76 2.28-3.81 2.7 1.5 5.38 4.37 11.53 4.55 6.16-.18 8.83-3.05 11.53-4.55 3.52-1.95 2.75 2.08 2.28 3.81zM13.845 27.933s-2.047-1.468-.602-3.124c0 0-2.279-2.013-.428-3.904 0 0-1.238-4.073 2.138-4.309 0 0-.39-4.072 4.08-3.598 0 0 2.501-1.802 4.355.249 0 0 2.533-1.608 3.843.402"/><circle cx="36" cy="36" r="23"/><path d="M58.155 27.933s2.047-1.468.602-3.124c0 0 2.279-2.013.428-3.904 0 0 1.238-4.073-2.138-4.309 0 0 .39-4.072-4.08-3.598 0 0-2.501-1.802-4.355.249 0 0-2.533-1.608-3.843.402"/><ellipse cx="27.771" cy="30.818" rx="3.5" ry="6.304"/><ellipse cx="44.229" cy="30.822" rx="3.5" ry="6.304"/><circle cx="36" cy="38.978" r="2.735"/></g><path fill="#D22F27" d="M13.845 27.933s-2.047-1.468-.602-3.124c0 0-2.279-2.013-.428-3.904 0 0-1.238-4.073 2.138-4.309 0 0-.39-4.072 4.08-3.598 0 0 2.501-1.802 4.355.249 0 0 2.533-1.608 3.843.402m30.924 14.284s2.047-1.468.602-3.124c0 0 2.279-2.013.428-3.904 0 0 1.238-4.073-2.138-4.309 0 0 .39-4.072-4.08-3.598 0 0-2.501-1.802-4.355.249 0 0-2.533-1.608-3.843.402"/><circle cx="36" cy="36" r="23" fill="#FFF"/><path fill="#D22F27" d="M49.807 46.546s-1.58 8.43-13.81 8.76c-12.18-.44-13.81-8.76-13.81-8.76-.46-1.73-1.24-5.76 2.28-3.81 2.7 1.5 5.38 4.37 11.53 4.55 6.16-.18 8.83-3.05 11.53-4.55 3.52-1.95 2.75 2.08 2.28 3.81z"/><path fill="#FFF" d="M35.998 52.734c-6.062 0-9.93-3.31-10.911-4.914s.55-1.156.866-1.003c2.314 1.116 4.041 2.698 10.045 2.903m0 3.014c6.062 0 9.93-3.31 10.911-4.914s-.55-1.156-.866-1.003c-2.313 1.116-4.04 2.698-10.045 2.903"/><path fill="none" stroke="#000" stroke-linecap="round" stroke-linejoin="round" stroke-miterlimit="10" stroke-width="2" d="M23.443 21.175c2.9-1.555 6.194-1.613 8.656 0m7.802 0c2.899-1.555 6.194-1.613 8.656 0m1.251 25.371s-1.58 8.43-13.81 8.76c-12.18-.44-13.81-8.76-13.81-8.76-.46-1.73-1.24-5.76 2.28-3.81 2.7 1.5 5.38 4.37 11.53 4.55 6.16-.18 8.83-3.05 11.53-4.55 3.52-1.95 2.75 2.08 2.28 3.81zM13.845 27.933s-2.047-1.468-.602-3.124c0 0-2.279-2.013-.428-3.904 0 0-1.238-4.073 2.138-4.309 0 0-.39-4.072 4.08-3.598 0 0 2.501-1.802 4.355.249 0 0 2.533-1.608 3.843.402"/><circle cx="36" cy="36" r="23" fill="none" stroke="#000" stroke-linecap="round" stroke-linejoin="round" stroke-miterlimit="10" stroke-width="2"/><path fill="none" stroke="#000" stroke-linecap="round" stroke-linejoin="round" stroke-miterlimit="10" stroke-width="2" d="M58.155 27.933s2.047-1.468.602-3.124c0 0 2.279-2.013.428-3.904 0 0 1.238-4.073-2.138-4.309 0 0 .39-4.072-4.08-3.598 0 0-2.501-1.802-4.355.249 0 0-2.533-1.608-3.843.402"/><ellipse cx="27.771" cy="30.818" rx="3.5" ry="6.304" fill="none" stroke="#000" stroke-miterlimit="10" stroke-width="2"/><ellipse cx="44.229" cy="30.822" rx="3.5" ry="6.304" fill="none" stroke="#000" stroke-miterlimit="10" stroke-width="2"/><circle cx="36" cy="38.978" r="2.735"/><g><ellipse cx="27.771" cy="30.818" rx="3.5" ry="6.304" fill="none" stroke="#92D3F5" stroke-miterlimit="10" stroke-width="2.1"/><ellipse cx="44.229" cy="30.822" rx="3.5" ry="6.304" fill="none" stroke="#92D3F5" stroke-miterlimit="10" stroke-width="2.1"/><path d="M30.268 30.816c0 3.04-1.32 5.31-2.5 5.31s-2.5-2.27-2.5-5.31c0-3.03 1.32-5.3 2.5-5.3s2.5 2.27 2.5 5.3zm16.46.01c0 3.03-1.32 5.3-2.5 5.3s-2.5-2.27-2.5-5.3c0-3.04 1.32-5.31 2.5-5.31s2.5 2.27 2.5 5.31z"/><circle cx="36.056" cy="38.978" r="2.735" fill="#D22F27"/></g></svg>