<svg viewBox="0 0 72 72" xmlns="http://www.w3.org/2000/svg"><path fill="#b3b3b3" d="M68 4v64H4V4h64m4-4H0v72h72V0z"/><path fill="none" stroke="#00a5ff" stroke-miterlimit="10" stroke-width=".1" d="M12.923 10.958h46.154A1.923 1.923 0 0161 12.881v46.154a1.923 1.923 0 01-1.923 1.923H12.923A1.923 1.923 0 0111 59.035V12.881a1.923 1.923 0 011.923-1.923z"/><rect x="16" y="4" rx="2.254" width="40" height="64" fill="none" stroke="#00a5ff" stroke-miterlimit="10" stroke-width=".1"/><rect x="16" y="4" rx="2.254" width="40" height="64" transform="rotate(90 36 36)" fill="none" stroke="#00a5ff" stroke-miterlimit="10" stroke-width=".1"/><circle cx="36" cy="36" r="29" fill="none" stroke="#00a5ff" stroke-miterlimit="10" stroke-width=".1"/><g stroke-linecap="round" stroke-miterlimit="10" stroke-width="6" stroke="#fff" fill="none" stroke-linejoin="round"><path d="M16.891 46.494V24.016c5.323-.178 4.97-13.031 4.97-13.031l.03-5.969h3.837a10 10 0 0020 0h4.163v6s-.41 13 5 13v43h-38v-14.75M41.667 8.319a10.005 10.005 0 01-12.15-.116"/><path d="M14.958 52.008v-4.975c15.793 0 30.84-18.865 30.84-42.033H50c0 25.912-16.506 47.008-35.042 47.008z"/></g><path fill="#92d3f5" d="M49.966 4.984v6s-.41 13 5 13v43h-38v-43c5.323-.179 4.969-13.031 4.969-13.031l.031-5.97h3.836a10 10 0 0020 0z"/><path fill="#61b2e4" d="M45.797 5.024a10 10 0 01-20 0s3.963 5.053 9.324 5.19c5.49.141 10.676-5.19 10.676-5.19z"/><path fill="#fcea2b" d="M14.958 52.008v-4.975c15.793 0 30.84-18.865 30.84-42.033H50c0 25.912-16.506 47.008-35.042 47.008z"/><g><g fill="none" stroke="#000" stroke-linecap="round" stroke-linejoin="round" stroke-width="2"><path d="M16.891 46.494V24.016c5.323-.178 4.97-13.031 4.97-13.031l.03-5.969h3.837a10 10 0 0020 0h4.163v6s-.41 13 5 13v43h-38v-14.75M41.667 8.319a10.005 10.005 0 01-12.15-.116"/><path d="M14.958 52.008v-4.975c15.793 0 30.84-18.865 30.84-42.033H50c0 25.912-16.506 47.008-35.042 47.008z"/></g></g></svg>