<svg viewBox="0 0 72 72" xmlns="http://www.w3.org/2000/svg"><path fill="#b3b3b3" d="M68 4v64H4V4h64m4-4H0v72h72V0z"/><path fill="none" stroke="#00a5ff" stroke-miterlimit="10" stroke-width=".1" d="M12.923 10.958h46.154A1.923 1.923 0 0161 12.881v46.154a1.923 1.923 0 01-1.923 1.923H12.923A1.923 1.923 0 0111 59.035V12.881a1.923 1.923 0 011.923-1.923z"/><rect x="16" y="4" rx="2.254" width="40" height="64" fill="none" stroke="#00a5ff" stroke-miterlimit="10" stroke-width=".1"/><rect x="16" y="4" rx="2.254" width="40" height="64" transform="rotate(90 36 36)" fill="none" stroke="#00a5ff" stroke-miterlimit="10" stroke-width=".1"/><circle cx="36" cy="36" r="29" fill="none" stroke="#00a5ff" stroke-miterlimit="10" stroke-width=".1"/><path d="M58.62 13.226c-12.33-3.232-26-.017-35.662 9.646-9.683 9.683-12.892 23.39-9.626 35.739l.049.048c12.329 3.233 25.998.017 35.661-9.646 9.683-9.683 12.892-23.39 9.626-35.738m.001.001L13.333 58.612m28.242-24.165l-4.079-4.08m7.615.544l-4.08-4.079m-2.991 11.15l-4.08-4.079m.544 7.615l-4.079-4.079m.543 7.614l-4.079-4.079m-.873-4.894c0-1.8.475-3.488 1.306-4.946m13.686 13.612a9.954 9.954 0 01-4.992 1.333m10-9.999c0 1.82-.486 3.526-1.336 4.995M30.986 27.434a9.952 9.952 0 014.955-1.354" stroke-linecap="round" stroke-miterlimit="10" stroke-width="6" stroke="#fff" fill="none" stroke-linejoin="round"/><path fill="#f4aa41" d="M58.62 13.226c-12.33-3.232-26-.017-35.662 9.646-9.683 9.683-12.892 23.39-9.626 35.739l.049.048c12.329 3.233 25.998.017 35.661-9.646 9.683-9.683 12.892-23.39 9.626-35.738"/><path fill="#e27022" d="M60.019 20.352c-1.468 9.652-6.762 19.76-15.397 25.792-9.744 6.807-21.628 8.26-32.162 4.98.134 2.53.515 5.048 1.167 7.511l.048.049c12.283 3.22 25.901.017 35.528-9.61 7.608-7.608 11.231-18.757 10.816-28.721z"/><path d="M58.62 13.226c-12.33-3.232-26-.017-35.662 9.646-9.683 9.683-12.892 23.39-9.626 35.739l.049.048c12.329 3.233 25.998.017 35.661-9.646 9.683-9.683 12.892-23.39 9.626-35.738m.001.001L13.333 58.612m28.242-24.165l-4.079-4.08m7.615.544l-4.08-4.079m-2.991 11.15l-4.08-4.079m.544 7.615l-4.079-4.079m.543 7.614l-4.079-4.079m-.873-4.894c0-1.8.475-3.488 1.306-4.946m13.686 13.612a9.954 9.954 0 01-4.992 1.333m10-9.999c0 1.82-.486 3.526-1.336 4.995M30.986 27.434a9.952 9.952 0 014.955-1.354" fill="none" stroke="#000" stroke-linecap="round" stroke-linejoin="round" stroke-miterlimit="10" stroke-width="2"/></svg>