<svg viewBox="0 0 72 72" xmlns="http://www.w3.org/2000/svg"><path fill="#B3B3B3" d="M68 4v64H4V4h64m4-4H0v72h72V0z"/><path fill="none" stroke="#00A5FF" stroke-miterlimit="10" stroke-width=".1" d="M12.9 11h46.2c1.1 0 1.9.9 1.9 1.9h0V59c0 1.1-.9 1.9-1.9 1.9H12.9c-1 .1-1.9-.8-1.9-1.9h0V12.9c0-1.1.9-1.9 1.9-1.9h0z"/><path fill="none" stroke="#00A5FF" stroke-miterlimit="10" stroke-width=".1" d="M18.3 4h35.5C55 4 56 5 56 6.3v59.5c0 1.2-1 2.3-2.3 2.3H18.3C17 68 16 67 16 65.7V6.3C16 5 17 4 18.3 4z"/><path fill="none" stroke="#00A5FF" stroke-miterlimit="10" stroke-width=".1" d="M68 18.3v35.5c0 1.2-1 2.3-2.3 2.3H6.3C5 56 4 55 4 53.7V18.3C4 17 5 16 6.3 16h59.5c1.2 0 2.2 1 2.2 2.3z"/><circle cx="36" cy="36" r="29" fill="none" stroke="#00A5FF" stroke-miterlimit="10" stroke-width=".1"/><g stroke-linecap="round" stroke-miterlimit="10" stroke-width="6" stroke="#fff" fill="none" stroke-linejoin="round"><path d="M36 4.2v63.5m2.9-31.8h-5.8m5.8-5h-5.8m5.8 10h-5.8m-7.5 17.7h20.9M23.6 16h24.8M35.9 4c-11 6.4-18.3 18.3-18.3 31.9S25 61.5 36 67.9h.1C47 61.5 54.4 49.6 54.4 36c0-13.7-7.4-25.6-18.5-32"/></g><path d="M36 4.2v63.5m2.9-31.8h-5.8m5.8-5h-5.8m5.8 10h-5.8m-7.5 17.7h20.9M23.6 16h24.8" fill="none" stroke="#000" stroke-linecap="round" stroke-linejoin="round" stroke-miterlimit="10" stroke-width="2"/><path fill="#A57939" d="M35.9 4c-11 6.4-18.3 18.3-18.3 31.9S25 61.5 36 67.9h.1C47 61.5 54.4 49.6 54.4 36c0-13.7-7.4-25.6-18.5-32"/><path fill="#6A462F" d="M41.7 8.1c5.8 7.9 9.2 18.8 7.4 29.1-2.1 11.7-9.5 21.2-19.2 26.3 1.9 1.7 3.9 3.2 6.1 4.5h.1c11-6.4 18.3-18.3 18.3-31.9 0-10.8-5.3-21.2-12.7-28z"/><path fill="none" stroke="#FFF" stroke-linecap="round" stroke-linejoin="round" stroke-miterlimit="10" stroke-width="2" d="M36 4.2v63.5m2.9-31.8h-5.8m5.8-5h-5.8m5.8 10h-5.8m-7.5 17.7h20.9M23.6 16h24.8"/><path fill="none" stroke="#000" stroke-linecap="round" stroke-linejoin="round" stroke-miterlimit="10" stroke-width="2" d="M35.9 4c-11 6.4-18.3 18.3-18.3 31.9S25 61.5 36 67.9h.1C47 61.5 54.4 49.6 54.4 36c0-13.7-7.4-25.6-18.5-32"/></svg>