<svg viewBox="0 0 72 72" xmlns="http://www.w3.org/2000/svg"><path fill="#b3b3b3" d="M68 4v64H4V4h64m4-4H0v72h72V0z"/><path fill="none" stroke="#00a5ff" stroke-miterlimit="10" stroke-width=".1" d="M12.923 10.958h46.154A1.923 1.923 0 0161 12.881v46.154a1.923 1.923 0 01-1.923 1.923H12.923A1.923 1.923 0 0111 59.035V12.881a1.923 1.923 0 011.923-1.923z"/><rect x="16" y="4" rx="2.254" width="40" height="64" fill="none" stroke="#00a5ff" stroke-miterlimit="10" stroke-width=".1"/><rect x="16" y="4" rx="2.254" width="40" height="64" transform="rotate(90 36 36)" fill="none" stroke="#00a5ff" stroke-miterlimit="10" stroke-width=".1"/><circle cx="36" cy="36" r="29" fill="none" stroke="#00a5ff" stroke-miterlimit="10" stroke-width=".1"/><g stroke-linecap="round" stroke-miterlimit="10" stroke-width="6" stroke="#fff" fill="none" stroke-linejoin="round"><path d="M36 35.958c0 10.723-5.604 19.99-14.292 25m14.292-25c-9-5.878-13.667-15.712-13.11-25.725m13.103 25.718c9.154-5.635 20.08-5.574 28.9-.802M33.08 48.914c9.154-5.635 20.21-5.575 29.03-.802M22.93 60.694c9.847-6.062 21.36-6.617 30.28-2.404M26.813 26.563c.023 10.749-5.804 19.896-14.482 24.924m9.929-40.198c.026 12.097-5.772 22.67-14.406 28.326m41.456-7.98c-9.621-4.793-15.412-14.211-16.022-24.221m31.044 26.453C53.504 28.474 46.646 18.962 45.456 8.709"/><circle cx="35.989" cy="35.958" r="29"/></g><circle cx="35.989" cy="35.958" r="29" fill="#D0CFCE"/><path fill="#9B9B9A" d="M50.738 10.998c4.825 5.18 7.782 12.123 7.782 19.76 0 16.016-12.984 29-29 29a28.857 28.857 0 01-14.664-3.984C20.145 61.42 27.653 64.958 36 64.958c16.016 0 29-12.984 29-29 0-10.631-5.73-19.911-14.262-24.96z"/><g fill="none" stroke="#000" stroke-linecap="round" stroke-linejoin="round" stroke-miterlimit="10" stroke-width="2"><path d="M36 35.958c0 10.723-5.604 19.99-14.292 25m14.292-25c-9-5.878-13.667-15.712-13.11-25.725m13.103 25.718c9.154-5.635 20.08-5.574 28.9-.802M33.08 48.914c9.154-5.635 20.21-5.575 29.03-.802M22.93 60.694c9.847-6.062 21.36-6.617 30.28-2.404M26.813 26.563c.023 10.749-5.804 19.896-14.482 24.924m9.929-40.198c.026 12.097-5.772 22.67-14.406 28.326m41.456-7.98c-9.621-4.793-15.412-14.211-16.022-24.221m31.044 26.453C53.504 28.474 46.646 18.962 45.456 8.709"/><circle cx="35.989" cy="35.958" r="29"/></g></svg>