<svg viewBox="0 0 72 72" xmlns="http://www.w3.org/2000/svg"><path fill="#b3b3b3" d="M68 4v64H4V4h64m4-4H0v72h72V0z"/><path fill="none" stroke="#00a5ff" stroke-miterlimit="10" stroke-width=".1" d="M12.923 10.958h46.154A1.923 1.923 0 0161 12.881v46.154a1.923 1.923 0 01-1.923 1.923H12.923A1.923 1.923 0 0111 59.035V12.881a1.923 1.923 0 011.923-1.923z"/><rect x="16" y="4" rx="2.254" width="40" height="64" fill="none" stroke="#00a5ff" stroke-miterlimit="10" stroke-width=".1"/><rect x="16" y="4" rx="2.254" width="40" height="64" transform="rotate(90 36 36)" fill="none" stroke="#00a5ff" stroke-miterlimit="10" stroke-width=".1"/><circle cx="36" cy="36" r="29" fill="none" stroke="#00a5ff" stroke-miterlimit="10" stroke-width=".1"/><g stroke-linecap="round" stroke-miterlimit="10" stroke-width="6" stroke="#fff" fill="none" stroke-linejoin="round"><path d="M48.4 52.237a2.429 2.429 0 10-4.8 0v3.598l-2.05 4.098-.495.991L38 67.035h3.2l1.6-1.6 1.6 1.6 1.6-1.6 1.6 1.6 1.6-1.6 1.6 1.6 3.2.001-3.063-6.126-.563-1.126-1.973-3.947v-3.155z"/><path d="M48.4 53.437v2.4s-4.8-.011-4.8 0v-2.4zM24.22 48.658l-.579 4.545v13.834h3.729V53.203m-2.618-23.696h1.5v16h-1.5z"/><ellipse cx="25.752" cy="16.842" rx="9" ry="11.842"/></g><path fill="#d0cfce" stroke="#d0cfce" stroke-linecap="round" stroke-linejoin="round" stroke-width="1.5" d="M48.4 52.237a2.429 2.429 0 10-4.8 0v3.598L38 67.036h3.2l1.6-1.6 1.6 1.6 1.6-1.6 1.6 1.6 1.6-1.6 1.6 1.6H54l-5.6-11.198v-3.155z"/><path fill="#d22f27" d="M49.176 53.437v2.4s-6.35-.012-6.35 0v-2.4z"/><path fill="#9b9b9a" stroke="#9b9b9a" stroke-linecap="round" stroke-linejoin="round" stroke-width="2" d="M23.641 67.036V53.202l.854-6.697h2.022l.853 6.697v13.834h-3.729z"/><path fill="#3f3f3f" d="M24.752 29.507h1.5v16h-1.5z"/><path d="M25.696 4.5v24m-3-23.5v23m-3-20.5v18m9-20.5v23m3-20.5v18M16.252 14h18m-18 3h18m-17.5 3h17m-16-9h15.5m-14-3h12m-12 18h12m-14-3h16" fill="none" stroke="#d0cfce" stroke-miterlimit="10" stroke-width="1.5"/><ellipse cx="25.752" cy="16.842" rx="9" ry="11.842" fill="none" stroke="#3f3f3f" stroke-miterlimit="10" stroke-width="2"/><g><g fill="none" stroke="#000" stroke-width="1.5"><path stroke-linecap="round" stroke-linejoin="round" d="M48.4 52.237a2.429 2.429 0 10-4.8 0v3.598l-2.05 4.098-.495.991L38 67.035h3.2l1.6-1.6 1.6 1.6 1.6-1.6 1.6 1.6 1.6-1.6 1.6 1.6 3.2.001-3.063-6.126-.563-1.126-1.973-3.947v-3.155z"/><path stroke-miterlimit="10" d="M48.4 53.437v2.4s-4.8-.011-4.8 0v-2.4z"/></g><path fill="none" stroke="#000" stroke-linecap="round" stroke-linejoin="round" stroke-width="2" d="M24.22 48.658l-.579 4.545v13.834h3.729V53.203"/><path d="M24.752 29.507h1.5v16h-1.5z"/><ellipse cx="25.752" cy="16.842" rx="9" ry="11.842" fill="none" stroke="#000" stroke-miterlimit="10" stroke-width="2"/></g></svg>