<svg viewBox="0 0 72 72" xmlns="http://www.w3.org/2000/svg"><path fill="#b3b3b3" d="M68 4v64H4V4h64m4-4H0v72h72V0z"/><path fill="none" stroke="#00a5ff" stroke-miterlimit="10" stroke-width=".1" d="M12.923 10.958h46.154A1.923 1.923 0 0161 12.881v46.154a1.923 1.923 0 01-1.923 1.923H12.923A1.923 1.923 0 0111 59.035V12.881a1.923 1.923 0 011.923-1.923z"/><rect x="16" y="4" rx="2.254" width="40" height="64" fill="none" stroke="#00a5ff" stroke-miterlimit="10" stroke-width=".1"/><rect x="16" y="4" rx="2.254" width="40" height="64" transform="rotate(90 36 36)" fill="none" stroke="#00a5ff" stroke-miterlimit="10" stroke-width=".1"/><circle cx="36" cy="36" r="29" fill="none" stroke="#00a5ff" stroke-miterlimit="10" stroke-width=".1"/><g stroke-linecap="round" stroke-miterlimit="10" stroke-width="6" stroke="#fff" fill="none" stroke-linejoin="round"><path d="M23.111 58.006l-1.517-4.207-4.275-1.311m10.339-.548l-2.459-3.735-4.463-.275m9.956-2.817l-3.277-3.044-4.401.795m8.983-4.946l-3.921-2.151-4.073 1.846m7.292-7.725l-4.332-1.111-3.488 2.799m5.191-9.619l-4.472-.019-2.698 3.567m2.961-10.152l-4.348 1.046-1.773 4.106m31.553 37.501l1.517-4.207 4.275-1.311m-10.339-.548l2.459-3.735 4.463-.275m-9.956-2.817l3.277-3.044 4.401.795m-8.983-4.946l3.921-2.151 4.073 1.846m-7.292-7.725l4.332-1.111 3.488 2.799m-5.191-9.619l4.472-.019 2.698 3.567m-2.961-10.152l4.348 1.046 1.773 4.106M18 14.558a27.988 27.988 0 010 42.884m36.5-42.451a27.98 27.98 0 000 42.018"/><path d="M23.111 58.006l-1.517-4.207-4.275-1.311m10.339-.548l-2.459-3.735-4.463-.275"/><path d="M27.658 51.94l-2.459-3.735-4.463-.275m9.956-2.817l-3.277-3.044-4.401.795m8.983-4.946l-3.921-2.151-4.073 1.846m7.292-7.725l-4.332-1.111-3.488 2.799m5.191-9.619l-4.472-.019-2.698 3.567m2.961-10.152l-4.348 1.046-1.773 4.106m31.553 37.501l1.517-4.207 4.275-1.311m-10.339-.548l2.459-3.735 4.463-.275m-9.956-2.817l3.277-3.044 4.401.795m-8.983-4.946l3.921-2.151 4.073 1.846m-7.292-7.725l4.332-1.111 3.488 2.799m-5.191-9.619l4.472-.019 2.698 3.567m-2.961-10.152l4.348 1.046 1.773 4.106"/><circle cx="36" cy="36" r="28"/></g><circle cx="36" cy="36" r="28" fill="#fcea2b"/><g fill="none"><path d="M23.111 58.006l-1.517-4.207-4.275-1.311m10.339-.548l-2.459-3.735-4.463-.275m9.956-2.817l-3.277-3.044-4.401.795m8.983-4.946l-3.921-2.151-4.073 1.846m7.292-7.725l-4.332-1.111-3.488 2.799m5.191-9.619l-4.472-.019-2.698 3.567m2.961-10.152l-4.348 1.046-1.773 4.106m31.553 37.501l1.517-4.207 4.275-1.311m-10.339-.548l2.459-3.735 4.463-.275m-9.956-2.817l3.277-3.044 4.401.795m-8.983-4.946l3.921-2.151 4.073 1.846m-7.292-7.725l4.332-1.111 3.488 2.799m-5.191-9.619l4.472-.019 2.698 3.567m-2.961-10.152l4.348 1.046 1.773 4.106"/><path stroke="#000" stroke-linecap="round" stroke-miterlimit="10" stroke-width="2" d="M18 14.558a27.988 27.988 0 010 42.884m36.5-42.451a27.98 27.98 0 000 42.018"/><path stroke="#000" stroke-linecap="round" stroke-linejoin="round" stroke-width="2" d="M23.111 58.006l-1.517-4.207-4.275-1.311m10.339-.548l-2.459-3.735-4.463-.275"/><path stroke="#000" stroke-linecap="round" stroke-linejoin="round" stroke-width="2" d="M27.658 51.94l-2.459-3.735-4.463-.275m9.956-2.817l-3.277-3.044-4.401.795m8.983-4.946l-3.921-2.151-4.073 1.846m7.292-7.725l-4.332-1.111-3.488 2.799m5.191-9.619l-4.472-.019-2.698 3.567m2.961-10.152l-4.348 1.046-1.773 4.106m31.553 37.501l1.517-4.207 4.275-1.311m-10.339-.548l2.459-3.735 4.463-.275m-9.956-2.817l3.277-3.044 4.401.795m-8.983-4.946l3.921-2.151 4.073 1.846m-7.292-7.725l4.332-1.111 3.488 2.799m-5.191-9.619l4.472-.019 2.698 3.567m-2.961-10.152l4.348 1.046 1.773 4.106"/><circle cx="36" cy="36" r="28" stroke="#000" stroke-miterlimit="10" stroke-width="2"/></g><path d="M23.111 58.006l-1.517-4.207-4.275-1.311m10.339-.548l-2.459-3.735-4.463-.275m9.956-2.817l-3.277-3.044-4.401.795m8.983-4.946l-3.921-2.151-4.073 1.846m7.292-7.725l-4.332-1.111-3.488 2.799m5.191-9.619l-4.472-.019-2.698 3.567m2.961-10.152l-4.348 1.046-1.773 4.106m31.553 37.501l1.517-4.207 4.275-1.311m-10.339-.548l2.459-3.735 4.463-.275m-9.956-2.817l3.277-3.044 4.401.795m-8.983-4.946l3.921-2.151 4.073 1.846m-7.292-7.725l4.332-1.111 3.488 2.799m-5.191-9.619l4.472-.019 2.698 3.567m-2.961-10.152l4.348 1.046 1.773 4.106" fill="none" stroke="#d22f27" stroke-linecap="round" stroke-linejoin="round" stroke-width="2"/></svg>