<svg viewBox="0 0 72 72" xmlns="http://www.w3.org/2000/svg"><path fill="#b3b3b3" d="M68 4v64H4V4h64m4-4H0v72h72V0z"/><path fill="none" stroke="#00a5ff" stroke-miterlimit="10" stroke-width=".1" d="M12.923 10.958h46.154A1.923 1.923 0 0161 12.881v46.154a1.923 1.923 0 01-1.923 1.923H12.923A1.923 1.923 0 0111 59.035V12.881a1.923 1.923 0 011.923-1.923z"/><rect x="16" y="4" rx="2.254" width="40" height="64" fill="none" stroke="#00a5ff" stroke-miterlimit="10" stroke-width=".1"/><rect x="16" y="4" rx="2.254" width="40" height="64" transform="rotate(90 36 36)" fill="none" stroke="#00a5ff" stroke-miterlimit="10" stroke-width=".1"/><circle cx="36" cy="36" r="29" fill="none" stroke="#00a5ff" stroke-miterlimit="10" stroke-width=".1"/><path d="M58.042 16.667s-2.584 2.083-6.209 2.458c0 0-5.708-6.375-13.875-.833-3.666 2.583-4 8.041-3.375 10 0 0-11.083.875-20.75-10.459 0 0-4.333 7.5 2.834 13.5 0 0-2.119.334-4.132-1.333 0 0-.952 7.75 7.715 9.917 0 0-.583 1-4.083 0 0 0 .583 6.333 8.833 7.25 0 0-4.457 4.583-14.478 4 0 0 16.561 12.416 34.478-2.584 10-8.5 9.667-20.75 9.5-22.583 0 0 3.95-3 4.975-4.917 0 0-3.058 1-5.558 1 0 0 3.333-1.75 4.125-5.416z" stroke-linecap="round" stroke-miterlimit="10" stroke-width="6" stroke="#fff" fill="none" stroke-linejoin="round"/><path fill="#61b2e4" d="M58.042 16.667s-2.584 2.083-6.209 2.458c0 0-5.708-6.375-13.875-.833-3.666 2.583-4 8.041-3.375 10 0 0-11.083.875-20.75-10.459 0 0-4.333 7.5 2.834 13.5 0 0-2.119.334-4.132-1.333 0 0-.952 7.75 7.715 9.917 0 0-.583 1-4.083 0 0 0 .583 6.333 8.833 7.25 0 0-4.457 4.583-14.478 4 0 0 16.561 12.416 34.478-2.584 10-8.5 9.667-20.75 9.5-22.583 0 0 3.95-3 4.975-4.917 0 0-3.058 1-5.558 1 0 0 3.333-1.75 4.125-5.416z"/><path fill="none" stroke="#000" stroke-linecap="round" stroke-linejoin="round" stroke-miterlimit="10" stroke-width="2" d="M58.042 16.667s-2.584 2.083-6.209 2.458c0 0-5.708-6.375-13.875-.833-3.666 2.583-4 8.041-3.375 10 0 0-11.083.875-20.75-10.459 0 0-4.333 7.5 2.834 13.5 0 0-2.119.334-4.132-1.333 0 0-.952 7.75 7.715 9.917 0 0-.583 1-4.083 0 0 0 .583 6.333 8.833 7.25 0 0-4.457 4.583-14.478 4 0 0 16.561 12.416 34.478-2.584 10-8.5 9.667-20.75 9.5-22.583 0 0 3.95-3 4.975-4.917 0 0-3.058 1-5.558 1 0 0 3.333-1.75 4.125-5.416z"/></svg>