<svg viewBox="0 0 72 72" xmlns="http://www.w3.org/2000/svg"><path fill="#b3b3b3" d="M68 4v64H4V4h64m4-4H0v72h72V0z"/><path fill="none" stroke="#00a5ff" stroke-miterlimit="10" stroke-width=".1" d="M12.923 10.958h46.154A1.923 1.923 0 0161 12.881v46.154a1.923 1.923 0 01-1.923 1.923H12.923A1.923 1.923 0 0111 59.035V12.881a1.923 1.923 0 011.923-1.923z"/><rect x="16" y="4" rx="2.254" width="40" height="64" fill="none" stroke="#00a5ff" stroke-miterlimit="10" stroke-width=".1"/><rect x="16" y="4" rx="2.254" width="40" height="64" transform="rotate(90 36 36)" fill="none" stroke="#00a5ff" stroke-miterlimit="10" stroke-width=".1"/><circle cx="36" cy="36" r="29" fill="none" stroke="#00a5ff" stroke-miterlimit="10" stroke-width=".1"/><g stroke-linecap="round" stroke-miterlimit="10" stroke-width="6" stroke="#fff" fill="none" stroke-linejoin="round"><path d="M63.874 21.906a7.31 7.31 0 00-5.144-5.177C54.193 15.505 36 15.505 36 15.505s-18.193 0-22.73 1.224a7.31 7.31 0 00-5.144 5.177C6.91 26.472 6.91 36 6.91 36s0 9.528 1.216 14.095a7.31 7.31 0 005.144 5.177C17.807 56.495 36 56.495 36 56.495s18.193 0 22.73-1.223a7.31 7.31 0 005.144-5.177C65.09 45.528 65.09 36 65.09 36s0-9.528-1.216-14.094"/><path d="M30.05 44.65L45.256 36 30.05 27.35z"/></g><path fill="#ea5a47" d="M63.874 21.906a7.31 7.31 0 00-5.144-5.177C54.193 15.505 36 15.505 36 15.505s-18.193 0-22.73 1.224a7.31 7.31 0 00-5.144 5.177C6.91 26.472 6.91 36 6.91 36s0 9.528 1.216 14.095a7.31 7.31 0 005.144 5.177C17.807 56.495 36 56.495 36 56.495s18.193 0 22.73-1.223a7.31 7.31 0 005.144-5.177C65.09 45.528 65.09 36 65.09 36s0-9.528-1.216-14.094"/><path fill="#fff" d="M30.05 44.65L45.256 36 30.05 27.35z"/><g fill="none" stroke="#000" stroke-miterlimit="10" stroke-width="2"><path d="M63.874 21.906a7.31 7.31 0 00-5.144-5.177C54.193 15.505 36 15.505 36 15.505s-18.193 0-22.73 1.224a7.31 7.31 0 00-5.144 5.177C6.91 26.472 6.91 36 6.91 36s0 9.528 1.216 14.095a7.31 7.31 0 005.144 5.177C17.807 56.495 36 56.495 36 56.495s18.193 0 22.73-1.223a7.31 7.31 0 005.144-5.177C65.09 45.528 65.09 36 65.09 36s0-9.528-1.216-14.094"/><path stroke-linecap="round" stroke-linejoin="round" d="M30.05 44.65L45.256 36 30.05 27.35z"/></g></svg>