<svg viewBox="0 0 72 72" xmlns="http://www.w3.org/2000/svg"><path fill="#b3b3b3" d="M68 4v64H4V4h64m4-4H0v72h72V0z"/><path fill="none" stroke="#00a5ff" stroke-miterlimit="10" stroke-width=".1" d="M12.923 10.958h46.154A1.923 1.923 0 0161 12.881v46.154a1.923 1.923 0 01-1.923 1.923H12.923A1.923 1.923 0 0111 59.035V12.881a1.923 1.923 0 011.923-1.923z"/><rect x="16" y="4" rx="2.254" width="40" height="64" fill="none" stroke="#00a5ff" stroke-miterlimit="10" stroke-width=".1"/><rect x="16" y="4" rx="2.254" width="40" height="64" transform="rotate(90 36 36)" fill="none" stroke="#00a5ff" stroke-miterlimit="10" stroke-width=".1"/><circle cx="36" cy="36" r="29" fill="none" stroke="#00a5ff" stroke-miterlimit="10" stroke-width=".1"/><g stroke-linecap="round" stroke-miterlimit="10" stroke-width="6" stroke="#fff" fill="none" stroke-linejoin="round"><path d="M29.044 61.611c0-.927-.035-3.98-.035-7.764 0-2.647.874-4.373 1.863-5.253-6.227-.721-12.779-3.153-12.779-14.034 0-3.098 1.096-5.632 2.887-7.615-.286-.72-1.253-3.606.278-7.514 0 0 2.355-.764 7.716 2.908a26.455 26.455 0 0114.054 0c5.357-3.672 7.711-2.908 7.711-2.908 1.532 3.908.57 6.795.278 7.514 1.796 1.983 2.882 4.514 2.882 7.615 0 10.905-6.56 13.307-12.817 14.008 1.013.882 1.909 2.611 1.909 5.263 0 3.792-.035 6.85-.035 7.78 0 .762.505 1.641 1.93 1.369 11.145-3.758 19.177-14.396 19.177-26.932 0-15.678-12.567-28.388-28.067-28.388-15.494 0-28.06 12.707-28.06 28.388 0 12.541 8.04 23.182 19.202 26.934 1.395.262 1.906-.614 1.906-1.37z"/><path d="M16.29 48.09c2.568.78 3.58 1.635 4.789 3.661 1.205 2.026 2.62 4.287 7.933 2.999"/></g><path fill="#d0cfce" d="M29.044 61.611c0-.927-.035-3.98-.035-7.764 0-2.647.874-4.373 1.863-5.253-6.227-.721-12.779-3.153-12.779-14.034 0-3.098 1.096-5.632 2.887-7.615-.286-.72-1.253-3.606.278-7.514 0 0 2.355-.764 7.716 2.908a26.455 26.455 0 0114.054 0c5.357-3.672 7.711-2.908 7.711-2.908 1.532 3.908.57 6.795.278 7.514 1.796 1.983 2.882 4.514 2.882 7.615 0 10.905-6.56 13.307-12.817 14.008 1.013.882 1.909 2.611 1.909 5.263 0 3.792-.035 6.85-.035 7.78 0 .762.505 1.641 1.93 1.369 11.145-3.758 19.177-14.396 19.177-26.932 0-15.678-12.567-28.388-28.067-28.388-15.494 0-28.06 12.707-28.06 28.388 0 12.541 8.04 23.182 19.202 26.934 1.395.262 1.906-.614 1.906-1.37z"/><g fill="none" stroke="#000" stroke-linecap="round" stroke-linejoin="round" stroke-miterlimit="10" stroke-width="2"><path d="M29.044 61.611c0-.927-.035-3.98-.035-7.764 0-2.647.874-4.373 1.863-5.253-6.227-.721-12.779-3.153-12.779-14.034 0-3.098 1.096-5.632 2.887-7.615-.286-.72-1.253-3.606.278-7.514 0 0 2.355-.764 7.716 2.908a26.455 26.455 0 0114.054 0c5.357-3.672 7.711-2.908 7.711-2.908 1.532 3.908.57 6.795.278 7.514 1.796 1.983 2.882 4.514 2.882 7.615 0 10.905-6.56 13.307-12.817 14.008 1.013.882 1.909 2.611 1.909 5.263 0 3.792-.035 6.85-.035 7.78 0 .762.505 1.641 1.93 1.369 11.145-3.758 19.177-14.396 19.177-26.932 0-15.678-12.567-28.388-28.067-28.388-15.494 0-28.06 12.707-28.06 28.388 0 12.541 8.04 23.182 19.202 26.934 1.395.262 1.906-.614 1.906-1.37z"/><path d="M16.29 48.09c2.568.78 3.58 1.635 4.789 3.661 1.205 2.026 2.62 4.287 7.933 2.999"/></g></svg>