<svg viewBox="0 0 72 72" xmlns="http://www.w3.org/2000/svg"><path fill="#b3b3b3" d="M68 4v64H4V4h64m4-4H0v72h72V0z"/><path fill="none" stroke="#00a5ff" stroke-miterlimit="10" stroke-width=".1" d="M12.92 10.96h46.15a1.923 1.923 0 011.923 1.923v46.15a1.923 1.923 0 01-1.923 1.923H12.92a1.923 1.923 0 01-1.923-1.923v-46.15a1.923 1.923 0 011.923-1.923z"/><rect x="16" y="4" rx="2.254" width="40" height="64" fill="none" stroke="#00a5ff" stroke-miterlimit="10" stroke-width=".1"/><rect x="16" y="4" rx="2.254" width="40" height="64" transform="rotate(90 36 36)" fill="none" stroke="#00a5ff" stroke-miterlimit="10" stroke-width=".1"/><circle cx="36" cy="36" r="29" fill="none" stroke="#00a5ff" stroke-miterlimit="10" stroke-width=".1"/><g stroke-linecap="round" stroke-miterlimit="10" stroke-width="6" stroke="#fff" fill="none" stroke-linejoin="round"><rect x="11" y="11" rx="3" width="50" height="50"/><path d="M20 30h6v21h-6z"/><circle cx="23" cy="22" r="3.5"/><path d="M42.5 35c-2.209 0-4 1.168-4 4.5V51h-6V30h6v2.21h-.002A7.981 7.981 0 0144.5 29.5c4.418 0 8 3.3 8 9V51h-6V39.5c0-3.332-1.79-4.5-4-4.5"/></g><rect x="11" y="11" rx="3" width="50" height="50" fill="#61b2e4"/><path fill="#fff" d="M20 30h6v21h-6z"/><circle cx="23" cy="22" r="3.5" fill="#fff"/><path fill="#fff" d="M42.5 35c-2.209 0-4 1.168-4 4.5V51h-6V30h6v2.21h-.002A7.981 7.981 0 0144.5 29.5c4.418 0 8 3.3 8 9V51h-6V39.5c0-3.332-1.79-4.5-4-4.5"/><g fill="none" stroke="#000" stroke-width="2"><rect x="11" y="11" rx="3" width="50" height="50" stroke-miterlimit="10"/><path stroke-linecap="round" stroke-linejoin="round" d="M20 30h6v21h-6z"/><circle cx="23" cy="22" r="3.5" stroke-linecap="round" stroke-linejoin="round"/><path stroke-linecap="round" stroke-linejoin="round" d="M42.5 35c-2.209 0-4 1.168-4 4.5V51h-6V30h6v2.21h-.002A7.981 7.981 0 0144.5 29.5c4.418 0 8 3.3 8 9V51h-6V39.5c0-3.332-1.79-4.5-4-4.5"/></g></svg>