<svg viewBox="0 0 72 72" xmlns="http://www.w3.org/2000/svg"><path fill="#B3B3B3" d="M68 4v64H4V4h64zm4-4H0v72h72V0z"/><path fill="none" stroke="#00A5FF" stroke-miterlimit="10" stroke-width=".1" d="M12.923 10.958h46.154A1.923 1.923 0 0161 12.881v46.154a1.923 1.923 0 01-1.923 1.923H12.923A1.923 1.923 0 0111 59.035V12.881a1.923 1.923 0 011.923-1.923v0z"/><path fill="none" stroke="#00A5FF" stroke-miterlimit="10" stroke-width=".1" d="M53.746 4H18.254A2.254 2.254 0 0016 6.254v59.492A2.254 2.254 0 0018.254 68h35.492A2.254 2.254 0 0056 65.746V6.254A2.254 2.254 0 0053.746 4z"/><path fill="none" stroke="#00A5FF" stroke-miterlimit="10" stroke-width=".1" d="M68 53.746V18.254A2.254 2.254 0 0065.746 16H6.254A2.254 2.254 0 004 18.254v35.492A2.254 2.254 0 006.254 56h59.492A2.254 2.254 0 0068 53.746z"/><path fill="none" stroke="#00A5FF" stroke-miterlimit="10" stroke-width=".1" d="M36 65c16.016 0 29-12.984 29-29S52.016 7 36 7 7 19.984 7 36s12.984 29 29 29z"/><path d="M34 16.163h1a1 1 0 00-1.16-.987l.16.987zm-19 3.093l-.16-.987a1 1 0 00-.84.987h1zM15 34h-1a1 1 0 001 1v-1zm19 0v1a1 1 0 001-1h-1zm-19 4v-1a1 1 0 00-1 1h1zm0 14.744h-1a1 1 0 00.84.987l.16-.987zm19 3.093l-.16.987a1 1 0 001.16-.987h-1zM34 38h1a1 1 0 00-1-1v1zm4 18.488h-1a1 1 0 00.84.987l.16-.987zm22 3.582l-.16.987A1 1 0 0061 60.07h-1zM60 38h1a1 1 0 00-1-1v1zm-22 0v-1a1 1 0 00-1 1h1zm22-4v1a1 1 0 001-1h-1zm-22 0h-1a1 1 0 001 1v-1zm0-18.488l-.16-.987a1 1 0 00-.84.987h1zm22-3.582h1a1 1 0 00-1.16-.987l.16.987zm-26.16 3.246l-19 3.093.32 1.974 19-3.093-.32-1.974zM14 19.256V34h2V19.256h-2zM34 33H15v2h19v-2zm-1-16.837V34h2V16.163h-2zM14 38v14.744h2V38h-2zm.84 15.731l19 3.093.32-1.974-19-3.093-.32 1.974zM33 38v17.837h2V38h-2zm-18 1h19v-2H15v2zm22.84 18.475l22 3.582.32-1.974-22-3.582-.32 1.974zM61 60.07V38h-2v22.07h2zM38 39h22v-2H38v2zm1 17.488V38h-2v18.488h2zM60 33H38v2h22v-2zm-21 1V15.512h-2V34h2zm20.84-23.057l-22 3.582.32 1.974 22-3.582-.32-1.974zM61 34V11.93h-2V34h2z" stroke-linecap="round" stroke-miterlimit="10" stroke-width="6" stroke="#fff" fill="none" stroke-linejoin="round"/><path fill="#61b2e4" fill-rule="evenodd" d="M34 16.163l-19 3.093V34h19V16.163zM15 38v14.744l19 3.093V38H15zm23 18.488l22 3.582V38H38v18.488zM60 34H38V15.512l22-3.582V34z" clip-rule="evenodd"/><path d="M34 16.163h1a1 1 0 00-1.16-.987l.16.987zm-19 3.093l-.16-.987a1 1 0 00-.84.987h1zM15 34h-1a1 1 0 001 1v-1zm19 0v1a1 1 0 001-1h-1zm-19 4v-1a1 1 0 00-1 1h1zm0 14.744h-1a1 1 0 00.84.987l.16-.987zm19 3.093l-.16.987a1 1 0 001.16-.987h-1zM34 38h1a1 1 0 00-1-1v1zm4 18.488h-1a1 1 0 00.84.987l.16-.987zm22 3.582l-.16.987A1 1 0 0061 60.07h-1zM60 38h1a1 1 0 00-1-1v1zm-22 0v-1a1 1 0 00-1 1h1zm22-4v1a1 1 0 001-1h-1zm-22 0h-1a1 1 0 001 1v-1zm0-18.488l-.16-.987a1 1 0 00-.84.987h1zm22-3.582h1a1 1 0 00-1.16-.987l.16.987zm-26.16 3.246l-19 3.093.32 1.974 19-3.093-.32-1.974zM14 19.256V34h2V19.256h-2zM34 33H15v2h19v-2zm-1-16.837V34h2V16.163h-2zM14 38v14.744h2V38h-2zm.84 15.731l19 3.093.32-1.974-19-3.093-.32 1.974zM33 38v17.837h2V38h-2zm-18 1h19v-2H15v2zm22.84 18.475l22 3.582.32-1.974-22-3.582-.32 1.974zM61 60.07V38h-2v22.07h2zM38 39h22v-2H38v2zm1 17.488V38h-2v18.488h2zM60 33H38v2h22v-2zm-21 1V15.512h-2V34h2zm20.84-23.057l-22 3.582.32 1.974 22-3.582-.32-1.974zM61 34V11.93h-2V34h2z"/></svg>