<svg viewBox="0 0 72 72" xmlns="http://www.w3.org/2000/svg"><path fill="#b3b3b3" d="M68 4v64H4V4h64m4-4H0v72h72V0z"/><path fill="none" stroke="#00a5ff" stroke-miterlimit="10" stroke-width=".1" d="M12.923 10.958h46.154A1.923 1.923 0 0161 12.881v46.154a1.923 1.923 0 01-1.923 1.923H12.923A1.923 1.923 0 0111 59.035V12.881a1.923 1.923 0 011.923-1.923z"/><rect x="16" y="4" rx="2.254" width="40" height="64" fill="none" stroke="#00a5ff" stroke-miterlimit="10" stroke-width=".1"/><rect x="16" y="4" rx="2.254" width="40" height="64" transform="rotate(90 36 36)" fill="none" stroke="#00a5ff" stroke-miterlimit="10" stroke-width=".1"/><circle cx="36" cy="36" r="29" fill="none" stroke="#00a5ff" stroke-miterlimit="10" stroke-width=".1"/><path d="M42.743 11.987L59.677 28.92l-8.13 8.13-16.935-16.933zm-9.988 20.501l7.114-7.114 7.092 7.093-7.078 7.079m-10.241 10.24l-9.086 9.087-2.029.253-5.352-5.352-.001-1.705 9.201-9.201m4.348-11.44l14.185 14.185-5.32 5.32-14.185-14.185z" stroke-linecap="round" stroke-miterlimit="10" stroke-width="6" stroke="#fff" fill="none" stroke-linejoin="round"/><path fill="#9b9b9a" d="M36.804 28.439l7.127 7.058 3.03-3.03-7.092-7.093-3.065 3.065z"/><path fill="#d0cfce" d="M42.743 11.987L59.677 28.92l-8.13 8.13-16.935-16.933zM32.174 33.07l7.695-7.696 7.092 7.093-27.546 27.546-7.093-7.092L32.174 33.07"/><path fill="#9b9b9a" d="M33.007 32.236l7.092 7.093-1.36 1.36-7.093-7.092zm-9.523 9.522l7.093 7.092-1.36 1.36-7.093-7.091zm-2.04 2.042l7.092 7.092-1.36 1.36-7.093-7.092zm-2.041 2.04l7.093 7.092-1.36 1.36-7.093-7.092z"/><path fill="#d0cfce" d="M26.723 31.428l14.185 14.185-5.32 5.32-14.185-14.185z"/><g><path d="M42.743 11.987L59.677 28.92l-8.13 8.13-16.935-16.933zm-9.988 20.501l7.114-7.114 7.092 7.093-7.078 7.079m-10.241 10.24l-9.086 9.087-2.029.253-5.352-5.352-.001-1.705 9.201-9.201m4.348-11.44l14.185 14.185-5.32 5.32-14.185-14.185z" fill="none" stroke="#000" stroke-linecap="round" stroke-linejoin="round" stroke-width="2"/></g></svg>