<svg viewBox="0 0 72 72" xmlns="http://www.w3.org/2000/svg"><path fill="#b3b3b3" d="M68 4v64H4V4h64m4-4H0v72h72V0z"/><path fill="none" stroke="#00a5ff" stroke-miterlimit="10" stroke-width=".1" d="M12.923 10.958h46.154A1.923 1.923 0 0161 12.881v46.154a1.923 1.923 0 01-1.923 1.923H12.923A1.923 1.923 0 0111 59.035V12.881a1.923 1.923 0 011.923-1.923z"/><rect x="16" y="4" rx="2.254" ry="2.254" width="40" height="64" fill="none" stroke="#00a5ff" stroke-miterlimit="10" stroke-width=".1"/><rect x="16" y="4" rx="2.254" ry="2.254" width="40" height="64" transform="rotate(90 36 36)" fill="none" stroke="#00a5ff" stroke-miterlimit="10" stroke-width=".1"/><circle cx="36" cy="36" r="29" fill="none" stroke="#00a5ff" stroke-miterlimit="10" stroke-width=".1"/><path d="M54.26 17.472L12.506 59.226l-.043.166c-.176 1.121-2.846 1.948-3.324 1.47m45.121-43.39l6.503-6.503a1.234 1.234 0 000-1.745l-.719-.72m1.591.363s1.23-2.459 4.918-2.459 4.917 7.376 3.688 8.605-3.688-2.458-4.918-3.687a17.684 17.684 0 00-3.688-2.459z" stroke-linecap="round" stroke-miterlimit="10" stroke-width="6" stroke="#fff" fill="none" stroke-linejoin="round"/><path fill="#3f3f3f" d="M54.26 17.472l6.503-6.503a1.234 1.234 0 000-1.745l-.719-.72a1.226 1.226 0 00-1.734 0l-6.509 6.51z"/><path fill="#d0cfce" d="M19.956 46.859l31.845-31.845 2.458 2.459-31.844 31.844z"/><path fill="#ea5a47" d="M9.842 56.973l10.114-10.115 2.459 2.459-9.909 9.909-2.664-2.253z"/><path fill="#d0cfce" d="M9.636 57.056l.206-.083 2.664 2.253-.043.166c-.176 1.121-2.846 1.948-3.324 1.47l-.723-.724c-.48-.48-.01-2.467 1.22-3.082z"/><g fill="none" stroke="#000"><path stroke-linecap="round" stroke-linejoin="round" stroke-width="2" d="M54.26 17.472L12.506 59.226l-.043.166c-.176 1.121-2.846 1.948-3.324 1.47m45.121-43.39l6.503-6.503a1.234 1.234 0 000-1.745l-.719-.72"/><path stroke-miterlimit="10" d="M61.635 8.867s1.23-2.459 4.918-2.459 4.917 7.376 3.688 8.605-3.688-2.458-4.918-3.687a17.684 17.684 0 00-3.688-2.459z"/></g></svg>