<svg viewBox="0 0 72 72" xmlns="http://www.w3.org/2000/svg"><path fill="#b3b3b3" d="M68 4v64H4V4h64m4-4H0v72h72V0z"/><path fill="none" stroke="#00a5ff" stroke-miterlimit="10" stroke-width=".1" d="M12.923 10.958h46.154A1.923 1.923 0 0161 12.881v46.154a1.923 1.923 0 01-1.923 1.923H12.923A1.923 1.923 0 0111 59.035V12.881a1.923 1.923 0 011.923-1.923z"/><rect x="16" y="4" rx="2.254" ry="2.254" width="40" height="64" fill="none" stroke="#00a5ff" stroke-miterlimit="10" stroke-width=".1"/><rect x="16" y="4" rx="2.254" ry="2.254" width="40" height="64" transform="rotate(90 36 36)" fill="none" stroke="#00a5ff" stroke-miterlimit="10" stroke-width=".1"/><circle cx="36" cy="36" r="29" fill="none" stroke="#00a5ff" stroke-miterlimit="10" stroke-width=".1"/><path d="M43.5 36.5V47a8.5 8.5 0 01-17 0V36.5h-6V47a14.5 14.5 0 0029 0V36.5zm-23-5h6v5h-6zm23 0h6v5h-6zm1.382-11.725a1.283 1.283 0 00-1.26-.907h-4.925l3.461-7.75a1 1 0 00-1.645-1.089L29.42 21.958a1.327 1.327 0 00-.278 1.451 1.37 1.37 0 001.266.85h4.88l-4.996 8.05a1 1 0 00.213 1.299c.227.188.38.315.572.315.4 0 .966-.557 2.716-2.279L44.21 21.371a1.452 1.452 0 00.672-1.596z" stroke-linecap="round" stroke-miterlimit="10" stroke-width="6" stroke="#fff" fill="none" stroke-linejoin="round"/><path fill="#ea5a47" d="M43.5 36.5V47a8.5 8.5 0 01-17 0V36.5h-6V47a14.5 14.5 0 0029 0V36.5z"/><path d="M20.5 31.5h6v5h-6zm23 0h6v5h-6z" fill="#d0cfce"/><path fill="#fcea2b" d="M44.882 19.775a1.283 1.283 0 00-1.26-.907h-4.925l3.461-7.75a1 1 0 00-1.645-1.089L29.42 21.958a1.327 1.327 0 00-.278 1.451 1.37 1.37 0 001.266.85h4.88l-4.996 8.05a1 1 0 00.213 1.299c.227.188.38.315.572.315.4 0 .966-.557 2.716-2.279L44.21 21.371a1.452 1.452 0 00.672-1.596z"/><g fill="none" stroke="#000" stroke-width="2"><path stroke-linecap="round" stroke-linejoin="round" d="M43.5 36.5V47a8.5 8.5 0 01-17 0V36.5h-6V47a14.5 14.5 0 0029 0V36.5zM20.5 31.5h6v5h-6zm23 0h6v5h-6z"/><path stroke-miterlimit="10" d="M44.882 19.775a1.283 1.283 0 00-1.26-.907h-4.925l3.461-7.75a1 1 0 00-1.645-1.089L29.42 21.958a1.327 1.327 0 00-.278 1.451 1.37 1.37 0 001.266.85h4.88l-4.996 8.05a1 1 0 00.213 1.299c.227.188.38.315.572.315.4 0 .966-.557 2.716-2.279L44.21 21.371a1.452 1.452 0 00.672-1.596z"/></g></svg>