<svg viewBox="0 0 72 72" xmlns="http://www.w3.org/2000/svg"><path fill="#b3b3b3" d="M68 4v64H4V4h64m4-4H0v72h72V0z"/><rect x="11" y="10.958" rx="1.923" width="50" height="50" fill="none" stroke="#00a5ff" stroke-miterlimit="10" stroke-width=".1"/><rect x="16" y="4" rx="2.254" width="40" height="64" fill="none" stroke="#00a5ff" stroke-miterlimit="10" stroke-width=".1"/><rect x="16" y="4" rx="2.254" width="40" height="64" transform="rotate(90 36 36)" fill="none" stroke="#00a5ff" stroke-miterlimit="10" stroke-width=".1"/><circle cx="36" cy="36" r="29" fill="none" stroke="#00a5ff" stroke-miterlimit="10" stroke-width=".1"/><path d="M25.551 49.87s-6.45-4.029-5.64-10.13h-.001a13.185 13.185 0 1021.623 10.13V22.506a7.912 7.912 0 10-4.746-.18V49.87a8.438 8.438 0 11-16.876 0h.834m20.552-32.421a3.164 3.164 0 111.312-2.566" stroke-linecap="round" stroke-miterlimit="10" stroke-width="6" stroke="#fff" fill="none" stroke-linejoin="round"/><path fill="#9b9b9a" d="M28.35 64.055a14.185 14.185 0 01-9.08-25.083 1 1 0 011.631.9c-.714 5.377 5.122 9.113 5.182 9.15a1 1 0 01-.531 1.848h-4.574a7.438 7.438 0 0014.809-1V23a8.91 8.91 0 116.747.234V49.87a14.2 14.2 0 01-14.185 14.185zm11.095-51.336a2.164 2.164 0 102.164 2.164 2.166 2.166 0 00-2.164-2.164z"/><path fill="none" stroke="#000" stroke-linecap="round" stroke-linejoin="round" stroke-width="2" d="M25.551 49.87s-6.45-4.029-5.64-10.13h-.001a13.185 13.185 0 1021.623 10.13V22.506a7.912 7.912 0 10-4.746-.18V49.87a8.438 8.438 0 11-16.876 0h.834m20.552-32.421a3.164 3.164 0 111.312-2.566"/></svg>