<svg viewBox="0 0 72 72" xmlns="http://www.w3.org/2000/svg"><path fill="#b3b3b3" d="M68 4v64H4V4h64m4-4H0v72h72V0z"/><path fill="none" stroke="#00a5ff" stroke-miterlimit="10" stroke-width=".1" d="M12.923 10.958h46.154A1.923 1.923 0 0161 12.881v46.154a1.923 1.923 0 01-1.923 1.923H12.923A1.923 1.923 0 0111 59.035V12.881a1.923 1.923 0 011.923-1.923z"/><rect x="16" y="4" rx="2.254" ry="2.254" width="40" height="64" fill="none" stroke="#00a5ff" stroke-miterlimit="10" stroke-width=".1"/><rect x="16" y="4" rx="2.254" ry="2.254" width="40" height="64" transform="rotate(90 36 36)" fill="none" stroke="#00a5ff" stroke-miterlimit="10" stroke-width=".1"/><circle cx="36" cy="36" r="29" fill="none" stroke="#00a5ff" stroke-miterlimit="10" stroke-width=".1"/><g stroke-linecap="round" stroke-miterlimit="10" stroke-width="6" stroke="#fff" fill="none" stroke-linejoin="round"><path d="M38.465 22.212l-.029 21.122 1.203 3.623-.025 15.706-1.209.002-3.624.006-1.208.002.025-15.706 1.214-3.627.029-20.64 3.624-.488zm-3.653-7.872l.029-3.122 3.624-.006-.029 3.122-3.624.006z"/><path d="M45 15v7c-9 0-15 1-18 4V11c3 3 9 4 18 4z"/></g><path fill="#a57939" d="M38.465 11.46l-.029 32.122 1.203 3.623-.025 15.706-1.209.002-3.624.006-1.208.002.025-15.707 1.214-3.626.029-32.122 3.624-.006z"/><path fill="#a57939" d="M34.812 13.588l.029-3.122 3.624-.006-.029 3.122-3.624.006z"/><path fill="#d0cfce" d="M45 15v7c-9 0-15 1-18 4V11c3 3 9 4 18 4z"/><g fill="none" stroke="#000" stroke-linecap="round" stroke-linejoin="round" stroke-width="2"><path d="M38.465 22.212l-.029 21.122 1.203 3.623-.025 15.706-1.209.002-3.624.006-1.208.002.025-15.706 1.214-3.627.029-20.64 3.624-.488zm-3.653-7.872l.029-3.122 3.624-.006-.029 3.122-3.624.006z"/><path d="M45 15v7c-9 0-15 1-18 4V11c3 3 9 4 18 4z"/></g></svg>