<svg viewBox="0 0 72 72" xmlns="http://www.w3.org/2000/svg"><path fill="#b3b3b3" d="M68 4v64H4V4h64m4-4H0v72h72V0z"/><rect x="11" y="10.958" rx="1.923" width="50" height="50" fill="none" stroke="#00a5ff" stroke-miterlimit="10" stroke-width=".1"/><rect x="16" y="4" rx="2.254" width="40" height="64" fill="none" stroke="#00a5ff" stroke-miterlimit="10" stroke-width=".1"/><rect x="16" y="4" rx="2.254" width="40" height="64" transform="rotate(90 36 36)" fill="none" stroke="#00a5ff" stroke-miterlimit="10" stroke-width=".1"/><circle cx="36" cy="36" r="29" fill="none" stroke="#00a5ff" stroke-miterlimit="10" stroke-width=".1"/><g stroke-linecap="round" stroke-miterlimit="10" stroke-width="6" stroke="#fff" fill="none" stroke-linejoin="round"><path d="M41.635 43.302L53.29 54.957m-9.613-13.696l11.655 11.655M44.336 36.97l13.64 13.64a3.3 3.3 0 01-.118 4.661l-2.09 2.09a3.3 3.3 0 01-4.662.118l-13.64-13.64.922-.922-2.12-2.12-.921.922-2.64-2.64 6.87-6.87 2.64 2.64-.992.992 2.12 2.12zm-9.558-4.657L22.813 20.397l-.783-3.75-5.267-2.3-2.042 2.041 2.353 5.215 3.698.836 11.964 11.916"/></g><path d="M41.635 43.302L53.29 54.957m-9.613-13.696l11.655 11.655" fill="none" stroke="#000" stroke-linecap="round" stroke-linejoin="round" stroke-width="2"/><path fill="#f4aa41" d="M58.565 55.978l-2.09 2.09a4.303 4.303 0 01-6.076.118l-13.64-13.64a1 1 0 010-1.414l.214-.215-.705-.705-.215.215a1 1 0 01-1.414 0L32 39.787a1 1 0 010-1.414l6.87-6.87a1 1 0 011.414 0l2.64 2.64a1 1 0 010 1.414l-.284.285.705.705.284-.285a1 1 0 011.415 0l13.64 13.64a4.303 4.303 0 01-.118 6.076z"/><path fill="#d0cfce" d="M34.82 37.487a.997.997 0 01-.707-.293L20.269 23.35l-3.416-.772a1 1 0 01-.69-.565L13.81 16.8a1 1 0 01.204-1.118l2.041-2.041a1.001 1.001 0 011.107-.21l5.267 2.3a1 1 0 01.578.712l.724 3.458L37.568 33.74a1 1 0 010 1.414l-2.04 2.04a.997.997 0 01-.708.294z"/><path fill="none" stroke="#e27022" stroke-linecap="round" stroke-linejoin="round" stroke-width="2" d="M41.635 43.302L53.29 54.957m-9.613-13.696l11.655 11.655"/><g fill="none" stroke="#000" stroke-linecap="round" stroke-linejoin="round" stroke-width="2"><path d="M44.336 36.97l13.64 13.64a3.3 3.3 0 01-.118 4.661l-2.09 2.09a3.3 3.3 0 01-4.662.118l-13.64-13.64.922-.922-2.12-2.12-.921.922-2.64-2.64 6.87-6.87 2.64 2.64-.992.992 2.12 2.12zm-9.558-4.657L22.813 20.397l-.783-3.75-5.267-2.3-2.042 2.041 2.353 5.215 3.698.836 11.964 11.916"/></g></svg>