<svg viewBox="0 0 72 72" xmlns="http://www.w3.org/2000/svg"><path fill="#b3b3b3" d="M68 4v64H4V4h64m4-4H0v72h72V0z"/><path fill="none" stroke="#00a5ff" stroke-miterlimit="10" stroke-width=".1" d="M12.923 10.958h46.154A1.923 1.923 0 0161 12.881v46.154a1.923 1.923 0 01-1.923 1.923H12.923A1.923 1.923 0 0111 59.035V12.881a1.923 1.923 0 011.923-1.923z"/><rect x="16" y="4" rx="2.254" ry="2.254" width="40" height="64" fill="none" stroke="#00a5ff" stroke-miterlimit="10" stroke-width=".1"/><rect x="16" y="4" rx="2.254" ry="2.254" width="40" height="64" transform="rotate(90 36 36)" fill="none" stroke="#00a5ff" stroke-miterlimit="10" stroke-width=".1"/><circle cx="36" cy="36" r="29" fill="none" stroke="#00a5ff" stroke-miterlimit="10" stroke-width=".1"/><g stroke-linecap="round" stroke-miterlimit="10" stroke-width="6" stroke="#fff" fill="none" stroke-linejoin="round"><path d="M37.5 20.4l-.1 21.9 1.2 3.7v15.7h-6V46l1.2-3.7V20.4h3.7zm0-8.7l-.1 3.2h-3.6v-3.2h3.7z"/><path d="M58.6 23.1c-2-4.7-11.3-8.2-22.6-8.2-11.4 0-20.8 3.6-22.7 8.3l8-1.5a80.71 80.71 0 0129.4-.1z"/></g><path fill="#a57939" d="M37.5 11.5l-.1 31.1 1.2 3.6v15.7h-6V46.2l1.2-3.6V11.5h3.7z"/><path fill="#d0cfce" d="M58.6 23.3c-2-4.7-11.3-8.2-22.6-8.2-11.4 0-20.8 3.6-22.7 8.3l8-1.5a80.71 80.71 0 0129.4-.1z"/><g fill="none" stroke="#000" stroke-linecap="round" stroke-linejoin="round" stroke-width="2"><path d="M37.5 20.4l-.1 21.9 1.2 3.7v15.7h-6V46l1.2-3.7V20.4h3.7zm0-8.7l-.1 3.2h-3.6v-3.2h3.7z"/><path d="M58.6 23.1c-2-4.7-11.3-8.2-22.6-8.2-11.4 0-20.8 3.6-22.7 8.3l8-1.5a80.71 80.71 0 0129.4-.1z"/></g></svg>