<svg viewBox="0 0 72 72" xmlns="http://www.w3.org/2000/svg"><path fill="#b3b3b3" d="M68 4v64H4V4h64m4-4H0v72h72V0z"/><path fill="none" stroke="#00a5ff" stroke-miterlimit="10" stroke-width=".1" d="M12.923 10.958h46.154A1.923 1.923 0 0161 12.881v46.154a1.923 1.923 0 01-1.923 1.923H12.923A1.923 1.923 0 0111 59.035V12.881a1.923 1.923 0 011.923-1.923z"/><rect x="16" y="4" rx="2.254" width="40" height="64" fill="none" stroke="#00a5ff" stroke-miterlimit="10" stroke-width=".1"/><rect x="16" y="4" rx="2.254" width="40" height="64" transform="rotate(90 36 36)" fill="none" stroke="#00a5ff" stroke-miterlimit="10" stroke-width=".1"/><circle cx="36" cy="36" r="29" fill="none" stroke="#00a5ff" stroke-miterlimit="10" stroke-width=".1"/><g stroke-linecap="round" stroke-miterlimit="10" stroke-width="6" stroke="#fff" fill="none" stroke-linejoin="round"><path d="M39.547 57.998a4.247 4.247 0 11-8.494 0v-2.183a4.247 4.247 0 018.494 0v2.184z"/><path d="M42.693 58.807a7.392 7.392 0 11-14.785 0v-3.802a7.392 7.392 0 1114.785 0v3.802zm-3.146-21.623a4.247 4.247 0 11-8.494 0v-2.183a4.247 4.247 0 018.494 0v2.184z"/><path d="M42.693 37.993a7.392 7.392 0 11-14.785 0v-3.802a7.392 7.392 0 1114.785 0v3.802zM39.547 16.37a4.247 4.247 0 11-8.494 0v-2.184a4.247 4.247 0 018.494 0v2.184z"/><path d="M42.693 17.18a7.392 7.392 0 11-14.785 0v-3.802a7.392 7.392 0 1114.785 0v3.801zM35.5 38.892V54m0-36.069v15.108"/></g><path d="M42.635 12.448a7.394 7.394 0 00-14.727.93v3.801a7.393 7.393 0 0014.784 0v-3.801c0-.316-.02-.626-.057-.93zm-3.088 3.922a4.247 4.247 0 11-8.494 0v-2.184a4.247 4.247 0 018.494 0v2.184zm3.088 16.892a7.394 7.394 0 00-14.727.93v3.802a7.393 7.393 0 0014.784 0v-3.802c0-.315-.02-.626-.057-.93zm-3.088 3.922a4.247 4.247 0 11-8.494 0V35a4.247 4.247 0 018.494 0v2.184zm3.088 16.892a7.394 7.394 0 00-14.727.93v3.802a7.393 7.393 0 0014.784 0v-3.802c0-.315-.02-.626-.057-.93zm-3.088 3.922a4.247 4.247 0 11-8.494 0v-2.184a4.247 4.247 0 018.494 0v2.184z" fill="#D0CFCE"/><g fill="none" stroke="#000" stroke-linecap="round" stroke-linejoin="round" stroke-miterlimit="10" stroke-width="2"><path d="M39.547 57.998a4.247 4.247 0 11-8.494 0v-2.183a4.247 4.247 0 018.494 0v2.184z"/><path d="M42.693 58.807a7.392 7.392 0 11-14.785 0v-3.802a7.392 7.392 0 1114.785 0v3.802zm-3.146-21.623a4.247 4.247 0 11-8.494 0v-2.183a4.247 4.247 0 018.494 0v2.184z"/><path d="M42.693 37.993a7.392 7.392 0 11-14.785 0v-3.802a7.392 7.392 0 1114.785 0v3.802zM39.547 16.37a4.247 4.247 0 11-8.494 0v-2.184a4.247 4.247 0 018.494 0v2.184z"/><path d="M42.693 17.18a7.392 7.392 0 11-14.785 0v-3.802a7.392 7.392 0 1114.785 0v3.801zM35.5 38.892V54m0-36.069v15.108"/></g></svg>