<svg viewBox="0 0 72 72" xmlns="http://www.w3.org/2000/svg"><path fill="#b3b3b3" d="M68 4v64H4V4h64m4-4H0v72h72V0z"/><path fill="none" stroke="#00a5ff" stroke-miterlimit="10" stroke-width=".1" d="M12.923 10.958h46.154A1.923 1.923 0 0161 12.881v46.154a1.923 1.923 0 01-1.923 1.923H12.923A1.923 1.923 0 0111 59.035V12.881a1.923 1.923 0 011.923-1.923z"/><rect x="16" y="4" rx="2.254" width="40" height="64" fill="none" stroke="#00a5ff" stroke-miterlimit="10" stroke-width=".1"/><rect x="16" y="4" rx="2.254" width="40" height="64" transform="rotate(90 36 36)" fill="none" stroke="#00a5ff" stroke-miterlimit="10" stroke-width=".1"/><circle cx="36" cy="36" r="29" fill="none" stroke="#00a5ff" stroke-miterlimit="10" stroke-width=".1"/><g stroke-linecap="round" stroke-miterlimit="10" stroke-width="6" stroke="#fff" fill="none" stroke-linejoin="round"><path d="M55 27l2 3m1.833-.667L61 25M23 39c2.266-7.929 10-3 10-3 6 5 1 15-8 13s-9-12-6-17 14-9 21-1c1.82 2.078 3 5 1 12"/><path d="M11 55c18.403 1.6 30.404 0 34.466-.704a5.837 5.837 0 002.675-1.2C64.912 39.573 63 31 58 30c-3.1-.62-9.152 10.376-12 14-1.59 2.024-5 5-9 5"/></g><path fill="#6A462F" stroke="#6A462F" stroke-miterlimit="10" stroke-width="2" d="M23 39c2.265-7.929 10-3 10-3 6 5 1 15-8 13s-9-12-6-17 14-9 21-1c1.818 2.078 2 6 1 14l-1 5-9 1"/><path fill="#A57939" d="M11 54c18.403 1.6 30.404 1 34.466.296a5.837 5.837 0 002.675-1.2C64.912 39.573 63 31 58 30c-3.1-.62-9.152 10.376-12 14-1.59 2.024-5 4-9 4"/><g fill="none" stroke="#000" stroke-linecap="round" stroke-linejoin="round" stroke-miterlimit="10" stroke-width="2"><path d="M55 27l2 3m1.833-.667L61 25M23 39c2.266-7.929 10-3 10-3 6 5 1 15-8 13s-9-12-6-17 14-9 21-1c1.82 2.078 3 5 1 12"/><path d="M11 55c18.403 1.6 30.404 0 34.466-.704a5.837 5.837 0 002.675-1.2C64.912 39.573 63 31 58 30c-3.1-.62-9.152 10.376-12 14-1.59 2.024-5 5-9 5"/></g></svg>