<svg viewBox="0 0 72 72" xmlns="http://www.w3.org/2000/svg"><path fill="#B3B3B3" d="M68 4v64H4V4h64m4-4H0v72h72V0z"/><path fill="none" stroke="#00A5FF" stroke-miterlimit="10" stroke-width=".1" d="M12.923 10.958h46.154c1.062 0 1.923.861 1.923 1.923v46.154a1.923 1.923 0 01-1.923 1.923H12.923A1.923 1.923 0 0111 59.035h0V12.881c0-1.062.861-1.923 1.923-1.923h0z"/><path fill="none" stroke="#00A5FF" stroke-miterlimit="10" stroke-width=".1" d="M18.254 4h35.492A2.254 2.254 0 0156 6.254v59.492A2.254 2.254 0 0153.746 68H18.254A2.254 2.254 0 0116 65.746V6.254A2.254 2.254 0 0118.254 4z"/><path fill="none" stroke="#00A5FF" stroke-miterlimit="10" stroke-width=".1" d="M68 18.254v35.492A2.254 2.254 0 0165.746 56H6.254A2.254 2.254 0 014 53.746V18.254A2.254 2.254 0 016.254 16h59.492A2.254 2.254 0 0168 18.254z"/><circle cx="36" cy="36" r="29" fill="none" stroke="#00A5FF" stroke-miterlimit="10" stroke-width=".1"/><g stroke-linecap="round" stroke-miterlimit="10" stroke-width="6" stroke="#fff" fill="none" stroke-linejoin="round"><path d="M20.67 23.16c0 2.92 3.73 5.22 4.84 5.83m-9.13 8.76c0 .65 3.49 1.8 5.15 2.32m-.86 14.84c0-2.54 2.82-4.14 4.28-4.8m22.326-20.946s4.291-3.433 4.291-6.007M50.7 39.41c1.13-.12 3.12-.48 4.3-1.66m-8.15 12.9c1.11.1 4.03.64 4.72 3.4M30.11 12c.67 2.66 1.85 3.26 2.35 3.39m8.809.043s2.346-2.06 1.76-3.433"/><ellipse cx="36.119" cy="39.892" rx="14.59" ry="15.877"/><path d="M36.119 24.873V54.91"/><circle cx="27.537" cy="35.172" r="1.716"/><circle cx="44.702" cy="35.172" r="1.716"/><circle cx="41.269" cy="40.321" r="1.716"/><circle cx="44.702" cy="45.47" r="1.716"/><circle cx="30.97" cy="40.321" r="1.716"/><circle cx="27.537" cy="45.47" r="1.716"/><path d="M27.537 23.157a8.582 8.582 0 1117.164 0"/></g><ellipse cx="36.096" cy="23.559" rx="9.53" ry="9.165" fill="#FFF"/><ellipse cx="36.119" cy="39.892" rx="14.59" ry="15.877" fill="#D22F27"/><path fill="none" stroke="#000" stroke-linecap="round" stroke-linejoin="round" stroke-miterlimit="10" stroke-width="2" d="M20.67 23.16c0 2.92 3.73 5.22 4.84 5.83m-9.13 8.76c0 .65 3.49 1.8 5.15 2.32m-.86 14.84c0-2.54 2.82-4.14 4.28-4.8m22.326-20.946s4.291-3.433 4.291-6.007M50.7 39.41c1.13-.12 3.12-.48 4.3-1.66m-8.15 12.9c1.11.1 4.03.64 4.72 3.4M30.11 12c.67 2.66 1.85 3.26 2.35 3.39m8.809.043s2.346-2.06 1.76-3.433"/><ellipse cx="36.119" cy="39.892" rx="14.59" ry="15.877" fill="none" stroke="#000" stroke-linecap="round" stroke-linejoin="round" stroke-miterlimit="10" stroke-width="2"/><path fill="none" stroke="#000" stroke-linecap="round" stroke-linejoin="round" stroke-miterlimit="10" stroke-width="2" d="M36.119 24.873V54.91"/><circle cx="27.537" cy="35.172" r="1.716"/><circle cx="44.702" cy="35.172" r="1.716"/><circle cx="41.269" cy="40.321" r="1.716"/><circle cx="44.702" cy="45.47" r="1.716"/><circle cx="30.97" cy="40.321" r="1.716"/><circle cx="27.537" cy="45.47" r="1.716"/><path fill="none" stroke="#000" stroke-linecap="round" stroke-linejoin="round" stroke-miterlimit="10" stroke-width="2" d="M27.537 23.157a8.582 8.582 0 1117.164 0"/></svg>