<svg viewBox="0 0 72 72" xmlns="http://www.w3.org/2000/svg"><path fill="#b3b3b3" d="M68 4v64H4V4h64m4-4H0v72h72V0z"/><path fill="none" stroke="#00a5ff" stroke-miterlimit="10" stroke-width=".1" d="M12.923 10.958h46.154A1.923 1.923 0 0161 12.881v46.154a1.923 1.923 0 01-1.923 1.923H12.923A1.923 1.923 0 0111 59.035V12.881a1.923 1.923 0 011.923-1.923z"/><rect x="16" y="4" rx="2.254" width="40" height="64" fill="none" stroke="#00a5ff" stroke-miterlimit="10" stroke-width=".1"/><rect x="16" y="4" rx="2.254" width="40" height="64" transform="rotate(90 36 36)" fill="none" stroke="#00a5ff" stroke-miterlimit="10" stroke-width=".1"/><circle cx="36" cy="36" r="29" fill="none" stroke="#00a5ff" stroke-miterlimit="10" stroke-width=".1"/><g stroke-linecap="round" stroke-miterlimit="10" stroke-width="6" stroke="#fff" fill="none" stroke-linejoin="round"><path d="M34 23.583L32 20m6.333 3.667L40 20"/><ellipse cx="36" cy="27" rx="4" ry="3"/><ellipse cx="36" cy="32" rx="4" ry="2"/><path d="M35 34.167C22.312 34.789 36 53 36 53s16-19.667-1-18.833zM32 30s-20-16-20-4 7 6 9 10 5 1 5 1"/><path d="M46 37s3 3 5-1 9 2 9-10-20 4-20 4"/></g><path fill="#D0CFCE" stroke="#D0CFCE" stroke-miterlimit="10" stroke-width="1.8" d="M32 29.96s-20-15.924-20-3.982 7 5.971 9 9.952 5 .995 5 .995L31 40m9-10s20-16 20-4-7 6-9 10-5 1-5 1l-5 3"/><ellipse cx="36" cy="27" rx="4" ry="3" fill="#FCEA2B"/><ellipse cx="36" cy="32" rx="4" ry="2" fill="#A57939"/><path fill="#FCEA2B" d="M35 34.167C22.312 34.789 36 53 36 53s16-19.667-1-18.833z"/><g fill="none" stroke="#000" stroke-linecap="round" stroke-linejoin="round" stroke-miterlimit="10" stroke-width="2"><path d="M34 23.583L32 20m6.333 3.667L40 20"/><ellipse cx="36" cy="27" rx="4" ry="3"/><ellipse cx="36" cy="32" rx="4" ry="2"/><path d="M35 34.167C22.312 34.789 36 53 36 53s16-19.667-1-18.833zM32 30s-20-16-20-4 7 6 9 10 5 1 5 1"/><path d="M46 37s3 3 5-1 9 2 9-10-20 4-20 4"/></g></svg>