<svg viewBox="0 0 72 72" xmlns="http://www.w3.org/2000/svg"><path fill="#b3b3b3" d="M68 4v64H4V4h64m4-4H0v72h72V0z"/><path fill="none" stroke="#00a5ff" stroke-miterlimit="10" stroke-width=".1" d="M12.923 10.958h46.154A1.923 1.923 0 0161 12.881v46.154a1.923 1.923 0 01-1.923 1.923H12.923A1.923 1.923 0 0111 59.035V12.881a1.923 1.923 0 011.923-1.923z"/><rect x="16" y="4" rx="2.254" width="40" height="64" fill="none" stroke="#00a5ff" stroke-miterlimit="10" stroke-width=".1"/><rect x="16" y="4" rx="2.254" width="40" height="64" transform="rotate(90 36 36)" fill="none" stroke="#00a5ff" stroke-miterlimit="10" stroke-width=".1"/><circle cx="36" cy="36" r="29" fill="none" stroke="#00a5ff" stroke-miterlimit="10" stroke-width=".1"/><g stroke-linecap="round" stroke-miterlimit="10" stroke-width="6" stroke="#fff" fill="none" stroke-linejoin="round"><path d="M23.857 11.888c-6.898 10.347.862 14.658.862 14.658l6.898.862"/><path d="M23.19 14.553c5.367 1.804 2.392 8.544 2.392 8.544l.862.862 6.898.862m13.796-12.933s6.898 9.485-.862 14.658l-6.69.464"/><path d="M37.653 24.822l7.76-.863.863-1.724s-4.746-3.291 1.507-7.681M40.24 30.857l4.927 1.725 1.97-1.725-.985-1.724m-15.397 1.724l-5.173 1.725-1.725-1.725 1.725-1.724m5.173 5.173l-3.449 6.036-1.724.862-2.48-1.221m17.138-5.677l3.449 6.036 1.724.862 2.623-1.15M34.204 22.235l.575 2.012m1.365 0l.647-2.012m2.587 11.209c-5.174 1.725-8.323-.125-8.323-.125m-.215 4.005s4.801 2.156 8.825 0"/><path d="M41.964 55.862s-2.155-6.898 2.803-3.018-3.018 9.916-6.79 6.899c-3.773-3.018-9.809-18.539-5.497-33.197 0 0 3.449-5.173 6.035 0 2.587 5.174 1.165 20.694.151 24.143-1.013 3.449-1.013 6.036 2.436 7.329"/><path d="M25.582 48.24h3.173l1.586-1.724.793-4.312s5.553 1.725 8.726 0l.794 4.312 1.586 1.724h3.173m-13.481-1.925s3.997 1.787 7.446.063"/></g><path fill="#EA5A47" d="M39.823 26.896s9.777.248 9.878-3.75c.101-4 1.686-6.692-.775-8.023C45 13 44.863 21.022 45.79 23.046S38 25 38 25l1.823 1.896zM32 27s-10 0-10-4-1-6 1-8 4 6 3 8 7 2 7 2l-1 2z"/><path fill="#D22F27" d="M41.964 55.862s-2.155-6.898 2.803-3.018-3.018 9.916-6.79 6.899c-3.773-3.018-9.809-18.539-5.497-33.197 0 0 3.449-5.173 6.035 0 2.587 5.174 1.165 20.694.151 24.143-1.013 3.449-1.013 6.036 2.436 7.329"/><path fill="#EA5A47" d="M31 34h9v4h-9zm0 9h9v4h-9z"/><g fill="none" stroke="#000" stroke-linecap="round" stroke-linejoin="round" stroke-miterlimit="10" stroke-width="2"><path d="M23.857 11.888c-6.898 10.347.862 14.658.862 14.658l6.898.862"/><path d="M23.19 14.553c5.367 1.804 2.392 8.544 2.392 8.544l.862.862 6.898.862m13.796-12.933s6.898 9.485-.862 14.658l-6.69.464"/><path d="M37.653 24.822l7.76-.863.863-1.724s-4.746-3.291 1.507-7.681M40.24 30.857l4.927 1.725 1.97-1.725-.985-1.724m-15.397 1.724l-5.173 1.725-1.725-1.725 1.725-1.724m5.173 5.173l-3.449 6.036-1.724.862-2.48-1.221m17.138-5.677l3.449 6.036 1.724.862 2.623-1.15M34.204 22.235l.575 2.012m1.365 0l.647-2.012m2.587 11.209c-5.174 1.725-8.323-.125-8.323-.125m-.215 4.005s4.801 2.156 8.825 0"/><path d="M41.964 55.862s-2.155-6.898 2.803-3.018-3.018 9.916-6.79 6.899c-3.773-3.018-9.809-18.539-5.497-33.197 0 0 3.449-5.173 6.035 0 2.587 5.174 1.165 20.694.151 24.143-1.013 3.449-1.013 6.036 2.436 7.329"/><path d="M25.582 48.24h3.173l1.586-1.724.793-4.312s5.553 1.725 8.726 0l.794 4.312 1.586 1.724h3.173m-13.481-1.925s3.997 1.787 7.446.063"/></g></svg>