<svg viewBox="0 0 72 72" xmlns="http://www.w3.org/2000/svg"><path fill="#b3b3b3" d="M68 4v64H4V4h64m4-4H0v72h72V0z"/><path fill="none" stroke="#00a5ff" stroke-miterlimit="10" stroke-width=".1" d="M12.923 10.958h46.154A1.923 1.923 0 0161 12.881v46.154a1.923 1.923 0 01-1.923 1.923H12.923A1.923 1.923 0 0111 59.035V12.881a1.923 1.923 0 011.923-1.923z"/><rect x="16" y="4" rx="2.254" width="40" height="64" fill="none" stroke="#00a5ff" stroke-miterlimit="10" stroke-width=".1"/><rect x="16" y="4" rx="2.254" width="40" height="64" transform="rotate(90 36 36)" fill="none" stroke="#00a5ff" stroke-miterlimit="10" stroke-width=".1"/><circle cx="36" cy="36" r="29" fill="none" stroke="#00a5ff" stroke-miterlimit="10" stroke-width=".1"/><g stroke-linecap="round" stroke-miterlimit="10" stroke-width="6" stroke="#fff" fill="none" stroke-linejoin="round"><path d="M41 29c3.1-.135 4.406-1.074 5-2 1.534-2.392-.872-5.965 1-8a3.492 3.492 0 012-1M32 29c-3.1-.135-4.406-1.074-5-2-1.534-2.392.872-5.965-1-8a3.492 3.492 0 00-2-1m13.605 19.932s-.925 3.928 3.287 3.642 2.858 8.396 12.516 2.587S39 29 39 29m-6 0S9.05 38.421 18.523 44.119s8.179-2.874 12.32-2.61 3.248-3.613 3.248-3.613"/><ellipse cx="36" cy="26" rx="4" ry="3"/><path d="M31.082 41.802A62.32 62.32 0 0036 52a59.843 59.843 0 005.167-9.905M36 22v-6"/><path d="M32.268 41.282c-3.1.168-4.406 1.34-5 2.495-1.534 2.982.871 7.438-1 9.976a3.283 3.283 0 01-2 1.247m15-13.718a9.849 9.849 0 012.005.299 4.381 4.381 0 012.995 2.196c1.533 2.982-.872 7.438 1 9.976a3.283 3.283 0 002 1.247M33 29h6"/></g><path fill="#9b9b9a" d="M35 29.035C22.3 29.736 36 51 36 51s16-23.017-1-21.965z"/><ellipse cx="36" cy="26" rx="4" ry="3" fill="#9b9b9a"/><path fill="#d0cfce" d="M31.672 29.886s-22.81 8.422-13.038 14.3 8.31-2.752 12.545-2.418 3.26-3.575 3.26-3.575l3.704.002s-.97 3.907 3.265 3.58 2.785 8.301 12.548 2.438-13.059-14.32-13.059-14.32"/><g fill="none" stroke="#000" stroke-linecap="round" stroke-linejoin="round" stroke-width="2"><path d="M41 29c3.1-.135 4.406-1.074 5-2 1.534-2.392-.872-5.965 1-8a3.492 3.492 0 012-1M32 29c-3.1-.135-4.406-1.074-5-2-1.534-2.392.872-5.965-1-8a3.492 3.492 0 00-2-1m13.605 19.932s-.925 3.928 3.287 3.642 2.858 8.396 12.516 2.587S39 29 39 29m-6 0S9.05 38.421 18.523 44.119s8.179-2.874 12.32-2.61 3.248-3.613 3.248-3.613"/><ellipse cx="36" cy="26" rx="4" ry="3"/><path d="M31.082 41.802A62.32 62.32 0 0036 52a59.843 59.843 0 005.167-9.905M36 22v-6"/><path d="M32.268 41.282c-3.1.168-4.406 1.34-5 2.495-1.534 2.982.871 7.438-1 9.976a3.283 3.283 0 01-2 1.247m15-13.718a9.849 9.849 0 012.005.299 4.381 4.381 0 012.995 2.196c1.533 2.982-.872 7.438 1 9.976a3.283 3.283 0 002 1.247M33 29h6"/></g></svg>