<svg viewBox="0 0 72 72" xmlns="http://www.w3.org/2000/svg"><path fill="#b3b3b3" d="M68 4v64H4V4h64m4-4H0v72h72V0z"/><path fill="none" stroke="#00a5ff" stroke-miterlimit="10" stroke-width=".1" d="M12.923 10.958h46.154A1.923 1.923 0 0161 12.881v46.154a1.923 1.923 0 01-1.923 1.923H12.923A1.923 1.923 0 0111 59.035V12.881a1.923 1.923 0 011.923-1.923z"/><rect x="16" y="4" rx="2.254" width="40" height="64" fill="none" stroke="#00a5ff" stroke-miterlimit="10" stroke-width=".1"/><rect x="16" y="4" rx="2.254" width="40" height="64" transform="rotate(90 36 36)" fill="none" stroke="#00a5ff" stroke-miterlimit="10" stroke-width=".1"/><circle cx="36" cy="36" r="29" fill="none" stroke="#00a5ff" stroke-miterlimit="10" stroke-width=".1"/><g stroke-linecap="round" stroke-miterlimit="10" stroke-width="6" stroke="#fff" fill="none" stroke-linejoin="round"><path d="M45.498 25.016a33.636 33.636 0 00-3.652.102 11.713 11.713 0 00-6.152 1.794 1.252 1.252 0 01-.588.3 1.222 1.222 0 01-.639-.19 14.775 14.775 0 00-6.284-1.255c-3.312-.08-6.751.283-9.62 1.943-3.8 2.2-6.043 6.888-3.611 10.892a11.105 11.105 0 006.278 4.605 21.605 21.605 0 006.58.825 15.456 15.456 0 008.15-1.877 1.53 1.53 0 01.858-.332 1.564 1.564 0 01.602.222 12.222 12.222 0 004.74 1.092 21.218 21.218 0 009.065-.95c3.356-1.266 6.614-4.241 6.614-8.066 0-4.176-3.745-7.202-7.432-8.342a18.61 18.61 0 00-4.909-.763zm-10.399-3.539v3.79m1.516 17.466v3.79m-7.964-24.765l.767 3.712m12.635 18.061l.768 3.711M41.547 21l-.768 3.712m-9.845 19.576L30.167 48m18.018-26.799l-1.411 3.518m-21.34 19.667l-1.411 3.517m0-26.048l1.411 3.517m22.119 18.255l1.412 3.518m4.685-25.113l-1.729 3.372M20.54 43.046l-1.729 3.373m32.981-3.866l1.729 3.373M19.569 22.79l1.729 3.372m36.815 7.959h3.79m-52.093.758h3.79m-2.808 5.286l3.371-1.732m-3.14-9.107l3.393 1.689m46 8.15l-3.371-1.732m4.14-8.107l-3.393 1.689M14.38 24.831l2.68 2.68m38.32 13.32l2.68 2.68m0-18.68l-2.68 2.68m-39.32 14.32l-2.68 2.68"/><circle cx="25" cy="37" r="1.25"/><circle cx="32" cy="33" r="1.25"/><circle cx="21" cy="32" r="1.25"/><circle cx="45" cy="37" r="1.25"/><circle cx="52" cy="33" r="1.25"/><circle cx="40" cy="33" r="1.25"/></g><path fill="#92d3f5" d="M45.498 25.016a33.636 33.636 0 00-3.652.102 11.713 11.713 0 00-6.152 1.794 1.252 1.252 0 01-.588.3 1.222 1.222 0 01-.639-.19 14.775 14.775 0 00-6.284-1.255c-3.312-.08-6.751.283-9.62 1.943-3.8 2.2-6.043 6.888-3.611 10.892a11.105 11.105 0 006.278 4.605 21.605 21.605 0 006.58.825 15.456 15.456 0 008.15-1.877 1.53 1.53 0 01.858-.332 1.564 1.564 0 01.602.222 12.222 12.222 0 004.74 1.092 21.218 21.218 0 009.065-.95c3.356-1.266 6.614-4.241 6.614-8.066 0-4.176-3.745-7.202-7.432-8.342a18.61 18.61 0 00-4.909-.763z"/><path fill="#61b2e4" d="M51.225 38.397a21.218 21.218 0 01-9.065.95 12.22 12.22 0 01-4.74-1.092 1.564 1.564 0 00-.601-.222 1.53 1.53 0 00-.859.332 15.455 15.455 0 01-8.151 1.877 21.602 21.602 0 01-6.58-.825 11.105 11.105 0 01-6.277-4.606 6.99 6.99 0 01-.739-1.685 6.796 6.796 0 00.739 5.476 11.105 11.105 0 006.278 4.605 21.605 21.605 0 006.58.825 15.455 15.455 0 008.15-1.877 1.53 1.53 0 01.858-.332 1.564 1.564 0 01.602.222 12.221 12.221 0 004.74 1.092 21.218 21.218 0 009.065-.95c3.356-1.266 6.614-4.241 6.614-8.066a6.808 6.808 0 00-.279-1.9c-.85 2.905-3.555 5.127-6.335 6.176z"/><g><path fill="none" stroke="#000" stroke-miterlimit="10" stroke-width="2" d="M45.498 25.016a33.636 33.636 0 00-3.652.102 11.713 11.713 0 00-6.152 1.794 1.252 1.252 0 01-.588.3 1.222 1.222 0 01-.639-.19 14.775 14.775 0 00-6.284-1.255c-3.312-.08-6.751.283-9.62 1.943-3.8 2.2-6.043 6.888-3.611 10.892a11.105 11.105 0 006.278 4.605 21.605 21.605 0 006.58.825 15.456 15.456 0 008.15-1.877 1.53 1.53 0 01.858-.332 1.564 1.564 0 01.602.222 12.222 12.222 0 004.74 1.092 21.218 21.218 0 009.065-.95c3.356-1.266 6.614-4.241 6.614-8.066 0-4.176-3.745-7.202-7.432-8.342a18.61 18.61 0 00-4.909-.763z"/><path fill="none" stroke="#000" stroke-linecap="round" stroke-linejoin="round" stroke-width="2" d="M35.099 21.477v3.79m1.516 17.466v3.79m-7.964-24.765l.767 3.712m12.635 18.061l.768 3.711M41.547 21l-.768 3.712m-9.845 19.576L30.167 48m18.018-26.799l-1.411 3.518m-21.34 19.667l-1.411 3.517m0-26.048l1.411 3.517m22.119 18.255l1.412 3.518m4.685-25.113l-1.729 3.372M20.54 43.046l-1.729 3.373m32.981-3.866l1.729 3.373M19.569 22.79l1.729 3.372m36.815 7.959h3.79m-52.093.758h3.79m-2.808 5.286l3.371-1.732m-3.14-9.107l3.393 1.689m46 8.15l-3.371-1.732m4.14-8.107l-3.393 1.689M14.38 24.831l2.68 2.68m38.32 13.32l2.68 2.68m0-18.68l-2.68 2.68m-39.32 14.32l-2.68 2.68"/><circle cx="25" cy="37" r="1.25"/><circle cx="32" cy="33" r="1.25"/><circle cx="21" cy="32" r="1.25"/><circle cx="45" cy="37" r="1.25"/><circle cx="52" cy="33" r="1.25"/><circle cx="40" cy="33" r="1.25"/></g></svg>