<svg viewBox="0 0 72 72" xmlns="http://www.w3.org/2000/svg"><path fill="#b3b3b3" d="M68 4v64H4V4h64m4-4H0v72h72V0z"/><path fill="none" stroke="#00a5ff" stroke-miterlimit="10" stroke-width=".1" d="M12.923 10.958h46.154A1.923 1.923 0 0161 12.881v46.154a1.923 1.923 0 01-1.923 1.923H12.923A1.923 1.923 0 0111 59.035V12.881a1.923 1.923 0 011.923-1.923z"/><rect x="16" y="4" rx="2.254" width="40" height="64" fill="none" stroke="#00a5ff" stroke-miterlimit="10" stroke-width=".1"/><rect x="16" y="4" rx="2.254" width="40" height="64" transform="rotate(90 36 36)" fill="none" stroke="#00a5ff" stroke-miterlimit="10" stroke-width=".1"/><circle cx="36" cy="36" r="29" fill="none" stroke="#00a5ff" stroke-miterlimit="10" stroke-width=".1"/><g stroke-linecap="round" stroke-miterlimit="10" stroke-width="6" stroke="#fff" fill="none" stroke-linejoin="round"><path d="M21.662 43.963a3.786 3.786 0 01-3.5-4v-7a3.531 3.531 0 117 0v7a3.786 3.786 0 01-3.5 4z"/><path d="M28.724 50.193a3.786 3.786 0 01-3.5-4v-15a3.531 3.531 0 117 0v15a3.786 3.786 0 01-3.5 4zm9.214-30.755l-2.971 7.757m16.573 4.891L42.266 7.68c-2.017-4.617-9.205-1.742-7.515 2.713l3.185 9.044L42.37 31.97m4.33-12.623l3.296-9.665c.955-4.947-6.597-6.651-7.73-2.023"/><path d="M18.13 47.08s-.09 4.119 0 5.488c.572 8.656 9.688 15.089 18.363 14.961 9.667 0 17.893-6.833 17.893-16.878h0l-.658-11.13a4.308 4.308 0 00-4.236-3.993h-10a3.786 3.786 0 00-4 3.5 4.327 4.327 0 003.976 3.942l1.05.117c2.186.242 3.975 1.342 3.975 2.442v2.44a12.445 12.445 0 00-5.777 2.958"/></g><g fill="#fcea2b"><path d="M21.662 43.963a3.786 3.786 0 01-3.5-4v-7a3.531 3.531 0 117 0v7a3.786 3.786 0 01-3.5 4z"/><path d="M28.724 50.193a3.786 3.786 0 01-3.5-4v-15a3.531 3.531 0 117 0v15a3.786 3.786 0 01-3.5 4zm25.662-12.255L42.266 7.68c-2.016-4.617-9.203-1.742-7.514 2.713l3.185 9.044L40.5 35.605"/><path d="M46.7 19.347l3.296-9.665c.955-4.947-6.597-6.651-7.73-2.023m-8.328 46.716l9.933-30.52c.955-4.948-3.12-16.331-11.616 7.958"/><path d="M18.67 46.5v6.172c1.162 8.6 8.688 14.985 17.513 14.857 9.835 0 18.203-6.833 18.203-16.878l-.67-11.13c-.165-2.228-2.036-3.961-4.309-3.993H39.234c-2.102-.122-3.914 1.437-4.07 3.5.186 2.11 1.897 3.778 4.045 3.942l1.068.117c2.225.242 4.045 1.342 4.045 2.442v2.44a12.741 12.741 0 00-5.878 2.958"/><path d="M43.438 54.875l-26.271-7.958v-6.959l27.427-.177z"/></g><g fill="none" stroke="#000" stroke-linecap="round" stroke-linejoin="round" stroke-width="2"><path d="M21.662 43.963a3.786 3.786 0 01-3.5-4v-7a3.531 3.531 0 117 0v7a3.786 3.786 0 01-3.5 4z"/><path d="M28.724 50.193a3.786 3.786 0 01-3.5-4v-15a3.531 3.531 0 117 0v15a3.786 3.786 0 01-3.5 4zm9.214-30.755l-2.971 7.757m16.573 4.891L42.266 7.68c-2.017-4.617-9.205-1.742-7.515 2.713l3.185 9.044L42.37 31.97m4.33-12.623l3.296-9.665c.955-4.947-6.597-6.651-7.73-2.023"/><path d="M18.13 47.08s-.09 4.119 0 5.488c.572 8.656 9.688 15.089 18.363 14.961 9.667 0 17.893-6.833 17.893-16.878h0l-.658-11.13a4.308 4.308 0 00-4.236-3.993h-10a3.786 3.786 0 00-4 3.5 4.327 4.327 0 003.976 3.942l1.05.117c2.186.242 3.975 1.342 3.975 2.442v2.44a12.445 12.445 0 00-5.777 2.958"/></g></svg>