<svg viewBox="0 0 72 72" xmlns="http://www.w3.org/2000/svg"><path fill="#b3b3b3" d="M68 4v64H4V4h64m4-4H0v72h72V0z"/><path fill="none" stroke="#00a5ff" stroke-miterlimit="10" stroke-width=".1" d="M12.923 11h46.154A1.923 1.923 0 0161 12.923v46.154A1.923 1.923 0 0159.077 61H12.923A1.923 1.923 0 0111 59.077V12.923A1.923 1.923 0 0112.923 11z"/><rect x="16" y="4" rx="2.254" width="40" height="64" fill="none" stroke="#00a5ff" stroke-miterlimit="10" stroke-width=".1"/><rect x="16" y="4" rx="2.254" width="40" height="64" transform="rotate(90 36 36)" fill="none" stroke="#00a5ff" stroke-miterlimit="10" stroke-width=".1"/><circle cx="36" cy="36" r="29" fill="none" stroke="#00a5ff" stroke-miterlimit="10" stroke-width=".1"/><g stroke-linecap="round" stroke-miterlimit="10" stroke-width="6" stroke="#fff" fill="none" stroke-linejoin="round"><path d="M59.035 60h-46.07a.968.968 0 01-.965-.965v-46.07a.968.968 0 01.965-.965h46.07a.968.968 0 01.965.965v46.07a.968.968 0 01-.965.965z"/><path d="M35.75 46.512h0a7.857 7.857 0 01-7.857-7.857v-6.286a7.857 7.857 0 017.857-7.857h0a7.857 7.857 0 017.857 7.857v6.286a7.857 7.857 0 01-7.857 7.857z"/></g><g fill="none" stroke="#000" stroke-width="2"><path stroke-miterlimit="10" d="M59.035 60h-46.07a.968.968 0 01-.965-.965v-46.07a.968.968 0 01.965-.965h46.07a.968.968 0 01.965.965v46.07a.968.968 0 01-.965.965z"/><path stroke-linecap="round" stroke-linejoin="round" d="M35.75 46.512h0a7.857 7.857 0 01-7.857-7.857v-6.286a7.857 7.857 0 017.857-7.857h0a7.857 7.857 0 017.857 7.857v6.286a7.857 7.857 0 01-7.857 7.857z"/></g><path fill="#d22f27" d="M59.035 60h-46.07a.968.968 0 01-.965-.965v-46.07a.968.968 0 01.965-.965h46.07a.968.968 0 01.965.965v46.07a.968.968 0 01-.965.965z"/><g fill="none" stroke="#fff" stroke-width="2"><path stroke-miterlimit="10" d="M59.035 60h-46.07a.968.968 0 01-.965-.965v-46.07a.968.968 0 01.965-.965h46.07a.968.968 0 01.965.965v46.07a.968.968 0 01-.965.965z"/><path stroke-linecap="round" stroke-linejoin="round" d="M35.75 46.512h0a7.857 7.857 0 01-7.857-7.857v-6.286a7.857 7.857 0 017.857-7.857h0a7.857 7.857 0 017.857 7.857v6.286a7.857 7.857 0 01-7.857 7.857z"/></g></svg>