<svg viewBox="0 0 72 72" xmlns="http://www.w3.org/2000/svg"><path fill="#b3b3b3" d="M68 4v64H4V4h64m4-4H0v72h72V0z"/><path fill="none" stroke="#00a5ff" stroke-miterlimit="10" stroke-width=".1" d="M12.923 10.958h46.154A1.923 1.923 0 0161 12.881v46.154a1.923 1.923 0 01-1.923 1.923H12.923A1.923 1.923 0 0111 59.035V12.881a1.923 1.923 0 011.923-1.923z"/><rect x="16" y="4" rx="2.254" width="40" height="64" fill="none" stroke="#00a5ff" stroke-miterlimit="10" stroke-width=".1"/><rect x="16" y="4" rx="2.254" width="40" height="64" transform="rotate(90 36 36)" fill="none" stroke="#00a5ff" stroke-miterlimit="10" stroke-width=".1"/><circle cx="36" cy="36" r="29" fill="none" stroke="#00a5ff" stroke-miterlimit="10" stroke-width=".1"/><rect x="11" y="11.958" rx="1.923" width="50" height="50" fill="none" stroke="#00a5ff" stroke-miterlimit="10" stroke-width=".1"/><g stroke-linecap="round" stroke-miterlimit="10" stroke-width="6" stroke="#fff" fill="none" stroke-linejoin="round"><path d="M59.035 60.137h-46.07a.968.968 0 01-.965-.965v-46.07a.968.968 0 01.965-.965h46.07a.968.968 0 01.965.965v46.07a.968.968 0 01-.965.965z"/><path d="M33.287 43.637l-6.429-15-6.428 15m2.142-3.591h8.572M46.655 36.137h-5.72v-7.472h5.72a3.736 3.736 0 013.736 3.736h0a3.736 3.736 0 01-3.736 3.736zm0 7.473h-5.72v-7.473h5.72a3.736 3.736 0 013.736 3.736h0a3.736 3.736 0 01-3.736 3.736z"/></g><g fill="none" stroke="#000" stroke-linejoin="round" stroke-width="2"><path d="M59.035 60.137h-46.07a.968.968 0 01-.965-.965v-46.07a.968.968 0 01.965-.965h46.07a.968.968 0 01.965.965v46.07a.968.968 0 01-.965.965z"/><g stroke-linecap="round"><path d="M33.287 43.637l-6.429-15-6.428 15m2.142-3.591h8.572M46.655 36.137h-5.72v-7.472h5.72a3.736 3.736 0 013.736 3.736h0a3.736 3.736 0 01-3.736 3.736zm0 7.473h-5.72v-7.473h5.72a3.736 3.736 0 013.736 3.736h0a3.736 3.736 0 01-3.736 3.736z"/></g></g><path fill="#d22f27" d="M59.035 60.137h-46.07a.968.968 0 01-.965-.965v-46.07a.968.968 0 01.965-.965h46.07a.968.968 0 01.965.965v46.07a.968.968 0 01-.965.965z"/><g fill="none" stroke="#fff" stroke-linejoin="round" stroke-width="2"><path d="M59.035 60.137h-46.07a.968.968 0 01-.965-.965v-46.07a.968.968 0 01.965-.965h46.07a.968.968 0 01.965.965v46.07a.968.968 0 01-.965.965z"/><g stroke-linecap="round"><path d="M33.287 43.637l-6.429-15-6.428 15m2.142-3.591h8.572M46.655 36.137h-5.72v-7.472h5.72a3.736 3.736 0 013.736 3.736h0a3.736 3.736 0 01-3.736 3.736zm0 7.473h-5.72v-7.473h5.72a3.736 3.736 0 013.736 3.736h0a3.736 3.736 0 01-3.736 3.736z"/></g></g></svg>