<svg viewBox="0 0 72 72" xmlns="http://www.w3.org/2000/svg"><path fill="#b3b3b3" d="M68 4v64H4V4h64m4-4H0v72h72V0z"/><path fill="none" stroke="#00a5ff" stroke-miterlimit="10" stroke-width=".1" d="M12.923 10.958h46.154A1.923 1.923 0 0161 12.881v46.154a1.923 1.923 0 01-1.923 1.923H12.923A1.923 1.923 0 0111 59.035V12.881a1.923 1.923 0 011.923-1.923z"/><rect x="16" y="4" rx="2.254" width="40" height="64" fill="none" stroke="#00a5ff" stroke-miterlimit="10" stroke-width=".1"/><rect x="16" y="4" rx="2.254" width="40" height="64" transform="rotate(90 36 36)" fill="none" stroke="#00a5ff" stroke-miterlimit="10" stroke-width=".1"/><circle cx="36" cy="36" r="29" fill="none" stroke="#00a5ff" stroke-miterlimit="10" stroke-width=".1"/><g stroke-linecap="round" stroke-miterlimit="10" stroke-width="6" stroke="#fff" fill="none" stroke-linejoin="round"><path d="M30.593 17.728s-2.769 7.54-8.462 10.309m28.387-4.539H27.355v18.54m-5.224.384h28.387M22.131 32.96h28.387m-16.923-9.887v19.349m6.23-19.349v19.349m6.154-19.349v19.349m-19.936 4.504l-2.304 3.838m9.296-3.09l-.398 4.459m8.003-4.462l.313 4.465m6.952-5.012l2.271 3.858"/><rect x="11.591" y="11.617" rx="1.699" width="48.984" height="48.984"/></g><rect x="11.591" y="11.617" rx="1.699" width="48.984" height="48.984" fill="#d0cfce"/><g fill="none" stroke="#000" stroke-width="2"><path stroke-linecap="round" stroke-linejoin="round" d="M30.593 17.728s-2.769 7.54-8.462 10.309m28.387-4.539H27.355v18.54m-5.224.384h28.387M22.131 32.96h28.387"/><path stroke-linejoin="round" d="M33.595 23.073v19.349m6.23-19.349v19.349m6.154-19.349v19.349"/><path stroke-linecap="round" stroke-miterlimit="10" d="M26.043 46.926l-2.304 3.838m9.296-3.09l-.398 4.459m8.003-4.462l.313 4.465m6.952-5.012l2.271 3.858"/><rect x="11.591" y="11.617" rx="1.699" width="48.984" height="48.984" stroke-miterlimit="10"/></g></svg>