<svg viewBox="0 0 72 72" xmlns="http://www.w3.org/2000/svg"><path fill="#b3b3b3" d="M68 4v64H4V4h64m4-4H0v72h72V0z"/><path fill="none" stroke="#00a5ff" stroke-miterlimit="10" stroke-width=".1" d="M12.923 10.958h46.154A1.923 1.923 0 0161 12.881v46.154a1.923 1.923 0 01-1.923 1.923H12.923A1.923 1.923 0 0111 59.035V12.881a1.923 1.923 0 011.923-1.923z"/><rect x="16" y="4" rx="2.254" width="40" height="64" fill="none" stroke="#00a5ff" stroke-miterlimit="10" stroke-width=".1"/><rect x="16" y="4" rx="2.254" width="40" height="64" transform="rotate(90 36 36)" fill="none" stroke="#00a5ff" stroke-miterlimit="10" stroke-width=".1"/><circle cx="36" cy="36" r="29" fill="none" stroke="#00a5ff" stroke-miterlimit="10" stroke-width=".1"/><g stroke-linecap="round" stroke-miterlimit="10" stroke-width="6" stroke="#fff" fill="none" stroke-linejoin="round"><path d="M25 37h22m-25.5 4.5h29m-14 1.5v7.5h-5M29 44s-3 5-7 6m21-6s3 5 7 6M28 22v10m-7-7.426h12.5m-12 7.926s6-4 6-8m1.352 0s1.648 5 4.648 6m10-8.5v10m7-7.426H38M50 32.5s-6-4-6-8m-1.352 0S40.645 30.75 37 32"/><path d="M59.035 60h-46.07a.968.968 0 01-.965-.965v-46.07a.968.968 0 01.965-.965h46.07a.968.968 0 01.965.965v46.07a.968.968 0 01-.965.965z"/></g><path fill="#d0cfce" d="M59.035 60h-46.07a.968.968 0 01-.965-.965v-46.07a.968.968 0 01.965-.965h46.07a.968.968 0 01.965.965v46.07a.968.968 0 01-.965.965z"/><g stroke="#000" stroke-width="2"><path stroke-linecap="round" stroke-linejoin="round" d="M25 37h22m-25.5 4.5h29"/><path fill="none" stroke-linecap="round" stroke-linejoin="round" d="M36.5 43v7.5h-5M29 44s-3 5-7 6m21-6s3 5 7 6"/><path stroke-linecap="round" stroke-linejoin="round" d="M28 22v10m-7-7.426h12.5m-12 7.926s6-4 6-8m1.352 0s1.648 5 4.648 6m10-8.5v10m7-7.426H38M50 32.5s-6-4-6-8m-1.352 0S40.645 30.75 37 32"/><path fill="none" stroke-miterlimit="10" d="M59.035 60h-46.07a.968.968 0 01-.965-.965v-46.07a.968.968 0 01.965-.965h46.07a.968.968 0 01.965.965v46.07a.968.968 0 01-.965.965z"/></g></svg>