<svg viewBox="0 0 72 72" xmlns="http://www.w3.org/2000/svg"><path fill="#b3b3b3" d="M68 4v64H4V4h64m4-4H0v72h72V0z"/><rect x="11" y="10.958" rx="1.923" width="50" height="50" fill="none" stroke="#00a5ff" stroke-miterlimit="10" stroke-width=".1"/><rect x="16" y="4" rx="2.254" width="40" height="64" fill="none" stroke="#00a5ff" stroke-miterlimit="10" stroke-width=".1"/><rect x="16" y="4" rx="2.254" width="40" height="64" transform="rotate(90 36 36)" fill="none" stroke="#00a5ff" stroke-miterlimit="10" stroke-width=".1"/><circle cx="36" cy="36" r="29" fill="none" stroke="#00a5ff" stroke-miterlimit="10" stroke-width=".1"/><g stroke-linecap="round" stroke-miterlimit="10" stroke-width="6" stroke="#fff" fill="none" stroke-linejoin="round"><path d="M22.98 31.429h12.992M22.98 25.418h14.107m-14.864 0H36.33M23.396 35.547h12.14M24.11 50.707h10.915M21.728 40.115h15.465m-7.717-11.23v11.23m12.746-14.494v17.383M29.476 21.951v3.205m7.611.262v3.467m-14.864-3.467v3.467M24.11 52.46v-8.072h11.058v8.072m14.248-30.509V51.87h-5.642"/><rect x="11.234" y="11.922" rx="1.699" width="48.984" height="48.984"/></g><rect x="11.234" y="11.922" rx="1.699" width="48.984" height="48.984" fill="#d0cfce"/><g fill="none" stroke="#000" stroke-width="2"><path stroke-linecap="round" stroke-miterlimit="10" d="M22.98 31.429h12.992M22.98 25.418h14.107m-14.864 0H36.33M23.396 35.547h12.14M24.11 50.707h10.915M21.728 40.115h15.465m-7.717-11.23v11.23m12.746-14.494v17.383M29.476 21.951v3.205m7.611.262v3.467m-14.864-3.467v3.467"/><path stroke-linecap="round" stroke-linejoin="round" d="M24.11 52.46v-8.072h11.058v8.072m14.248-30.509V51.87h-5.642"/><rect x="11.234" y="11.922" rx="1.699" width="48.984" height="48.984" stroke-miterlimit="10"/></g></svg>