<svg viewBox="0 0 72 72" xmlns="http://www.w3.org/2000/svg"><path fill="#b3b3b3" d="M68 4v64H4V4h64m4-4H0v72h72V0z"/><path fill="none" stroke="#00a5ff" stroke-miterlimit="10" stroke-width=".1" d="M12.923 10.958h46.154A1.923 1.923 0 0161 12.881v46.154a1.923 1.923 0 01-1.923 1.923H12.923A1.923 1.923 0 0111 59.035V12.881a1.923 1.923 0 011.923-1.923z"/><rect x="16" y="4" rx="2.254" width="40" height="64" fill="none" stroke="#00a5ff" stroke-miterlimit="10" stroke-width=".1"/><rect x="16" y="4" rx="2.254" width="40" height="64" transform="rotate(90 36 36)" fill="none" stroke="#00a5ff" stroke-miterlimit="10" stroke-width=".1"/><circle cx="36" cy="36" r="29" fill="none" stroke="#00a5ff" stroke-miterlimit="10" stroke-width=".1"/><g stroke-linecap="round" stroke-miterlimit="10" stroke-width="6" stroke="#fff" fill="none" stroke-linejoin="round"><path d="M21.321 25.123h29.975m-16.863-5.126a46.047 46.047 0 01-5.197 10.875 25.378 25.378 0 01-8.562 8.415m19.63 12.017h5.89a.6.6 0 00.661-.507V32.028a.6.6 0 00-.66-.507H30.606M29.85 37.9h17.005m-17.63-5.817v19.005m0-7.86h17.63"/><rect x="11.472" y="11.042" rx="1.699" width="48.984" height="48.984"/></g><rect x="11.472" y="11.042" rx="1.699" width="48.984" height="48.984" fill="#d0cfce"/><g fill="none" stroke="#000" stroke-width="2"><path stroke-linecap="round" stroke-miterlimit="5" d="M21.321 25.123h29.975m-16.863-5.126a46.047 46.047 0 01-5.197 10.875 25.378 25.378 0 01-8.562 8.415m19.63 12.017h5.89a.6.6 0 00.661-.507V32.028a.6.6 0 00-.66-.507H30.606M29.85 37.9h17.005m-17.63-5.817v19.005"/><path stroke-miterlimit="5" d="M29.225 43.228h17.63"/><rect x="11.472" y="11.042" rx="1.699" width="48.984" height="48.984" stroke-miterlimit="10"/></g></svg>