<svg viewBox="0 0 72 72" xmlns="http://www.w3.org/2000/svg"><path fill="#b3b3b3" d="M68 4v64H4V4h64m4-4H0v72h72V0z"/><path fill="none" stroke="#00a5ff" stroke-miterlimit="10" stroke-width=".1" d="M12.923 10.958h46.154A1.923 1.923 0 0161 12.881v46.154a1.923 1.923 0 01-1.923 1.923H12.923A1.923 1.923 0 0111 59.035V12.881a1.923 1.923 0 011.923-1.923z"/><rect x="16" y="4" rx="2.254" width="40" height="64" fill="none" stroke="#00a5ff" stroke-miterlimit="10" stroke-width=".1"/><rect x="16" y="4" rx="2.254" width="40" height="64" transform="rotate(90 36 36)" fill="none" stroke="#00a5ff" stroke-miterlimit="10" stroke-width=".1"/><circle cx="36" cy="36" r="29" fill="none" stroke="#00a5ff" stroke-miterlimit="10" stroke-width=".1"/><g stroke-linecap="round" stroke-miterlimit="10" stroke-width="6" stroke="#fff" fill="none" stroke-linejoin="round"><path d="M59.035 60h-46.07a.968.968 0 01-.965-.965v-46.07c0-.53.434-.965.965-.965h46.07c.53 0 .965.434.965.965v46.07c0 .53-.434.965-.965.965z"/><path d="M33.611 33.175l-4.628-10.8-4.629 10.8m1.543-2.586h6.171m.122 17.815a3.839 3.839 0 01-2.558.971h0a3.857 3.857 0 01-3.857-3.857v-3.086 3.086-3.086a3.857 3.857 0 013.857-3.857h0c.982 0 1.878.367 2.558.97m12.627-11.77h-4.118v-5.38h4.118a2.69 2.69 0 012.69 2.69h0a2.69 2.69 0 01-2.69 2.69zm0 5.38h-4.118v-5.38h4.118a2.69 2.69 0 012.69 2.69h0a2.69 2.69 0 01-2.69 2.69zm.683 16.2h-4.874v-10.76H45.5a2.08 2.08 0 012.08 2.08v6.6a2.08 2.08 0 01-2.08 2.08z"/></g><path fill="#d0cfce" d="M59.035 60h-46.07a.968.968 0 01-.965-.965v-46.07c0-.53.434-.965.965-.965h46.07c.53 0 .965.434.965.965v46.07c0 .53-.434.965-.965.965z"/><g fill="none" stroke="#000" stroke-linejoin="round" stroke-miterlimit="10" stroke-width="2"><path d="M59.035 60h-46.07a.968.968 0 01-.965-.965v-46.07c0-.53.434-.965.965-.965h46.07c.53 0 .965.434.965.965v46.07c0 .53-.434.965-.965.965z"/><path stroke-linecap="round" d="M33.611 33.175l-4.628-10.8-4.629 10.8m1.543-2.586h6.171m.122 17.815a3.839 3.839 0 01-2.558.971h0a3.857 3.857 0 01-3.857-3.857v-3.086 3.086-3.086a3.857 3.857 0 013.857-3.857h0c.982 0 1.878.367 2.558.97m12.627-11.77h-4.118v-5.38h4.118a2.69 2.69 0 012.69 2.69h0a2.69 2.69 0 01-2.69 2.69zm0 5.38h-4.118v-5.38h4.118a2.69 2.69 0 012.69 2.69h0a2.69 2.69 0 01-2.69 2.69zm.683 16.2h-4.874v-10.76H45.5a2.08 2.08 0 012.08 2.08v6.6a2.08 2.08 0 01-2.08 2.08z"/></g></svg>