<svg viewBox="0 0 72 72" xmlns="http://www.w3.org/2000/svg"><path fill="#B3B3B3" d="M68 4v64H4V4h64m4-4H0v72h72V0z"/><path fill="none" stroke="#00A5FF" stroke-miterlimit="10" stroke-width=".1" d="M12.923 10.958h46.154c1.062 0 1.923.861 1.923 1.923v46.154a1.923 1.923 0 01-1.923 1.923H12.923A1.923 1.923 0 0111 59.035h0V12.881c0-1.062.861-1.923 1.923-1.923h0z"/><path fill="none" stroke="#00A5FF" stroke-miterlimit="10" stroke-width=".1" d="M18.254 4h35.492A2.254 2.254 0 0156 6.254v59.492A2.254 2.254 0 0153.746 68H18.254A2.254 2.254 0 0116 65.746V6.254A2.254 2.254 0 0118.254 4z"/><path fill="none" stroke="#00A5FF" stroke-miterlimit="10" stroke-width=".1" d="M68 18.254v35.492A2.254 2.254 0 0165.746 56H6.254A2.254 2.254 0 014 53.746V18.254A2.254 2.254 0 016.254 16h59.492A2.254 2.254 0 0168 18.254z"/><circle cx="36" cy="36" r="29" fill="none" stroke="#00A5FF" stroke-miterlimit="10" stroke-width=".1"/><g stroke-linecap="round" stroke-miterlimit="10" stroke-width="6" stroke="#fff" fill="none" stroke-linejoin="round"><path d="M39.822 32.522L43.83 10.88c1.81-7.75-5.693-10.015-7.615-1.778l-3.658 19.236c-.795 3.58-1.886 5.141-3.273 5.765h0c-2.38 1.071-4.57-2.407-5.593-4.808l-5.293-12.413c-3.236-7.028-9.742-3.731-7.138 2.743l7.279 16.519-1.289-2.968-3.163-7.294c-2.781-5.864-8.75-3.52-6.812 2.292 0 0 4.333 10.662 5.604 14.281 1.656 4.719 3.35 14.822 5.936 19.102 5.627 9.315 20.609 8.11 27.866 0 2.04-2.28 5.637-7.247 7.645-9.555 2.788-3.208 10.085-11.535 10.085-11.535 1.463-2.158.328-5.494-.8-4.673l-14.69 5.39c-1.009.34-1.667-.46-2.09-1.095-.31-.464.088-2.054.206-2.771l4.199-23.441c1.195-5.953-6.118-8.14-7.575-2.013"/><path d="M39.822 32.522L43.83 10.88c1.81-7.75-5.693-10.015-7.615-1.778l-3.658 19.236c-.795 3.58-1.886 5.141-3.273 5.765h0c-2.38 1.071-4.57-2.407-5.593-4.808l-5.293-12.413c-3.236-7.028-9.742-3.731-7.138 2.743l7.279 16.519-1.289-2.968-3.163-7.294c-2.781-5.864-8.75-3.52-6.812 2.292 0 0 4.333 10.662 5.604 14.281 1.656 4.719 3.35 14.822 5.936 19.102 5.627 9.315 20.609 8.11 27.866 0 2.04-2.28 5.637-7.247 7.645-9.555 2.788-3.208 10.085-11.535 10.085-11.535 1.463-2.158.328-5.494-.8-4.673l-14.69 5.39c-1.009.34-1.667-.46-2.09-1.095-.31-.464.088-2.054.206-2.771l4.199-23.441c1.195-5.953-6.118-8.14-7.575-2.013"/></g><path fill="#FCEA2B" d="M39.822 32.522L43.83 10.88c1.81-7.75-5.693-10.015-7.615-1.778l-3.658 19.236c-.795 3.58-1.886 5.141-3.273 5.765-2.38 1.071-4.57-2.407-5.593-4.808l-5.293-12.413c-3.236-7.028-9.742-3.731-7.138 2.743l7.279 16.519-1.289-2.968-3.163-7.294c-2.781-5.864-8.75-3.52-6.812 2.292 0 0 4.333 10.662 5.604 14.281 1.656 4.719 3.35 14.822 5.936 19.102 5.627 9.315 20.609 8.11 27.866 0 2.04-2.28 5.637-7.247 7.645-9.555 2.788-3.208 10.085-11.535 10.085-11.535 1.463-2.158.328-5.494-.8-4.673l-14.69 5.39c-1.009.34-1.667-.46-2.09-1.095-.31-.464.088-2.054.206-2.771l4.199-23.441c1.195-5.953-6.118-8.14-7.575-2.013"/><g fill="none" stroke="#000" stroke-linecap="round" stroke-linejoin="round" stroke-width="2"><path d="M39.822 32.522L43.83 10.88c1.81-7.75-5.693-10.015-7.615-1.778l-3.658 19.236c-.795 3.58-1.886 5.141-3.273 5.765h0c-2.38 1.071-4.57-2.407-5.593-4.808l-5.293-12.413c-3.236-7.028-9.742-3.731-7.138 2.743l7.279 16.519-1.289-2.968-3.163-7.294c-2.781-5.864-8.75-3.52-6.812 2.292 0 0 4.333 10.662 5.604 14.281 1.656 4.719 3.35 14.822 5.936 19.102 5.627 9.315 20.609 8.11 27.866 0 2.04-2.28 5.637-7.247 7.645-9.555 2.788-3.208 10.085-11.535 10.085-11.535 1.463-2.158.328-5.494-.8-4.673l-14.69 5.39c-1.009.34-1.667-.46-2.09-1.095-.31-.464.088-2.054.206-2.771l4.199-23.441c1.195-5.953-6.118-8.14-7.575-2.013"/><path d="M39.822 32.522L43.83 10.88c1.81-7.75-5.693-10.015-7.615-1.778l-3.658 19.236c-.795 3.58-1.886 5.141-3.273 5.765h0c-2.38 1.071-4.57-2.407-5.593-4.808l-5.293-12.413c-3.236-7.028-9.742-3.731-7.138 2.743l7.279 16.519-1.289-2.968-3.163-7.294c-2.781-5.864-8.75-3.52-6.812 2.292 0 0 4.333 10.662 5.604 14.281 1.656 4.719 3.35 14.822 5.936 19.102 5.627 9.315 20.609 8.11 27.866 0 2.04-2.28 5.637-7.247 7.645-9.555 2.788-3.208 10.085-11.535 10.085-11.535 1.463-2.158.328-5.494-.8-4.673l-14.69 5.39c-1.009.34-1.667-.46-2.09-1.095-.31-.464.088-2.054.206-2.771l4.199-23.441c1.195-5.953-6.118-8.14-7.575-2.013"/></g></svg>