<svg viewBox="0 0 72 72" xmlns="http://www.w3.org/2000/svg"><path fill="#b3b3b3" d="M68 4v64H4V4h64m4-4H0v72h72V0z"/><path fill="none" stroke="#00a5ff" stroke-miterlimit="10" stroke-width=".1" d="M12.923 10.958h46.154A1.923 1.923 0 0161 12.881v46.154a1.923 1.923 0 01-1.923 1.923H12.923A1.923 1.923 0 0111 59.035V12.881a1.923 1.923 0 011.923-1.923z"/><rect x="16" y="4" rx="2.254" width="40" height="64" fill="none" stroke="#00a5ff" stroke-miterlimit="10" stroke-width=".1"/><rect x="16" y="4" rx="2.254" width="40" height="64" transform="rotate(90 36 36)" fill="none" stroke="#00a5ff" stroke-miterlimit="10" stroke-width=".1"/><circle cx="36" cy="36" r="29" fill="none" stroke="#00a5ff" stroke-miterlimit="10" stroke-width=".1"/><path d="M41.766 13.738a3.531 3.531 0 117-.095l.256 18.998-.004.951-.193-9.625a3.531 3.531 0 116.999-.095l.176 13-.053 10.084c-.424 8.31-7.752 13.63-16.06 13.205a19.617 19.617 0 01-12.727-5.657c-2.918-3.09-10.086-11.535-10.086-11.535-1.463-2.158-.328-5.494.8-4.673l9.876 4.651.04-5.4-.04 5.4.04-5.4-.04-21.85a3.531 3.531 0 116.999-.095l.095 7 .186 10.636-.367-22.192a3.531 3.531 0 116.999-.095l.176 20.454" stroke-linecap="round" stroke-miterlimit="10" stroke-width="6" stroke="#fff" fill="none" stroke-linejoin="round"/><path fill="#fcea2b" d="M41.766 13.738a3.531 3.531 0 117-.095l.256 18.998-.021 4.325-.176-12.999a3.531 3.531 0 116.999-.095l.176 13-.053 10.084c-.424 8.31-7.752 13.63-16.06 13.205a19.617 19.617 0 01-12.727-5.657c-2.918-3.09-10.086-11.535-10.086-11.535-1.463-2.158-.328-5.494.8-4.673l9.876 4.651.04-5.4-.04 5.4.04-5.4-.04-21.85a3.531 3.531 0 116.999-.095l.095 7 .186 10.636-.367-22.192a3.531 3.531 0 116.999-.095l.206 24.016"/><path fill="none" stroke="#000" stroke-linecap="round" stroke-linejoin="round" stroke-width="2" d="M41.766 13.738a3.531 3.531 0 117-.095l.256 18.998-.004.951-.193-9.625a3.531 3.531 0 116.999-.095l.176 13-.053 10.084c-.424 8.31-7.752 13.63-16.06 13.205a19.617 19.617 0 01-12.727-5.657c-2.918-3.09-10.086-11.535-10.086-11.535-1.463-2.158-.328-5.494.8-4.673l9.876 4.651.04-5.4-.04 5.4.04-5.4-.04-21.85a3.531 3.531 0 116.999-.095l.095 7 .186 10.636-.367-22.192a3.531 3.531 0 116.999-.095l.176 20.454"/></svg>