<svg viewBox="0 0 72 72" xmlns="http://www.w3.org/2000/svg"><path fill="#b3b3b3" d="M68 4v64H4V4h64m4-4H0v72h72V0z"/><path fill="none" stroke="#00a5ff" stroke-miterlimit="10" stroke-width=".1" d="M12.923 10.958h46.154A1.923 1.923 0 0161 12.881v46.154a1.923 1.923 0 01-1.923 1.923H12.923A1.923 1.923 0 0111 59.035V12.881a1.923 1.923 0 011.923-1.923z"/><rect x="16" y="4" rx="2.254" width="40" height="64" fill="none" stroke="#00a5ff" stroke-miterlimit="10" stroke-width=".1"/><rect x="16" y="4" rx="2.254" width="40" height="64" transform="rotate(90 36 36)" fill="none" stroke="#00a5ff" stroke-miterlimit="10" stroke-width=".1"/><circle cx="36" cy="36" r="29" fill="none" stroke="#00a5ff" stroke-miterlimit="10" stroke-width=".1"/><g stroke-linecap="round" stroke-miterlimit="10" stroke-width="6" stroke="#fff" fill="none" stroke-linejoin="round"><circle cx="36" cy="44.975" r="23"/><circle cx="36" cy="44.975" r="23"/><path d="M29 19v-2.979M43 19v-2.979m-14 0h14M25.99 13.01l-9.022-9.022M31.99 12.01l-8.007-8.006M34 8l3.921-3.983M46 13l8.999-8.978m-38.031-.034h7.015m13.938.029h17.078M30.36 37.392L37.556 32v26"/></g><path fill="#fcea2b" d="M28.057 22.427V17h15.858v5.427"/><path fill="#92d3f5" stroke="#92d3f5" stroke-linecap="round" stroke-linejoin="round" stroke-miterlimit="10" stroke-width="1.8" d="M54.999 4.022L43 16.021h-7l-5.042-5.042 6.963-6.962h17.078"/><path fill="#ea5a47" stroke="#ea5a47" stroke-linecap="round" stroke-linejoin="round" stroke-miterlimit="10" stroke-width="1.8" d="M23.983 4.004L36 16.02h-7L16.968 3.988h7.015"/><circle cx="36" cy="44.975" r="23" fill="#fcea2b"/><g fill="none" stroke="#000" stroke-miterlimit="10" stroke-width="2"><circle cx="36" cy="44.975" r="23"/><circle cx="36" cy="44.975" r="23" stroke-linecap="round" stroke-linejoin="round"/><path stroke-linecap="round" stroke-linejoin="round" d="M29 19v-2.979M43 19v-2.979m-14 0h14M25.99 13.01l-9.022-9.022M31.99 12.01l-8.007-8.006M34 8l3.921-3.983M46 13l8.999-8.978m-38.031-.034h7.015m13.938.029h17.078M30.36 37.392L37.556 32v26"/></g></svg>