<svg viewBox="0 0 72 72" xmlns="http://www.w3.org/2000/svg"><path fill="#B3B3B3" d="M68 4v64H4V4h64m4-4H0v72h72V0z"/><path fill="none" stroke="#00A5FF" stroke-miterlimit="10" stroke-width=".1" d="M12.923 10.958h46.154c1.062 0 1.923.861 1.923 1.923v46.154a1.923 1.923 0 01-1.923 1.923H12.923A1.923 1.923 0 0111 59.035h0V12.881c0-1.062.861-1.923 1.923-1.923h0z"/><path fill="none" stroke="#00A5FF" stroke-miterlimit="10" stroke-width=".1" d="M18.254 4h35.492A2.254 2.254 0 0156 6.254v59.492A2.254 2.254 0 0153.746 68H18.254A2.254 2.254 0 0116 65.746V6.254A2.254 2.254 0 0118.254 4z"/><path fill="none" stroke="#00A5FF" stroke-miterlimit="10" stroke-width=".1" d="M68 18.254v35.492A2.254 2.254 0 0165.746 56H6.254A2.254 2.254 0 014 53.746V18.254A2.254 2.254 0 016.254 16h59.492A2.254 2.254 0 0168 18.254z"/><circle cx="36" cy="36" r="29" fill="none" stroke="#00A5FF" stroke-miterlimit="10" stroke-width=".1"/><g stroke-linecap="round" stroke-miterlimit="10" stroke-width="6" stroke="#fff" fill="none" stroke-linejoin="round"><path d="M63.146 11.55V5.873c0-.482.324-.873.724-.873h2.26c.4 0 .724.391.724.873v5.677h-3.708zm-9.423 4.804h10.654m-12.842 4.093h12.842M32 29.36s8.883 5.805 12.022 18.874m9.701-31.88h10.654m-12.842 4.093h12.842M67 25.625H32.962c-.531 0-.962.391-.962.873v2.4h35"/><path d="M66 25.625H45.742l7.151-13.566c.128-.31.406-.509.712-.509H67m-13.277 4.804h10.654m-12.842 4.093h12.842m-10.654-4.093h10.654m-12.842 4.093h12.842M5 47c3 0 9 3 15 3s10-3 16-3 11 3 16 3 7-3 15-3"/></g><path fill="#EA5A47" d="M68 26.087H32.962c-.531 0-.962.391-.962.873v2.4h36v-3.273z"/><path fill="#FFF" d="M68 25.087H46.742l6.151-13.028c.128-.31.406-.509.712-.509H68"/><path fill="#3F3F3F" d="M32 29.36s13.404 6.799 15.672 22.248c.064.434.469.767.952.767H68V29.361M63.146 11.55V5.873c0-.482.324-.873.724-.873h2.26c.4 0 .724.391.724.873v5.677h-3.708z"/><path fill="#3F3F3F" d="M32 29.36s10.404 6.799 12.672 22.248c.064.434.469.767.952.767H67"/><path fill="#EA5A47" d="M67 25.625H32.962c-.531 0-.962.391-.962.873v2.4h35"/><path fill="none" d="M67 26.087H45.742l7.151-14.028c.128-.31.406-.509.712-.509H68M4 68V48.235m65 0L68 68"/><path fill="#92D3F5" d="M68 47v21H4V47h1c3 0 9 3 15 3s10-3 16-3 11 3 16 3 7-3 15-3h1z"/><g fill="none" stroke="#000" stroke-linecap="round" stroke-linejoin="round" stroke-miterlimit="10" stroke-width="2"><path d="M63.146 11.55V5.873c0-.482.324-.873.724-.873h2.26c.4 0 .724.391.724.873v5.677h-3.708zm-9.423 4.804h10.654m-12.842 4.093h12.842M32 29.36s8.883 5.805 12.022 18.874m9.701-31.88h10.654m-12.842 4.093h12.842M67 25.625H32.962c-.531 0-.962.391-.962.873v2.4h35"/><path d="M66 25.625H45.742l7.151-13.566c.128-.31.406-.509.712-.509H67m-13.277 4.804h10.654m-12.842 4.093h12.842m-10.654-4.093h10.654m-12.842 4.093h12.842M5 47c3 0 9 3 15 3s10-3 16-3 11 3 16 3 7-3 15-3"/></g></svg>