<svg viewBox="0 0 72 72" xmlns="http://www.w3.org/2000/svg"><path fill="#b3b3b3" d="M68 4v64H4V4h64m4-4H0v72h72V0z"/><path fill="none" stroke="#00a5ff" stroke-miterlimit="10" stroke-width=".1" d="M12.923 10.958h46.154A1.923 1.923 0 0161 12.881v46.154a1.923 1.923 0 01-1.923 1.923H12.923A1.923 1.923 0 0111 59.035V12.881a1.923 1.923 0 011.923-1.923z"/><rect x="16" y="4" rx="2.254" width="40" height="64" fill="none" stroke="#00a5ff" stroke-miterlimit="10" stroke-width=".1"/><rect x="16" y="4" rx="2.254" width="40" height="64" transform="rotate(90 36 36)" fill="none" stroke="#00a5ff" stroke-miterlimit="10" stroke-width=".1"/><circle cx="36" cy="36" r="29" fill="none" stroke="#00a5ff" stroke-miterlimit="10" stroke-width=".1"/><path d="M40.35 20.537l.134-2.232m.599 4.964l-11.5 19.918.732 2.732-5.5 9.527-5.197-3 5.5-9.527 1.366-.366m14-24.248l3.465 2M35.45 39.148h19.612c9.532 0 11.438-14.296 11.438-14.296s-3.229 2.409-24.414 2.803m-8.228.049C9.113 27.555 5.5 24.852 5.5 24.852s1.906 14.296 11.438 14.296H27.25" stroke-linecap="round" stroke-miterlimit="10" stroke-width="6" stroke="#fff" fill="none" stroke-linejoin="round"/><path fill="#61b2e4" stroke="#61b2e4" stroke-linecap="round" stroke-linejoin="round" stroke-width="2" d="M66.5 24.852s-1.906 14.296-11.438 14.296H16.938C7.405 39.148 5.5 24.852 5.5 24.852S9.313 27.71 36 27.71s30.5-2.86 30.5-2.86z"/><path fill="#a57939" d="M40.484 18.304l4.331 2.5-2.732.733-12.5 21.65.732 2.732-5.5 9.527-5.197-3 5.5-9.527 2.732-.732 12.5-21.65.134-2.233"/><g><path d="M40.35 20.537l.134-2.232m.599 4.964l-11.5 19.918.732 2.732-5.5 9.527-5.197-3 5.5-9.527 1.366-.366m14-24.248l3.465 2M35.45 39.148h19.612c9.532 0 11.438-14.296 11.438-14.296s-3.229 2.409-24.414 2.803m-8.228.049C9.113 27.555 5.5 24.852 5.5 24.852s1.906 14.296 11.438 14.296H27.25" fill="none" stroke="#000" stroke-linecap="round" stroke-linejoin="round" stroke-width="2"/></g></svg>