<svg viewBox="0 0 72 72" xmlns="http://www.w3.org/2000/svg"><path fill="#b3b3b3" d="M68 4v64H4V4h64m4-4H0v72h72V0z"/><path fill="none" stroke="#00a5ff" stroke-miterlimit="10" stroke-width=".1" d="M12.923 10.958h46.154A1.923 1.923 0 0161 12.881v46.154a1.923 1.923 0 01-1.923 1.923H12.923A1.923 1.923 0 0111 59.035V12.881a1.923 1.923 0 011.923-1.923z"/><rect x="16" y="4" rx="2.254" width="40" height="64" fill="none" stroke="#00a5ff" stroke-miterlimit="10" stroke-width=".1"/><rect x="16" y="4" rx="2.254" width="40" height="64" transform="rotate(90 36 36)" fill="none" stroke="#00a5ff" stroke-miterlimit="10" stroke-width=".1"/><circle cx="36" cy="36" r="29" fill="none" stroke="#00a5ff" stroke-miterlimit="10" stroke-width=".1"/><path d="M54.215 34.11l-5.27 9.12h3.17a16.95 16.95 0 01-13.58 10.07V29.42h4a2 2 0 001.975-2.325c-.154-.987-1.077-1.676-2.077-1.676h-3.898v-2.41a5.025 5.025 0 002.923-5.48c-.342-1.968-1.895-3.59-3.85-3.998a5.007 5.007 0 00-6.073 4.888c0 2.05 1.24 3.81 3 4.59v2.41h-3.898c-1 0-1.923.689-2.077 1.676a2 2 0 001.975 2.324h4V53.3c-5.93-.71-11.17-4.56-13.58-10.07h3.1l-5.27-9.12-5.27 9.12h3.28c0 .24.054.466.13.71 2.672 8.608 16.563 15.169 19.099 16.304a.97.97 0 00.796.004c2.578-1.13 16.863-7.754 19.585-17.018h3.08l-5.27-9.12zm-17.68-16.69c.55 0 1 .45 1 1s-.45 1-1 1-1-.45-1-1 .45-1 1-1z" stroke-linecap="round" stroke-miterlimit="10" stroke-width="6" stroke="#fff" fill="none" stroke-linejoin="round"/><path fill="#d0cfce" d="M54.215 34.11l-5.27 9.12h3.17a16.95 16.95 0 01-13.58 10.07V29.42h4a2 2 0 001.975-2.325c-.154-.987-1.077-1.676-2.077-1.676h-3.898v-2.41a5.025 5.025 0 002.923-5.48c-.342-1.968-1.895-3.59-3.85-3.998a5.007 5.007 0 00-6.073 4.888c0 2.05 1.24 3.81 3 4.59v2.41h-3.898c-1 0-1.923.689-2.077 1.676a2 2 0 001.975 2.324h4V53.3c-5.93-.71-11.17-4.56-13.58-10.07h3.1l-5.27-9.12-5.27 9.12h3.28c0 .24.054.466.13.71 2.672 8.608 16.563 15.169 19.099 16.304a.97.97 0 00.796.004c2.578-1.13 16.863-7.754 19.585-17.018h3.08l-5.27-9.12zm-17.68-16.69c.55 0 1 .45 1 1s-.45 1-1 1-1-.45-1-1 .45-1 1-1z"/><path fill="none" stroke="#000" stroke-linecap="round" stroke-linejoin="round" stroke-miterlimit="10" stroke-width="2" d="M54.215 34.11l-5.27 9.12h3.17a16.95 16.95 0 01-13.58 10.07V29.42h4a2 2 0 001.975-2.325c-.154-.987-1.077-1.676-2.077-1.676h-3.898v-2.41a5.025 5.025 0 002.923-5.48c-.342-1.968-1.895-3.59-3.85-3.998a5.007 5.007 0 00-6.073 4.888c0 2.05 1.24 3.81 3 4.59v2.41h-3.898c-1 0-1.923.689-2.077 1.676a2 2 0 001.975 2.324h4V53.3c-5.93-.71-11.17-4.56-13.58-10.07h3.1l-5.27-9.12-5.27 9.12h3.28c0 .24.054.466.13.71 2.672 8.608 16.563 15.169 19.099 16.304a.97.97 0 00.796.004c2.578-1.13 16.863-7.754 19.585-17.018h3.08l-5.27-9.12zm-17.68-16.69c.55 0 1 .45 1 1s-.45 1-1 1-1-.45-1-1 .45-1 1-1z"/></svg>