<svg viewBox="0 0 72 72" xmlns="http://www.w3.org/2000/svg"><path fill="#b3b3b3" d="M68 4v64H4V4h64m4-4H0v72h72V0z"/><path fill="none" stroke="#00a5ff" stroke-miterlimit="10" stroke-width=".1" d="M12.923 10.958h46.154A1.923 1.923 0 0161 12.881v46.154a1.923 1.923 0 01-1.923 1.923H12.923A1.923 1.923 0 0111 59.035V12.881a1.923 1.923 0 011.923-1.923z"/><rect x="16" y="4" rx="2.254" width="40" height="64" fill="none" stroke="#00a5ff" stroke-miterlimit="10" stroke-width=".1"/><rect x="16" y="4" rx="2.254" width="40" height="64" transform="rotate(90 36 36)" fill="none" stroke="#00a5ff" stroke-miterlimit="10" stroke-width=".1"/><circle cx="36" cy="36" r="29" fill="none" stroke="#00a5ff" stroke-miterlimit="10" stroke-width=".1"/><g stroke-linecap="round" stroke-miterlimit="10" stroke-width="6" stroke="#fff" fill="none" stroke-linejoin="round"><path d="M18 9h36v54H18z"/><ellipse cx="49" cy="36.509" rx="2.5" ry="2.038"/><path d="M49.5 41.604h-1a1 1 0 01-1-1v-6.151a1 1 0 011-1h1a1 1 0 011 1v6.15a1 1 0 01-1 1zM24 14.094h24v16.302H24zm0 31.585h24v11.207H24z"/></g><path fill="#A57939" d="M18 9h36v54H18z"/><path fill="#6A462F" d="M24 14.094h24v16.302H24zm0 31.585h24v11.207H24z"/><path fill="none" stroke="#000" stroke-linejoin="round" stroke-miterlimit="10" stroke-width="2" d="M18 9h36v54H18z"/><ellipse cx="49" cy="36.509" rx="2.5" ry="2.038"/><path d="M49.5 41.604h-1a1 1 0 01-1-1v-6.151a1 1 0 011-1h1a1 1 0 011 1v6.15a1 1 0 01-1 1z"/><path fill="none" stroke="#000" stroke-linejoin="round" stroke-miterlimit="10" stroke-width="2" d="M24 14.094h24v16.302H24zm0 31.585h24v11.207H24z"/></svg>