<svg viewBox="0 0 72 72" xmlns="http://www.w3.org/2000/svg"><path fill="#b3b3b3" d="M68 4v64H4V4h64m4-4H0v72h72V0z"/><path fill="none" stroke="#00a5ff" stroke-miterlimit="10" stroke-width=".1" d="M12.923 10.958h46.154A1.923 1.923 0 0161 12.881v46.154a1.923 1.923 0 01-1.923 1.923H12.923A1.923 1.923 0 0111 59.035V12.881a1.923 1.923 0 011.923-1.923z"/><rect x="16" y="4" rx="2.254" width="40" height="64" fill="none" stroke="#00a5ff" stroke-miterlimit="10" stroke-width=".1"/><rect x="16" y="4" rx="2.254" width="40" height="64" transform="rotate(90 36 36)" fill="none" stroke="#00a5ff" stroke-miterlimit="10" stroke-width=".1"/><circle cx="36" cy="36" r="29" fill="none" stroke="#00a5ff" stroke-miterlimit="10" stroke-width=".1"/><g stroke-linecap="round" stroke-miterlimit="10" stroke-width="6" stroke="#fff" fill="none" stroke-linejoin="round"><path d="M51.903 18.602v23.755H15.015L11.35 18.602zm0 0l3.603-7.523h5.145M14.035 51.861h37.871"/><circle cx="50.142" cy="58.463" r="2.375"/><circle cx="14.035" cy="58.463" r="2.375"/><path d="M51.903 42.357s4.842.355 4.842 4.787c0 5.122-4.583 4.712-4.583 4.712m-6.498-28.212v.79m0 12.319v.79m-5.376-13.899v.79m0 12.319v.79m-5.376-13.899v.79m0 12.319v.79m-5.375-13.899v.79m0 12.319v.79m-5.376-13.899v.79m0 12.319v.79m-5.376-13.899v.79m0 12.319v.79m26.879-7.544v.79m-5.376-.79v.79m-5.376-.79v.79m-5.375-.79v.79m-5.376-.79v.79m-5.376-.79v.79"/></g><path fill="#D0CFCE" d="M51.903 18.602v23.755H15.015L11.35 18.602z"/><circle cx="50.142" cy="58.463" r="2.375" fill="#D0CFCE"/><circle cx="14.035" cy="58.463" r="2.375" fill="#D0CFCE"/><path fill="#9B9B9A" d="M45.664 23.644v.79m0 12.319v.79m-5.376-13.899v.79m0 12.319v.79m-5.376-13.899v.79m0 12.319v.79m-5.375-13.899v.79m0 12.319v.79m-5.376-13.899v.79m0 12.319v.79m-5.376-13.899v.79m0 12.319v.79m26.879-7.544v.79m-5.376-.79v.79m-5.376-.79v.79m-5.375-.79v.79m-5.376-.79v.79m-5.376-.79v.79"/><g fill="none" stroke="#000" stroke-linecap="round" stroke-linejoin="round" stroke-miterlimit="10" stroke-width="2"><path d="M51.903 18.602v23.755H15.015L11.35 18.602zm0 0l3.603-7.523h5.145M14.035 51.861h37.871"/><circle cx="50.142" cy="58.463" r="2.375"/><circle cx="14.035" cy="58.463" r="2.375"/><path d="M51.903 42.357s4.842.355 4.842 4.787c0 5.122-4.583 4.712-4.583 4.712m-6.498-28.212v.79m0 12.319v.79m-5.376-13.899v.79m0 12.319v.79m-5.376-13.899v.79m0 12.319v.79m-5.375-13.899v.79m0 12.319v.79m-5.376-13.899v.79m0 12.319v.79m-5.376-13.899v.79m0 12.319v.79m26.879-7.544v.79m-5.376-.79v.79m-5.376-.79v.79m-5.375-.79v.79m-5.376-.79v.79m-5.376-.79v.79"/></g></svg>