<svg viewBox="0 0 72 72" xmlns="http://www.w3.org/2000/svg"><path fill="#b3b3b3" d="M68 4v64H4V4h64m4-4H0v72h72V0z"/><path fill="none" stroke="#00a5ff" stroke-miterlimit="10" stroke-width=".1" d="M12.923 10.958h46.154A1.923 1.923 0 0161 12.881v46.154a1.923 1.923 0 01-1.923 1.923H12.923A1.923 1.923 0 0111 59.035V12.881a1.923 1.923 0 011.923-1.923z"/><rect x="16" y="4" rx="2.254" ry="2.254" width="40" height="64" fill="none" stroke="#00a5ff" stroke-miterlimit="10" stroke-width=".1"/><rect x="16" y="4" rx="2.254" ry="2.254" width="40" height="64" transform="rotate(90 36 36)" fill="none" stroke="#00a5ff" stroke-miterlimit="10" stroke-width=".1"/><circle cx="36" cy="36" r="29" fill="none" stroke="#00a5ff" stroke-miterlimit="10" stroke-width=".1"/><g stroke-linecap="round" stroke-miterlimit="10" stroke-width="6" stroke="#fff" fill="none" stroke-linejoin="round"><path d="M21.236 27.257a11.392 11.392 0 00-3.903 3.81m14.166-5.392h14.322a11.44 11.44 0 0111.418 11.408v3.664A11.44 11.44 0 0145.82 52.154H27.023a11.44 11.44 0 01-11.418-11.408v-2.31m9.343-2.54h22.948m-22.948 6.039h22.948"/><circle cx="14.779" cy="34.353" r="4.163"/><path d="M23.675 21.87a5.135 5.135 0 00-.49.364 4.108 4.108 0 00-.178-.498 4.163 4.163 0 10-1.98 5.545c.067-.031.122-.077.186-.111a5.199 5.199 0 102.462-5.3z"/></g><rect x="15.605" y="25.672" rx="10.965" ry="10.965" width="41.633" height="26.487" fill="#ffa7c0"/><path fill="#61b2e4" d="M18.943 34.353a4.162 4.162 0 01-4.164 4.163 3.91 3.91 0 01-1.561-.312 4.15 4.15 0 010-7.702 3.909 3.909 0 011.561-.313 4.162 4.162 0 014.164 4.164z"/><ellipse cx="14.259" cy="34.353" rx="2.602" ry="3.851" fill="#92d3f5"/><ellipse cx="19.675" cy="23.708" rx="3.802" ry="4.684" transform="rotate(-25.363 19.675 23.708)" fill="#92d3f5"/><path fill="#61b2e4" d="M31.644 23.279a5.206 5.206 0 01-1.803 7.135 5.552 5.552 0 01-1.458.603 5.219 5.219 0 01-5.098-8.545 5.551 5.551 0 011.224-.997 5.206 5.206 0 017.135 1.804z"/><ellipse cx="25.853" cy="26.851" rx="3.691" ry="5.154" transform="rotate(-50.384 25.853 26.851)" fill="#92d3f5"/><g fill="none" stroke="#000" stroke-width="2"><path stroke-miterlimit="10" d="M21.236 27.257a11.392 11.392 0 00-3.903 3.81m14.166-5.392h14.322a11.44 11.44 0 0111.418 11.408v3.664A11.44 11.44 0 0145.82 52.154H27.023a11.44 11.44 0 01-11.418-11.408v-2.31"/><path stroke-linecap="round" stroke-linejoin="round" d="M24.948 35.896h22.948m-22.948 6.039h22.948"/><circle cx="14.779" cy="34.353" r="4.163" stroke-miterlimit="10"/><path stroke-linecap="round" stroke-linejoin="round" d="M23.675 21.87a5.135 5.135 0 00-.49.364 4.108 4.108 0 00-.178-.498 4.163 4.163 0 10-1.98 5.545c.067-.031.122-.077.186-.111a5.199 5.199 0 102.462-5.3z"/></g></svg>