<svg viewBox="0 0 72 72" xmlns="http://www.w3.org/2000/svg"><path fill="#b3b3b3" d="M68 4v64H4V4h64m4-4H0v72h72V0z"/><path fill="none" stroke="#00a5ff" stroke-miterlimit="10" stroke-width=".1" d="M12.923 10.958h46.154A1.923 1.923 0 0161 12.881v46.154a1.923 1.923 0 01-1.923 1.923H12.923A1.923 1.923 0 0111 59.035V12.881a1.923 1.923 0 011.923-1.923z"/><rect x="16" y="4" rx="2.254" ry="2.254" width="40" height="64" fill="none" stroke="#00a5ff" stroke-miterlimit="10" stroke-width=".1"/><rect x="16" y="4" rx="2.254" ry="2.254" width="40" height="64" transform="rotate(90 36 36)" fill="none" stroke="#00a5ff" stroke-miterlimit="10" stroke-width=".1"/><circle cx="36" cy="36" r="29" fill="none" stroke="#00a5ff" stroke-miterlimit="10" stroke-width=".1"/><g stroke-linecap="round" stroke-miterlimit="10" stroke-width="6" stroke="#fff" fill="none" stroke-linejoin="round"><path d="M36 35.129l-18.787-.045L22.09 58.34h27.82l4.877-23.256L36 35.129zm-4.325-2.832l-9.19-14.737c-1.116-1.79-.83-3.983.638-4.898h0c1.468-.916 3.563-.207 4.68 1.582l11.133 18.053zm7.501 5.495l8.713 9.578m-18.974-9.72l15.82 17.614m-20.89-13.762L36.383 55.7m-11.1-1.601l1.384 1.378m-2.103-9.012l8.011-8.673m-5.699 17.56l16.518-17.56M36.383 55.7l12.062-12.484m-3.71 12.048l2.161-1.822"/><circle cx="33.874" cy="29.837" r=".886"/><path d="M36.383 27.427h20.974v7.665H14.643v-7.665h13.206"/></g><g fill="#a57939"><path d="M36 35.129l-18.787-.045L22.09 58.34h27.82l4.877-23.256L36 35.129z"/><path d="M15.092 27.478v7.672h41.516l.749-7.672H15.092z"/><path d="M31.675 32.297l-9.19-14.737c-1.116-1.79-.83-3.983.638-4.898 1.468-.916 3.563-.207 4.68 1.582l11.133 18.053z"/></g><path fill="none" stroke="#000" stroke-linecap="round" stroke-linejoin="round" stroke-width="2" d="M36 35.129l-18.787-.045L22.09 58.34h27.82l4.877-23.256L36 35.129zm-4.325-2.832l-9.19-14.737c-1.116-1.79-.83-3.983.638-4.898h0c1.468-.916 3.563-.207 4.68 1.582l11.133 18.053zM39.176 37.792l8.713 9.578m-18.974-9.72l15.82 17.614m-20.89-13.762L36.383 55.7m-11.1-1.601l1.384 1.378m-2.103-9.012l8.011-8.673m-5.699 17.56l16.518-17.56M36.383 55.7l12.062-12.484m-3.71 12.048l2.161-1.822"/><circle cx="33.874" cy="29.837" r=".886"/><path fill="none" stroke="#000" stroke-linecap="round" stroke-linejoin="round" stroke-width="2" d="M36.383 27.427h20.974v7.665H14.643v-7.665h13.206"/></svg>