<svg viewBox="0 0 72 72" xmlns="http://www.w3.org/2000/svg"><path fill="#b3b3b3" d="M68 4v64H4V4h64m4-4H0v72h72V0z"/><path fill="none" stroke="#00a5ff" stroke-miterlimit="10" stroke-width=".1" d="M12.923 10.958h46.154A1.923 1.923 0 0161 12.881v46.154a1.923 1.923 0 01-1.923 1.923H12.923A1.923 1.923 0 0111 59.035V12.881a1.923 1.923 0 011.923-1.923z"/><rect x="16" y="4" rx="2.254" ry="2.254" width="40" height="64" fill="none" stroke="#00a5ff" stroke-miterlimit="10" stroke-width=".1"/><rect x="16" y="4" rx="2.254" ry="2.254" width="40" height="64" transform="rotate(90 36 36)" fill="none" stroke="#00a5ff" stroke-miterlimit="10" stroke-width=".1"/><circle cx="36" cy="36" r="29" fill="none" stroke="#00a5ff" stroke-miterlimit="10" stroke-width=".1"/><path d="M17.76 8.273a.464.464 0 00-.153.524c4 11.06 9.848 30.864 4.893 48.703l-1.72 6.877a.903.903 0 00.877 1.123h1.16a1.032 1.032 0 00.953-.625c1.244-2.904 5.385-15.143 5.713-19.924a.474.474 0 01.47-.451H48.09a.472.472 0 01.468.406l1.816 19.714a1.025 1.025 0 001.015.88h1.176a.935.935 0 00.935-.935v-19.95a.493.493 0 01.05-.213c.22-.46 1.032-2.573-.05-6.902-1-4-1.75-4.03-3-4-4.734.113-17.986.834-20.563.976a.465.465 0 01-.487-.418c-.367-3.161-2.708-22.316-5.95-25.558a4.04 4.04 0 00-5.74-.227zM30 44.5h-5.5m29.5 0h-7" stroke-linecap="round" stroke-miterlimit="10" stroke-width="6" stroke="#fff" fill="none" stroke-linejoin="round"/><path fill="#a57939" d="M17.5 8.5c4 11 10 31 5 49l-2 8h2s7-16 7-21h19l3 21h2v-21s1.237-2.053 0-7c-1-4-1.75-4.03-3-4-5.255.125-21 1-21 1s-2.465-22.465-6-26c-3-3-6 0-6 0z"/><path fill="#fcea2b" d="M24.587 44H54s.534-1.07-1-7.206c-1-4-.144-3.53-8.572-3.265S29.5 34.5 29.5 34.5s-1.855-15.283-4.564-23.028C24.366 9.842 21.842 5.402 18 8a2.456 2.456 0 000 1c5.866 16.822 6.587 35 6.587 35z"/><path fill="#f1b31c" d="M44.587 44H54c.231-3.732-.22-7.161-2-10l-7.572-.47S49 42 44.587 44z"/><g fill="none" stroke="#000" stroke-width="2"><path stroke-linecap="round" stroke-linejoin="round" d="M17.76 8.273a.464.464 0 00-.153.524c4 11.06 9.848 30.864 4.893 48.703l-1.72 6.877a.903.903 0 00.877 1.123h1.16a1.032 1.032 0 00.953-.625c1.244-2.904 5.385-15.143 5.713-19.924a.474.474 0 01.47-.451H48.09a.472.472 0 01.468.406l1.816 19.714a1.025 1.025 0 001.015.88h1.176a.935.935 0 00.935-.935v-19.95a.493.493 0 01.05-.213c.22-.46 1.032-2.573-.05-6.902-1-4-1.75-4.03-3-4-4.734.113-17.986.834-20.563.976a.465.465 0 01-.487-.418c-.367-3.161-2.708-22.316-5.95-25.558a4.04 4.04 0 00-5.74-.227z"/><path stroke-miterlimit="10" d="M30 44.5h-5.5m29.5 0h-7"/></g></svg>