<svg viewBox="0 0 72 72" xmlns="http://www.w3.org/2000/svg"><path fill="#B3B3B3" d="M68 4v64H4V4h64m4-4H0v72h72V0z"/><path fill="none" stroke="#00A5FF" stroke-miterlimit="10" stroke-width=".1" d="M12.923 10.958h46.154c1.062 0 1.923.861 1.923 1.923v46.154a1.923 1.923 0 01-1.923 1.923H12.923A1.923 1.923 0 0111 59.035h0V12.881c0-1.062.861-1.923 1.923-1.923h0z"/><path fill="none" stroke="#00A5FF" stroke-miterlimit="10" stroke-width=".1" d="M18.254 4h35.492A2.254 2.254 0 0156 6.254v59.492A2.254 2.254 0 0153.746 68H18.254A2.254 2.254 0 0116 65.746V6.254A2.254 2.254 0 0118.254 4z"/><path fill="none" stroke="#00A5FF" stroke-miterlimit="10" stroke-width=".1" d="M68 18.254v35.492A2.254 2.254 0 0165.746 56H6.254A2.254 2.254 0 014 53.746V18.254A2.254 2.254 0 016.254 16h59.492A2.254 2.254 0 0168 18.254z"/><circle cx="36" cy="36" r="29" fill="none" stroke="#00A5FF" stroke-miterlimit="10" stroke-width=".1"/><g stroke-linecap="round" stroke-miterlimit="10" stroke-width="6" stroke="#fff" fill="none" stroke-linejoin="round"><path d="M56 38.219v2.5h-2.5"/><path stroke-dasharray="3.9396,3.9396" d="M49.56 40.719H35.772m-4.47-6.44V20.491"/><path d="M31.302 18.52v-2.5h2.5"/><path stroke-dasharray="3.9396,3.9396" d="M37.742 16.021H51.53"/><path d="M53.5 16.02H56v2.5"/><path stroke-dasharray="3.9396,3.9396" d="M56 22.46v13.789"/><path d="M11 36.323h24.698v24.698H11z"/><path d="M35.601 36.42l7.033-7.033V36m0-6.613h-6.571"/></g><path fill="#9B9B9A" d="M11 36.323h24.698v24.698H11z"/><g fill="none" stroke="#000" stroke-linecap="round" stroke-linejoin="round" stroke-width="2"><path d="M56 38.219v2.5h-2.5"/><path stroke-dasharray="3.9396,3.9396" d="M49.56 40.719H35.772m-4.47-6.44V20.491"/><path d="M31.302 18.52v-2.5h2.5"/><path stroke-dasharray="3.9396,3.9396" d="M37.742 16.021H51.53"/><path d="M53.5 16.02H56v2.5"/><path stroke-dasharray="3.9396,3.9396" d="M56 22.46v13.789"/><path stroke-miterlimit="10" d="M11 36.323h24.698v24.698H11z"/><path stroke-miterlimit="10" d="M35.601 36.42l7.033-7.033V36m0-6.613h-6.571"/></g></svg>