<svg viewBox="0 0 72 72" xmlns="http://www.w3.org/2000/svg"><path fill="#b3b3b3" d="M68 4v64H4V4h64m4-4H0v72h72V0z"/><path fill="none" stroke="#00a5ff" stroke-miterlimit="10" stroke-width=".1" d="M12.923 10.958h46.154A1.923 1.923 0 0161 12.881v46.154a1.923 1.923 0 01-1.923 1.923H12.923A1.923 1.923 0 0111 59.035V12.881a1.923 1.923 0 011.923-1.923z"/><rect x="16" y="4" rx="2.254" width="40" height="64" fill="none" stroke="#00a5ff" stroke-miterlimit="10" stroke-width=".1"/><rect x="16" y="4" rx="2.254" width="40" height="64" transform="rotate(90 36 36)" fill="none" stroke="#00a5ff" stroke-miterlimit="10" stroke-width=".1"/><circle cx="36" cy="36" r="29" fill="none" stroke="#00a5ff" stroke-miterlimit="10" stroke-width=".1"/><path d="M40.568 11.595s7.21 0 14.42 4.807m-28.84-4.807s-7.21 0-14.42 4.807M54.624 10l1.307 7.239m-7.239 1.307l7.239-1.307M12.343 10l-1.307 7.239m7.239 1.307l-7.239-1.307M55.02 50.547c0 7.806-6.328 14.135-14.135 14.135S26.75 58.353 26.75 50.547m28.271-.751V39.488m-6.007-.252a3.006 3.006 0 116.008.252m-12.018-.452a3.006 3.006 0 016.008.252m-6.004-.367a3.006 3.006 0 015.993.482m-12.041-.777a3.007 3.007 0 016 .384m-20.564 1.525a3.006 3.006 0 014.325-4.177m4.225-16.95a3.006 3.006 0 116.013 0m0 19.186V19.408m-6.013 0V43.28m-2.543-5.02l-1.682-1.902m-2.806 6.17c1.677 1.842 2.897 4.439 2.835 8.18m-4.354-10.173l1.565 2.045m11.566-28.962a3 3 0 10-4.648.503" stroke-linecap="round" stroke-miterlimit="10" stroke-width="6" stroke="#fff" fill="none" stroke-linejoin="round"/><circle cx="33" cy="12" r="4" fill="#92D3F5"/><circle cx="34" cy="19" r="3" fill="#FCEA2B"/><path fill="#FCEA2B" d="M31 20h6v22h-6zm-3 36l2.068 4.054 5.705 3.732 6.291.906 6.825-2.345 5.066-6.186 1.013-4.852-28.153 1.067.533 2.986z"/><path fill="#FCEA2B" d="M28 49l-4.953-7.75L21 38l2.09-2.04 5.24.758 2.451 2.64.723 3.291-.643 6.745z"/><path fill="#FCEA2B" d="M31.058 36.696v4.176H27V55h28V36.696z"/><g stroke="#000" stroke-linecap="round" stroke-linejoin="round" stroke-miterlimit="10" stroke-width="2"><path d="M40.568 11.595s7.21 0 14.42 4.807m-28.84-4.807s-7.21 0-14.42 4.807"/><path fill="none" d="M54.624 10l1.307 7.239m-7.239 1.307l7.239-1.307M12.343 10l-1.307 7.239m7.239 1.307l-7.239-1.307M55.02 50.547c0 7.806-6.328 14.135-14.135 14.135S26.75 58.353 26.75 50.547m28.271-.751V39.488m-6.007-.252a3.006 3.006 0 116.008.252m-12.018-.452a3.006 3.006 0 016.008.252m-6.004-.367a3.006 3.006 0 015.993.482m-12.041-.777a3.007 3.007 0 016 .384m-20.564 1.525a3.006 3.006 0 014.325-4.177m4.225-16.95a3.006 3.006 0 116.013 0m0 19.186V19.408m-6.013 0V43.28m-2.543-5.02l-1.682-1.902m-2.806 6.17c1.677 1.842 2.897 4.439 2.835 8.18m-4.354-10.173l1.565 2.045m11.566-28.962a3 3 0 10-4.648.503"/></g></svg>