<svg viewBox="0 0 72 72" xmlns="http://www.w3.org/2000/svg"><path fill="#B3B3B3" d="M68 4v64H4V4h64m4-4H0v72h72V0z"/><path fill="none" stroke="#00A5FF" stroke-miterlimit="10" stroke-width=".1" d="M12.923 10.958h46.154c1.062 0 1.923.861 1.923 1.923v46.154a1.923 1.923 0 01-1.923 1.923H12.923A1.923 1.923 0 0111 59.035h0V12.881c0-1.062.861-1.923 1.923-1.923h0z"/><path fill="none" stroke="#00A5FF" stroke-miterlimit="10" stroke-width=".1" d="M18.254 4h35.492A2.254 2.254 0 0156 6.254v59.492A2.254 2.254 0 0153.746 68H18.254A2.254 2.254 0 0116 65.746V6.254A2.254 2.254 0 0118.254 4z"/><path fill="none" stroke="#00A5FF" stroke-miterlimit="10" stroke-width=".1" d="M68 18.254v35.492A2.254 2.254 0 0165.746 56H6.254A2.254 2.254 0 014 53.746V18.254A2.254 2.254 0 016.254 16h59.492A2.254 2.254 0 0168 18.254z"/><circle cx="36" cy="36" r="29" fill="none" stroke="#00A5FF" stroke-miterlimit="10" stroke-width=".1"/><path d="M26.148 11.595s-7.21 0-14.42 4.807M12.343 10l-1.307 7.239m7.239 1.307l-7.239-1.307M55.02 50.547c0 7.806-6.328 14.135-14.135 14.135S26.75 58.353 26.75 50.547m28.271-.751V39.488m-6.007-.252a3.006 3.006 0 116.008.252m-12.018-.452a3.006 3.006 0 016.008.252m-6.004-.367a3.006 3.006 0 015.993.482m-12.041-.777a3.007 3.007 0 016 .384m-20.564 1.525a3.006 3.006 0 014.325-4.177m4.225-16.95a3.006 3.006 0 116.013 0m0 19.186V19.408m-6.013 0V43.28m-2.543-5.02l-1.682-1.902m-2.806 6.17c1.677 1.842 2.897 4.439 2.835 8.18m-4.354-10.173l1.565 2.045m11.566-28.962a3 3 0 10-4.648.503" stroke-linecap="round" stroke-miterlimit="10" stroke-width="6" stroke="#fff" fill="none" stroke-linejoin="round"/><circle cx="33" cy="12" r="4" fill="#92D3F5"/><path fill="#FCEA2B" d="M55 36.696H37V20h-.184c.112-.314.184-.648.184-1a3 3 0 10-6 0c0 .352.072.686.184 1H31v20.354l-.219-.997-2.45-2.64-5.24-.756L21 38l2.047 3.25L27 47.435v4.934l-.185.007L27 53.41V55h.284l.064.362L28 56l2.068 4.054 5.705 3.732 6.291.906 6.825-2.345 5.066-6.186.242-1.161H55V36.696z"/><g stroke="#000" stroke-linecap="round" stroke-linejoin="round" stroke-miterlimit="10" stroke-width="2"><path d="M26.148 11.595s-7.21 0-14.42 4.807"/><path fill="none" d="M12.343 10l-1.307 7.239m7.239 1.307l-7.239-1.307M55.02 50.547c0 7.806-6.328 14.135-14.135 14.135S26.75 58.353 26.75 50.547m28.271-.751V39.488m-6.007-.252a3.006 3.006 0 116.008.252m-12.018-.452a3.006 3.006 0 016.008.252m-6.004-.367a3.006 3.006 0 015.993.482m-12.041-.777a3.007 3.007 0 016 .384m-20.564 1.525a3.006 3.006 0 014.325-4.177m4.225-16.95a3.006 3.006 0 116.013 0m0 19.186V19.408m-6.013 0V43.28m-2.543-5.02l-1.682-1.902m-2.806 6.17c1.677 1.842 2.897 4.439 2.835 8.18m-4.354-10.173l1.565 2.045m11.566-28.962a3 3 0 10-4.648.503"/></g></svg>