<svg viewBox="0 0 72 72" xmlns="http://www.w3.org/2000/svg"><path fill="#B3B3B3" d="M68 4v64H4V4h64m4-4H0v72h72V0z"/><path fill="none" stroke="#00A5FF" stroke-miterlimit="10" stroke-width=".1" d="M12.923 10.958h46.154c1.062 0 1.923.861 1.923 1.923v46.154a1.923 1.923 0 01-1.923 1.923H12.923A1.923 1.923 0 0111 59.035h0V12.881c0-1.062.861-1.923 1.923-1.923h0z"/><path fill="none" stroke="#00A5FF" stroke-miterlimit="10" stroke-width=".1" d="M18.254 4h35.492A2.254 2.254 0 0156 6.254v59.492A2.254 2.254 0 0153.746 68H18.254A2.254 2.254 0 0116 65.746V6.254A2.254 2.254 0 0118.254 4z"/><path fill="none" stroke="#00A5FF" stroke-miterlimit="10" stroke-width=".1" d="M68 18.254v35.492A2.254 2.254 0 0165.746 56H6.254A2.254 2.254 0 014 53.746V18.254A2.254 2.254 0 016.254 16h59.492A2.254 2.254 0 0168 18.254z"/><circle cx="36" cy="36" r="29" fill="none" stroke="#00A5FF" stroke-miterlimit="10" stroke-width=".1"/><path d="M57.855 29.586c5.98 5.018 6.76 13.934 1.742 19.914s-13.934 6.76-19.914 1.742M57.28 29.104l-7.896-6.626m-4.054 4.439a3.006 3.006 0 114.055-4.44m-8.071 8.916a3.006 3.006 0 114.054-4.44m-4.14 4.363a3.006 3.006 0 114.222-4.281m-8.337 8.725a3.006 3.006 0 014.152-4.35m-12.05 16.733a3.006 3.006 0 01-.42-5.998M18.527 28.013a3.007 3.007 0 013.865-4.606m14.697 12.332L22.392 23.407m-3.865 4.606l18.286 15.344m-5.48-1.278l-2.538.066m2.923 6.115c2.489-.1 5.263.634 8.088 3.086m-10.591-3.203l2.572.116M17.09 20.817a3 3 0 10-2.602 3.884m-.964 4.435v19.085m5.172-3.871l-5.201 5.202m-5.202-5.201l5.202 5.201" stroke-linecap="round" stroke-miterlimit="10" stroke-width="6" stroke="#fff" fill="none" stroke-linejoin="round"/><circle cx="14.229" cy="21.724" fill="#92D3F5" r="4"/><path fill="#FCEA2B" d="M61.47 34.012l-.733-.932.516-.615-14.022-11.766-11.571 13.79-12.79-10.732-.117.141a2.972 2.972 0 00-.648-.784 3 3 0 10-3.857 4.596c.27.227.572.386.884.503l-.118.14L34.597 41.43l-.895-.468-3.597.181-3.948 3.527.218 2.913 3.806.52 7.28.948 3.778 3.171-.113.147.912.524 1.217 1.02.182-.217.319.183.908-.088 4.434 1.021 6.526-1.97 4.739-4.238 2.59-6.736-1.482-7.856z"/><path d="M57.855 29.586c5.98 5.018 6.76 13.934 1.742 19.914s-13.934 6.76-19.914 1.742M57.28 29.104l-7.896-6.626m-4.054 4.439a3.006 3.006 0 114.055-4.44m-8.071 8.916a3.006 3.006 0 114.054-4.44m-4.14 4.363a3.006 3.006 0 114.222-4.281m-8.337 8.725a3.006 3.006 0 014.152-4.35m-12.05 16.733a3.006 3.006 0 01-.42-5.998M18.527 28.013a3.007 3.007 0 013.865-4.606m14.697 12.332L22.392 23.407m-3.865 4.606l18.286 15.344m-5.48-1.278l-2.538.066m2.923 6.115c2.489-.1 5.263.634 8.088 3.086m-10.591-3.203l2.572.116M17.09 20.817a3 3 0 10-2.602 3.884m-.964 4.435v19.085m5.172-3.871l-5.201 5.202m-5.202-5.201l5.202 5.201" fill="none" stroke="#000" stroke-linecap="round" stroke-linejoin="round" stroke-miterlimit="10" stroke-width="2"/></svg>