<svg viewBox="0 0 72 72" xmlns="http://www.w3.org/2000/svg"><path fill="#b3b3b3" d="M68 4v64H4V4h64m4-4H0v72h72V0z"/><path fill="none" stroke="#00a5ff" stroke-miterlimit="10" stroke-width=".1" d="M12.923 10.958h46.154A1.923 1.923 0 0161 12.881v46.154a1.923 1.923 0 01-1.923 1.923H12.923A1.923 1.923 0 0111 59.035V12.881a1.923 1.923 0 011.923-1.923z"/><rect x="16" y="4" rx="2.254" width="40" height="64" fill="none" stroke="#00a5ff" stroke-miterlimit="10" stroke-width=".1"/><rect x="16" y="4" rx="2.254" width="40" height="64" transform="rotate(90 36 36)" fill="none" stroke="#00a5ff" stroke-miterlimit="10" stroke-width=".1"/><circle cx="36" cy="36" r="29" fill="none" stroke="#00a5ff" stroke-miterlimit="10" stroke-width=".1"/><g stroke-linecap="round" stroke-miterlimit="10" stroke-width="6" stroke="#fff" fill="none" stroke-linejoin="round"><path d="M35.236 59.6h-9c-8.321 0-14-6.68-14-15 .02-4.799 1.8-9.424 5-13m17.389 0h-4.389l7-18c.811-2.083-2.79-3.8-5-1l-15 19m20.212 3.5a3.786 3.786 0 004 3.5h13a3.531 3.531 0 100-7h-13a3.786 3.786 0 00-4 3.5zm.857 21.337a3.786 3.786 0 004 3.5h7a3.531 3.531 0 100-7h-7a3.786 3.786 0 00-4 3.5zm-5.069-14a3.786 3.786 0 004 3.5h19a3.531 3.531 0 100-7h-19a3.786 3.786 0 00-4 3.5z"/><path d="M35.236 49.437a3.786 3.786 0 004 3.5h15a3.531 3.531 0 100-7h-15a3.786 3.786 0 00-4 3.5zm-21.1-13.174a19.457 19.457 0 00-1.906 7.839c0 8.56 4.625 15.5 15.125 15.5"/></g><path fill="#fcea2b" d="M37.088 11.232l-2.922.645L19 29.21l-7.333 13.059 1.999 11.274 12.938 7.07 9.625-.041 14.042.208 2.395-1.57.75-3.833-.75-1.584 3.584-.083 1.333-1.667.833-2.333-1.583-3 1.583-.667 1.917-2.666-.917-2.75-2.5-1.167 1.167-2.167.167-3.416-2.584-1.5-13.166-.5-.834-.667-.854-.597h-9.125l.063-1.736 3.916-9.584 1.667-4.583z"/><g fill="none" stroke="#000" stroke-width="2"><path stroke-linecap="round" stroke-linejoin="round" d="M35.236 59.6h-9c-8.321 0-14-6.68-14-15 .02-4.799 1.8-9.424 5-13m17.389 0h-4.389l7-18c.811-2.083-2.79-3.8-5-1l-15 19m20.212 3.5a3.786 3.786 0 004 3.5h13a3.531 3.531 0 100-7h-13a3.786 3.786 0 00-4 3.5zm.857 21.337a3.786 3.786 0 004 3.5h7a3.531 3.531 0 100-7h-7a3.786 3.786 0 00-4 3.5zm-5.069-14a3.786 3.786 0 004 3.5h19a3.531 3.531 0 100-7h-19a3.786 3.786 0 00-4 3.5z"/><path stroke-linecap="round" stroke-linejoin="round" d="M35.236 49.437a3.786 3.786 0 004 3.5h15a3.531 3.531 0 100-7h-15a3.786 3.786 0 00-4 3.5z"/><path stroke-miterlimit="10" d="M14.136 36.263a19.457 19.457 0 00-1.906 7.839c0 8.56 4.625 15.5 15.125 15.5"/></g></svg>