<svg viewBox="0 0 72 72" xmlns="http://www.w3.org/2000/svg"><path fill="#b3b3b3" d="M68 4v64H4V4h64m4-4H0v72h72V0z"/><path fill="none" stroke="#00a5ff" stroke-miterlimit="10" stroke-width=".1" d="M12.923 10.958h46.154A1.923 1.923 0 0161 12.881v46.154a1.923 1.923 0 01-1.923 1.923H12.923A1.923 1.923 0 0111 59.035V12.881a1.923 1.923 0 011.923-1.923z"/><rect x="16" y="4" rx="2.254" width="40" height="64" fill="none" stroke="#00a5ff" stroke-miterlimit="10" stroke-width=".1"/><rect x="16" y="4" rx="2.254" width="40" height="64" transform="rotate(90 36 36)" fill="none" stroke="#00a5ff" stroke-miterlimit="10" stroke-width=".1"/><circle cx="36" cy="36" r="29" fill="none" stroke="#00a5ff" stroke-miterlimit="10" stroke-width=".1"/><g stroke-linecap="round" stroke-miterlimit="10" stroke-width="6" stroke="#fff" fill="none" stroke-linejoin="round"><path d="M17.236 40.316c-3.2-3.576-4.98-8.2-5-13 0-8.319 5.679-15 14-15h9m-18 28l15 19c2.21 2.8 5.811 1.084 5-1l-7-18h4.389m6.823 0h13a3.53 3.53 0 100-7h-13a3.786 3.786 0 00-4 3.5 3.786 3.786 0 004 3.5zm.857-21.336h7a3.53 3.53 0 100-7h-7a3.786 3.786 0 00-4 3.5 3.786 3.786 0 004 3.5zm-5.069 14h19a3.53 3.53 0 100-7h-19a3.786 3.786 0 00-4 3.5 3.786 3.786 0 004 3.5z"/><path d="M39.236 25.98h15a3.53 3.53 0 100-7h-15a3.786 3.786 0 00-4 3.5 3.786 3.786 0 004 3.5zM27.355 12.315c-10.5 0-15.125 6.94-15.125 15.5.08 2.717.73 5.388 1.906 7.839"/></g><path fill="#fcea2b" d="M37.333 57.207l-1.667-4.583-3.916-9.584-.063-1.736h9.125l.854-.597.834-.667 13.166-.5 2.584-1.5-.167-3.416-1.167-2.167 2.5-1.167.917-2.75-1.917-2.666-1.583-.667 1.583-3-.833-2.333-1.333-1.667-3.584-.083.75-1.584-.75-3.833-2.395-1.57-14.042.208-9.625-.04-12.938 7.07-1.999 11.273L19 42.708 34.166 60.04l2.922.645z"/><g fill="none" stroke="#000" stroke-width="2"><path stroke-linecap="round" stroke-linejoin="round" d="M17.236 40.316c-3.2-3.576-4.98-8.2-5-13 0-8.319 5.679-15 14-15h9m-18 28l15 19c2.21 2.8 5.811 1.084 5-1l-7-18h4.389m6.823 0h13a3.53 3.53 0 100-7h-13a3.786 3.786 0 00-4 3.5 3.786 3.786 0 004 3.5zm.857-21.336h7a3.53 3.53 0 100-7h-7a3.786 3.786 0 00-4 3.5 3.786 3.786 0 004 3.5zm-5.069 14h19a3.53 3.53 0 100-7h-19a3.786 3.786 0 00-4 3.5 3.786 3.786 0 004 3.5z"/><path stroke-linecap="round" stroke-linejoin="round" d="M39.236 25.98h15a3.53 3.53 0 100-7h-15a3.786 3.786 0 00-4 3.5 3.786 3.786 0 004 3.5z"/><path stroke-miterlimit="10" d="M27.355 12.315c-10.5 0-15.125 6.94-15.125 15.5.08 2.717.73 5.388 1.906 7.839"/></g></svg>