<svg viewBox="0 0 72 72" xmlns="http://www.w3.org/2000/svg"><path fill="#B3B3B3" d="M68 4v64H4V4h64m4-4H0v72h72V0z"/><path fill="none" stroke="#00A5FF" stroke-miterlimit="10" stroke-width=".1" d="M12.92 10.96h46.15c1.062 0 1.923.861 1.923 1.923v46.15a1.923 1.923 0 01-1.923 1.923H12.92a1.923 1.923 0 01-1.923-1.923v-46.15c0-1.062.861-1.923 1.923-1.923z"/><path fill="none" stroke="#00A5FF" stroke-miterlimit="10" stroke-width=".1" d="M18.254 4h35.492A2.254 2.254 0 0156 6.254v59.492A2.254 2.254 0 0153.746 68H18.254A2.254 2.254 0 0116 65.746V6.254A2.254 2.254 0 0118.254 4z"/><path fill="none" stroke="#00A5FF" stroke-miterlimit="10" stroke-width=".1" d="M68 18.254v35.492A2.254 2.254 0 0165.746 56H6.254A2.254 2.254 0 014 53.746V18.254A2.254 2.254 0 016.254 16h59.492A2.254 2.254 0 0168 18.254z"/><circle cx="36" cy="36" r="29" fill="none" stroke="#00A5FF" stroke-miterlimit="10" stroke-width=".1"/><g stroke-linecap="round" stroke-miterlimit="10" stroke-width="6" stroke="#fff" fill="none" stroke-linejoin="round"><path d="M43.88 47.41l8.469-9.812c1.281-1.594 2.281-1.906 3.344-2.156l9.04-1.92c4.59-5.084 4.19-12.93-.894-17.52l-51.33 2.083c-3.292.333-7.1 2.364-7.682 6.622l.016 20.46c-.303 3.771 3.823 5.115 8.167 3.458-1 8.438 3 9.562 7.438 8.438l20.91-7.739" transform="matrix(.9826 0 0 .9823 .266 1.018)"/><path d="M15.31 29.17c0 4.062 4.892 4.344 10.94 4.344-.5 4.031-2.594 8.625-10.03 13" transform="matrix(.9826 0 0 .9823 .266 1.018)"/><path d="M43.88 47.41l8.469-9.812c1.281-1.594 2.281-1.906 3.344-2.156l9.04-1.92c4.59-5.084 4.19-12.93-.894-17.52l-51.33 2.083c-3.292.333-7.1 2.364-7.682 6.622l.016 20.46c-.303 3.771 3.823 5.115 8.167 3.458-1 8.438 3 9.562 7.438 8.438l20.91-7.739c1.296-.68 1.853-1.293 2.53-1.917z" transform="matrix(.9826 0 0 .9823 .266 1.018)"/><path d="M15.31 29.17c0 4.062 4.892 4.344 10.94 4.344-.5 4.031-2.594 8.625-10.03 13" transform="matrix(.9826 0 0 .9823 .266 1.018)"/></g><path fill="#fcea2b" d="M63.858 33.942l-8.881 1.886c-1.051.246-2.034.55-3.291 2.112l-8.311 9.648c-.776.933-1.248 1.483-2.495 1.876l-20.533 7.604c-4.362 1.11-8.291 0-7.309-8.282-4.263 1.621-8.32.305-8.026-3.399l-.01-20.1c.57-4.185 4.313-6.18 7.545-6.513l50.427-2.044c5 4.51 5.393 12.212.884 17.212z" stroke-width="1.018"/><g stroke-miterlimit="10" stroke-width="2.036" fill="none" stroke="#000" stroke-linecap="round" stroke-linejoin="round"><path d="M43.88 47.41l8.469-9.812c1.281-1.594 2.281-1.906 3.344-2.156l9.04-1.92c4.59-5.084 4.19-12.93-.894-17.52l-51.33 2.083c-3.292.333-7.1 2.364-7.682 6.622l.016 20.46c-.303 3.771 3.823 5.115 8.167 3.458-1 8.438 3 9.562 7.438 8.438l20.91-7.739" transform="matrix(.9826 0 0 .9823 .266 1.018)"/><path d="M15.31 29.17c0 4.062 4.892 4.344 10.94 4.344-.5 4.031-2.594 8.625-10.03 13" transform="matrix(.9826 0 0 .9823 .266 1.018)"/><path d="M43.88 47.41l8.469-9.812c1.281-1.594 2.281-1.906 3.344-2.156l9.04-1.92c4.59-5.084 4.19-12.93-.894-17.52l-51.33 2.083c-3.292.333-7.1 2.364-7.682 6.622l.016 20.46c-.303 3.771 3.823 5.115 8.167 3.458-1 8.438 3 9.562 7.438 8.438l20.91-7.739c1.296-.68 1.853-1.293 2.53-1.917z" transform="matrix(.9826 0 0 .9823 .266 1.018)"/><path d="M15.31 29.17c0 4.062 4.892 4.344 10.94 4.344-.5 4.031-2.594 8.625-10.03 13" transform="matrix(.9826 0 0 .9823 .266 1.018)"/></g></svg>