<svg viewBox="0 0 72 72" xmlns="http://www.w3.org/2000/svg"><path fill="#b3b3b3" d="M68 4v64H4V4h64m4-4H0v72h72V0z"/><path fill="none" stroke="#00a5ff" stroke-miterlimit="10" stroke-width=".1" d="M12.923 10.958h46.154A1.923 1.923 0 0161 12.881v46.154a1.923 1.923 0 01-1.923 1.923H12.923A1.923 1.923 0 0111 59.035V12.881a1.923 1.923 0 011.923-1.923z"/><rect x="16" y="4" rx="2.254" width="40" height="64" fill="none" stroke="#00a5ff" stroke-miterlimit="10" stroke-width=".1"/><rect x="16" y="4" rx="2.254" width="40" height="64" transform="rotate(90 36 36)" fill="none" stroke="#00a5ff" stroke-miterlimit="10" stroke-width=".1"/><circle cx="36" cy="36" r="29" fill="none" stroke="#00a5ff" stroke-miterlimit="10" stroke-width=".1"/><g stroke-linecap="round" stroke-miterlimit="10" stroke-width="6" stroke="#fff" fill="none" stroke-linejoin="round"><path d="M43.741 34.99v-2.334c0-1.1-1.789-2.2-3.976-2.44l-1.049-.118c-2.187-.242-3.976-1.85-3.976-3.774s1.8-3.334 4-3.334h10a4.164 4.164 0 014.235 3.826l.657 11.213m-15.669.026c1.63-1.48 3.624-2.5 5.777-2.958"/><path d="M16.776 39.479c1.199 9.03 8.965 15.732 18.073 15.598 10.149 0 18.785-7.174 18.785-17.72m-36.858 2.122v-3.521m3.532-2.993a3.786 3.786 0 01-3.5-4v-7a3.531 3.531 0 117 0v7a3.786 3.786 0 01-3.5 4z"/><path d="M28.744 31.827c-3.322 1.227-4.997-1.934-4.874-4v-7a3.531 3.531 0 117 0"/><path d="M30.932 24.466v-5.318a3.531 3.531 0 117 0m.063 0a3.531 3.531 0 117 0"/></g><g fill="#fcea2b"><path d="M21.241 36.167a3.786 3.786 0 01-3.5-4v-7a3.531 3.531 0 117 0v7a3.786 3.786 0 01-3.5 4zm20.516 2.769a3.786 3.786 0 01-3.5-4v-15a3.531 3.531 0 117 0v15a3.786 3.786 0 01-3.5 4z"/><path d="M35.206 38.936a3.786 3.786 0 01-3.5-4v-15a3.531 3.531 0 117 0v15a3.786 3.786 0 01-3.5 4zm-7.653 1.231a3.786 3.786 0 01-3.5-4v-15a3.531 3.531 0 117 0v15a3.786 3.786 0 01-3.5 4zm-7.516 1.003a3.786 3.786 0 01-3.5-4v-15a3.531 3.531 0 117 0v15a3.786 3.786 0 01-3.5 4z"/><path d="M31.982 16.333c-.258-1.933 2.758-.184 6.218.457 2.333.431 4.58-3.02 4.838-1.087-.237.869 3.733-2.537 3.151 7.803m-1.977-3.453l-.034.642"/><path d="M15.75 36.167c1.142 8.856 10.78 19.584 19.455 19.453 9.667 0 19.357-8.719 19.357-19.062l-.928-10.535c0-5.152-14.1-4.138-16.3-4.092L16 29.427"/></g><g fill="none" stroke="#000" stroke-linecap="round" stroke-width="2"><path stroke-linejoin="round" d="M43.741 34.99v-2.334c0-1.1-1.789-2.2-3.976-2.44l-1.049-.118c-2.187-.242-3.976-1.85-3.976-3.774s1.8-3.334 4-3.334h10a4.164 4.164 0 014.235 3.826l.657 11.213m-15.669.026c1.63-1.48 3.624-2.5 5.777-2.958"/><path stroke-miterlimit="10" d="M16.776 39.479c1.199 9.03 8.965 15.732 18.073 15.598 10.149 0 18.785-7.174 18.785-17.72"/><path stroke-linejoin="round" d="M16.776 39.479v-3.521m3.532-2.993a3.786 3.786 0 01-3.5-4v-7a3.531 3.531 0 117 0v7a3.786 3.786 0 01-3.5 4z"/><path stroke-linejoin="round" d="M28.744 31.827c-3.322 1.227-4.997-1.934-4.874-4v-7a3.531 3.531 0 117 0"/><path stroke-linejoin="round" d="M30.932 24.466v-5.318a3.531 3.531 0 117 0m.063 0a3.531 3.531 0 117 0"/></g></svg>