<svg viewBox="0 0 72 72" xmlns="http://www.w3.org/2000/svg"><path fill="#B3B3B3" d="M68 4v64H4V4h64m4-4H0v72h72V0z"/><path fill="none" stroke="#00A5FF" stroke-miterlimit="10" stroke-width=".1" d="M12.923 10.958h46.154c1.062 0 1.923.861 1.923 1.923v46.154a1.923 1.923 0 01-1.923 1.923H12.923A1.923 1.923 0 0111 59.035h0V12.881c0-1.062.861-1.923 1.923-1.923h0z"/><path fill="none" stroke="#00A5FF" stroke-miterlimit="10" stroke-width=".1" d="M18.254 4h35.492A2.254 2.254 0 0156 6.254v59.492A2.254 2.254 0 0153.746 68H18.254A2.254 2.254 0 0116 65.746V6.254A2.254 2.254 0 0118.254 4z"/><path fill="none" stroke="#00A5FF" stroke-miterlimit="10" stroke-width=".1" d="M68 18.254v35.492A2.254 2.254 0 0165.746 56H6.254A2.254 2.254 0 014 53.746V18.254A2.254 2.254 0 016.254 16h59.492A2.254 2.254 0 0168 18.254z"/><circle cx="36" cy="36" r="29" fill="none" stroke="#00A5FF" stroke-miterlimit="10" stroke-width=".1"/><path d="M55.48 47.647c0 9.089-7.368 16.456-16.457 16.456s-16.455-7.367-16.455-16.456m32.911-.873v-12m-6.992-.294a3.5 3.5 0 116.994.294m-13.991-.526a3.5 3.5 0 116.994.293m-6.99-.427a3.5 3.5 0 116.977.56m-14.019-.904a3.5 3.5 0 016.986.447m-23.939 1.776a3.5 3.5 0 115.035-4.863m4.918-19.733a3.5 3.5 0 117 0m0 22.335V11.397m-7 0v27.791m-2.96-5.845l-1.958-2.213m-3.268 7.183c1.953 2.143 3.374 5.167 3.302 9.521m-5.069-11.841l1.821 2.38" stroke-linecap="round" stroke-miterlimit="10" stroke-width="6" stroke="#fff" fill="none" stroke-linejoin="round"/><path fill="#FCEA2B" d="M55.36 33.73a3.5 3.5 0 00-3.23-2.6 3.477 3.477 0 00-3.52 2.6h-.19c0 .02.01.05.01.08-.01-.03-.01-.06-.02-.08v-.02a3.462 3.462 0 00-.9-1.73c-.17-.18-.35-.34-.56-.47-.07-.05-.14-.1-.21-.14-.17-.1-.34-.18-.52-.25-.1-.04-.2-.07-.3-.09a2.34 2.34 0 00-.38-.09l-.24-.03h-.06c-.09-.01-.17-.01-.26-.01-.12 0-.23 0-.34.02-.23.02-.44.06-.65.12a3.514 3.514 0 00-1.42.83c-.09.07-.16.15-.23.24-.07.08-.14.16-.2.25s-.12.18-.18.28c-.11.19-.2.39-.28.6-.05.16-.1.32-.12.49h-.13a3.478 3.478 0 00-3.26-3.23 3.494 3.494 0 00-3.63 2.7v.58l-.09-.01V11.4c0-.11-.01-.23-.02-.34a3.483 3.483 0 00-3.48-3.16c-1.93 0-3.5 1.56-3.5 3.5v24.27l.02.03-.02 1.25v-1.28l-.79-1.07-1.35-1.83-.69.45a4.74 4.74 0 00-.87-.71l-.01-.01c-1.8-1.28-5-2.58-6.16-1.46-1.35 1.31-.56 4.23 4.86 11.37.99 20.84 8.68 19.56 16.58 21.69 7.66.71 16.13-6.31 16.25-18.14h.21V34.62c0-.31-.04-.6-.12-.89zm-13.86.38h-.01c.01-.07.01-.14.03-.21-.01.07-.02.14-.02.21z"/><path d="M55.48 47.647c0 9.089-7.368 16.456-16.457 16.456s-16.455-7.367-16.455-16.456m32.911-.873v-12m-6.992-.294a3.5 3.5 0 116.994.294m-13.991-.526a3.5 3.5 0 116.994.293m-6.99-.427a3.5 3.5 0 116.977.56m-14.019-.904a3.5 3.5 0 016.986.447m-23.939 1.776a3.5 3.5 0 115.035-4.863m4.918-19.733a3.5 3.5 0 117 0m0 22.335V11.397m-7 0v27.791m-2.96-5.845l-1.958-2.213m-3.268 7.183c1.953 2.143 3.374 5.167 3.302 9.521m-5.069-11.841l1.821 2.38" fill="none" stroke="#000" stroke-linecap="round" stroke-linejoin="round" stroke-miterlimit="10" stroke-width="2"/></svg>