<svg viewBox="0 0 72 72" xmlns="http://www.w3.org/2000/svg"><path fill="#b3b3b3" d="M68 4v64H4V4h64m4-4H0v72h72V0z"/><path fill="none" stroke="#00a5ff" stroke-miterlimit="10" stroke-width=".1" d="M12.923 10.958h46.154A1.923 1.923 0 0161 12.881v46.154a1.923 1.923 0 01-1.923 1.923H12.923A1.923 1.923 0 0111 59.035V12.881a1.923 1.923 0 011.923-1.923z"/><rect x="16" y="4" rx="2.254" width="40" height="64" fill="none" stroke="#00a5ff" stroke-miterlimit="10" stroke-width=".1"/><rect x="16" y="4" rx="2.254" width="40" height="64" transform="rotate(90 36 36)" fill="none" stroke="#00a5ff" stroke-miterlimit="10" stroke-width=".1"/><circle cx="36" cy="36" r="29" fill="none" stroke="#00a5ff" stroke-miterlimit="10" stroke-width=".1"/><g stroke-linecap="round" stroke-miterlimit="10" stroke-width="6" stroke="#fff" fill="none" stroke-linejoin="round"><path d="M58.7 30.295V27.6c0-5.4-3.029-10.201-7.3-11.6-3.47-1.136-27.204-.698-27.204-.698m1.381 26.394L58.7 41.6v-4.628M40.377 31.53v.9a1.12 1.12 0 001 1.2h10v2.1a1.12 1.12 0 001 1.2h7.4a1.126 1.126 0 001-1.2v-4.2a1.12 1.12 0 00-1-1.2h-18.4a1.126 1.126 0 00-1 1.2z"/><path d="M34.6 27.6v11.8a2.163 2.163 0 01-2.1 2.3H15.3a2.15 2.15 0 01-2-2.3V26.6a12.27 12.27 0 014.6-9.1 9.502 9.502 0 016.1-2.2 13.552 13.552 0 012 .2h0c4.9 1.1 8.6 6.1 8.6 12.1z"/><path d="M39.3 59.4V41.653l-6.813.009.013 4.738v13"/></g><path fill="#61b2e4" d="M58.7 27.6c0-5.4-2.963-10.422-7.3-11.6-3.428-.931-15.4-.6-15.4-.6l-11.804-.098c-.7 0 3.504 6.298 3.504 12.298v11.7a2.338 2.338 0 01-2.123 2.396L58.7 41.6z"/><path fill="#3f3f3f" d="M34.6 27.6v11.8a2.163 2.163 0 01-2.1 2.3H15.3a2.15 2.15 0 01-2-2.3V26.6a12.27 12.27 0 014.6-9.1 9.502 9.502 0 016.1-2.2 13.552 13.552 0 012 .2c4.9 1.1 8.6 6.1 8.6 12.1z"/><path fill="#ea5a47" d="M40.377 31.53v.9a1.12 1.12 0 001 1.2h10v2.1a1.12 1.12 0 001 1.2h7.4a1.126 1.126 0 001-1.2v-4.2a1.12 1.12 0 00-1-1.2h-18.4a1.126 1.126 0 00-1 1.2z"/><path fill="#fff" d="M39.3 59.4V41.653l-6.813.009.013 4.738v13"/><g fill="none" stroke="#000" stroke-width="2"><path stroke-linecap="round" stroke-linejoin="round" d="M58.7 30.295V27.6c0-5.4-3.029-10.201-7.3-11.6-3.47-1.136-27.204-.698-27.204-.698m1.381 26.394L58.7 41.6v-4.628"/><path stroke-linejoin="round" d="M40.377 31.53v.9a1.12 1.12 0 001 1.2h10v2.1a1.12 1.12 0 001 1.2h7.4a1.126 1.126 0 001-1.2v-4.2a1.12 1.12 0 00-1-1.2h-18.4a1.126 1.126 0 00-1 1.2z"/><path stroke-miterlimit="10" d="M34.6 27.6v11.8a2.163 2.163 0 01-2.1 2.3H15.3a2.15 2.15 0 01-2-2.3V26.6a12.27 12.27 0 014.6-9.1 9.502 9.502 0 016.1-2.2 13.552 13.552 0 012 .2h0c4.9 1.1 8.6 6.1 8.6 12.1z"/><path stroke-linecap="round" stroke-linejoin="round" d="M39.3 59.4V41.653l-6.813.009.013 4.738v13"/></g></svg>