<svg viewBox="0 0 72 72" xmlns="http://www.w3.org/2000/svg"><path fill="#B3B3B3" d="M68 4v64H4V4h64m4-4H0v72h72V0z"/><path fill="none" stroke="#00A5FF" stroke-miterlimit="10" stroke-width=".1" d="M12.923 10.958h46.154c1.062 0 1.923.861 1.923 1.923h0v46.154a1.923 1.923 0 01-1.923 1.923H12.923A1.923 1.923 0 0111 59.035h0V12.881c0-1.062.861-1.923 1.923-1.923h0z"/><path fill="none" stroke="#00A5FF" stroke-miterlimit="10" stroke-width=".1" d="M18.254 4h35.492A2.254 2.254 0 0156 6.254v59.492A2.254 2.254 0 0153.746 68H18.254A2.254 2.254 0 0116 65.746V6.254A2.254 2.254 0 0118.254 4z"/><path fill="none" stroke="#00A5FF" stroke-miterlimit="10" stroke-width=".1" d="M68 18.254v35.492A2.254 2.254 0 0165.746 56H6.254A2.254 2.254 0 014 53.746V18.254A2.254 2.254 0 016.254 16h59.492A2.254 2.254 0 0168 18.254z"/><circle cx="36" cy="36" r="29" fill="none" stroke="#00A5FF" stroke-miterlimit="10" stroke-width=".1"/><g stroke-linecap="round" stroke-miterlimit="10" stroke-width="6" stroke="#fff" fill="none" stroke-linejoin="round"><path d="M20.072 42.799l-8.784 8.091c-.35-.62-.57-1.44-.57-2.32V22.06l15.92 14.69m17.142.85l16.878-15.59v26.56c0 .86-.2 1.65-.55 2.27L47.841 39.607M11.354 21.649l-.062-.039m15.346 15.14l4.47 4.13c.24.22.48.41.72.57 2.43 1.8 5.26 1.8 7.68-.01.23-.16.47-.36.69-.56l4.5-4.15"/><path d="M47.763 39.536L60.108 50.84c-.42.77-1.07 1.27-1.79 1.27h-45.26c-.7 0-1.34-.47-1.77-1.22l12.078-11.126"/><path d="M49.485 20.9h9.46c.59 0 1.16.35 1.57.91.05.06.1.13.14.2l-15.96 14.72-4.5 4.15c-.22.2-.46.4-.69.56-2.42 1.81-5.25 1.81-7.68.01-.24-.16-.48-.35-.72-.57l-4.47-4.13-15.92-14.69c.04-.06.09-.13.14-.2.42-.6.99-.96 1.61-.96h8.48m-7.757 31.21s-2.752.14-2.47-4.485"/></g><path fill="#D0CFCE" d="M26.638 36.75l-15.35 14.14c-.35-.62-.57-1.44-.57-2.32V22.06l15.92 14.69zm-5.467-16.854h28.542v3.125H21.171z"/><path fill="#9B9B9A" d="M60.658 22.01v26.56c0 .86-.2 1.65-.55 2.27L47.841 39.607l-1.615 1.226-2.447-3.234L60.66 22.01z"/><path fill="none" d="M11.354 21.649l-.062-.039"/><path fill="#D0CFCE" d="M26.638 36.75l4.47 4.13c.24.22.48.41.72.57 2.43 1.8 5.26 1.8 7.68-.01.23-.16.47-.36.69-.56l4.5-4.15"/><path fill="#D0CFCE" stroke="#D0CFCE" stroke-linecap="round" stroke-linejoin="round" stroke-miterlimit="10" stroke-width="1.8" d="M26.638 36.75l4.47 4.13c.24.22.48.41.72.57 2.43 1.8 5.26 1.8 7.68-.01.23-.16.47-.36.69-.56l4.5-4.15 15.41 14.11c-.42.77-1.07 1.27-1.79 1.27h-45.26c-.7 0-1.34-.47-1.77-1.22l15.35-14.14"/><path fill="#D0CFCE" stroke="#D0CFCE" stroke-linecap="round" stroke-linejoin="round" stroke-miterlimit="10" stroke-width="2" d="M20 36h7v5h-7z"/><path fill="#D0CFCE" d="M47.763 39.536L60.108 50.84c-.42.77-1.07 1.27-1.79 1.27h-45.26c-.7 0-1.34-.47-1.77-1.22l12.078-11.126"/><path fill="#D0CFCE" d="M49.485 20.9h9.46c.59 0 1.16.35 1.57.91.05.06.1.13.14.2l-15.96 14.72-4.5 4.15c-.22.2-.46.4-.69.56-2.42 1.81-5.25 1.81-7.68.01-.24-.16-.48-.35-.72-.57l-4.47-4.13-15.92-14.69c.04-.06.09-.13.14-.2.42-.6.99-.96 1.61-.96h8.48"/><path fill="none" stroke="#EA5A47" stroke-linecap="round" stroke-miterlimit="10" stroke-width="2" d="M37.698 20.755h-4v7h4m-4-3.5h3"/><g fill="none" stroke="#000" stroke-linecap="round" stroke-linejoin="round" stroke-miterlimit="10" stroke-width="2"><path d="M20.072 42.799l-8.784 8.091c-.35-.62-.57-1.44-.57-2.32V22.06l15.92 14.69m17.142.85l16.878-15.59v26.56c0 .86-.2 1.65-.55 2.27L47.841 39.607M11.354 21.649l-.062-.039m15.346 15.14l4.47 4.13c.24.22.48.41.72.57 2.43 1.8 5.26 1.8 7.68-.01.23-.16.47-.36.69-.56l4.5-4.15"/><path d="M47.763 39.536L60.108 50.84c-.42.77-1.07 1.27-1.79 1.27h-45.26c-.7 0-1.34-.47-1.77-1.22l12.078-11.126"/><path d="M49.485 20.9h9.46c.59 0 1.16.35 1.57.91.05.06.1.13.14.2l-15.96 14.72-4.5 4.15c-.22.2-.46.4-.69.56-2.42 1.81-5.25 1.81-7.68.01-.24-.16-.48-.35-.72-.57l-4.47-4.13-15.92-14.69c.04-.06.09-.13.14-.2.42-.6.99-.96 1.61-.96h8.48m-7.757 31.21s-2.752.14-2.47-4.485"/></g></svg>