<svg viewBox="0 0 72 72" xmlns="http://www.w3.org/2000/svg"><path fill="#b3b3b3" d="M68 4v64H4V4h64m4-4H0v72h72V0z"/><path fill="none" stroke="#00a5ff" stroke-miterlimit="10" stroke-width=".1" d="M12.923 10.958h46.154A1.923 1.923 0 0161 12.881v46.154a1.923 1.923 0 01-1.923 1.923H12.923A1.923 1.923 0 0111 59.035V12.881a1.923 1.923 0 011.923-1.923z"/><rect x="16" y="4" rx="2.254" width="40" height="64" fill="none" stroke="#00a5ff" stroke-miterlimit="10" stroke-width=".1"/><rect x="16" y="4" rx="2.254" width="40" height="64" transform="rotate(90 36 36)" fill="none" stroke="#00a5ff" stroke-miterlimit="10" stroke-width=".1"/><circle cx="36" cy="36" r="29" fill="none" stroke="#00a5ff" stroke-miterlimit="10" stroke-width=".1"/><g stroke-linecap="round" stroke-miterlimit="10" stroke-width="6" stroke="#fff" fill="none" stroke-linejoin="round"><path d="M61.665 11.98v48c0 .55-.45 1-1 1h-48c-.55 0-1-.45-1-1v-48c0-.55.45-1 1-1h48c.55 0 1 .45 1 1z"/><path d="M41.899 29.438H31.44a2.946 2.946 0 01-2.938-2.938v0a2.946 2.946 0 012.938-2.938h10.458a2.946 2.946 0 012.938 2.938v0a2.946 2.946 0 01-2.938 2.938zm2.936 29.187v2.355h-16.33v-2.355c0-1.123 1.35-2.042 3-2.042h10.33c1.65 0 3 .92 3 2.042zm-.059-46.659v5.17c0 1.064-1.35 1.935-3 1.935h-10.33c-1.65 0-3-.87-3-1.934v-5.171"/></g><path fill="#f4aa41" d="M61.665 11.98v48c0 .55-.45 1-1 1h-48c-.55 0-1-.45-1-1v-48c0-.55.45-1 1-1h48c.55 0 1 .45 1 1z"/><path fill="#d0cfce" d="M44.835 58.625v2.355h-16.33v-2.355c0-1.123 1.35-2.042 3-2.042h10.33c1.65 0 3 .92 3 2.042zm-.059-46.659v5.17c0 1.064-1.35 1.935-3 1.935h-10.33c-1.65 0-3-.87-3-1.934v-5.171"/><g stroke="#000" stroke-miterlimit="10" stroke-width="2"><path fill="none" stroke-linecap="round" stroke-linejoin="round" d="M61.665 11.98v48c0 .55-.45 1-1 1h-48c-.55 0-1-.45-1-1v-48c0-.55.45-1 1-1h48c.55 0 1 .45 1 1z"/><path d="M41.899 29.438H31.44a2.946 2.946 0 01-2.938-2.938v0a2.946 2.946 0 012.938-2.938h10.458a2.946 2.946 0 012.938 2.938v0a2.946 2.946 0 01-2.938 2.938z"/><path fill="none" stroke-linecap="round" stroke-linejoin="round" d="M44.835 58.625v2.355h-16.33v-2.355c0-1.123 1.35-2.042 3-2.042h10.33c1.65 0 3 .92 3 2.042zm-.059-46.659v5.17c0 1.064-1.35 1.935-3 1.935h-10.33c-1.65 0-3-.87-3-1.934v-5.171"/></g></svg>