<svg viewBox="0 0 72 72" xmlns="http://www.w3.org/2000/svg"><path fill="#b3b3b3" d="M68 4v64H4V4h64m4-4H0v72h72V0z"/><path fill="none" stroke="#00a5ff" stroke-miterlimit="10" stroke-width=".1" d="M12.923 10.958h46.154A1.923 1.923 0 0161 12.881v46.154a1.923 1.923 0 01-1.923 1.923H12.923A1.923 1.923 0 0111 59.035V12.881a1.923 1.923 0 011.923-1.923z"/><rect x="16" y="4" rx="2.254" width="40" height="64" fill="none" stroke="#00a5ff" stroke-miterlimit="10" stroke-width=".1"/><rect x="16" y="4" rx="2.254" width="40" height="64" transform="rotate(90 36 36)" fill="none" stroke="#00a5ff" stroke-miterlimit="10" stroke-width=".1"/><circle cx="36" cy="36" r="29" fill="none" stroke="#00a5ff" stroke-miterlimit="10" stroke-width=".1"/><g stroke-linecap="round" stroke-miterlimit="10" stroke-width="6" stroke="#fff" fill="none" stroke-linejoin="round"><path d="M5.797 41.904h16.31m-12.815-6.99h12.815m14.405 3.664l-8.42 7.743a3.903 3.903 0 01-.45-1.729v-19.92m29.896 14.727l7.292 6.711a3.586 3.586 0 00.323-1.484v-20.03"/><path d="M55.455 37.752l9.246 8.494a1.607 1.607 0 01-1.353.977H29.371a1.78 1.78 0 01-1.353-.902l9.095-8.344"/><path d="M65.152 24.597l-12.027 11.05-3.383 3.157c-.15.15-.376.3-.526.45a4.634 4.634 0 01-5.788 0c-.15-.15-.376-.3-.527-.45l-3.382-3.082-11.877-11.05c0-.075.075-.075.075-.15a1.533 1.533 0 011.203-.752h34.954a1.656 1.656 0 011.203.677c0 .075.075.075.075.15z"/></g><rect x="27.599" y="23.819" rx="1.563" width="37.511" height="23.454" fill="#d0cfce"/><path fill="#9b9b9a" d="M65.152 24.597v19.995a4.175 4.175 0 01-.376 1.73l-8.494-7.819-.752.075-3.082-2.856z"/><g fill="none" stroke="#000" stroke-linecap="round" stroke-linejoin="round" stroke-width="2"><path d="M5.797 41.904h16.31m-12.815-6.99h12.815m14.405 3.664l-8.42 7.743a3.903 3.903 0 01-.45-1.729v-19.92m29.896 14.727l7.292 6.711a3.586 3.586 0 00.323-1.484v-20.03"/><path d="M55.455 37.752l9.246 8.494a1.607 1.607 0 01-1.353.977H29.371a1.78 1.78 0 01-1.353-.902l9.095-8.344"/><path d="M65.152 24.597l-12.027 11.05-3.383 3.157c-.15.15-.376.3-.526.45a4.634 4.634 0 01-5.788 0c-.15-.15-.376-.3-.527-.45l-3.382-3.082-11.877-11.05c0-.075.075-.075.075-.15a1.533 1.533 0 011.203-.752h34.954a1.656 1.656 0 011.203.677c0 .075.075.075.075.15z"/></g></svg>