<svg viewBox="0 0 72 72" xmlns="http://www.w3.org/2000/svg"><path fill="#b3b3b3" d="M68 4v64H4V4h64m4-4H0v72h72V0z"/><path fill="none" stroke="#00a5ff" stroke-miterlimit="10" stroke-width=".1" d="M12.923 10.958h46.154A1.923 1.923 0 0161 12.881v46.154a1.923 1.923 0 01-1.923 1.923H12.923A1.923 1.923 0 0111 59.035V12.881a1.923 1.923 0 011.923-1.923z"/><rect x="16" y="4" rx="2.254" width="40" height="64" fill="none" stroke="#00a5ff" stroke-miterlimit="10" stroke-width=".1"/><rect x="16" y="4" rx="2.254" width="40" height="64" transform="rotate(90 36 36)" fill="none" stroke="#00a5ff" stroke-miterlimit="10" stroke-width=".1"/><circle cx="36" cy="36" r="29" fill="none" stroke="#00a5ff" stroke-miterlimit="10" stroke-width=".1"/><g stroke-linecap="round" stroke-miterlimit="10" stroke-width="6" stroke="#fff" fill="none" stroke-linejoin="round"><path d="M6 18h60v36H6z"/><path d="M44 43H22l11-11 6.998 6.998m-.201-5.795L45 28l15 15H44"/></g><path fill="#B1CC33" d="M6 41h60v13H6z"/><path fill="#5C9E31" d="M42 41h24v13H31z"/><path fill="#92D3F5" d="M6 18h60v23H6z"/><path fill="#61B2E4" d="M61 18h5v23H42z"/><path fill="#D0CFCE" d="M22 43l11-11 11 11z"/><path fill="#D0CFCE" d="M28.546 43.046l16.5-16.5L60.75 42.25z"/><g fill="none" stroke="#000" stroke-linecap="round" stroke-linejoin="round" stroke-miterlimit="10" stroke-width="2"><path d="M6 18h60v36H6z"/><path d="M44 43H22l11-11 6.998 6.998m-.201-5.795L45 28l15 15H44"/></g></svg>