<svg viewBox="0 0 72 72" xmlns="http://www.w3.org/2000/svg"><path fill="#b3b3b3" d="M68 4v64H4V4h64m4-4H0v72h72V0z"/><path fill="none" stroke="#00a5ff" stroke-miterlimit="10" stroke-width=".1" d="M12.923 10.958h46.154A1.923 1.923 0 0161 12.881v46.154a1.923 1.923 0 01-1.923 1.923H12.923A1.923 1.923 0 0111 59.035V12.881a1.923 1.923 0 011.923-1.923z"/><rect x="16" y="4" rx="2.254" width="40" height="64" fill="none" stroke="#00a5ff" stroke-miterlimit="10" stroke-width=".1"/><rect x="16" y="4" rx="2.254" width="40" height="64" transform="rotate(90 36 36)" fill="none" stroke="#00a5ff" stroke-miterlimit="10" stroke-width=".1"/><circle cx="36" cy="36" r="29" fill="none" stroke="#00a5ff" stroke-miterlimit="10" stroke-width=".1"/><g stroke-linecap="round" stroke-miterlimit="10" stroke-width="6" stroke="#fff" fill="none" stroke-linejoin="round"><path d="M45 66H27V28h9l9-3zM35 17.714C35 20.857 33.21 25 31 25s-4-4.143-4-7.286C27 11.887 31 9 31 6c0 3 4 5.429 4 11.714z"/><path d="M35 17.714C35 20.857 33.21 25 31 25s-4-4.143-4-7.286C27 11.887 31 9 31 6c0 3 4 5.429 4 11.714zM27 35h18m-9-7v3"/></g><path fill="#EA5A47" d="M45 66H27V28h9l9-3z"/><path fill="#D22F27" d="M33 66l12-33v33z"/><path fill="#D0CFCE" d="M45 25v11H27v-8h9zm-9 3v7"/><path fill="#F1B31C" d="M35 17.714C35 20.857 33.21 25 31 25s-4-4.143-4-7.286C27 11.887 31 9 31 6c0 3 4 5.429 4 11.714z"/><g fill="none" stroke="#000" stroke-linecap="round" stroke-linejoin="round" stroke-miterlimit="10" stroke-width="2"><path d="M45 66H27V28h9l9-3zM35 17.714C35 20.857 33.21 25 31 25s-4-4.143-4-7.286C27 11.887 31 9 31 6c0 3 4 5.429 4 11.714z"/><path d="M35 17.714C35 20.857 33.21 25 31 25s-4-4.143-4-7.286C27 11.887 31 9 31 6c0 3 4 5.429 4 11.714zM27 35h18m-9-7v3"/></g></svg>