<svg viewBox="0 0 72 72" xmlns="http://www.w3.org/2000/svg"><path fill="#b3b3b3" d="M68 4v64H4V4h64m4-4H0v72h72V0z"/><path fill="none" stroke="#00a5ff" stroke-miterlimit="10" stroke-width=".1" d="M12.923 10.958h46.154A1.923 1.923 0 0161 12.881v46.154a1.923 1.923 0 01-1.923 1.923H12.923A1.923 1.923 0 0111 59.035V12.881a1.923 1.923 0 011.923-1.923z"/><rect x="16" y="4" rx="2.254" width="40" height="64" fill="none" stroke="#00a5ff" stroke-miterlimit="10" stroke-width=".1"/><rect x="16" y="4" rx="2.254" width="40" height="64" transform="rotate(90 36 36)" fill="none" stroke="#00a5ff" stroke-miterlimit="10" stroke-width=".1"/><circle cx="36" cy="36" r="29" fill="none" stroke="#00a5ff" stroke-miterlimit="10" stroke-width=".1"/><g stroke-linecap="round" stroke-miterlimit="10" stroke-width="6" stroke="#fff" fill="none" stroke-linejoin="round"><path d="M58 61H14a3 3 0 01-3-3V14a3 3 0 013-3h44a3 3 0 013 3v44a3 3 0 01-3 3z"/><path d="M46.605 25.391A14.953 14.953 0 0151 36v0c0 8.284-6.716 15-15 15h0a14.953 14.953 0 01-10.599-4.385"/><circle cx="29.75" cy="36" r="3.75"/><circle cx="42.25" cy="36" r="3.75"/><circle cx="36" cy="36" r="15"/></g><path fill="#FFF" d="M57.041 61.067H14.866a3.912 3.912 0 01-3.913-3.913V14.98a3.912 3.912 0 013.913-3.912H57.04a3.912 3.912 0 013.912 3.912v42.175a3.912 3.912 0 01-3.912 3.913z"/><path fill="#D0CFCE" d="M12.102 59.906A3.738 3.738 0 0014.75 61h42.5A3.75 3.75 0 0061 57.25v-42.5a3.74 3.74 0 00-1.1-2.654l-47.798 47.81zM25.401 46.615A14.953 14.953 0 0121 36c0-8.284 6.716-15 15-15 4.141 0 7.89 1.678 10.605 4.391L25.4 46.615z"/><path fill="#D0CFCE" d="M46.605 25.391A14.953 14.953 0 0151 36c0 8.284-6.716 15-15 15a14.953 14.953 0 01-10.599-4.385"/><path fill="none" stroke="#000" stroke-linecap="round" stroke-linejoin="round" stroke-miterlimit="10" stroke-width="2" d="M58 61H14a3 3 0 01-3-3V14a3 3 0 013-3h44a3 3 0 013 3v44a3 3 0 01-3 3z"/><path fill="none" stroke="#000" stroke-linecap="round" stroke-linejoin="round" stroke-miterlimit="10" stroke-width="2" d="M46.605 25.391A14.953 14.953 0 0151 36v0c0 8.284-6.716 15-15 15h0a14.953 14.953 0 01-10.599-4.385"/><circle cx="29.75" cy="36" r="3.75"/><circle cx="42.25" cy="36" r="3.75"/><circle cx="36" cy="36" r="15" fill="none" stroke="#000" stroke-linecap="round" stroke-linejoin="round" stroke-miterlimit="10" stroke-width="2"/></svg>