<svg viewBox="0 0 72 72" xmlns="http://www.w3.org/2000/svg"><path fill="#B3B3B3" d="M68 4v64H4V4h64zm4-4H0v72h72V0z"/><path fill="none" stroke="#00A5FF" stroke-miterlimit="10" stroke-width=".1" d="M12.923 10.958h46.154A1.923 1.923 0 0161 12.881v46.154a1.923 1.923 0 01-1.923 1.923H12.923A1.923 1.923 0 0111 59.035V12.881a1.923 1.923 0 011.923-1.923v0z"/><path fill="none" stroke="#00A5FF" stroke-miterlimit="10" stroke-width=".1" d="M53.746 4H18.254A2.254 2.254 0 0016 6.254v59.492A2.254 2.254 0 0018.254 68h35.492A2.254 2.254 0 0056 65.746V6.254A2.254 2.254 0 0053.746 4z"/><path fill="none" stroke="#00A5FF" stroke-miterlimit="10" stroke-width=".1" d="M68 53.746V18.254A2.254 2.254 0 0065.746 16H6.254A2.254 2.254 0 004 18.254v35.492A2.254 2.254 0 006.254 56h59.492A2.254 2.254 0 0068 53.746z"/><path fill="none" stroke="#00A5FF" stroke-miterlimit="10" stroke-width=".1" d="M36 65c16.016 0 29-12.984 29-29S52.016 7 36 7 7 19.984 7 36s12.984 29 29 29z"/><path d="M12 12v-1a1 1 0 00-.996.91L12 12zm2.772 10.334l.93-.368-.93.368zM18 34h-1a1 1 0 001 1v-1zm.667-.009l.997.083a1 1 0 00-1.023-1.082l.026 1zm-1.716 20.594l-.996-.083.996.083zm37.717.103l-.998.063.998-.063zM52.313 17l.998-.062h0l-.998.062zm-.02-.312l-.998.063h0l.998-.063zm-.234-3.75l.998-.063v0l-.998.063zM12 13h9.42v-2H12v2zm3.701 8.966c-.778-1.96-1.515-3.821-2.031-5.528-.52-1.72-.78-3.18-.674-4.347l-1.992-.181c-.141 1.557.21 3.315.751 5.106.545 1.804 1.317 3.747 2.087 5.687l1.86-.737zM19 34c0-3.763-1.748-8.127-3.299-12.034l-1.859.737C15.442 26.733 17 30.702 17 34h2zm-.36-1.008A26.71 26.71 0 0118 33v2c.235 0 .466-.003.694-.01l-.053-1.998zm-.97.916l-1.715 20.594 1.993.166 1.716-20.594-1.993-.166zm-1.715 20.594A6 6 0 0021.934 61v-2a4 4 0 01-3.986-4.332l-1.993-.166zM21.934 61h27.744v-2H21.934v2zm27.744 0a6 6 0 005.988-6.374l-1.996.125A4 4 0 0149.678 59v2zm5.988-6.374l-2.355-37.688-1.996.124 2.355 37.689 1.996-.125zm-2.355-37.688l-.02-.312-1.996.125.02.311 1.996-.125zm-.02-.312l-.234-3.75L51.06 13l.234 3.75 1.996-.124zm-.234-3.75A2 2 0 0051.06 11v2l1.996-.125zM51.06 11h-3.758v2h3.758v-2zm-3.758 0H30.5v2h16.803v-2zM30.5 11h-5.4v2h5.4v-2zm-5.4 0h-3.68v2h3.68v-2zm-4.85 4l-1.542 18.5m35.792-12l-.07-1.927a2 2 0 011.998-2.073h8.26a2 2 0 011.98 2.287l-3.92 27A2 2 0 0160.77 48.5H58a2 2 0 01-2-2v-1.562" stroke-linecap="round" stroke-miterlimit="10" stroke-width="6" stroke="#fff" fill="none" stroke-linejoin="round"/><path fill="#d0cfce" fill-rule="evenodd" d="M21.42 12H13c-.248 2.726 1.224 6.435 2.772 10.334 1.28 3.225 2.611 6.58 3.065 9.62l-1.886 22.63A5 5 0 0021.934 60h27.744a5 5 0 004.99-5.312L52.313 17l-.02-.312-.234-3.75A1 1 0 0051.06 12H21.42z" clip-rule="evenodd"/><g fill="#9B9B9A"><path fill-rule="evenodd" d="M20.12 16.571l-.002.014-.035.415-3.132 37.585A5 5 0 0021.934 60h27.744a5 5 0 004.99-5.312L52.313 17l-.02-.312-.234-3.75A1 1 0 0051.06 12H21.42a1 1 0 00-.997.917l-.305 3.654z" clip-rule="evenodd"/><path d="M20.118 16.585l-.997-.083.997.083zm.001-.014l.996.086v-.003l-.996-.083zm-.036.429l.997.083-.997-.083zm-3.132 37.585l-.996-.083.996.083zm37.717.103l-.998.063.998-.063zM52.313 17l.998-.062-.998.062zm-.02-.312l-.998.063.998-.063zm-.234-3.75l.998-.063-.998.063zm-31.635-.021l.996.083-.996-.083zm.69 3.75l.001-.01-1.992-.172-.002.017 1.994.166zm-.034.416l.035-.415-1.994-.166-.034.415 1.993.166zm-3.132 37.585l3.132-37.585-1.993-.166-3.132 37.585 1.993.166zM21.934 59a4 4 0 01-3.986-4.332l-1.993-.166A6 6 0 0021.934 61v-2zm27.744 0H21.934v2h27.744v-2zm3.992-4.25A4 4 0 0149.678 59v2a6 6 0 005.988-6.374l-1.996.125zm-2.355-37.688l2.355 37.689 1.996-.125-2.355-37.688-1.996.124zm-.02-.312l.02.312 1.996-.124-.02-.312-1.996.124zM51.061 13l.234 3.75 1.996-.124-.234-3.75L51.06 13zm0 0l1.996-.125A2 2 0 0051.06 11v2zm-3.758 0h3.758v-2h-3.758v2zM25.1 13h22.202v-2H25.1v2zm-3.68 0h3.68v-2h-3.68v2zm0 0v-2a2 2 0 00-1.994 1.834L21.42 13zm-.305 3.654L21.42 13l-1.993-.166-.304 3.654 1.993.166z"/></g><path fill="#D0CFCE" fill-rule="evenodd" d="M30.526 16.28v.012L30.51 17l-.863 37.886A5 5 0 0034.646 60h.323a5 5 0 005-5.085L39.32 17l-.07-4.017a1 1 0 00-.999-.983H31.6a1 1 0 00-1 .977l-.075 3.303z" clip-rule="evenodd"/><path fill="#9B9B9A" d="M30.526 16.292l-1-.023 1 .023zm0-.012l1 .026v-.003l-1-.023zm-.016.72l1 .023-1-.023zm-.863 37.886l-1-.023 1 .023zm10.321.029l-1 .017 1-.017zM39.321 17l1-.017-1 .017zm-.07-4.017l1-.017-1 .017zm-8.65-.006l1 .023-1-.023zm.925 3.338v-.01l-2-.05v.015l2 .045zm-.016.708l.016-.708-2-.046-.016.708 2 .046zm-.863 37.886l.863-37.886-2-.046-.863 37.886 2 .046zM34.646 59a4 4 0 01-4-4.091l-1.999-.046A6 6 0 0034.646 61v-2zm.323 0h-.323v2h.323v-2zm4-4.068a4 4 0 01-4 4.068v2a6 6 0 006-6.102l-2 .034zm-.648-37.915l.648 37.915 2-.035-.649-37.914-2 .034zM38.252 13l.069 4.017 2-.034-.07-4.017-1.999.034zm0 0l2-.034a2 2 0 00-2-1.966v2zm-3.335 0h3.335v-2h-3.335v2zm-3.316 0h3.316v-2h-3.316v2zm0 0v-2a2 2 0 00-2 1.954l2 .046zm-.075 3.303L31.601 13l-2-.046-.074 3.303 2 .046z"/><g><path d="M12 12v-1a1 1 0 00-.996.91L12 12zm2.772 10.334l.93-.368-.93.368zM18 34h-1a1 1 0 001 1v-1zm.667-.009l.997.083a1 1 0 00-1.023-1.082l.026 1zm-1.716 20.594l-.996-.083.996.083zm37.717.103l-.998.063.998-.063zM52.313 17l.998-.062-.998.062zm-.02-.312l-.998.063.998-.063zm-.234-3.75l.998-.063-.998.063zM12 13h9.42v-2H12v2zm3.701 8.966c-.778-1.96-1.515-3.821-2.031-5.528-.52-1.72-.78-3.18-.674-4.347l-1.992-.181c-.141 1.557.21 3.315.751 5.106.545 1.804 1.317 3.747 2.087 5.687l1.86-.737zM19 34c0-3.763-1.748-8.127-3.299-12.034l-1.859.737C15.442 26.733 17 30.702 17 34h2zm-.36-1.008A26.71 26.71 0 0118 33v2c.235 0 .466-.003.694-.01l-.053-1.998zm-.97.916l-1.715 20.594 1.993.166 1.716-20.594-1.993-.166zm-1.715 20.594A6 6 0 0021.934 61v-2a4 4 0 01-3.986-4.332l-1.993-.166zM21.934 61h27.744v-2H21.934v2zm27.744 0a6 6 0 005.988-6.374l-1.996.125A4 4 0 0149.678 59v2zm5.988-6.374l-2.355-37.688-1.996.124 2.355 37.689 1.996-.125zm-2.355-37.688l-.02-.312-1.996.125.02.311 1.996-.125zm-.02-.312l-.234-3.75L51.06 13l.234 3.75 1.996-.124zm-.234-3.75A2 2 0 0051.06 11v2l1.996-.125zM51.06 11h-3.758v2h3.758v-2zm-3.758 0H30.5v2h16.803v-2zM30.5 11h-5.4v2h5.4v-2zm-5.4 0h-3.68v2h3.68v-2z"/><path fill="none" stroke="#000" stroke-linecap="round" stroke-width="2" d="M20.25 15l-1.542 18.5"/><path fill="none" stroke="#000" stroke-linecap="round" stroke-linejoin="round" stroke-width="2" d="M54.5 21.5l-.07-1.927a2 2 0 011.998-2.073h8.26a2 2 0 011.98 2.287l-3.92 27A2 2 0 0160.77 48.5H58a2 2 0 01-2-2v-1.562"/></g></svg>