<svg viewBox="0 0 72 72" xmlns="http://www.w3.org/2000/svg"><path fill="#b3b3b3" d="M68 4v64H4V4h64m4-4H0v72h72V0z"/><path fill="none" stroke="#00a5ff" stroke-miterlimit="10" stroke-width=".1" d="M12.923 10.958h46.154A1.923 1.923 0 0161 12.881v46.154a1.923 1.923 0 01-1.923 1.923H12.923A1.923 1.923 0 0111 59.035V12.881a1.923 1.923 0 011.923-1.923z"/><rect x="16" y="4" rx="2.254" ry="2.254" width="40" height="64" fill="none" stroke="#00a5ff" stroke-miterlimit="10" stroke-width=".1"/><rect x="16" y="4" rx="2.254" ry="2.254" width="40" height="64" transform="rotate(90 36 36)" fill="none" stroke="#00a5ff" stroke-miterlimit="10" stroke-width=".1"/><circle cx="36" cy="36" r="29" fill="none" stroke="#00a5ff" stroke-miterlimit="10" stroke-width=".1"/><g stroke-linecap="round" stroke-miterlimit="10" stroke-width="6" stroke="#fff" fill="none" stroke-linejoin="round"><path d="M9.71 20.228s22.12 3.16 26.3 15.804c5.063 12.664 26.28 15.742 26.28 15.742M38.404 32.009c7.19-10.565 23.886-11.783 23.886-11.783m-49.278 6.311a1.5 1.5 0 011.5 1.5v15.929a1.5 1.5 0 01-1.5 1.5h-.155a1.5 1.5 0 01-1.5-1.5v-15.93a1.5 1.5 0 011.5-1.5h.155m0-2h-.155a3.504 3.504 0 00-3.5 3.5v15.93a3.504 3.504 0 003.5 3.5h.155a3.504 3.504 0 003.5-3.5v-15.93a3.504 3.504 0 00-3.5-3.5z"/><path d="M23.528 29.166a1.5 1.5 0 011.5 1.5v10.67a1.5 1.5 0 01-1.5 1.5h-.155a1.5 1.5 0 01-1.5-1.5v-10.67a1.5 1.5 0 011.5-1.5h.155m0-2h-.155a3.504 3.504 0 00-3.5 3.5v10.67a3.504 3.504 0 003.5 3.5h.155a3.504 3.504 0 003.5-3.5v-10.67a3.504 3.504 0 00-3.5-3.5zm35.618-.628a1.5 1.5 0 011.5 1.5v15.929a1.5 1.5 0 01-1.5 1.5h-.155a1.5 1.5 0 01-1.5-1.5v-15.93a1.5 1.5 0 011.5-1.5h.155m0-2h-.155a3.504 3.504 0 00-3.5 3.5v15.93a3.504 3.504 0 003.5 3.5h.155a3.504 3.504 0 003.5-3.5v-15.93a3.504 3.504 0 00-3.5-3.5zM48.63 29.166a1.5 1.5 0 011.5 1.5v10.671a1.5 1.5 0 01-1.5 1.5h-.155a1.5 1.5 0 01-1.5-1.5v-10.67a1.5 1.5 0 011.5-1.5h.155m0-2h-.155a3.504 3.504 0 00-3.5 3.5v10.67a3.504 3.504 0 003.5 3.5h.155a3.504 3.504 0 003.5-3.5v-10.67a3.504 3.504 0 00-3.5-3.5zM33.596 39.991C26.406 50.556 9.71 51.774 9.71 51.774"/></g><rect x="11.357" y="26.537" rx="1.5" ry="1.5" width="3.155" height="18.929" fill="#92d3f5"/><rect x="21.873" y="29.166" rx="1.5" ry="1.5" width="3.155" height="13.671" fill="#b1cc33"/><rect x="57.492" y="26.538" rx="1.5" ry="1.5" width="3.155" height="18.929" fill="#92d3f5"/><rect x="46.975" y="29.166" rx="1.5" ry="1.5" width="3.155" height="13.671" fill="#b1cc33"/><g><path fill="none" stroke="#000" stroke-linecap="round" stroke-miterlimit="10" stroke-width="2" d="M9.71 20.228s22.12 3.16 26.3 15.804c5.063 12.664 26.28 15.742 26.28 15.742M38.404 32.009c7.19-10.565 23.886-11.783 23.886-11.783"/><path d="M13.012 26.537a1.5 1.5 0 011.5 1.5v15.929a1.5 1.5 0 01-1.5 1.5h-.155a1.5 1.5 0 01-1.5-1.5v-15.93a1.5 1.5 0 011.5-1.5h.155m0-2h-.155a3.504 3.504 0 00-3.5 3.5v15.93a3.504 3.504 0 003.5 3.5h.155a3.504 3.504 0 003.5-3.5v-15.93a3.504 3.504 0 00-3.5-3.5zm10.516 4.63a1.5 1.5 0 011.5 1.5v10.67a1.5 1.5 0 01-1.5 1.5h-.155a1.5 1.5 0 01-1.5-1.5v-10.67a1.5 1.5 0 011.5-1.5h.155m0-2h-.155a3.504 3.504 0 00-3.5 3.5v10.67a3.504 3.504 0 003.5 3.5h.155a3.504 3.504 0 003.5-3.5v-10.67a3.504 3.504 0 00-3.5-3.5zm35.618-.628a1.5 1.5 0 011.5 1.5v15.929a1.5 1.5 0 01-1.5 1.5h-.155a1.5 1.5 0 01-1.5-1.5v-15.93a1.5 1.5 0 011.5-1.5h.155m0-2h-.155a3.504 3.504 0 00-3.5 3.5v15.93a3.504 3.504 0 003.5 3.5h.155a3.504 3.504 0 003.5-3.5v-15.93a3.504 3.504 0 00-3.5-3.5zM48.63 29.166a1.5 1.5 0 011.5 1.5v10.671a1.5 1.5 0 01-1.5 1.5h-.155a1.5 1.5 0 01-1.5-1.5v-10.67a1.5 1.5 0 011.5-1.5h.155m0-2h-.155a3.504 3.504 0 00-3.5 3.5v10.67a3.504 3.504 0 003.5 3.5h.155a3.504 3.504 0 003.5-3.5v-10.67a3.504 3.504 0 00-3.5-3.5z"/><path fill="none" stroke="#000" stroke-linecap="round" stroke-miterlimit="10" stroke-width="2" d="M33.596 39.991C26.406 50.556 9.71 51.774 9.71 51.774"/></g></svg>