<svg viewBox="0 0 72 72" xmlns="http://www.w3.org/2000/svg"><path fill="#b3b3b3" d="M68 4v64H4V4h64m4-4H0v72h72V0z"/><path fill="none" stroke="#00a5ff" stroke-miterlimit="10" stroke-width=".1" d="M12.923 10.958h46.154A1.923 1.923 0 0161 12.881v46.154a1.923 1.923 0 01-1.923 1.923H12.923A1.923 1.923 0 0111 59.035V12.881a1.923 1.923 0 011.923-1.923z"/><rect x="16" y="4" rx="2.254" ry="2.254" width="40" height="64" fill="none" stroke="#00a5ff" stroke-miterlimit="10" stroke-width=".1"/><rect x="16" y="4" rx="2.254" ry="2.254" width="40" height="64" transform="rotate(90 36 36)" fill="none" stroke="#00a5ff" stroke-miterlimit="10" stroke-width=".1"/><circle cx="36" cy="36" r="29" fill="none" stroke="#00a5ff" stroke-miterlimit="10" stroke-width=".1"/><g stroke-linecap="round" stroke-miterlimit="10" stroke-width="6" stroke="#fff" fill="none" stroke-linejoin="round"><path d="M42.06 16.937v35.43a6.8 6.8 0 01-6.51 7.063 6.8 6.8 0 01-6.51-7.063V17.286"/><ellipse cx="35.543" cy="15.224" rx="7.393" ry="3.137"/><path d="M42.06 29.84v23.08a6.506 6.506 0 01-6.51 6.51 6.308 6.308 0 01-1.775-.249 6.5 6.5 0 01-4.735-6.261V29.84"/><path d="M29.277 30.894a14.053 14.053 0 006.273 1.314 15.907 15.907 0 002.959-.26l.225-.036a11.551 11.551 0 003.089-1.018"/></g><path fill="#5c9e31" d="M42.06 29.84v23.08a6.506 6.506 0 01-6.51 6.51 6.308 6.308 0 01-1.775-.249 6.5 6.5 0 01-4.735-6.261V29.84h.781l-.544 1.053a14.053 14.053 0 006.273 1.315 15.907 15.907 0 002.959-.26l.225-.036a11.551 11.551 0 003.089-1.018"/><path fill="#b1cc33" d="M28.294 30.894a14.053 14.053 0 006.273 1.314 15.907 15.907 0 002.958-.26V52.92a6.5 6.5 0 01-4.734 6.261 6.5 6.5 0 01-4.734-6.261V29.84"/><g fill="none" stroke="#000" stroke-width="2"><path stroke-linecap="round" stroke-linejoin="round" d="M42.06 16.937v35.43a6.8 6.8 0 01-6.51 7.063 6.8 6.8 0 01-6.51-7.063V17.286"/><ellipse cx="35.543" cy="15.224" rx="7.393" ry="3.137" stroke-miterlimit="10"/><path stroke-linecap="round" stroke-linejoin="round" d="M42.06 29.84v23.08a6.506 6.506 0 01-6.51 6.51 6.308 6.308 0 01-1.775-.249 6.5 6.5 0 01-4.735-6.261V29.84"/><path stroke-linecap="round" stroke-linejoin="round" d="M29.277 30.894a14.053 14.053 0 006.273 1.314 15.907 15.907 0 002.959-.26l.225-.036a11.551 11.551 0 003.089-1.018"/></g></svg>