<svg viewBox="0 0 72 72" xmlns="http://www.w3.org/2000/svg"><path fill="#b3b3b3" d="M68 4v64H4V4h64m4-4H0v72h72V0z"/><path fill="none" stroke="#00a5ff" stroke-miterlimit="10" stroke-width=".1" d="M12.923 10.958h46.154A1.923 1.923 0 0161 12.881v46.154a1.923 1.923 0 01-1.923 1.923H12.923A1.923 1.923 0 0111 59.035V12.881a1.923 1.923 0 011.923-1.923z"/><rect x="16" y="4" rx="2.254" width="40" height="64" fill="none" stroke="#00a5ff" stroke-miterlimit="10" stroke-width=".1"/><rect x="16" y="4" rx="2.254" width="40" height="64" transform="rotate(90 36 36)" fill="none" stroke="#00a5ff" stroke-miterlimit="10" stroke-width=".1"/><circle cx="36" cy="36" r="29" fill="none" stroke="#00a5ff" stroke-miterlimit="10" stroke-width=".1"/><g stroke-linecap="round" stroke-miterlimit="10" stroke-width="6" stroke="#fff" fill="none" stroke-linejoin="round"><path d="M49.302 32.588l7.673 5.465 2.303-2.236S46.837 16.442 32.675 16.442a16.392 16.392 0 00-16.627 16.146 16.392 16.392 0 0016.627 16.146 16.392 16.392 0 0016.627-16.146"/><path d="M12.722 55.558l5.543-10.764h28.82l5.542 10.764M32.675 44.794v10.764"/></g><path fill="#92d3f5" d="M17.974 37.97c2.308 5.382 8.322 10.764 14.7 10.764s11.912-5.645 14.7-10.764z"/><path fill="#61b2e4" d="M41.749 37.97c-2.46 4.516-6.973 9.914-12.4 10.618a17.218 17.218 0 002.217.146c6.379 0 14.129-5.645 16.917-10.764z"/><g><g fill="none" stroke="#000" stroke-linecap="round" stroke-linejoin="round" stroke-width="2"><path d="M49.302 32.588l7.673 5.465 2.303-2.236S46.837 16.442 32.675 16.442a16.392 16.392 0 00-16.627 16.146 16.392 16.392 0 0016.627 16.146 16.392 16.392 0 0016.627-16.146"/><path d="M12.722 55.558l5.543-10.764h28.82l5.542 10.764M32.675 44.794v10.764"/></g></g></svg>