<svg viewBox="0 0 72 72" xmlns="http://www.w3.org/2000/svg"><path fill="#b3b3b3" d="M68 4v64H4V4h64m4-4H0v72h72V0z"/><path fill="none" stroke="#00a5ff" stroke-miterlimit="10" stroke-width=".1" d="M12.923 10.958h46.154A1.923 1.923 0 0161 12.881v46.154a1.923 1.923 0 01-1.923 1.923H12.923A1.923 1.923 0 0111 59.035V12.881a1.923 1.923 0 011.923-1.923z"/><rect x="16" y="4" rx="2.254" ry="2.254" width="40" height="64" fill="none" stroke="#00a5ff" stroke-miterlimit="10" stroke-width=".1"/><rect x="16" y="4" rx="2.254" ry="2.254" width="40" height="64" transform="rotate(90 36 36)" fill="none" stroke="#00a5ff" stroke-miterlimit="10" stroke-width=".1"/><circle cx="36" cy="36" r="29" fill="none" stroke="#00a5ff" stroke-miterlimit="10" stroke-width=".1"/><g stroke-linecap="round" stroke-miterlimit="10" stroke-width="6" stroke="#fff" fill="none" stroke-linejoin="round"><path d="M59.035 32.456a4.943 4.943 0 010 6.983L39.492 58.983a4.944 4.944 0 01-6.984 0L12.965 39.439a4.943 4.943 0 010-6.983l19.543-19.544a4.944 4.944 0 016.984 0l19.543 19.544zm1.474-1.474L40.965 11.44a7.022 7.022 0 00-9.93 0L11.49 30.982a7.022 7.022 0 000 9.931l19.544 19.544a7.022 7.022 0 009.93 0L60.51 40.913a7.022 7.022 0 000-9.93z"/><circle cx="29.821" cy="25.573" r="2.31"/><path d="M25.82 46.332l3.482-7.008c-1.114-2.506-.906-7.914 0-8.8.231-.3 1.58-1.468 1.883 2.096l.854 5.367m.877 8.434l-.952-5.095m-3.442-8.082l-3.058 2.893"/><circle cx="42.179" cy="25.573" r="2.31"/><path d="M38.178 46.332l3.483-7.008c-1.115-2.506-.906-7.914 0-8.8.231-.3 1.58-1.468 1.883 2.096l.854 5.367m.877 8.434l-.952-5.095m-3.442-8.082l-3.058 2.893"/></g><path fill="#fcea2b" d="M59.474 32.473a5.07 5.07 0 010 7.164L39.427 59.683a5.07 5.07 0 01-7.163 0L12.217 39.636a5.07 5.07 0 010-7.164l20.047-20.047a5.071 5.071 0 017.163 0l20.047 20.047"/><path d="M59.035 32.456a4.943 4.943 0 010 6.983L39.492 58.983a4.944 4.944 0 01-6.984 0L12.965 39.439a4.943 4.943 0 010-6.983l19.543-19.544a4.944 4.944 0 016.984 0l19.543 19.544zm1.474-1.474L40.965 11.44a7.022 7.022 0 00-9.93 0L11.49 30.982a7.022 7.022 0 000 9.931l19.544 19.544a7.022 7.022 0 009.93 0L60.51 40.913a7.022 7.022 0 000-9.93z"/><circle cx="29.821" cy="25.573" r="2.31" fill="none" stroke="#000" stroke-miterlimit="10" stroke-width="2"/><path fill="none" stroke="#000" stroke-linecap="round" stroke-linejoin="round" stroke-width="2" d="M25.82 46.332l3.482-7.008c-1.114-2.506-.906-7.914 0-8.8.231-.3 1.58-1.468 1.883 2.096l.854 5.367m.877 8.434l-.952-5.095m-3.442-8.082l-3.058 2.893"/><circle cx="42.179" cy="25.573" r="2.31" fill="none" stroke="#000" stroke-miterlimit="10" stroke-width="2"/><path fill="none" stroke="#000" stroke-linecap="round" stroke-linejoin="round" stroke-width="2" d="M38.178 46.332l3.483-7.008c-1.115-2.506-.906-7.914 0-8.8.231-.3 1.58-1.468 1.883 2.096l.854 5.367m.877 8.434l-.952-5.095m-3.442-8.082l-3.058 2.893"/></svg>