<svg viewBox="0 0 72 72" xmlns="http://www.w3.org/2000/svg"><path fill="#b3b3b3" d="M68 4v64H4V4h64m4-4H0v72h72V0z"/><path fill="none" stroke="#00a5ff" stroke-miterlimit="10" stroke-width=".1" d="M12.923 10.958h46.154A1.923 1.923 0 0161 12.881v46.154a1.923 1.923 0 01-1.923 1.923H12.923A1.923 1.923 0 0111 59.035V12.881a1.923 1.923 0 011.923-1.923z"/><rect x="16" y="4" rx="2.254" ry="2.254" width="40" height="64" fill="none" stroke="#00a5ff" stroke-miterlimit="10" stroke-width=".1"/><rect x="16" y="4" rx="2.254" ry="2.254" width="40" height="64" transform="rotate(90 36 36)" fill="none" stroke="#00a5ff" stroke-miterlimit="10" stroke-width=".1"/><circle cx="36" cy="36" r="29" fill="none" stroke="#00a5ff" stroke-miterlimit="10" stroke-width=".1"/><g stroke-linecap="round" stroke-miterlimit="10" stroke-width="6" stroke="#fff" fill="none" stroke-linejoin="round"><circle cx="36" cy="36.001" r="23"/><path d="M22.59 41.145a6.002 6.002 0 0110.961-3.382l.752-.428a1.83 1.83 0 011.279-2.35l.026-.663a6.003 6.003 0 01-.268-11.955l-.217-1.02a7.987 7.987 0 00-6.342 11.341 7.996 7.996 0 00-7.355 7.97 8.73 8.73 0 00.64 3.138l.962-.397a5.984 5.984 0 01-.437-2.254zm23.813 5.179a6.003 6.003 0 01-8.393-7.818l-.64-.499a1.828 1.828 0 01-2.625.042l-.775.427a6.003 6.003 0 01-10.197 6.247l-.772.7a7.962 7.962 0 0012.985-.254 7.996 7.996 0 0010.575 2.407 8.731 8.731 0 002.402-2.117l-.824-.637a5.985 5.985 0 01-1.736 1.502zm3.107-9.662a7.986 7.986 0 00-6.234-3.982 7.931 7.931 0 00-3.243-10.296 8.727 8.727 0 00-3.034-1.026l-.14 1.031a6.003 6.003 0 01-.423 11.93l.054.666a1.83 1.83 0 011.282 2.35l.648.452a6.003 6.003 0 0110.496 5.73l.992.32a7.983 7.983 0 00-.398-7.175z"/><path d="M29.043 36.847a7.04 7.04 0 01.05-.838l-1.56-.063q-.043.422-.043.855a8.472 8.472 0 004.916 7.691l.895-1.221a6.974 6.974 0 01-4.259-6.424zm11.903-6.896a8.474 8.474 0 00-9.91-.043l.815 1.346a6.974 6.974 0 018.335.006zM44.394 36h-1.458a7.056 7.056 0 01.05.847 6.974 6.974 0 01-4.25 6.42l.83 1.202a8.472 8.472 0 004.866-7.668q0-.405-.038-.8z"/></g><circle cx="36" cy="36" r="23" fill="#f4aa41"/><circle cx="36" cy="36.001" r="23" fill="none" stroke="#000" stroke-linecap="round" stroke-linejoin="round" stroke-width="2"/><path d="M22.59 41.145a6.002 6.002 0 0110.961-3.382l.752-.428a1.83 1.83 0 011.279-2.35l.026-.663a6.003 6.003 0 01-.268-11.955l-.217-1.02a7.987 7.987 0 00-6.342 11.341 7.996 7.996 0 00-7.355 7.97 8.73 8.73 0 00.64 3.138l.962-.397a5.984 5.984 0 01-.437-2.254zm23.813 5.179a6.003 6.003 0 01-8.393-7.818l-.64-.499a1.828 1.828 0 01-2.625.042l-.775.427a6.003 6.003 0 01-10.197 6.247l-.772.7a7.962 7.962 0 0012.985-.254 7.996 7.996 0 0010.575 2.407 8.731 8.731 0 002.402-2.117l-.824-.637a5.985 5.985 0 01-1.736 1.502zm3.107-9.662a7.986 7.986 0 00-6.234-3.982 7.931 7.931 0 00-3.243-10.296 8.727 8.727 0 00-3.034-1.026l-.14 1.031a6.003 6.003 0 01-.423 11.93l.054.666a1.83 1.83 0 011.282 2.35l.648.452a6.003 6.003 0 0110.496 5.73l.992.32a7.983 7.983 0 00-.398-7.175z"/><path d="M29.043 36.847a7.04 7.04 0 01.05-.838l-1.56-.063q-.043.422-.043.855a8.472 8.472 0 004.916 7.691l.895-1.221a6.974 6.974 0 01-4.259-6.424zm11.903-6.896a8.474 8.474 0 00-9.91-.043l.815 1.346a6.974 6.974 0 018.335.006zM44.394 36h-1.458a7.056 7.056 0 01.05.847 6.974 6.974 0 01-4.25 6.42l.83 1.202a8.472 8.472 0 004.866-7.668q0-.405-.038-.8z"/></svg>