<svg viewBox="0 0 72 72" xmlns="http://www.w3.org/2000/svg"><path fill="#b3b3b3" d="M68 4v64H4V4h64m4-4H0v72h72V0z"/><path fill="none" stroke="#00a5ff" stroke-miterlimit="10" stroke-width=".1" d="M12.923 10.958h46.154A1.923 1.923 0 0161 12.881v46.154a1.923 1.923 0 01-1.923 1.923H12.923A1.923 1.923 0 0111 59.035V12.881a1.923 1.923 0 011.923-1.923z"/><rect x="16" y="4" rx="2.254" width="40" height="64" fill="none" stroke="#00a5ff" stroke-miterlimit="10" stroke-width=".1"/><rect x="16" y="4" rx="2.254" width="40" height="64" transform="rotate(90 36 36)" fill="none" stroke="#00a5ff" stroke-miterlimit="10" stroke-width=".1"/><circle cx="36" cy="36" r="29" fill="none" stroke="#00a5ff" stroke-miterlimit="10" stroke-width=".1"/><g stroke-linecap="round" stroke-miterlimit="10" stroke-width="6" stroke="#fff" fill="none" stroke-linejoin="round"><path d="M36 11c-13.807 0-25 11.193-25 25s11.193 25 25 25c13.806 0 25-11.193 25-25S49.806 11 36 11z"/><path d="M55.52 39.43c.198-1.127.308-2.283.308-3.466a19.97 19.97 0 00-.302-3.43H16.474a20.023 20.023 0 00-.302 3.43c0 1.183.11 2.34.308 3.466h39.04z"/></g><path fill="#ea5a47" d="M36 11c-13.807 0-25 11.193-25 25s11.193 25 25 25c13.806 0 25-11.193 25-25S49.806 11 36 11z"/><path fill="#FFF" d="M55.52 39.43c.198-1.127.308-2.283.308-3.466a19.97 19.97 0 00-.302-3.43H16.474a20.023 20.023 0 00-.302 3.43c0 1.183.11 2.34.308 3.466h39.04z"/><g fill="none" stroke="#000" stroke-linecap="round" stroke-linejoin="round" stroke-miterlimit="10" stroke-width="2"><path d="M36 11c-13.807 0-25 11.193-25 25s11.193 25 25 25c13.806 0 25-11.193 25-25S49.806 11 36 11z"/><path d="M55.52 39.43c.198-1.127.308-2.283.308-3.466a19.97 19.97 0 00-.302-3.43H16.474a20.023 20.023 0 00-.302 3.43c0 1.183.11 2.34.308 3.466h39.04z"/></g></svg>