<svg viewBox="0 0 72 72" xmlns="http://www.w3.org/2000/svg"><path fill="#b3b3b3" d="M68 4v64H4V4h64m4-4H0v72h72V0z"/><path fill="none" stroke="#00a5ff" stroke-miterlimit="10" stroke-width=".1" d="M12.923 10.958h46.154A1.923 1.923 0 0161 12.881v46.154a1.923 1.923 0 01-1.923 1.923H12.923A1.923 1.923 0 0111 59.035V12.881a1.923 1.923 0 011.923-1.923z"/><rect x="16" y="4" rx="2.254" width="40" height="64" fill="none" stroke="#00a5ff" stroke-miterlimit="10" stroke-width=".1"/><rect x="16" y="4" rx="2.254" width="40" height="64" transform="rotate(90 36 36)" fill="none" stroke="#00a5ff" stroke-miterlimit="10" stroke-width=".1"/><circle cx="36" cy="36" r="29" fill="none" stroke="#00a5ff" stroke-miterlimit="10" stroke-width=".1"/><g stroke-linecap="round" stroke-miterlimit="10" stroke-width="6" stroke="#fff" fill="none" stroke-linejoin="round"><path d="M41.773 19.473a7.218 7.218 0 01-5.695 9.864m5.695-9.864a6.054 6.054 0 01-5.695 9.864M22 22.381l1.854 1.325-.688-2.173L25 20.18l-2.279-.107L22 18l-.721 2.162L19 20.18l1.834 1.353-.688 2.173L22 22.381zm5 10.079l.618.442-.229-.724.611-.451-.76-.006L27 31l-.24.721-.76.006.611.361-.229.814.618-.442zm24.5-6.123l.927.663-.344-1.087.917-.676-1.14-.099-.36-.991-.36 1.081-1.14.009.917.676L50.573 27l.927-.663zM12.923 48.038h46.154M24 36.962L12 48.038m12-11.076v23.076m24 0V36.962m-24 4.26l-7.385 6.816M24 45.482l-2.769 2.556M48 36.962L36 48.038m12-6.816l-7.385 6.816M48 45.482l-2.769 2.556M24 36.962l12 11.076m-12-6.816l7.385 6.816M24 45.482l2.769 2.556M48 36.962l12 11.076M48 41.222l7.385 6.816M48 45.482l2.769 2.556"/><rect x="12" y="12" rx="1" width="48" height="48"/></g><g stroke="#000"><path d="M41.773 19.473a7.218 7.218 0 01-5.695 9.864m5.695-9.864a6.054 6.054 0 01-5.695 9.864" fill="none" stroke-linecap="round" stroke-miterlimit="10" stroke-width="2"/><path stroke-linejoin="round" stroke-width="2" d="M22 22.381l1.854 1.325-.688-2.173L25 20.18l-2.279-.107L22 18l-.721 2.162L19 20.18l1.834 1.353-.688 2.173L22 22.381z"/><path stroke-linejoin="round" stroke-width=".75" d="M27 32.46l.618.442-.229-.724.611-.451-.76-.006L27 31l-.24.721-.76.006.611.361-.229.814.618-.442z"/><path stroke-linejoin="round" d="M51.5 26.337l.927.663-.344-1.087.917-.676-1.14-.099-.36-.991-.36 1.081-1.14.009.917.676L50.573 27l.927-.663z"/></g><rect x="12" y="12" rx="1" width="48" height="48" fill="#1e50a0"/><g stroke="#f1b31c"><path d="M41.773 19.473a7.218 7.218 0 01-5.695 9.864m5.695-9.864a6.054 6.054 0 01-5.695 9.864" fill="none" stroke-linecap="round" stroke-miterlimit="10" stroke-width="2"/><path fill="#f1b31c" stroke-linejoin="round" stroke-width="2" d="M22 22.381l1.854 1.325-.688-2.173L25 20.18l-2.279-.107L22 18l-.721 2.162L19 20.18l1.834 1.353-.688 2.173L22 22.381z"/><path fill="#f1b31c" stroke-linejoin="round" stroke-width=".75" d="M27 32.46l.618.442-.229-.724.611-.451-.76-.006L27 31l-.24.721-.76.006.611.361-.229.814.618-.442z"/><path fill="#f1b31c" stroke-linejoin="round" d="M51.5 26.337l.927.663-.344-1.087.917-.676-1.14-.099-.36-.991-.36 1.081-1.14.009.917.676L50.573 27l.927-.663z"/></g><g><g fill="none" stroke="#000" stroke-width="2"><path stroke-linecap="round" stroke-miterlimit="10" d="M12.923 48.038h46.154M24 36.962L12 48.038"/><path stroke-miterlimit="10" d="M24 36.962v23.076m24 0V36.962M24 41.222l-7.385 6.816M24 45.482l-2.769 2.556"/><path stroke-linecap="round" stroke-miterlimit="10" d="M48 36.962L36 48.038"/><path d="M48 41.222l-7.385 6.816M48 45.482l-2.769 2.556" stroke-miterlimit="10"/><path stroke-linecap="round" stroke-miterlimit="10" d="M24 36.962l12 11.076"/><path d="M24 41.222l7.385 6.816M24 45.482l2.769 2.556" stroke-miterlimit="10"/><path stroke-linecap="round" stroke-miterlimit="10" d="M48 36.962l12 11.076"/><path d="M48 41.222l7.385 6.816M48 45.482l2.769 2.556" stroke-miterlimit="10"/><rect x="12" y="12" rx="1" width="48" height="48" stroke-linejoin="round"/></g></g></svg>