<svg viewBox="0 0 72 72" xmlns="http://www.w3.org/2000/svg"><path fill="#b3b3b3" d="M68 4v64H4V4h64m4-4H0v72h72V0z"/><path fill="none" stroke="#00a5ff" stroke-miterlimit="10" stroke-width=".1" d="M12.923 10.958h46.154A1.923 1.923 0 0161 12.881v46.154a1.923 1.923 0 01-1.923 1.923H12.923A1.923 1.923 0 0111 59.035V12.881a1.923 1.923 0 011.923-1.923z"/><rect x="16" y="4" rx="2.254" width="40" height="64" fill="none" stroke="#00a5ff" stroke-miterlimit="10" stroke-width=".1"/><rect x="16" y="4" rx="2.254" width="40" height="64" transform="rotate(90 36 36)" fill="none" stroke="#00a5ff" stroke-miterlimit="10" stroke-width=".1"/><circle cx="36" cy="36" r="29" fill="none" stroke="#00a5ff" stroke-miterlimit="10" stroke-width=".1"/><g stroke-linecap="round" stroke-miterlimit="10" stroke-width="6" stroke="#fff" fill="none" stroke-linejoin="round"><path d="M27 31l3-1 2 2 3-2 2 1 2-1 2 2 1-1m19.203 3.43A6.428 6.428 0 0167 41.193c0 4.83-3.864 5.796-5.797 5.796a3.539 3.539 0 01-3.864-3.864M21.593 28.634s-3.864-.967-6.763 0S10 31.532 10 36.361a11.572 11.572 0 002.898 7.73"/><path d="M16.763 45.057l2.898-10.627 1.932 4.831 5.797-15.458 2.488 2.995 5.434-14.347 2.705 5.555 2.898 9.661 1.932-3.864 2.899 12.559 2.898-6.762L51 40"/><path d="M19.661 44.091a6.428 6.428 0 00-5.797 6.763c0 4.83 3.865 5.796 5.797 5.796a3.539 3.539 0 003.864-3.864m1.933 3.864a7.246 7.246 0 005.796 2.898c3.865 0 6.763-3.864 6.763-4.83m1.933 2.899a4.186 4.186 0 003.864 1.932 5.175 5.175 0 004.83-4.83m-25.119-9.662c-1.932-1.932.967-8.695 6.763-8.695 2.898 0 8.695.966 8.695 6.763m2.898-2.898s3.865-1.932 6.763-.966a8.76 8.76 0 015.797 8.695 11.572 11.572 0 01-2.899 7.728m5.797-20.288c1.932-1.932-.966-8.695-6.763-8.695a10.77 10.77 0 00-6.6 1.993"/></g><path fill="none" stroke="#000" stroke-linecap="round" stroke-linejoin="round" stroke-width="2" d="M27 31l3-1 2 2 3-2 2 1 2-1 2 2 1-1"/><path fill="#3f3f3f" d="M16.763 45.057l2.898-10.627 1.932 4.831 5.797-15.458 2.488 2.995 5.434-14.347 2.705 5.555 2.898 9.661 1.932-3.864 2.899 12.559 2.898-6.762 2.898 15.457"/><path fill="#fff" d="M44.047 29l-3.132 1.566-2.898-.966-1.932-.967-3.865 1.933-1.932-1.933-2.898.967-1.242-2.485 1.242-3.312 2.488 2.995 5.434-14.347 2.705 5.555 2.898 9.661 1.932-3.864 1.2 5.197zm-5.685 11.227h3.52s3.864-1.932 6.762-.966a8.76 8.76 0 015.797 8.695 11.572 11.572 0 01-2.899 7.728l-3.355.84a5.014 5.014 0 01-4.373 3.025 4.186 4.186 0 01-3.865-1.933l-2.716-1.358a8.017 8.017 0 01-5.979 3.29 7.246 7.246 0 01-5.796-2.898l-2.483-1.655a3.676 3.676 0 01-3.314 1.655c-1.932 0-5.797-.966-5.797-5.797a6.428 6.428 0 015.797-6.762h3.357c-.626-2.6 2.221-7.73 7.27-7.73 2.325.001 6.507.629 8.074 3.866z"/><g fill="none" stroke="#000" stroke-linecap="round" stroke-width="2"><path stroke-linejoin="round" d="M61.203 34.43A6.428 6.428 0 0167 41.193c0 4.83-3.864 5.796-5.797 5.796a3.539 3.539 0 01-3.864-3.864M21.593 28.634s-3.864-.967-6.763 0S10 31.532 10 36.361a11.572 11.572 0 002.898 7.73m3.865.966l2.898-10.627 1.932 4.831 5.797-15.458 2.488 2.995 5.434-14.347 2.705 5.555 2.898 9.661 1.932-3.864 2.899 12.559 2.898-6.762L51 40"/><path stroke-linejoin="round" d="M19.661 44.091a6.428 6.428 0 00-5.797 6.763c0 4.83 3.865 5.796 5.797 5.796a3.539 3.539 0 003.864-3.864m1.933 3.864a7.246 7.246 0 005.796 2.898c3.865 0 6.763-3.864 6.763-4.83m1.933 2.899a4.186 4.186 0 003.864 1.932 5.175 5.175 0 004.83-4.83m-25.119-9.662c-1.932-1.932.967-8.695 6.763-8.695 2.898 0 8.695.966 8.695 6.763m2.898-2.898s3.865-1.932 6.763-.966a8.76 8.76 0 015.797 8.695 11.572 11.572 0 01-2.899 7.728"/><path stroke-miterlimit="10" d="M57.339 35.396c1.932-1.932-.966-8.695-6.763-8.695a10.77 10.77 0 00-6.6 1.993"/></g></svg>