<svg viewBox="0 0 72 72" xmlns="http://www.w3.org/2000/svg"><path fill="#b3b3b3" d="M68 4v64H4V4h64m4-4H0v72h72V0z"/><path fill="none" stroke="#00a5ff" stroke-miterlimit="10" stroke-width=".1" d="M12.923 10.958h46.154A1.923 1.923 0 0161 12.881v46.154a1.923 1.923 0 01-1.923 1.923H12.923A1.923 1.923 0 0111 59.035V12.881a1.923 1.923 0 011.923-1.923z"/><rect x="16" y="4" rx="2.254" width="40" height="64" fill="none" stroke="#00a5ff" stroke-miterlimit="10" stroke-width=".1"/><rect x="16" y="4" rx="2.254" width="40" height="64" transform="rotate(90 36 36)" fill="none" stroke="#00a5ff" stroke-miterlimit="10" stroke-width=".1"/><circle cx="36" cy="36" r="29" fill="none" stroke="#00a5ff" stroke-miterlimit="10" stroke-width=".1"/><g stroke-linecap="round" stroke-miterlimit="10" stroke-width="6" stroke="#fff" fill="none" stroke-linejoin="round"><path d="M48.5 16h-23a2 2 0 01-2-2h0a2 2 0 012-2h23a2 2 0 012 2h0a2 2 0 01-2 2zm0 44h-23a2 2 0 01-2-2h0a2 2 0 012-2h23a2 2 0 012 2h0a2 2 0 01-2 2zM26 16h22v40H26z"/><path d="M41.822 16L26 25v-4l8.462-5zM26 37l22-13v-4L26 33zm22-5L26 45v4l22-13zm0 12L27.692 56h6.77L48 48z"/><path d="M48 16h-6.178L26 25v8l22-13zm0 28L27.692 56H26v-7l22-13z"/></g><path fill="#D0CFCE" d="M48.5 16h-23a2 2 0 110-4h23a2 2 0 110 4zm0 44h-23a2 2 0 110-4h23a2 2 0 110 4z"/><path fill="#EA5A47" d="M26 16h22v40H26z"/><path fill="#FFF" d="M41.822 16L26 25v-4l8.462-5zM26 37l22-13v-4L26 33zm22-5L26 45v4l22-13zm0 12L27.692 56h6.77L48 48z"/><path fill="#92D3F5" d="M48 16h-6.178L26 25v8l22-13zm0 28L27.692 56H26v-7l22-13z"/><g fill="none" stroke="#000" stroke-linecap="round" stroke-linejoin="round" stroke-miterlimit="10" stroke-width="2"><path d="M48.5 16h-23a2 2 0 01-2-2h0a2 2 0 012-2h23a2 2 0 012 2h0a2 2 0 01-2 2zm0 44h-23a2 2 0 01-2-2h0a2 2 0 012-2h23a2 2 0 012 2h0a2 2 0 01-2 2zM26 16h22v40H26z"/><path d="M41.822 16L26 25v-4l8.462-5zM26 37l22-13v-4L26 33zm22-5L26 45v4l22-13zm0 12L27.692 56h6.77L48 48z"/><path d="M48 16h-6.178L26 25v8l22-13zm0 28L27.692 56H26v-7l22-13z"/></g></svg>