<svg viewBox="0 0 72 72" xmlns="http://www.w3.org/2000/svg"><path fill="#B3B3B3" d="M68 4v64H4V4h64m4-4H0v72h72V0z"/><path fill="none" stroke="#00A5FF" stroke-miterlimit="10" stroke-width=".1" d="M12.923 10.958h46.154c1.062 0 1.923.861 1.923 1.923v46.154a1.923 1.923 0 01-1.923 1.923H12.923A1.923 1.923 0 0111 59.035V12.881c0-1.062.861-1.923 1.923-1.923z"/><path fill="none" stroke="#00A5FF" stroke-miterlimit="10" stroke-width=".1" d="M18.254 4h35.492A2.254 2.254 0 0156 6.254v59.492A2.254 2.254 0 0153.746 68H18.254A2.254 2.254 0 0116 65.746V6.254A2.254 2.254 0 0118.254 4z"/><path fill="none" stroke="#00A5FF" stroke-miterlimit="10" stroke-width=".1" d="M6.254 16h59.492A2.254 2.254 0 0168 18.254v35.492A2.254 2.254 0 0165.746 56H6.254A2.254 2.254 0 014 53.746V18.254A2.254 2.254 0 016.254 16z"/><circle cx="36" cy="36" r="29" fill="none" stroke="#00A5FF" stroke-miterlimit="10" stroke-width=".1"/><g stroke-linecap="round" stroke-miterlimit="10" stroke-width="6" stroke="#fff" fill="none" stroke-linejoin="round"><path d="M20.648 30.028a6.283 6.283 0 012.66-3.643 6.28 6.28 0 014.32-1.375m23.376 6.077a7.163 7.163 0 00-8.51-1.17m.289 15.852c0 2.937-2.308 5.272-6.934 5.272s-6.964-2.342-6.964-5.272m.055 0s7.047 2.52 13.75.054m4.313-9.963a5.902 5.902 0 00-2.87-.922 7.476 7.476 0 00-3.18.775"/><circle cx="28.079" cy="35.309" r="3"/><circle cx="36" cy="36" r="23"/></g><circle cx="36" cy="36" r="23" fill="#FCEA2B"/><path fill="#EA5A47" d="M38.254 51.023l3.023-1.346 1.169-1.443.318-1.61-3.699.045h-9.968l1.314 3.008 3.159 1.346z"/><path fill="none" stroke="#000" stroke-linecap="round" stroke-linejoin="round" stroke-width="2" d="M20.648 30.028a6.283 6.283 0 012.66-3.643 6.28 6.28 0 014.32-1.375m23.376 6.077a7.163 7.163 0 00-8.51-1.17m.289 15.852c0 2.937-2.308 5.272-6.934 5.272s-6.964-2.342-6.964-5.272m.055 0s7.047 2.52 13.75.054m4.313-9.963a5.902 5.902 0 00-2.87-.922 7.476 7.476 0 00-3.18.775"/><circle cx="28.079" cy="35.309" r="3"/><circle cx="36" cy="36" r="23" fill="none" stroke="#000" stroke-linecap="round" stroke-linejoin="round" stroke-width="2"/></svg>