<svg viewBox="0 0 72 72" xmlns="http://www.w3.org/2000/svg"><path fill="#b3b3b3" d="M68 4v64H4V4h64m4-4H0v72h72V0z"/><rect x="11" y="10.958" rx="1.923" width="50" height="50" fill="none" stroke="#00a5ff" stroke-miterlimit="10" stroke-width=".1"/><rect x="16" y="4" rx="2.254" width="40" height="64" fill="none" stroke="#00a5ff" stroke-miterlimit="10" stroke-width=".1"/><rect x="16" y="4" rx="2.254" width="40" height="64" transform="rotate(90 36 36)" fill="none" stroke="#00a5ff" stroke-miterlimit="10" stroke-width=".1"/><circle cx="36" cy="36" r="29" fill="none" stroke="#00a5ff" stroke-miterlimit="10" stroke-width=".1"/><g stroke-linecap="round" stroke-miterlimit="10" stroke-width="6" stroke="#fff" fill="none" stroke-linejoin="round"><path d="M13.229 19.865h42.643m-43.795 32.27v-32.27m43.874 32.27h-42.8m0-32.27h42.8m-28.892 0v32.27m14.983-32.27v32.27m14.983-4.715h6.132m0 0V34.002"/><circle cx="63.157" cy="30.735" r="2.593"/><path d="M17.3 35.69v-1.992h4.536l-2.803 8.068m13.249-10.539v-1.992h4.537l-2.803 8.068m13.249-1.613v-1.992h4.537l-2.804 8.068m8.027-21.901v32.27"/></g><path fill="none" stroke="#9b9b9a" stroke-linecap="round" stroke-linejoin="round" stroke-width="2.305" d="M13.229 22.522h42.643M13.229 49.718h42.643"/><circle cx="63.484" cy="30.735" r="2.593" fill="#ea5a47"/><path fill="#d22f27" d="M64.512 28.184a2.59 2.59 0 01-3.58 3.579 2.592 2.592 0 103.58-3.58z"/><g stroke="#000"><path stroke-linecap="round" stroke-linejoin="round" stroke-width="2.305" d="M13.229 19.865h42.643"/><path fill="none" stroke-linecap="round" stroke-linejoin="round" stroke-width="2" d="M12.077 52.135v-32.27"/><path fill="none" stroke-linecap="round" stroke-linejoin="round" stroke-width="4.007" d="M55.951 52.135h-42.8m0-32.27h42.8"/><path fill="none" stroke-linecap="round" stroke-linejoin="round" stroke-width="2" d="M27.059 19.865v32.27m14.983-32.27v32.27m14.983-4.715h6.132m0 0V34.002"/><circle cx="63.157" cy="30.735" r="2.593" fill="none" stroke-miterlimit="10" stroke-width="1.297"/><path fill="none" stroke-linecap="round" stroke-linejoin="round" stroke-width="2" d="M17.3 35.69v-1.992h4.536l-2.803 8.068m13.249-10.539v-1.992h4.537l-2.803 8.068m13.249-1.613v-1.992h4.537l-2.804 8.068m8.027-21.901v32.27"/></g><g fill="none" stroke="#d22f27" stroke-linecap="round" stroke-linejoin="round" stroke-width="2"><path d="M17.3 35.69v-1.992h4.536l-2.803 8.068m13.249-10.539v-1.992h4.537l-2.803 8.068m13.249-1.613v-1.992h4.537l-2.804 8.068"/></g></svg>