<svg viewBox="0 0 72 72" xmlns="http://www.w3.org/2000/svg"><path fill="#B3B3B3" d="M68 4v64H4V4h64m4-4H0v72h72V0z"/><path fill="none" stroke="#00A5FF" stroke-miterlimit="10" stroke-width=".1" d="M12.9 11h46.2c1.1 0 1.9.9 1.9 1.9h0V59c0 1.1-.9 1.9-1.9 1.9H12.9c-1 .1-1.9-.8-1.9-1.9h0V12.9c0-1.1.9-1.9 1.9-1.9h0z"/><path fill="none" stroke="#00A5FF" stroke-miterlimit="10" stroke-width=".1" d="M18.3 4h35.5C55 4 56 5 56 6.3v59.5c0 1.2-1 2.3-2.3 2.3H18.3C17 68 16 67 16 65.7V6.3C16 5 17 4 18.3 4z"/><path fill="none" stroke="#00A5FF" stroke-miterlimit="10" stroke-width=".1" d="M68 18.3v35.5c0 1.2-1 2.3-2.3 2.3H6.3C5 56 4 55 4 53.7V18.3C4 17 5 16 6.3 16h59.5c1.2 0 2.2 1 2.2 2.3z"/><circle cx="36" cy="36" r="29" fill="none" stroke="#00A5FF" stroke-miterlimit="10" stroke-width=".1"/><g stroke-linecap="round" stroke-miterlimit="10" stroke-width="6" stroke="#fff" fill="none" stroke-linejoin="round"><circle cx="36" cy="32.8" r="22.2"/><circle cx="36" cy="32.8" r="22.2"/><path d="M18 56.6l-3 2.8c-.7.7-.3 1.9.8 1.9h39.5c1 0 1.5-1.2.8-1.9l-2.8-2.8"/><path d="M53.2 56.6l2.8 2.8c.7.7.2 1.9-.8 1.9"/></g><path fill="#3F3F3F" d="M50.1 55.5l-2.8-2.8c-.2-.2-.5-.3-.8-.3l-23.4-1.9c-.3 0-1.5 1.3-1.7 1.5l-2.5 2.4"/><path fill="#3F3F3F" d="M19.9 53.4l-5.7 5.3c-.7.7.5 2.6 1.5 2.6h39.5c1 0 1.5-1.2.8-1.9l-8.6-8.2"/><circle cx="36" cy="32.8" r="22.2" fill="#B399C8"/><path fill="#8967AA" d="M58.2 33c0 12.3-9.7 22.1-22 22.1 11.6-8 14.8-16.8 14.4-24.5 0-.3 0-.5-.1-.8-.2-1.7-.5-3.4-1.1-5-.1-.2-.1-.4-.2-.6-.7-2-1.7-3.8-2.7-5.4-.2-.3-.3-.5-.5-.7-.6-.9-1.3-1.8-2.1-2.5-.2-.2-.3-.4-.5-.5l-.6-.6c-.2-.2-.4-.3-.6-.5l-.3-.3c-.2-.2-.4-.3-.5-.4-.8-.6-1.7-1.2-2.5-1.6-.1-.1-.3-.1-.4-.2-.3-.1-.7-.3-1-.4-.2-.1-.4-.1-.5-.1h-.6.1c12.1.1 21.7 9.9 21.7 22z"/><path fill="none" stroke="#FFF" stroke-linecap="round" stroke-linejoin="round" stroke-miterlimit="10" stroke-width="2" d="M19.4 30.7c.1-.5.2-1.1.3-1.6m1.7-4.5c1.5-2.7 3.6-4.9 6.2-6.4"/><path d="M48.7 50.8c.1 0 .2.1.3.2l2.8 2.8 2.1 2.1 2.8 2.8c.7.7-.5 2.6-1.5 2.6h-13v-7.2"/><g fill="none" stroke="#000" stroke-linecap="round" stroke-miterlimit="10" stroke-width="2"><circle cx="36" cy="32.8" r="22.2" stroke-linejoin="round"/><circle cx="36" cy="32.8" r="22.2" stroke-linejoin="round"/><path d="M18 56.6l-3 2.8c-.7.7-.3 1.9.8 1.9h39.5c1 0 1.5-1.2.8-1.9l-2.8-2.8"/><path stroke-linejoin="round" d="M53.2 56.6l2.8 2.8c.7.7.2 1.9-.8 1.9"/></g></svg>