<svg viewBox="0 0 72 72" xmlns="http://www.w3.org/2000/svg"><path fill="#b3b3b3" d="M68 4v64H4V4h64m4-4H0v72h72V0z"/><rect x="11" y="10.958" rx="1.923" width="50" height="50" fill="none" stroke="#00a5ff" stroke-miterlimit="10" stroke-width=".1"/><rect x="16" y="4" rx="2.254" width="40" height="64" fill="none" stroke="#00a5ff" stroke-miterlimit="10" stroke-width=".1"/><rect x="16" y="4" rx="2.254" width="40" height="64" transform="rotate(90 36 36)" fill="none" stroke="#00a5ff" stroke-miterlimit="10" stroke-width=".1"/><circle cx="36" cy="36" r="29" fill="none" stroke="#00a5ff" stroke-miterlimit="10" stroke-width=".1"/><g stroke-linecap="round" stroke-miterlimit="10" stroke-width="6" stroke="#fff" fill="none" stroke-linejoin="round"><path d="M15.213 43.95c0-7.215 5.378-13.063 11.3-16.28"/><circle cx="35.232" cy="26.512" r="1.5"/><path d="M36.052 26.607a2 2 0 002.71 2.928m-4.35-2.928a2 2 0 01-2.709 2.928"/><circle cx="35.232" cy="21.93" r="10"/><path d="M24.501 50.285a14.695 14.695 0 01-2.269-7.905 14.184 14.184 0 016.804-12.31m-3.533-10.457a5 5 0 115.796-6.878m7.867-.002a5 5 0 115.796 6.88"/><circle cx="25.415" cy="57.15" r="6"/><ellipse cx="35.232" cy="27.351" rx="4.8" ry="4"/><circle cx="18.212" cy="43.949" r="3"/><path d="M38.898 57.08a15.121 15.121 0 01-7.134.049"/><circle cx="30.98" cy="19.984" r="2"/><circle cx="39.484" cy="19.984" r="2"/><path d="M55.252 43.95c0-7.215-5.379-13.063-11.301-16.28m2.012 22.615a14.695 14.695 0 002.27-7.905 14.184 14.184 0 00-6.804-12.31"/><circle cx="45.049" cy="57.15" r="6"/><circle cx="52.252" cy="43.949" r="3"/></g><path fill="#6a462f" d="M25.503 19.613a5 5 0 115.796-6.878m13.661 6.878a5 5 0 10-5.795-6.878"/><ellipse cx="35.232" cy="43.081" rx="12.5" ry="14" fill="#a57939"/><circle cx="25.415" cy="57.15" r="6" fill="#6a462f"/><circle cx="45.049" cy="57.15" r="6" fill="#6a462f"/><path fill="#a57939" d="M21.232 42.38l-5.881-.363 4.161-9.249 5.903-4.798 3.144 2.1-5.531 5.017-1.796 7.293zm28 0l5.882-.363-4.161-9.249-5.904-4.798-3.144 2.1 5.531 5.017 1.796 7.293z"/><circle cx="52.252" cy="43.949" r="3" fill="#6a462f"/><circle cx="18.212" cy="43.949" r="3" fill="#6a462f"/><circle cx="35.232" cy="21.93" r="10" fill="#a57939"/><ellipse cx="35.232" cy="27.351" rx="4.8" ry="4" fill="#6a462f"/><g><path fill="none" stroke="#000" stroke-linecap="round" stroke-linejoin="round" stroke-width="2" d="M15.213 43.95c0-7.215 5.378-13.063 11.3-16.28"/><circle cx="35.232" cy="26.512" r="1.5"/><path fill="none" stroke="#000" stroke-linecap="round" stroke-linejoin="round" d="M36.052 26.607a2 2 0 002.71 2.928m-4.35-2.928a2 2 0 01-2.709 2.928"/><circle cx="35.232" cy="21.93" r="10" fill="none" stroke="#000" stroke-linecap="round" stroke-linejoin="round" stroke-width="2"/><path fill="none" stroke="#000" stroke-linecap="round" stroke-linejoin="round" stroke-width="2" d="M24.501 50.285a14.695 14.695 0 01-2.269-7.905 14.184 14.184 0 016.804-12.31m-3.533-10.457a5 5 0 115.796-6.878m7.867-.002a5 5 0 115.796 6.88"/><circle cx="25.415" cy="57.15" r="6" fill="none" stroke="#000" stroke-linecap="round" stroke-linejoin="round" stroke-width="2"/><ellipse cx="35.232" cy="27.351" rx="4.8" ry="4" fill="none" stroke="#000" stroke-linecap="round" stroke-linejoin="round" stroke-width="2"/><circle cx="18.212" cy="43.949" r="3" fill="none" stroke="#000" stroke-linecap="round" stroke-linejoin="round" stroke-width="2"/><path fill="none" stroke="#000" stroke-linecap="round" stroke-linejoin="round" stroke-width="2" d="M38.898 57.08a15.121 15.121 0 01-7.134.049"/><circle cx="30.98" cy="19.984" r="2"/><circle cx="39.484" cy="19.984" r="2"/><path fill="none" stroke="#000" stroke-linecap="round" stroke-linejoin="round" stroke-width="2" d="M55.252 43.95c0-7.215-5.379-13.063-11.301-16.28m2.012 22.615a14.695 14.695 0 002.27-7.905 14.184 14.184 0 00-6.804-12.31"/><circle cx="45.049" cy="57.15" r="6" fill="none" stroke="#000" stroke-linecap="round" stroke-linejoin="round" stroke-width="2"/><circle cx="52.252" cy="43.949" r="3" fill="none" stroke="#000" stroke-linecap="round" stroke-linejoin="round" stroke-width="2"/></g></svg>