<svg viewBox="0 0 72 72" xmlns="http://www.w3.org/2000/svg"><path fill="#b3b3b3" d="M68 3.882v64H4v-64h64m4-4H0v72h72v-72z"/><path fill="none" stroke="#00a5ff" stroke-miterlimit="10" stroke-width=".1" d="M12.923 10.84h46.154A1.923 1.923 0 0161 12.765v46.154a1.923 1.923 0 01-1.923 1.923H12.923A1.923 1.923 0 0111 58.918V12.764a1.923 1.923 0 011.923-1.923z"/><rect x="16" y="3.882" rx="2.254" width="40" height="64" fill="none" stroke="#00a5ff" stroke-miterlimit="10" stroke-width=".1"/><rect x="16" y="3.882" rx="2.254" width="40" height="64" transform="rotate(90 36 35.882)" fill="none" stroke="#00a5ff" stroke-miterlimit="10" stroke-width=".1"/><circle cx="36" cy="35.882" r="29" fill="none" stroke="#00a5ff" stroke-miterlimit="10" stroke-width=".1"/><g stroke-linecap="round" stroke-miterlimit="10" stroke-width="6" stroke="#fff" fill="none" stroke-linejoin="round"><path d="M32.289 45.27l4.6-32.481-21.853-8.07-9.34 21.342L32.289 45.27M15.398 5.522L31.78 44.113M6.442 25.764l29.926-12.451"/><path d="M31.78 44.523s4.023 9.238 16.986 6.556c8.86-1.833 12.082 4.545 13.234 8.768a16.026 16.026 0 01.493 4.83"/></g><path fill="#ffa7c0" d="M15.036 4.719l-9.34 21.342L32.289 45.27l4.6-32.481-21.853-8.07z"/><path fill="#e67a94" d="M32.289 45.27l4.6-32.481-21.853-8.07"/><g fill="none" stroke="#000" stroke-linecap="round" stroke-linejoin="round" stroke-width="2"><path d="M32.289 45.27l4.6-32.481-21.853-8.07-9.34 21.342L32.289 45.27M15.398 5.522L31.78 44.113M6.442 25.764l29.926-12.451"/><path d="M31.78 44.523s4.023 9.238 16.986 6.556c8.86-1.833 12.082 4.545 13.234 8.768a16.026 16.026 0 01.493 4.83"/></g></svg>