<svg viewBox="0 0 72 72" xmlns="http://www.w3.org/2000/svg"><path fill="#b3b3b3" d="M68 4v64H4V4h64m4-4H0v72h72V0z"/><path fill="none" stroke="#00a5ff" stroke-miterlimit="10" stroke-width=".1" d="M12.923 10.958h46.154A1.923 1.923 0 0161 12.881v46.154a1.923 1.923 0 01-1.923 1.923H12.923A1.923 1.923 0 0111 59.035V12.881a1.923 1.923 0 011.923-1.923z"/><rect x="16" y="4" rx="2.254" width="40" height="64" fill="none" stroke="#00a5ff" stroke-miterlimit="10" stroke-width=".1"/><rect x="16" y="4" rx="2.254" width="40" height="64" transform="rotate(90 36 36)" fill="none" stroke="#00a5ff" stroke-miterlimit="10" stroke-width=".1"/><circle cx="36" cy="36" r="29" fill="none" stroke="#00a5ff" stroke-miterlimit="10" stroke-width=".1"/><g stroke-linecap="round" stroke-miterlimit="10" stroke-width="6" stroke="#fff" fill="none" stroke-linejoin="round"><circle cx="36" cy="17" r="10"/><path d="M21.534 29.337a2.019 2.019 0 000 4m9.266 2.309c0 10.967-11.857 23.574-13.872 24.454H36m5.25-23.203C42.083 47.55 53.133 59.254 55.072 60.1H36m16.047-26.763a2.019 2.019 0 000-4m-30.513 0h30.513m-30.513 4h30.513"/></g><path fill="#3f3f3f" d="M53.533 60.1H16.928L27.58 48.157l3.22-12.794 10.352 1.716 3.835 11.003L53.533 60.1z"/><path d="M43.531 45.449L53.533 60.1H40.586"/><path fill="#3f3f3f" d="M20.662 29.337h32.256v3.726H20.662z"/><circle cx="36" cy="17" r="10" fill="#3f3f3f"/><path d="M41.381 8.58a9.989 9.989 0 01-13.8 13.8 9.994 9.994 0 1013.8-13.8z"/><g fill="none" stroke="#000" stroke-linecap="round" stroke-linejoin="round" stroke-width="2"><circle cx="36" cy="17" r="10"/><path d="M21.534 29.337a2.019 2.019 0 000 4m9.266 2.309c0 10.967-11.857 23.574-13.872 24.454H36m5.25-23.203C42.083 47.55 53.133 59.254 55.072 60.1H36m16.047-26.763a2.019 2.019 0 000-4m-30.513 0h30.513m-30.513 4h30.513"/></g></svg>