<svg viewBox="0 0 72 72" xmlns="http://www.w3.org/2000/svg"><path fill="#B3B3B3" d="M68 4v64H4V4h64m4-4H0v72h72V0z"/><path fill="none" stroke="#00A5FF" stroke-miterlimit="10" stroke-width=".1" d="M12.9 11h46.2c1.1 0 1.9.9 1.9 1.9V59c0 1.1-.9 1.9-1.9 1.9H12.9c-1 .1-1.9-.8-1.9-1.9V12.9c0-1.1.9-1.9 1.9-1.9z"/><path fill="none" stroke="#00A5FF" stroke-miterlimit="10" stroke-width=".1" d="M18.3 4h35.5C55 4 56 5 56 6.3v59.5c0 1.2-1 2.3-2.3 2.3H18.3C17 68 16 67 16 65.7V6.3C16 5 17 4 18.3 4z"/><path fill="none" stroke="#00A5FF" stroke-miterlimit="10" stroke-width=".1" d="M68 18.3v35.5c0 1.2-1 2.3-2.3 2.3H6.3C5 56 4 55 4 53.7V18.3C4 17 5 16 6.3 16h59.5c1.2 0 2.2 1 2.2 2.3z"/><circle cx="36" cy="36" r="29" fill="none" stroke="#00A5FF" stroke-miterlimit="10" stroke-width=".1"/><g stroke-linecap="round" stroke-miterlimit="10" stroke-width="6" stroke="#fff" fill="none" stroke-linejoin="round"><path d="M39.4 52.1c.8 3.6 5.4 9.3 7.3 10.1H25.3c1.9-.8 6.6-6.6 7.3-10.1"/><path d="M12.3 42c0 7 5.6 12.6 12.6 12.6 4.8 0 9-2.7 11.1-6.6 2.1 3.9 6.3 6.6 11.1 6.6 7 0 12.6-5.6 12.6-12.6 0-3-1-5.7-2.8-7.9h0L36 8.1l-20.9 26h0c-1.8 2.1-2.8 4.9-2.8 7.9z"/></g><g fill="#3F3F3F"><path d="M39.4 51.9c.8 3.6 5.4 9.5 7.3 10.3H25.3c1.9-.8 6.6-6.8 7.3-10.3L36 48l3.4 3.9z"/><path d="M12.3 42c0 7 5.6 12.6 12.6 12.6 4.8 0 9-2.7 11.1-6.6 2.1 3.9 6.3 6.6 11.1 6.6 7 0 12.6-5.6 12.6-12.6 0-3-1-5.7-2.8-7.9L36 8.1l-20.9 26c-1.8 2.1-2.8 4.9-2.8 7.9z"/></g><g fill="none" stroke="#000" stroke-linecap="round" stroke-linejoin="round" stroke-width="2"><path d="M39.4 52.1c.8 3.6 5.4 9.3 7.3 10.1H25.3c1.9-.8 6.6-6.6 7.3-10.1"/><path d="M12.3 42c0 7 5.6 12.6 12.6 12.6 4.8 0 9-2.7 11.1-6.6 2.1 3.9 6.3 6.6 11.1 6.6 7 0 12.6-5.6 12.6-12.6 0-3-1-5.7-2.8-7.9h0L36 8.1l-20.9 26h0c-1.8 2.1-2.8 4.9-2.8 7.9z"/></g></svg>