<svg viewBox="0 0 72 72" xmlns="http://www.w3.org/2000/svg"><path fill="#B3B3B3" d="M68 4v64H4V4h64m4-4H0v72h72V0z"/><path fill="none" stroke="#00A5FF" stroke-miterlimit="10" stroke-width=".1" d="M12.9 11h46.2c1.1 0 1.9.9 1.9 1.9V59c0 1.1-.9 1.9-1.9 1.9H12.9c-1 .1-1.9-.8-1.9-1.9V12.9c0-1.1.9-1.9 1.9-1.9z"/><path fill="none" stroke="#00A5FF" stroke-miterlimit="10" stroke-width=".1" d="M18.3 4h35.5C55 4 56 5 56 6.3v59.5c0 1.2-1 2.3-2.3 2.3H18.3C17 68 16 67 16 65.7V6.3C16 5 17 4 18.3 4z"/><path fill="none" stroke="#00A5FF" stroke-miterlimit="10" stroke-width=".1" d="M68 18.3v35.5c0 1.2-1 2.3-2.3 2.3H6.3C5 56 4 55 4 53.7V18.3C4 17 5 16 6.3 16h59.5c1.2 0 2.2 1 2.2 2.3z"/><circle cx="36" cy="36" r="29" fill="none" stroke="#00A5FF" stroke-miterlimit="10" stroke-width=".1"/><g stroke-linecap="round" stroke-miterlimit="10" stroke-width="6" stroke="#fff" fill="none" stroke-linejoin="round"><path d="M38.7 38.8c1.2 7.9 7 20.5 8.9 21.3H36.2h0-11.3c2-.9 8.4-15.1 9-22.8"/><circle cx="36.2" cy="19.6" r="11.5"/><circle cx="53.4" cy="36.7" r="11.5"/><circle cx="19" cy="36.7" r="11.5"/></g><g fill="#3F3F3F"><circle cx="19" cy="36.7" r="11.5"/><circle cx="36.2" cy="19.6" r="11.5"/><circle cx="53.4" cy="36.7" r="11.5"/><path d="M38.7 38.8c1.2 7.9 7 20.5 8.9 21.3H24.9c2-.9 8.4-15.1 9-22.8l.3-.9 4.8 1.5-.3.9z"/></g><g fill="none" stroke="#000" stroke-linecap="round" stroke-linejoin="round" stroke-width="2"><path d="M38.7 38.8c1.2 7.9 7 20.5 8.9 21.3H36.2h0-11.3c2-.9 8.4-15.1 9-22.8"/><circle cx="36.2" cy="19.6" r="11.5"/><circle cx="53.4" cy="36.7" r="11.5"/><circle cx="19" cy="36.7" r="11.5"/></g></svg>