<svg viewBox="0 0 72 72" xmlns="http://www.w3.org/2000/svg"><path fill="#B3B3B3" d="M68 4v64H4V4h64m4-4H0v72h72V0z"/><path fill="none" stroke="#00A5FF" stroke-miterlimit="10" stroke-width=".1" d="M12.9 11h46.2c1.1 0 1.9.9 1.9 1.9h0V59c0 1.1-.9 1.9-1.9 1.9H12.9c-1 .1-1.9-.8-1.9-1.9h0V12.9c0-1.1.9-1.9 1.9-1.9h0z"/><path fill="none" stroke="#00A5FF" stroke-miterlimit="10" stroke-width=".1" d="M18.3 4h35.5C55 4 56 5 56 6.3v59.5c0 1.2-1 2.3-2.3 2.3H18.3C17 68 16 67 16 65.7V6.3C16 5 17 4 18.3 4z"/><path fill="none" stroke="#00A5FF" stroke-miterlimit="10" stroke-width=".1" d="M68 18.3v35.5c0 1.2-1 2.3-2.3 2.3H6.3C5 56 4 55 4 53.7V18.3C4 17 5 16 6.3 16h59.5c1.2 0 2.2 1 2.2 2.3z"/><circle cx="36" cy="36" r="29" fill="none" stroke="#00A5FF" stroke-miterlimit="10" stroke-width=".1"/><path d="M60.7 26.2c0-7.2-5.9-13.1-13.1-13.1-5 0-9.3 2.8-11.5 6.9-2.2-4.1-6.6-6.9-11.5-6.9-7.2 0-13.1 5.9-13.1 13.1 0 3.1 1.1 6 2.9 8.2h0l21.8 27 21.8-27h0c1.6-2.2 2.7-5 2.7-8.2z" stroke-linecap="round" stroke-miterlimit="10" stroke-width="6" stroke="#fff" fill="none" stroke-linejoin="round"/><path fill="#EA5A47" d="M60.7 26.2c0-7.2-5.9-13.1-13.1-13.1-5 0-9.3 2.8-11.5 6.9-2.2-4.1-6.6-6.9-11.5-6.9-7.2 0-13.1 5.9-13.1 13.1 0 3.1 1.1 6 2.9 8.2l21.8 27 21.8-27c1.6-2.2 2.7-5 2.7-8.2z"/><path fill="none" stroke="#000" stroke-linecap="round" stroke-linejoin="round" stroke-width="2" d="M60.7 26.2c0-7.2-5.9-13.1-13.1-13.1-5 0-9.3 2.8-11.5 6.9-2.2-4.1-6.6-6.9-11.5-6.9-7.2 0-13.1 5.9-13.1 13.1 0 3.1 1.1 6 2.9 8.2h0l21.8 27 21.8-27h0c1.6-2.2 2.7-5 2.7-8.2z"/></svg>