<svg viewBox="0 0 72 72" xmlns="http://www.w3.org/2000/svg">
  <path fill="#b3b3b3" d="M68 4v64H4V4h64m4-4H0v72h72V0z"/>
  <path fill="none" stroke="#00a5ff" stroke-miterlimit="10" stroke-width="0.1" d="M12.92 10.96h46.15a1.923 1.923 0 011.923 1.923v46.15a1.923 1.923 0 01-1.923 1.923H12.92a1.923 1.923 0 01-1.923-1.923v-46.15a1.923 1.923 0 011.923-1.923z"/>
  <rect x="16" y="4" rx="2.254" width="40" height="64" fill="none" stroke="#00a5ff" stroke-miterlimit="10" stroke-width="0.1"/>
  <rect x="16" y="4" rx="2.254" width="40" height="64" transform="rotate(90 36 36)" fill="none" stroke="#00a5ff" stroke-miterlimit="10" stroke-width="0.1"/>
  <circle cx="36" cy="36" r="29" fill="none" stroke="#00a5ff" stroke-miterlimit="10" stroke-width="0.1"/>
  <g fill="none" stroke="#fff" stroke-linecap="round" stroke-linejoin="round" stroke-miterlimit="10" stroke-width="6">
    <path d="M43.02 48.48a10.832 10.832 0 01-7.212 2.734c-5.999 0-10.87-4.865-10.87-10.87v-8.693 8.693-8.693c0-6.003 4.869-10.87 10.87-10.87 2.769 0 5.295 1.035 7.212 2.734" clip-rule="evenodd"/>
    <circle cx="36" cy="36" r="26.68"/>
    <path d="M54.49 54.46L18.03 18l.458-.458"/>
  </g>
  <circle cx="36" cy="36" r="26.68" fill="#fff" fill-rule="evenodd"/>
  <g fill="none" stroke="#000" stroke-linejoin="round">
    <path stroke-linecap="round" stroke-miterlimit="10" stroke-width="8.693" d="M43.02 48.48a10.832 10.832 0 01-7.212 2.734c-5.999 0-10.87-4.865-10.87-10.87v-8.693 8.693-8.693c0-6.003 4.869-10.87 10.87-10.87 2.769 0 5.295 1.035 7.212 2.734" clip-rule="evenodd"/>
    <circle cx="36" cy="36" r="26.68" stroke-linecap="round" stroke-width="4.74"/>
    <path stroke-width="4.74" d="M54.49 54.46L18.03 18l.458-.458"/>
  </g>
</svg>
