<svg viewBox="0 0 72 72" xmlns="http://www.w3.org/2000/svg">
  <path fill="#b3b3b3" d="M68 4v64H4V4h64m4-4H0v72h72V0z"/>
  <path fill="none" stroke="#00a5ff" stroke-miterlimit="10" stroke-width="0.1" d="M12.92 10.96h46.15a1.923 1.923 0 011.923 1.923v46.15a1.923 1.923 0 01-1.923 1.923H12.92a1.923 1.923 0 01-1.923-1.923v-46.15a1.923 1.923 0 011.923-1.923z"/>
  <rect x="16" y="4" rx="2.254" width="40" height="64" fill="none" stroke="#00a5ff" stroke-miterlimit="10" stroke-width="0.1"/>
  <rect x="16" y="4" rx="2.254" width="40" height="64" transform="rotate(90 36 36)" fill="none" stroke="#00a5ff" stroke-miterlimit="10" stroke-width="0.1"/>
  <circle cx="36" cy="36" r="29" fill="none" stroke="#00a5ff" stroke-miterlimit="10" stroke-width="0.1"/>
  <g fill="none" stroke="#fff" stroke-linecap="round" stroke-linejoin="round" stroke-miterlimit="10" stroke-width="6">
    <path d="M52.34 44.08a7.302 7.302 0 01-12.146-5.464v-5.84 5.84-5.84a7.302 7.302 0 0112.146-5.464M31.78 44.69a7.302 7.302 0 01-12.146-5.464v-5.84 5.84-5.84a7.302 7.302 0 0112.146-5.464" clip-rule="evenodd"/>
    <circle cx="36" cy="36" r="26.68"/>
  </g>
  <circle cx="36" cy="36" r="26.68" fill="#fff" fill-rule="evenodd"/>
  <g fill="none" stroke="#000" stroke-linecap="round" stroke-linejoin="round">
    <path stroke-miterlimit="10" stroke-width="5.84" d="M52.34 44.08a7.302 7.302 0 01-12.146-5.464v-5.84 5.84-5.84a7.302 7.302 0 0112.146-5.464M31.78 44.69a7.302 7.302 0 01-12.146-5.464v-5.84 5.84-5.84a7.302 7.302 0 0112.146-5.464" clip-rule="evenodd"/>
    <circle cx="36" cy="36" r="26.68" stroke-width="4.74"/>
  </g>
</svg>
