<svg viewBox="0 0 72 72" xmlns="http://www.w3.org/2000/svg">
  <path fill="#b3b3b3" d="M68 4v64H4V4h64m4-4H0v72h72V0z"/>
  <path fill="none" stroke="#00a5ff" stroke-miterlimit="10" stroke-width="0.1" d="M12.923 10.958h46.154A1.923 1.923 0 0161 12.881v46.154a1.923 1.923 0 01-1.923 1.923H12.923A1.923 1.923 0 0111 59.035V12.881a1.923 1.923 0 011.923-1.923z"/>
  <rect x="16" y="4" rx="2.254" width="40" height="64" fill="none" stroke="#00a5ff" stroke-miterlimit="10" stroke-width="0.1"/>
  <rect x="16" y="4" rx="2.254" width="40" height="64" transform="rotate(90 36 36)" fill="none" stroke="#00a5ff" stroke-miterlimit="10" stroke-width="0.1"/>
  <circle cx="36" cy="36" r="29" fill="none" stroke="#00a5ff" stroke-miterlimit="10" stroke-width="0.1"/>
  <g fill="none" stroke="#fff" stroke-linecap="round" stroke-linejoin="round" stroke-miterlimit="10" stroke-width="6">
    <path d="M59.035 60h-46.07a.968.968 0 01-.965-.965v-46.07c0-.53.434-.965.965-.965h46.07c.53 0 .965.434.965.965v46.07c0 .53-.434.965-.965.965z"/>
    <path d="M36.5 39.471h0a2.857 2.857 0 01-2.857-2.857v-2.286a2.857 2.857 0 012.857-2.857h0a2.857 2.857 0 012.857 2.857v2.286a2.857 2.857 0 01-2.857 2.857zm-6.516-6.409c-.234-.91-1.246-1.595-2.458-1.595h0c-1.386 0-2.51.894-2.51 1.998 0 1.103 1.123 1.998 2.51 1.998l-.051.007c1.386 0 2.51.895 2.51 1.998 0 1.104-1.124 1.998-2.51 1.998h0c-1.213 0-2.225-.684-2.459-1.595m22.968-4.809c-.234-.91-1.246-1.595-2.458-1.595h0c-1.387 0-2.51.894-2.51 1.998s1.123 1.998 2.51 1.998l-.052.007c1.387 0 2.51.895 2.51 1.998 0 1.104-1.123 1.998-2.51 1.998h0c-1.212 0-2.224-.684-2.458-1.595"/>
  </g>
  <path fill="#D22F27" d="M59.035 60h-46.07a.968.968 0 01-.965-.965v-46.07c0-.53.434-.965.965-.965h46.07c.53 0 .965.434.965.965v46.07c0 .53-.434.965-.965.965z"/>
  <g fill="none" stroke="#000" stroke-miterlimit="10" stroke-width="2">
    <path d="M59.035 60h-46.07a.968.968 0 01-.965-.965v-46.07c0-.53.434-.965.965-.965h46.07c.53 0 .965.434.965.965v46.07c0 .53-.434.965-.965.965z"/>
    <path stroke-linecap="round" stroke-linejoin="round" d="M36.5 39.471h0a2.857 2.857 0 01-2.857-2.857v-2.286a2.857 2.857 0 012.857-2.857h0a2.857 2.857 0 012.857 2.857v2.286a2.857 2.857 0 01-2.857 2.857zm-6.516-6.409c-.234-.91-1.246-1.595-2.458-1.595h0c-1.386 0-2.51.894-2.51 1.998 0 1.103 1.123 1.998 2.51 1.998l-.051.007c1.386 0 2.51.895 2.51 1.998 0 1.104-1.124 1.998-2.51 1.998h0c-1.213 0-2.225-.684-2.459-1.595m22.968-4.809c-.234-.91-1.246-1.595-2.458-1.595h0c-1.387 0-2.51.894-2.51 1.998s1.123 1.998 2.51 1.998l-.052.007c1.387 0 2.51.895 2.51 1.998 0 1.104-1.123 1.998-2.51 1.998h0c-1.212 0-2.224-.684-2.458-1.595"/>
  </g>
</svg>
