<svg viewBox="0 0 72 72" xmlns="http://www.w3.org/2000/svg">
  <path fill="#b3b3b3" d="M68 4v64H4V4h64m4-4H0v72h72V0z"/>
  <path fill="none" stroke="#00a5ff" stroke-miterlimit="10" stroke-width="0.1" d="M12.923 10.958h46.154A1.923 1.923 0 0161 12.881v46.154a1.923 1.923 0 01-1.923 1.923H12.923A1.923 1.923 0 0111 59.035V12.881a1.923 1.923 0 011.923-1.923z"/>
  <rect x="16" y="4" rx="2.254" width="40" height="64" fill="none" stroke="#00a5ff" stroke-miterlimit="10" stroke-width="0.1"/>
  <rect x="16" y="4" rx="2.254" width="40" height="64" transform="rotate(90 36 36)" fill="none" stroke="#00a5ff" stroke-miterlimit="10" stroke-width="0.1"/>
  <circle cx="36" cy="36" r="29" fill="none" stroke="#00a5ff" stroke-miterlimit="10" stroke-width="0.1"/>
  <g fill="none" stroke="#fff" stroke-linecap="round" stroke-linejoin="round" stroke-miterlimit="10" stroke-width="6">
    <path d="M59.035 60h-46.07a.968.968 0 01-.965-.965v-46.07a.968.968 0 01.965-.965h46.07a.968.968 0 01.965.965v46.07a.968.968 0 01-.965.965z"/>
    <path d="M30.426 30.015v6.75a3.75 3.75 0 01-3.75 3.75h0a3.75 3.75 0 01-3.75-3.75v-6.75M35.648 40.47v-10.5h4.003a2.615 2.615 0 012.616 2.615h0A2.615 2.615 0 0139.65 35.2h-4.003m14.222-5.23v6.486"/>
    <circle cx="49.869" cy="40.47" r="1.5"/>
  </g>
  <path fill="#92d3f5" d="M59.035 60h-46.07a.968.968 0 01-.965-.965v-46.07a.968.968 0 01.965-.965h46.07a.968.968 0 01.965.965v46.07a.968.968 0 01-.965.965z"/>
  <path fill="none" stroke="#000" stroke-miterlimit="10" stroke-width="2" d="M59.035 60h-46.07a.968.968 0 01-.965-.965v-46.07a.968.968 0 01.965-.965h46.07a.968.968 0 01.965.965v46.07a.968.968 0 01-.965.965z"/>
  <path fill="none" stroke="#000" stroke-linecap="round" stroke-linejoin="round" stroke-width="2" d="M30.426 30.015v6.75a3.75 3.75 0 01-3.75 3.75h0a3.75 3.75 0 01-3.75-3.75v-6.75M35.648 40.47v-10.5h4.003a2.615 2.615 0 012.616 2.615h0A2.615 2.615 0 0139.65 35.2h-4.003m14.222-5.23v6.486"/>
  <circle cx="49.869" cy="40.47" r="1.5"/>
</svg>
