<svg viewBox="0 0 72 72" xmlns="http://www.w3.org/2000/svg">
  <path fill="#b3b3b3" d="M68 4v64H4V4h64m4-4H0v72h72V0z"/>
  <path fill="none" stroke="#00a5ff" stroke-miterlimit="10" stroke-width="0.1" d="M12.923 10.958h46.154A1.923 1.923 0 0161 12.881v46.154a1.923 1.923 0 01-1.923 1.923H12.923A1.923 1.923 0 0111 59.035V12.881a1.923 1.923 0 011.923-1.923z"/>
  <rect x="16" y="4" rx="2.254" ry="2.254" width="40" height="64" fill="none" stroke="#00a5ff" stroke-miterlimit="10" stroke-width="0.1"/>
  <rect x="16" y="4" rx="2.254" ry="2.254" width="40" height="64" transform="rotate(90 36 36)" fill="none" stroke="#00a5ff" stroke-miterlimit="10" stroke-width="0.1"/>
  <circle cx="36" cy="36" r="29" fill="none" stroke="#00a5ff" stroke-miterlimit="10" stroke-width="0.1"/>
  <path fill="none" stroke="#fff" stroke-linecap="round" stroke-linejoin="round" stroke-miterlimit="10" stroke-width="6" d="M5 17h62v38H5z"/>
  <path d="M5 17h62v38H5z"/>
  <path fill="#1e50a0" d="M5 17h62v13H5z"/>
  <path fill="#5c9e31" stroke="#5c9e31" stroke-linecap="round" stroke-linejoin="round" stroke-width="4" d="M25.284 36.063l21.433 12.374"/>
  <path fill="#f1b31c" stroke="#f1b31c" stroke-linecap="round" stroke-linejoin="round" d="M36 37.832l1.293-2.082.398 2.418 1.991-1.428-.558 2.386 2.386-.558-1.428 1.991 2.418.398-2.082 1.293 2.082 1.293-2.418.398 1.428 1.991-2.386-.558.558 2.386-1.991-1.428-.398 2.418L36 46.668l-1.293 2.082-.398-2.418-1.991 1.428.558-2.386-2.386.558 1.428-1.991-2.418-.398 2.082-1.293-2.082-1.293 2.418-.398-1.428-1.991 2.386.558-.558-2.386 1.991 1.428.398-2.418L36 37.832z"/>
  <g fill="#f1b31c" stroke="#f1b31c" stroke-linecap="round" stroke-linejoin="round" stroke-width="2">
    <path d="M36 21.25v6m1.5-2h-3m-11.5-4v6m1.5-2h-3M49 21.25v6m1.5-2h-3"/>
  </g>
  <g>
    <path fill="none" stroke="#000" stroke-linecap="round" stroke-linejoin="round" stroke-width="2" d="M5 17h62v38H5z"/>
  </g>
</svg>
