<svg viewBox="0 0 72 72" xmlns="http://www.w3.org/2000/svg">
  <path fill="#b3b3b3" d="M68 4v64H4V4h64m4-4H0v72h72V0z"/>
  <path fill="none" stroke="#00a5ff" stroke-miterlimit="10" stroke-width="0.1" d="M12.923 10.958h46.154A1.923 1.923 0 0161 12.881v46.154a1.923 1.923 0 01-1.923 1.923H12.923A1.923 1.923 0 0111 59.035V12.881a1.923 1.923 0 011.923-1.923z"/>
  <rect x="16" y="4" rx="2.254" ry="2.254" width="40" height="64" fill="none" stroke="#00a5ff" stroke-miterlimit="10" stroke-width="0.1"/>
  <rect x="16" y="4" rx="2.254" ry="2.254" width="40" height="64" transform="rotate(90 36 36)" fill="none" stroke="#00a5ff" stroke-miterlimit="10" stroke-width="0.1"/>
  <circle cx="36" cy="36" r="29" fill="none" stroke="#00a5ff" stroke-miterlimit="10" stroke-width="0.1"/>
  <path fill="none" stroke="#fff" stroke-linecap="round" stroke-linejoin="round" stroke-miterlimit="10" stroke-width="6" d="M5.083 17h62v38h-62z"/>
  <path fill="#1e50a0" d="M5.083 17h62v38h-62z"/>
  <path fill="#d22f27" d="M5.083 49h62v6h-62zM5 17h62v6H5z"/>
  <circle cx="36.083" cy="36" r="9" fill="#fff"/>
  <circle cx="36.083" cy="36" r="7.5" fill="#fff" stroke="#5c9e31" stroke-miterlimit="10"/>
  <path fill="#fcea2b" d="M38.583 38.5h-2.5V33h3l-.5 5.5z"/>
  <path fill="#61b2e4" stroke="#61b2e4" stroke-linecap="round" stroke-linejoin="round" d="M36.083 41a4.945 4.945 0 002.588-2.23L36 36.1l-2.558 2.558A4.908 4.908 0 0036.083 41z"/>
  <path fill="none" stroke="#000" stroke-linecap="round" stroke-linejoin="round" d="M36.083 41s3-1 3-4v-4h-6v4c0 3 3 4 3 4z"/>
  <g>
    <path fill="none" stroke="#000" stroke-linecap="round" stroke-linejoin="round" stroke-width="2" d="M5.083 17h62v38h-62z"/>
  </g>
</svg>
