<svg viewBox="0 0 72 72" xmlns="http://www.w3.org/2000/svg">
  <path fill="#b3b3b3" d="M68 4v64H4V4h64m4-4H0v72h72z"/>
  <path fill="none" stroke="#00a5ff" stroke-miterlimit="10" stroke-width="0.1" d="M12.923 10.958h46.154A1.923 1.923 0 0161 12.881h0v46.154a1.923 1.923 0 01-1.923 1.923H12.923A1.923 1.923 0 0111 59.035h0V12.881a1.923 1.923 0 011.923-1.923z"/>
  <rect x="16" y="4" rx="2.254" ry="2.254" width="40" height="64" fill="none" stroke="#00a5ff" stroke-miterlimit="10" stroke-width="0.1"/>
  <rect x="4" y="16" rx="2.254" ry="2.254" width="64" height="40" fill="none" stroke="#00a5ff" stroke-miterlimit="10" stroke-width="0.1"/>
  <circle cx="36" cy="36" r="29" fill="none" stroke="#00a5ff" stroke-miterlimit="10" stroke-width="0.1"/>
  <path fill="none" stroke="#fff" stroke-linecap="round" stroke-linejoin="round" stroke-miterlimit="10" stroke-width="6" d="M5 17h62v38H5z"/>
  <path fill="#186648" d="M5 17h62v38H5z"/>
  <path fill="#d22f27" d="M8.171 17h14.928v38H8.171z"/>
  <path fill="#781e32" d="M18.624 17h-5.966l-4.487 4.216 7.47 7.018 7.469-7.018L18.624 17z"/>
  <path fill="#f1b31c" d="M17.114 19.628h-2.947l-1.474 1.588 1.474 1.588h2.947l1.474-1.588-1.474-1.588z"/>
  <path fill="#781e32" d="M15.641 38.16l-7.47-7.018 7.47-7.019 7.469 7.019-7.469 7.018z"/>
  <path fill="#f1b31c" d="M17.114 29.554h-2.947l-1.474 1.588 1.474 1.588h2.947l1.474-1.588-1.474-1.588z"/>
  <path fill="#781e32" d="M15.641 48.086l-7.47-7.019 7.47-7.018 7.469 7.018-7.469 7.019z"/>
  <path fill="#f1b31c" d="M17.114 39.479h-2.947l-1.474 1.588 1.474 1.588h2.947l1.474-1.588-1.474-1.588z"/>
  <path fill="#781e32" d="M18.846 55l4.264-4.007-7.469-7.018-7.47 7.018L12.435 55h6.411z"/>
  <path fill="#f1b31c" d="M17.114 49.405h-2.947l-1.474 1.588 1.474 1.588h2.947l1.474-1.588-1.474-1.588z"/>
  <g fill="#fff">
    <path stroke="#fff" stroke-linecap="round" stroke-linejoin="round" stroke-width="0.995" d="M37.493 21.833a7.765 7.765 0 01-6.815 13.66 7.77 7.77 0 106.815-13.66z"/>
    <circle cx="32.763" cy="23.055" r="0.739"/>
    <circle cx="32.763" cy="26.009" r="0.739"/>
    <circle cx="29.809" cy="26.009" r="0.739"/>
    <circle cx="35.717" cy="26.009" r="0.739"/>
    <circle cx="32.763" cy="28.963" r="0.739"/>
  </g>
  <g>
    <path fill="none" stroke="#000" stroke-linecap="round" stroke-linejoin="round" stroke-width="2" d="M5 17h62v38H5z"/>
  </g>
</svg>
