<svg viewBox="0 0 72 72" xmlns="http://www.w3.org/2000/svg">
  <path fill="#b3b3b3" d="M68 4v64H4V4h64m4-4H0v72h72V0z"/>
  <path fill="none" stroke="#00a5ff" stroke-miterlimit="10" stroke-width="0.1" d="M12.923 10.958h46.154A1.923 1.923 0 0161 12.881v46.154a1.923 1.923 0 01-1.923 1.923H12.923A1.923 1.923 0 0111 59.035V12.881a1.923 1.923 0 011.923-1.923z"/>
  <rect x="16" y="4" rx="2.254" ry="2.254" width="40" height="64" fill="none" stroke="#00a5ff" stroke-miterlimit="10" stroke-width="0.1"/>
  <rect x="16" y="4" rx="2.254" ry="2.254" width="40" height="64" transform="rotate(90 36 36)" fill="none" stroke="#00a5ff" stroke-miterlimit="10" stroke-width="0.1"/>
  <circle cx="36" cy="36" r="29" fill="none" stroke="#00a5ff" stroke-miterlimit="10" stroke-width="0.1"/>
  <path fill="none" stroke="#fff" stroke-linecap="round" stroke-linejoin="round" stroke-miterlimit="10" stroke-width="6" d="M5 17h62v38H5z"/>
  <path fill="#1e50a0" d="M5 17h62v38H5z"/>
  <path fill="#1e50a0" d="M5 17h31v19H5z"/>
  <path fill="#fff" d="M9.5 36H5l26.5-19H36z"/>
  <path fill="#fff" d="M36 32.5L5 17v3.5L36 36z"/>
  <path fill="#d22f27" d="M36 33.5L5 18v1.5L36 35z"/>
  <path fill="#d22f27" d="M8.5 36H6l26.5-19H35z"/>
  <path fill="#d22f27" d="M36 25H22v-8h-3v8H5v3h14v8h3v-8h14v-3z"/>
  <path fill="none" stroke="#fff" stroke-linejoin="round" d="M5 28h14v8m0-19v8H5m31 0H22v-8m0 19v-8h14"/>
  <path fill="#fcea2b" d="M57.452 44.755c-4.502 3.938-9.019 3.806-13.356.13-.475.112-.844.327-1.107.236-.646-.222-.704-.85-.198-1.32a8.046 8.046 0 00.967-.938c.346-.453.626-.378.997-.053a19.933 19.933 0 001.968 1.637 7.357 7.357 0 009.7-1.406c.629-.747.822-.746 1.46-.008a3.655 3.655 0 00.609.628c.48.337.701.713.3 1.234-.32.415-.735.38-1.34-.14z"/>
  <path fill="#186648" d="M50.643 27.723h-5.076a1.863 1.863 0 00-1.862 1.863v10.752c0 2.087 4.749 3.743 6.389 4.252a1.84 1.84 0 001.098 0c1.64-.51 6.389-2.165 6.389-4.252V29.586a1.863 1.863 0 00-1.863-1.863z"/>
  <circle cx="55.215" cy="30.246" r="0.631" fill="#fcea2b"/>
  <circle cx="55.215" cy="32.138" r="0.631" fill="#fcea2b"/>
  <circle cx="55.215" cy="34.031" r="0.631" fill="#fcea2b"/>
  <circle cx="55.215" cy="35.923" r="0.631" fill="#fcea2b"/>
  <circle cx="55.215" cy="37.815" r="0.631" fill="#fcea2b"/>
  <circle cx="55.215" cy="39.707" r="0.631" fill="#fcea2b"/>
  <circle cx="46.385" cy="30.246" r="0.631" fill="#fcea2b"/>
  <circle cx="51.116" cy="29.931" r="0.946" fill="#ffa7c0"/>
  <circle cx="46.385" cy="32.138" r="0.631" fill="#fcea2b"/>
  <circle cx="46.385" cy="34.031" r="0.631" fill="#fcea2b"/>
  <circle cx="47.647" cy="35.923" r="0.631" fill="#fcea2b"/>
  <circle cx="46.385" cy="37.815" r="0.631" fill="#fcea2b"/>
  <circle cx="46.385" cy="39.707" r="0.631" fill="#fcea2b"/>
  <circle cx="50.17" cy="41.599" r="0.631" fill="#fcea2b"/>
  <circle cx="51.431" cy="41.599" r="0.631" fill="#fcea2b"/>
  <path fill="none" stroke="#ffa7c0" stroke-linecap="round" stroke-linejoin="round" stroke-width="0.631" d="M49.854 32.454l-1.892 2.523"/>
  <rect x="49.46" y="31.508" rx="1.155" ry="1.155" width="3.154" height="10.092" fill="#fff"/>
  <path fill="none" stroke="#ffa7c0" stroke-linecap="round" stroke-linejoin="round" stroke-width="0.631" d="M52.377 32.454l.586 3.445"/>
  <path fill="#a57939" stroke="#a57939" stroke-linecap="round" stroke-linejoin="round" stroke-width="0.631" d="M52.081 29.123a.946.946 0 00-1.338 0l1.338 1.338a.946.946 0 000-1.338z"/>
  <g>
    <path fill="none" stroke="#000" stroke-linecap="round" stroke-linejoin="round" stroke-width="2" d="M5 17h62v38H5z"/>
  </g>
</svg>
