<svg viewBox="0 0 72 72" xmlns="http://www.w3.org/2000/svg">
  <path fill="#b3b3b3" d="M68 4v64H4V4h64m4-4H0v72h72V0z"/>
  <path fill="none" stroke="#00a5ff" stroke-miterlimit="10" stroke-width="0.1" d="M12.923 10.958h46.154A1.923 1.923 0 0161 12.881v46.154a1.923 1.923 0 01-1.923 1.923H12.923A1.923 1.923 0 0111 59.035V12.881a1.923 1.923 0 011.923-1.923z"/>
  <rect x="16" y="4" rx="2.254" ry="2.254" width="40" height="64" fill="none" stroke="#00a5ff" stroke-miterlimit="10" stroke-width="0.1"/>
  <rect x="16" y="4" rx="2.254" ry="2.254" width="40" height="64" transform="rotate(90 36 36)" fill="none" stroke="#00a5ff" stroke-miterlimit="10" stroke-width="0.1"/>
  <circle cx="36" cy="36" r="29" fill="none" stroke="#00a5ff" stroke-miterlimit="10" stroke-width="0.1"/>
  <path fill="none" stroke="#fff" stroke-linecap="round" stroke-linejoin="round" stroke-miterlimit="10" stroke-width="6" d="M5 17h62v38H5z"/>
  <path fill="#1e50a0" d="M5 17h62v38H5z"/>
  <path fill="#f1b31c" d="M67 24v-6L6 53v1l61-30z"/>
  <path fill="#fff" d="M67 30v-6L6 54v1l61-25z"/>
  <path fill="#fff" stroke="#fff" stroke-linecap="round" stroke-linejoin="round" d="M16.725 26.966l1.127-3.186-.771 3.279 1.962-2.802-1.643 2.979 2.662-2.226-2.403 2.475 3.181-1.5-2.999 1.804 3.483-.671-3.391 1.009 5.186.188-5.189.161 3.372 1.065-3.471-.728 2.966 1.852-3.153-1.552 2.357 2.515-2.621-2.27 1.588 3.006-1.909-2.834.71 3.291-1.068-3.204-.19 5.673-.18-5.676-1.127 3.186.771-3.279-1.961 2.802 1.643-2.979-2.662 2.226 2.403-2.475-3.181 1.5 2.999-1.804-3.484.671 3.391-1.009-6.004-.18 6.008-.169-3.372-1.065 3.47.729-2.965-1.853 3.153 1.552-2.357-2.515 2.621 2.27-1.588-3.005 1.909 2.833-.71-3.291 1.068 3.204.19-5.673.179 5.676z"/>
  <g>
    <path fill="none" stroke="#000" stroke-linecap="round" stroke-linejoin="round" stroke-width="2" d="M5 17h62v38H5z"/>
  </g>
</svg>
