<svg viewBox="0 0 72 72" xmlns="http://www.w3.org/2000/svg">
  <path fill="#b3b3b3" d="M68 4v64H4V4h64m4-4H0v72h72V0z"/>
  <path fill="none" stroke="#00a5ff" stroke-miterlimit="10" stroke-width="0.1" d="M12.923 10.958h46.154A1.923 1.923 0 0161 12.881v46.154a1.923 1.923 0 01-1.923 1.923H12.923A1.923 1.923 0 0111 59.035V12.881a1.923 1.923 0 011.923-1.923z"/>
  <rect x="16" y="4" rx="2.254" ry="2.254" width="40" height="64" fill="none" stroke="#00a5ff" stroke-miterlimit="10" stroke-width="0.1"/>
  <rect x="16" y="4" rx="2.254" ry="2.254" width="40" height="64" transform="rotate(90 36 36)" fill="none" stroke="#00a5ff" stroke-miterlimit="10" stroke-width="0.1"/>
  <circle cx="36" cy="36" r="29" fill="none" stroke="#00a5ff" stroke-miterlimit="10" stroke-width="0.1"/>
  <path fill="none" stroke="#fff" stroke-linecap="round" stroke-linejoin="round" stroke-miterlimit="10" stroke-width="6" d="M5 17h62v38H5z"/>
  <path fill="#fff" d="M5 17h62v38H5z"/>
  <circle cx="36" cy="36" r="9" fill="#d22f27"/>
  <path fill="#1e50a0" d="M28.127 31.676A4.492 4.492 0 0036 36c.023-.04.034-.083.055-.123l.024.014a4.493 4.493 0 017.724 4.59l.003.002a8.992 8.992 0 01-15.68-8.807zm.204-.389l.02.011c-.03.046-.067.085-.095.133.027-.047.047-.098.075-.144z"/>
  <g fill="none" stroke="#000" stroke-linecap="round" stroke-linejoin="round">
    <path d="M24.232 41.902l3 5.196m-6.464-3.196l3 5.196M22.5 42.902l1 1.732m1 1.732l1 1.732M45.5 48.098l1-1.732m1-1.732l1-1.732m-1.268 6.196l1-1.732m1-1.732l1-1.732m-6.464 3.196l1-1.732m1-1.732l1-1.732M20.768 28.098l3-5.196M22.5 29.098l3-5.196m-1.268 6.196l3-5.196M44.768 24.902l1 1.732m1 1.732l1 1.732m.464-7.196l1 1.732m1 1.732l1 1.732M46.5 23.902l3 5.196"/>
  </g>
  <g>
    <path fill="none" stroke="#000" stroke-linecap="round" stroke-linejoin="round" stroke-width="2" d="M5 17h62v38H5z"/>
  </g>
</svg>
