<svg viewBox="0 0 72 72" xmlns="http://www.w3.org/2000/svg">
  <path fill="#b3b3b3" d="M68 4v64H4V4h64m4-4H0v72h72V0z"/>
  <path fill="none" stroke="#00a5ff" stroke-miterlimit="10" stroke-width="0.1" d="M12.923 10.838h46.154A1.923 1.923 0 0161 12.76v46.154a1.923 1.923 0 01-1.923 1.923H12.923A1.923 1.923 0 0111 58.915V12.76a1.923 1.923 0 011.923-1.923z"/>
  <rect x="16" y="4" rx="2.254" ry="2.254" width="40" height="63.879" fill="none" stroke="#00a5ff" stroke-miterlimit="10" stroke-width="0.1"/>
  <rect x="16" y="3.879" rx="2.254" ry="2.254" width="40" height="64" transform="rotate(90 36 35.88)" fill="none" stroke="#00a5ff" stroke-miterlimit="10" stroke-width="0.1"/>
  <circle cx="36" cy="35.879" r="29" fill="none" stroke="#00a5ff" stroke-miterlimit="10" stroke-width="0.1"/>
  <path fill="#b3b3b3" d="M68 4v64H4V4h64m4-4H0v72h72V0z"/>
  <path fill="none" stroke="#00a5ff" stroke-miterlimit="10" stroke-width="0.1" d="M12.923 10.838h46.154A1.923 1.923 0 0161 12.76v46.154a1.923 1.923 0 01-1.923 1.923H12.923A1.923 1.923 0 0111 58.915V12.76a1.923 1.923 0 011.923-1.923z"/>
  <rect x="16" y="4" rx="2.254" ry="2.254" width="40" height="63.879" fill="none" stroke="#00a5ff" stroke-miterlimit="10" stroke-width="0.1"/>
  <rect x="16" y="3.879" rx="2.254" ry="2.254" width="40" height="64" transform="rotate(90 36 35.88)" fill="none" stroke="#00a5ff" stroke-miterlimit="10" stroke-width="0.1"/>
  <circle cx="36" cy="35.879" r="29" fill="none" stroke="#00a5ff" stroke-miterlimit="10" stroke-width="0.1"/>
  <path fill="none" stroke="#fff" stroke-linecap="round" stroke-linejoin="round" stroke-miterlimit="10" stroke-width="6" d="M25.75 37.049a15.025 15.025 0 0114.712-3.374 15.362 15.362 0 017.586 5.388 11.518 11.518 0 011.694 2.88M5 42.416l11.34-9.561L54.746 67M42.983 53.445L66.755 28.22"/>
  <path fill="#e27022" d="M4 4h64v64H4z"/>
  <path fill="#f4aa41" d="M68 4h-8L44 35l4 3 17-20 3-3.231M4 17.562l2.019 1.913L24.55 38.066l3.75-3.308L9 4H4v13.562zM30.879 4l2.469 28.375 4.983.412 3.749-25.98L42.566 4"/>
  <path fill="#fcea2b" d="M50.961 49.078c-.267 3.131-5.203 14.664-16.04 13.883a15 15 0 01-13.882-16.04c.627-8.7 8.662-14.341 16.04-13.882 6.991.435 11.089 6.206 11.654 7.03a14.632 14.632 0 012.107 5.547 16.402 16.402 0 01.121 3.462z"/>
  <path fill="#d0cfce" d="M4 42.636l11.889-9.226L54.869 68H4V42.636z"/>
  <path fill="#9b9b9a" d="M41.492 54.869L68 27.944V68H54.869"/>
  <g fill="none" stroke="#000" stroke-linecap="round" stroke-width="2">
    <path stroke-miterlimit="10" d="M25.75 37.049a15.025 15.025 0 0114.712-3.374 15.362 15.362 0 017.586 5.388 11.518 11.518 0 011.694 2.88"/>
    <path stroke-linejoin="round" d="M5 42.416l11.34-9.561L54.746 67M42.983 53.445L66.755 28.22"/>
  </g>
</svg>
