<svg viewBox="0 0 72 72" xmlns="http://www.w3.org/2000/svg">
  <path fill="#b3b3b3" d="M68 4v64H4V4h64m4-4H0v72h72V0z"/>
  <path fill="none" stroke="#00a5ff" stroke-miterlimit="10" stroke-width="0.1" d="M12.923 10.958h46.154A1.923 1.923 0 0161 12.881v46.154a1.923 1.923 0 01-1.923 1.923H12.923A1.923 1.923 0 0111 59.035V12.881a1.923 1.923 0 011.923-1.923z"/>
  <rect x="16" y="4" rx="2.254" width="40" height="64" fill="none" stroke="#00a5ff" stroke-miterlimit="10" stroke-width="0.1"/>
  <rect x="16" y="4" rx="2.254" width="40" height="64" transform="rotate(90 36 36)" fill="none" stroke="#00a5ff" stroke-miterlimit="10" stroke-width="0.1"/>
  <circle cx="36" cy="36" r="29" fill="none" stroke="#00a5ff" stroke-miterlimit="10" stroke-width="0.1"/>
  <path fill="none" stroke="#fff" stroke-linecap="round" stroke-linejoin="round" stroke-miterlimit="10" stroke-width="6" d="M16.996 45.48l2.795 8.601h9.045l-7.317 5.317L24.314 68l-7.318-5.316L9.68 68l2.795-8.602-7.318-5.317h9.045zm34.388-31.707L22.079 43.078m10.046-4.359L66.844 4M34.231 47.757L57.998 23.99M26.796 49.483l21.625-21.625"/>
  <path fill="#FCEA2B" d="M16.996 45.48l2.795 8.601h9.045l-7.317 5.317L24.314 68l-7.318-5.316L9.68 68l2.795-8.602-7.318-5.317h9.045z"/>
  <path fill="none" stroke="#000" stroke-linecap="round" stroke-linejoin="round" stroke-miterlimit="10" stroke-width="2" d="M16.996 45.48l2.795 8.601h9.045l-7.317 5.317L24.314 68l-7.318-5.316L9.68 68l2.795-8.602-7.318-5.317h9.045zm34.388-31.707L22.079 43.078m10.046-4.359L66.844 4M34.231 47.757L57.998 23.99M26.796 49.483l21.625-21.625"/>
</svg>
