<svg viewBox="0 0 72 72" xmlns="http://www.w3.org/2000/svg">
  <path fill="#b3b3b3" d="M68 4v64H4V4h64m4-4H0v72h72V0z"/>
  <path fill="none" stroke="#00a5ff" stroke-miterlimit="10" stroke-width="0.1" d="M12.923 10.958h46.154A1.923 1.923 0 0161 12.881v46.154a1.923 1.923 0 01-1.923 1.923H12.923A1.923 1.923 0 0111 59.035V12.881a1.923 1.923 0 011.923-1.923z"/>
  <rect x="16" y="4" rx="2.254" width="40" height="64" fill="none" stroke="#00a5ff" stroke-miterlimit="10" stroke-width="0.1"/>
  <rect x="16" y="4" rx="2.254" width="40" height="64" transform="rotate(90 36 36)" fill="none" stroke="#00a5ff" stroke-miterlimit="10" stroke-width="0.1"/>
  <circle cx="36" cy="36" r="29" fill="none" stroke="#00a5ff" stroke-miterlimit="10" stroke-width="0.1"/>
  <path fill="none" stroke="#fff" stroke-linecap="round" stroke-linejoin="round" stroke-miterlimit="10" stroke-width="6" d="M36.835 18.078c1.74 1.658 1.648 4.578 1.648 4.578s-2.911.23-4.651-1.428c-1.74-1.659-1.648-4.578-1.648-4.578s2.912-.229 4.65 1.428zM27.018 32.15c3.088 2.301 3.51 6.963 3.51 6.963s-4.587.93-7.676-1.37c-3.089-2.3-3.51-6.961-3.51-6.961s4.588-.93 7.676 1.369zm15.07 22.213c-4.611 1.465-9.334-1.695-9.334-1.695s2.755-5.534 7.366-7 9.335 1.694 9.335 1.694-2.758 5.535-7.367 7zm6.96-18.671c-3.654 1.049-7.294-1.537-7.294-1.537s2.286-4.286 5.94-5.335 7.294 1.536 7.294 1.536-2.288 4.286-5.94 5.336zm-9.143-9.91c0 4.778-2.888 10.06-4.882 13.138-.814 1.255-1.738 2.427-2.703 3.57-2.575 3.054-5.224 8.218-3.876 15.872"/>
  <path fill="#B1CC33" d="M36.835 18.078c1.74 1.658 1.648 4.578 1.648 4.578s-2.911.23-4.651-1.428c-1.74-1.659-1.648-4.578-1.648-4.578s2.912-.229 4.65 1.428z"/>
  <path fill="#5C9E31" d="M42.088 54.363c-4.611 1.465-9.334-1.695-9.334-1.695s2.755-5.534 7.366-7 9.335 1.694 9.335 1.694-2.758 5.535-7.367 7z"/>
  <path fill="#B1CC33" d="M49.048 35.692c-3.654 1.049-7.294-1.537-7.294-1.537s2.286-4.286 5.94-5.335 7.294 1.536 7.294 1.536-2.288 4.286-5.94 5.336z"/>
  <path fill="#5C9E31" d="M27.018 32.15c3.088 2.301 3.51 6.963 3.51 6.963s-4.587.93-7.676-1.37c-3.089-2.3-3.51-6.961-3.51-6.961s4.588-.93 7.676 1.369z"/>
  <path fill="none" stroke="#000" stroke-linecap="round" stroke-linejoin="round" stroke-width="2" d="M36.835 18.078c1.74 1.658 1.648 4.578 1.648 4.578s-2.911.23-4.651-1.428c-1.74-1.659-1.648-4.578-1.648-4.578s2.912-.229 4.65 1.428zM27.018 32.15c3.088 2.301 3.51 6.963 3.51 6.963s-4.587.93-7.676-1.37c-3.089-2.3-3.51-6.961-3.51-6.961s4.588-.93 7.676 1.369zm15.07 22.213c-4.611 1.465-9.334-1.695-9.334-1.695s2.755-5.534 7.366-7 9.335 1.694 9.335 1.694-2.758 5.535-7.367 7zm6.96-18.671c-3.654 1.049-7.294-1.537-7.294-1.537s2.286-4.286 5.94-5.335 7.294 1.536 7.294 1.536-2.288 4.286-5.94 5.336zm-9.143-9.91c0 4.778-2.888 10.06-4.882 13.138-.814 1.255-1.738 2.427-2.703 3.57-2.575 3.054-5.224 8.218-3.876 15.872"/>
</svg>
