<svg viewBox="0 0 72 72" xmlns="http://www.w3.org/2000/svg">
  <path fill="#b3b3b3" d="M68 4v64H4V4h64m4-4H0v72h72V0z"/>
  <path fill="none" stroke="#00a5ff" stroke-miterlimit="10" stroke-width="0.1" d="M12.923 10.958h46.154A1.923 1.923 0 0161 12.881v46.154a1.923 1.923 0 01-1.923 1.923H12.923A1.923 1.923 0 0111 59.035V12.881a1.923 1.923 0 011.923-1.923z"/>
  <rect x="16" y="4" rx="2.254" width="40" height="64" fill="none" stroke="#00a5ff" stroke-miterlimit="10" stroke-width="0.1"/>
  <rect x="16" y="4" rx="2.254" width="40" height="64" transform="rotate(90 36 36)" fill="none" stroke="#00a5ff" stroke-miterlimit="10" stroke-width="0.1"/>
  <circle cx="36" cy="36" r="29" fill="none" stroke="#00a5ff" stroke-miterlimit="10" stroke-width="0.1"/>
  <g fill="none" stroke="#fff" stroke-linecap="round" stroke-linejoin="round" stroke-miterlimit="10" stroke-width="6">
    <path d="M55.226 56.78c-10.988 10.977-28.78 10.977-39.768 0-10.976-10.987-10.976-28.779 0-39.767l2.654 2.654c-9.525 9.515-9.525 24.945 0 34.46 9.515 9.525 24.945 9.525 34.46 0l2.654 2.654zm-37.71-37.709l36.206 36.206"/>
    <path d="M49.524 56.718c-9.52 6.837-22.857 5.973-31.412-2.592-8.62-8.61-9.44-22.063-2.46-31.594"/>
    <ellipse cx="31.83" cy="46.907" rx="1.687" ry="0.844" transform="rotate(-45.001 31.83 46.908)"/>
    <ellipse cx="44.554" cy="53.269" rx="1.687" ry="0.844" transform="rotate(-45.001 44.554 53.27)"/>
    <ellipse cx="31.83" cy="54.86" rx="1.687" ry="0.844" transform="rotate(-45.001 31.83 54.86)"/>
    <ellipse cx="25.817" cy="40.894" rx="1.687" ry="0.844" transform="rotate(-45.001 25.816 40.894)"/>
    <ellipse cx="19.455" cy="28.17" rx="1.687" ry="0.844" transform="rotate(-45.001 19.454 28.17)"/>
    <ellipse cx="17.864" cy="40.894" rx="1.687" ry="0.844" transform="rotate(-45.001 17.864 40.894)"/>
    <ellipse cx="22.281" cy="50.086" rx="1.687" ry="0.844" transform="rotate(-45.001 22.28 50.087)"/>
  </g>
  <path fill="#B1CC33" d="M55.226 56.78c-10.988 10.977-28.78 10.977-39.768 0-10.976-10.987-10.976-28.779 0-39.767l2.654 2.654c-9.525 9.515-9.525 24.945 0 34.46 9.515 9.525 24.945 9.525 34.46 0l2.654 2.654z"/>
  <path fill="#EA5A47" stroke="#EA5A47" stroke-linecap="round" stroke-linejoin="round" stroke-miterlimit="10" stroke-width="2" d="M52.572 54.127c-9.515 9.525-24.945 9.525-34.46 0-9.526-9.515-9.526-24.945 0-34.46l34.46 34.46"/>
  <path fill="#EA5A47" d="M49.524 56.718c-9.52 6.837-22.857 5.973-31.412-2.592-8.62-8.61-9.44-22.063-2.46-31.594"/>
  <path fill="none" stroke="#000" stroke-linejoin="round" stroke-miterlimit="10" stroke-width="2" d="M55.226 56.78c-10.988 10.977-28.78 10.977-39.768 0-10.976-10.987-10.976-28.779 0-39.767l2.654 2.654c-9.525 9.515-9.525 24.945 0 34.46 9.515 9.525 24.945 9.525 34.46 0l2.654 2.654z"/>
  <path fill="none" stroke="#000" stroke-linecap="round" stroke-linejoin="round" stroke-miterlimit="10" stroke-width="2" d="M17.516 19.071l36.206 36.206m-4.198 1.441c-9.52 6.837-22.857 5.973-31.412-2.592-8.62-8.61-9.44-22.063-2.46-31.594"/>
  <ellipse cx="31.83" cy="46.907" rx="1.687" ry="0.844" transform="rotate(-45.001 31.83 46.908)"/>
  <ellipse cx="44.554" cy="53.269" rx="1.687" ry="0.844" transform="rotate(-45.001 44.554 53.27)"/>
  <ellipse cx="31.83" cy="54.86" rx="1.687" ry="0.844" transform="rotate(-45.001 31.83 54.86)"/>
  <ellipse cx="25.817" cy="40.894" rx="1.687" ry="0.844" transform="rotate(-45.001 25.816 40.894)"/>
  <ellipse cx="19.455" cy="28.17" rx="1.687" ry="0.844" transform="rotate(-45.001 19.454 28.17)"/>
  <ellipse cx="17.864" cy="40.894" rx="1.687" ry="0.844" transform="rotate(-45.001 17.864 40.894)"/>
  <ellipse cx="22.281" cy="50.086" rx="1.687" ry="0.844" transform="rotate(-45.001 22.28 50.087)"/>
</svg>
