<svg viewBox="0 0 72 72" xmlns="http://www.w3.org/2000/svg">
  <path fill="#b3b3b3" d="M68 4v64H4V4h64m4-4H0v72h72V0z"/>
  <path fill="none" stroke="#00a5ff" stroke-miterlimit="10" stroke-width="0.1" d="M12.923 10.958h46.154A1.923 1.923 0 0161 12.881v46.154a1.923 1.923 0 01-1.923 1.923H12.923A1.923 1.923 0 0111 59.035V12.881a1.923 1.923 0 011.923-1.923z"/>
  <rect x="16" y="4" rx="2.254" width="40" height="64" fill="none" stroke="#00a5ff" stroke-miterlimit="10" stroke-width="0.1"/>
  <rect x="16" y="4" rx="2.254" width="40" height="64" transform="rotate(90 36 36)" fill="none" stroke="#00a5ff" stroke-miterlimit="10" stroke-width="0.1"/>
  <circle cx="36" cy="36" r="29" fill="none" stroke="#00a5ff" stroke-miterlimit="10" stroke-width="0.1"/>
  <g fill="none" stroke="#fff" stroke-linecap="round" stroke-linejoin="round" stroke-miterlimit="10" stroke-width="6">
    <path d="M50.307 19.346c6.375 4.057 10.533 10.72 10.533 18.252 0 12.36-11.2 22.381-25.015 22.381S10.81 49.96 10.81 37.597c0-7.374 3.986-13.915 10.136-17.993"/>
    <path d="M46.325 15.849c-.385 1.382-.994 3.031-2.436 4.235C38 25 30.25 23.288 26.817 20.084c-1.36-1.284-2.04-2.853-2.424-4.235-.637-2.282-.362-4.17-.362-4.17s2.282-.328 4.838.582a9.71 9.71 0 012.622 1.405c.483-3.369 2.732-5.618 3.555-6.342l.307-.252.307.252c.823.724 3.072 2.973 3.555 6.342a9.716 9.716 0 012.622-1.405c2.557-.91 4.839-.581 4.839-.581s.285 1.887-.352 4.169z"/>
  </g>
  <ellipse cx="35.825" cy="37.597" rx="25.015" ry="22.382" fill="#EA5A47" stroke="#EA5A47" stroke-linecap="round" stroke-linejoin="round" stroke-miterlimit="10" stroke-width="1.8"/>
  <path fill="#D22F27" stroke="#D22F27" stroke-linejoin="round" stroke-miterlimit="10" stroke-width="1.8" d="M60.528 37.597c0 12.365-10.89 22.382-24.703 22.382 17.4-4.104 31.96-32.932 0-44.763 5.085 0 9.816 1.357 13.765 3.69 6.777 4.003 10.938 10.879 10.938 18.691z"/>
  <path fill="#5C9E31" d="M46.325 15.849c-.385 1.382-.994 3.031-2.436 4.235C38 25 30.25 23.288 26.817 20.084c-1.36-1.284-2.04-2.853-2.424-4.235-.637-2.282-.362-4.17-.362-4.17s2.282-.328 4.838.582a9.71 9.71 0 012.622 1.405c.483-3.369 2.732-5.618 3.555-6.342l.307-.252.307.252c.823.724 3.072 2.973 3.555 6.342a9.716 9.716 0 012.622-1.405c2.557-.91 4.839-.581 4.839-.581s.285 1.887-.352 4.169z"/>
  <g fill="none" stroke="#000" stroke-linejoin="round" stroke-miterlimit="10" stroke-width="2">
    <path stroke-linecap="round" d="M50.307 19.346c6.375 4.057 10.533 10.72 10.533 18.252 0 12.36-11.2 22.381-25.015 22.381S10.81 49.96 10.81 37.597c0-7.374 3.986-13.915 10.136-17.993"/>
    <path d="M46.325 15.849c-.385 1.382-.994 3.031-2.436 4.235C38 25 30.25 23.288 26.817 20.084c-1.36-1.284-2.04-2.853-2.424-4.235-.637-2.282-.362-4.17-.362-4.17s2.282-.328 4.838.582a9.71 9.71 0 012.622 1.405c.483-3.369 2.732-5.618 3.555-6.342l.307-.252.307.252c.823.724 3.072 2.973 3.555 6.342a9.716 9.716 0 012.622-1.405c2.557-.91 4.839-.581 4.839-.581s.285 1.887-.352 4.169z"/>
  </g>
</svg>
