<svg viewBox="0 0 72 72" xmlns="http://www.w3.org/2000/svg">
  <path fill="#b3b3b3" d="M68 4v64H4V4h64m4-4H0v72h72V0z"/>
  <path fill="none" stroke="#00a5ff" stroke-miterlimit="10" stroke-width="0.1" d="M12.923 10.958h46.154A1.923 1.923 0 0161 12.881v46.154a1.923 1.923 0 01-1.923 1.923H12.923A1.923 1.923 0 0111 59.035V12.881a1.923 1.923 0 011.923-1.923z"/>
  <rect x="16" y="4" rx="2.254" width="40" height="64" fill="none" stroke="#00a5ff" stroke-miterlimit="10" stroke-width="0.1"/>
  <rect x="16" y="4" rx="2.254" width="40" height="64" transform="rotate(90 36 36)" fill="none" stroke="#00a5ff" stroke-miterlimit="10" stroke-width="0.1"/>
  <circle cx="36" cy="36" r="29" fill="none" stroke="#00a5ff" stroke-miterlimit="10" stroke-width="0.1"/>
  <g fill="none" stroke="#fff" stroke-linecap="round" stroke-linejoin="round" stroke-miterlimit="10" stroke-width="6">
    <path d="M38 9h11v9H38zM23 9h11v9H23zm32 16l-38 7v35h38z"/>
    <path d="M53 20.932V5H19v22.541"/>
    <path d="M38 23.847V22h9.503M23 26.764V22h11v2.625"/>
    <path d="M47.503 22H38v1.847m-4 .778V22H23v4.764"/>
  </g>
  <path fill="#a57939" d="M54 32.906v-27H18.031v33.61"/>
  <path fill="#ea5a47" d="M55 25l-38 7v35h38z"/>
  <g fill="none" stroke="#000" stroke-linecap="round" stroke-linejoin="round" stroke-miterlimit="10" stroke-width="2">
    <path d="M38 9h11v9H38zM23 9h11v9H23zm32 16l-38 7v35h38z"/>
    <path d="M53 20.932V5H19v22.541"/>
    <path d="M38 23.847V22h9.503M23 26.764V22h11v2.625"/>
    <path d="M47.503 22H38v1.847m-4 .778V22H23v4.764"/>
  </g>
</svg>
