<svg viewBox="0 0 72 72" xmlns="http://www.w3.org/2000/svg">
  <path fill="#b3b3b3" d="M68 4v64H4V4h64m4-4H0v72h72V0z"/>
  <path fill="none" stroke="#00a5ff" stroke-miterlimit="10" stroke-width="0.1" d="M12.923 10.958h46.154A1.923 1.923 0 0161 12.881v46.154a1.923 1.923 0 01-1.923 1.923H12.923A1.923 1.923 0 0111 59.035V12.881a1.923 1.923 0 011.923-1.923z"/>
  <rect x="16" y="4" rx="2.254" width="40" height="64" fill="none" stroke="#00a5ff" stroke-miterlimit="10" stroke-width="0.1"/>
  <rect x="16" y="4" rx="2.254" width="40" height="64" transform="rotate(90 36 36)" fill="none" stroke="#00a5ff" stroke-miterlimit="10" stroke-width="0.1"/>
  <circle cx="36" cy="36" r="29" fill="none" stroke="#00a5ff" stroke-miterlimit="10" stroke-width="0.1"/>
  <g fill="none" stroke="#fff" stroke-linecap="round" stroke-linejoin="round" stroke-miterlimit="10" stroke-width="6">
    <circle cx="36" cy="36" r="15" transform="rotate(-45.001 35.998 36)"/>
    <path d="M51.929 25.356L63 23.142l1.414-1.414a2 2 0 10-2.829-2.829 2 2 0 11-2.828-2.828 2 2 0 00-2.828-2.828 2 2 0 01-2.828-2.828 2 2 0 00-2.828-2.83L48.858 9l-2.214 11.07M20.071 46.643L9 48.857l-1.415 1.414a2.001 2.001 0 002.83 2.83 2 2 0 112.827 2.827 2 2 0 002.828 2.83 2.001 2.001 0 012.828-.002 2.001 2.001 0 010 2.83 2 2 0 102.829 2.828L23.142 63l2.215-11.072"/>
    <circle cx="36.001" cy="35.958" r="15" transform="rotate(-45.001 36.001 35.959)"/>
  </g>
  <path fill="#b1cc33" d="M47.08 27.084l5.334-1.006-.477-.734 11.056-2.225 1.414-1.414a2 2 0 10-2.829-2.829 2 2 0 01-2.828-2.828 2 2 0 00-2.828-2.829 2 2 0 01-2.828-2.828 2 2 0 00-2.828-2.828l-1.414 1.414-2.196 11.117-.946-.608-.824 4.125M24.71 44.707l-5.334 1.004.695.932L9 48.857l-1.414 1.414a2.002 2.002 0 002.83 2.83 2 2 0 112.827 2.829 2 2 0 102.828 2.828 2 2 0 112.828 2.828 2 2 0 102.828 2.828L23.142 63l2.215-11.072.926.562.824-4.123"/>
  <circle cx="35.993" cy="36" r="14.999" fill="#b1cc33"/>
  <path fill="#5c9e31" d="M51.001 35.99c.001-5.502-2.973-10.3-7.392-12.91a14.906 14.906 0 012.09 7.608c0 8.285-6.716 15.002-15 15A14.89 14.89 0 0123.09 43.6c2.61 4.42 7.408 7.39 12.911 7.392 8.284 0 15-6.717 14.999-15.002z"/>
  <g fill="none" stroke="#000" stroke-linecap="round" stroke-linejoin="round" stroke-miterlimit="10" stroke-width="2">
    <circle cx="36" cy="36" r="15" transform="rotate(-45.001 35.998 36)"/>
    <path d="M51.929 25.356L63 23.142l1.414-1.414a2 2 0 10-2.829-2.829 2 2 0 11-2.828-2.828 2 2 0 00-2.828-2.828 2 2 0 01-2.828-2.828 2 2 0 00-2.828-2.83L48.858 9l-2.214 11.07M20.071 46.643L9 48.857l-1.415 1.414a2.001 2.001 0 002.83 2.83 2 2 0 112.827 2.827 2 2 0 002.828 2.83 2.001 2.001 0 012.828-.002 2.001 2.001 0 010 2.83 2 2 0 102.829 2.828L23.142 63l2.215-11.072"/>
    <circle cx="36.001" cy="35.958" r="15" transform="rotate(-45.001 36.001 35.959)"/>
  </g>
</svg>
