<svg viewBox="0 0 72 72" xmlns="http://www.w3.org/2000/svg">
  <path fill="#B3B3B3" d="M68 4v64H4V4h64m4-4H0v72h72V0z"/>
  <path fill="none" stroke="#00A5FF" stroke-miterlimit="10" stroke-width="0.1" d="M12.923 10.958h46.154c1.062 0 1.923.861 1.923 1.923v46.154a1.923 1.923 0 01-1.923 1.923H12.923A1.923 1.923 0 0111 59.035h0V12.881c0-1.062.861-1.923 1.923-1.923h0z"/>
  <path fill="none" stroke="#00A5FF" stroke-miterlimit="10" stroke-width="0.1" d="M18.254 4h35.492A2.254 2.254 0 0156 6.254v59.492A2.254 2.254 0 0153.746 68H18.254A2.254 2.254 0 0116 65.746V6.254A2.254 2.254 0 0118.254 4z"/>
  <path fill="none" stroke="#00A5FF" stroke-miterlimit="10" stroke-width="0.1" d="M68 18.254v35.492A2.254 2.254 0 0165.746 56H6.254A2.254 2.254 0 014 53.746V18.254A2.254 2.254 0 016.254 16h59.492A2.254 2.254 0 0168 18.254z"/>
  <circle cx="36" cy="36" r="29" fill="none" stroke="#00A5FF" stroke-miterlimit="10" stroke-width="0.1"/>
  <g fill="none" stroke="#fff" stroke-linecap="round" stroke-linejoin="round" stroke-miterlimit="10" stroke-width="6">
    <path d="M26 21c0-5.523 4.477-10 10-10s10 4.477 10 10"/>
    <path d="M36.066 26.503A10 10 0 0145 21c5.522 0 10 4.477 10 10a9.982 9.982 0 01-3.795 7.842"/>
    <path d="M20.64 38.717A9.98 9.98 0 0117 31c0-5.523 4.477-10 10-10s10 4.477 10 10a9.982 9.982 0 01-3.795 7.842M33 60v-6a5 5 0 00-5-5h-7a5 5 0 01-5-5v-3a2 2 0 012-2h36a2 2 0 012 2v3a5 5 0 01-5 5h-7a5 5 0 00-5 5v6m-10 0h14"/>
  </g>
  <circle cx="35.999" cy="21.001" r="10" transform="rotate(-45.001 36 21.002)" fill="#FCEA2B"/>
  <path fill="#F1B31C" d="M43.07 13.938c-2.593-2.594-6.257-3.456-9.571-2.602a9.943 9.943 0 014.571 2.602c3.907 3.906 3.907 10.237.001 14.142a9.927 9.927 0 01-4.571 2.602c3.313.853 6.977-.008 9.571-2.602 3.906-3.905 3.906-10.236 0-14.142z"/>
  <path fill="#FCEA2B" d="M52.07 23.93c3.907 3.904 3.907 10.236.001 14.142C48.166 41.977 39.905 44.904 36 41c-3.905-3.906-1.977-13.166 1.929-17.071s10.237-3.906 14.141 0z"/>
  <path fill="#F1B31C" d="M52.07 23.938c-2.593-2.594-6.257-3.456-9.571-2.602a9.943 9.943 0 014.571 2.602c3.907 3.906 3.907 10.238.001 14.142a9.93 9.93 0 01-4.571 2.602c3.313.853 6.977-.008 9.571-2.602 3.906-3.904 3.906-10.236 0-14.142z"/>
  <ellipse cx="26.999" cy="31.002" rx="10" ry="10.001" transform="rotate(-45.001 26.999 31.003)" fill="#FCEA2B"/>
  <path fill="#F1B31C" d="M34.07 23.938c-2.593-2.594-6.257-3.456-9.571-2.602a9.943 9.943 0 014.571 2.602c3.907 3.906 3.907 10.238.001 14.142a9.93 9.93 0 01-4.571 2.602c3.314.853 6.977-.008 9.571-2.602 3.906-3.904 3.906-10.236 0-14.142z"/>
  <path fill="#FFF" d="M33 60v-6a5 5 0 00-5-5h-7a5 5 0 01-5-5v-3a2 2 0 012-2h36a2 2 0 012 2v3a5 5 0 01-5 5h-7a5 5 0 00-5 5v6"/>
  <g fill="none" stroke="#000" stroke-linecap="round" stroke-linejoin="round" stroke-miterlimit="10">
    <path stroke-width="2" d="M26 21c0-5.523 4.477-10 10-10s10 4.477 10 10"/>
    <path stroke-width="2" d="M36.066 26.503A10 10 0 0145 21c5.522 0 10 4.477 10 10a9.982 9.982 0 01-3.795 7.842"/>
    <path stroke-width="2" d="M20.64 38.717A9.98 9.98 0 0117 31c0-5.523 4.477-10 10-10s10 4.477 10 10a9.982 9.982 0 01-3.795 7.842"/>
    <path stroke-width="1.947" d="M33 60v-6a5 5 0 00-5-5h-7a5 5 0 01-5-5v-3a2 2 0 012-2h36a2 2 0 012 2v3a5 5 0 01-5 5h-7a5 5 0 00-5 5v6m-10 0h14"/>
  </g>
</svg>
