<svg viewBox="0 0 72 72" xmlns="http://www.w3.org/2000/svg">
  <path fill="#b3b3b3" d="M68 4v64H4V4h64m4-4H0v72h72V0z"/>
  <path fill="none" stroke="#00a5ff" stroke-miterlimit="10" stroke-width="0.1" d="M12.923 10.958h46.154A1.923 1.923 0 0161 12.881v46.154a1.923 1.923 0 01-1.923 1.923H12.923A1.923 1.923 0 0111 59.035V12.881a1.923 1.923 0 011.923-1.923z"/>
  <rect x="16" y="4" rx="2.254" width="40" height="64" fill="none" stroke="#00a5ff" stroke-miterlimit="10" stroke-width="0.1"/>
  <rect x="16" y="4" rx="2.254" width="40" height="64" transform="rotate(90 36 36)" fill="none" stroke="#00a5ff" stroke-miterlimit="10" stroke-width="0.1"/>
  <circle cx="36" cy="36" r="29" fill="none" stroke="#00a5ff" stroke-miterlimit="10" stroke-width="0.1"/>
  <path fill="none" stroke="#fff" stroke-linecap="round" stroke-linejoin="round" stroke-miterlimit="10" stroke-width="6" d="M53.003 24.825a2.997 2.997 0 00-.36-5.752 2.986 2.986 0 00-.52-3.508 2.994 2.994 0 00-3.14-.691 2.988 2.988 0 00-1.481-2.33 2.98 2.98 0 00-2.522-.206 2.986 2.986 0 00-2.2-2.69 2.987 2.987 0 00-2.66.573A2.985 2.985 0 0039 10c-.243 0-.477.037-.703.092A2.98 2.98 0 0036 9c-.928 0-1.747.43-2.297 1.092A2.982 2.982 0 0033 10c-.396 0-.77.081-1.116.22a2.988 2.988 0 00-2.66-.573 2.992 2.992 0 00-2.18 3.322 2.99 2.99 0 00-3.543-.424 2.982 2.982 0 00-1.453 2.146 2.98 2.98 0 00-2.17.873 2.991 2.991 0 00-.523 3.51 2.998 2.998 0 00-.341 5.758M22 27h28l-3 33H25zm4-6a3 3 0 013-3m5 0a3 3 0 013-3"/>
  <path fill="#ea5a47" d="M22 27h28l-3 33H25z"/>
  <path fill="#fcea2b" d="M50.672 27.243l2.86-1.547-.53-.87a2.997 2.997 0 00-.36-5.753 2.986 2.986 0 00-.52-3.508 2.994 2.994 0 00-3.14-.691 2.988 2.988 0 00-1.48-2.33 2.98 2.98 0 00-2.522-.206 2.986 2.986 0 00-2.2-2.69 2.987 2.987 0 00-2.66.573A2.985 2.985 0 0039 10c-.243 0-.477.037-.703.092A2.98 2.98 0 0036 9c-.928 0-1.747.43-2.297 1.092A2.982 2.982 0 0033 10c-.396 0-.77.081-1.116.22a2.988 2.988 0 00-2.66-.573 2.992 2.992 0 00-2.18 3.322 2.99 2.99 0 00-3.543-.424 2.982 2.982 0 00-1.453 2.146 2.98 2.98 0 00-2.17.873 2.991 2.991 0 00-.523 3.51 2.998 2.998 0 00-.341 5.758l-.295.942 3.094 1.938"/>
  <path fill="none" stroke="#000" stroke-linecap="round" stroke-linejoin="round" stroke-miterlimit="10" stroke-width="2" d="M53.003 24.825a2.997 2.997 0 00-.36-5.752 2.986 2.986 0 00-.52-3.508 2.994 2.994 0 00-3.14-.691 2.988 2.988 0 00-1.481-2.33 2.98 2.98 0 00-2.522-.206 2.986 2.986 0 00-2.2-2.69 2.987 2.987 0 00-2.66.573A2.985 2.985 0 0039 10c-.243 0-.477.037-.703.092A2.98 2.98 0 0036 9c-.928 0-1.747.43-2.297 1.092A2.982 2.982 0 0033 10c-.396 0-.77.081-1.116.22a2.988 2.988 0 00-2.66-.573 2.992 2.992 0 00-2.18 3.322 2.99 2.99 0 00-3.543-.424 2.982 2.982 0 00-1.453 2.146 2.98 2.98 0 00-2.17.873 2.991 2.991 0 00-.523 3.51 2.998 2.998 0 00-.341 5.758M22 27h28l-3 33H25zm4-6a3 3 0 013-3m5 0a3 3 0 013-3"/>
</svg>
