<svg viewBox="0 0 72 72" xmlns="http://www.w3.org/2000/svg">
  <path fill="#b3b3b3" d="M68 4v64H4V4h64m4-4H0v72h72V0z"/>
  <path fill="none" stroke="#00a5ff" stroke-miterlimit="10" stroke-width="0.1" d="M12.923 10.958h46.154A1.923 1.923 0 0161 12.881v46.154a1.923 1.923 0 01-1.923 1.923H12.923A1.923 1.923 0 0111 59.035V12.881a1.923 1.923 0 011.923-1.923z"/>
  <rect x="16" y="4" rx="2.254" width="40" height="64" fill="none" stroke="#00a5ff" stroke-miterlimit="10" stroke-width="0.1"/>
  <rect x="16" y="4" rx="2.254" width="40" height="64" transform="rotate(90 36 36)" fill="none" stroke="#00a5ff" stroke-miterlimit="10" stroke-width="0.1"/>
  <circle cx="36" cy="36" r="29" fill="none" stroke="#00a5ff" stroke-miterlimit="10" stroke-width="0.1"/>
  <g fill="none" stroke="#fff" stroke-linecap="round" stroke-linejoin="round" stroke-miterlimit="10" stroke-width="6">
    <path d="M66.12 26.296C66.12 20.353 61 14.136 61 16s.947 26.632.947 26.632L61 58.83a2 2 0 104 0l-.529-16.29s1.65-10.3 1.65-16.243zM11.421 16.74s.112 4.158.112 8.106c0 2.96-.9 4.82-2.181 5.565h0l.028 28.418a2 2 0 11-4 0l.811-28.413h0C4.904 29.677 4 27.814 4 24.846c0-3.948.112-8.106.112-8.106m3.654 0v9.585"/>
    <circle cx="36" cy="35.958" r="19.958"/>
    <circle cx="36.004" cy="36" r="12.149"/>
  </g>
  <g fill="#D0CFCE">
    <path d="M66.12 26.296C66.12 20.353 61 14.136 61 16s.947 26.632.947 26.632L61 58.83a2 2 0 104 0l-.529-16.29s1.65-10.3 1.65-16.243zM11.421 16.74s.112 4.158.112 8.106c0 2.96-.9 4.82-2.181 5.565l.028 28.418a2 2 0 11-4 0l.811-28.413C4.904 29.677 4 27.814 4 24.846c0-3.948.112-8.106.112-8.106m3.654 0v9.585"/>
    <circle cx="36" cy="35.958" r="19.958"/>
    <circle cx="36.004" cy="36" r="12.149"/>
  </g>
  <g fill="none" stroke="#000" stroke-miterlimit="10" stroke-width="2">
    <path d="M66.12 26.296C66.12 20.353 61 14.136 61 16s.947 26.632.947 26.632L61 58.83a2 2 0 104 0l-.529-16.29s1.65-10.3 1.65-16.243z"/>
    <path stroke-linecap="round" stroke-linejoin="round" d="M11.421 16.74s.112 4.158.112 8.106c0 2.96-.9 4.82-2.181 5.565h0l.028 28.418a2 2 0 11-4 0l.811-28.413h0C4.904 29.677 4 27.814 4 24.846c0-3.948.112-8.106.112-8.106m3.654 0v9.585"/>
    <circle cx="36" cy="35.958" r="19.958" stroke-linecap="round" stroke-linejoin="round"/>
    <circle cx="36.004" cy="36" r="12.149" stroke-linecap="round" stroke-linejoin="round"/>
  </g>
</svg>
