<svg viewBox="0 0 72 72" xmlns="http://www.w3.org/2000/svg">
  <path fill="#B3B3B3" d="M68 4v64H4V4h64m4-4H0v72h72V0z"/>
  <path fill="none" stroke="#00A5FF" stroke-miterlimit="10" stroke-width="0.1" d="M12.923 10.958h46.154c1.062 0 1.923.861 1.923 1.923v46.154a1.923 1.923 0 01-1.923 1.923H12.923A1.923 1.923 0 0111 59.035h0V12.881c0-1.062.861-1.923 1.923-1.923h0z"/>
  <path fill="none" stroke="#00A5FF" stroke-miterlimit="10" stroke-width="0.1" d="M18.254 4h35.492A2.254 2.254 0 0156 6.254v59.492A2.254 2.254 0 0153.746 68H18.254A2.254 2.254 0 0116 65.746V6.254A2.254 2.254 0 0118.254 4z"/>
  <path fill="none" stroke="#00A5FF" stroke-miterlimit="10" stroke-width="0.1" d="M68 18.254v35.492A2.254 2.254 0 0165.746 56H6.254A2.254 2.254 0 014 53.746V18.254A2.254 2.254 0 016.254 16h59.492A2.254 2.254 0 0168 18.254z"/>
  <circle cx="36" cy="36" r="29" fill="none" stroke="#00A5FF" stroke-miterlimit="10" stroke-width="0.1"/>
  <g fill="none" stroke="#fff" stroke-linecap="round" stroke-linejoin="round" stroke-miterlimit="10" stroke-width="6">
    <path d="M34 47.21l.01 1.94.03 6.46-5.92-3.81L22.2 48l5.89-2.66 1.95-.88"/>
    <circle cx="45" cy="27" r="23"/>
    <path d="M17.725 65.09c.505.04 1.026 0 1.547-.129 2.704-.664 4.41-3.457 3.812-6.238"/>
    <path d="M23.14 58.907a4.875 4.875 0 01-.258-1.53c-.024-2.785 2.26-5.13 5.102-5.237"/>
  </g>
  <path fill="#D22F27" d="M33.976 42.69l.03 6.46.03 6.459-5.92-3.807-5.919-3.807 5.89-2.652z"/>
  <circle cx="45" cy="27" r="23" fill="#EA5A47"/>
  <path fill="#D22F27" d="M60.827 10.549a23.041 23.041 0 00-4.361-3.417c5.36 8.847 4.224 20.525-3.418 28.166s-19.32 8.778-28.166 3.418a23.042 23.042 0 003.417 4.36c8.982 8.982 23.545 8.982 32.528 0 8.982-8.982 8.982-23.545 0-32.527z"/>
  <g fill="none" stroke="#000" stroke-miterlimit="10">
    <path stroke-linecap="round" stroke-linejoin="round" stroke-width="2.122" d="M34 47.21l.01 1.94.03 6.46-5.92-3.81L22.2 48l5.89-2.66 1.95-.88"/>
    <circle cx="45" cy="27" r="23" stroke-width="2"/>
    <path stroke-linecap="round" stroke-linejoin="round" stroke-width="2" d="M17.725 65.09c.505.04 1.026 0 1.547-.129 2.704-.664 4.41-3.457 3.812-6.238"/>
    <path stroke-linecap="round" stroke-linejoin="round" stroke-width="2" d="M23.14 58.907a4.875 4.875 0 01-.258-1.53c-.024-2.785 2.26-5.13 5.102-5.237"/>
  </g>
</svg>
