<svg viewBox="0 0 72 72" xmlns="http://www.w3.org/2000/svg">
  <path fill="#b3b3b3" d="M68 4v64H4V4h64m4-4H0v72h72V0z"/>
  <path fill="none" stroke="#00a5ff" stroke-miterlimit="10" stroke-width="0.1" d="M12.923 10.958h46.154A1.923 1.923 0 0161 12.881v46.154a1.923 1.923 0 01-1.923 1.923H12.923A1.923 1.923 0 0111 59.035V12.881a1.923 1.923 0 011.923-1.923z"/>
  <rect x="16" y="4" rx="2.254" width="40" height="64" fill="none" stroke="#00a5ff" stroke-miterlimit="10" stroke-width="0.1"/>
  <rect x="16" y="4" rx="2.254" width="40" height="64" transform="rotate(90 36 36)" fill="none" stroke="#00a5ff" stroke-miterlimit="10" stroke-width="0.1"/>
  <circle cx="36" cy="36" r="29" fill="none" stroke="#00a5ff" stroke-miterlimit="10" stroke-width="0.1"/>
  <g fill="none" stroke="#fff" stroke-linecap="round" stroke-linejoin="round" stroke-miterlimit="10" stroke-width="6">
    <path d="M27.612 16.11h0m28.286 28.272h0M55.882 16.1h0m-28.289.028h0M41.75 10.25v14m6 6h14m-20 20v-14m-6-6h-14m15.757-4.243l-6.364-6.364m21.214 0l-6.364 6.364m6.364 14.85l-6.364-6.364M32.262 7.347l2.715 6.556M18.84 20.77l6.557 2.715m-6.554 16.268l6.556-2.718m6.87 16.136l2.714-6.557m16.269 6.55l-2.718-6.555m16.133-6.874l-6.557-2.712m6.546-16.271l-6.555 2.72M51.218 7.348l-2.707 6.56m-16.275-6.55l2.715 6.556M13 57l27.638-27.76a1.5 1.5 0 012.121 0h0a1.5 1.5 0 010 2.122L19 55"/>
    <path d="M17 52.879L40.638 29.24a1.5 1.5 0 012.121 0h0a1.5 1.5 0 010 2.121L31.92 42.201"/>
  </g>
  <g fill="none" stroke="#000" stroke-linecap="round" stroke-width="2">
    <path stroke-miterlimit="10" d="M27.612 16.11h0m28.286 28.272h0M55.882 16.1h0m-28.289.028h0"/>
    <path stroke-linejoin="round" d="M41.75 10.25v14m6 6h14m-20 20v-14m-6-6h-14"/>
    <path stroke-miterlimit="10" d="M37.507 26.007l-6.364-6.364m21.214 0l-6.364 6.364m6.364 14.85l-6.364-6.364M32.262 7.347l2.715 6.556M18.84 20.77l6.557 2.715m-6.554 16.268l6.556-2.718m6.87 16.136l2.714-6.557m16.269 6.55l-2.718-6.555m16.133-6.874l-6.557-2.712m6.546-16.271l-6.555 2.72M51.218 7.348l-2.707 6.56m-16.275-6.55l2.715 6.556M13 57l27.638-27.76a1.5 1.5 0 012.121 0h0a1.5 1.5 0 010 2.122L19 55"/>
  </g>
  <path fill="#9b9b9a" d="M11.293 57.172L39.93 28.534a2.5 2.5 0 013.535 0 2.5 2.5 0 010 3.535L14.828 60.707a1 1 0 01-1.414 0l-2.121-2.121a1 1 0 010-1.414z"/>
  <g fill="none" stroke="#f1b31c" stroke-linecap="round" stroke-width="2">
    <path stroke-miterlimit="10" d="M27.612 16.11h0m28.286 28.272h0M55.882 16.1h0m-28.289.028h0"/>
    <path stroke-linejoin="round" d="M41.75 10.25v14m6 6h14m-20 20v-14m-6-6h-14"/>
    <path stroke-miterlimit="10" d="M37.507 26.007l-6.364-6.364m21.214 0l-6.364 6.364m6.364 14.85l-6.364-6.364M32.262 7.347l2.715 6.556M18.84 20.77l6.557 2.715m-6.554 16.268l6.556-2.718m6.87 16.136l2.714-6.557m16.269 6.55l-2.718-6.555m16.133-6.874l-6.557-2.712m6.546-16.271l-6.555 2.72M51.218 7.348l-2.707 6.56m-16.275-6.55l2.715 6.556"/>
  </g>
  <g>
    <path fill="none" stroke="#000" stroke-linecap="round" stroke-miterlimit="10" stroke-width="2" d="M17 52.879L40.638 29.24a1.5 1.5 0 012.121 0h0a1.5 1.5 0 010 2.121L31.92 42.201"/>
  </g>
</svg>
