<svg viewBox="0 0 72 72" xmlns="http://www.w3.org/2000/svg">
  <path fill="#b3b3b3" d="M68 4v64H4V4h64m4-4H0v72h72V0z"/>
  <path fill="none" stroke="#00a5ff" stroke-miterlimit="10" stroke-width="0.1" d="M12.923 10.958h46.154A1.923 1.923 0 0161 12.881v46.154a1.923 1.923 0 01-1.923 1.923H12.923A1.923 1.923 0 0111 59.035V12.881a1.923 1.923 0 011.923-1.923z"/>
  <rect x="16" y="4" rx="2.254" width="40" height="64" fill="none" stroke="#00a5ff" stroke-miterlimit="10" stroke-width="0.1"/>
  <rect x="16" y="4" rx="2.254" width="40" height="64" transform="rotate(90 36 36)" fill="none" stroke="#00a5ff" stroke-miterlimit="10" stroke-width="0.1"/>
  <circle cx="36" cy="36" r="29" fill="none" stroke="#00a5ff" stroke-miterlimit="10" stroke-width="0.1"/>
  <path fill="none" stroke="#fff" stroke-linecap="round" stroke-linejoin="round" stroke-miterlimit="10" stroke-width="6" d="M46 56L27 16M6.84 25.478l19.85-9.489 6.47 13.533-19.85 9.489zM25.841 56l19-40M58.53 39.011l-19.848-9.489 6.47-13.533L65 25.478z"/>
  <path fill="#fff" d="M6.84 25.478l19.85-9.489 6.47 13.533-19.85 9.489zm51.69 13.533l-19.848-9.489 6.47-13.533L65 25.478z"/>
  <circle cx="20" cy="27.5" r="2.5"/>
  <circle cx="51.841" cy="27.5" r="2.5"/>
  <g>
    <path fill="none" stroke="#000" stroke-linecap="round" stroke-linejoin="round" stroke-width="2" d="M46 56L27 16M6.84 25.478l19.85-9.489 6.47 13.533-19.85 9.489zM25.841 56l19-40M58.53 39.011l-19.848-9.489 6.47-13.533L65 25.478z"/>
  </g>
  <g fill="#d22f27">
    <circle cx="20" cy="27.5" r="2.5"/>
    <circle cx="51.841" cy="27.5" r="2.5"/>
  </g>
</svg>
