<svg viewBox="0 0 72 72" xmlns="http://www.w3.org/2000/svg">
  <path fill="#b3b3b3" d="M68 4v64H4V4h64m4-4H0v72h72V0z"/>
  <path fill="none" stroke="#00a5ff" stroke-miterlimit="10" stroke-width="0.1" d="M12.923 10.958h46.154A1.923 1.923 0 0161 12.881v46.154a1.923 1.923 0 01-1.923 1.923H12.923A1.923 1.923 0 0111 59.035V12.881a1.923 1.923 0 011.923-1.923z"/>
  <rect x="16" y="4" rx="2.254" width="40" height="64" fill="none" stroke="#00a5ff" stroke-miterlimit="10" stroke-width="0.1"/>
  <rect x="16" y="4" rx="2.254" width="40" height="64" transform="rotate(90 36 36)" fill="none" stroke="#00a5ff" stroke-miterlimit="10" stroke-width="0.1"/>
  <circle cx="36" cy="36" r="29" fill="none" stroke="#00a5ff" stroke-miterlimit="10" stroke-width="0.1"/>
  <g fill="none" stroke="#fff" stroke-linecap="round" stroke-linejoin="round" stroke-miterlimit="10" stroke-width="6">
    <path d="M18 67V8"/>
    <circle cx="18" cy="7" r="1"/>
    <circle cx="18" cy="7" r="2"/>
    <circle cx="36" cy="21.367" r="1"/>
    <path d="M42 20s3 0 4 2"/>
    <circle cx="34" cy="42.367" r="1"/>
    <path d="M40 41s3 0 4 2M28 20.385L18 22l10 2.077m-2 17.308L18 43l8 2.077m32.692-25.923c2.923 0 7.308-2.462 7.308-2.462v9.846s-2.923-4.923-7.308-2.461S47 26.538 47 26.538L45.538 29h-7.307l-1.462-2.462A20.799 20.799 0 0128 24.078v-3.692s4.385-3.556 8.77-3.556v-2.462s9.042-3 17.538 1.094v2.462a7.098 7.098 0 004.384 1.23z"/>
    <path d="M56.692 40.154c2.923 0 7.308-2.462 7.308-2.462v9.846s-2.923-4.923-7.308-2.461S45 47.539 45 47.539L43.538 50h-7.307l-1.462-2.462A20.799 20.799 0 0126 45.078v-3.692s4.385-3.556 8.77-3.556v-2.462s9.042-3 17.538 1.095v2.461a7.098 7.098 0 004.384 1.23z"/>
  </g>
  <path fill="#61b2e4" d="M58.692 19.154c2.923 0 7.308-2.462 7.308-2.462v9.846s-2.923-4.923-7.308-2.461S47 26.538 47 26.538L45.538 29h-7.307l-1.462-2.462A20.799 20.799 0 0128 24.078v-3.692s4.385-3.556 8.77-3.556v-2.462s9.042-3 17.538 1.094v2.462a7.098 7.098 0 004.384 1.23z"/>
  <path fill="#d22f27" d="M56.692 40.154c2.923 0 7.308-2.462 7.308-2.462v9.846s-2.923-4.923-7.308-2.461S45 47.539 45 47.539L43.538 50h-7.307l-1.462-2.462A20.799 20.799 0 0126 45.078v-3.692s4.385-3.556 8.77-3.556v-2.462s9.042-3 17.538 1.095v2.461a7.098 7.098 0 004.384 1.23z"/>
  <g stroke="#000" stroke-linecap="round" stroke-linejoin="round" stroke-width="2">
    <path fill="none" d="M18 67V8"/>
    <circle cx="18" cy="7" r="1"/>
    <circle cx="18" cy="7" r="2"/>
    <circle cx="36" cy="21.367" r="1"/>
    <path fill="none" d="M42 20s3 0 4 2"/>
    <circle cx="34" cy="42.367" r="1"/>
    <path fill="none" d="M40 41s3 0 4 2M28 20.385L18 22l10 2.077m-2 17.308L18 43l8 2.077m32.692-25.923c2.923 0 7.308-2.462 7.308-2.462v9.846s-2.923-4.923-7.308-2.461S47 26.538 47 26.538L45.538 29h-7.307l-1.462-2.462A20.799 20.799 0 0128 24.078v-3.692s4.385-3.556 8.77-3.556v-2.462s9.042-3 17.538 1.094v2.462a7.098 7.098 0 004.384 1.23z"/>
    <path fill="none" d="M56.692 40.154c2.923 0 7.308-2.462 7.308-2.462v9.846s-2.923-4.923-7.308-2.461S45 47.539 45 47.539L43.538 50h-7.307l-1.462-2.462A20.799 20.799 0 0126 45.078v-3.692s4.385-3.556 8.77-3.556v-2.462s9.042-3 17.538 1.095v2.461a7.098 7.098 0 004.384 1.23z"/>
  </g>
</svg>
