<svg viewBox="0 0 72 72" xmlns="http://www.w3.org/2000/svg">
  <path fill="#b3b3b3" d="M68 4v64H4V4h64m4-4H0v72h72V0z"/>
  <path fill="none" stroke="#00a5ff" stroke-miterlimit="10" stroke-width="0.1" d="M12.923 10.958h46.154A1.923 1.923 0 0161 12.881v46.154a1.923 1.923 0 01-1.923 1.923H12.923A1.923 1.923 0 0111 59.035V12.881a1.923 1.923 0 011.923-1.923z"/>
  <rect x="16" y="4" rx="2.254" width="40" height="64" fill="none" stroke="#00a5ff" stroke-miterlimit="10" stroke-width="0.1"/>
  <rect x="16" y="4" rx="2.254" width="40" height="64" transform="rotate(90 36 36)" fill="none" stroke="#00a5ff" stroke-miterlimit="10" stroke-width="0.1"/>
  <circle cx="36" cy="36" r="29" fill="none" stroke="#00a5ff" stroke-miterlimit="10" stroke-width="0.1"/>
  <g fill="none" stroke="#fff" stroke-linecap="round" stroke-linejoin="round" stroke-miterlimit="10" stroke-width="6">
    <path d="M50.663 45.64l.168.168-21.87 9.3L7.09 64.41l9.3-21.87 9.301-21.87m.11.108l12.46 12.46L50.664 45.64M25.692 20.669l.109.109M46.49 7.367c.235.449.403.943.49 1.473.451 2.747-1.447 5.414-4.239 5.957"/>
    <path d="M42.933 14.776a4.875 4.875 0 00-1.51.364c-2.569 1.072-3.827 4.093-2.81 6.75m23.18 4.827a4.875 4.875 0 01-.543 1.454c-1.372 2.423-4.523 3.31-7.037 1.98"/>
    <path d="M54.374 30.256a4.876 4.876 0 00-1.403-.663c-2.673-.778-5.549.787-6.422 3.493"/>
  </g>
  <path fill="#F1B31C" d="M26.18 20.18l12.57 12.57 12.57 12.57-21.53 8.96-21.53 8.96 8.96-21.53z"/>
  <path fill="#FCEA2B" d="M40 35L25.692 20.67l-9.3 21.87L7.09 64.41z"/>
  <path fill="#EA5A47" d="M15.224 45.285l11.062 11.062-5.531 2.251-7.797-7.797z"/>
  <path fill="#D22F27" d="M17.343 55.248l3.412 3.35 5.53-2.251-4.8-4.801z"/>
  <path fill="#EA5A47" d="M20.805 32.163l6.696 6.696 11.7 11.7-6.274 2.863-8.171-8.172-6.606-6.605z"/>
  <path fill="#D22F27" d="M26.537 47.031l6.39 6.39 6.273-2.863-7.838-7.838z"/>
  <ellipse cx="30.295" cy="14.458" rx="2" ry="1.971" fill="#8967aa"/>
  <ellipse cx="60.295" cy="18.458" rx="2" ry="1.971" fill="#f1b31c"/>
  <ellipse cx="57.295" cy="39.458" rx="2" ry="1.971" fill="#d22f27"/>
  <g fill="none" stroke="#000" stroke-linecap="round" stroke-linejoin="round" stroke-miterlimit="10" stroke-width="2">
    <path d="M50.663 45.64l.168.168-21.87 9.3L7.09 64.41l9.3-21.87 9.301-21.87m.11.108l12.46 12.46L50.664 45.64M25.692 20.669l.109.109M46.49 7.367c.235.449.403.943.49 1.473.451 2.747-1.447 5.414-4.239 5.957"/>
    <path d="M42.933 14.776a4.875 4.875 0 00-1.51.364c-2.569 1.072-3.827 4.093-2.81 6.75m23.18 4.827a4.875 4.875 0 01-.543 1.454c-1.372 2.423-4.523 3.31-7.037 1.98"/>
    <path d="M54.374 30.256a4.876 4.876 0 00-1.403-.663c-2.673-.778-5.549.787-6.422 3.493"/>
  </g>
</svg>
