<svg viewBox="0 0 72 72" xmlns="http://www.w3.org/2000/svg">
  <path fill="#b3b3b3" d="M68 4v64H4V4h64m4-4H0v72h72V0z"/>
  <path fill="none" stroke="#00a5ff" stroke-miterlimit="10" stroke-width="0.1" d="M12.923 10.958h46.154A1.923 1.923 0 0161 12.881v46.154a1.923 1.923 0 01-1.923 1.923H12.923A1.923 1.923 0 0111 59.035V12.881a1.923 1.923 0 011.923-1.923z"/>
  <rect x="16" y="4" rx="2.254" width="40" height="64" fill="none" stroke="#00a5ff" stroke-miterlimit="10" stroke-width="0.1"/>
  <rect x="16" y="4" rx="2.254" width="40" height="64" transform="rotate(90 36 36)" fill="none" stroke="#00a5ff" stroke-miterlimit="10" stroke-width="0.1"/>
  <circle cx="36" cy="36" r="29" fill="none" stroke="#00a5ff" stroke-miterlimit="10" stroke-width="0.1"/>
  <g fill="none" stroke="#fff" stroke-linecap="round" stroke-linejoin="round" stroke-miterlimit="10" stroke-width="6">
    <path d="M47 50.842l10.543 8.594c.984.802 2.457.102 2.457-1.167V33.148c0-1.269-1.473-1.969-2.457-1.167l-10.835 8.831"/>
    <circle cx="19.167" cy="20.167" r="7.146"/>
    <circle cx="39.563" cy="20.167" r="7.146"/>
    <path d="M43.977 59.417H15.023A3.023 3.023 0 0112 56.394V35.023A3.023 3.023 0 0115.023 32h28.954A3.023 3.023 0 0147 35.023v21.37a3.023 3.023 0 01-3.023 3.024z"/>
  </g>
  <g fill="#d0cfce">
    <path d="M47 50.842l10.543 8.594c.984.802 2.457.102 2.457-1.167V33.148c0-1.269-1.473-1.969-2.457-1.167l-10.835 8.831"/>
    <circle cx="19.167" cy="20.167" r="7.146"/>
    <circle cx="39.563" cy="20.167" r="7.146"/>
    <path d="M43.977 59.417H15.023A3.023 3.023 0 0112 56.394V35.023A3.023 3.023 0 0115.023 32h28.954A3.023 3.023 0 0147 35.023v21.37a3.023 3.023 0 01-3.023 3.024z"/>
  </g>
  <g fill="none" stroke="#000" stroke-linejoin="round" stroke-miterlimit="10" stroke-width="2">
    <path stroke-linecap="round" d="M47 50.842l10.543 8.594c.984.802 2.457.102 2.457-1.167V33.148c0-1.269-1.473-1.969-2.457-1.167l-10.835 8.831"/>
    <circle cx="19.167" cy="20.167" r="7.146"/>
    <circle cx="39.563" cy="20.167" r="7.146"/>
    <path d="M43.977 59.417H15.023A3.023 3.023 0 0112 56.394V35.023A3.023 3.023 0 0115.023 32h28.954A3.023 3.023 0 0147 35.023v21.37a3.023 3.023 0 01-3.023 3.024z"/>
  </g>
</svg>
