<svg viewBox="0 0 72 72" xmlns="http://www.w3.org/2000/svg">
  <path fill="#b3b3b3" d="M68 4v64H4V4h64m4-4H0v72h72V0z"/>
  <path fill="none" stroke="#00a5ff" stroke-miterlimit="10" stroke-width="0.1" d="M12.923 10.958h46.154A1.923 1.923 0 0161 12.881v46.154a1.923 1.923 0 01-1.923 1.923H12.923A1.923 1.923 0 0111 59.035V12.881a1.923 1.923 0 011.923-1.923z"/>
  <rect x="16" y="4" rx="2.254" width="40" height="64" fill="none" stroke="#00a5ff" stroke-miterlimit="10" stroke-width="0.1"/>
  <rect x="16" y="4" rx="2.254" width="40" height="64" transform="rotate(90 36 36)" fill="none" stroke="#00a5ff" stroke-miterlimit="10" stroke-width="0.1"/>
  <circle cx="36" cy="36" r="29" fill="none" stroke="#00a5ff" stroke-miterlimit="10" stroke-width="0.1"/>
  <path fill="none" stroke="#fff" stroke-linecap="round" stroke-linejoin="round" stroke-miterlimit="10" stroke-width="6" d="M55.355 32.376l-.673 14.876 1.154-25.498.117-2.576.547-12.095h-40l1.818 40.169-.673-14.876zM54.5 51.262s-11.29 1.77-17.5 1.77-18.5-1.77-18.5-1.77c-7.313-1.159-14-2.076-14-.04 0 3.56 14.327 6.447 32 6.447s32-2.886 32-6.447c0-2.036-6.687-1.119-14 .04z"/>
  <path fill="#FCEA2B" d="M55.532 51.262l-19.02 1-19.02-1-.904-18.886H56z"/>
  <path fill="#3F3F3F" d="M55.355 32.376l-.673 14.876 1.154-25.498.117-2.576.547-12.095h-40l1.818 40.169-.673-14.876zM54.5 51.262s-11.29 1.77-17.5 1.77-18.5-1.77-18.5-1.77c-7.313-1.159-14-2.076-14-.04 0 3.56 14.327 6.447 32 6.447s32-2.886 32-6.447c0-2.036-6.687-1.119-14 .04z"/>
  <path fill="none" stroke="#000" stroke-linecap="round" stroke-linejoin="round" stroke-miterlimit="10" stroke-width="2" d="M55.355 32.376l-.673 14.876 1.154-25.498.117-2.576.547-12.095h-40l1.818 40.169-.673-14.876zM54.5 51.262s-11.29 1.77-17.5 1.77-18.5-1.77-18.5-1.77c-7.313-1.159-14-2.076-14-.04 0 3.56 14.327 6.447 32 6.447s32-2.886 32-6.447c0-2.036-6.687-1.119-14 .04z"/>
</svg>
