<svg viewBox="0 0 72 72" xmlns="http://www.w3.org/2000/svg">
  <path fill="#b3b3b3" d="M68 4v64H4V4h64m4-4H0v72h72V0z"/>
  <path fill="none" stroke="#00a5ff" stroke-miterlimit="10" stroke-width="0.1" d="M12.923 10.958h46.154A1.923 1.923 0 0161 12.881v46.154a1.923 1.923 0 01-1.923 1.923H12.923A1.923 1.923 0 0111 59.035V12.881a1.923 1.923 0 011.923-1.923z"/>
  <rect x="16" y="4" rx="2.254" width="40" height="64" fill="none" stroke="#00a5ff" stroke-miterlimit="10" stroke-width="0.1"/>
  <rect x="16" y="4" rx="2.254" width="40" height="64" transform="rotate(90 36 36)" fill="none" stroke="#00a5ff" stroke-miterlimit="10" stroke-width="0.1"/>
  <circle cx="36" cy="36" r="29" fill="none" stroke="#00a5ff" stroke-miterlimit="10" stroke-width="0.1"/>
  <g fill="none" stroke="#fff" stroke-linecap="round" stroke-linejoin="round" stroke-miterlimit="10" stroke-width="6">
    <path d="M11.5 39h49v16h-49zM36 25L11.5 39h49z"/>
    <path d="M36 25L20.5 39h31z"/>
    <path d="M36 25l-5.5 14h11zM21 39h30v16H21z"/>
    <path d="M30.5 39h11v16h-11z"/>
    <path d="M36 44l-3 11h6z"/>
  </g>
  <path fill="#FFF" d="M11.5 39h49v16h-49zM36 25L11.5 39h49z"/>
  <path fill="#EA5A47" d="M36 25L20.5 39h31z"/>
  <path fill="#FFF" d="M36 25l-5.5 14h11z"/>
  <path fill="#EA5A47" d="M21 39h30v16H21z"/>
  <path fill="#FFF" d="M30.5 39h11v16h-11z"/>
  <path fill="#3F3F3F" d="M36 44l-3 11h6z"/>
  <g fill="none" stroke="#000" stroke-linecap="round" stroke-linejoin="round" stroke-miterlimit="10" stroke-width="2">
    <path d="M11.5 39h49v16h-49zM36 25L11.5 39h49z"/>
    <path d="M36 25L20.5 39h31z"/>
    <path d="M36 25l-5.5 14h11zM21 39h30v16H21z"/>
    <path d="M30.5 39h11v16h-11z"/>
    <path d="M36 44l-3 11h6z"/>
  </g>
</svg>
