<svg viewBox="0 0 72 72" xmlns="http://www.w3.org/2000/svg">
  <path fill="#b3b3b3" d="M68 4v64H4V4h64m4-4H0v72h72V0z"/>
  <path fill="none" stroke="#00a5ff" stroke-miterlimit="10" stroke-width="0.1" d="M12.923 10.958h46.154A1.923 1.923 0 0161 12.881v46.154a1.923 1.923 0 01-1.923 1.923H12.923A1.923 1.923 0 0111 59.035V12.881a1.923 1.923 0 011.923-1.923z"/>
  <rect x="16" y="4" rx="2.254" width="40" height="64" fill="none" stroke="#00a5ff" stroke-miterlimit="10" stroke-width="0.1"/>
  <rect x="16" y="4" rx="2.254" width="40" height="64" transform="rotate(90 36 36)" fill="none" stroke="#00a5ff" stroke-miterlimit="10" stroke-width="0.1"/>
  <circle cx="36" cy="36" r="29" fill="none" stroke="#00a5ff" stroke-miterlimit="10" stroke-width="0.1"/>
  <g fill="none" stroke="#fff" stroke-linecap="round" stroke-linejoin="round" stroke-miterlimit="10" stroke-width="6">
    <path d="M11.466 11.499H2.513m8.953 0V2.546m4.041 13.001H6.554m8.955-.002V6.593m23.977 32.871L7.478 7.519m14.491 8.828a29.04 29.04 0 0117.52-5.892c16.016 0 29 12.984 29 29s-12.984 29-29 29-29-12.984-29-29a28.868 28.868 0 015.828-17.44"/>
    <path d="M26.257 20.64a22.895 22.895 0 0113.231-4.185c12.703 0 23 10.298 23 23s-10.297 23-23 23-23-10.297-23-23a22.89 22.89 0 014.097-13.105"/>
    <path d="M32.04 26.432a14.931 14.931 0 017.448-1.977c8.284 0 15 6.716 15 15s-6.716 15-15 15-15-6.716-15-15c0-2.616.73-5.127 1.908-7.268m13.682 2.287a5 5 0 11-5.556 5.781"/>
    <path d="M35.778 30.166a9.974 9.974 0 013.71-.71c5.523 0 10 4.476 10 10s-4.477 10-10 10-10-4.478-10-10a9.93 9.93 0 01.686-3.59"/>
  </g>
  <circle cx="39.488" cy="39.455" r="29.85" fill="#EA5A47"/>
  <circle cx="39.488" cy="39.455" r="23.85" fill="#FFF"/>
  <circle cx="39.488" cy="39.455" r="15.85" fill="#EA5A47"/>
  <circle cx="39.488" cy="39.455" r="10.9" fill="#FFF"/>
  <circle cx="39.488" cy="39.455" r="5.9" fill="#EA5A47"/>
  <g fill="none" stroke="#000" stroke-linecap="round" stroke-linejoin="round" stroke-miterlimit="10" stroke-width="2">
    <path d="M11.466 11.499H2.513m8.953 0V2.546m4.041 13.001H6.554m8.955-.002V6.593m23.977 32.871L7.478 7.519m14.491 8.828a29.04 29.04 0 0117.52-5.892c16.016 0 29 12.984 29 29s-12.984 29-29 29-29-12.984-29-29a28.868 28.868 0 015.828-17.44"/>
    <path d="M26.257 20.64a22.895 22.895 0 0113.231-4.185c12.703 0 23 10.298 23 23s-10.297 23-23 23-23-10.297-23-23a22.89 22.89 0 014.097-13.105"/>
    <path d="M32.04 26.432a14.931 14.931 0 017.448-1.977c8.284 0 15 6.716 15 15s-6.716 15-15 15-15-6.716-15-15c0-2.616.73-5.127 1.908-7.268m13.682 2.287a5 5 0 11-5.556 5.781"/>
    <path d="M35.778 30.166a9.974 9.974 0 013.71-.71c5.523 0 10 4.476 10 10s-4.477 10-10 10-10-4.478-10-10a9.93 9.93 0 01.686-3.59"/>
  </g>
</svg>
