<svg viewBox="0 0 72 72" xmlns="http://www.w3.org/2000/svg">
  <path fill="#b3b3b3" d="M68 4v64H4V4h64m4-4H0v72h72V0z"/>
  <path fill="none" stroke="#00a5ff" stroke-miterlimit="10" stroke-width="0.1" d="M12.923 10.958h46.154A1.923 1.923 0 0161 12.881v46.154a1.923 1.923 0 01-1.923 1.923H12.923A1.923 1.923 0 0111 59.035V12.881a1.923 1.923 0 011.923-1.923z"/>
  <rect x="16" y="4" rx="2.254" width="40" height="64" fill="none" stroke="#00a5ff" stroke-miterlimit="10" stroke-width="0.1"/>
  <rect x="16" y="4" rx="2.254" width="40" height="64" transform="rotate(90 36 36)" fill="none" stroke="#00a5ff" stroke-miterlimit="10" stroke-width="0.1"/>
  <circle cx="36" cy="36" r="29" fill="none" stroke="#00a5ff" stroke-miterlimit="10" stroke-width="0.1"/>
  <g fill="none" stroke="#fff" stroke-linecap="round" stroke-linejoin="round" stroke-miterlimit="10" stroke-width="6">
    <path d="M31.31 42.184c-.389-4.03 3.282-7.329 7.33-7.329s7.328 3.32 7.328 7.329c0 1.94-.575 9.481-10.787 9.13-4.586-.368-8.446-3.749-9.097-8.831-.501-3.917.022-7.31 4.076-11.363 4.054-4.054 5.223-4.296 9.321-9.948s2.583-9.291 2.374-10.009-1.607-3.037-4.2-3.037c-2.594 0-3.844 2.769-4.182 3.913-.339 1.145-.727 3.445-.094 7.878.475 3.32 8.056 32.29 8.983 36.603.09.414.158.832.196 1.25.003.03.028.765.028.765a5 5 0 11-9.887-1.062s.322-1.109.898-1.291"/>
    <circle cx="33.947" cy="57.146" r="2"/>
  </g>
  <path fill="none" stroke="#000" stroke-linecap="round" stroke-linejoin="round" stroke-miterlimit="10" stroke-width="2" d="M31.31 42.184c-.389-4.03 3.282-7.329 7.33-7.329s7.328 3.32 7.328 7.329c0 1.94-.575 9.481-10.787 9.13-4.586-.368-8.446-3.749-9.097-8.831-.501-3.917.022-7.31 4.076-11.363 4.054-4.054 5.223-4.296 9.321-9.948s2.583-9.291 2.374-10.009-1.607-3.037-4.2-3.037c-2.594 0-3.844 2.769-4.182 3.913-.339 1.145-.727 3.445-.094 7.878.475 3.32 8.056 32.29 8.983 36.603.09.414.158.832.196 1.25.003.03.028.765.028.765a5 5 0 11-9.887-1.062s.322-1.109.898-1.291"/>
  <circle cx="33.947" cy="57.146" r="2"/>
</svg>
