<svg viewBox="0 0 72 72" xmlns="http://www.w3.org/2000/svg">
  <path fill="#B3B3B3" d="M68 4v64H4V4h64m4-4H0v72h72V0z"/>
  <path fill="none" stroke="#00A5FF" stroke-miterlimit="10" stroke-width="0.1" d="M12.9 11h46.2c1.1 0 1.9.9 1.9 1.9h0V59c0 1.1-.9 1.9-1.9 1.9H12.9c-1 .1-1.9-.8-1.9-1.9h0V12.9c0-1.1.9-1.9 1.9-1.9h0z"/>
  <path fill="none" stroke="#00A5FF" stroke-miterlimit="10" stroke-width="0.1" d="M18.3 4h35.5C55 4 56 5 56 6.3v59.5c0 1.2-1 2.3-2.3 2.3H18.3C17 68 16 67 16 65.7V6.3C16 5 17 4 18.3 4z"/>
  <path fill="none" stroke="#00A5FF" stroke-miterlimit="10" stroke-width="0.1" d="M68 18.3v35.5c0 1.2-1 2.3-2.3 2.3H6.3C5 56 4 55 4 53.7V18.3C4 17 5 16 6.3 16h59.5c1.2 0 2.2 1 2.2 2.3z"/>
  <circle cx="36" cy="36" r="29" fill="none" stroke="#00A5FF" stroke-miterlimit="10" stroke-width="0.1"/>
  <g fill="none" stroke="#fff" stroke-linecap="round" stroke-linejoin="round" stroke-miterlimit="10" stroke-width="6">
    <path d="M43.7 63.9c.3-4.4 1.9-6.6 5.4-10.1 3.3-3.3 5.5-7.4 5.5-12.2 0-9.5-8.3-17.2-18.6-17.2s-18.6 7.7-18.6 17.2c0 4.8 2.2 8.9 5.5 12.2 3.5 3.5 5.1 5.7 5.4 10.1"/>
    <circle cx="36" cy="36" r="29"/>
  </g>
  <path fill="none" stroke="#000" stroke-linecap="round" stroke-linejoin="round" stroke-miterlimit="10" stroke-width="2" d="M43.7 63.9c.3-4.4 1.9-6.6 5.4-10.1 3.3-3.3 5.5-7.4 5.5-12.2 0-9.5-8.3-17.2-18.6-17.2s-18.6 7.7-18.6 17.2c0 4.8 2.2 8.9 5.5 12.2 3.5 3.5 5.1 5.7 5.4 10.1"/>
  <circle cx="36" cy="36" r="29" fill="#FCEA2B"/>
  <path fill="#F1B31C" d="M50.7 11c4.8 5.2 7.8 12.1 7.8 19.8 0 16-13 29-29 29-5.4 0-10.4-1.5-14.7-4C20.1 61.4 27.7 65 36 65c16 0 29-13 29-29 0-10.7-5.7-20-14.3-25z"/>
  <path fill="none" stroke="#FFF" stroke-linecap="round" stroke-linejoin="round" stroke-miterlimit="10" stroke-width="2" d="M43.7 63.9c.3-4.4 1.9-6.6 5.4-10.1 3.3-3.3 5.5-7.4 5.5-12.2 0-9.5-8.3-17.2-18.6-17.2s-18.6 7.7-18.6 17.2c0 4.8 2.2 8.9 5.5 12.2 3.5 3.5 5.1 5.7 5.4 10.1"/>
  <circle cx="36" cy="36" r="29" fill="none" stroke="#000" stroke-linecap="round" stroke-linejoin="round" stroke-miterlimit="10" stroke-width="2"/>
</svg>
