<svg viewBox="0 0 72 72" xmlns="http://www.w3.org/2000/svg">
  <path fill="#B3B3B3" d="M68 4v64H4V4h64m4-4H0v72h72V0z"/>
  <path fill="none" stroke="#00A5FF" stroke-miterlimit="10" stroke-width="0.1" d="M12.923 10.958h46.154c1.062 0 1.923.861 1.923 1.923v46.154a1.923 1.923 0 01-1.923 1.923H12.923A1.923 1.923 0 0111 59.035h0V12.881c0-1.062.861-1.923 1.923-1.923h0z"/>
  <path fill="none" stroke="#00A5FF" stroke-miterlimit="10" stroke-width="0.1" d="M18.254 4h35.492A2.254 2.254 0 0156 6.254v59.492A2.254 2.254 0 0153.746 68H18.254A2.254 2.254 0 0116 65.746V6.254A2.254 2.254 0 0118.254 4z"/>
  <path fill="none" stroke="#00A5FF" stroke-miterlimit="10" stroke-width="0.1" d="M68 18.254v35.492A2.254 2.254 0 0165.746 56H6.254A2.254 2.254 0 014 53.746V18.254A2.254 2.254 0 016.254 16h59.492A2.254 2.254 0 0168 18.254z"/>
  <circle cx="36" cy="36" r="29" fill="none" stroke="#00A5FF" stroke-miterlimit="10" stroke-width="0.1"/>
  <g fill="none" stroke="#fff" stroke-linecap="round" stroke-linejoin="round" stroke-miterlimit="10" stroke-width="6">
    <path d="M35.635 54.017l21.835-5.286V21.765l-21.853 4.75-21.85-4.75V48.73L35.6 54.017V30.371m-21.833-8.606l22.041-5.31 21.662 5.31"/>
    <circle cx="21.273" cy="32.934" r="3"/>
    <circle cx="27.245" cy="44.376" r="3"/>
    <circle cx="41.767" cy="45.221" r="3"/>
    <circle cx="46.827" cy="38.067" r="3"/>
    <circle cx="51.888" cy="30.912" r="3"/>
    <ellipse cx="35.831" cy="21.122" rx="4" ry="1.619"/>
  </g>
  <path fill="#D0CFCE" d="M58.094 22.608l-22.421 5.236-21.744-5.57 21.744-4.857z"/>
  <path fill="#9B9B9A" d="M58.221 48.347l-22.178 5.758-.37-27.1 22.493-5.159z"/>
  <path fill="#D0CFCE" d="M13.986 47.957l21.717 6.148-.03-26.26-13.023-3.146-8.667-2.403z"/>
  <path fill="none" stroke="#000" stroke-linecap="round" stroke-linejoin="round" stroke-miterlimit="10" stroke-width="2.069" d="M35.635 54.017l21.835-5.286V21.765l-21.853 4.75-21.85-4.75V48.73L35.6 54.017V30.371m-21.833-8.606l22.041-5.31 21.662 5.31"/>
  <circle cx="21.273" cy="32.934" r="3"/>
  <circle cx="27.245" cy="44.376" r="3"/>
  <circle cx="41.767" cy="45.221" r="3"/>
  <circle cx="46.827" cy="38.067" r="3"/>
  <circle cx="51.888" cy="30.912" r="3"/>
  <ellipse cx="35.831" cy="21.122" rx="4" ry="1.619"/>
</svg>
