<svg viewBox="0 0 72 72" xmlns="http://www.w3.org/2000/svg">
  <path fill="#b3b3b3" d="M68 4v64H4V4h64m4-4H0v72h72V0z"/>
  <path fill="none" stroke="#00a5ff" stroke-miterlimit="10" stroke-width="0.1" d="M12.923 10.958h46.154A1.923 1.923 0 0161 12.881v46.154a1.923 1.923 0 01-1.923 1.923H12.923A1.923 1.923 0 0111 59.035V12.881a1.923 1.923 0 011.923-1.923z"/>
  <rect x="16" y="4" rx="2.254" width="40" height="64" fill="none" stroke="#00a5ff" stroke-miterlimit="10" stroke-width="0.1"/>
  <rect x="16" y="4" rx="2.254" width="40" height="64" transform="rotate(90 36 36)" fill="none" stroke="#00a5ff" stroke-miterlimit="10" stroke-width="0.1"/>
  <circle cx="36" cy="36" r="29" fill="none" stroke="#00a5ff" stroke-miterlimit="10" stroke-width="0.1"/>
  <g fill="none" stroke="#fff" stroke-linecap="round" stroke-linejoin="round" stroke-miterlimit="10" stroke-width="6">
    <circle cx="26.969" cy="13.094" r="3"/>
    <path d="M42 36l5.854 8.361a11.025 11.025 0 002.869 2.656l6.721 3.966a2.363 2.363 0 011.223 2.517 1.69 1.69 0 01-2.35.74l-8.467-3.48a14.104 14.104 0 01-3.345-2.089L37 42"/>
    <path d="M31.084 31.587l.576 1.32a4.72 4.72 0 01-.351 3.46l-5.235 6.945A8.323 8.323 0 0024.973 47l-.196 14a1.849 1.849 0 001.685 2 2.175 2.175 0 001.954-1.985l1.342-11.03a6.789 6.789 0 011.656-3.4l3.172-3.17a53.68 53.68 0 012.95-2.695l2.928-2.44A4.864 4.864 0 0042 35h0c.23-1.991-2.945-5.784-3.472-6.75l-2.522-6.257m-.072-.194c-1.532-4.06-4.293-4.032-5.965-3.382a3.859 3.859 0 00-2.369 3.834"/>
    <path d="M30.938 22l-1.42 5.077A2.776 2.776 0 0127 29h-7m11.422-17.95s.579-.27.925.018c.408.337.686 1.599 1.168 2.145a3.26 3.26 0 001.813 1.071"/>
  </g>
  <g fill="#fcea2b">
    <circle cx="26.969" cy="13.094" r="3"/>
    <path d="M26.665 22.585s.304 3.708 3.304 9.042c.244.435 1.531 2.784 1.531 2.784L25 45l-.25 18h3.424L30 48l6-6 6-5v-4l-6-11"/>
    <path d="M42 36l7 10 10.167 6-1 3L46 50l-9-8m-1-20c-2-4-4.36-4.233-6.031-3.583A4.108 4.108 0 0028 24"/>
  </g>
  <g fill="none" stroke="#000" stroke-width="2">
    <circle cx="26.969" cy="13.094" r="3" stroke-miterlimit="10"/>
    <path stroke-linecap="round" stroke-linejoin="round" d="M42 36l5.854 8.361a11.025 11.025 0 002.869 2.656l6.721 3.966a2.363 2.363 0 011.223 2.517 1.69 1.69 0 01-2.35.74l-8.467-3.48a14.104 14.104 0 01-3.345-2.089L37 42"/>
    <path stroke-linecap="round" stroke-linejoin="round" d="M31.084 31.587l.576 1.32a4.72 4.72 0 01-.351 3.46l-5.235 6.945A8.323 8.323 0 0024.973 47l-.196 14a1.849 1.849 0 001.685 2 2.175 2.175 0 001.954-1.985l1.342-11.03a6.789 6.789 0 011.656-3.4l3.172-3.17a53.68 53.68 0 012.95-2.695l2.928-2.44A4.864 4.864 0 0042 35h0c.23-1.991-2.945-5.784-3.472-6.75l-2.522-6.257m-.072-.194c-1.532-4.06-4.293-4.032-5.965-3.382a3.859 3.859 0 00-2.369 3.834"/>
    <path stroke-linecap="round" stroke-linejoin="round" d="M30.938 22l-1.42 5.077A2.776 2.776 0 0127 29h-7m11.422-17.95s.579-.27.925.018c.408.337.686 1.599 1.168 2.145a3.26 3.26 0 001.813 1.071"/>
  </g>
</svg>
