<svg viewBox="0 0 72 72" xmlns="http://www.w3.org/2000/svg">
  <path fill="#b3b3b3" d="M68 4v64H4V4h64m4-4H0v72h72V0z"/>
  <path fill="none" stroke="#00a5ff" stroke-miterlimit="10" stroke-width="0.1" d="M12.923 10.958h46.154A1.923 1.923 0 0161 12.881v46.154a1.923 1.923 0 01-1.923 1.923H12.923A1.923 1.923 0 0111 59.035V12.881a1.923 1.923 0 011.923-1.923z"/>
  <rect x="16" y="4" rx="2.254" width="40" height="64" fill="none" stroke="#00a5ff" stroke-miterlimit="10" stroke-width="0.1"/>
  <rect x="16" y="4" rx="2.254" width="40" height="64" transform="rotate(90 36 36)" fill="none" stroke="#00a5ff" stroke-miterlimit="10" stroke-width="0.1"/>
  <circle cx="36" cy="36" r="29" fill="none" stroke="#00a5ff" stroke-miterlimit="10" stroke-width="0.1"/>
  <g fill="none" stroke="#fff" stroke-linecap="round" stroke-linejoin="round" stroke-miterlimit="10" stroke-width="6">
    <path d="M51 56V25h16v31M5 56V34h34v22"/>
    <path d="M51 55V25h16v30M5 55V34h34v21"/>
    <path d="M35 31V21h12v34M11 31V17h8v14m38 3h-2v-5m8 5h-2v-5m-4 15h-2v-5m8 5h-2v-5m-32 4h-2v-5m8 5h-2v-5m-4 15h-2v-5m8 5h-2v-5m-16-5h-2v-5m8 5h-2v-5m-4 15h-2v-5m-4-5H9v-5m2 15H9v-5m14 5h-2v-5m36 6h-2v-5m8 5h-2v-5M15 20v11m24-7v7m4-7v31"/>
  </g>
  <path fill="#9B9B9A" d="M10 34V17h10v17m14-13h13v35H34z"/>
  <path fill="#D0CFCE" d="M51 56V25h16v31M5 56V34h34v22"/>
  <g fill="none" stroke="#000" stroke-miterlimit="10">
    <path d="M51 56V25h16v31M5 56V34h34v22"/>
    <path stroke-linecap="round" stroke-linejoin="round" stroke-width="2" d="M51 55V25h16v30M5 55V34h34v21"/>
    <path stroke-linecap="round" stroke-linejoin="round" stroke-width="2" d="M35 31V21h12v34M11 31V17h8v14m38 3h-2v-5m8 5h-2v-5m-4 15h-2v-5m8 5h-2v-5m-32 4h-2v-5m8 5h-2v-5m-4 15h-2v-5m8 5h-2v-5m-16-5h-2v-5m8 5h-2v-5m-4 15h-2v-5m-4-5H9v-5m2 15H9v-5m14 5h-2v-5m36 6h-2v-5m8 5h-2v-5M15 20v11m24-7v7m4-7v31"/>
  </g>
</svg>
