<svg viewBox="0 0 72 72" xmlns="http://www.w3.org/2000/svg">
  <path fill="#b3b3b3" d="M68 4v64H4V4h64m4-4H0v72h72V0z"/>
  <path fill="none" stroke="#00a5ff" stroke-miterlimit="10" stroke-width="0.1" d="M12.923 10.958h46.154A1.923 1.923 0 0161 12.881v46.154a1.923 1.923 0 01-1.923 1.923H12.923A1.923 1.923 0 0111 59.035V12.881a1.923 1.923 0 011.923-1.923z"/>
  <rect x="16" y="4" rx="2.254" width="40" height="64" fill="none" stroke="#00a5ff" stroke-miterlimit="10" stroke-width="0.1"/>
  <rect x="16" y="4" rx="2.254" width="40" height="64" transform="rotate(90 36 36)" fill="none" stroke="#00a5ff" stroke-miterlimit="10" stroke-width="0.1"/>
  <circle cx="36" cy="36" r="29" fill="none" stroke="#00a5ff" stroke-miterlimit="10" stroke-width="0.1"/>
  <g fill="none" stroke="#fff" stroke-linecap="round" stroke-linejoin="round" stroke-miterlimit="10" stroke-width="6">
    <path d="M67.275 8.77l.506-.859a1.995 1.995 0 00-.703-2.724l-.429-.252-.428-.253a1.995 1.995 0 00-2.724.704L33.194 56.778a2.701 2.701 0 01-2.274 1.24h.021H7.056a3.073 3.073 0 00-3.064 3.064v2.561a3.073 3.073 0 003.064 3.064h24.297a3.082 3.082 0 002.625-1.466h0l31.269-53.032m.243 49.417v3.951c0 1.113-4.238 2.015-9.466 2.015s-9.467-.902-9.467-2.015v-3.951"/>
    <ellipse cx="56.023" cy="61.636" rx="9.466" ry="1.879"/>
  </g>
  <path fill="#9B9B9A" d="M65.49 62.028v3.685c0 1.038-4.238 1.879-9.466 1.879s-9.467-.841-9.467-1.879v-3.685"/>
  <ellipse cx="56.023" cy="61.636" rx="9.466" ry="1.879" fill="#D0CFCE"/>
  <path fill="#A57939" d="M33.194 56.778a2.701 2.701 0 01-2.274 1.24h.021H7.056a3.073 3.073 0 00-3.064 3.064v2.561a3.073 3.073 0 003.064 3.064h24.297a3.082 3.082 0 002.625-1.466l33.803-57.33a1.995 1.995 0 00-.703-2.724l-.429-.252-.428-.253a1.995 1.995 0 00-2.724.704L33.194 56.778z"/>
  <path fill="#6A462F" d="M67.078 5.191l-.4-.235L33.324 61.47a3.081 3.081 0 01-2.624 1.467H3.337v1.764c0 1.686 2.034 2.009 3.719 2.009h24.297a3.082 3.082 0 002.625-1.466l31.998-52.292 2.531-4.312c.556-.942-.487-2.894-1.43-3.45z"/>
  <g fill="none" stroke="#000" stroke-linecap="round" stroke-linejoin="round" stroke-miterlimit="10">
    <path stroke-width="2" d="M67.275 8.77l.506-.859a1.995 1.995 0 00-.703-2.724l-.429-.252-.428-.253a1.995 1.995 0 00-2.724.704L33.194 56.778a2.701 2.701 0 01-2.274 1.24h.021H7.056a3.073 3.073 0 00-3.064 3.064v2.561a3.073 3.073 0 003.064 3.064h24.297a3.082 3.082 0 002.625-1.466h0l31.269-53.032"/>
    <path stroke-width="1.9" d="M65.49 61.626v3.951c0 1.113-4.238 2.015-9.466 2.015s-9.467-.902-9.467-2.015v-3.951"/>
    <ellipse cx="56.023" cy="61.636" rx="9.466" ry="1.879" stroke-width="1.9"/>
  </g>
</svg>
