<svg viewBox="0 0 72 72" xmlns="http://www.w3.org/2000/svg">
  <path fill="#B3B3B3" d="M68 4v64H4V4h64m4-4H0v72h72V0z"/>
  <path fill="none" stroke="#00A5FF" stroke-miterlimit="10" stroke-width="0.1" d="M12.923 10.958h46.154c1.062 0 1.923.861 1.923 1.923h0v46.154a1.923 1.923 0 01-1.923 1.923H12.923A1.923 1.923 0 0111 59.035h0V12.881c0-1.062.861-1.923 1.923-1.923h0z"/>
  <path fill="none" stroke="#00A5FF" stroke-miterlimit="10" stroke-width="0.1" d="M18.254 4h35.492A2.254 2.254 0 0156 6.254v59.492A2.254 2.254 0 0153.746 68H18.254A2.254 2.254 0 0116 65.746V6.254A2.254 2.254 0 0118.254 4z"/>
  <path fill="none" stroke="#00A5FF" stroke-miterlimit="10" stroke-width="0.1" d="M68 18.254v35.492A2.254 2.254 0 0165.746 56H6.254A2.254 2.254 0 014 53.746V18.254A2.254 2.254 0 016.254 16h59.492A2.254 2.254 0 0168 18.254z"/>
  <circle cx="36" cy="36" r="29" fill="none" stroke="#00A5FF" stroke-miterlimit="10" stroke-width="0.1"/>
  <g fill="none" stroke="#fff" stroke-linecap="round" stroke-linejoin="round" stroke-miterlimit="10" stroke-width="6">
    <path d="M46.94 60v-7.675l-5.285-5.164m5.857 5.057l3.006-3.168M27 35L12.5 60h29l-6.934-11.956M27 60V44.25m0 0V60"/>
    <path d="M66.5 32.616c0-3.544-3.64-6.422-8.132-6.422-.375.003-.75.027-1.123.07C55.343 22.569 51.214 20 46.412 20c-6.604 0-11.957 4.845-11.957 10.821.001.395.026.79.074 1.182-2.952.963-5.029 3.256-5.029 5.935 0 3.544 3.64 6.422 8.132 6.422a9.567 9.567 0 004.876-1.292c1.922 1.58 4.996 2.61 8.472 2.61 5.825 0 10.546-2.876 10.546-6.423a3.985 3.985 0 00-.064-.699c2.956-.964 5.038-3.259 5.038-5.94zM27 54c-1 0-3 1-5 1a5 5 0 00-5 5h10v-6z"/>
  </g>
  <path fill="#FCEA2B" stroke="#FCEA2B" stroke-linecap="round" stroke-linejoin="round" stroke-miterlimit="10" stroke-width="2" d="M27 35L12.5 60h29L27 35"/>
  <path fill="#F1B31C" stroke="#F1B31C" stroke-linecap="round" stroke-linejoin="round" stroke-miterlimit="10" stroke-width="2" d="M27 35v25H12.5L27 35"/>
  <path fill="#B1CC33" d="M66.5 32.616c0-3.544-3.64-6.422-8.132-6.422-.375.003-.75.027-1.123.07C55.343 22.569 51.214 20 46.412 20c-6.604 0-11.957 4.845-11.957 10.821.001.395.026.79.074 1.182-2.952.963-5.029 3.256-5.029 5.935 0 3.544 3.64 6.422 8.132 6.422a9.567 9.567 0 004.876-1.292c1.922 1.58 4.996 2.61 8.472 2.61 5.825 0 10.546-2.876 10.546-6.423a3.985 3.985 0 00-.064-.699c2.956-.964 5.038-3.259 5.038-5.94z"/>
  <path fill="#8967AA" d="M27 54c-1 0-3 1-5 1a5 5 0 00-5 5h10v-6z"/>
  <g fill="none" stroke="#000" stroke-linecap="round" stroke-width="2">
    <path stroke-linejoin="round" d="M46.94 60v-7.675l-5.285-5.164m5.857 5.057l3.006-3.168"/>
    <path stroke-linejoin="round" stroke-miterlimit="10" d="M27 35L12.5 60h29l-6.934-11.956M27 60V44.25m0 0V60"/>
    <path stroke-miterlimit="10" d="M66.5 32.616c0-3.544-3.64-6.422-8.132-6.422-.375.003-.75.027-1.123.07C55.343 22.569 51.214 20 46.412 20c-6.604 0-11.957 4.845-11.957 10.821.001.395.026.79.074 1.182-2.952.963-5.029 3.256-5.029 5.935 0 3.544 3.64 6.422 8.132 6.422a9.567 9.567 0 004.876-1.292c1.922 1.58 4.996 2.61 8.472 2.61 5.825 0 10.546-2.876 10.546-6.423a3.985 3.985 0 00-.064-.699c2.956-.964 5.038-3.259 5.038-5.94z"/>
    <path stroke-linejoin="round" stroke-miterlimit="10" d="M27 54c-1 0-3 1-5 1a5 5 0 00-5 5h10v-6z"/>
  </g>
</svg>
