<svg viewBox="0 0 72 72" xmlns="http://www.w3.org/2000/svg">
  <path fill="#b3b3b3" d="M68 4v64H4V4h64m4-4H0v72h72V0z"/>
  <path fill="none" stroke="#00a5ff" stroke-miterlimit="10" stroke-width="0.1" d="M12.923 10.958h46.154A1.923 1.923 0 0161 12.881v46.154a1.923 1.923 0 01-1.923 1.923H12.923A1.923 1.923 0 0111 59.035V12.881a1.923 1.923 0 011.923-1.923z"/>
  <rect x="16" y="4" rx="2.254" width="40" height="64" fill="none" stroke="#00a5ff" stroke-miterlimit="10" stroke-width="0.1"/>
  <rect x="16" y="4" rx="2.254" width="40" height="64" transform="rotate(90 36 36)" fill="none" stroke="#00a5ff" stroke-miterlimit="10" stroke-width="0.1"/>
  <circle cx="36" cy="36" r="29" fill="none" stroke="#00a5ff" stroke-miterlimit="10" stroke-width="0.1"/>
  <g fill="none" stroke="#fff" stroke-linecap="round" stroke-linejoin="round" stroke-miterlimit="10" stroke-width="6">
    <path d="M22.5 12h27v48h-27zm-9 13h9v35h-9zm36 0h9v35h-9z"/>
    <path d="M29.5 44h13v16h-13zM36 60V44m7.5-21h-5v-5h-5v5h-5v5h5v5h5v-5h5zM19 35h-2v-5m2 15h-2v-5m2 15h-2v-5m38-15h-2v-5m2 15h-2v-5m2 15h-2v-5"/>
  </g>
  <path fill="#FFF" d="M22.5 12h27v48h-27zm-9 13h9v35h-9zm36 0h9v35h-9z"/>
  <path fill="#92D3F5" d="M29.5 44h13v16h-13z"/>
  <path fill="#EA5A47" d="M43.5 23h-5v-5h-5v5h-5v5h5v5h5v-5h5z"/>
  <path fill="none" stroke="#92D3F5" stroke-linecap="round" stroke-linejoin="round" stroke-miterlimit="10" stroke-width="2" d="M17 30h2v5h-2zm0 10h2v5h-2zm0 10h2v5h-2zm36-20h2v5h-2zm0 10h2v5h-2zm0 10h2v5h-2z"/>
  <g fill="none" stroke="#000" stroke-linecap="round" stroke-linejoin="round" stroke-miterlimit="10" stroke-width="2">
    <path d="M22.5 12h27v48h-27zm-9 13h9v35h-9zm36 0h9v35h-9z"/>
    <path d="M29.5 44h13v16h-13zM36 60V44m7.5-21h-5v-5h-5v5h-5v5h5v5h5v-5h5zM19 35h-2v-5m2 15h-2v-5m2 15h-2v-5m38-15h-2v-5m2 15h-2v-5m2 15h-2v-5"/>
  </g>
</svg>
