<svg viewBox="0 0 72 72" xmlns="http://www.w3.org/2000/svg">
  <path fill="#b3b3b3" d="M68 4v64H4V4h64m4-4H0v72h72V0z"/>
  <path fill="none" stroke="#00a5ff" stroke-miterlimit="10" stroke-width="0.1" d="M12.923 10.958h46.154A1.923 1.923 0 0161 12.881v46.154a1.923 1.923 0 01-1.923 1.923H12.923A1.923 1.923 0 0111 59.035V12.881a1.923 1.923 0 011.923-1.923z"/>
  <rect x="16" y="4" rx="2.254" width="40" height="64" fill="none" stroke="#00a5ff" stroke-miterlimit="10" stroke-width="0.1"/>
  <rect x="16" y="4" rx="2.254" width="40" height="64" transform="rotate(90 36 36)" fill="none" stroke="#00a5ff" stroke-miterlimit="10" stroke-width="0.1"/>
  <circle cx="36" cy="36" r="29" fill="none" stroke="#00a5ff" stroke-miterlimit="10" stroke-width="0.1"/>
  <g fill="none" stroke="#fff" stroke-linecap="round" stroke-linejoin="round" stroke-miterlimit="10" stroke-width="6">
    <path d="M31 35v-7h10v7"/>
    <path d="M37 35h-2v-3a1 1 0 011-1h0m16 24H20V39h7v2h5v-2h8v2h5v-2h7v2-2zM10 32h10v23H10zm42 0h10v23H52zM8 26h14v6H8zm21.5-4h13v6h-13zM50 26h14v6H50zM36 12l-4.5 10h9zm-21 4L9.5 26h11zm42 0l-5.5 10h11z"/>
    <path d="M40.5 55h-9v-6a3 3 0 013-3h3a3 3 0 013 3v6zM36 46v9M16 40h-2v-3a1 1 0 011-1h0m43 4h-2v-3a1 1 0 011-1h0"/>
  </g>
  <path fill="#9B9B9A" d="M30 27h12v14H30z"/>
  <path fill="#D0CFCE" d="M52 55H20V39h7v2h5v-2h8v2h5v-2h7v2-2zM10 32h10v23H10zm42 0h10v23H52zM8 26h14v6H8zm21.5-4h13v6h-13zM50 26h14v6H50z"/>
  <path fill="#EA5A47" d="M36 12l-4.5 10h9zm-21 4L9.5 26h11zm42 0l-5.5 10h11z"/>
  <path fill="#A57939" d="M40.5 55h-9v-6a3 3 0 013-3h3a3 3 0 013 3v6z"/>
  <g fill="none" stroke="#000" stroke-linecap="round" stroke-linejoin="round" stroke-miterlimit="10" stroke-width="2">
    <path d="M31 35v-7h10v7"/>
    <path d="M37 35h-2v-3a1 1 0 011-1h0m16 24H20V39h7v2h5v-2h8v2h5v-2h7v2-2zM10 32h10v23H10zm42 0h10v23H52zM8 26h14v6H8zm21.5-4h13v6h-13zM50 26h14v6H50zM36 12l-4.5 10h9zm-21 4L9.5 26h11zm42 0l-5.5 10h11z"/>
    <path d="M40.5 55h-9v-6a3 3 0 013-3h3a3 3 0 013 3v6zM36 46v9M16 40h-2v-3a1 1 0 011-1h0m43 4h-2v-3a1 1 0 011-1h0"/>
  </g>
</svg>
