<svg viewBox="0 0 72 72" xmlns="http://www.w3.org/2000/svg">
  <path fill="#b3b3b3" d="M68 4v64H4V4h64m4-4H0v72h72V0z"/>
  <path fill="none" stroke="#00a5ff" stroke-miterlimit="10" stroke-width="0.1" d="M12.923 10.958h46.154A1.923 1.923 0 0161 12.881v46.154a1.923 1.923 0 01-1.923 1.923H12.923A1.923 1.923 0 0111 59.035V12.881a1.923 1.923 0 011.923-1.923z"/>
  <rect x="16" y="4" rx="2.254" width="40" height="64" fill="none" stroke="#00a5ff" stroke-miterlimit="10" stroke-width="0.1"/>
  <rect x="16" y="4" rx="2.254" width="40" height="64" transform="rotate(90 36 36)" fill="none" stroke="#00a5ff" stroke-miterlimit="10" stroke-width="0.1"/>
  <circle cx="36" cy="36" r="29" fill="none" stroke="#00a5ff" stroke-miterlimit="10" stroke-width="0.1"/>
  <g fill="none" stroke="#fff" stroke-linecap="round" stroke-linejoin="round" stroke-miterlimit="10" stroke-width="6">
    <path d="M53.197 18.174c-3.76-3.76-11.587-2.037-17.627 3.812-5.938-5.34-13.335-6.805-16.957-3.183-3.626 3.626-2.154 11.036 3.202 16.978-5.356 5.94-6.828 13.351-3.202 16.977 3.622 3.622 11.02 2.158 16.957-3.183 6.04 5.849 13.867 7.571 17.627 3.812 3.755-3.755 2.04-11.569-3.792-17.606 5.832-6.038 7.547-13.851 3.792-17.607zm5.35 24.723A8.312 8.312 0 0062 36.535c0-2.575-1.485-4.929-3.947-6.745M28.391 57.71c1.857 2.738 4.342 4.411 7.075 4.411a8.306 8.306 0 006.35-3.436M13.125 30.343a8.207 8.207 0 00-3.246 6.192 7.855 7.855 0 002.566 5.57M42.077 13.77c-1.797-2.356-4.1-3.77-6.611-3.77a8.302 8.302 0 00-6.349 3.435"/>
    <circle cx="35.591" cy="35.781" r="8.003"/>
    <circle cx="35.591" cy="35.781" r="4.446"/>
  </g>
  <path fill="#d22f27" stroke="#d22f27" stroke-miterlimit="10" stroke-width="2" d="M35.465 10C29.8 10 25.2 17.196 25.055 26.155c-8.499.45-15.176 4.921-15.176 10.38 0 5.465 6.693 9.94 15.206 10.38.441 8.513 4.916 15.206 10.38 15.206 5.458 0 9.93-6.677 10.38-15.176C54.804 46.801 62 42.201 62 36.535c0-5.66-7.18-10.256-16.125-10.41C45.721 17.18 41.125 10 35.465 10z"/>
  <path fill="#ea5a47" d="M53.197 18.174c-3.76-3.76-11.587-2.037-17.627 3.812-5.938-5.34-13.335-6.805-16.957-3.183-3.626 3.626-2.154 11.036 3.202 16.978-5.356 5.94-6.828 13.351-3.202 16.977 3.622 3.622 11.02 2.158 16.957-3.183 6.04 5.849 13.867 7.571 17.627 3.812 3.755-3.755 2.04-11.569-3.792-17.606 5.832-6.038 7.547-13.851 3.792-17.607z"/>
  <circle cx="35.591" cy="35.781" r="8.003" fill="#f4aa41" stroke="#f4aa41" stroke-miterlimit="10" stroke-width="2"/>
  <circle cx="35.591" cy="35.781" r="4.446" fill="#fcea2b" stroke="#fcea2b" stroke-miterlimit="10" stroke-width="2"/>
  <g fill="none" stroke="#000" stroke-linejoin="round" stroke-width="2">
    <path stroke-linecap="round" d="M53.197 18.174c-3.76-3.76-11.587-2.037-17.627 3.812-5.938-5.34-13.335-6.805-16.957-3.183-3.626 3.626-2.154 11.036 3.202 16.978-5.356 5.94-6.828 13.351-3.202 16.977 3.622 3.622 11.02 2.158 16.957-3.183 6.04 5.849 13.867 7.571 17.627 3.812 3.755-3.755 2.04-11.569-3.792-17.606 5.832-6.038 7.547-13.851 3.792-17.607zm5.35 24.723A8.312 8.312 0 0062 36.535c0-2.575-1.485-4.929-3.947-6.745M28.391 57.71c1.857 2.738 4.342 4.411 7.075 4.411a8.306 8.306 0 006.35-3.436M13.125 30.343a8.207 8.207 0 00-3.246 6.192 7.855 7.855 0 002.566 5.57M42.077 13.77c-1.797-2.356-4.1-3.77-6.611-3.77a8.302 8.302 0 00-6.349 3.435"/>
    <circle cx="35.591" cy="35.781" r="8.003"/>
    <circle cx="35.591" cy="35.781" r="4.446"/>
  </g>
</svg>
