<svg viewBox="0 0 72 72" xmlns="http://www.w3.org/2000/svg">
  <path fill="#b3b3b3" d="M68 4v64H4V4h64m4-4H0v72h72V0z"/>
  <path fill="none" stroke="#00a5ff" stroke-miterlimit="10" stroke-width="0.1" d="M12.923 10.958h46.154A1.923 1.923 0 0161 12.881v46.154a1.923 1.923 0 01-1.923 1.923H12.923A1.923 1.923 0 0111 59.035V12.881a1.923 1.923 0 011.923-1.923z"/>
  <rect x="16" y="4" rx="2.254" width="40" height="64" fill="none" stroke="#00a5ff" stroke-miterlimit="10" stroke-width="0.1"/>
  <rect x="16" y="4" rx="2.254" width="40" height="64" transform="rotate(90 36 36)" fill="none" stroke="#00a5ff" stroke-miterlimit="10" stroke-width="0.1"/>
  <circle cx="36" cy="36" r="29" fill="none" stroke="#00a5ff" stroke-miterlimit="10" stroke-width="0.1"/>
  <path fill="none" stroke="#fff" stroke-linecap="round" stroke-linejoin="round" stroke-miterlimit="10" stroke-width="6" d="M16.11 37.461S11 32.654 12.044 26.39s13.575 1.044 14.619 6.265c0 0 3.133-5.221 8.354-6.265 0 0-1.045-5.221 0-8.354 0 0 11.486-4.177 15.663 6.265 0 0 11.486 2.089 12.53 11.486l-3.133 2.089 2.741 2.35s-.126 6.98-11.875 10.147c0 0-2.352 7.343-10.705 5.254l1.044-5.22s-6.265 1.043-14.619-8.354c0 0-3.133 9.397-15.663 7.309 0 0-.222-8.137 5.11-11.9zM41 31s-6 4-1 11"/>
  <path fill="#92D3F5" d="M16.11 37.461S11 32.654 12.044 26.39s13.575 1.044 14.619 6.265c0 0 3.133-5.221 8.354-6.265 0 0-1.045-5.221 0-8.354 0 0 11.486-4.177 15.663 6.265 0 0 11.486 2.089 12.53 11.486l-3.133 2.089 2.741 2.35s-.126 6.98-11.875 10.147c0 0-2.352 7.343-10.705 5.254l1.044-5.22s-6.265 1.043-14.619-8.354c0 0-3.133 9.397-15.663 7.309 0 0-.222-8.137 5.11-11.9z"/>
  <path fill="#61B2E4" d="M41.78 30.918s-7.866 4.344-.865 11.048"/>
  <path fill="none" stroke="#000" stroke-linecap="round" stroke-linejoin="round" stroke-miterlimit="10" stroke-width="2" d="M16.11 37.461S11 32.654 12.044 26.39s13.575 1.044 14.619 6.265c0 0 3.133-5.221 8.354-6.265 0 0-1.045-5.221 0-8.354 0 0 11.486-4.177 15.663 6.265 0 0 11.486 2.089 12.53 11.486l-3.133 2.089 2.741 2.35s-.126 6.98-11.875 10.147c0 0-2.352 7.343-10.705 5.254l1.044-5.22s-6.265 1.043-14.619-8.354c0 0-3.133 9.397-15.663 7.309 0 0-.222-8.137 5.11-11.9zM41 31s-6 4-1 11"/>
</svg>
