<svg viewBox="0 0 72 72" xmlns="http://www.w3.org/2000/svg">
  <path fill="#b3b3b3" d="M68 4v64H4V4h64m4-4H0v72h72V0z"/>
  <path fill="none" stroke="#00a5ff" stroke-miterlimit="10" stroke-width="0.1" d="M12.923 10.958h46.154A1.923 1.923 0 0161 12.881v46.154a1.923 1.923 0 01-1.923 1.923H12.923A1.923 1.923 0 0111 59.035V12.881a1.923 1.923 0 011.923-1.923z"/>
  <rect x="16" y="4" rx="2.254" width="40" height="64" fill="none" stroke="#00a5ff" stroke-miterlimit="10" stroke-width="0.1"/>
  <rect x="16" y="4" rx="2.254" width="40" height="64" transform="rotate(90 36 36)" fill="none" stroke="#00a5ff" stroke-miterlimit="10" stroke-width="0.1"/>
  <circle cx="36" cy="36" r="29" fill="none" stroke="#00a5ff" stroke-miterlimit="10" stroke-width="0.1"/>
  <g fill="none" stroke="#fff" stroke-linecap="round" stroke-linejoin="round" stroke-miterlimit="10" stroke-width="6">
    <path d="M31.396 15.596l-4.428-3.321m7.086 2.214l-1.772-3.764m5.314 4.428l.222-5.757"/>
    <circle cx="28.961" cy="32.425" r="3"/>
    <circle cx="44" cy="32" r="3"/>
    <path d="M51.989 51.91C63 43 53.76 34.196 53.76 34.196c0-13.088-10.032-17.473-15.272-18.87a10.913 10.913 0 00-5.88.053c-15.466 4.529-14.275 18.817-14.275 18.817C10 44 19.44 51.467 19.44 51.467s16.606 14.614 32.549.443"/>
    <path d="M36.705 38.807s10.475-.515 0 9.27c0-.001-10.474-9.27 0-9.27z"/>
  </g>
  <path fill="#FCEA2B" stroke="#FCEA2B" stroke-miterlimit="10" stroke-width="2" d="M51.989 51.91C63 43 53.76 34.196 53.76 34.196c0-13.088-10.032-17.473-15.272-18.87a10.913 10.913 0 00-5.88.053c-15.466 4.529-14.275 18.817-14.275 18.817C10 44 19.44 51.467 19.44 51.467s16.606 14.614 32.549.443"/>
  <path fill="#F1B31C" d="M36.705 38.807s10.475-.515 0 9.27c0-.001-10.474-9.27 0-9.27z"/>
  <path fill="none" stroke="#000" stroke-linecap="round" stroke-linejoin="round" stroke-miterlimit="10" stroke-width="2" d="M31.396 15.596l-4.428-3.321m7.086 2.214l-1.772-3.764m5.314 4.428l.222-5.757"/>
  <circle cx="28.961" cy="32.425" r="3"/>
  <circle cx="44" cy="32" r="3"/>
  <path fill="none" stroke="#000" stroke-linecap="round" stroke-linejoin="round" stroke-miterlimit="10" stroke-width="2" d="M51.989 51.91C63 43 53.76 34.196 53.76 34.196c0-13.088-10.032-17.473-15.272-18.87a10.913 10.913 0 00-5.88.053c-15.466 4.529-14.275 18.817-14.275 18.817C10 44 19.44 51.467 19.44 51.467s16.606 14.614 32.549.443"/>
  <path fill="none" stroke="#000" stroke-linecap="round" stroke-linejoin="round" stroke-miterlimit="10" stroke-width="2" d="M36.705 38.807s10.475-.515 0 9.27c0-.001-10.474-9.27 0-9.27z"/>
</svg>
