<svg viewBox="0 0 72 72" xmlns="http://www.w3.org/2000/svg">
  <path fill="#B3B3B3" d="M68 4v64H4V4h64m4-4H0v72h72V0z"/>
  <path fill="none" stroke="#00A5FF" stroke-miterlimit="10" stroke-width="0.1" d="M12.923 10.958h46.154c1.062 0 1.923.861 1.923 1.923v46.154a1.923 1.923 0 01-1.923 1.923H12.923A1.923 1.923 0 0111 59.035h0V12.881c0-1.062.861-1.923 1.923-1.923h0z"/>
  <path fill="none" stroke="#00A5FF" stroke-miterlimit="10" stroke-width="0.1" d="M18.254 4h35.492A2.254 2.254 0 0156 6.254v59.492A2.254 2.254 0 0153.746 68H18.254A2.254 2.254 0 0116 65.746V6.254A2.254 2.254 0 0118.254 4z"/>
  <path fill="none" stroke="#00A5FF" stroke-miterlimit="10" stroke-width="0.1" d="M68 18.254v35.492A2.254 2.254 0 0165.746 56H6.254A2.254 2.254 0 014 53.746V18.254A2.254 2.254 0 016.254 16h59.492A2.254 2.254 0 0168 18.254z"/>
  <circle cx="36" cy="36" r="29" fill="none" stroke="#00A5FF" stroke-miterlimit="10" stroke-width="0.1"/>
  <path fill="none" stroke="#fff" stroke-linecap="round" stroke-linejoin="round" stroke-miterlimit="10" stroke-width="6" d="M16.52 37.257V24.383c0-9.088 7.368-16.456 16.457-16.456s16.455 7.368 16.455 16.456M23.513 37.55a3.5 3.5 0 11-6.994-.293m13.991.526a3.5 3.5 0 11-6.994-.293m6.99.427a3.5 3.5 0 11-6.977-.561m14.019.905a3.5 3.5 0 01-6.986-.448m23.939-1.775a3.5 3.5 0 11-5.035 4.863m-4.918 19.733a3.5 3.5 0 11-7 0m0-22.336v22.336m7 0V32.843m2.96 5.844l1.958 2.214m3.268-7.183c-1.953-2.144-3.374-5.168-3.302-9.522m5.069 11.842l-1.821-2.381"/>
  <path fill="#FCEA2B" d="M54.42 40.99c-1.16 1.12-4.36-.18-6.16-1.46l-.01-.01c-.36-.23-1.56-.26-1.56-.26l-1.35-1.83-.79-1.07v-1.28l-.02 1.25.02.03v24.27c0 1.94-1.57 3.5-3.5 3.5-1.83 0-3.31-1.38-3.48-3.16-.01-.11-.02-.23-.02-.34l-.09-21.8a3.494 3.494 0 01-3.63 2.7 3.478 3.478 0 01-3.26-3.23h-.13c-.02.17-.07.33-.12.49-.04.1-.08.21-.13.31-.08.2-.2.39-.33.57-.06.09-.12.17-.2.25-.14.17-.3.32-.47.45-.07.06-.15.11-.22.17-.28.19-.6.35-.94.44-.36.12-.75.17-1.16.15h-.04c-.05 0-.11 0-.15-.01-.06-.01-.1-.01-.16-.02-.23-.03-.45-.09-.66-.16-.21-.08-.41-.17-.6-.28a3.348 3.348 0 01-.77-.61 3.516 3.516 0 01-.83-1.42c-.02-.06-.03-.12-.04-.18a.401.401 0 01-.03-.15c-.01-.03-.01-.05-.02-.08 0 .03.01.05.01.08h-.19a3.477 3.477 0 01-3.52 2.6 3.5 3.5 0 01-3.23-2.6c-.08-.29-.12-.58-.12-.89 0 0-.009-6.354 0-11.34-.306-8.697 7.43-18.14 16.46-18.14 7.35 1.61 15.85 1.62 16.7 21.84 5.31 7.03 6.08 9.92 4.74 11.22z"/>
  <path fill="none" stroke="#000" stroke-linecap="round" stroke-linejoin="round" stroke-miterlimit="10" stroke-width="2" d="M16.52 37.257V24.383c0-9.088 7.368-16.456 16.457-16.456s16.455 7.368 16.455 16.456M23.513 37.55a3.5 3.5 0 11-6.994-.293m13.991.526a3.5 3.5 0 11-6.994-.293m6.99.427a3.5 3.5 0 11-6.977-.561m14.019.905a3.5 3.5 0 01-6.986-.448m23.939-1.775a3.5 3.5 0 11-5.035 4.863m-4.918 19.733a3.5 3.5 0 11-7 0m0-22.336v22.336m7 0V32.843m2.96 5.844l1.958 2.214m3.268-7.183c-1.953-2.144-3.374-5.168-3.302-9.522m5.069 11.842l-1.821-2.381"/>
</svg>
