<svg viewBox="0 0 72 72" xmlns="http://www.w3.org/2000/svg">
  <path fill="#B3B3B3" d="M68 4v64H4V4h64m4-4H0v72h72V0z"/>
  <path fill="none" stroke="#00A5FF" stroke-miterlimit="10" stroke-width="0.1" d="M12.923 10.958h46.154c1.062 0 1.923.861 1.923 1.923v46.154a1.923 1.923 0 01-1.923 1.923H12.923A1.923 1.923 0 0111 59.035h0V12.881c0-1.062.861-1.923 1.923-1.923h0z"/>
  <path fill="none" stroke="#00A5FF" stroke-miterlimit="10" stroke-width="0.1" d="M18.254 4h35.492A2.254 2.254 0 0156 6.254v59.492A2.254 2.254 0 0153.746 68H18.254A2.254 2.254 0 0116 65.746V6.254A2.254 2.254 0 0118.254 4z"/>
  <path fill="none" stroke="#00A5FF" stroke-miterlimit="10" stroke-width="0.1" d="M68 18.254v35.492A2.254 2.254 0 0165.746 56H6.254A2.254 2.254 0 014 53.746V18.254A2.254 2.254 0 016.254 16h59.492A2.254 2.254 0 0168 18.254z"/>
  <circle cx="36" cy="36" r="29" fill="none" stroke="#00A5FF" stroke-miterlimit="10" stroke-width="0.1"/>
  <g fill="none" stroke="#fff" stroke-linecap="round" stroke-linejoin="round" stroke-miterlimit="10" stroke-width="6">
    <ellipse cx="19.548" cy="35.958" rx="14.469" ry="24.655"/>
    <ellipse cx="52.452" cy="35.958" rx="14.469" ry="24.655"/>
    <circle cx="13.106" cy="37.817" r="3.623"/>
    <circle cx="46.01" cy="37.817" r="3.623"/>
    <circle cx="13.106" cy="37.817" r="3.623"/>
    <circle cx="13.106" cy="37.817" r="8.027"/>
    <circle cx="46.01" cy="37.817" r="3.623"/>
    <circle cx="46.01" cy="37.817" r="8.027"/>
  </g>
  <ellipse cx="19.548" cy="35.958" rx="14.469" ry="24.655" fill="#FFF"/>
  <ellipse cx="52.452" cy="35.958" rx="14.469" ry="24.655" fill="#FFF"/>
  <ellipse cx="52.452" cy="35.958" rx="14.469" ry="24.655" fill="#FFF"/>
  <circle cx="46.01" cy="37.817" r="8.027" fill="#A57939"/>
  <ellipse cx="19.548" cy="35.958" rx="14.469" ry="24.655" fill="#FFF"/>
  <circle cx="13.106" cy="37.817" r="8.027" fill="#A57939"/>
  <ellipse cx="19.548" cy="35.958" rx="14.469" ry="24.655" fill="none" stroke="#000" stroke-linecap="round" stroke-linejoin="round" stroke-miterlimit="10" stroke-width="2"/>
  <ellipse cx="52.452" cy="35.958" rx="14.469" ry="24.655" fill="none" stroke="#000" stroke-linecap="round" stroke-linejoin="round" stroke-miterlimit="10" stroke-width="2"/>
  <circle cx="13.106" cy="37.817" r="3.623"/>
  <circle cx="46.01" cy="37.817" r="3.623"/>
  <circle cx="13.106" cy="37.817" r="3.623" fill="none" stroke="#000" stroke-linecap="round" stroke-linejoin="round" stroke-miterlimit="10" stroke-width="2"/>
  <circle cx="13.106" cy="37.817" r="8.027" fill="none" stroke="#000" stroke-linecap="round" stroke-linejoin="round" stroke-miterlimit="10" stroke-width="2"/>
  <circle cx="46.01" cy="37.817" r="3.623" fill="none" stroke="#000" stroke-linecap="round" stroke-linejoin="round" stroke-miterlimit="10" stroke-width="2"/>
  <circle cx="46.01" cy="37.817" r="8.027" fill="none" stroke="#000" stroke-linecap="round" stroke-linejoin="round" stroke-miterlimit="10" stroke-width="2"/>
</svg>
