<svg viewBox="0 0 72 72" xmlns="http://www.w3.org/2000/svg">
  <path fill="#b3b3b3" d="M68 4v64H4V4h64m4-4H0v72h72V0z"/>
  <path fill="none" stroke="#00a5ff" stroke-miterlimit="10" stroke-width="0.1" d="M12.923 10.958h46.154A1.923 1.923 0 0161 12.881v46.154a1.923 1.923 0 01-1.923 1.923H12.923A1.923 1.923 0 0111 59.035V12.881a1.923 1.923 0 011.923-1.923z"/>
  <rect x="16" y="4" rx="2.254" width="40" height="64" fill="none" stroke="#00a5ff" stroke-miterlimit="10" stroke-width="0.1"/>
  <rect x="16" y="4" rx="2.254" width="40" height="64" transform="rotate(90 36 36)" fill="none" stroke="#00a5ff" stroke-miterlimit="10" stroke-width="0.1"/>
  <circle cx="36" cy="36" r="29" fill="none" stroke="#00a5ff" stroke-miterlimit="10" stroke-width="0.1"/>
  <g fill="none" stroke="#fff" stroke-linecap="round" stroke-linejoin="round" stroke-miterlimit="10" stroke-width="6">
    <path d="M29.487 12.875c1.2 14.656-2.093 25.348-3.171 29.028m16.562-29.028c-1.2 14.656 2.093 25.348 3.172 29.028"/>
    <path d="M50.25 37.708c7.583 4.667 2.833 11.752-1.688 13.021C44.642 51.83 46 60.07 36 60.042c-10 .026-8.643-8.212-12.563-9.313-4.52-1.269-9.27-8.354-1.687-13.02"/>
  </g>
  <g fill="#fcea2b">
    <path d="M46.05 41.903c-1.079-3.806-4.372-14.867-3.172-30.028h-13.39c1.2 15.161-2.094 26.222-3.172 30.028"/>
    <path d="M50.25 36.708c7.583 4.667 2.833 12.752-1.688 14.021C44.642 51.83 46 60.07 36 60.042c-10 .026-8.643-8.212-12.563-9.313-4.52-1.269-9.281-9.354-1.698-14.021"/>
  </g>
  <g fill="none" stroke="#000" stroke-linecap="round" stroke-linejoin="round" stroke-miterlimit="10" stroke-width="2">
    <path d="M29.487 12.875c1.2 14.656-2.093 25.348-3.171 29.028m16.562-29.028c-1.2 14.656 2.093 25.348 3.172 29.028"/>
    <path d="M50.25 37.708c7.583 4.667 2.833 11.752-1.688 13.021C44.642 51.83 46 60.07 36 60.042c-10 .026-8.643-8.212-12.563-9.313-4.52-1.269-9.27-8.354-1.687-13.02"/>
  </g>
</svg>
