<svg viewBox="0 0 72 72" xmlns="http://www.w3.org/2000/svg">
  <path fill="#B3B3B3" d="M68 4v64H4V4h64m4-4H0v72h72V0z"/>
  <path fill="none" stroke="#00A5FF" stroke-miterlimit="10" stroke-width="0.1" d="M12.9 11h46.2c1.1 0 1.9.9 1.9 1.9h0V59c0 1.1-.9 1.9-1.9 1.9H12.9c-1 .1-1.9-.8-1.9-1.9h0V12.9c0-1.1.9-1.9 1.9-1.9h0z"/>
  <path fill="none" stroke="#00A5FF" stroke-miterlimit="10" stroke-width="0.1" d="M18.3 4h35.5C55 4 56 5 56 6.3v59.5c0 1.2-1 2.3-2.3 2.3H18.3C17 68 16 67 16 65.7V6.3C16 5 17 4 18.3 4z"/>
  <path fill="none" stroke="#00A5FF" stroke-miterlimit="10" stroke-width="0.1" d="M68 18.3v35.5c0 1.2-1 2.3-2.3 2.3H6.3C5 56 4 55 4 53.7V18.3C4 17 5 16 6.3 16h59.5c1.2 0 2.2 1 2.2 2.3z"/>
  <circle cx="36" cy="36" r="29" fill="none" stroke="#00A5FF" stroke-miterlimit="10" stroke-width="0.1"/>
  <g fill="none" stroke="#fff" stroke-linecap="round" stroke-linejoin="round" stroke-miterlimit="10" stroke-width="6">
    <path d="M31.5 25.569v.644c0 5.7-3.586 10.39-8 10.39s-8-4.69-8-10.39v-.644"/>
    <path d="M13.929 21.39c.533-7.734 6.4-7.823 9.335-7.379.266.09 1.067 0 1.333 0 5.334-.711 8.002 5.334 8.002 8.002 0 .978.225 3.365-1.108 4.699 0 0-3.249-3.721-3.427-5.855 0 0-10.135 3.823-10.846.533 0 0-.711 2.667-1.334 3.379 0 0-.328 2.044-.328 2.667 0 0-1.894-2.667-1.627-6.046zm22.795 15.356c-2.04-3.666-.069-6.374 1.108-9.399 1.067-2.845-.178-4.356.889-8.09.978-3.645 4.89-5.957 9.157-5.957 3.645 0 5.334 2.045 5.334 2.045 2.756.267 4.89 2.578 4.979 5.334.267 4.801.711 4.801 2.311 8.535 1.062 2.533.773 5.366-.799 7.533"/>
    <path d="M41.12 26.814c0 5.334 3.38 9.335 7.38 9.335s7.38-4.001 7.38-9.336c0-3.378-1.335-5.334-4.002-8-2.667 2.666-10.668 6.045-10.668 7.378l-.09.623h0zM11 60V44.955C11 41.665 14.292 39 17.584 39c.54.454 1.082.846 1.623 1.175m33.438.067A13.496 13.496 0 0054.417 39C57.708 39 61 41.667 61 44.956V60"/>
    <path d="M47.25 26.5c0 .714-.536 1.25-1.25 1.25s-1.25-.536-1.25-1.25.536-1.25 1.25-1.25 1.25.536 1.25 1.25m5 0c0 .714-.536 1.25-1.25 1.25s-1.25-.536-1.25-1.25.536-1.25 1.25-1.25 1.25.536 1.25 1.25m-5.617 5.033a3.968 3.968 0 003.734 0M22.25 26.5c0 .714-.536 1.25-1.25 1.25s-1.25-.536-1.25-1.25.536-1.25 1.25-1.25 1.25.536 1.25 1.25m5 0c0 .714-.536 1.25-1.25 1.25s-1.25-.536-1.25-1.25.536-1.25 1.25-1.25 1.25.536 1.25 1.25m-5.617 5.033a3.968 3.968 0 003.734 0m18.797 17.653a2.093 2.093 0 002.672 0M17 60.2v-1.733C17 56 19.502 54 22.004 54c2.975 2.467 5.95 2.467 8.992 0C33.498 54 36 56 36 58.467V60.2m0 0v-1.733C36 56 38.502 54 41.004 54c2.975 2.467 5.95 2.467 8.993 0C52.499 54 55 56 55 58.467V60.2M29.298 45.702a.9.9 0 11-.898-.84.87.87 0 01.898.84zm-4.134 3.484a2.093 2.093 0 002.672 0M24.6 44.862a.9.9 0 11-.898.84.87.87 0 01.898-.84zm23.698.84a.9.9 0 11-.897-.84.87.87 0 01.897.84zm-4.698-.84a.9.9 0 11-.898.84.87.87 0 01.898-.84z"/>
    <path d="M33.05 45.268c.007.141.011.283.011.426a6.776 6.776 0 01-6.488 7.031 6.776 6.776 0 01-6.489-7.03c0-.096.002-.19.005-.285m4.047-3.138c.469 3.363 4.487-.871 4.487-.871.549 1.574 4.425 3.867 4.425 3.867 1.032-.955.526-2.852.372-3.513a5.12 5.12 0 00-5.808-4.115 6.447 6.447 0 01-1.032 0c-2.271-.337-6.03-.148-7.12 4.644-.532 2.338.624 2.984.624 2.984s3.764-5.059 4.052-2.996zm27.847 3.138c.004.095.006.19.006.284a6.776 6.776 0 01-6.489 7.031 6.776 6.776 0 01-6.489-7.03c0-.144.004-.286.012-.427m12.966 0s1.156-.646.624-2.984c-1.09-4.792-4.85-4.98-7.12-4.644a6.447 6.447 0 01-1.033 0 5.12 5.12 0 00-5.808 4.115c-.153.66-.66 2.558.373 3.513 0 0 3.876-2.293 4.425-3.867 0 0 4.018 4.234 4.487.87.288-2.062 4.052 2.997 4.052 2.997z"/>
  </g>
  <path fill="#92D3F5" d="M11 61V44.955C11 41.665 14.292 39 17.584 39c3.915 3.29 7.83 3.29 11.833 0h13.167c3.914 3.29 7.83 3.29 11.833 0C57.708 39 61 41.667 61 44.956V61"/>
  <path fill="#B1CC33" d="M17 61v-2.533C17 56 19.502 54 22.004 54c2.975 2.467 5.95 2.467 8.992 0C33.498 54 36 56 36 58.467V61m0 0v-2.533C36 56 38.502 54 41.004 54c2.975 2.467 5.95 2.467 8.993 0C52.499 54 55 56 55 58.467V61"/>
  <g fill="#A57939">
    <path d="M37.932 40.062l-1.548-2.045c-2.667-4 .203-7.47 1.448-10.67 1.067-2.845-.178-4.356.889-8.09.978-3.645 4.89-5.957 9.157-5.957 3.645 0 5.334 2.045 5.334 2.045 2.756.267 4.89 2.578 4.979 5.334.267 4.801.711 4.801 2.311 8.535 1.156 2.756 1.535 6.438-.421 8.66l-1.701 2.038M13.929 21.39c.533-7.734 6.4-7.823 9.335-7.379.266.09 1.067 0 1.333 0 5.334-.711 8.002 5.334 8.002 8.002 0 .978.225 3.365-1.108 4.699 0 0-3.249-3.721-3.427-5.855 0 0-10.135 3.823-10.846.533 0 0-.711 2.667-1.334 3.379 0 0-.328 2.044-.328 2.667 0 0-1.894-2.667-1.627-6.046zm10.207 20.882c.469 3.363 4.487-.871 4.487-.871.549 1.574 4.425 3.867 4.425 3.867 1.032-.955.526-2.852.372-3.513a5.12 5.12 0 00-5.808-4.115 6.447 6.447 0 01-1.032 0c-2.271-.337-6.03-.148-7.12 4.644-.532 2.338.624 2.984.624 2.984s3.764-5.059 4.052-2.996z"/>
    <path d="M51.989 45.268s1.156-.646.624-2.984c-1.09-4.792-4.85-4.98-7.12-4.644a6.447 6.447 0 01-1.033 0 5.12 5.12 0 00-5.808 4.115c-.153.66-.66 2.558.373 3.513 0 0 3.876-2.293 4.425-3.867 0 0 4.018 4.234 4.487.87.288-2.062 4.052 2.997 4.052 2.997z"/>
  </g>
  <path fill="#FCEA2B" d="M41.12 26.814c0 5.334 3.38 9.335 7.38 9.335s7.38-4.001 7.38-9.336c0-3.378-1.335-5.334-4.002-8-2.667 2.666-10.668 6.045-10.668 7.378l-.09.623zm-13.075-5.957S17.91 24.68 17.2 21.39c0 0-.711 2.667-1.334 3.379 0 0-.318 1.983-.327 2.635.459 5.148 3.841 9.2 7.943 9.2 4.286 0 7.782-4.427 7.98-9.903-.104-.12-3.24-3.746-3.416-5.844zm.577 20.544s-4.017 4.234-4.487.87c-.257-1.846-3.293 2.005-3.928 2.835-.074.335-.123.566-.123.588a6.776 6.776 0 006.489 7.031 6.776 6.776 0 006.488-7.03c0-.03-.06-.227-.15-.51-.679-.414-3.8-2.383-4.289-3.784zm10.54 3.784c-.09.283-.15.48-.15.51a6.776 6.776 0 006.488 7.03 6.776 6.776 0 006.489-7.03c0-.023-.05-.254-.123-.59-.635-.829-3.671-4.68-3.929-2.833-.469 3.363-4.487-.871-4.487-.871-.489 1.401-3.61 3.37-4.288 3.784z"/>
  <g>
    <path fill="none" stroke="#000" stroke-miterlimit="10" stroke-width="2" d="M31.5 25.569v.644c0 5.7-3.586 10.39-8 10.39s-8-4.69-8-10.39v-.644"/>
    <path fill="none" stroke="#000" stroke-linecap="round" stroke-linejoin="round" stroke-width="2" d="M13.929 21.39c.533-7.734 6.4-7.823 9.335-7.379.266.09 1.067 0 1.333 0 5.334-.711 8.002 5.334 8.002 8.002 0 .978.225 3.365-1.108 4.699 0 0-3.249-3.721-3.427-5.855 0 0-10.135 3.823-10.846.533 0 0-.711 2.667-1.334 3.379 0 0-.328 2.044-.328 2.667 0 0-1.894-2.667-1.627-6.046zm22.795 15.356c-2.04-3.666-.069-6.374 1.108-9.399 1.067-2.845-.178-4.356.889-8.09.978-3.645 4.89-5.957 9.157-5.957 3.645 0 5.334 2.045 5.334 2.045 2.756.267 4.89 2.578 4.979 5.334.267 4.801.711 4.801 2.311 8.535 1.062 2.533.773 5.366-.799 7.533"/>
    <path fill="none" stroke="#000" stroke-linejoin="round" stroke-miterlimit="10" stroke-width="2" d="M41.12 26.814c0 5.334 3.38 9.335 7.38 9.335s7.38-4.001 7.38-9.336c0-3.378-1.335-5.334-4.002-8-2.667 2.666-10.668 6.045-10.668 7.378l-.09.623h0z"/>
    <path fill="none" stroke="#000" stroke-linecap="round" stroke-linejoin="round" stroke-width="2" d="M11 60V44.955C11 41.665 14.292 39 17.584 39c.54.454 1.082.846 1.623 1.175m33.438.067A13.496 13.496 0 0054.417 39C57.708 39 61 41.667 61 44.956V60"/>
    <path d="M47.25 26.5c0 .714-.536 1.25-1.25 1.25s-1.25-.536-1.25-1.25.536-1.25 1.25-1.25 1.25.536 1.25 1.25m5 0c0 .714-.536 1.25-1.25 1.25s-1.25-.536-1.25-1.25.536-1.25 1.25-1.25 1.25.536 1.25 1.25"/>
    <path fill="none" stroke="#000" stroke-linecap="round" stroke-linejoin="round" stroke-width="2" d="M46.633 31.533a3.968 3.968 0 003.734 0"/>
    <path d="M22.25 26.5c0 .714-.536 1.25-1.25 1.25s-1.25-.536-1.25-1.25.536-1.25 1.25-1.25 1.25.536 1.25 1.25m5 0c0 .714-.536 1.25-1.25 1.25s-1.25-.536-1.25-1.25.536-1.25 1.25-1.25 1.25.536 1.25 1.25"/>
    <path fill="none" stroke="#000" stroke-linecap="round" stroke-linejoin="round" stroke-width="2" d="M21.633 31.533a3.968 3.968 0 003.734 0"/>
    <path fill="none" stroke="#000" stroke-linecap="round" stroke-linejoin="round" stroke-width="1.6" d="M44.164 49.186a2.093 2.093 0 002.672 0M17 60.2v-1.733C17 56 19.502 54 22.004 54c2.975 2.467 5.95 2.467 8.992 0C33.498 54 36 56 36 58.467V60.2m0 0v-1.733C36 56 38.502 54 41.004 54c2.975 2.467 5.95 2.467 8.993 0C52.499 54 55 56 55 58.467V60.2"/>
    <path d="M29.298 45.702a.9.9 0 11-.898-.84.87.87 0 01.898.84z"/>
    <path fill="none" stroke="#000" stroke-linecap="round" stroke-linejoin="round" stroke-width="1.6" d="M25.164 49.186a2.093 2.093 0 002.672 0"/>
    <path d="M24.6 44.862a.9.9 0 11-.898.84.87.87 0 01.898-.84zm23.698.84a.9.9 0 11-.897-.84.87.87 0 01.897.84zm-4.698-.84a.9.9 0 11-.898.84.87.87 0 01.898-.84z"/>
    <path fill="none" stroke="#000" stroke-miterlimit="10" stroke-width="1.6" d="M33.05 45.268c.007.141.011.283.011.426a6.776 6.776 0 01-6.488 7.031 6.776 6.776 0 01-6.489-7.03c0-.096.002-.19.005-.285"/>
    <path fill="none" stroke="#000" stroke-linecap="round" stroke-linejoin="round" stroke-width="1.6" d="M24.136 42.272c.469 3.363 4.487-.871 4.487-.871.549 1.574 4.425 3.867 4.425 3.867 1.032-.955.526-2.852.372-3.513a5.12 5.12 0 00-5.808-4.115 6.447 6.447 0 01-1.032 0c-2.271-.337-6.03-.148-7.12 4.644-.532 2.338.624 2.984.624 2.984s3.764-5.059 4.052-2.996z"/>
    <path fill="none" stroke="#000" stroke-miterlimit="10" stroke-width="1.6" d="M51.983 45.41c.004.095.006.19.006.284a6.776 6.776 0 01-6.489 7.031 6.776 6.776 0 01-6.489-7.03c0-.144.004-.286.012-.427"/>
    <path fill="none" stroke="#000" stroke-linecap="round" stroke-linejoin="round" stroke-width="1.6" d="M51.989 45.268s1.156-.646.624-2.984c-1.09-4.792-4.85-4.98-7.12-4.644a6.447 6.447 0 01-1.033 0 5.12 5.12 0 00-5.808 4.115c-.153.66-.66 2.558.373 3.513 0 0 3.876-2.293 4.425-3.867 0 0 4.018 4.234 4.487.87.288-2.062 4.052 2.997 4.052 2.997z"/>
  </g>
</svg>
