<svg viewBox="0 0 72 72" xmlns="http://www.w3.org/2000/svg">
  <path fill="#b3b3b3" d="M68 4v64H4V4h64m4-4H0v72h72V0z"/>
  <path fill="none" stroke="#00a5ff" stroke-miterlimit="10" stroke-width="0.1" d="M12.923 10.958h46.154A1.923 1.923 0 0161 12.881v46.154a1.923 1.923 0 01-1.923 1.923H12.923A1.923 1.923 0 0111 59.035V12.881a1.923 1.923 0 011.923-1.923z"/>
  <rect x="16" y="4" rx="2.254" width="40" height="64" fill="none" stroke="#00a5ff" stroke-miterlimit="10" stroke-width="0.1"/>
  <rect x="16" y="4" rx="2.254" width="40" height="64" transform="rotate(90 36 36)" fill="none" stroke="#00a5ff" stroke-miterlimit="10" stroke-width="0.1"/>
  <circle cx="36" cy="36" r="29" fill="none" stroke="#00a5ff" stroke-miterlimit="10" stroke-width="0.1"/>
  <g fill="none" stroke="#fff" stroke-linecap="round" stroke-linejoin="round" stroke-miterlimit="10" stroke-width="6">
    <path d="M11.21 34.533v24.425h7.839l2-18.425"/>
    <path d="M59.497 53.177a35.022 35.022 0 008.009-2.038c.708 6.525-.593 8.251-3.991 9.744-5.663 2.487-19.568 1.292-23.336-1.49-4.567-3.371-2.56-3.97-10.35-14.656-6.188-8.49-18.7-13.928-18.7-13.928v-5.77s20.747 6.67 25.004 17.835a14.485 14.485 0 003.483 5.294"/>
    <path d="M41.752 56.773l3.613-20.032 12.73 2.53-2.614 20.032"/>
  </g>
  <path fill="#6A462F" d="M10.294 30.533v28.425h9.378l2.753-22.217"/>
  <path fill="#6A462F" d="M11.21 34.533v24.425h7.839l2-18.425"/>
  <path fill="#6A462F" d="M59.064 52.31c2.775.039 5.907-.189 8.442-1.171.708 6.525-.593 8.251-3.991 9.744-5.663 2.487-19.568 1.292-23.336-1.49-4.567-3.371-2.56-3.97-10.35-14.656-6.188-8.49-18.7-13.928-18.7-13.928v-5.77s20.747 6.67 25.004 17.835c.799 2.093 2.815 3.437 4.305 4.88 0 0 7.278 4.396 18.626 4.556z"/>
  <path fill="#A57939" d="M41.343 57.587l4.022-20.846 12.73 2.53-2.714 21.032"/>
  <g fill="none" stroke="#000" stroke-linecap="round" stroke-linejoin="round" stroke-miterlimit="10" stroke-width="2">
    <path d="M11.21 34.533v24.425h7.839l2-18.425"/>
    <path d="M59.497 53.177a35.022 35.022 0 008.009-2.038c.708 6.525-.593 8.251-3.991 9.744-5.663 2.487-19.568 1.292-23.336-1.49-4.567-3.371-2.56-3.97-10.35-14.656-6.188-8.49-18.7-13.928-18.7-13.928v-5.77s20.747 6.67 25.004 17.835a14.485 14.485 0 003.483 5.294"/>
    <path d="M41.752 56.773l3.613-20.032 12.73 2.53-2.614 20.032"/>
  </g>
</svg>
