<svg viewBox="0 0 72 72" xmlns="http://www.w3.org/2000/svg">
  <path fill="#B3B3B3" d="M68 4v64H4V4h64m4-4H0v72h72V0z"/>
  <path fill="none" stroke="#00A5FF" stroke-miterlimit="10" stroke-width="0.1" d="M12.923 10.958h46.154c1.062 0 1.923.861 1.923 1.923v46.154a1.923 1.923 0 01-1.923 1.923H12.923A1.923 1.923 0 0111 59.035h0V12.881c0-1.062.861-1.923 1.923-1.923h0z"/>
  <path fill="none" stroke="#00A5FF" stroke-miterlimit="10" stroke-width="0.1" d="M18.254 4h35.492A2.254 2.254 0 0156 6.254v59.492A2.254 2.254 0 0153.746 68H18.254A2.254 2.254 0 0116 65.746V6.254A2.254 2.254 0 0118.254 4z"/>
  <path fill="none" stroke="#00A5FF" stroke-miterlimit="10" stroke-width="0.1" d="M68 18.254v35.492A2.254 2.254 0 0165.746 56H6.254A2.254 2.254 0 014 53.746V18.254A2.254 2.254 0 016.254 16h59.492A2.254 2.254 0 0168 18.254z"/>
  <circle cx="36" cy="36" r="29" fill="none" stroke="#00A5FF" stroke-miterlimit="10" stroke-width="0.1"/>
  <g fill="none" stroke="#fff" stroke-linecap="round" stroke-linejoin="round" stroke-miterlimit="10" stroke-width="6">
    <path d="M41.962 26.942a2 2 0 11-4.001-.001 2 2 0 014.002.001m-8.001 0a2 2 0 11-4.001-.001 2 2 0 014.002.001m1.999 10.002c-1.152 0-2.303-.286-3.447-.857a1 1 0 11.895-1.79c1.717.86 3.387.86 5.105 0a1 1 0 01.895 1.79c-1.144.571-2.296.857-3.448.857z"/>
    <path d="M46.98 24.96c.21 1.07.32 2.2.32 3.34 0 7.83-5.08 14.18-11.34 14.18S24.62 36.13 24.62 28.3c0-.97.08-1.91.23-2.82m16.1-9.9c.08.04.16.09.23.14.14.09.28.18.41.28M55.284 40.723l2.829-2.829 7.375 7.375-2.829 2.829z"/>
    <circle cx="53.662" cy="36.461" r="4"/>
    <path d="M64.292 46.868l2.846 2.846m-8.245-5.05v13.2M41.774 15.715c4.2.169 5.464 3.922 5.234 9.227h-.002c-2.702 2.047-7.303-6.05-7.303-6.05l2.07-3.177zm-8.241 32.383s-1.207 6.021 2.307 6.021c3.513 0 2.307-6.021 2.307-6.021"/>
    <path d="M34.99 54.12l-2.416 3.637c-3.63-1.754-5.671-12.962-5.671-12.962l-5.105 6.935 2.974 1.842-.999 3.113 8.87 1.072m4.047-3.637l2.415 3.637c3.63-1.754 5.673-12.962 5.673-12.962l5.104 6.935-2.974 1.842.999 3.113-8.87 1.072m.056-38.753l2.083-3.84s-2.46-7.145-11.33-3.372c-2.105.895-3.98 2.251-5.616 3.851 0 0-2.837 2.382-3.92 4.035 0 0-1.687-.284-3.268-1.764 0 0-.435 6.643 7.577 7.577 0 0 2.858.023 6.19-2.819m8.299-3.78c-.004-.463-3.292 6.183-13.917 2.84"/>
    <path d="M16.902 57.795s-2-13 10-13c3.192 2.128 5.927 3.598 9 3.592h-.124c3.073.006 5.808-1.464 9-3.592 12 0 10 13 10 13"/>
  </g>
  <path fill="#FFF" d="M54.778 58.592s2-13.797-10-13.797c-3.192 2.12-5.927 3.584-9 3.577h.125c-3.074.007-5.809-1.458-9-3.577-12 0-10 13.797-10 13.797"/>
  <path fill="#61B2E4" d="M26.902 44.795c-12 0-10 13.967-10 13.967h15.894s-4.421-3.264-5.893-13.967m17.875 0c12 0 10 13.967 10 13.967H39.03s5.422-7.443 5.748-13.967"/>
  <path fill="#92D3F5" d="M33.533 48.284s-1.207 6.022 2.307 6.022c3.513 0 2.307-6.022 2.307-6.022"/>
  <path fill="#9B9B9A" d="M55.284 40.723l2.829-2.829 7.375 7.375-2.829 2.829z"/>
  <circle cx="53.662" cy="36.461" r="4" fill="#D0CFCE"/>
  <path fill="#92D3F5" d="M34.99 54.488l-2.416 3.638c-3.63-1.754-5.671-12.962-5.671-12.962l-5.105 6.934 2.974 1.842-.999 3.114 8.87 1.072m3.036-4.03l1.79 2.61 1.507 2.044h-6.311l1.507-2.044zm1.011.392l2.415 3.638c3.63-1.754 5.673-12.962 5.673-12.962l5.104 6.934-2.974 1.842.999 3.114-8.87 1.072"/>
  <path fill="#A57939" d="M41.774 15.715l-.626-.624c-.286-.736-2.957-6.849-11.302-3.3-2.105.896-3.98 2.252-5.616 3.852 0 0-2.837 2.382-3.92 4.035 0 0-1.687-.284-3.268-1.764 0 0-.435 6.643 7.577 7.577 0 0 2.858.023 6.19-2.819l1.406-.622c3.04-.198 5.352-1.183 5.353-2.37l1.208-.535.927-.253s4.6 8.097 7.303 6.05h.003c.23-5.305-1.036-9.058-5.235-9.227z"/>
  <path fill="#FCEA2B" d="M39.703 18.892l-.927.253-1.208.534c-.001 1.188-2.314 2.173-5.353 2.371l-1.405.622c-3.275 2.792-6.085 2.82-6.182 2.82a17.554 17.554 0 00-.318 3.279c0 7.827 5.077 14.173 11.34 14.173s11.338-6.346 11.338-14.173c0-1.25-.143-2.455-.385-3.609-2.732 1.061-6.9-6.27-6.9-6.27z"/>
  <path d="M41.962 26.942a2 2 0 11-4.001-.001 2 2 0 014.002.001m-8.001 0a2 2 0 11-4.001-.001 2 2 0 014.002.001m1.999 10.002c-1.152 0-2.303-.286-3.447-.857a1 1 0 11.895-1.79c1.717.86 3.387.86 5.105 0a1 1 0 01.895 1.79c-1.144.571-2.296.857-3.448.857z"/>
  <path fill="none" stroke="#000" stroke-miterlimit="10" stroke-width="2" d="M46.98 24.96c.21 1.07.32 2.2.32 3.34 0 7.83-5.08 14.18-11.34 14.18S24.62 36.13 24.62 28.3c0-.97.08-1.91.23-2.82m16.1-9.9c.08.04.16.09.23.14.14.09.28.18.41.28"/>
  <path fill="none" stroke="#000" stroke-linecap="round" stroke-linejoin="round" stroke-miterlimit="10" stroke-width="2" d="M55.284 40.723l2.829-2.829 7.375 7.375-2.829 2.829z"/>
  <circle cx="53.662" cy="36.461" r="4" fill="none" stroke="#000" stroke-linecap="round" stroke-linejoin="round" stroke-miterlimit="10" stroke-width="2"/>
  <path fill="none" stroke="#000" stroke-linecap="round" stroke-linejoin="round" stroke-miterlimit="10" stroke-width="2" d="M64.292 46.868l2.846 2.846m-8.245-5.05v13.2M41.774 15.715c4.2.169 5.464 3.922 5.234 9.227h-.002c-2.702 2.047-7.303-6.05-7.303-6.05l2.07-3.177zm-8.241 32.383s-1.207 6.021 2.307 6.021c3.513 0 2.307-6.021 2.307-6.021"/>
  <path fill="none" stroke="#000" stroke-linecap="round" stroke-linejoin="round" stroke-miterlimit="10" stroke-width="2" d="M34.99 54.12l-2.416 3.637c-3.63-1.754-5.671-12.962-5.671-12.962l-5.105 6.935 2.974 1.842-.999 3.113 8.87 1.072m4.047-3.637l2.415 3.637c3.63-1.754 5.673-12.962 5.673-12.962l5.104 6.935-2.974 1.842.999 3.113-8.87 1.072m.056-38.753l2.083-3.84s-2.46-7.145-11.33-3.372c-2.105.895-3.98 2.251-5.616 3.851 0 0-2.837 2.382-3.92 4.035 0 0-1.687-.284-3.268-1.764 0 0-.435 6.643 7.577 7.577 0 0 2.858.023 6.19-2.819m8.299-3.78c-.004-.463-3.292 6.183-13.917 2.84"/>
  <path fill="none" stroke="#000" stroke-linecap="round" stroke-linejoin="round" stroke-miterlimit="10" stroke-width="2" d="M16.902 57.795s-2-13 10-13c3.192 2.128 5.927 3.598 9 3.592h-.124c3.073.006 5.808-1.464 9-3.592 12 0 10 13 10 13"/>
</svg>
