<svg viewBox="0 0 72 72" xmlns="http://www.w3.org/2000/svg">
  <path fill="#B3B3B3" d="M68 4v64H4V4h64m4-4H0v72h72V0z"/>
  <path fill="none" stroke="#00A5FF" stroke-miterlimit="10" stroke-width="0.1" d="M12.9 11h46.2c1.1 0 1.9.9 1.9 1.9h0V59c0 1.1-.9 1.9-1.9 1.9H12.9c-1 .1-1.9-.8-1.9-1.9h0V12.9c0-1.1.9-1.9 1.9-1.9h0z"/>
  <path fill="none" stroke="#00A5FF" stroke-miterlimit="10" stroke-width="0.1" d="M18.3 4h35.5C55 4 56 5 56 6.3v59.5c0 1.2-1 2.3-2.3 2.3H18.3C17 68 16 67 16 65.7V6.3C16 5 17 4 18.3 4z"/>
  <path fill="none" stroke="#00A5FF" stroke-miterlimit="10" stroke-width="0.1" d="M68 18.3v35.5c0 1.2-1 2.3-2.3 2.3H6.3C5 56 4 55 4 53.7V18.3C4 17 5 16 6.3 16h59.5c1.2 0 2.2 1 2.2 2.3z"/>
  <circle cx="36" cy="36" r="29" fill="none" stroke="#00A5FF" stroke-miterlimit="10" stroke-width="0.1"/>
  <g fill="none" stroke="#fff" stroke-linecap="round" stroke-linejoin="round" stroke-miterlimit="10" stroke-width="6">
    <circle cx="47" cy="11" r="3"/>
    <path d="M36 41.9s2.1-4.7 2.5-9.6c.2-2.5.3-9.3.3-9.3.1-2.8 2.4-5 5.2-5h6c2.8 0 5.1 2.2 5.2 5l.8 18.9"/>
    <path d="M52 23.6l1.9 38.2c.1 1.1-.7 1.8-1.5 1.8s-1.4-.6-1.5-1.3L48.2 39c-.1-.6-.5-1.1-1.2-1.1s-1.1.5-1.2 1.1l-2.7 23.3c-.1.7-.7 1.3-1.5 1.3s-1.6-.7-1.5-1.8L42 23.6"/>
    <circle cx="25" cy="11" r="3"/>
    <path d="M16 41.9l.8-18.9c.1-2.8 2.4-5 5.2-5h6c2.8 0 5.1 2.2 5.2 5 0 0 .1 6.7.3 9.3.4 4.9 2.5 9.6 2.5 9.6"/>
    <path d="M20 23.6l-1.9 38.2c-.1 1.1.7 1.8 1.5 1.8s1.4-.6 1.5-1.3L23.8 39c.1-.6.5-1.1 1.2-1.1s1.1.5 1.2 1.1l2.7 23.3c.1.7.7 1.3 1.5 1.3s1.6-.7 1.5-1.8L30 23.6"/>
  </g>
  <g fill="#FCEA2B">
    <circle cx="47" cy="11" r="3"/>
    <path d="M52 23.6l1.9 38.2c.1 1.1-.7 1.8-1.5 1.8s-1.4-.6-1.5-1.3L48.2 39c-.1-.6-.5-1.1-1.2-1.1s-1.1.5-1.2 1.1l-2.7 23.3c-.1.7-.7 1.3-1.5 1.3s-1.6-.7-1.5-1.8L42 23.6"/>
    <path d="M56 42.9c-3.3 0-5.5-18.3-9-18.3s-7.2 18.3-11 18.3c0 0 2.1-5.7 2.5-10.6.2-2.5.3-9.3.3-9.3.1-2.8 2.4-5 5.2-5h6c2.8 0 5.1 2.2 5.2 5l.8 19.9z"/>
    <circle cx="25" cy="11" r="3"/>
    <path d="M20 23.6l-1.9 38.2c-.1 1.1.7 1.8 1.5 1.8s1.4-.6 1.5-1.3L23.8 39c.1-.6.5-1.1 1.2-1.1s1.1.5 1.2 1.1l2.7 23.3c.1.7.7 1.3 1.5 1.3s1.6-.7 1.5-1.8L30 23.6"/>
    <path d="M16.8 23c.1-2.8 2.4-5 5.2-5h6c2.8 0 5.1 2.2 5.2 5 0 0 .1 6.7.3 9.3.5 4.9 2.5 10.6 2.5 10.6-3.8 0-7.5-18.3-11-18.3s-5.7 18.3-9 18.3l.8-19.9z"/>
  </g>
  <g fill="none" stroke="#000" stroke-width="2">
    <circle cx="47" cy="11" r="3" stroke-miterlimit="10"/>
    <path stroke-linecap="round" stroke-linejoin="round" d="M36 41.9s2.1-4.7 2.5-9.6c.2-2.5.3-9.3.3-9.3.1-2.8 2.4-5 5.2-5h6c2.8 0 5.1 2.2 5.2 5l.8 18.9"/>
    <path stroke-linecap="round" stroke-linejoin="round" d="M52 23.6l1.9 38.2c.1 1.1-.7 1.8-1.5 1.8s-1.4-.6-1.5-1.3L48.2 39c-.1-.6-.5-1.1-1.2-1.1s-1.1.5-1.2 1.1l-2.7 23.3c-.1.7-.7 1.3-1.5 1.3s-1.6-.7-1.5-1.8L42 23.6"/>
    <circle cx="25" cy="11" r="3" stroke-miterlimit="10"/>
    <path stroke-linecap="round" stroke-linejoin="round" d="M16 41.9l.8-18.9c.1-2.8 2.4-5 5.2-5h6c2.8 0 5.1 2.2 5.2 5 0 0 .1 6.7.3 9.3.4 4.9 2.5 9.6 2.5 9.6"/>
    <path stroke-linecap="round" stroke-linejoin="round" d="M20 23.6l-1.9 38.2c-.1 1.1.7 1.8 1.5 1.8s1.4-.6 1.5-1.3L23.8 39c.1-.6.5-1.1 1.2-1.1s1.1.5 1.2 1.1l2.7 23.3c.1.7.7 1.3 1.5 1.3s1.6-.7 1.5-1.8L30 23.6"/>
  </g>
</svg>
