<svg viewBox="0 0 72 72" xmlns="http://www.w3.org/2000/svg">
  <path fill="#b3b3b3" d="M68 4v64H4V4h64m4-4H0v72h72V0z"/>
  <path fill="none" stroke="#00a5ff" stroke-miterlimit="10" stroke-width="0.1" d="M12.923 10.958h46.154A1.923 1.923 0 0161 12.881v46.154a1.923 1.923 0 01-1.923 1.923H12.923A1.923 1.923 0 0111 59.035V12.881a1.923 1.923 0 011.923-1.923z"/>
  <rect x="16" y="4" rx="2.254" width="40" height="64" fill="none" stroke="#00a5ff" stroke-miterlimit="10" stroke-width="0.1"/>
  <rect x="16" y="4" rx="2.254" width="40" height="64" transform="rotate(90 36 36)" fill="none" stroke="#00a5ff" stroke-miterlimit="10" stroke-width="0.1"/>
  <circle cx="36" cy="36" r="29" fill="none" stroke="#00a5ff" stroke-miterlimit="10" stroke-width="0.1"/>
  <path fill="none" stroke="#fff" stroke-linecap="round" stroke-linejoin="round" stroke-miterlimit="10" stroke-width="6" d="M58 60s0-2-1-6c-1.21-4.846-4-8-10-8H25c-6 0-8.79 3.154-10 8-1 4-1 6-1 6m12-34c0 3.725.54 7.809 2 10 1.861 2.793 5.018 4 8 4 3.096 0 6.137-1.207 8-4 1.46-2.191 2-6.275 2-10 0-2.793-1-12-10-12s-10 7.344-10 12z"/>
  <path fill="#D0CFCE" d="M58 61s0-3-1-7c-1.21-4.846-4-8-10-8H25c-6 0-8.79 3.154-10 8-1 4-1 7-1 7h44zM26 26c0 3.725.54 7.809 2 10 1.861 2.793 5.018 4 8 4 3.096 0 6.137-1.207 8-4 1.46-2.191 2-6.275 2-10 0-2.793-1-12-10-12s-10 7.344-10 12z"/>
  <g fill="none" stroke="#000" stroke-linejoin="round" stroke-width="2">
    <path stroke-linecap="round" d="M58 60s0-2-1-6c-1.21-4.846-4-8-10-8H25c-6 0-8.79 3.154-10 8-1 4-1 6-1 6"/>
    <path d="M26 26c0 3.725.54 7.809 2 10 1.861 2.793 5.018 4 8 4 3.096 0 6.137-1.207 8-4 1.46-2.191 2-6.275 2-10 0-2.793-1-12-10-12s-10 7.344-10 12z"/>
  </g>
</svg>
