<svg viewBox="0 0 72 72" xmlns="http://www.w3.org/2000/svg">
  <path fill="#b3b3b3" d="M68 4v64H4V4h64m4-4H0v72h72V0z"/>
  <path fill="none" stroke="#00a5ff" stroke-miterlimit="10" stroke-width="0.1" d="M12.923 10.958h46.154A1.923 1.923 0 0161 12.881v46.154a1.923 1.923 0 01-1.923 1.923H12.923A1.923 1.923 0 0111 59.035V12.881a1.923 1.923 0 011.923-1.923z"/>
  <rect x="16" y="4" rx="2.254" width="40" height="64" fill="none" stroke="#00a5ff" stroke-miterlimit="10" stroke-width="0.1"/>
  <rect x="16" y="4" rx="2.254" width="40" height="64" transform="rotate(90 36 36)" fill="none" stroke="#00a5ff" stroke-miterlimit="10" stroke-width="0.1"/>
  <circle cx="36" cy="36" r="29" fill="none" stroke="#00a5ff" stroke-miterlimit="10" stroke-width="0.1"/>
  <path fill="#b3b3b3" d="M68 4v64H4V4h64m4-4H0v72h72V0z"/>
  <path fill="none" stroke="#00a5ff" stroke-miterlimit="10" stroke-width="0.1" d="M12.923 10.958h46.154A1.923 1.923 0 0161 12.881v46.154a1.923 1.923 0 01-1.923 1.923H12.923A1.923 1.923 0 0111 59.035V12.881a1.923 1.923 0 011.923-1.923z"/>
  <rect x="16" y="4" rx="2.254" width="40" height="64" fill="none" stroke="#00a5ff" stroke-miterlimit="10" stroke-width="0.1"/>
  <rect x="16" y="4" rx="2.254" width="40" height="64" transform="rotate(90 36 36)" fill="none" stroke="#00a5ff" stroke-miterlimit="10" stroke-width="0.1"/>
  <circle cx="36" cy="36" r="29" fill="none" stroke="#00a5ff" stroke-miterlimit="10" stroke-width="0.1"/>
  <g fill="none" stroke="#fff" stroke-linecap="round" stroke-linejoin="round" stroke-miterlimit="10" stroke-width="6">
    <ellipse cx="36.9" cy="16.2" rx="16.4" ry="2.2"/>
    <path d="M19.2 52.9H9s1.6 8.9 8 8.9h10.5"/>
    <ellipse cx="36" cy="43" rx="18.9" ry="21"/>
    <path d="M52.8 52.9H63s-1.6 8.9-8 8.9H44.4m-4.4-39s1.8 1.8-.9 6.2-8 2.7-8 2.7 3.9-.4 4.4-3.5a5.332 5.332 0 00-1.8-5.3m-1.8 18.9a2.795 2.795 0 01-2.8 2.8 2.862 2.862 0 01-2.8-2.8 2.795 2.795 0 012.8-2.8h0a2.862 2.862 0 012.8 2.8m13.6 0a2.8 2.8 0 11-2.8-2.8h0a2.795 2.795 0 012.8 2.8M31.4 52.7s5 2.8 9.6 0"/>
  </g>
  <path fill="#d0cfce" d="M18.7 52.9H9s1.8 8 6.2 8.8 11.5 0 11.5 0zm34.5 0H63s-1.8 8-6.2 8.8-11.5 0-11.5 0z"/>
  <path fill="#9b9b9a" d="M16.1 53.8a11.904 11.904 0 005.3 7.1l1.3 1.2 4-.3s-7.9-8.1-7.5-8.9zm39.8 0a11.904 11.904 0 01-5.3 7.1l-1.3 1.2-4-.3s7.9-8.1 7.5-8.9z"/>
  <ellipse cx="35.899" cy="42.699" rx="18.6" ry="20.7" transform="rotate(-.723 35.897 42.702)" fill="#fcea2b"/>
  <path fill="#f1b31c" d="M34.7 22.8H40c1.3 0-1.9 11.5-5.3 8-.9-.8 1-5.2 0-8z"/>
  <g>
    <ellipse cx="36.9" cy="16.2" rx="16.4" ry="2.2" fill="none" stroke="#000" stroke-linecap="round" stroke-linejoin="round" stroke-width="2"/>
    <path fill="none" stroke="#000" stroke-linecap="round" stroke-linejoin="round" stroke-width="2" d="M19.2 52.9H9s1.6 8.9 8 8.9h10.5"/>
    <ellipse cx="36" cy="43" rx="18.9" ry="21" fill="none" stroke="#000" stroke-linecap="round" stroke-linejoin="round" stroke-width="2"/>
    <path fill="none" stroke="#000" stroke-linecap="round" stroke-linejoin="round" stroke-width="2" d="M52.8 52.9H63s-1.6 8.9-8 8.9H44.4m-4.4-39s1.8 1.8-.9 6.2-8 2.7-8 2.7 3.9-.4 4.4-3.5a5.332 5.332 0 00-1.8-5.3"/>
    <path d="M31.9 41.8a2.795 2.795 0 01-2.8 2.8 2.862 2.862 0 01-2.8-2.8 2.795 2.795 0 012.8-2.8 2.862 2.862 0 012.8 2.8m13.6 0a2.8 2.8 0 11-2.8-2.8 2.795 2.795 0 012.8 2.8"/>
    <path fill="none" stroke="#000" stroke-linecap="round" stroke-linejoin="round" stroke-width="2" d="M31.4 52.7s5 2.8 9.6 0"/>
  </g>
</svg>
