<svg viewBox="0 0 72 72" xmlns="http://www.w3.org/2000/svg">
  <path fill="#B3B3B3" d="M68 4v64H4V4h64m4-4H0v72h72V0z"/>
  <path fill="none" stroke="#00A5FF" stroke-miterlimit="10" stroke-width="0.1" d="M12.923 10.958h46.154c1.062 0 1.923.861 1.923 1.923v46.154a1.923 1.923 0 01-1.923 1.923H12.923A1.923 1.923 0 0111 59.035h0V12.881c0-1.062.861-1.923 1.923-1.923h0z"/>
  <path fill="none" stroke="#00A5FF" stroke-miterlimit="10" stroke-width="0.1" d="M18.254 4h35.492A2.254 2.254 0 0156 6.254v59.492A2.254 2.254 0 0153.746 68H18.254A2.254 2.254 0 0116 65.746V6.254A2.254 2.254 0 0118.254 4z"/>
  <path fill="none" stroke="#00A5FF" stroke-miterlimit="10" stroke-width="0.1" d="M68 18.254v35.492A2.254 2.254 0 0165.746 56H6.254A2.254 2.254 0 014 53.746V18.254A2.254 2.254 0 016.254 16h59.492A2.254 2.254 0 0168 18.254z"/>
  <circle cx="36" cy="36" r="29" fill="none" stroke="#00A5FF" stroke-miterlimit="10" stroke-width="0.1"/>
  <path fill="#B3B3B3" d="M68 4v64H4V4h64m4-4H0v72h72V0z"/>
  <path fill="none" stroke="#00A5FF" stroke-miterlimit="10" stroke-width="0.1" d="M12.923 10.958h46.154c1.062 0 1.923.861 1.923 1.923v46.154a1.923 1.923 0 01-1.923 1.923H12.923A1.923 1.923 0 0111 59.035h0V12.881c0-1.062.861-1.923 1.923-1.923h0z"/>
  <path fill="none" stroke="#00A5FF" stroke-miterlimit="10" stroke-width="0.1" d="M18.254 4h35.492A2.254 2.254 0 0156 6.254v59.492A2.254 2.254 0 0153.746 68H18.254A2.254 2.254 0 0116 65.746V6.254A2.254 2.254 0 0118.254 4z"/>
  <path fill="none" stroke="#00A5FF" stroke-miterlimit="10" stroke-width="0.1" d="M68 18.254v35.492A2.254 2.254 0 0165.746 56H6.254A2.254 2.254 0 014 53.746V18.254A2.254 2.254 0 016.254 16h59.492A2.254 2.254 0 0168 18.254z"/>
  <circle cx="36" cy="36" r="29" fill="none" stroke="#00A5FF" stroke-miterlimit="10" stroke-width="0.1"/>
  <path fill="none" stroke="#fff" stroke-linecap="round" stroke-linejoin="round" stroke-miterlimit="10" stroke-width="6" d="M25.175 31h3.6v6h-3.6zM22 45h-6v-6m6.583-14v-5H26m22.708 5v-5h-3.416M13 35h-3V20h6v15m40 0V20h6v15h-3M26 20v-6h6v6m7 0v-6h6v6M16 35h3v3h-6v-3m46 0v3h-6v-3h3M16 51h6v6h-6zm34 0h6v6h-6zm-22-6v6h-6v-6m28 0h6v-6m-12 6v6h6v-6m-6.575-14h3.6v6h-3.6zM44 45h0zm-5-25h0zm-23 5h0zm33 0h0zM28 45h16M32 20h7m-23 5h6m27 0h7"/>
  <path fill="#8967AA" d="M10 21v14h3v3h3v7h6v6h6v-6h16v6h6v-6h6v-7h3v-3h3V20h-6v5h-7v-5h-4v-6h-6v6h-7v-6h-6v6h-4v5h-6v-5h-6zm6 30h6v6h-6zm34 0h6v6h-6z"/>
  <g stroke="#000" stroke-linecap="round" stroke-linejoin="round" stroke-width="2">
    <path d="M25.175 31h3.6v6h-3.6z"/>
    <path fill="none" d="M22 45h-6v-6m6.583-14v-5H26m22.708 5v-5h-3.416M13 35h-3V20h6v15m40 0V20h6v15h-3M26 20v-6h6v6m7 0v-6h6v6M16 35h3v3h-6v-3m46 0v3h-6v-3h3M16 51h6v6h-6zm34 0h6v6h-6zm-22-6v6h-6v-6m28 0h6v-6m-12 6v6h6v-6"/>
    <path d="M43.425 31h3.6v6h-3.6z"/>
    <path fill="none" d="M44 45h0zm-5-25h0zm-23 5h0zm33 0h0zM28 45h16M32 20h7m-23 5h6m27 0h7"/>
  </g>
</svg>
