<svg viewBox="0 0 72 72" xmlns="http://www.w3.org/2000/svg">
  <path fill="#B3B3B3" d="M68 4v64H4V4h64m4-4H0v72h72V0z"/>
  <path fill="none" stroke="#00A5FF" stroke-miterlimit="10" stroke-width="0.1" d="M12.923 10.958h46.154c1.062 0 1.923.861 1.923 1.923v46.154a1.923 1.923 0 01-1.923 1.923H12.923A1.923 1.923 0 0111 59.035h0V12.881c0-1.062.861-1.923 1.923-1.923h0z"/>
  <path fill="none" stroke="#00A5FF" stroke-miterlimit="10" stroke-width="0.1" d="M18.254 4h35.492A2.254 2.254 0 0156 6.254v59.492A2.254 2.254 0 0153.746 68H18.254A2.254 2.254 0 0116 65.746V6.254A2.254 2.254 0 0118.254 4z"/>
  <path fill="none" stroke="#00A5FF" stroke-miterlimit="10" stroke-width="0.1" d="M68 18.254v35.492A2.254 2.254 0 0165.746 56H6.254A2.254 2.254 0 014 53.746V18.254A2.254 2.254 0 016.254 16h59.492A2.254 2.254 0 0168 18.254z"/>
  <circle cx="36" cy="36" r="29" fill="none" stroke="#00A5FF" stroke-miterlimit="10" stroke-width="0.1"/>
  <g fill="none" stroke="#fff" stroke-linecap="round" stroke-linejoin="round" stroke-miterlimit="10" stroke-width="6">
    <path d="M59.557 52.3c.002-.003.003-.007.006-.01.002-.005.003-.01.006-.014a1.8 1.8 0 00-.008-1.86c-2.376-5.349-2.471-10.544-2.54-14.728-.068-4.264-.123-7.633-2.443-9.722-1.508-1.359-3.664-1.866-6.78-1.59-2.09.187-2.352.45-3.392-.195s-.92-.997-1.68-2.957c-1.146-2.944-2.563-4.663-4.458-5.413-2.89-1.142-5.908.304-9.73 2.133-3.77 1.806-8.455 4.037-14.324 4.29-.684-.085-1.393.199-1.773.811-.572.921-.146 2.078.599 2.546.468.674.95 3.243 1.339 5.336 1.284 6.89 3.224 17.304 11.794 22.624s18.763 2.44 25.508.533c2.048-.58 4.565-1.288 5.377-1.167.87.535 1.997.192 2.499-.616z"/>
    <path d="M38.368 33.752s-1.02-2.275-2.385-3.122c-1.522-.945-2.75-.61-4.593.054-1.257.451-2.618.941-4.299.73-.56-.07-.877.631-.472 1.024 3.462 3.357 5.192 7.555 5.832 9.412.093.271.29.502.5.629.206.132.5.205.785.169 1.949-.25 6.478-.563 11.023 1.051.531.19 1.018-.406.707-.877-.934-1.413-1.099-2.85-1.252-4.177-.222-1.946-.467-3.195-1.99-4.14-1.364-.847-3.856-.753-3.856-.753z"/>
  </g>
  <path fill="#D22F27" d="M59.557 52.3c.002-.003.003-.007.006-.01.002-.005.003-.01.006-.014a1.8 1.8 0 00-.008-1.86c-2.376-5.349-2.471-10.544-2.54-14.728-.068-4.264-.123-7.633-2.443-9.722-1.508-1.359-3.664-1.866-6.78-1.59-2.09.187-2.352.45-3.392-.195s-.92-.997-1.68-2.957c-1.146-2.944-2.563-4.663-4.458-5.413-2.89-1.142-5.908.304-9.73 2.133-3.77 1.806-8.455 4.037-14.324 4.29-.684-.085-1.393.199-1.773.811-.572.921-.146 2.078.599 2.546.468.674.95 3.243 1.339 5.336 1.284 6.89 3.224 17.304 11.794 22.624s18.763 2.44 25.508.533c2.048-.58 4.565-1.288 5.377-1.167.87.535 1.997.192 2.499-.616z"/>
  <path fill="#FFF" d="M38.368 33.752s-1.02-2.275-2.385-3.122c-1.522-.945-2.75-.61-4.593.054-1.257.451-2.618.941-4.299.73-.56-.07-.877.631-.472 1.024 3.462 3.357 5.192 7.555 5.832 9.412.093.271.29.502.5.629.206.132.5.205.785.169 1.949-.25 6.478-.563 11.023 1.051.531.19 1.018-.406.707-.877-.934-1.413-1.099-2.85-1.252-4.177-.222-1.946-.467-3.195-1.99-4.14-1.364-.847-3.856-.753-3.856-.753z"/>
  <g fill="none" stroke="#000" stroke-miterlimit="10" stroke-width="2">
    <path d="M59.557 52.3c.002-.003.003-.007.006-.01.002-.005.003-.01.006-.014a1.8 1.8 0 00-.008-1.86c-2.376-5.349-2.471-10.544-2.54-14.728-.068-4.264-.123-7.633-2.443-9.722-1.508-1.359-3.664-1.866-6.78-1.59-2.09.187-2.352.45-3.392-.195s-.92-.997-1.68-2.957c-1.146-2.944-2.563-4.663-4.458-5.413-2.89-1.142-5.908.304-9.73 2.133-3.77 1.806-8.455 4.037-14.324 4.29-.684-.085-1.393.199-1.773.811-.572.921-.146 2.078.599 2.546.468.674.95 3.243 1.339 5.336 1.284 6.89 3.224 17.304 11.794 22.624s18.763 2.44 25.508.533c2.048-.58 4.565-1.288 5.377-1.167.87.535 1.997.192 2.499-.616z"/>
    <path d="M38.368 33.752s-1.02-2.275-2.385-3.122c-1.522-.945-2.75-.61-4.593.054-1.257.451-2.618.941-4.299.73-.56-.07-.877.631-.472 1.024 3.462 3.357 5.192 7.555 5.832 9.412.093.271.29.502.5.629.206.132.5.205.785.169 1.949-.25 6.478-.563 11.023 1.051.531.19 1.018-.406.707-.877-.934-1.413-1.099-2.85-1.252-4.177-.222-1.946-.467-3.195-1.99-4.14-1.364-.847-3.856-.753-3.856-.753z"/>
  </g>
</svg>
