<svg viewBox="0 0 72 72" xmlns="http://www.w3.org/2000/svg">
  <path fill="#b3b3b3" d="M68 4v64H4V4h64m4-4H0v72h72V0z"/>
  <path fill="none" stroke="#00a5ff" stroke-miterlimit="10" stroke-width="0.1" d="M12.923 10.958h46.154A1.923 1.923 0 0161 12.881v46.154a1.923 1.923 0 01-1.923 1.923H12.923A1.923 1.923 0 0111 59.035V12.881a1.923 1.923 0 011.923-1.923z"/>
  <rect x="16" y="4" rx="2.254" width="40" height="64" fill="none" stroke="#00a5ff" stroke-miterlimit="10" stroke-width="0.1"/>
  <rect x="16" y="4" rx="2.254" width="40" height="64" transform="rotate(90 36 36)" fill="none" stroke="#00a5ff" stroke-miterlimit="10" stroke-width="0.1"/>
  <circle cx="36" cy="36" r="29" fill="none" stroke="#00a5ff" stroke-miterlimit="10" stroke-width="0.1"/>
  <g fill="none" stroke="#fff" stroke-linecap="round" stroke-linejoin="round" stroke-miterlimit="10" stroke-width="6">
    <circle cx="37.625" cy="41" r="19.958"/>
    <path d="M27.933 11.958l3.25 6.47m15.692-6.471l-3.25 6.469M41.314 17h-7.668l-1-5.043h9.668z"/>
  </g>
  <path fill="#D0CFCE" d="M37.625 25.042c8.8 0 15.958 7.159 15.958 15.958s-7.158 15.958-15.958 15.958S21.667 49.8 21.667 41s7.159-15.958 15.958-15.958m0-4c-11.023 0-19.958 8.935-19.958 19.958s8.935 19.958 19.958 19.958S57.583 52.023 57.583 41s-8.935-19.958-19.958-19.958z"/>
  <path fill="#61B2E4" d="M41.314 17h-7.668l-1-5.043h9.668z"/>
  <g fill="none" stroke="#000" stroke-linecap="round" stroke-linejoin="round" stroke-miterlimit="10" stroke-width="2">
    <circle cx="37.625" cy="41" r="19.958"/>
    <path d="M27.933 11.958l3.25 6.47m15.692-6.471l-3.25 6.469M41.314 17h-7.668l-1-5.043h9.668z"/>
  </g>
</svg>
