<svg viewBox="0 0 72 72" xmlns="http://www.w3.org/2000/svg">
  <path fill="#B3B3B3" d="M68 4v64H4V4h64m4-4H0v72h72V0z"/>
  <path fill="none" stroke="#00A5FF" stroke-miterlimit="10" stroke-width="0.1" d="M12.923 10.958h46.154c1.062 0 1.923.861 1.923 1.923v46.154a1.923 1.923 0 01-1.923 1.923H12.923A1.923 1.923 0 0111 59.035h0V12.881c0-1.062.861-1.923 1.923-1.923h0z"/>
  <path fill="none" stroke="#00A5FF" stroke-miterlimit="10" stroke-width="0.1" d="M18.254 4h35.492A2.254 2.254 0 0156 6.254v59.492A2.254 2.254 0 0153.746 68H18.254A2.254 2.254 0 0116 65.746V6.254A2.254 2.254 0 0118.254 4z"/>
  <path fill="none" stroke="#00A5FF" stroke-miterlimit="10" stroke-width="0.1" d="M68 18.254v35.492A2.254 2.254 0 0165.746 56H6.254A2.254 2.254 0 014 53.746V18.254A2.254 2.254 0 016.254 16h59.492A2.254 2.254 0 0168 18.254z"/>
  <circle cx="36" cy="36" r="29" fill="none" stroke="#00A5FF" stroke-miterlimit="10" stroke-width="0.1"/>
  <path fill="none" stroke="#fff" stroke-linecap="round" stroke-linejoin="round" stroke-miterlimit="10" stroke-width="6" d="M28.263 48.95L36 58.54l20.734-25.698-.004-.003A12.44 12.44 0 0059.5 25c0-6.904-5.596-12.5-12.5-12.5a12.497 12.497 0 00-11 6.56 12.497 12.497 0 00-11-6.56c-6.904 0-12.5 5.596-12.5 12.5 0 2.97 1.04 5.694 2.77 7.839l-.004.003 7.853 9.733M34.5 37.5L21 51M62.092 9.908L58 14M20.596 51.454h-6.95l-6.453 6.453h6.95v6.95l6.453-6.453zM68.18 3.628L66.924 8.48l-1.254 4.85-3.596-3.596-3.596-3.596 4.851-1.255z"/>
  <path fill="#FFA7C0" d="M60.5 25c0-7.444-6.056-13.5-13.5-13.5a13.494 13.494 0 00-11 5.672A13.494 13.494 0 0025 11.5c-7.444 0-13.5 6.056-13.5 13.5 0 2.728.84 5.408 2.383 7.65l-.034.028L34.715 58.54h2.57l20.228-25.07.668-.837-.036-.024A13.534 13.534 0 0060.5 25z"/>
  <path fill="#61B2E4" d="M19.821 52.179l.275 6.725-5.989 5.989-.275-6.725 5.99-5.99"/>
  <path fill="#92D3F5" d="M7.882 57.668h6.45l5.99-5.99h-6.45l-5.99 5.99M68.18 3.628L66.924 8.48l-1.254 4.85-3.596-3.596-3.596-3.596 4.851-1.255z"/>
  <path fill="none" stroke="#000" stroke-linecap="round" stroke-linejoin="round" stroke-miterlimit="10" stroke-width="2" d="M28.263 48.95L36 58.54l20.734-25.698-.004-.003A12.44 12.44 0 0059.5 25c0-6.904-5.596-12.5-12.5-12.5a12.497 12.497 0 00-11 6.56 12.497 12.497 0 00-11-6.56c-6.904 0-12.5 5.596-12.5 12.5 0 2.97 1.04 5.694 2.77 7.839l-.004.003 7.853 9.733M34.5 37.5L21 51M62.092 9.908L58 14M20.596 51.454h-6.95l-6.453 6.453h6.95v6.95l6.453-6.453zM68.18 3.628L66.924 8.48l-1.254 4.85-3.596-3.596-3.596-3.596 4.851-1.255z"/>
</svg>
