<svg viewBox="0 0 72 72" xmlns="http://www.w3.org/2000/svg">
  <path fill="#B3B3B3" d="M68 4v64H4V4h64m4-4H0v72h72V0z"/>
  <path fill="none" stroke="#00A5FF" stroke-miterlimit="10" stroke-width="0.1" d="M12.923 10.958h46.154c1.062 0 1.923.861 1.923 1.923v46.154a1.923 1.923 0 01-1.923 1.923H12.923A1.923 1.923 0 0111 59.035h0V12.881c0-1.062.861-1.923 1.923-1.923h0z"/>
  <path fill="none" stroke="#00A5FF" stroke-miterlimit="10" stroke-width="0.1" d="M18.254 4h35.492A2.254 2.254 0 0156 6.254v59.492A2.254 2.254 0 0153.746 68H18.254A2.254 2.254 0 0116 65.746V6.254A2.254 2.254 0 0118.254 4z"/>
  <path fill="none" stroke="#00A5FF" stroke-miterlimit="10" stroke-width="0.1" d="M68 18.254v35.492A2.254 2.254 0 0165.746 56H6.254A2.254 2.254 0 014 53.746V18.254A2.254 2.254 0 016.254 16h59.492A2.254 2.254 0 0168 18.254z"/>
  <circle cx="36" cy="36" r="29" fill="none" stroke="#00A5FF" stroke-miterlimit="10" stroke-width="0.1"/>
  <g fill="none" stroke="#fff" stroke-linecap="round" stroke-linejoin="round" stroke-miterlimit="10" stroke-width="6">
    <path d="M46.92 17.265a16.54 16.54 0 00-2.106-7.145l-2.143 1.362-1.333-2.256a16.542 16.542 0 00-5.293 5.243M14.258 30.41a16.54 16.54 0 01-3.43-6.613l2.489-.502-.601-2.55a16.54 16.54 0 017.449.116m17.472 35.637a16.54 16.54 0 005.956 4.475L44.5 58.6l2.416 1.014a16.54 16.54 0 001.114-7.366m9.982-13.486a16.54 16.54 0 005.453-5.076l-2.176-1.31 1.424-2.2a16.538 16.538 0 00-7.055-2.393M21.43 53.484a16.54 16.54 0 01-7.45.117l.663-2.452-2.55-.601a16.538 16.538 0 013.43-6.613M29.57 32.7c-3.223-2.653-6.532-7.306-3.538-15.334l2.311.985h0"/>
    <path d="M28.24 18.393h0l.985-2.312c7.72 3.717 8.556 9.365 8.07 13.51l.206-.082c1.25-3.735 4.334-7.969 12.623-8.192l-.098 2.433h0l2.433.098a13.932 13.932 0 01-9.583 12.474M29.57 32.7c-3.49-1.828-8.543-2.786-14.676 2.794l1.756 1.687h0l-1.687 1.756a13.932 13.932 0 0015.552 2.36"/>
    <path d="M30.412 41.338a13.706 13.706 0 00-4.63 14.67l2.35-.706h0l.706 2.35c12.115-4.397 8.876-14.824 8.876-14.824l.722-.29s5.05 9.578 16.773 4.501l-1.015-2.225h0l2.183-1.118a13.854 13.854 0 00-13.5-7.374"/>
  </g>
  <g fill="none" stroke="#000" stroke-linecap="round" stroke-linejoin="round" stroke-width="2">
    <path d="M46.92 17.265a16.54 16.54 0 00-2.106-7.145l-2.143 1.362-1.333-2.256a16.542 16.542 0 00-5.293 5.243M14.258 30.41a16.54 16.54 0 01-3.43-6.613l2.489-.502-.601-2.55a16.54 16.54 0 017.449.116m17.472 35.637a16.54 16.54 0 005.956 4.475L44.5 58.6l2.416 1.014a16.54 16.54 0 001.114-7.366m9.982-13.486a16.54 16.54 0 005.453-5.076l-2.176-1.31 1.424-2.2a16.538 16.538 0 00-7.055-2.393M21.43 53.484a16.54 16.54 0 01-7.45.117l.663-2.452-2.55-.601a16.538 16.538 0 013.43-6.613M29.57 32.7c-3.223-2.653-6.532-7.306-3.538-15.334l2.311.985h0"/>
    <path d="M28.24 18.393h0l.985-2.312c7.72 3.717 8.556 9.365 8.07 13.51l.206-.082c1.25-3.735 4.334-7.969 12.623-8.192l-.098 2.433h0l2.433.098a13.932 13.932 0 01-9.583 12.474M29.57 32.7c-3.49-1.828-8.543-2.786-14.676 2.794l1.756 1.687h0l-1.687 1.756a13.932 13.932 0 0015.552 2.36"/>
    <path d="M30.412 41.338a13.706 13.706 0 00-4.63 14.67l2.35-.706h0l.706 2.35c12.115-4.397 8.876-14.824 8.876-14.824l.722-.29s5.05 9.578 16.773 4.501l-1.015-2.225h0l2.183-1.118a13.854 13.854 0 00-13.5-7.374"/>
  </g>
  <g fill="none" stroke="#D22F27" stroke-linecap="round" stroke-linejoin="round" stroke-width="2">
    <path d="M46.92 17.265a16.54 16.54 0 00-2.106-7.145l-2.143 1.362-1.333-2.256a16.542 16.542 0 00-5.293 5.243M14.258 30.41a16.54 16.54 0 01-3.43-6.613l2.489-.502-.601-2.55a16.54 16.54 0 017.449.116m17.472 35.637a16.54 16.54 0 005.956 4.475L44.5 58.6l2.416 1.014a16.54 16.54 0 001.114-7.366m9.982-13.486a16.54 16.54 0 005.453-5.076l-2.176-1.31 1.424-2.2a16.538 16.538 0 00-7.055-2.393M21.43 53.484a16.54 16.54 0 01-7.45.117l.663-2.452-2.55-.601a16.538 16.538 0 013.43-6.613M29.57 32.7c-3.223-2.653-6.532-7.306-3.538-15.334l2.311.985h0"/>
    <path d="M28.24 18.393h0l.985-2.312c7.72 3.717 8.556 9.365 8.07 13.51l.206-.082c1.25-3.735 4.334-7.969 12.623-8.192l-.098 2.433h0l2.433.098a13.932 13.932 0 01-9.583 12.474M29.57 32.7c-3.49-1.828-8.543-2.786-14.676 2.794l1.756 1.687h0l-1.687 1.756a13.932 13.932 0 0015.552 2.36"/>
    <path d="M30.412 41.338a13.706 13.706 0 00-4.63 14.67l2.35-.706h0l.706 2.35c12.115-4.397 8.876-14.824 8.876-14.824l.722-.29s5.05 9.578 16.773 4.501l-1.015-2.225h0l2.183-1.118a13.854 13.854 0 00-13.5-7.374"/>
  </g>
</svg>
