<svg viewBox="0 0 72 72" xmlns="http://www.w3.org/2000/svg">
  <path fill="#b3b3b3" d="M68 4v64H4V4h64m4-4H0v72h72V0z"/>
  <path fill="none" stroke="#00a5ff" stroke-miterlimit="10" stroke-width="0.1" d="M12.923 10.958h46.154A1.923 1.923 0 0161 12.881v46.154a1.923 1.923 0 01-1.923 1.923H12.923A1.923 1.923 0 0111 59.035V12.881a1.923 1.923 0 011.923-1.923z"/>
  <rect x="16" y="4" rx="2.254" width="40" height="64" fill="none" stroke="#00a5ff" stroke-miterlimit="10" stroke-width="0.1"/>
  <rect x="16" y="4" rx="2.254" width="40" height="64" transform="rotate(90 36 36)" fill="none" stroke="#00a5ff" stroke-miterlimit="10" stroke-width="0.1"/>
  <circle cx="36" cy="36" r="29" fill="none" stroke="#00a5ff" stroke-miterlimit="10" stroke-width="0.1"/>
  <g fill="none" stroke="#fff" stroke-linecap="round" stroke-linejoin="round" stroke-miterlimit="10" stroke-width="6">
    <path d="M48.665 34.784c.72-5.455-6.509-11.55-33.838-16.249 0 0 72.994-9.998 34.807 33.068"/>
    <path d="M35 30.403l4.944 10.018L51 42.028l-7 7.798 1.889 11.011L35 55.638l-9.889 5.2L27 49.825l-8-7.798 11.056-1.607z"/>
  </g>
  <path fill="#fcea2b" d="M14.827 18.535c-.336-.226 80.195-10.75 29.962 39.444L32.69 48.48s47.75-18.573-17.863-29.945z"/>
  <path fill="#f1b31c" d="M31.298 48.361l3.791 3.112c11.064-4.99 39.602-20.574-.447-33.844-10.641-.467-20.642.906-20.642.906 64.003 11.049 17.298 29.826 17.298 29.826z"/>
  <path fill="#fcea2b" d="M35 30.403l4.944 10.018L51 42.028l-8 7.798 1.889 11.011L35 55.638l-9.889 5.2L27 49.825l-8-7.798 11.056-1.607z"/>
  <g fill="none" stroke="#000" stroke-linecap="round" stroke-linejoin="round" stroke-miterlimit="10" stroke-width="2">
    <path d="M48.665 34.784c.72-5.455-6.509-11.55-33.838-16.249 0 0 72.994-9.998 34.807 33.068"/>
    <path d="M35 30.403l4.944 10.018L51 42.028l-7 7.798 1.889 11.011L35 55.638l-9.889 5.2L27 49.825l-8-7.798 11.056-1.607z"/>
  </g>
</svg>
