<svg viewBox="0 0 72 72" xmlns="http://www.w3.org/2000/svg">
  <path fill="#B3B3B3" d="M68 4v64H4V4h64m4-4H0v72h72V0z"/>
  <path fill="none" stroke="#00A5FF" stroke-miterlimit="10" stroke-width="0.1" d="M12.923 10.958h46.154c1.062 0 1.923.861 1.923 1.923v46.154a1.923 1.923 0 01-1.923 1.923H12.923A1.923 1.923 0 0111 59.035h0V12.881c0-1.062.861-1.923 1.923-1.923h0z"/>
  <path fill="none" stroke="#00A5FF" stroke-miterlimit="10" stroke-width="0.1" d="M18.254 4h35.492A2.254 2.254 0 0156 6.254v59.492A2.254 2.254 0 0153.746 68H18.254A2.254 2.254 0 0116 65.746V6.254A2.254 2.254 0 0118.254 4z"/>
  <path fill="none" stroke="#00A5FF" stroke-miterlimit="10" stroke-width="0.1" d="M68 18.254v35.492A2.254 2.254 0 0165.746 56H6.254A2.254 2.254 0 014 53.746V18.254A2.254 2.254 0 016.254 16h59.492A2.254 2.254 0 0168 18.254z"/>
  <circle cx="36" cy="36" r="29" fill="none" stroke="#00A5FF" stroke-miterlimit="10" stroke-width="0.1"/>
  <path fill="none" stroke="#fff" stroke-linecap="round" stroke-linejoin="round" stroke-miterlimit="10" stroke-width="6" d="M21.49 62.77c3.309 0 6-2.691 6-6s-2.691-6-6-6-6 2.691-6 6 2.691 6 6 6zm0-10c2.206 0 4 1.794 4 4s-1.794 4-4 4-4-1.794-4-4 1.794-4 4-4zm-9.13 14.01c1.728 0 3.135-1.406 3.135-3.135s-1.406-3.135-3.135-3.135-3.135 1.406-3.135 3.135 1.406 3.135 3.135 3.135zm0-4.27c.625 0 1.135.509 1.135 1.135s-.51 1.135-1.135 1.135-1.135-.509-1.135-1.135.51-1.135 1.135-1.135zm5.13-13.93a9.957 9.957 0 01-.841-8.229c-4.57-1.322-7.676-5.758-7.156-10.65.583-5.492 5.509-9.471 11-8.887.88.094 1.717.31 2.508.611 1.407-7.636 8.47-13.02 16.32-12.19 6.706.713 11.91 5.74 13.14 12.03.385-.004.774.009 1.167.05 5.492.584 9.47 5.51 8.887 11a9.978 9.978 0 01-4.558 7.363c.066.888.066 1.792-.032 2.71-.875 8.237-8.263 14.21-16.5 13.33a14.934 14.934 0 01-9.072-4.365 10.05 10.05 0 01-2.758 1.56"/>
  <g fill="#fff">
    <path d="M9.49 29.7c.584-5.492 5.509-9.471 11-8.887.881.094 1.717.31 2.508.611 1.407-7.636 8.471-13.02 16.32-12.19 6.705.713 11.91 5.74 13.14 12.03.386-.004.774.009 1.167.05 5.492.584 9.471 5.51 8.887 11a9.978 9.978 0 01-4.558 7.363c.066.888.066 1.792-.031 2.71-.876 8.237-8.263 14.21-16.5 13.33a14.934 14.934 0 01-9.072-4.365c-.827.659-1.757 2.187-2.758 2.56-5.451 1.262-10.61-.943-13.1-5.335-1.042-1.779-.545-3.895-.31-6.103.078-.74.242-1.449.469-2.126-4.57-1.322-7.676-5.758-7.156-10.65z"/>
    <path d="M21.49 52.77c2.206 0 4 1.794 4 4s-1.794 4-4 4-4-1.794-4-4 1.794-4 4-4zm-9.13 9.74c.625 0 1.135.509 1.135 1.135s-.51 1.135-1.135 1.135-1.135-.509-1.135-1.135.51-1.135 1.135-1.135z"/>
  </g>
  <path d="M21.49 62.77c3.309 0 6-2.691 6-6s-2.691-6-6-6-6 2.691-6 6 2.691 6 6 6zm0-10c2.206 0 4 1.794 4 4s-1.794 4-4 4-4-1.794-4-4 1.794-4 4-4zm-9.13 14.01c1.728 0 3.135-1.406 3.135-3.135s-1.406-3.135-3.135-3.135-3.135 1.406-3.135 3.135 1.406 3.135 3.135 3.135zm0-4.27c.625 0 1.135.509 1.135 1.135s-.51 1.135-1.135 1.135-1.135-.509-1.135-1.135.51-1.135 1.135-1.135z"/>
  <path fill="none" stroke="#000" stroke-linecap="round" stroke-linejoin="round" stroke-miterlimit="10" stroke-width="2" d="M17.49 48.58a9.957 9.957 0 01-.841-8.229c-4.57-1.322-7.676-5.758-7.156-10.65.583-5.492 5.509-9.471 11-8.887.88.094 1.717.31 2.508.611 1.407-7.636 8.47-13.02 16.32-12.19 6.706.713 11.91 5.74 13.14 12.03.385-.004.774.009 1.167.05 5.492.584 9.47 5.51 8.887 11a9.978 9.978 0 01-4.558 7.363c.066.888.066 1.792-.032 2.71-.875 8.237-8.263 14.21-16.5 13.33a14.934 14.934 0 01-9.072-4.365 10.05 10.05 0 01-2.758 1.56"/>
</svg>
