<svg viewBox="0 0 72 72" xmlns="http://www.w3.org/2000/svg">
  <path fill="#B3B3B3" d="M68 4v64H4V4h64m4-4H0v72h72V0z"/>
  <path fill="none" stroke="#00A5FF" stroke-miterlimit="10" stroke-width="0.1" d="M12.923 10.958h46.154c1.062 0 1.923.861 1.923 1.923v46.154a1.923 1.923 0 01-1.923 1.923H12.923A1.923 1.923 0 0111 59.035h0V12.881c0-1.062.861-1.923 1.923-1.923h0z"/>
  <path fill="none" stroke="#00A5FF" stroke-miterlimit="10" stroke-width="0.1" d="M18.254 4h35.492A2.254 2.254 0 0156 6.254v59.492A2.254 2.254 0 0153.746 68H18.254A2.254 2.254 0 0116 65.746V6.254A2.254 2.254 0 0118.254 4z"/>
  <path fill="none" stroke="#00A5FF" stroke-miterlimit="10" stroke-width="0.1" d="M68 18.254v35.492A2.254 2.254 0 0165.746 56H6.254A2.254 2.254 0 014 53.746V18.254A2.254 2.254 0 016.254 16h59.492A2.254 2.254 0 0168 18.254z"/>
  <circle cx="36" cy="36" r="29" fill="none" stroke="#00A5FF" stroke-miterlimit="10" stroke-width="0.1"/>
  <path fill="none" stroke="#fff" stroke-linecap="round" stroke-linejoin="round" stroke-miterlimit="10" stroke-width="6" d="M36 16.54c-8.293 0-16.662-4.314-16.662-4.314-.978-.504-1.327-.137-.776.815 0 0 5.914 10.214 17.438 10.126 11.524.088 17.438-10.126 17.438-10.126.55-.952.202-1.319-.776-.815 0 0-8.369 4.314-16.662 4.314zm0 38.92c8.293 0 16.662 4.314 16.662 4.314.978.504 1.327.137.776-.815 0 0-5.914-10.214-17.438-10.126-11.524-.088-17.438 10.126-17.438 10.126-.55.952-.202 1.319.776.815 0 0 8.369-4.314 16.662-4.314zM55.46 36c0-8.293 4.314-16.662 4.314-16.662.504-.978.137-1.327-.815-.776 0 0-10.214 5.914-10.126 17.438-.088 11.524 10.126 17.438 10.126 17.438.952.55 1.319.202.815-.776 0 0-4.314-8.369-4.314-16.662zm-38.92 0c0 8.293-4.314 16.662-4.314 16.662-.504.978-.137 1.327.815.776 0 0 10.214-5.914 10.126-17.438.088-11.524-10.126-17.438-10.126-17.438-.952-.55-1.319-.202-.815.776 0 0 4.314 8.369 4.314 16.662z"/>
  <path fill="#EA5A47" d="M36 16.54c-8.293 0-16.662-4.314-16.662-4.314-.978-.504-1.327-.137-.776.815 0 0 5.914 10.214 17.438 10.126 11.524.088 17.438-10.126 17.438-10.126.55-.952.202-1.319-.776-.815 0 0-8.369 4.314-16.662 4.314zm0 38.92c8.293 0 16.662 4.314 16.662 4.314.978.504 1.327.137.776-.815 0 0-5.914-10.214-17.438-10.126-11.524-.088-17.438 10.126-17.438 10.126-.55.952-.202 1.319.776.815 0 0 8.369-4.314 16.662-4.314zM55.46 36c0-8.293 4.314-16.662 4.314-16.662.504-.978.137-1.327-.815-.776 0 0-10.214 5.914-10.126 17.438-.088 11.524 10.126 17.438 10.126 17.438.952.55 1.319.202.815-.776 0 0-4.314-8.369-4.314-16.662zm-38.92 0c0 8.293-4.314 16.662-4.314 16.662-.504.978-.137 1.327.815.776 0 0 10.214-5.914 10.126-17.438.088-11.524-10.126-17.438-10.126-17.438-.952-.55-1.319-.202-.815.776 0 0 4.314 8.369 4.314 16.662z"/>
  <path fill="none" stroke="#000" stroke-linecap="round" stroke-miterlimit="10" stroke-width="2" d="M36 16.54c-8.293 0-16.662-4.314-16.662-4.314-.978-.504-1.327-.137-.776.815 0 0 5.914 10.214 17.438 10.126 11.524.088 17.438-10.126 17.438-10.126.55-.952.202-1.319-.776-.815 0 0-8.369 4.314-16.662 4.314zm0 38.92c8.293 0 16.662 4.314 16.662 4.314.978.504 1.327.137.776-.815 0 0-5.914-10.214-17.438-10.126-11.524-.088-17.438 10.126-17.438 10.126-.55.952-.202 1.319.776.815 0 0 8.369-4.314 16.662-4.314zM55.46 36c0-8.293 4.314-16.662 4.314-16.662.504-.978.137-1.327-.815-.776 0 0-10.214 5.914-10.126 17.438-.088 11.524 10.126 17.438 10.126 17.438.952.55 1.319.202.815-.776 0 0-4.314-8.369-4.314-16.662zm-38.92 0c0 8.293-4.314 16.662-4.314 16.662-.504.978-.137 1.327.815.776 0 0 10.214-5.914 10.126-17.438.088-11.524-10.126-17.438-10.126-17.438-.952-.55-1.319-.202-.815.776 0 0 4.314 8.369 4.314 16.662z"/>
</svg>
