<svg viewBox="0 0 72 72" xmlns="http://www.w3.org/2000/svg">
  <path fill="#b3b3b3" d="M68 4v64H4V4h64m4-4H0v72h72V0z"/>
  <path fill="none" stroke="#00a5ff" stroke-miterlimit="10" stroke-width="0.1" d="M12.923 10.958h46.154A1.923 1.923 0 0161 12.881v46.154a1.923 1.923 0 01-1.923 1.923H12.923A1.923 1.923 0 0111 59.035V12.881a1.923 1.923 0 011.923-1.923z"/>
  <rect x="16" y="4" rx="2.254" width="40" height="64" fill="none" stroke="#00a5ff" stroke-miterlimit="10" stroke-width="0.1"/>
  <rect x="16" y="4" rx="2.254" width="40" height="64" transform="rotate(90 36 36)" fill="none" stroke="#00a5ff" stroke-miterlimit="10" stroke-width="0.1"/>
  <circle cx="36" cy="36" r="29" fill="none" stroke="#00a5ff" stroke-miterlimit="10" stroke-width="0.1"/>
  <g fill="none" stroke="#fff" stroke-linecap="round" stroke-linejoin="round" stroke-miterlimit="10" stroke-width="6">
    <path d="M48.485 26.717l-2.36-3.983 4.1-2.293m-3.153 2.447a14.706 14.706 0 0110.822 11.384m-34.8 10.983l2.359 3.983-4.099 2.292m3.153-2.446A14.706 14.706 0 0113.685 37.7"/>
    <ellipse cx="33.214" cy="20.727" rx="3.526" ry="3.426"/>
    <path d="M27.956 13.411v17.012a.592.592 0 01-.598.407h-9.143a.72.72 0 01-.598-.407V13.237a.593.593 0 01.598-.406h9.143a.72.72 0 01.598.406z"/>
    <path d="M22.876 24.443v-2.264l1.554-2.962-1.554 2.962-1.494-2.962m.06 2.613h2.928m-9.442 9.058h-2.151a.557.557 0 01-.598-.58V13.352a.557.557 0 01.598-.58h2.151m15.717.058l10.398-.057a.557.557 0 01.598.58v16.954a.557.557 0 01-.598.58l-10.398-.057"/>
    <path d="M30.645 15.269h8.247v13.122h-8.247m-15.717.116V15.269M52.47 42.68h2.93a2.402 2.402 0 002.45 2.206h.239V55.28h-.24a2.402 2.402 0 00-2.45 2.207H52.47m-14.88-.058h-2.868a2.386 2.386 0 00-2.39-2.207h-.24V44.828h.24a2.346 2.346 0 002.39-2.206h2.63m12.728-1.045v17.186a.593.593 0 01-.598.406H40.34a.72.72 0 01-.597-.406v-17.36a.593.593 0 01.597-.407h9.144a.72.72 0 01.597.406z"/>
    <path d="M37.59 59.111h-6.693a.557.557 0 01-.597-.58V41.577a.557.557 0 01.597-.581h6.454m14.999 0h6.873a.557.557 0 01.598.58v16.955a.557.557 0 01-.598.58h-6.872"/>
    <path d="M51.753 45.757c1.733 1.045 2.869 2.497 2.869 4.123s-1.136 3.077-2.869 4.122m-14.402-.522a4.72 4.72 0 01-2.151-3.66 4.926 4.926 0 012.45-3.89m8.665 2.498a1.34 1.34 0 00-1.374-.871h0a1.23 1.23 0 00-1.375 1.103 1.267 1.267 0 001.375 1.103h0a1.23 1.23 0 011.374 1.103 1.311 1.311 0 01-1.374 1.104h0a1.34 1.34 0 01-1.375-.87m1.315-3.543v-1.045m0 6.445v-1.045"/>
  </g>
  <path fill="#ea5a47" d="M14.689 14.805h23.904v14.051H14.689z"/>
  <path fill="#d0cfce" d="M27.956 13.411v17.012a.592.592 0 01-.598.407h-9.143a.72.72 0 01-.598-.407V13.237a.593.593 0 01.598-.406h9.143a.72.72 0 01.598.406z"/>
  <ellipse cx="44.881" cy="49.88" rx="9.681" ry="5.806" fill="#5c9e31" stroke="#5c9e31" stroke-miterlimit="10" stroke-width="1.5"/>
  <path fill="#5c9e31" d="M58.088 40.59v.348h-1.853a.583.583 0 00-.597-.522H36.575a.583.583 0 00-.598.522h-5.319v.407H30.3V59.11h5.677a.634.634 0 00.598.581h19.063a.59.59 0 00.597-.58h3.586V40.59zm0 14.632h-.24a2.402 2.402 0 00-2.45 2.206H34.723a2.386 2.386 0 00-2.39-2.206h-.24V44.828h.24a2.346 2.346 0 002.39-2.206H55.34a2.402 2.402 0 002.45 2.206h.239v10.393z"/>
  <path fill="#5c9e31" d="M35.917 56.847h18.585v1.684H35.917zm-1.494-15.328h18.585v1.684H34.423z"/>
  <path fill="#d0cfce" d="M50.08 41.577v17.186a.593.593 0 01-.598.406H40.34a.72.72 0 01-.597-.406v-17.36a.593.593 0 01.597-.407h9.144a.72.72 0 01.597.406z"/>
  <ellipse cx="33.214" cy="20.727" rx="3.526" ry="3.426" fill="#fff"/>
  <g fill="none" stroke="#000" stroke-width="1.5">
    <path stroke-linecap="round" stroke-linejoin="round" d="M48.485 26.717l-2.36-3.983 4.1-2.293m-3.153 2.447a14.706 14.706 0 0110.822 11.384m-34.8 10.983l2.359 3.983-4.099 2.292m3.153-2.446A14.706 14.706 0 0113.685 37.7"/>
    <ellipse cx="33.214" cy="20.727" rx="3.526" ry="3.426" stroke-miterlimit="10"/>
    <path stroke-linecap="round" stroke-linejoin="round" d="M27.956 13.411v17.012a.592.592 0 01-.598.407h-9.143a.72.72 0 01-.598-.407V13.237a.593.593 0 01.598-.406h9.143a.72.72 0 01.598.406z"/>
    <path stroke-linecap="round" stroke-linejoin="round" d="M22.876 24.443v-2.264l1.554-2.962-1.554 2.962-1.494-2.962m.06 2.613h2.928m-9.442 9.058h-2.151a.557.557 0 01-.598-.58V13.352a.557.557 0 01.598-.58h2.151m15.717.058l10.398-.057a.557.557 0 01.598.58v16.954a.557.557 0 01-.598.58l-10.398-.057"/>
    <path stroke-linecap="round" stroke-linejoin="round" d="M30.645 15.269h8.247v13.122h-8.247m-15.717.116V15.269M52.47 42.68h2.93a2.402 2.402 0 002.45 2.206h.239V55.28h-.24a2.402 2.402 0 00-2.45 2.207H52.47m-14.88-.058h-2.868a2.386 2.386 0 00-2.39-2.207h-.24V44.828h.24a2.346 2.346 0 002.39-2.206h2.63m12.728-1.045v17.186a.593.593 0 01-.598.406H40.34a.72.72 0 01-.597-.406v-17.36a.593.593 0 01.597-.407h9.144a.72.72 0 01.597.406z"/>
    <path stroke-linecap="round" stroke-linejoin="round" d="M37.59 59.111h-6.693a.557.557 0 01-.597-.58V41.577a.557.557 0 01.597-.581h6.454m14.999 0h6.873a.557.557 0 01.598.58v16.955a.557.557 0 01-.598.58h-6.872"/>
    <path stroke-linecap="round" stroke-miterlimit="10" d="M51.753 45.757c1.733 1.045 2.869 2.497 2.869 4.123s-1.136 3.077-2.869 4.122m-14.402-.522a4.72 4.72 0 01-2.151-3.66 4.926 4.926 0 012.45-3.89"/>
    <path stroke-linecap="round" stroke-linejoin="round" d="M46.315 48.428a1.34 1.34 0 00-1.374-.871h0a1.23 1.23 0 00-1.375 1.103 1.267 1.267 0 001.375 1.103h0a1.23 1.23 0 011.374 1.103 1.311 1.311 0 01-1.374 1.104h0a1.34 1.34 0 01-1.375-.87m1.315-3.543v-1.045m0 6.445v-1.045"/>
  </g>
</svg>
