<svg viewBox="0 0 72 72" xmlns="http://www.w3.org/2000/svg">
  <path fill="#b3b3b3" d="M68 4v64H4V4h64m4-4H0v72h72V0z"/>
  <path fill="none" stroke="#00a5ff" stroke-miterlimit="10" stroke-width="0.1" d="M12.923 10.958h46.154A1.923 1.923 0 0161 12.881v46.154a1.923 1.923 0 01-1.923 1.923H12.923A1.923 1.923 0 0111 59.035V12.881a1.923 1.923 0 011.923-1.923z"/>
  <rect x="16" y="4" rx="2.254" width="40" height="64" fill="none" stroke="#00a5ff" stroke-miterlimit="10" stroke-width="0.1"/>
  <rect x="16" y="4" rx="2.254" width="40" height="64" transform="rotate(90 36 36)" fill="none" stroke="#00a5ff" stroke-miterlimit="10" stroke-width="0.1"/>
  <circle cx="36" cy="36" r="29" fill="none" stroke="#00a5ff" stroke-miterlimit="10" stroke-width="0.1"/>
  <g fill="none" stroke="#fff" stroke-linecap="round" stroke-linejoin="round" stroke-miterlimit="10" stroke-width="6">
    <path d="M58.65 52.754L48.008 61.36 13.467 18.645l10.642-8.606zM47.49 55.073l1.551-1.262m-4.075-1.841l1.551-1.262m-4.075-1.841l1.551-1.262m-6.599-4.945l1.552-1.262m-4.076-1.841l1.552-1.262m-4.076-1.841l1.552-1.262m-4.075-1.841l1.551-1.262m-6.599-4.945l1.551-1.262m-4.075-1.841l1.551-1.262m-4.075-1.841l1.552-1.262M39.812 45.85l2.648-2.154M27.193 30.334l2.647-2.154"/>
  </g>
  <path fill="#D0CFCE" d="M13.563 18.734l34.629 42.242 10.584-8.17-34.723-42.613-10.49 8.54z"/>
  <path fill="#9B9B9A" d="M23.888 10.428l-2.601 2.03 34.561 42.679 2.42-2.547z"/>
  <path fill="#d0cfce" d="M19.727 20.938l1.552-1.262"/>
  <g fill="none" stroke="#000" stroke-linecap="round" stroke-linejoin="round" stroke-miterlimit="10" stroke-width="2">
    <path d="M58.65 52.754L48.008 61.36 13.467 18.645l10.642-8.606zM47.49 55.073l1.551-1.262m-4.075-1.841l1.551-1.262m-4.075-1.841l1.551-1.262m-6.599-4.945l1.552-1.262m-4.076-1.841l1.552-1.262m-4.076-1.841l1.552-1.262m-4.075-1.841l1.551-1.262m-6.599-4.945l1.551-1.262m-4.075-1.841l1.551-1.262m-4.075-1.841l1.552-1.262M39.812 45.85l2.648-2.154M27.193 30.334l2.647-2.154"/>
  </g>
</svg>
