<svg viewBox="0 0 72 72" xmlns="http://www.w3.org/2000/svg">
  <path fill="#b3b3b3" d="M68 4v64H4V4h64m4-4H0v72h72V0z"/>
  <path fill="none" stroke="#00a5ff" stroke-miterlimit="10" stroke-width="0.1" d="M12.923 10.958h46.154A1.923 1.923 0 0161 12.881v46.154a1.923 1.923 0 01-1.923 1.923H12.923A1.923 1.923 0 0111 59.035V12.881a1.923 1.923 0 011.923-1.923z"/>
  <rect x="16" y="4" rx="2.254" width="40" height="64" fill="none" stroke="#00a5ff" stroke-miterlimit="10" stroke-width="0.1"/>
  <rect x="16" y="4" rx="2.254" width="40" height="64" transform="rotate(90 36 36)" fill="none" stroke="#00a5ff" stroke-miterlimit="10" stroke-width="0.1"/>
  <circle cx="36" cy="36" r="29" fill="none" stroke="#00a5ff" stroke-miterlimit="10" stroke-width="0.1"/>
  <g fill="none" stroke="#fff" stroke-linecap="round" stroke-linejoin="round" stroke-miterlimit="10" stroke-width="6">
    <path d="M11 16.91l4.998-5h43.004c.55 0 .998.446.998.998V55.91a.999.999 0 01-.999.998"/>
    <path d="M55.002 60.91H11.998a.999.999 0 01-.998-1V16.909c0-.552.447-.999.999-.999H55c.552 0 .999.447.999.999V59.91a.999.999 0 01-.998.998z"/>
    <path d="M47.358 29.799h-4v7h4m-4-3.501h3m-26.716 3.5v-7l5 7v-7m6.216 7h0a2.5 2.5 0 01-2.5-2.5v-2a2.5 2.5 0 012.5-2.5h0a2.5 2.5 0 012.5 2.5v2a2.5 2.5 0 01-2.5 2.5zm5.5-6.969h4m-2 0v7"/>
  </g>
  <path fill="#FFF" d="M11 57.697h49V11.909H15.998l-4 4z"/>
  <path fill="#9b9b9a" d="M55.002 60.91H11.998a.999.999 0 01-.998-1V16.909c0-.552.447-.999.999-.999H55c.552 0 .999.447.999.999V59.91a.999.999 0 01-.998.998z"/>
  <g fill="none" stroke="#000" stroke-linecap="round" stroke-linejoin="round" stroke-miterlimit="10" stroke-width="2">
    <path d="M11 16.91l4.998-5h43.004c.55 0 .998.446.998.998V55.91a.999.999 0 01-.999.998"/>
    <path d="M55.002 60.91H11.998a.999.999 0 01-.998-1V16.909c0-.552.447-.999.999-.999H55c.552 0 .999.447.999.999V59.91a.999.999 0 01-.998.998z"/>
    <path d="M47.358 29.799h-4v7h4m-4-3.501h3m-26.716 3.5v-7l5 7v-7m6.216 7h0a2.5 2.5 0 01-2.5-2.5v-2a2.5 2.5 0 012.5-2.5h0a2.5 2.5 0 012.5 2.5v2a2.5 2.5 0 01-2.5 2.5zm5.5-6.969h4m-2 0v7"/>
  </g>
</svg>
