<svg viewBox="0 0 72 72" xmlns="http://www.w3.org/2000/svg">
  <path fill="#b3b3b3" d="M68 4v64H4V4h64m4-4H0v72h72V0z"/>
  <path fill="none" stroke="#00a5ff" stroke-miterlimit="10" stroke-width="0.1" d="M12.923 10.958h46.154A1.923 1.923 0 0161 12.881v46.154a1.923 1.923 0 01-1.923 1.923H12.923A1.923 1.923 0 0111 59.035V12.881a1.923 1.923 0 011.923-1.923z"/>
  <rect x="16" y="4" rx="2.254" width="40" height="64" fill="none" stroke="#00a5ff" stroke-miterlimit="10" stroke-width="0.1"/>
  <rect x="16" y="4" rx="2.254" width="40" height="64" transform="rotate(90 36 36)" fill="none" stroke="#00a5ff" stroke-miterlimit="10" stroke-width="0.1"/>
  <circle cx="36" cy="36" r="29" fill="none" stroke="#00a5ff" stroke-miterlimit="10" stroke-width="0.1"/>
  <g fill="none" stroke="#fff" stroke-linecap="round" stroke-linejoin="round" stroke-miterlimit="10" stroke-width="6">
    <path d="M38.07 47.191l2.386 2.386-3.464 1.28zM22.322 19.875h27m-27 8h25.6m-25.6 8h17.109m-17.109 8h12.206m-12.206 8h10.146"/>
    <path d="M38.07 47.191l2.386 2.386-3.464 1.28zm2.622 2.4l5.664-1.967 15.59-15.59-6.454-6.454-15.59 15.59-1.974 5.671zm17.394-26.605l1.555-1.555 6.454 6.454-1.632 1.632M40.279 40.793l6.454 6.454"/>
    <path d="M37.932 46.828l-1.383 4.149 4.159-1.392m10.594-19.428l6.202 6.202"/>
    <path d="M55.322 44.228v15.647h-39v-48h39v8.456"/>
  </g>
  <path fill="#FFF" d="M16.405 11.378H55.97v49.066H16.405z"/>
  <path fill="#f4aa41" d="M39.931 40.222l11.294-11.294 7.376 7.376-11.198 11.198"/>
  <path fill="#a57939" d="M37.941 46.819l1.961-5.649 6.454 6.454-5.648 1.96"/>
  <path fill="#EA5A47" d="M54.609 25.052l3.978-3.979 7.859 7.859-3.945 3.945"/>
  <path fill="#d0cfce" d="M50.494 29.66l4.608-4.608 7.375 7.375-4.568 4.569"/>
  <path d="M38.07 47.191l2.386 2.386-3.464 1.28z"/>
  <path fill="none" stroke="#000" stroke-linecap="round" stroke-linejoin="round" stroke-miterlimit="10" stroke-width="2" d="M22.322 19.875h27m-27 8h25.6m-25.6 8h17.109m-17.109 8h12.206m-12.206 8h10.146"/>
  <path d="M38.07 47.191l2.386 2.386-3.464 1.28z"/>
  <path fill="none" stroke="#000" stroke-linecap="round" stroke-linejoin="round" stroke-miterlimit="10" stroke-width="2" d="M40.692 49.591l5.664-1.967 15.59-15.59-6.454-6.454-15.59 15.59-1.974 5.671zm17.394-26.605l1.555-1.555 6.454 6.454-1.632 1.632M40.279 40.793l6.454 6.454"/>
  <path fill="none" stroke="#000" stroke-linecap="round" stroke-linejoin="round" stroke-miterlimit="10" stroke-width="2" d="M37.932 46.828l-1.383 4.149 4.159-1.392m10.594-19.428l6.202 6.202"/>
  <path fill="none" stroke="#000" stroke-linecap="round" stroke-linejoin="round" stroke-miterlimit="10" stroke-width="2.021" d="M55.322 44.228v15.647h-39v-48h39v8.456"/>
</svg>
