<svg viewBox="0 0 72 72" xmlns="http://www.w3.org/2000/svg">
  <path fill="#b3b3b3" d="M68 4v64H4V4h64m4-4H0v72h72V0z"/>
  <path fill="none" stroke="#00a5ff" stroke-miterlimit="10" stroke-width="0.1" d="M12.923 10.958h46.154A1.923 1.923 0 0161 12.881v46.154a1.923 1.923 0 01-1.923 1.923H12.923A1.923 1.923 0 0111 59.035V12.881a1.923 1.923 0 011.923-1.923z"/>
  <rect x="16" y="4" rx="2.254" width="40" height="64" fill="none" stroke="#00a5ff" stroke-miterlimit="10" stroke-width="0.1"/>
  <rect x="16" y="4" rx="2.254" width="40" height="64" transform="rotate(90 36 36)" fill="none" stroke="#00a5ff" stroke-miterlimit="10" stroke-width="0.1"/>
  <circle cx="36" cy="36" r="29" fill="none" stroke="#00a5ff" stroke-miterlimit="10" stroke-width="0.1"/>
  <g fill="none" stroke="#fff" stroke-linecap="round" stroke-linejoin="round" stroke-miterlimit="10" stroke-width="6">
    <path d="M60.998 12l-5.999 8 5.999 8-5.999 8 .007-.002L61 44l-6.003 7.996L60.991 60M11 60l5.998-8-5.999-8 5.999-8-.007.002L10.997 28 17 20.004 11.006 12M49.79 60H22.21a.836.836 0 01-.835-.836v-46.8c0-.461.374-.835.836-.835h27.578c.462 0 .836.374.836.836v46.8a.836.836 0 01-.836.835z"/>
    <path d="M46.057 51.84H25.943a.807.807 0 01-.807-.808V17.547c0-.446.361-.807.807-.807h20.114c.446 0 .807.361.807.807v33.485a.807.807 0 01-.807.808z"/>
    <circle cx="36" cy="56.018" r="1.671"/>
    <path d="M31.821 14.233h8.358-8.358z"/>
  </g>
  <path fill="#9b9b9a" d="M49.79 60H22.21a.836.836 0 01-.835-.836v-46.8c0-.461.374-.835.836-.835h27.578c.462 0 .836.374.836.836v46.8a.836.836 0 01-.836.835z"/>
  <path fill="#d0cfce" d="M46.057 51.84H25.943a.807.807 0 01-.807-.808V17.547c0-.446.361-.807.807-.807h20.114c.446 0 .807.361.807.807v33.485a.807.807 0 01-.807.808z"/>
  <path fill="#FFF" d="M31.821 14.233h8.358-8.358z"/>
  <path fill="none" stroke="#000" stroke-linecap="round" stroke-linejoin="round" stroke-miterlimit="10" stroke-width="2" d="M60.998 12l-5.999 8 5.999 8-5.999 8 .007-.002L61 44l-6.003 7.996L60.991 60M11 60l5.998-8-5.999-8 5.999-8-.007.002L10.997 28 17 20.004 11.006 12M49.79 60H22.21a.836.836 0 01-.835-.836v-46.8c0-.461.374-.835.836-.835h27.578c.462 0 .836.374.836.836v46.8a.836.836 0 01-.836.835z"/>
  <path fill="none" stroke="#000" stroke-linecap="round" stroke-linejoin="round" stroke-miterlimit="10" stroke-width="2" d="M46.057 51.84H25.943a.807.807 0 01-.807-.808V17.547c0-.446.361-.807.807-.807h20.114c.446 0 .807.361.807.807v33.485a.807.807 0 01-.807.808z"/>
  <circle cx="36" cy="56.018" r="1.671"/>
  <path fill="none" stroke="#000" stroke-linecap="round" stroke-linejoin="round" stroke-miterlimit="10" stroke-width="2" d="M31.821 14.233h8.358-8.358z"/>
</svg>
