<svg viewBox="0 0 72 72" xmlns="http://www.w3.org/2000/svg">
  <path fill="#b3b3b3" d="M68 4v64H4V4h64m4-4H0v72h72V0z"/>
  <path fill="none" stroke="#00a5ff" stroke-miterlimit="10" stroke-width="0.1" d="M12.923 10.958h46.154A1.923 1.923 0 0161 12.881v46.154a1.923 1.923 0 01-1.923 1.923H12.923A1.923 1.923 0 0111 59.035V12.881a1.923 1.923 0 011.923-1.923z"/>
  <rect x="16" y="4" rx="2.254" width="40" height="64" fill="none" stroke="#00a5ff" stroke-miterlimit="10" stroke-width="0.1"/>
  <rect x="16" y="4" rx="2.254" width="40" height="64" transform="rotate(90 36 36)" fill="none" stroke="#00a5ff" stroke-miterlimit="10" stroke-width="0.1"/>
  <circle cx="36" cy="36" r="29" fill="none" stroke="#00a5ff" stroke-miterlimit="10" stroke-width="0.1"/>
  <g fill="none" stroke="#fff" stroke-linecap="round" stroke-linejoin="round" stroke-miterlimit="10" stroke-width="6">
    <path d="M5 16h62v40H5zm45.923 50.852H22.077"/>
    <circle cx="36.5" cy="51" r="2"/>
    <path d="M9 20h54v26H9zm29.5 39.968v6.386m-4-6.386v6.386"/>
  </g>
  <path fill="#9B9B9A" d="M5.263 15.737L4.5 56h62.173L67 16l-61.737-.263z"/>
  <path fill="#3F3F3F" d="M9 20h54v26H9z"/>
  <path fill="#FFF" d="M63 46V20l-14.674-.324 8.902 26.06z"/>
  <path fill="#9B9B9A" d="M34.272 60.958l-.21 5.894 4.544.106.195-6.689s-.854-1.3-.301-1.3h-4c.553 0-.228 1.989-.228 1.989z"/>
  <path fill="none" stroke="#000" stroke-linecap="round" stroke-linejoin="round" stroke-miterlimit="10" stroke-width="2" d="M5 16h62v40H5z"/>
  <path stroke="#000" stroke-linecap="round" stroke-linejoin="round" stroke-miterlimit="10" stroke-width="2" d="M50.923 66.852H22.077"/>
  <circle cx="36.5" cy="51" r="2"/>
  <path fill="none" stroke="#000" stroke-linecap="round" stroke-linejoin="round" stroke-miterlimit="10" stroke-width="2" d="M9 20h54v26H9zm29.5 39.968v6.386m-4-6.386v6.386"/>
</svg>
