<svg viewBox="0 0 72 72" xmlns="http://www.w3.org/2000/svg">
  <path fill="#b3b3b3" d="M68 4v64H4V4h64m4-4H0v72h72V0z"/>
  <path fill="none" stroke="#00a5ff" stroke-miterlimit="10" stroke-width="0.1" d="M12.923 10.958h46.154A1.923 1.923 0 0161 12.881v46.154a1.923 1.923 0 01-1.923 1.923H12.923A1.923 1.923 0 0111 59.035V12.881a1.923 1.923 0 011.923-1.923z"/>
  <rect x="16" y="4" rx="2.254" width="40" height="64" fill="none" stroke="#00a5ff" stroke-miterlimit="10" stroke-width="0.1"/>
  <rect x="16" y="4" rx="2.254" width="40" height="64" transform="rotate(90 36 36)" fill="none" stroke="#00a5ff" stroke-miterlimit="10" stroke-width="0.1"/>
  <circle cx="36" cy="36" r="29" fill="none" stroke="#00a5ff" stroke-miterlimit="10" stroke-width="0.1"/>
  <g fill="none" stroke="#fff" stroke-linecap="round" stroke-linejoin="round" stroke-miterlimit="10" stroke-width="6">
    <path d="M54.07 59H27.68a.805.805 0 01-.805-.805v-45.39c0-.445.36-.805.805-.805h26.39c.444 0 .805.36.805.805v45.39c0 .444-.36.805-.805.805z"/>
    <path d="M50.594 52.053H31.156a.781.781 0 01-.781-.781V18.834c0-.431.35-.781.781-.781h19.438c.431 0 .78.35.78.781v32.438a.78.78 0 01-.78.781z"/>
    <circle cx="41" cy="55.5" r="1.5"/>
    <path d="M37 15h8-8zM16.53 42.751L17.64 44l7.86-8.497L17.635 27l-1.105 1.24 5.165 5.55c.147.157.17.443.052.638-.065.106-.163.168-.265.168H6.5v1.813h14.967c.189 0 .341.203.341.453a.522.522 0 01-.127.353L16.53 42.75z"/>
  </g>
  <path fill="#9B9B9A" d="M54.07 59H27.68a.805.805 0 01-.805-.805v-45.39c0-.445.36-.805.805-.805h26.39c.444 0 .805.36.805.805v45.39c0 .444-.36.805-.805.805z"/>
  <path fill="#D0CFCE" d="M50.594 52.053H31.156a.781.781 0 01-.781-.781V18.834c0-.431.35-.781.781-.781h19.438c.431 0 .78.35.78.781v32.438a.78.78 0 01-.78.781z"/>
  <path fill="#FFF" d="M37 15h8-8z"/>
  <g stroke="#000" stroke-miterlimit="10">
    <path fill="none" stroke-linecap="round" stroke-linejoin="round" stroke-width="2" d="M54.07 59H27.68a.805.805 0 01-.805-.805v-45.39c0-.445.36-.805.805-.805h26.39c.444 0 .805.36.805.805v45.39c0 .444-.36.805-.805.805z"/>
    <path fill="none" stroke-linecap="round" stroke-linejoin="round" stroke-width="2" d="M50.594 52.053H31.156a.781.781 0 01-.781-.781V18.834c0-.431.35-.781.781-.781h19.438c.431 0 .78.35.78.781v32.438a.78.78 0 01-.78.781z"/>
    <circle cx="41" cy="55.5" r="1.5"/>
    <path fill="none" stroke-linecap="round" stroke-linejoin="round" stroke-width="2" d="M37 15h8-8z"/>
    <path d="M16.53 42.751L17.64 44l7.86-8.497L17.635 27l-1.105 1.24 5.165 5.55c.147.157.17.443.052.638-.065.106-.163.168-.265.168H6.5v1.813h14.967c.189 0 .341.203.341.453a.522.522 0 01-.127.353L16.53 42.75z"/>
  </g>
</svg>
