<svg viewBox="0 0 72 72" xmlns="http://www.w3.org/2000/svg">
  <path fill="#b3b3b3" d="M68 4v64H4V4h64m4-4H0v72h72V0z"/>
  <path fill="none" stroke="#00a5ff" stroke-miterlimit="10" stroke-width="0.1" d="M12.923 10.958h46.154A1.923 1.923 0 0161 12.881v46.154a1.923 1.923 0 01-1.923 1.923H12.923A1.923 1.923 0 0111 59.035V12.881a1.923 1.923 0 011.923-1.923z"/>
  <rect x="16" y="4" rx="2.254" width="40" height="64" fill="none" stroke="#00a5ff" stroke-miterlimit="10" stroke-width="0.1"/>
  <rect x="16" y="4" rx="2.254" width="40" height="64" transform="rotate(90 36 36)" fill="none" stroke="#00a5ff" stroke-miterlimit="10" stroke-width="0.1"/>
  <circle cx="36" cy="36" r="29" fill="none" stroke="#00a5ff" stroke-miterlimit="10" stroke-width="0.1"/>
  <g fill="none" stroke="#fff" stroke-linecap="round" stroke-linejoin="round" stroke-miterlimit="10" stroke-width="6">
    <path d="M33.013 23.093V8.21a3.307 3.307 0 00-3.307-3.307h0a3.307 3.307 0 00-3.307 3.307h0v14.883m23.151 0V8.21a3.307 3.307 0 00-3.307-3.307h0a3.307 3.307 0 00-3.307 3.307h0v14.883m-23.501.096v11.48c0 10.046 8.144 18.19 18.19 18.19s18.19-8.144 18.19-18.19v-11.48h-36.38z"/>
    <path d="M31.011 51.81L32.665 58h9.921l1.654-6.166m-10.622 14.25V58h8.063v8.084"/>
  </g>
  <path fill="#9b9b9a" d="M30.644 51.106a1 1 0 011.224.708l1.455 5.45h8.387l1.455-5.427a1 1 0 011.225-.707"/>
  <path fill="#3F3F3F" d="M33.013 24.105a1 1 0 01-1-1V8.22a2.307 2.307 0 10-4.615 0v14.883a1 1 0 01-1 1m23.152.002a1 1 0 01-1-1V8.22a2.307 2.307 0 00-4.614 0v14.883a1 1 0 01-1 1"/>
  <path fill="#d0cfce" d="M47.601 24.189H20.435v10.48c-.013 9.48 7.663 17.177 17.144 17.189 3.543.005 7-1.087 9.898-3.124.593-8.17.634-16.37.124-24.546z"/>
  <path fill="#9b9b9a" d="M47.601 24.189a182.29 182.29 0 01-.124 24.546 17.171 17.171 0 007.339-14.066V24.19h-7.215z"/>
  <path fill="#d0cfce" d="M41.657 67.097a1 1 0 01-1-1v-7.083h-6.063v7.083a1 1 0 01-1 1"/>
  <g fill="none" stroke="#000" stroke-linecap="round" stroke-width="2">
    <path stroke-miterlimit="10" d="M33.013 23.093V8.21a3.307 3.307 0 00-3.307-3.307h0a3.307 3.307 0 00-3.307 3.307h0v14.883m23.151 0V8.21a3.307 3.307 0 00-3.307-3.307h0a3.307 3.307 0 00-3.307 3.307h0v14.883"/>
    <path stroke-linejoin="round" d="M19.435 23.189v11.48c0 10.046 8.144 18.19 18.19 18.19s18.19-8.144 18.19-18.19v-11.48h-36.38z"/>
    <path stroke-linejoin="round" d="M31.011 51.81L32.665 58h9.921l1.654-6.166m-10.622 14.25V58h8.063v8.084"/>
  </g>
</svg>
