<svg viewBox="0 0 72 72" xmlns="http://www.w3.org/2000/svg">
  <path fill="#b3b3b3" d="M68 4v64H4V4h64m4-4H0v72h72V0z"/>
  <rect x="11" y="10.958" rx="1.923" ry="1.923" width="50" height="50" fill="none" stroke="#00a5ff" stroke-miterlimit="10" stroke-width="0.1"/>
  <rect x="16" y="4" rx="2.254" ry="2.254" width="40" height="64" fill="none" stroke="#00a5ff" stroke-miterlimit="10" stroke-width="0.1"/>
  <rect x="16" y="4" rx="2.254" ry="2.254" width="40" height="64" transform="rotate(90 36 36)" fill="none" stroke="#00a5ff" stroke-miterlimit="10" stroke-width="0.1"/>
  <circle cx="36" cy="36" r="29" fill="none" stroke="#00a5ff" stroke-miterlimit="10" stroke-width="0.1"/>
  <path fill="none" stroke="#fff" stroke-linecap="round" stroke-linejoin="round" stroke-miterlimit="10" stroke-width="6" d="M35.991 14L23 28.516h9.527L32.69 40h6.793l-.027-11.484h9.526L35.991 14m.339 41.47h0a3.571 3.571 0 01-3.571-3.571V49.04a3.571 3.571 0 013.571-3.571h0a3.571 3.571 0 013.571 3.571v2.86a3.571 3.571 0 01-3.571 3.571zM24.143 45.5h5.714M27 45.5v10m16.142-.03v-10h3.813a2.49 2.49 0 012.49 2.49h0a2.49 2.49 0 01-2.49 2.491h-3.813"/>
  <path fill="#3f3f3f" d="M35.991 14L23 28.516h9.527L32.69 40h6.793l-.027-11.484h9.526L35.991 14"/>
  <path fill="none" stroke="#000" stroke-linecap="round" stroke-linejoin="round" stroke-width="2" d="M35.991 14L23 28.516h9.527L32.69 40h6.793l-.027-11.484h9.526L35.991 14m.339 41.47h0a3.571 3.571 0 01-3.571-3.571V49.04a3.571 3.571 0 013.571-3.571h0a3.571 3.571 0 013.571 3.571v2.86a3.571 3.571 0 01-3.571 3.571zM24.143 45.5h5.714M27 45.5v10m16.142-.03v-10h3.813a2.49 2.49 0 012.49 2.49h0a2.49 2.49 0 01-2.49 2.491h-3.813"/>
</svg>
