<svg viewBox="0 0 72 72" xmlns="http://www.w3.org/2000/svg">
  <path fill="#b3b3b3" d="M68 4v64H4V4h64m4-4H0v72h72V0z"/>
  <path fill="none" stroke="#00a5ff" stroke-miterlimit="10" stroke-width="0.1" d="M12.923 10.958h46.154A1.923 1.923 0 0161 12.881v46.154a1.923 1.923 0 01-1.923 1.923H12.923A1.923 1.923 0 0111 59.035V12.881a1.923 1.923 0 011.923-1.923z"/>
  <rect x="16" y="4" rx="2.254" width="40" height="64" fill="none" stroke="#00a5ff" stroke-miterlimit="10" stroke-width="0.1"/>
  <rect x="16" y="4" rx="2.254" width="40" height="64" transform="rotate(90 36 36)" fill="none" stroke="#00a5ff" stroke-miterlimit="10" stroke-width="0.1"/>
  <circle cx="36" cy="36" r="29" fill="none" stroke="#00a5ff" stroke-miterlimit="10" stroke-width="0.1"/>
  <g fill="none" stroke="#fff" stroke-linecap="round" stroke-linejoin="round" stroke-miterlimit="10" stroke-width="6">
    <path d="M59.035 60h-46.07a.968.968 0 01-.965-.965v-46.07c0-.53.434-.965.965-.965h46.07c.53 0 .965.434.965.965v46.07c0 .53-.434.965-.965.965z"/>
    <path d="M39.49 24.923a3.073 3.073 0 013.01-2.453h0c.848 0 1.616.344 2.172.9.865.864.785 2.301-.026 3.216l-5.218 5.884h6.144M27.709 46.474c.263 1.14 1.4 1.996 2.762 1.996h0c1.558 0 2.82-1.12 2.82-2.5s-1.262-2.5-2.82-2.5c1.558 0 2.82-1.12 2.82-2.5s-1.262-2.5-2.82-2.5h0c-1.362 0-2.5.857-2.762 1.996m.407-15.922l2.768-2.074v10m12.407 6l-3.716 8.4h5.85m-.964-3.096v4.696"/>
  </g>
  <path fill="#d0cfce" d="M59.035 60h-46.07a.968.968 0 01-.965-.965v-46.07c0-.53.434-.965.965-.965h46.07c.53 0 .965.434.965.965v46.07c0 .53-.434.965-.965.965z"/>
  <g fill="none" stroke="#000" stroke-linejoin="round" stroke-miterlimit="10" stroke-width="2">
    <path d="M59.035 60h-46.07a.968.968 0 01-.965-.965v-46.07c0-.53.434-.965.965-.965h46.07c.53 0 .965.434.965.965v46.07c0 .53-.434.965-.965.965z"/>
    <path stroke-linecap="round" d="M39.49 24.923a3.073 3.073 0 013.01-2.453h0c.848 0 1.616.344 2.172.9.865.864.785 2.301-.026 3.216l-5.218 5.884h6.144M27.709 46.474c.263 1.14 1.4 1.996 2.762 1.996h0c1.558 0 2.82-1.12 2.82-2.5s-1.262-2.5-2.82-2.5c1.558 0 2.82-1.12 2.82-2.5s-1.262-2.5-2.82-2.5h0c-1.362 0-2.5.857-2.762 1.996m.407-15.922l2.768-2.074v10m12.407 6l-3.716 8.4h5.85m-.964-3.096v4.696"/>
  </g>
</svg>
