<svg viewBox="0 0 72 72" xmlns="http://www.w3.org/2000/svg">
  <path fill="#b3b3b3" d="M68 4v64H4V4h64m4-4H0v72h72V0z"/>
  <path fill="none" stroke="#00a5ff" stroke-miterlimit="10" stroke-width="0.1" d="M12.923 10.958h46.154A1.923 1.923 0 0161 12.881v46.154a1.923 1.923 0 01-1.923 1.923H12.923A1.923 1.923 0 0111 59.035V12.881a1.923 1.923 0 011.923-1.923z"/>
  <rect x="16" y="4" rx="2.254" width="40" height="64" fill="none" stroke="#00a5ff" stroke-miterlimit="10" stroke-width="0.1"/>
  <rect x="16" y="4" rx="2.254" width="40" height="64" transform="rotate(90 36 36)" fill="none" stroke="#00a5ff" stroke-miterlimit="10" stroke-width="0.1"/>
  <circle cx="36" cy="36" r="29" fill="none" stroke="#00a5ff" stroke-miterlimit="10" stroke-width="0.1"/>
  <g fill="none" stroke="#fff" stroke-linecap="round" stroke-linejoin="round" stroke-miterlimit="10" stroke-width="6">
    <path d="M34.763 34.733a1.894 1.894 0 01-2.38.576 2 2 0 01-1.153-2.169"/>
    <path d="M34.763 34.733l-5.873-2.634 7.773-17.337 8.212 3.682-7.773 17.337-2.339-1.048m-16.708 8.805l19.162 8.591-.818 1.825-19.162-8.591zm21.666-13.286a1.994 1.994 0 00.779.157 13 13 0 018.179 23.106 1.99 1.99 0 00-.653.97m-6.723-28.058A17.004 17.004 0 0153.48 54.392"/>
    <path d="M16.5 54.409h37v5h-37zm23.876-41.817l3.65 1.636-1.336 2.978-3.65-1.636z"/>
  </g>
  <path fill="#3f3f3f" d="M40.376 12.592l3.65 1.636-2.455 5.475-3.65-1.637z"/>
  <path fill="none" stroke="#d0cfce" stroke-miterlimit="10" stroke-width="2" d="M40.5 28.409a15 15 0 019.438 26.659"/>
  <path fill="#d0cfce" d="M16.5 54.409h37v5h-37zM28.89 32.1l7.773-17.337 8.212 3.682-7.773 17.337z"/>
  <g fill="none" stroke="#000" stroke-width="2">
    <path stroke-linecap="round" stroke-linejoin="round" d="M34.763 34.733a1.894 1.894 0 01-2.38.576 2 2 0 01-1.153-2.169"/>
    <path stroke-linecap="round" stroke-linejoin="round" d="M34.763 34.733l-5.873-2.634 7.773-17.337 8.212 3.682-7.773 17.337-2.339-1.048m-16.708 8.805l19.162 8.591-.818 1.825-19.162-8.591z"/>
    <path stroke-miterlimit="10" d="M39.721 30.252a1.994 1.994 0 00.779.157 13 13 0 018.179 23.106 1.99 1.99 0 00-.653.97m-6.723-28.058A17.004 17.004 0 0153.48 54.392"/>
    <path stroke-linecap="round" stroke-linejoin="round" d="M16.5 54.409h37v5h-37zm23.876-41.817l3.65 1.636-1.336 2.978-3.65-1.636z"/>
  </g>
</svg>
