<svg viewBox="0 0 72 72" xmlns="http://www.w3.org/2000/svg">
  <path fill="#b3b3b3" d="M68 4v64H4V4h64m4-4H0v72h72V0z"/>
  <path fill="none" stroke="#00a5ff" stroke-miterlimit="10" stroke-width="0.1" d="M12.923 10.958h46.154A1.923 1.923 0 0161 12.881v46.154a1.923 1.923 0 01-1.923 1.923H12.923A1.923 1.923 0 0111 59.035V12.881a1.923 1.923 0 011.923-1.923z"/>
  <rect x="16" y="4" rx="2.254" ry="2.254" width="40" height="64" fill="none" stroke="#00a5ff" stroke-miterlimit="10" stroke-width="0.1"/>
  <rect x="16" y="4" rx="2.254" ry="2.254" width="40" height="64" transform="rotate(90 36 36)" fill="none" stroke="#00a5ff" stroke-miterlimit="10" stroke-width="0.1"/>
  <circle cx="36" cy="36" r="29" fill="none" stroke="#00a5ff" stroke-miterlimit="10" stroke-width="0.1"/>
  <path fill="none" stroke="#fff" stroke-linecap="round" stroke-linejoin="round" stroke-miterlimit="10" stroke-width="6" d="M37.877 21.5l-.029 22.052 1.202 3.623-.025 15.706-1.208.002-3.624.006-1.209.002.025-15.706 1.214-3.627.029-22.058h3.625zm-8.174-9.9v9.9h12.728v-5.658s8.486 0 11.314 2.829A15.144 15.144 0 0042.431 11.6a60.523 60.523 0 00-12.727 0zm-3.813.879l-.032 8.02h0a3.336 3.336 0 01-3.701.014h0l.032-8.02h0a2.617 2.617 0 013.701-.014z"/>
  <path fill="#a57939" d="M37.877 21.43l-.029 22.122 1.202 3.623-.025 15.706-1.208.002-3.624.006-1.209.002.025-15.706 1.214-3.627.029-22.122 3.625-.006z"/>
  <path fill="#9b9b9a" d="M29.703 11.6v9.9h12.728v-5.658s8.486 0 11.314 2.829A15.144 15.144 0 0042.431 11.6a60.523 60.523 0 00-12.727 0z"/>
  <path fill="#d0cfce" d="M25.89 12.479l-.032 8.02a3.336 3.336 0 01-3.701.014l.032-8.02a2.617 2.617 0 013.701-.014z"/>
  <g fill="none" stroke="#000" stroke-linecap="round" stroke-linejoin="round" stroke-width="2">
    <path d="M37.877 21.5l-.029 22.052 1.202 3.623-.025 15.706-1.208.002-3.624.006-1.209.002.025-15.706 1.214-3.627.029-22.058h3.625zm-8.174-9.9v9.9h12.728v-5.658s8.486 0 11.314 2.829A15.144 15.144 0 0042.431 11.6a60.523 60.523 0 00-12.727 0zm-3.813.879l-.032 8.02h0a3.336 3.336 0 01-3.701.014h0l.032-8.02h0a2.617 2.617 0 013.701-.014z"/>
  </g>
</svg>
