<svg viewBox="0 0 72 72" xmlns="http://www.w3.org/2000/svg">
  <path fill="#b3b3b3" d="M68 4v64H4V4h64m4-4H0v72h72V0z"/>
  <path fill="none" stroke="#00a5ff" stroke-miterlimit="10" stroke-width="0.1" d="M12.923 10.959h46.154A1.923 1.923 0 0161 12.882v46.154a1.922 1.922 0 01-1.922 1.922H12.923A1.923 1.923 0 0111 59.035V12.882a1.923 1.923 0 011.923-1.923z"/>
  <rect x="16" y="4" rx="2.254" ry="2.254" width="40" height="64" fill="none" stroke="#00a5ff" stroke-miterlimit="10" stroke-width="0.1"/>
  <rect x="16" y="4" rx="2.254" ry="2.254" width="40" height="64" transform="rotate(90 36 36)" fill="none" stroke="#00a5ff" stroke-miterlimit="10" stroke-width="0.1"/>
  <circle cx="36" cy="36" r="29" fill="none" stroke="#00a5ff" stroke-miterlimit="10" stroke-width="0.1"/>
  <g fill="none" stroke="#fff" stroke-linecap="round" stroke-linejoin="round" stroke-miterlimit="10" stroke-width="6">
    <path d="M36 50.15v-28.3m-5.19 28.41h10.38M12 12h48v48H12z"/>
    <path d="M40.64 21.34a4.635 4.618 0 01-2.318 4 4.635 4.618 0 01-4.635 0 4.635 4.618 0 01-2.318-4"/>
    <path d="M44.87 21.34a8.871 8.858 0 01-4.435 7.671 8.871 8.858 0 01-8.871 0 8.871 8.858 0 01-4.435-7.671"/>
    <path d="M49.11 21.34a13.11 13.09 0 01-6.552 11.34 13.11 13.09 0 01-13.11 0 13.11 13.09 0 01-6.552-11.34"/>
    <path d="M53.34 21.34a17.34 17.34 0 01-8.67 15.02 17.34 17.34 0 01-17.34 0 17.34 17.34 0 01-8.67-15.02"/>
  </g>
  <path fill="#b399c8" d="M12 12h48v47.83H12z"/>
  <g fill="none" stroke="#000" stroke-linecap="round" stroke-linejoin="round">
    <path stroke-width="3" d="M36 50.15v-28.3m-5.19 28.41h10.38"/>
    <path stroke-width="2" d="M12 12h48v48H12z"/>
    <path stroke-width="2" d="M40.64 21.34a4.635 4.618 0 01-2.318 4 4.635 4.618 0 01-4.635 0 4.635 4.618 0 01-2.318-4"/>
    <path stroke-width="2" d="M44.87 21.34a8.871 8.858 0 01-4.435 7.671 8.871 8.858 0 01-8.871 0 8.871 8.858 0 01-4.435-7.671"/>
    <path stroke-width="2" d="M49.11 21.34a13.11 13.09 0 01-6.552 11.34 13.11 13.09 0 01-13.11 0 13.11 13.09 0 01-6.552-11.34"/>
    <path stroke-width="2" d="M53.34 21.34a17.34 17.34 0 01-8.67 15.02 17.34 17.34 0 01-17.34 0 17.34 17.34 0 01-8.67-15.02"/>
  </g>
</svg>
