<svg viewBox="0 0 72 72" xmlns="http://www.w3.org/2000/svg">
  <path fill="#b3b3b3" d="M68 4v64H4V4h64m4-4H0v72h72V0z"/>
  <path fill="none" stroke="#00a5ff" stroke-miterlimit="10" stroke-width="0.1" d="M12.923 10.958h46.154A1.923 1.923 0 0161 12.881v46.154a1.923 1.923 0 01-1.923 1.923H12.923A1.923 1.923 0 0111 59.035V12.881a1.923 1.923 0 011.923-1.923z"/>
  <rect x="16" y="4" rx="2.254" width="40" height="64" fill="none" stroke="#00a5ff" stroke-miterlimit="10" stroke-width="0.1"/>
  <rect x="16" y="4" rx="2.254" width="40" height="64" transform="rotate(90 36 36)" fill="none" stroke="#00a5ff" stroke-miterlimit="10" stroke-width="0.1"/>
  <circle cx="36" cy="36" r="29" fill="none" stroke="#00a5ff" stroke-miterlimit="10" stroke-width="0.1"/>
  <g fill="none" stroke="#fff" stroke-linecap="round" stroke-linejoin="round" stroke-miterlimit="10" stroke-width="6">
    <path d="M52 33.78V60H18V33.78a1 1 0 01.408-.805L34.38 21.23a.946.946 0 011.238 0l15.973 11.744a1 1 0 01.408.806zM8 39h10v21H8zm44 0h10v21H52z"/>
    <path d="M39 60h-8v-6a3 3 0 013-3h2a3 3 0 013 3v6zM14 47h-2v-3a1 1 0 011-1h0m45 4h-2v-3a1 1 0 011-1h0M35 60v-9m22-21l-5 9h10zm-44 0l-5 9h10zm22-3l-8.66 15h17.32z"/>
    <path d="M35 47l8.66-15H26.34z"/>
    <path d="M35 27l-8.66 15h17.32z"/>
    <path d="M35 47l8.66-15H26.34z"/>
  </g>
  <path fill="#F4AA41" d="M52 33.78V60H18V33.78a1 1 0 01.408-.805L34.38 21.23a.946.946 0 011.238 0l15.973 11.744a1 1 0 01.408.806zM8 39h10v21H8zm44 0h10v21H52z"/>
  <path fill="#A57939" d="M39 60h-8v-6a3 3 0 013-3h2a3 3 0 013 3v6z"/>
  <path fill="#3F3F3F" d="M57 30l-5 9h10zm-44 0l-5 9h10z"/>
  <path fill="#FFF" d="M35 27l-8.66 15h17.32z"/>
  <path fill="#D0CFCE" d="M35 47l8.66-15H26.34z"/>
  <path fill="#D0CFCE" d="M35 27l-8.66 15h17.32z"/>
  <g fill="none" stroke="#000" stroke-miterlimit="10" stroke-width="2">
    <path d="M52 33.78V60H18V33.78a1 1 0 01.408-.805L34.38 21.23a.946.946 0 011.238 0l15.973 11.744a1 1 0 01.408.806z"/>
    <path stroke-linecap="round" stroke-linejoin="round" d="M8 39h10v21H8zm44 0h10v21H52zM39 60h-8v-6a3 3 0 013-3h2a3 3 0 013 3v6z"/>
    <path stroke-linecap="round" stroke-linejoin="round" d="M14 47h-2v-3a1 1 0 011-1h0m45 4h-2v-3a1 1 0 011-1h0M35 60v-9m22-21l-5 9h10zm-44 0l-5 9h10zm22-3l-8.66 15h17.32z"/>
    <path stroke-linecap="round" stroke-linejoin="round" d="M35 47l8.66-15H26.34z"/>
    <path stroke-linecap="round" stroke-linejoin="round" d="M35 27l-8.66 15h17.32z"/>
    <path stroke-linecap="round" stroke-linejoin="round" d="M35 47l8.66-15H26.34z"/>
  </g>
</svg>
