<svg viewBox="0 0 72 72" xmlns="http://www.w3.org/2000/svg">
  <path fill="#b3b3b3" d="M68 4v64H4V4h64m4-4H0v72h72V0z"/>
  <path fill="none" stroke="#00a5ff" stroke-miterlimit="10" stroke-width="0.1" d="M12.923 10.958h46.154A1.923 1.923 0 0161 12.881v46.154a1.923 1.923 0 01-1.923 1.923H12.923A1.923 1.923 0 0111 59.035V12.881a1.923 1.923 0 011.923-1.923z"/>
  <rect x="16" y="4" rx="2.254" width="40" height="64" fill="none" stroke="#00a5ff" stroke-miterlimit="10" stroke-width="0.1"/>
  <rect x="16" y="4" rx="2.254" width="40" height="64" transform="rotate(90 36 36)" fill="none" stroke="#00a5ff" stroke-miterlimit="10" stroke-width="0.1"/>
  <circle cx="36" cy="36" r="29" fill="none" stroke="#00a5ff" stroke-miterlimit="10" stroke-width="0.1"/>
  <path fill="none" stroke="#fff" stroke-linecap="round" stroke-linejoin="round" stroke-miterlimit="10" stroke-width="6" d="M16.887 57.924l-2.422 2.423m33.45-43.194l9.651 9.65M44.751 14.022h0c-1.156-1.156-3.143-1.044-4.438.25L27.81 26.777M18.033 59.07c7.31-1.718 14.455-7.194 18.033-10.1 5.284-4.29 15.682-15.02 22.025-21.693 2.98-3.137 3.175-7.81.442-10.544h0l-.488-.487h0c-2.733-2.733-7.406-2.54-10.543.442-6.674 6.343-17.402 16.74-21.694 22.024-2.905 3.578-8.38 10.723-10.1 18.034l2.325 2.324m6.753-3.011l-5.998-5.998"/>
  <path fill="#9b9b9a" d="M18.407 49.773l6.41 6.965-6.886 1.969-2.416-2.384z"/>
  <path fill="#d0cfce" stroke="#d0cfce" stroke-miterlimit="10" stroke-width="2" d="M18.033 59.07c7.31-1.718 14.455-7.194 18.033-10.1 5.284-4.29 15.682-15.02 22.025-21.693 2.98-3.137 3.175-7.81.442-10.544h0l-.488-.487h0c-2.733-2.733-7.406-2.54-10.543.442-6.674 6.343-17.402 16.74-21.694 22.024-2.763 3.403-7.85 10.03-9.82 16.958-.188.662.02 1.375.507 1.862l1.538 1.538"/>
  <g fill="none" stroke="#000" stroke-linecap="round" stroke-linejoin="round" stroke-miterlimit="10">
    <path stroke-width="2" d="M16.887 57.924l-2.422 2.423m33.45-43.194l9.651 9.65M44.751 14.022h0c-1.156-1.156-3.143-1.044-4.438.25L27.81 26.777M18.033 59.07c7.31-1.718 14.455-7.194 18.033-10.1 5.284-4.29 15.682-15.02 22.025-21.693 2.98-3.137 3.175-7.81.442-10.544h0l-.488-.487h0c-2.733-2.733-7.406-2.54-10.543.442-6.674 6.343-17.402 16.74-21.694 22.024-2.905 3.578-8.38 10.723-10.1 18.034l2.325 2.324"/>
    <path stroke-width="1.961" d="M24.786 56.059l-5.998-5.998"/>
  </g>
</svg>
