<svg viewBox="0 0 72 72" xmlns="http://www.w3.org/2000/svg">
  <path fill="#b3b3b3" d="M68 4v64H4V4h64m4-4H0v72h72V0z"/>
  <rect x="11" y="10.958" rx="1.923" width="50" height="50" fill="none" stroke="#00a5ff" stroke-miterlimit="10" stroke-width="0.1"/>
  <rect x="16" y="4" rx="2.254" width="40" height="64" fill="none" stroke="#00a5ff" stroke-miterlimit="10" stroke-width="0.1"/>
  <rect x="16" y="4" rx="2.254" width="40" height="64" transform="rotate(90 36 36)" fill="none" stroke="#00a5ff" stroke-miterlimit="10" stroke-width="0.1"/>
  <circle cx="36" cy="36" r="29" fill="none" stroke="#00a5ff" stroke-miterlimit="10" stroke-width="0.1"/>
  <g fill="none" stroke="#fff" stroke-linecap="round" stroke-linejoin="round" stroke-miterlimit="10" stroke-width="6">
    <path d="M40.13 62.42h-8.259a10.75 10.75 0 01-10.72-10.72V26.39a10.75 10.75 0 0110.72-10.72h8.259a10.75 10.75 0 0110.72 10.72V51.7a10.75 10.75 0 01-10.72 10.72z"/>
    <circle cx="36" cy="30.51" r="8.902"/>
    <path d="M36 15.1c.5-13.15-19.03-4.582-21.79-9.568"/>
  </g>
  <path fill="#d0cfce" d="M38.32 14.95h-4.638a12.72 12.72 0 00-12.68 12.68v22.84a12.72 12.72 0 0012.68 12.68h4.638A12.72 12.72 0 0051 50.47V27.63a12.72 12.72 0 00-12.68-12.68z"/>
  <path fill="#9b9b9a" d="M34.84 16.71c3.809 1.634 7.429 3.98 7.851 9.907.488 6.864-2.052 19.72-2.868 26.25-.571 4.565-2.829 6.678-5.826 9.074 7.15 1.956 12.45-1.073 15.39-3.987 2.791-10 1.554-22.51 1.443-33.41-.846-5.23-6.24-8.613-11.53-8.356 0 0-9.629-.496-4.459.53z"/>
  <circle cx="36.74" cy="30.51" r="8.902" fill="#f4aa41"/>
  <path fill="#e27022" d="M37.95 21.03a6.238 6.238 0 011.407 3.94 8.902 8.902 0 01-8.902 8.901c-1.765 0-2.272-.52-3.656-1.407 1.582 2.47 6.045 6.946 9.196 6.946a8.902 8.902 0 008.902-8.902c0-3.151-4.476-7.897-6.946-9.479z"/>
  <g fill="none" stroke="#000" stroke-linecap="round" stroke-linejoin="round" stroke-width="2">
    <path d="M40.13 62.42h-8.259a10.75 10.75 0 01-10.72-10.72V26.39a10.75 10.75 0 0110.72-10.72h8.259a10.75 10.75 0 0110.72 10.72V51.7a10.75 10.75 0 01-10.72 10.72z"/>
    <circle cx="36" cy="30.51" r="8.902"/>
    <path d="M36 15.1c.5-13.15-19.03-4.582-21.79-9.568"/>
  </g>
</svg>
