<svg viewBox="0 0 72 72" xmlns="http://www.w3.org/2000/svg">
  <path fill="#b3b3b3" d="M68 4v64H4V4h64m4-4H0v72h72V0z"/>
  <path fill="none" stroke="#00a5ff" stroke-miterlimit="10" stroke-width="0.1" d="M12.923 10.958h46.154A1.923 1.923 0 0161 12.881v46.154a1.923 1.923 0 01-1.923 1.923H12.923A1.923 1.923 0 0111 59.035V12.881a1.923 1.923 0 011.923-1.923z"/>
  <rect x="16" y="4" rx="2.254" width="40" height="64" fill="none" stroke="#00a5ff" stroke-miterlimit="10" stroke-width="0.1"/>
  <rect x="16" y="4" rx="2.254" width="40" height="64" transform="rotate(90 36 36)" fill="none" stroke="#00a5ff" stroke-miterlimit="10" stroke-width="0.1"/>
  <circle cx="36" cy="36" r="29" fill="none" stroke="#00a5ff" stroke-miterlimit="10" stroke-width="0.1"/>
  <g fill="none" stroke="#fff" stroke-linecap="round" stroke-linejoin="round" stroke-miterlimit="10" stroke-width="6">
    <path d="M11 29h50m-34.107-4H61m-50 0h7.108M29 21H11v36h50V21H37.893m-20.328-5h5.87A1.565 1.565 0 0125 17.565V21h0-9 0v-3.435A1.565 1.565 0 0117.565 16z"/>
    <path d="M30.565 20h5.87A1.565 1.565 0 0138 21.565V25h0-9 0v-3.435A1.565 1.565 0 0130.565 20zm-11 4h5.87A1.565 1.565 0 0127 25.565V29h0-9 0v-3.435A1.565 1.565 0 0119.565 24z"/>
  </g>
  <path fill="#d0cfce" d="M11 21h50v36H11z"/>
  <path fill="#9b9b9a" d="M11 21h50v4H11zm0 4h50v4H11z"/>
  <path fill="#b1cc33" d="M17.565 16h5.87A1.565 1.565 0 0125 17.565V21h-9v-3.435A1.565 1.565 0 0117.565 16z"/>
  <path fill="#ea5a47" d="M30.565 20h5.87A1.565 1.565 0 0138 21.565V25h-9v-3.435A1.565 1.565 0 0130.565 20z"/>
  <path fill="#92d3f5" d="M19.565 24h5.87A1.565 1.565 0 0127 25.565V29h-9v-3.435A1.565 1.565 0 0119.565 24z"/>
  <g fill="none" stroke="#000" stroke-linecap="round" stroke-linejoin="round" stroke-width="2">
    <path d="M11 29h50m-34.107-4H61m-50 0h7.108M29 21H11v36h50V21H37.893m-20.328-5h5.87A1.565 1.565 0 0125 17.565V21h0-9 0v-3.435A1.565 1.565 0 0117.565 16z"/>
    <path d="M30.565 20h5.87A1.565 1.565 0 0138 21.565V25h0-9 0v-3.435A1.565 1.565 0 0130.565 20zm-11 4h5.87A1.565 1.565 0 0127 25.565V29h0-9 0v-3.435A1.565 1.565 0 0119.565 24z"/>
  </g>
</svg>
