<svg viewBox="0 0 72 72" xmlns="http://www.w3.org/2000/svg">
  <path fill="#b3b3b3" d="M68 4v64H4V4h64m4-4H0v72h72V0z"/>
  <path fill="none" stroke="#00a5ff" stroke-miterlimit="10" stroke-width="0.1" d="M12.923 10.958h46.154A1.923 1.923 0 0161 12.881v46.154a1.923 1.923 0 01-1.923 1.923H12.923A1.923 1.923 0 0111 59.035V12.881a1.923 1.923 0 011.923-1.923z"/>
  <rect x="16" y="4" rx="2.254" width="40" height="64" fill="none" stroke="#00a5ff" stroke-miterlimit="10" stroke-width="0.1"/>
  <rect x="16" y="4" rx="2.254" width="40" height="64" transform="rotate(90 36 36)" fill="none" stroke="#00a5ff" stroke-miterlimit="10" stroke-width="0.1"/>
  <circle cx="36" cy="36" r="29" fill="none" stroke="#00a5ff" stroke-miterlimit="10" stroke-width="0.1"/>
  <g fill="none" stroke="#fff" stroke-linecap="round" stroke-linejoin="round" stroke-miterlimit="10" stroke-width="6">
    <path d="M17 12h38v44H17zm.009 48.003H55"/>
    <path d="M21.269 35.829h29.5v16h-29.5z"/>
    <path d="M29.735 39.713h12.399v4.116H29.735zm12.399 8.116H29.735m-8.466-31.818h29.5v16h-29.5z"/>
    <path d="M29.735 19.895h12.399v4.116H29.735zm12.399 8.116H29.735"/>
  </g>
  <path fill="#3f3f3f" d="M18 55h36V13H18v42z"/>
  <path fill="#d0cfce" d="M22.27 17.011v14h27.499v-14h-27.5zM49.769 50.83v-14h-27.5v14h27.5z"/>
  <path fill="#9B9B9A" d="M29.947 19.677H41.93v4.357H29.947zm-.352 20.116h12.679v4.067H29.595z"/>
  <path fill="#d0cfce" d="M17.009 60.003H55"/>
  <g fill="none" stroke="#000" stroke-linecap="round" stroke-linejoin="round" stroke-miterlimit="10" stroke-width="2">
    <path d="M17 12h38v44H17zm.009 48.003H55"/>
    <path d="M21.269 35.829h29.5v16h-29.5z"/>
    <path d="M29.735 39.713h12.399v4.116H29.735zm12.399 8.116H29.735m-8.466-31.818h29.5v16h-29.5z"/>
    <path d="M29.735 19.895h12.399v4.116H29.735zm12.399 8.116H29.735"/>
  </g>
</svg>
