<svg viewBox="0 0 72 72" xmlns="http://www.w3.org/2000/svg">
  <path fill="#b3b3b3" d="M68 4v64H4V4h64m4-4H0v72h72V0z"/>
  <path fill="none" stroke="#00a5ff" stroke-miterlimit="10" stroke-width="0.1" d="M12.923 10.958h46.154A1.923 1.923 0 0161 12.881v46.154a1.923 1.923 0 01-1.923 1.923H12.923A1.923 1.923 0 0111 59.035V12.881a1.923 1.923 0 011.923-1.923z"/>
  <rect x="16" y="4" rx="2.254" width="40" height="64" fill="none" stroke="#00a5ff" stroke-miterlimit="10" stroke-width="0.1"/>
  <rect x="16" y="4" rx="2.254" width="40" height="64" transform="rotate(90 36 36)" fill="none" stroke="#00a5ff" stroke-miterlimit="10" stroke-width="0.1"/>
  <circle cx="36" cy="36" r="29" fill="none" stroke="#00a5ff" stroke-miterlimit="10" stroke-width="0.1"/>
  <g fill="none" stroke="#fff" stroke-linecap="round" stroke-linejoin="round" stroke-miterlimit="10" stroke-width="6">
    <path d="M47 45.777H22.677A4.677 4.677 0 0118 41.1V22.39a9.355 9.355 0 019.355-9.354h14.967A4.677 4.677 0 0147 17.713v4.01h-4.971a3.074 3.074 0 00-3.074-3.074h-9.836a6.147 6.147 0 00-6.148 6.147v12.295a3.074 3.074 0 003.074 3.074H47v5.612zm-5 .13h5v13h-5z"/>
    <path d="M40 21.907h10v3.643H40zm2 14.812v3.187h5V36.72c0-.449-.455-.813-1.015-.813h-2.97c-.56 0-1.015.364-1.015.813zm-1 15.447h-4m15 0h-4"/>
  </g>
  <path fill="#9B9B9A" d="M43 36.166h3v3.383h-3zm.001 10h3v12h-3zm-2.001-24h8v3h-8z"/>
  <path fill="#D0CFCE" d="M47 45.777H22.677A4.677 4.677 0 0118 41.1V22.39a9.355 9.355 0 019.355-9.354h14.967A4.677 4.677 0 0147 17.713v4.01h-4.971a3.074 3.074 0 00-3.074-3.074h-9.836a6.147 6.147 0 00-6.148 6.147v12.295a3.074 3.074 0 003.074 3.074H47v5.612z"/>
  <g fill="none" stroke="#000" stroke-linecap="round" stroke-linejoin="round" stroke-miterlimit="10" stroke-width="2">
    <path d="M47 45.777H22.677A4.677 4.677 0 0118 41.1V22.39a9.355 9.355 0 019.355-9.354h14.967A4.677 4.677 0 0147 17.713v4.01h-4.971a3.074 3.074 0 00-3.074-3.074h-9.836a6.147 6.147 0 00-6.148 6.147v12.295a3.074 3.074 0 003.074 3.074H47v5.612zm-5 .13h5v13h-5z"/>
    <path d="M40 21.907h10v3.643H40zm2 14.812v3.187h5V36.72c0-.449-.455-.813-1.015-.813h-2.97c-.56 0-1.015.364-1.015.813zm-1 15.447h-4m15 0h-4"/>
  </g>
</svg>
