<svg viewBox="0 0 72 72" xmlns="http://www.w3.org/2000/svg">
  <path fill="#b3b3b3" d="M68 4v64H4V4h64m4-4H0v72h72V0z"/>
  <path fill="none" stroke="#00a5ff" stroke-miterlimit="10" stroke-width="0.1" d="M12.923 10.958h46.154A1.923 1.923 0 0161 12.881v46.154a1.923 1.923 0 01-1.923 1.923H12.923A1.923 1.923 0 0111 59.035V12.881a1.923 1.923 0 011.923-1.923z"/>
  <rect x="16" y="4" rx="2.254" ry="2.254" width="40" height="64" fill="none" stroke="#00a5ff" stroke-miterlimit="10" stroke-width="0.1"/>
  <rect x="16" y="4" rx="2.254" ry="2.254" width="40" height="64" transform="rotate(90 36 36)" fill="none" stroke="#00a5ff" stroke-miterlimit="10" stroke-width="0.1"/>
  <circle cx="36" cy="36" r="29" fill="none" stroke="#00a5ff" stroke-miterlimit="10" stroke-width="0.1"/>
  <g fill="none" stroke="#fff" stroke-linecap="round" stroke-linejoin="round" stroke-miterlimit="10" stroke-width="6">
    <path d="M13.364 15.056h10.102v4.408H13.364zm2.918-1.319a3.543 3.543 0 01-.231-2.35c.348-1.192 1.336-1.56 3.178-2.913 2.84-2.088 3.307-3.284 4.006-3.013.942.365.96 2.898.53 4.601a7.437 7.437 0 01-.729 1.821m-6.458 7.959q1.313 11.966 2.482 11.952 1.02-.012 1.93-9.148m-1.418 12.811c.58 1.981 1.17 4 2.34 8.04 1.437 4.966 1.481 5.164 1.794 5.922 2.437 5.899 5.014 6.542 4.666 9.6a43.512 43.512 0 01-1.436 5.563c-.182.619-.34 1.128-.448 1.47M22.987 29.1a51.056 51.056 0 012.872 8.116c1.276 4.519.834 4.78 1.885 6.73 2.274 4.223 5.048 4.298 7.088 8.793a6.001 6.001 0 001.615 2.392 6.777 6.777 0 004.845 1.286c1.968-.203 3.216-1.083 4.897-1.342a5.382 5.382 0 015.063 2.24c1.096 1.003 1.912 3.135 3.5 7.357"/>
    <ellipse cx="41.903" cy="46.206" rx="5" ry="6.101"/>
    <path d="M50.289 41.717h6.101m-9.772-3.84l4.314-4.314m-9.314 3.051v-6.101m-8.101 11.204h-3.605m7.276-3.856l-4.314-4.314"/>
  </g>
  <path fill="#92d3f5" d="M16.598 20.026c.239 1.888.574 4.446 1.011 7.492.364 2.53.55 3.684.945 3.724.818.084 1.882-4.52 2.073-5.349a35.42 35.42 0 00.848-5.867"/>
  <path fill="#61b2e4" d="M13.781 15.056h9.686v4.408h-9.686zm9.551 14.815c.509.07.866.774 2.272 6.456 1.446 5.84 1.265 5.89 1.824 6.985 1.581 3.099 3.03 2.699 5.603 6.57 2.219 3.34 1.508 4.189 2.974 5.16 2.966 1.964 6.397-.533 11.366.989a9.802 9.802 0 015.124 3.083c1.02 1.27 3.491 4.343 2.58 5.994-1.403 2.541-8.693-2.146-19.68-.229-4.453.777-8.145 2.4-8.907 1.173-.843-1.356 3.239-4.033 2.728-7.733-.304-2.203-2.628-4.566-4.042-7.564-2.441-5.175-5.87-9.498-4.725-15.051.651-3.154 1.73-5.992 2.883-5.833z"/>
  <ellipse cx="41.903" cy="46.206" rx="4.857" ry="5.806" fill="#92d3f5"/>
  <path fill="#f4aa41" d="M16.141 13.355a2.821 2.821 0 01.096-2.424c.514-1.012 1.378-1.142 2.645-1.925 2.725-1.683 3.14-3.806 4.049-3.567.937.246 1.034 2.638 1.06 3.276.06 1.511.166 4.128-1.716 5.465-1.943 1.381-5.282.884-6.134-.825z"/>
  <path fill="none" stroke="#92d3f5" stroke-linecap="round" stroke-miterlimit="10" stroke-width="2" d="M41.028 30.513v6.101m9.394-3.314l-4.314 4.314m-12.89-4.504l4.314 4.314m-7.62 3.815h3.605m16.772 0h6.101"/>
  <g fill="none" stroke="#000" stroke-linecap="round" stroke-linejoin="round" stroke-width="2">
    <path d="M13.364 15.056h10.102v4.408H13.364zm2.918-1.319a3.543 3.543 0 01-.231-2.35c.348-1.192 1.336-1.56 3.178-2.913 2.84-2.088 3.307-3.284 4.006-3.013.942.365.96 2.898.53 4.601a7.437 7.437 0 01-.729 1.821m-6.458 7.959q1.313 11.966 2.482 11.952 1.02-.012 1.93-9.148m-1.418 12.811c.58 1.981 1.17 4 2.34 8.04 1.437 4.966 1.481 5.164 1.794 5.922 2.437 5.899 5.014 6.542 4.666 9.6a43.512 43.512 0 01-1.436 5.563c-.182.619-.34 1.128-.448 1.47M22.987 29.1a51.056 51.056 0 012.872 8.116c1.276 4.519.834 4.78 1.885 6.73 2.274 4.223 5.048 4.298 7.088 8.793a6.001 6.001 0 001.615 2.392 6.777 6.777 0 004.845 1.286c1.968-.203 3.216-1.083 4.897-1.342a5.382 5.382 0 015.063 2.24c1.096 1.003 1.912 3.135 3.5 7.357"/>
    <ellipse cx="41.903" cy="46.206" rx="5" ry="6.101"/>
    <path d="M50.289 41.717h6.101m-9.772-3.84l4.314-4.314m-9.314 3.051v-6.101m-8.101 11.204h-3.605m7.276-3.856l-4.314-4.314"/>
  </g>
</svg>
