<svg viewBox="0 0 72 72" xmlns="http://www.w3.org/2000/svg">
  <path fill="#B3B3B3" d="M68 4v64H4V4h64m4-4H0v72h72V0z"/>
  <path fill="none" stroke="#00A5FF" stroke-miterlimit="10" stroke-width="0.1" d="M12.923 10.958h46.154c1.062 0 1.923.861 1.923 1.923v46.154a1.923 1.923 0 01-1.923 1.923H12.923A1.923 1.923 0 0111 59.035V12.881c0-1.062.861-1.923 1.923-1.923z"/>
  <path fill="none" stroke="#00A5FF" stroke-miterlimit="10" stroke-width="0.1" d="M18.254 4h35.492A2.254 2.254 0 0156 6.254v59.492A2.254 2.254 0 0153.746 68H18.254A2.254 2.254 0 0116 65.746V6.254A2.254 2.254 0 0118.254 4z"/>
  <path fill="none" stroke="#00A5FF" stroke-miterlimit="10" stroke-width="0.1" d="M6.254 16h59.492A2.254 2.254 0 0168 18.254v35.492A2.254 2.254 0 0165.746 56H6.254A2.254 2.254 0 014 53.746V18.254A2.254 2.254 0 016.254 16z"/>
  <circle cx="36" cy="36" r="29" fill="none" stroke="#00A5FF" stroke-miterlimit="10" stroke-width="0.1"/>
  <g fill="none" stroke="#fff" stroke-linecap="round" stroke-linejoin="round" stroke-miterlimit="10" stroke-width="6">
    <circle cx="36" cy="36" r="23"/>
    <path d="M50.595 41.64a11.557 11.557 0 01-.87 4.49c-12.49 3.03-25.43.34-27.49-.13a11.435 11.435 0 01-.83-4.36h.11s14.8 3.59 28.89.07l.19-.07z"/>
    <path d="M49.725 46.13c-1.79 4.27-6.35 7.23-13.69 7.23-7.41 0-12.03-3.03-13.8-7.36 2.06.47 15 3.16 27.49.13zM30 31a3.001 3.001 0 01-6 0c0-1.655 1.345-3 3-3s3 1.345 3 3m18 0a3.001 3.001 0 01-6 0c0-1.655 1.345-3 3-3s3 1.345 3 3"/>
  </g>
  <circle cx="36" cy="36" r="23" fill="#FCEA2B"/>
  <path fill="#FFF" d="M50.595 41.64a11.557 11.557 0 01-.87 4.49c-12.49 3.03-25.43.34-27.49-.13a11.435 11.435 0 01-.83-4.36h.11s14.8 3.59 28.89.07l.19-.07z"/>
  <path fill="#EA5A47" d="M49.725 46.13c-1.79 4.27-6.35 7.23-13.69 7.23-7.41 0-12.03-3.03-13.8-7.36 2.06.47 15 3.16 27.49.13z"/>
  <circle cx="36" cy="36" r="23" fill="none" stroke="#000" stroke-linecap="round" stroke-linejoin="round" stroke-width="2"/>
  <path fill="none" stroke="#000" stroke-linecap="round" stroke-linejoin="round" stroke-width="2" d="M50.595 41.64a11.557 11.557 0 01-.87 4.49c-12.49 3.03-25.43.34-27.49-.13a11.435 11.435 0 01-.83-4.36h.11s14.8 3.59 28.89.07l.19-.07z"/>
  <path fill="none" stroke="#000" stroke-linecap="round" stroke-linejoin="round" stroke-width="2" d="M49.725 46.13c-1.79 4.27-6.35 7.23-13.69 7.23-7.41 0-12.03-3.03-13.8-7.36 2.06.47 15 3.16 27.49.13z"/>
  <path d="M30 31a3.001 3.001 0 01-6 0c0-1.655 1.345-3 3-3s3 1.345 3 3m18 0a3.001 3.001 0 01-6 0c0-1.655 1.345-3 3-3s3 1.345 3 3"/>
</svg>
