<svg viewBox="0 0 72 72" xmlns="http://www.w3.org/2000/svg">
  <path fill="#b3b3b3" d="M68 4v64H4V4h64m4-4H0v72h72z"/>
  <rect x="11" y="10.958" rx="1.923" width="50" height="50" fill="none" stroke="#00a5ff" stroke-miterlimit="10" stroke-width="0.1"/>
  <rect x="16" y="4" rx="2.254" width="40" height="64" fill="none" stroke="#00a5ff" stroke-miterlimit="10" stroke-width="0.1"/>
  <rect x="4" y="16" rx="2.254" width="64" height="40" fill="none" stroke="#00a5ff" stroke-miterlimit="10" stroke-width="0.1"/>
  <circle cx="36" cy="36" r="29" fill="none" stroke="#00a5ff" stroke-miterlimit="10" stroke-width="0.1"/>
  <g fill="none" stroke="#fff" stroke-linecap="round" stroke-linejoin="round" stroke-miterlimit="10" stroke-width="6">
    <path d="M58.848 33.34l-.02-.167a23.003 23.003 0 00-45.624-.253c-.015.107-.039.313-.052.42m4.031 15.889A23.531 23.531 0 0036 59a23.343 23.343 0 0018.757-9.687"/>
    <path d="M20.695 28.2a6.306 6.306 0 013.39-3 6.304 6.304 0 014.53-.42m22.69 3.42a7.19 7.19 0 00-7.909-3.43m7.199 16.87a11.555 11.555 0 01-.87 4.49c-12.49 3.03-25.43.34-27.49-.13a11.435 11.435 0 01-.83-4.36h.11s14.8 3.59 28.89.07z"/>
    <path d="M49.725 46.13c-1.79 4.27-6.35 7.23-13.69 7.23-7.41 0-12.03-3.03-13.8-7.36 2.06.47 15 3.16 27.49.13zm16.031 1.208a4.242 4.242 0 01-6 0c-2.973-2.97-3.007-8.96-3.007-9.02.231.013 6.05.063 9.007 3.019a4.241 4.241 0 010 6zm-59.516.001a4.242 4.242 0 01-.002-6.002c2.972-2.971 8.961-3.006 9.02-3.006-.012.231-.062 6.051-3.018 9.007a4.241 4.241 0 01-6 0zm25.454-12.175a4.726 4.726 0 00-8.638 0m25.888 0a4.726 4.726 0 00-8.638 0"/>
  </g>
  <circle cx="36" cy="36" r="24" fill="#fcea2b"/>
  <path fill="#fff" d="M50.595 41.64a11.555 11.555 0 01-.87 4.49c-12.49 3.03-25.43.34-27.49-.13a11.435 11.435 0 01-.83-4.36h.11s14.8 3.59 28.89.07z"/>
  <path fill="#ea5a47" d="M49.725 46.13c-1.79 4.27-6.35 7.23-13.69 7.23-7.41 0-12.03-3.03-13.8-7.36 2.06.47 15 3.16 27.49.13z"/>
  <path fill="#92d3f5" d="M65.756 47.338a4.242 4.242 0 01-6 0c-2.973-2.97-3.007-8.96-3.007-9.02.231.013 6.05.063 9.007 3.019a4.241 4.241 0 010 6zm-59.516.001a4.242 4.242 0 01-.002-6.002c2.972-2.971 8.961-3.006 9.02-3.006-.012.231-.062 6.051-3.018 9.007a4.241 4.241 0 01-6 0z"/>
  <g fill="none" stroke="#000" stroke-width="2">
    <path stroke-linecap="round" stroke-linejoin="round" d="M58.848 33.34l-.02-.167a23.003 23.003 0 00-45.624-.253c-.015.107-.039.313-.052.42m4.031 15.889A23.531 23.531 0 0036 59a23.343 23.343 0 0018.757-9.687"/>
    <path stroke-linecap="round" stroke-linejoin="round" d="M20.695 28.2a6.306 6.306 0 013.39-3 6.304 6.304 0 014.53-.42m22.69 3.42a7.19 7.19 0 00-7.909-3.43m7.199 16.87a11.555 11.555 0 01-.87 4.49c-12.49 3.03-25.43.34-27.49-.13a11.435 11.435 0 01-.83-4.36h.11s14.8 3.59 28.89.07z"/>
    <path stroke-linecap="round" stroke-linejoin="round" d="M49.725 46.13c-1.79 4.27-6.35 7.23-13.69 7.23-7.41 0-12.03-3.03-13.8-7.36 2.06.47 15 3.16 27.49.13z"/>
    <path stroke-linejoin="round" d="M65.756 47.338a4.242 4.242 0 01-6 0c-2.973-2.97-3.007-8.96-3.007-9.02.231.013 6.05.063 9.007 3.019a4.241 4.241 0 010 6zm-59.516.001a4.242 4.242 0 01-.002-6.002c2.972-2.971 8.961-3.006 9.02-3.006-.012.231-.062 6.051-3.018 9.007a4.241 4.241 0 01-6 0z"/>
    <path stroke-linecap="round" stroke-miterlimit="10" d="M31.694 35.164a4.726 4.726 0 00-8.638 0m25.888 0a4.726 4.726 0 00-8.638 0"/>
  </g>
</svg>
