<svg viewBox="0 0 72 72" xmlns="http://www.w3.org/2000/svg">
  <path fill="#B3B3B3" d="M68 4v64H4V4h64m4-4H0v72h72V0z"/>
  <path fill="none" stroke="#00A5FF" stroke-miterlimit="10" stroke-width="0.1" d="M12.923 10.958h46.154c1.062 0 1.923.861 1.923 1.923v46.154a1.923 1.923 0 01-1.923 1.923H12.923A1.923 1.923 0 0111 59.035h0V12.881c0-1.062.861-1.923 1.923-1.923h0z"/>
  <path fill="none" stroke="#00A5FF" stroke-miterlimit="10" stroke-width="0.1" d="M18.254 4h35.492A2.254 2.254 0 0156 6.254v59.492A2.254 2.254 0 0153.746 68H18.254A2.254 2.254 0 0116 65.746V6.254A2.254 2.254 0 0118.254 4z"/>
  <path fill="none" stroke="#00A5FF" stroke-miterlimit="10" stroke-width="0.1" d="M68 18.254v35.492A2.254 2.254 0 0165.746 56H6.254A2.254 2.254 0 014 53.746V18.254A2.254 2.254 0 016.254 16h59.492A2.254 2.254 0 0168 18.254z"/>
  <circle cx="36" cy="36" r="29" fill="none" stroke="#00A5FF" stroke-miterlimit="10" stroke-width="0.1"/>
  <g fill="none" stroke="#fff" stroke-linecap="round" stroke-linejoin="round" stroke-miterlimit="10" stroke-width="6">
    <path d="M55.106 33.69s-9.276-9.277-13.252 6.624c10.602 7.952 13.252-6.625 13.252-6.625zM62 54.128l-9.36-5.2m5.2 10.4l-9.36-5.2"/>
    <path d="M13.292 48a23.845 23.845 0 01-1.732-8.952l3.64-32.76 10.98 10.715a23.858 23.858 0 019.3-1.875h1.04c3.299 0 6.442.668 9.3 1.875L56.8 6.288l3.64 32.76c0 3.164-.614 6.186-1.732 8.951"/>
    <path d="M16.894 33.69s9.276-9.277 13.252 6.624c-10.602 7.952-13.252-6.625-13.252-6.625zM10 54.128l9.36-5.2m-5.2 10.4l9.36-5.2"/>
    <circle cx="23.52" cy="36.448" r="2.08"/>
    <circle cx="48.48" cy="36.448" r="2.08"/>
    <path d="M31.637 45.466h8.321m-14.56 3.12s7.8 4.16 10.4-3.12c2.6 7.28 10.804 3.07 10.804 3.07s-2.693 4.381-3.487 5.234c-4.017 4.313-9.4 4.053-13.672.116-.935-.862-4.046-5.3-4.046-5.3zM22.851 59.39A23.76 23.76 0 0035.481 63h1.038a23.76 23.76 0 0012.63-3.61"/>
  </g>
  <path fill="#F4AA41" d="M58.666 48.832c-3.598 9.117-12.632 15.155-23.208 15.155-9.117 0-19.256-5.848-22.853-14.965l-.127-.312c-1.141-2.86-1.957-6.36-1.957-9.633l3.667-33.371 11.228 11.08a24.164 24.164 0 019.51-1.939h1.064c3.373 0 6.588.691 9.51 1.939l11.228-11.08 3.723 33.876a24.9 24.9 0 01-1.77 9.256"/>
  <path fill="#E27022" d="M35.458 63.987c10.61.342 20.354-6.004 23.952-15.121l.11-.231c1.142-2.86 1.959-6.897 1.959-10.17l-4.75-32.76"/>
  <path fill="#FFF" d="M55.106 33.627s-9.276-9.276-13.252 6.625c10.602 7.952 13.252-6.625 13.252-6.625zm-38.212 0s9.276-9.276 13.252 6.625c-10.602 7.952-13.252-6.625-13.252-6.625z"/>
  <path fill="#EA5A47" d="M25.6 48.524s7.8 4.16 10.4-3.12c2.6 7.28 10.805 3.07 10.805 3.07s-2.694 4.381-3.487 5.234c-4.018 4.314-9.401 4.053-13.672.116-.935-.862-4.046-5.3-4.046-5.3z"/>
  <path fill="none" stroke="#000" stroke-linecap="round" stroke-linejoin="round" stroke-miterlimit="10" stroke-width="2" d="M55.106 33.69s-9.276-9.277-13.252 6.624c10.602 7.952 13.252-6.625 13.252-6.625zM62 54.128l-9.36-5.2m5.2 10.4l-9.36-5.2"/>
  <path fill="none" stroke="#000" stroke-linecap="round" stroke-linejoin="round" stroke-miterlimit="10" stroke-width="2" d="M13.292 48a23.845 23.845 0 01-1.732-8.952l3.64-32.76 10.98 10.715a23.858 23.858 0 019.3-1.875h1.04c3.299 0 6.442.668 9.3 1.875L56.8 6.288l3.64 32.76c0 3.164-.614 6.186-1.732 8.951"/>
  <path fill="none" stroke="#000" stroke-linecap="round" stroke-linejoin="round" stroke-miterlimit="10" stroke-width="2" d="M16.894 33.69s9.276-9.277 13.252 6.624c-10.602 7.952-13.252-6.625-13.252-6.625zM10 54.128l9.36-5.2m-5.2 10.4l9.36-5.2"/>
  <circle cx="23.52" cy="36.448" r="2.08"/>
  <circle cx="48.48" cy="36.448" r="2.08"/>
  <path fill="none" stroke="#000" stroke-linecap="round" stroke-linejoin="round" stroke-miterlimit="10" stroke-width="2" d="M31.637 45.466h8.321m-14.56 3.12s7.8 4.16 10.4-3.12c2.6 7.28 10.804 3.07 10.804 3.07s-2.693 4.381-3.487 5.234c-4.017 4.313-9.4 4.053-13.672.116-.935-.862-4.046-5.3-4.046-5.3zM22.851 59.39A23.76 23.76 0 0035.481 63h1.038a23.76 23.76 0 0012.63-3.61"/>
</svg>
