<svg viewBox="0 0 72 72" xmlns="http://www.w3.org/2000/svg">
  <path fill="#B3B3B3" d="M68 4v64H4V4h64m4-4H0v72h72V0z"/>
  <path fill="none" stroke="#00A5FF" stroke-miterlimit="10" stroke-width="0.1" d="M12.923 10.958h46.154c1.062 0 1.923.861 1.923 1.923h0v46.154a1.923 1.923 0 01-1.923 1.923H12.923A1.923 1.923 0 0111 59.035h0V12.881c0-1.062.861-1.923 1.923-1.923h0z"/>
  <path fill="none" stroke="#00A5FF" stroke-miterlimit="10" stroke-width="0.1" d="M18.254 4h35.492A2.254 2.254 0 0156 6.254v59.492A2.254 2.254 0 0153.746 68H18.254A2.254 2.254 0 0116 65.746V6.254A2.254 2.254 0 0118.254 4z"/>
  <path fill="none" stroke="#00A5FF" stroke-miterlimit="10" stroke-width="0.1" d="M68 18.254v35.492A2.254 2.254 0 0165.746 56H6.254A2.254 2.254 0 014 53.746V18.254A2.254 2.254 0 016.254 16h59.492A2.254 2.254 0 0168 18.254z"/>
  <circle cx="36" cy="36" r="29" fill="none" stroke="#00A5FF" stroke-miterlimit="10" stroke-width="0.1"/>
  <g fill="none" stroke="#fff" stroke-linecap="round" stroke-linejoin="round" stroke-miterlimit="10" stroke-width="6">
    <path d="M43.18 51.87H28.81c0-4 2.39-7.18 7.18-7.18 4.79 0 7.21 3.19 7.21 7.18M20.28 27.2a6.306 6.306 0 013.39-3 6.304 6.304 0 014.53-.42m22.69 3.42a7.19 7.19 0 00-7.91-3.43"/>
    <circle cx="36" cy="36" r="23"/>
    <path d="M30 34a3.001 3.001 0 01-6 0c0-1.655 1.345-3 3-3s3 1.345 3 3m18 0a3.001 3.001 0 01-6 0c0-1.655 1.345-3 3-3s3 1.345 3 3m-27.305-6.8a6.306 6.306 0 013.39-3 6.304 6.304 0 014.53-.42m22.69 3.42a7.19 7.19 0 00-7.909-3.43"/>
  </g>
  <circle cx="36" cy="36" r="23" fill="#FCEA2B"/>
  <path fill="#FFF" d="M43.18 51.87H28.81c0-4 2.39-7.18 7.18-7.18 4.79 0 7.21 3.19 7.21 7.18"/>
  <path fill="none" stroke="#000" stroke-linecap="round" stroke-linejoin="round" stroke-miterlimit="10" stroke-width="2" d="M43.18 51.87H28.81c0-4 2.39-7.18 7.18-7.18 4.79 0 7.21 3.19 7.21 7.18M20.28 27.2a6.306 6.306 0 013.39-3 6.304 6.304 0 014.53-.42m22.69 3.42a7.19 7.19 0 00-7.91-3.43"/>
  <circle cx="36" cy="36" r="23" fill="none" stroke="#000" stroke-linecap="round" stroke-linejoin="round" stroke-miterlimit="10" stroke-width="2"/>
  <path d="M30 34a3.001 3.001 0 01-6 0c0-1.655 1.345-3 3-3s3 1.345 3 3m18 0a3.001 3.001 0 01-6 0c0-1.655 1.345-3 3-3s3 1.345 3 3"/>
  <path fill="none" stroke="#000" stroke-linecap="round" stroke-linejoin="round" stroke-miterlimit="10" stroke-width="2" d="M20.695 27.2a6.306 6.306 0 013.39-3 6.304 6.304 0 014.53-.42m22.69 3.42a7.19 7.19 0 00-7.909-3.43"/>
</svg>
