<svg viewBox="0 0 72 72" xmlns="http://www.w3.org/2000/svg">
  <path fill="#b3b3b3" d="M68 4v64H4V4h64m4-4H0v72h72V0z"/>
  <path fill="none" stroke="#00a5ff" stroke-miterlimit="10" stroke-width="0.1" d="M12.923 10.958h46.154A1.923 1.923 0 0161 12.881v46.154a1.923 1.923 0 01-1.923 1.923H12.923A1.923 1.923 0 0111 59.035V12.881a1.923 1.923 0 011.923-1.923z"/>
  <rect x="16" y="4" rx="2.254" width="40" height="64" fill="none" stroke="#00a5ff" stroke-miterlimit="10" stroke-width="0.1"/>
  <rect x="16" y="4" rx="2.254" width="40" height="64" transform="rotate(90 36 36)" fill="none" stroke="#00a5ff" stroke-miterlimit="10" stroke-width="0.1"/>
  <circle cx="36" cy="36" r="29" fill="none" stroke="#00a5ff" stroke-miterlimit="10" stroke-width="0.1"/>
  <g fill="none" stroke="#fff" stroke-linecap="round" stroke-linejoin="round" stroke-miterlimit="10" stroke-width="6">
    <path d="M16.995 59.938v-3c0-4.994 5.008-9 10-9q9 7.5 18 0c4.994 0 10 4.006 10 9v3m-13.127-30a2 2 0 01-4 0c0-1.104 2.022-2 3.127-2a3.263 3.263 0 01.873 2m-7.873 0a2 2 0 01-4 0 3.118 3.118 0 011-2c1.104 0 3 .896 3 2m5 8c-1-2-5-2-6 0"/>
    <path d="M26.125 37.863c-3 0-4-7-4-14 0-6 5-12 14-12s14 6 14 12c0 7-1 14-4 14"/>
    <path d="M25.061 30.863c-.101 7.999 4.937 14 11 14 5.937 0 11.064-6 11.064-14 0-5-3-11-3-11-8 0-10 3-16 1 0 0-3 5-3.064 10z"/>
  </g>
  <path fill="#92d3f5" d="M16.995 60.938v-4c0-4.994 5.008-9 10-9q9 7.5 18 0c4.994 0 10 4.006 10 9v4"/>
  <path fill="#fcea2b" d="M25.061 30.863c-.101 7.999 4.064 14 11 14 7.064 0 11.064-6 11.064-14 0-5-3-10-3-10-8 0-10 3-16 1a17.077 17.077 0 00-3.064 9z"/>
  <path fill="#f1b31c" d="M43.904 19.42c-1.466.774-15.477 2.036-15.477 2.036-5.417 2.363-2.432 16.407-2.432 16.407-3 0-4-7-4-14 0-6 5-12 14-12s14 6 14 12c0 7-1 14-4 14 2.498.033-.625-19.217-2.091-18.443z"/>
  <path fill="none" stroke="#000" stroke-linecap="round" stroke-linejoin="round" stroke-width="2" d="M16.995 59.938v-3c0-4.994 5.008-9 10-9q9 7.5 18 0c4.994 0 10 4.006 10 9v3"/>
  <path d="M41.868 29.938a2 2 0 01-4 0c0-1.104 2.022-2 3.127-2a3.263 3.263 0 01.873 2m-7.873 0a2 2 0 01-4 0 3.118 3.118 0 011-2c1.104 0 3 .896 3 2"/>
  <path fill="none" stroke="#000" stroke-linecap="round" stroke-linejoin="round" stroke-width="2" d="M38.995 37.938c-1-2-5-2-6 0m-6.87-.075c-3 0-4-7-4-14 0-6 5-12 14-12s14 6 14 12c0 7-1 14-4 14"/>
  <path fill="none" stroke="#000" stroke-linejoin="round" stroke-width="2" d="M25.061 30.863c-.101 7.999 4.937 14 11 14 5.937 0 11.064-6 11.064-14 0-5-3-11-3-11-8 0-10 3-16 1 0 0-3 5-3.064 10z"/>
</svg>
