<svg viewBox="0 0 72 72" xmlns="http://www.w3.org/2000/svg">
  <path fill="#b3b3b3" d="M68 4v64H4V4h64m4-4H0v72h72V0z"/>
  <path fill="none" stroke="#00a5ff" stroke-miterlimit="10" stroke-width="0.1" d="M12.923 10.958h46.154A1.923 1.923 0 0161 12.881v46.154a1.923 1.923 0 01-1.923 1.923H12.923A1.923 1.923 0 0111 59.035V12.881a1.923 1.923 0 011.923-1.923z"/>
  <rect x="16" y="4" rx="2.254" ry="2.254" width="40" height="64" fill="none" stroke="#00a5ff" stroke-miterlimit="10" stroke-width="0.1"/>
  <rect x="16" y="4" rx="2.254" ry="2.254" width="40" height="64" transform="rotate(90 36 36)" fill="none" stroke="#00a5ff" stroke-miterlimit="10" stroke-width="0.1"/>
  <circle cx="36" cy="36" r="29" fill="none" stroke="#00a5ff" stroke-miterlimit="10" stroke-width="0.1"/>
  <g fill="none" stroke="#fff" stroke-linecap="round" stroke-linejoin="round" stroke-miterlimit="10" stroke-width="6">
    <rect x="21.6" y="15" rx="3.056" ry="3.056" width="28.8" height="33"/>
    <path d="M24 51l-8 9m32-9l8 9M35.166 15L27 8h17l-8.834 7zM47 20v13H26m0 9h4v-4m13 4h4v-4"/>
  </g>
  <path fill="#3f3f3f" d="M21 50L11 61h50L51 50H21z"/>
  <rect x="21.6" y="15" rx="3.056" ry="3.056" width="28.8" height="33" fill="#d0cfce"/>
  <path fill="#61b2e4" d="M25 19h22v14H25z"/>
  <path fill="#92d3f5" d="M47 19H25v14"/>
  <path fill="#fcea2b" d="M25 37h5v5h-5zm17 0h5v5h-5z"/>
  <g fill="none" stroke="#000" stroke-linecap="round" stroke-width="2">
    <rect x="21.6" y="15" rx="3.056" ry="3.056" width="28.8" height="33" stroke-linejoin="round"/>
    <path stroke-miterlimit="10" d="M24 51l-8 9m32-9l8 9"/>
    <path stroke-linejoin="round" d="M35.166 15L27 8h17l-8.834 7zM47 20v13H26m0 9h4v-4m13 4h4v-4"/>
  </g>
</svg>
