<svg viewBox="0 0 72 72" xmlns="http://www.w3.org/2000/svg">
  <path fill="#B3B3B3" d="M68 4v64H4V4h64m4-4H0v72h72V0z"/>
  <path fill="none" stroke="#00A5FF" stroke-miterlimit="10" stroke-width="0.1" d="M12.9 11h46.2c1.1 0 1.9.9 1.9 1.9h0V59c0 1.1-.9 1.9-1.9 1.9H12.9c-1 .1-1.9-.8-1.9-1.9h0V12.9c0-1.1.9-1.9 1.9-1.9h0z"/>
  <path fill="none" stroke="#00A5FF" stroke-miterlimit="10" stroke-width="0.1" d="M18.3 4h35.5C55 4 56 5 56 6.3v59.5c0 1.2-1 2.3-2.3 2.3H18.3C17 68 16 67 16 65.7V6.3C16 5 17 4 18.3 4z"/>
  <path fill="none" stroke="#00A5FF" stroke-miterlimit="10" stroke-width="0.1" d="M68 18.3v35.5c0 1.2-1 2.3-2.3 2.3H6.3C5 56 4 55 4 53.7V18.3C4 17 5 16 6.3 16h59.5c1.2 0 2.2 1 2.2 2.3z"/>
  <circle cx="36" cy="36" r="29" fill="none" stroke="#00A5FF" stroke-miterlimit="10" stroke-width="0.1"/>
  <g fill="none" stroke="#fff" stroke-linecap="round" stroke-linejoin="round" stroke-miterlimit="10" stroke-width="6">
    <path d="M34.1 8.5V3.9h4v4.6m0 30.5v29h-4V38.9m14.8-.4H23.4c-1.1 0-2-.9-2-2V10.9c0-1.1.9-2 2-2h25.5c1.1 0 2 .9 2 2v25.6c0 1.1-.9 2-2 2z"/>
    <circle cx="36.1" cy="23.6" r="10"/>
    <path d="M32.7 18v10.9M39 18v10.9m0-5.5h-6.3"/>
  </g>
  <path fill="#D0CFCE" d="M34.1 3.9h4V68h-4z"/>
  <path fill="#FFF" d="M48.9 38.5H23.4c-1.1 0-2-.9-2-2V10.9c0-1.1.9-2 2-2h25.5c1.1 0 2 .9 2 2v25.6c0 1.1-.9 2-2 2z"/>
  <circle cx="36.1" cy="23.6" r="10" fill="#FCEA2B" stroke="#5C9E31" stroke-linecap="round" stroke-linejoin="round" stroke-miterlimit="10" stroke-width="2"/>
  <g fill="none" stroke="#000" stroke-linecap="round" stroke-linejoin="round" stroke-miterlimit="10" stroke-width="2">
    <path d="M34.1 8.5V3.9h4v4.6m0 30.5v29h-4V38.9m14.8-.4H23.4c-1.1 0-2-.9-2-2V10.9c0-1.1.9-2 2-2h25.5c1.1 0 2 .9 2 2v25.6c0 1.1-.9 2-2 2z"/>
    <circle cx="36.1" cy="23.6" r="10"/>
    <path d="M32.7 18v10.9M39 18v10.9m0-5.5h-6.3"/>
  </g>
  <g fill="none" stroke="#5C9E31" stroke-linecap="round" stroke-linejoin="round" stroke-miterlimit="10" stroke-width="2.1">
    <circle cx="36.1" cy="23.6" r="10"/>
    <path d="M32.7 18v10.9M39 18v10.9m0-5.5h-6.3"/>
  </g>
</svg>
