<svg viewBox="0 0 72 72" xmlns="http://www.w3.org/2000/svg">
  <path fill="#B3B3B3" d="M68 4v64H4V4h64m4-4H0v72h72V0z"/>
  <path fill="none" stroke="#00A5FF" stroke-miterlimit="10" stroke-width="0.1" d="M12.9 11h46.2c1.1 0 1.9.9 1.9 1.9h0V59c0 1.1-.9 1.9-1.9 1.9H12.9c-1 .1-1.9-.8-1.9-1.9h0V12.9c0-1.1.9-1.9 1.9-1.9h0z"/>
  <path fill="none" stroke="#00A5FF" stroke-miterlimit="10" stroke-width="0.1" d="M18.3 4h35.5C55 4 56 5 56 6.3v59.5c0 1.2-1 2.3-2.3 2.3H18.3C17 68 16 67 16 65.7V6.3C16 5 17 4 18.3 4z"/>
  <path fill="none" stroke="#00A5FF" stroke-miterlimit="10" stroke-width="0.1" d="M68 18.3v35.5c0 1.2-1 2.3-2.3 2.3H6.3C5 56 4 55 4 53.7V18.3C4 17 5 16 6.3 16h59.5c1.2 0 2.2 1 2.2 2.3z"/>
  <circle cx="36" cy="36" r="29" fill="none" stroke="#00A5FF" stroke-miterlimit="10" stroke-width="0.1"/>
  <g fill="none" stroke="#fff" stroke-linecap="round" stroke-linejoin="round" stroke-miterlimit="10" stroke-width="6">
    <path d="M42.5 30.1L39 27.7c-.5-.3-1.2-.2-1.5.4l-1.1 2m11.2 21.6l-20.6.4m-18.9 0c-.9-.2-1.7-.5-1.8-1-.1-1-.3-3.8-.3-5.1 0-.5.1-1.1.4-1.5 1.1-2 4.8-6.8 14.9-6.4l10.3-6.9c.5-.3 1.1-.5 1.6-.5l19.6-.1c.3 0 .6 0 .9.1 2.2.6 11.7 4 10.4 12.6l1.1.6c.5.2.9.7 1 1.2.4 1.4.3 2.9-.2 4.3"/>
    <path d="M24.9 40.6l30.2-.2v-4.5"/>
    <circle cx="17.3" cy="51.1" r="5"/>
    <circle cx="57.1" cy="51.1" r="5"/>
    <path d="M12.3 43.6l-1.8 2.2-3.7-.1m17.3-1.6h26"/>
  </g>
  <path fill="#F1B31C" d="M42.5 30.1L39 27.7c-.5-.3-1.2-.2-1.5.4l-1.1 2"/>
  <path fill="#FCEA2B" d="M64.8 44.7l-1.1-.6c-.4-.2-.6-.6-.5-1 .3-1.9.5-8.5-9.7-11.5-.2-.1-.4-.1-.6-.1l-19.6.1c-.4 0-.8.1-1.1.3l-10.3 6.9c-.2.1-.4.2-.6.2-1.9-.1-3.7.1-5.6.4-5.4 1.1-7.6 4-8.4 5.5-.2.3-.2.7-.2 1 .1 2.4-1.5 5.1.9 7.3l19.4-.1 20.4-.5 16.1-.2c.9-.1 2.4-1.4 2.8-2.2 1.7-2.7-1.7-5.4-1.9-5.5z"/>
  <path fill="#9B9B9A" d="M17.3 47.1c-2.2 0-4 1.8-4 4s1.8 4 4 4 4-1.8 4-4-1.8-4-4-4zm39.8 0c-2.2 0-4 1.8-4 4s1.8 4 4 4 4-1.8 4-4-1.8-4-4-4z"/>
  <path fill="#3F3F3F" d="M56.1 40v-4.3c0-.9-.8-1.7-1.7-1.7H33.2c-.1 0-.2 0-.2.1l-8.6 5.7c-.2.1.4.4.5.6.1.1.2.2.3.2 5.6 0 27.2-.2 30.4-.1.3 0 .5-.2.5-.5 0 .1 0 .1 0 0z"/>
  <path fill="#D0CFCE" d="M8.9 41.2l4 1.6-2.1 2.9-5 .1z"/>
  <g fill="none" stroke="#000" stroke-linecap="round" stroke-linejoin="round" stroke-width="2">
    <path stroke-miterlimit="10" d="M42.5 30.1L39 27.7c-.5-.3-1.2-.2-1.5.4l-1.1 2"/>
    <path d="M47.6 51.7l-20.6.4m-18.9 0c-.9-.2-1.7-.5-1.8-1-.1-1-.3-3.8-.3-5.1 0-.5.1-1.1.4-1.5 1.1-2 4.8-6.8 14.9-6.4l10.3-6.9c.5-.3 1.1-.5 1.6-.5l19.6-.1c.3 0 .6 0 .9.1 2.2.6 11.7 4 10.4 12.6l1.1.6c.5.2.9.7 1 1.2.4 1.4.3 2.9-.2 4.3"/>
    <path d="M24.9 40.6l30.2-.2v-4.5"/>
    <circle cx="17.3" cy="51.1" r="5"/>
    <circle cx="57.1" cy="51.1" r="5"/>
    <path d="M12.3 43.6l-1.8 2.2-3.7-.1"/>
    <path stroke-miterlimit="10" d="M24.1 44.1h26"/>
  </g>
  <path fill="none" stroke="#F1B31C" stroke-linecap="round" stroke-linejoin="round" stroke-miterlimit="10" stroke-width="2.1" d="M24.1 44.1h26"/>
</svg>
