<svg viewBox="0 0 72 72" xmlns="http://www.w3.org/2000/svg">
  <path fill="#b3b3b3" d="M68 4v64H4V4h64m4-4H0v72h72V0z"/>
  <path fill="none" stroke="#00a5ff" stroke-miterlimit="10" stroke-width="0.1" d="M12.923 10.958h46.154A1.923 1.923 0 0161 12.881v46.154a1.923 1.923 0 01-1.923 1.923H12.923A1.923 1.923 0 0111 59.035V12.881a1.923 1.923 0 011.923-1.923z"/>
  <rect x="16" y="4" rx="2.254" ry="2.254" width="40" height="64" fill="none" stroke="#00a5ff" stroke-miterlimit="10" stroke-width="0.1"/>
  <rect x="16" y="4" rx="2.254" ry="2.254" width="40" height="64" transform="rotate(90 36 36)" fill="none" stroke="#00a5ff" stroke-miterlimit="10" stroke-width="0.1"/>
  <circle cx="36" cy="36" r="29" fill="none" stroke="#00a5ff" stroke-miterlimit="10" stroke-width="0.1"/>
  <g fill="none" stroke="#fff" stroke-linecap="round" stroke-linejoin="round" stroke-miterlimit="10" stroke-width="6">
    <path d="M4 56h64m0-34L50 9 29 24l-8-8L4 32"/>
    <path d="M23.71 50.646h-.82a.89.89 0 01-.888-.888V28.824a1.902 1.902 0 011.896-1.897h41.485a1.902 1.902 0 011.897 1.897v20.934a.89.89 0 01-.888.888h-.83m-13.03 0H36.406m-2.096 1.252a4.245 4.245 0 11-8.489 0m37.456-.252a4.245 4.245 0 01-8.49 0"/>
    <rect x="34.919" y="32.78" rx="1.058" ry="1.058" width="6.341" height="10.646"/>
    <rect x="21.963" y="32.78" rx="1.058" ry="1.058" width="6.341" height="10.646"/>
    <rect x="47.757" y="32.859" rx="1.058" ry="1.058" width="6.341" height="10.646"/>
    <rect x="60.939" y="32.859" rx="1.058" ry="1.058" width="6.341" height="10.646"/>
    <path d="M20.945 47.566h47.368"/>
  </g>
  <path fill="#b1cc33" d="M22.087 36.099h45.278v12.025H22.087z"/>
  <rect x="34.919" y="32.77" rx="1.058" ry="1.058" width="6.341" height="10.646" fill="#92d3f5"/>
  <rect x="21.963" y="32.77" rx="1.058" ry="1.058" width="6.341" height="10.646" fill="#92d3f5"/>
  <rect x="47.929" y="32.77" rx="1.058" ry="1.058" width="6.341" height="10.646" fill="#92d3f5"/>
  <rect x="60.939" y="32.77" rx="1.058" ry="1.058" width="6.341" height="10.646" fill="#92d3f5"/>
  <path fill="#d0cfce" d="M34.31 51.646a4.245 4.245 0 11-8.489 0m37.456 0a4.245 4.245 0 01-8.49 0"/>
  <path fill="#92d3f5" d="M16 22l5-5 5 5-2 1-2-2-2 2-2-1-3 2-1-1 2-1zm26.167-6.571L50.083 9 58 15.429l-3.167 1.285-3.166-2.571-3.167 2.571-3.167-1.285L40.583 18 39 16.714l3.167-1.285z"/>
  <path fill="#3f3f3f" d="M22.757 47.584h43.938v4.063H22.757z"/>
  <g stroke="#000" stroke-linecap="round">
    <path stroke-linejoin="round" stroke-width="2" d="M4 56h64"/>
    <path fill="none" stroke-linejoin="round" stroke-width="2" d="M68 22L50 9 29 24l-8-8L4 32"/>
    <path fill="none" stroke-miterlimit="10" stroke-width="2.074" d="M23.71 50.646h-.82a.89.89 0 01-.888-.888V28.824a1.902 1.902 0 011.896-1.897h41.485a1.902 1.902 0 011.897 1.897v20.934a.89.89 0 01-.888.888h-.83m-13.03 0H36.406m-2.096 1.252a4.245 4.245 0 11-8.489 0m37.456-.252a4.245 4.245 0 01-8.49 0"/>
    <rect x="34.919" y="32.78" rx="1.058" ry="1.058" width="6.341" height="10.646" fill="none" stroke-miterlimit="10" stroke-width="2.074"/>
    <rect x="21.963" y="32.78" rx="1.058" ry="1.058" width="6.341" height="10.646" fill="none" stroke-miterlimit="10" stroke-width="2.074"/>
    <rect x="47.757" y="32.859" rx="1.058" ry="1.058" width="6.341" height="10.646" fill="none" stroke-miterlimit="10" stroke-width="2.074"/>
    <rect x="60.939" y="32.859" rx="1.058" ry="1.058" width="6.341" height="10.646" fill="none" stroke-miterlimit="10" stroke-width="2.074"/>
    <path fill="none" stroke-miterlimit="10" stroke-width="1.97" d="M20.945 47.566h47.368"/>
  </g>
</svg>
