<svg viewBox="0 0 72 72" xmlns="http://www.w3.org/2000/svg">
  <path fill="#B3B3B3" d="M68 4v64H4V4h64m4-4H0v72h72V0z"/>
  <path fill="none" stroke="#00A5FF" stroke-miterlimit="10" stroke-width="0.1" d="M12.923 10.958h46.154c1.062 0 1.923.861 1.923 1.923v46.154a1.923 1.923 0 01-1.923 1.923H12.923A1.923 1.923 0 0111 59.035h0V12.881c0-1.062.861-1.923 1.923-1.923h0z"/>
  <path fill="none" stroke="#00A5FF" stroke-miterlimit="10" stroke-width="0.1" d="M18.254 4h35.492A2.254 2.254 0 0156 6.254v59.492A2.254 2.254 0 0153.746 68H18.254A2.254 2.254 0 0116 65.746V6.254A2.254 2.254 0 0118.254 4z"/>
  <path fill="none" stroke="#00A5FF" stroke-miterlimit="10" stroke-width="0.1" d="M68 18.254v35.492A2.254 2.254 0 0165.746 56H6.254A2.254 2.254 0 014 53.746V18.254A2.254 2.254 0 016.254 16h59.492A2.254 2.254 0 0168 18.254z"/>
  <circle cx="36" cy="36" r="29" fill="none" stroke="#00A5FF" stroke-miterlimit="10" stroke-width="0.1"/>
  <g fill="none" stroke="#fff" stroke-linecap="round" stroke-linejoin="round" stroke-miterlimit="10" stroke-width="6">
    <path d="M63.453 47.074a.487.487 0 00.147-.333l.066-1.456c.01-.218-.117-.41-.302-.455l-1.903-.475-5.017-3.268a.354.354 0 00-.15-.056L25.72 37.22s-18.657.11-18.883 3.205c-.226 3.096 12.147 8.64 12.147 8.64s.31.314 3.25.674"/>
    <path d="M45.734 39.715s-6.847-5.39-15.02-6.203a.367.367 0 00-.25.07l-5.142 3.665 20.412 2.468zM5 47c3 0 9 3 15 3s10-3 16-3 11 3 16 3 7-3 15-3"/>
  </g>
  <path fill="#FFF" d="M25.72 37.219s-18.658.11-18.884 3.205c-.226 3.096 12.147 8.64 12.147 8.64s.781.792 11.647 1.303c10.867.51 28.142 1.092 28.142 1.092l4.68-4.385a.487.487 0 00.148-.333l.066-1.456c.01-.218-.117-.41-.302-.455l-1.903-.475-5.017-3.268a.354.354 0 00-.15-.056L25.72 37.22z"/>
  <path fill="#92D3F5" d="M45.734 39.715s-6.847-5.39-15.02-6.203a.367.367 0 00-.25.07l-5.142 3.665 20.412 2.468z"/>
  <path fill="none" stroke="#EA5A47" stroke-linecap="round" stroke-linejoin="round" stroke-miterlimit="10" stroke-width="1.86" d="M13.872 41.048s24.987 2.43 42.391 5.445"/>
  <path fill="#92D3F5" d="M68 47v22H4V47h1c3 0 9 3 15 3s10-3 16-3 11 3 16 3 7-3 15-3h1z"/>
  <path fill="none" d="M68 39.02v16H4v-16"/>
  <g fill="none" stroke="#000" stroke-linecap="round" stroke-linejoin="round" stroke-miterlimit="10">
    <path stroke-width="1.86" d="M63.453 47.074a.487.487 0 00.147-.333l.066-1.456c.01-.218-.117-.41-.302-.455l-1.903-.475-5.017-3.268a.354.354 0 00-.15-.056L25.72 37.22s-18.657.11-18.883 3.205c-.226 3.096 12.147 8.64 12.147 8.64s.31.314 3.25.674"/>
    <path stroke-width="1.86" d="M45.734 39.715s-6.847-5.39-15.02-6.203a.367.367 0 00-.25.07l-5.142 3.665 20.412 2.468z"/>
    <path stroke-width="2" d="M5 47c3 0 9 3 15 3s10-3 16-3 11 3 16 3 7-3 15-3"/>
  </g>
</svg>
