<svg viewBox="0 0 72 72" xmlns="http://www.w3.org/2000/svg">
  <path fill="#b3b3b3" d="M68 4v64H4V4h64m4-4H0v72h72V0z"/>
  <path fill="none" stroke="#00a5ff" stroke-miterlimit="10" stroke-width="0.1" d="M12.923 10.958h46.154A1.923 1.923 0 0161 12.881v46.154a1.923 1.923 0 01-1.923 1.923H12.923A1.923 1.923 0 0111 59.035V12.881a1.923 1.923 0 011.923-1.923z"/>
  <rect x="16" y="4" rx="2.254" width="40" height="64" fill="none" stroke="#00a5ff" stroke-miterlimit="10" stroke-width="0.1"/>
  <rect x="16" y="4" rx="2.254" width="40" height="64" transform="rotate(90 36 36)" fill="none" stroke="#00a5ff" stroke-miterlimit="10" stroke-width="0.1"/>
  <circle cx="36" cy="36" r="29" fill="none" stroke="#00a5ff" stroke-miterlimit="10" stroke-width="0.1"/>
  <path fill="none" stroke="#fff" stroke-linecap="round" stroke-linejoin="round" stroke-miterlimit="10" stroke-width="6" d="M5 42h62v7H5zm0-1.01v-4c0-1.65 1.35-3 3-3h13.83M5 55.03V16.97m62 10.07v28M15.08 27.66a3 3 0 115.71.436M22 41.99v-14s.21-2.106 2-3c2-1 9.301-.959 12.3-1.959 6.789-2.263 18.59 3.356 23 6 5 3 7.699 1.813 7.699 4.959M5.042 29.9c1.854-1.855 9.25-3.042 15.96-.917"/>
  <path fill="#a57939" d="M5 42.5h62V49H5z"/>
  <path fill="#d0cfce" d="M5 42v-4c0-1.65 1.35-3 3-3h56c1.65 0 3 1.35 3 3v4"/>
  <path fill="#92d3f5" d="M5.125 30.44s4.875-3.688 16.88-.688v4l-15 1-.813 1.25-1.062-1.625-.125-3.625z"/>
  <path fill="#92d3f5" d="M22 41.6V28.88s.267-3.099 2.535-4.415c2.535-1.472 7.606 0 11.41-1.472 8.606-3.331 19.96 2.94 25.55 6.831 7.497 2.256 5.579 7.111 5.505 12.17"/>
  <path fill="#fcea2b" d="M15.08 27.56a3 3 0 115.71.436"/>
  <path fill="none" stroke="#000" stroke-linecap="round" stroke-linejoin="round" stroke-miterlimit="10" stroke-width="2" d="M5 42h62v7H5zm0-1.01v-4c0-1.65 1.35-3 3-3h13.83M5 55.03V16.97m62 10.07v28M15.08 27.66a3 3 0 115.71.436M22 41.99v-14s.21-2.106 2-3c2-1 9.301-.959 12.3-1.959 6.789-2.263 18.59 3.356 23 6 5 3 7.699 1.813 7.699 4.959M5.042 29.9c1.854-1.855 9.25-3.042 15.96-.917"/>
</svg>
