<svg viewBox="0 0 72 72" xmlns="http://www.w3.org/2000/svg">
  <path fill="#b3b3b3" d="M68 4v64H4V4h64m4-4H0v72h72V0z"/>
  <path fill="none" stroke="#00a5ff" stroke-miterlimit="10" stroke-width="0.1" d="M12.923 10.958h46.154A1.923 1.923 0 0161 12.881v46.154a1.923 1.923 0 01-1.923 1.923H12.923A1.923 1.923 0 0111 59.035V12.881a1.923 1.923 0 011.923-1.923z"/>
  <rect x="16" y="4" rx="2.254" ry="2.254" width="40" height="64" fill="none" stroke="#00a5ff" stroke-miterlimit="10" stroke-width="0.1"/>
  <rect x="16" y="4" rx="2.254" ry="2.254" width="40" height="64" transform="rotate(90 36 36)" fill="none" stroke="#00a5ff" stroke-miterlimit="10" stroke-width="0.1"/>
  <circle cx="36" cy="36" r="29" fill="none" stroke="#00a5ff" stroke-miterlimit="10" stroke-width="0.1"/>
  <g fill="none" stroke="#fff" stroke-linecap="round" stroke-linejoin="round" stroke-miterlimit="10" stroke-width="6">
    <path d="M17 21.552h-5.657v31.761H17m.194-31.761h37.612v31.761H17.194zm37.944-.035l5.66.051-.283 31.76-5.66-.051"/>
    <path d="M45 21.552h9.657v31.761H45"/>
    <circle cx="15.522" cy="58.328" r="1.672"/>
    <circle cx="9.672" cy="58.328" r="1.672"/>
    <circle cx="62.328" cy="58.328" r="1.672"/>
    <circle cx="56.478" cy="58.328" r="1.672"/>
    <circle cx="50.627" cy="58.328" r="1.672"/>
    <circle cx="44.776" cy="58.328" r="1.672"/>
    <circle cx="38.925" cy="58.328" r="1.672"/>
    <circle cx="33.075" cy="58.328" r="1.672"/>
    <circle cx="27.224" cy="58.328" r="1.672"/>
    <circle cx="21.373" cy="58.328" r="1.672"/>
    <path d="M28 21v-4s0-4 4.714-4H39"/>
    <path d="M44 21v-4s0-4-4.714-4H33"/>
  </g>
  <path fill="#61b2e4" d="M43 21h18v33H43z"/>
  <path fill="#92d3f5" d="M11 21h32v33H11z"/>
  <g>
    <path fill="none" stroke="#000" stroke-linecap="round" stroke-linejoin="round" stroke-width="2" d="M17 21.552h-5.657v31.761H17m.194-31.761h37.612v31.761H17.194zm37.944-.035l5.66.051-.283 31.76-5.66-.051"/>
    <path fill="none" stroke="#000" stroke-linecap="round" stroke-linejoin="round" stroke-width="2" d="M45 21.552h9.657v31.761H45"/>
    <circle cx="15.522" cy="58.328" r="1.672"/>
    <circle cx="9.672" cy="58.328" r="1.672"/>
    <circle cx="62.328" cy="58.328" r="1.672"/>
    <circle cx="56.478" cy="58.328" r="1.672"/>
    <circle cx="50.627" cy="58.328" r="1.672"/>
    <circle cx="44.776" cy="58.328" r="1.672"/>
    <circle cx="38.925" cy="58.328" r="1.672"/>
    <circle cx="33.075" cy="58.328" r="1.672"/>
    <circle cx="27.224" cy="58.328" r="1.672"/>
    <circle cx="21.373" cy="58.328" r="1.672"/>
    <g fill="none" stroke="#000" stroke-linecap="round" stroke-linejoin="round" stroke-width="2">
      <path d="M28 21v-4s0-4 4.714-4H39"/>
      <path d="M44 21v-4s0-4-4.714-4H33"/>
    </g>
  </g>
</svg>
