<svg viewBox="0 0 72 72" xmlns="http://www.w3.org/2000/svg">
  <path fill="#b3b3b3" d="M68 3.405v64H4v-64h64m4-4H0v72h72v-72z"/>
  <path fill="none" stroke="#00a5ff" stroke-miterlimit="10" stroke-width="0.1" d="M12.923 10.363h46.154A1.923 1.923 0 0161 12.286V58.44a1.923 1.923 0 01-1.923 1.923H12.923A1.923 1.923 0 0111 58.44V12.286a1.923 1.923 0 011.923-1.923z"/>
  <rect x="16" y="3.405" rx="2.254" width="40" height="64" fill="none" stroke="#00a5ff" stroke-miterlimit="10" stroke-width="0.1"/>
  <rect x="16" y="3.405" rx="2.254" width="40" height="64" transform="rotate(90 36 35.405)" fill="none" stroke="#00a5ff" stroke-miterlimit="10" stroke-width="0.1"/>
  <circle cx="36" cy="35.405" r="29" fill="none" stroke="#00a5ff" stroke-miterlimit="10" stroke-width="0.1"/>
  <g fill="none" stroke="#fff" stroke-linecap="round" stroke-linejoin="round" stroke-miterlimit="10" stroke-width="6">
    <path d="M17 43.458h38v9.3H17zm0 9.301h38v10.7H17zm26.5-14.323h7.624v5.022H21.129v-5.022h7.049M27 24.408h18v4.05H27zm-2 8.205v-4.126h22v4.126m-9.483.334H50v5.022h-7.37M29.092 20.344h13.842v4.05H29.092z"/>
    <path d="M25.311 42.651l10.751-10.752 10.752 10.752m-17.329-4.682h-6.898v-5.022h11.937M41.5 63.458h-11v-7h11v7z"/>
    <path d="M34.062 63.458v-7h4v7m10.938-3h-2v-4m-23-7h-2v-2m28 2h-2v-2m-4.5 2h-2v-2m-4.5 2h-2v-2m-4.5 2h-2v-2m-3.5 13h-2v-4"/>
    <circle cx="36.063" cy="12.381" r="5"/>
    <path d="M36.063 17.669v2.386"/>
  </g>
  <path fill="#f4aa41" d="M17 52.759h38v10.7H17zm0-9.301h38v9.3H17z"/>
  <path fill="#92d3f5" stroke="#92d3f5" stroke-linecap="round" stroke-linejoin="round" stroke-width="2" d="M47 56.458h2v4h-2zm-24 0h2v4h-2zm25-9.022h2v2h-2zm-6.5 0h2v2h-2zm-6.5 0h2v2h-2zm-6.5 0h2v2h-2zm-6.5 0h2v2h-2z"/>
  <circle cx="36.063" cy="12.381" r="5" fill="#f4aa41"/>
  <path fill="#f4aa41" d="M21.129 38.437h29.995v5.022H21.129zM27 23.408h18v4.05H27zm-2 5.079h22v6.971H25z"/>
  <path fill="#f4aa41" d="M22.587 33.521H50v3.875H22.587zM29.5 19.78h13v4.05h-13z"/>
  <path fill="#e27022" d="M37.583 7.511a4.969 4.969 0 01-5 8.32 4.99 4.99 0 105-8.32zm-12.272 35.14l10.751-10.752 10.752 10.752M41.5 63.458h-11v-7h11v7z"/>
  <g fill="none" stroke="#000" stroke-linecap="round" stroke-linejoin="round" stroke-width="2">
    <path d="M17 43.458h38v9.3H17zm0 9.301h38v10.7H17zm26.5-14.323h7.624v5.022H21.129v-5.022h7.049M27 24.408h18v4.05H27zm-2 8.205v-4.126h22v4.126m-9.483.334H50v5.022h-7.37M29.092 20.344h13.842v4.05H29.092z"/>
    <path d="M25.311 42.651l10.751-10.752 10.752 10.752m-17.329-4.682h-6.898v-5.022h11.937M41.5 63.458h-11v-7h11v7z"/>
    <path d="M34.062 63.458v-7h4v7m10.938-3h-2v-4m-23-7h-2v-2m28 2h-2v-2m-4.5 2h-2v-2m-4.5 2h-2v-2m-4.5 2h-2v-2m-3.5 13h-2v-4"/>
    <circle cx="36.063" cy="12.381" r="5"/>
    <path d="M36.063 17.669v2.386"/>
  </g>
</svg>
