<svg viewBox="0 0 72 72" xmlns="http://www.w3.org/2000/svg">
  <path fill="#b3b3b3" d="M68 4v64H4V4h64m4-4H0v72h72V0z"/>
  <path fill="none" stroke="#00a5ff" stroke-miterlimit="10" stroke-width="0.1" d="M12.923 10.958h46.154A1.923 1.923 0 0161 12.881v46.154a1.923 1.923 0 01-1.923 1.923H12.923A1.923 1.923 0 0111 59.035V12.881a1.923 1.923 0 011.923-1.923z"/>
  <rect x="16" y="4" rx="2.254" width="40" height="64" fill="none" stroke="#00a5ff" stroke-miterlimit="10" stroke-width="0.1"/>
  <rect x="16" y="4" rx="2.254" width="40" height="64" transform="rotate(90 36 36)" fill="none" stroke="#00a5ff" stroke-miterlimit="10" stroke-width="0.1"/>
  <circle cx="36" cy="36" r="29" fill="none" stroke="#00a5ff" stroke-miterlimit="10" stroke-width="0.1"/>
  <g fill="none" stroke="#fff" stroke-linecap="round" stroke-linejoin="round" stroke-miterlimit="10" stroke-width="6">
    <path d="M19.974 39.14L7.542 34.735 4.475 35.81l8.169 7.322m34.406-8.439l-24.605-2.052-2.093 1.493 16.754 5.979"/>
    <path d="M43.174 31.323l11.15-4.486a10.312 10.312 0 014.172-.74c3.7.113 10.39.667 8.057 3.23-3.17 3.484-25.425 12.196-32.001 14.651s-14.712 3.75-20.337 3.86c-4.924.094.59-2.892.59-2.892s6.255-3.55 9.024-4.757l2.784-1.213"/>
  </g>
  <path fill="#9b9b9a" d="M24 39.754L8.12 34.508l-4.438 1.375 10.34 9.352"/>
  <path fill="#d0cfce" d="M42.589 30.773l13.635-4.637s13.5-.23 10.33 3.255c-3.171 3.484-25.426 12.196-32.002 14.65-6.577 2.456-14.712 3.75-20.337 3.86-4.924.095.59-2.892.59-2.892s6.255-3.55 9.024-4.756l2.635-1.95"/>
  <path fill="#9b9b9a" d="M47.05 35.429L22.446 32.64l-2.093 1.493 17.41 6.212"/>
  <g fill="none" stroke="#000" stroke-linecap="round" stroke-linejoin="round" stroke-miterlimit="10" stroke-width="1.56">
    <path d="M19.974 39.14L7.542 34.735 4.475 35.81l8.169 7.322m34.406-8.439l-24.605-2.052-2.093 1.493 16.754 5.979"/>
    <path d="M43.174 31.323l11.15-4.486a10.312 10.312 0 014.172-.74c3.7.113 10.39.667 8.057 3.23-3.17 3.484-25.425 12.196-32.001 14.651s-14.712 3.75-20.337 3.86c-4.924.094.59-2.892.59-2.892s6.255-3.55 9.024-4.757l2.784-1.213"/>
  </g>
</svg>
