<svg viewBox="0 0 72 72" xmlns="http://www.w3.org/2000/svg">
  <path fill="#b3b3b3" d="M68 4v64H4V4h64m4-4H0v72h72V0z"/>
  <path fill="none" stroke="#00a5ff" stroke-miterlimit="10" stroke-width="0.1" d="M12.923 10.958h46.154A1.923 1.923 0 0161 12.881v46.154a1.923 1.923 0 01-1.923 1.923H12.923A1.923 1.923 0 0111 59.035V12.881a1.923 1.923 0 011.923-1.923z"/>
  <rect x="16" y="4" rx="2.254" width="40" height="64" fill="none" stroke="#00a5ff" stroke-miterlimit="10" stroke-width="0.1"/>
  <rect x="16" y="4" rx="2.254" width="40" height="64" transform="rotate(90 36 36)" fill="none" stroke="#00a5ff" stroke-miterlimit="10" stroke-width="0.1"/>
  <circle cx="36" cy="36" r="29" fill="none" stroke="#00a5ff" stroke-miterlimit="10" stroke-width="0.1"/>
  <path fill="none" stroke="#fff" stroke-linecap="round" stroke-linejoin="round" stroke-miterlimit="10" stroke-width="6" d="M32 46v-9m21 9v-9M12.89 49.34a9.795 9.795 0 01-3.872-13.293m54.633-1.262l-40.16-.109m-4.775 11.971l44.838.164v3.974l-46.063-.109M15.725 39.92c-1.338 2.317-.464 6.434 2.99 6.728M9.018 36.047a3.872 3.872 0 016.707 3.873"/>
  <path fill="#92d3f5" d="M16.045 35.531c-1.386 2.4-1.501 10.654 2.055 10.945l44.803-.015a1.562 1.562 0 011.44 1.737l.047.897c-.001.957-.91 2.495-1.71 2.394l-45.594-.134c-1.616.027-3.478-1.198-4.994-2.074-4.915-2.837-4.678-9.984-1.938-14.729"/>
  <path fill="#61b2e4" d="M15.527 48.871a7.898 7.898 0 01-4.837-2.097c1.082 2.368 4.055 4.679 6.757 4.582l43.812.106c.836.072 2.578-1.23 2.555-2.055l.055-.487-.066.083M14.31 34.519a4.316 4.316 0 00-1.261 5.957s1.052 1.825 2.183 1.02a1.105 1.105 0 00.079-1.263 2.09 2.09 0 01.758-2.693m47.423 11.661l-47.276-.131"/>
  <path fill="#92d3f5" d="M62.37 51.687l-44.596-.134m1.014-4.879l43.804-.015"/>
  <path fill="#61b2e4" d="M18.136 51.554l43.813.106M14.92 42.693a1.105 1.105 0 00.08-1.262 2.09 2.09 0 01.758-2.693"/>
  <g fill="none" stroke="#000" stroke-linecap="round" stroke-linejoin="round" stroke-width="2">
    <path d="M32 46v-9m21 9v-9M12.89 49.34a9.795 9.795 0 01-3.872-13.293m54.633-1.262l-40.16-.109m-4.775 11.971l44.838.164v3.974l-46.063-.109M15.725 39.92c-1.338 2.317-.464 6.434 2.99 6.728M9.018 36.047a3.872 3.872 0 016.707 3.873"/>
  </g>
</svg>
