<svg viewBox="0 0 72 72" xmlns="http://www.w3.org/2000/svg">
  <path fill="#b3b3b3" d="M68 4v64H4V4h64m4-4H0v72h72V0z"/>
  <path fill="none" stroke="#00a5ff" stroke-miterlimit="10" stroke-width="0.1" d="M12.923 10.958h46.154A1.923 1.923 0 0161 12.881v46.154a1.923 1.923 0 01-1.923 1.923H12.923A1.923 1.923 0 0111 59.035V12.881a1.923 1.923 0 011.923-1.923z"/>
  <rect x="16" y="4" rx="2.254" width="40" height="64" fill="none" stroke="#00a5ff" stroke-miterlimit="10" stroke-width="0.1"/>
  <rect x="16" y="4" rx="2.254" width="40" height="64" transform="rotate(90 36 36)" fill="none" stroke="#00a5ff" stroke-miterlimit="10" stroke-width="0.1"/>
  <circle cx="36" cy="36" r="29" fill="none" stroke="#00a5ff" stroke-miterlimit="10" stroke-width="0.1"/>
  <g fill="none" stroke="#fff" stroke-linecap="round" stroke-linejoin="round" stroke-miterlimit="10" stroke-width="6">
    <circle cx="51" cy="47.999" r="3"/>
    <circle cx="21" cy="47.999" r="3"/>
    <path d="M56.408 43H15.592c-2.86 0-5.446-3.478-5.466-3.513a1 1 0 011.696-1.054c.526.696 2.364 2.567 3.77 2.567h40.816c1.433 0 3.273-1.938 3.804-2.615a1 1 0 011.577 1.23C61.52 39.96 59.073 43 56.41 43zM52 46.267a2 2 0 11-2 3.464m-28-3.464a2 2 0 11-2 3.464"/>
  </g>
  <circle cx="51" cy="47.999" r="3"/>
  <circle cx="21" cy="47.999" r="3"/>
  <path fill="#61b2e4" d="M56.408 43H15.592c-2.898 0-5.451-3.486-5.47-3.522a.995.995 0 01-.122-.477v-2a1 1 0 011.786-.618C12.321 37.06 14.17 39 15.592 39h40.816c1.433 0 3.273-1.938 3.804-2.615A1 1 0 0162 37v2a.998.998 0 01-.21.614c-.271.347-2.717 3.386-5.382 3.386zm-40.816-2zm45.407-1.999zm-49.999 0z"/>
  <g fill="#d22f27">
    <circle cx="51" cy="47.999" r="3"/>
    <circle cx="21" cy="47.999" r="3"/>
  </g>
  <g>
    <path d="M56.408 43H15.592c-2.86 0-5.446-3.478-5.466-3.513a1 1 0 011.696-1.054c.526.696 2.364 2.567 3.77 2.567h40.816c1.433 0 3.273-1.938 3.804-2.615a1 1 0 011.577 1.23C61.52 39.96 59.073 43 56.41 43z"/>
    <path fill="none" stroke="#000" stroke-linecap="round" stroke-miterlimit="10" stroke-width="2" d="M52 46.267a2 2 0 11-2 3.464m-28-3.464a2 2 0 11-2 3.464"/>
  </g>
</svg>
