<svg viewBox="0 0 72 72" xmlns="http://www.w3.org/2000/svg">
  <path fill="#B3B3B3" d="M68 4v64H4V4h64m4-4H0v72h72V0z"/>
  <path fill="none" stroke="#00A5FF" stroke-miterlimit="10" stroke-width="0.1" d="M12.923 10.958h46.154c1.062 0 1.923.861 1.923 1.923v46.154a1.923 1.923 0 01-1.923 1.923H12.923A1.923 1.923 0 0111 59.035h0V12.881c0-1.062.861-1.923 1.923-1.923h0z"/>
  <path fill="none" stroke="#00A5FF" stroke-miterlimit="10" stroke-width="0.1" d="M18.254 4h35.492A2.254 2.254 0 0156 6.254v59.492A2.254 2.254 0 0153.746 68H18.254A2.254 2.254 0 0116 65.746V6.254A2.254 2.254 0 0118.254 4z"/>
  <path fill="none" stroke="#00A5FF" stroke-miterlimit="10" stroke-width="0.1" d="M68 18.254v35.492A2.254 2.254 0 0165.746 56H6.254A2.254 2.254 0 014 53.746V18.254A2.254 2.254 0 016.254 16h59.492A2.254 2.254 0 0168 18.254z"/>
  <circle cx="36" cy="36" r="29" fill="none" stroke="#00A5FF" stroke-miterlimit="10" stroke-width="0.1"/>
  <g fill="none" stroke="#fff" stroke-linecap="round" stroke-linejoin="round" stroke-miterlimit="10" stroke-width="6">
    <path d="M18 25.438L16 14.25c-.875-4.498-7.688-3.625-7.188 1.75 0 0 3.89 21.948 4.448 29.348v-.256c.54 10.572 9.862 17.338 20.43 16.798a24.955 24.955 0 0016.192-7.196c3.712-3.932 12.83-14.674 12.83-14.674 1.861-2.746.418-6.99-1.019-5.944l-12.562 5.916.319-.107c-2.398.847-3.04-1.532-2.825-3.245l2.111-27.884c.527-6.768-7.258-6.585-7.258-.962L40.312 23.5"/>
    <path d="M30.04 27.604c.237-2.152 1.76-3.41 3.807-3.455 1.914-.043 3.94.957 3.96 3.277 0 0 .196 6.96.158 7.305a3.92 3.92 0 01-4.325 3.467c-2.152-.237-3.382-2.198-3.467-4.325l-.134-6.269zm-7.931 0c.237-2.152 1.76-3.41 3.807-3.455 1.914-.043 3.941.957 3.96 3.277 0 0 .196 6.96.158 7.305a3.92 3.92 0 01-4.325 3.467c-2.152-.237-3.382-2.198-3.467-4.325l-.133-6.269z"/>
  </g>
  <path fill="#FCEA2B" d="M18 25.438L16 14.25c-.875-4.498-7.688-3.625-7.188 1.75 0 0 3.89 21.948 4.448 29.348v-.256c.54 10.572 9.862 17.338 20.43 16.798a24.955 24.955 0 0016.192-7.196c3.712-3.932 12.83-14.674 12.83-14.674 1.861-2.746.418-6.99-1.019-5.944l-12.562 5.916.319-.107c-2.398.847-3.04-1.532-2.825-3.245l2.111-27.884c.527-6.768-7.258-6.585-7.258-.962L40.312 23.5l-9.678.84-.595.602-.676-.491L18 25.437z"/>
  <g fill="none" stroke="#000" stroke-linecap="round" stroke-linejoin="round" stroke-width="2">
    <path d="M18 25.438L16 14.25c-.875-4.498-7.688-3.625-7.188 1.75 0 0 3.89 21.948 4.448 29.348v-.256c.54 10.572 9.862 17.338 20.43 16.798a24.955 24.955 0 0016.192-7.196c3.712-3.932 12.83-14.674 12.83-14.674 1.861-2.746.418-6.99-1.019-5.944l-12.562 5.916.319-.107c-2.398.847-3.04-1.532-2.825-3.245l2.111-27.884c.527-6.768-7.258-6.585-7.258-.962L40.312 23.5"/>
    <path d="M30.04 27.604c.237-2.152 1.76-3.41 3.807-3.455 1.914-.043 3.94.957 3.96 3.277 0 0 .196 6.96.158 7.305a3.92 3.92 0 01-4.325 3.467c-2.152-.237-3.382-2.198-3.467-4.325l-.134-6.269zm-7.931 0c.237-2.152 1.76-3.41 3.807-3.455 1.914-.043 3.941.957 3.96 3.277 0 0 .196 6.96.158 7.305a3.92 3.92 0 01-4.325 3.467c-2.152-.237-3.382-2.198-3.467-4.325l-.133-6.269z"/>
  </g>
</svg>
