<svg viewBox="0 0 72 72" xmlns="http://www.w3.org/2000/svg">
  <path fill="#B3B3B3" d="M68 4v64H4V4h64m4-4H0v72h72V0z"/>
  <path fill="none" stroke="#00A5FF" stroke-miterlimit="10" stroke-width="0.1" d="M12.92 10.96h46.15c1.062 0 1.923.861 1.923 1.923v46.15a1.923 1.923 0 01-1.923 1.923H12.92a1.923 1.923 0 01-1.923-1.923v-46.15c0-1.062.861-1.923 1.923-1.923z"/>
  <path fill="none" stroke="#00A5FF" stroke-miterlimit="10" stroke-width="0.1" d="M18.254 4h35.492A2.254 2.254 0 0156 6.254v59.492A2.254 2.254 0 0153.746 68H18.254A2.254 2.254 0 0116 65.746V6.254A2.254 2.254 0 0118.254 4z"/>
  <path fill="none" stroke="#00A5FF" stroke-miterlimit="10" stroke-width="0.1" d="M68 18.254v35.492A2.254 2.254 0 0165.746 56H6.254A2.254 2.254 0 014 53.746V18.254A2.254 2.254 0 016.254 16h59.492A2.254 2.254 0 0168 18.254z"/>
  <circle cx="36" cy="36" r="29" fill="none" stroke="#00A5FF" stroke-miterlimit="10" stroke-width="0.1"/>
  <g fill="none" stroke="#fff" stroke-linecap="round" stroke-linejoin="round" stroke-miterlimit="10" stroke-width="6">
    <path d="M28.62 47.58l-8.321-9.639c-1.259-1.566-2.241-1.872-3.285-2.118l-8.882-1.886c-4.51-4.994-4.117-12.7.879-17.21l50.44 2.046c3.234.327 6.975 2.322 7.548 6.505l-.016 20.1c.297 3.704-3.756 5.024-8.024 3.397.983 8.288-2.948 9.393-7.308 8.288l-20.54-7.602c-1.044-.449-1.785-1.149-2.487-1.883z"/>
    <path d="M56.69 29.67c0 3.99-4.807 4.267-10.75 4.267.491 3.96 2.549 8.472 9.856 12.76"/>
    <path d="M56.69 29.67c0 3.99-4.807 4.267-10.75 4.267.491 3.96 2.549 8.472 9.856 12.76"/>
  </g>
  <path fill="#fcea2b" d="M66.8 45.39c.295 3.704-3.753 5.02-8.026 3.399.982 8.281-2.947 9.392-7.309 8.281l-20.53-7.604c-1.248-.393-1.719-.943-2.485-1.876l-8.321-9.647c-1.257-1.562-2.24-1.867-3.291-2.112l-8.881-1.886c-4.509-5-4.116-12.7.884-17.21l50.43 2.043c3.232.334 6.975 2.328 7.545 6.513z"/>
  <g fill="none" stroke="#000" stroke-linecap="round" stroke-linejoin="round" stroke-miterlimit="10" stroke-width="2">
    <path d="M28.62 47.58l-8.321-9.639c-1.259-1.566-2.241-1.872-3.285-2.118l-8.882-1.886c-4.51-4.994-4.117-12.7.879-17.21l50.44 2.046c3.234.327 6.975 2.322 7.548 6.505l-.016 20.1c.297 3.704-3.756 5.024-8.024 3.397.983 8.288-2.948 9.393-7.308 8.288l-20.54-7.602c-1.044-.449-1.785-1.149-2.487-1.883z"/>
    <path d="M56.69 29.67c0 3.99-4.807 4.267-10.75 4.267.491 3.96 2.549 8.472 9.856 12.76"/>
    <path d="M56.69 29.67c0 3.99-4.807 4.267-10.75 4.267.491 3.96 2.549 8.472 9.856 12.76"/>
  </g>
</svg>
