<svg viewBox="0 0 72 72" xmlns="http://www.w3.org/2000/svg">
  <path fill="#B3B3B3" d="M68 4v64H4V4h64m4-4H0v72h72V0z"/>
  <path fill="none" stroke="#00A5FF" stroke-miterlimit="10" stroke-width="0.1" d="M12.923 10.958h46.154c1.062 0 1.923.861 1.923 1.923h0v46.154a1.923 1.923 0 01-1.923 1.923H12.923A1.923 1.923 0 0111 59.035h0V12.881c0-1.062.861-1.923 1.923-1.923h0z"/>
  <path fill="none" stroke="#00A5FF" stroke-miterlimit="10" stroke-width="0.1" d="M18.254 4h35.492A2.254 2.254 0 0156 6.254v59.492A2.254 2.254 0 0153.746 68H18.254A2.254 2.254 0 0116 65.746V6.254A2.254 2.254 0 0118.254 4z"/>
  <path fill="none" stroke="#00A5FF" stroke-miterlimit="10" stroke-width="0.1" d="M68 18.254v35.492A2.254 2.254 0 0165.746 56H6.254A2.254 2.254 0 014 53.746V18.254A2.254 2.254 0 016.254 16h59.492A2.254 2.254 0 0168 18.254z"/>
  <circle cx="36" cy="36" r="29" fill="none" stroke="#00A5FF" stroke-miterlimit="10" stroke-width="0.1"/>
  <g fill="none" stroke="#fff" stroke-linecap="round" stroke-linejoin="round" stroke-miterlimit="10" stroke-width="6">
    <circle cx="36" cy="36" r="23"/>
    <path d="M31.96 31.29a4.464 4.464 0 11-4.463-4.463c2.463 0 4.463 2 4.463 4.463"/>
    <path d="M28.52 32.3a2 2 0 11-4 0 2 2 0 014 0m22.52.53c0 3.364-2.73 6.091-6.091 6.091s-6.091-2.727-6.091-6.091c0-3.361 2.73-6.091 6.091-6.091s6.091 2.73 6.091 6.091"/>
    <path d="M49.04 32.1a2.73 2.73 0 01-5.46 0c0-1.506 1.224-2.73 2.73-2.73s2.73 1.224 2.73 2.73m-9.96-8.16c.413-.344 2.246-1.792 4.909-1.636 2.161.126 3.61 1.233 4.091 1.636M23 23.57c.413-.344 2.246-1.792 4.909-1.636 2.161.126 3.61 1.233 4.091 1.636m8.46 25.56c.01-.01.01-.02.01-.02 1.4-1.62 2.02-3.37 2.18-3.512L27 42.249c.228.472-.522 6.682 4.108 8.862"/>
    <path d="M41.5 45.68c-1.293 5.936-4.618 10.25-7.426 9.64s-4.037-5.92-2.744-11.86"/>
  </g>
  <path fill="#FCEA2B" d="M36 13c-12.68 0-23 10.32-23 23s10.32 23 23 23 23-10.32 23-23-10.32-23-23-23z"/>
  <path fill="#fff" d="M31.76 31.17a4.464 4.464 0 11-4.463-4.463c2.463 0 4.463 2 4.463 4.463zm19.08 1.55c0 3.364-2.73 6.091-6.091 6.091s-6.091-2.727-6.091-6.091c0-3.361 2.73-6.091 6.091-6.091s6.091 2.73 6.091 6.091zm-7.98 13.32c-.339.292-4.957 7.343-9.91 6.064-4.463-1.152-5.49-8.887-5.736-9.413 5.215 1.116 10.43 2.233 15.65 3.349z"/>
  <path fill="#ea5a47" d="M41.71 46.13c-1.293 5.936-4.618 10.25-7.426 9.64s-4.037-5.92-2.744-11.86z"/>
  <circle cx="36" cy="36" r="23" fill="none" stroke="#000" stroke-miterlimit="10" stroke-width="2"/>
  <path fill="none" stroke="#000" stroke-miterlimit="10" stroke-width="2" d="M31.96 31.29a4.464 4.464 0 11-4.463-4.463c2.463 0 4.463 2 4.463 4.463"/>
  <path d="M28.52 32.3a2 2 0 11-4 0 2 2 0 014 0"/>
  <path fill="none" stroke="#000" stroke-miterlimit="10" stroke-width="2" d="M51.04 32.83c0 3.364-2.73 6.091-6.091 6.091s-6.091-2.727-6.091-6.091c0-3.361 2.73-6.091 6.091-6.091s6.091 2.73 6.091 6.091"/>
  <path d="M49.04 32.1a2.73 2.73 0 01-5.46 0c0-1.506 1.224-2.73 2.73-2.73s2.73 1.224 2.73 2.73"/>
  <path fill="none" stroke="#000" stroke-linecap="round" stroke-linejoin="round" stroke-miterlimit="10" stroke-width="2" d="M39.08 23.94c.413-.344 2.246-1.792 4.909-1.636 2.161.126 3.61 1.233 4.091 1.636M23 23.57c.413-.344 2.246-1.792 4.909-1.636 2.161.126 3.61 1.233 4.091 1.636m8.46 25.56c.01-.01.01-.02.01-.02 1.4-1.62 2.02-3.37 2.18-3.512L27 42.249c.228.472-.522 6.682 4.108 8.862"/>
  <path fill="none" stroke="#000" stroke-linecap="round" stroke-linejoin="round" stroke-miterlimit="10" stroke-width="2" d="M41.5 45.68c-1.293 5.936-4.618 10.25-7.426 9.64s-4.037-5.92-2.744-11.86"/>
</svg>
