<svg viewBox="0 0 72 72" xmlns="http://www.w3.org/2000/svg">
  <path fill="#B3B3B3" d="M68 4v64H4V4h64m4-4H0v72h72V0z"/>
  <path fill="none" stroke="#00A5FF" stroke-miterlimit="10" stroke-width="0.1" d="M12.923 10.958h46.154c1.062 0 1.923.861 1.923 1.923h0v46.154a1.923 1.923 0 01-1.923 1.923H12.923A1.923 1.923 0 0111 59.035h0V12.881c0-1.062.861-1.923 1.923-1.923h0z"/>
  <path fill="none" stroke="#00A5FF" stroke-miterlimit="10" stroke-width="0.1" d="M18.254 4h35.492A2.254 2.254 0 0156 6.254v59.492A2.254 2.254 0 0153.746 68H18.254A2.254 2.254 0 0116 65.746V6.254A2.254 2.254 0 0118.254 4z"/>
  <path fill="none" stroke="#00A5FF" stroke-miterlimit="10" stroke-width="0.1" d="M68 18.254v35.492A2.254 2.254 0 0165.746 56H6.254A2.254 2.254 0 014 53.746V18.254A2.254 2.254 0 016.254 16h59.492A2.254 2.254 0 0168 18.254z"/>
  <circle cx="36" cy="36" r="29" fill="none" stroke="#00A5FF" stroke-miterlimit="10" stroke-width="0.1"/>
  <g fill="none" stroke="#fff" stroke-linecap="round" stroke-linejoin="round" stroke-miterlimit="10" stroke-width="6">
    <path d="M25.813 65.606c.986-4.155 1.686-6.963 1.686-6.963s-.28-.07-1.691-2.891c-.63-1.262-1.078-5.483-1.41-8.467-.314-2.804.108-3.594 1.106-3.594s1.224.816 1.715 2.183a21.708 21.708 0 001.278 2.806c1.498-4.444 3.57-8.189 4.989-9.977 1.995-2.517 4.559-.353 2.993 1.995-1.995 2.993-2.993 5.986-2.993 5.986"/>
    <path d="M36.479 40.698l.998-1.995c2.245-4.49 4.988-1.996 3.99 0-1.024 2.047-2.993 5.986-3.99 8.98"/>
    <path d="M35.173 67.353c-.005-2.073.069-4.15.308-5.716.266-1.742 1.996-1.982 2.993-3.978 2.994-5.986 1.83-8.314 3.991-13.968 1.128-2.947-1.56-3.715-3.12-.598"/>
    <path d="M42.762 57.96c9.374-2.882 16.199-11.6 16.223-21.921.03-12.695-10.237-23.01-22.931-23.039-12.695-.03-23.01 10.237-23.04 22.931-.016 7.045 3.14 13.358 8.12 17.586"/>
    <path d="M30 31a3.001 3.001 0 01-6 0c0-1.655 1.345-3 3-3s3 1.345 3 3m18 0a3.001 3.001 0 01-6 0c0-1.655 1.345-3 3-3s3 1.345 3 3"/>
  </g>
  <circle cx="36" cy="35.974" r="22.974" fill="none" stroke="#FCEA2B" stroke-miterlimit="10" stroke-width="1.8"/>
  <path fill="#FCEA2B" d="M58.974 35.974C58.974 23.286 48.688 13 36 13S13.026 23.286 13.026 35.974c0 9.225 5.44 17.175 13.284 20.83.729 1.377 1.018 1.724 1.11 1.807-.102.18-.485 1.41-1.904 7.793l9.778 1.778c.005-.569-.55-1.998.146-6.55.199-1.299 1.21-1.764 2.127-2.743 11.956-.806 21.407-10.754 21.407-22.915z"/>
  <path fill="none" stroke="#000" stroke-linecap="round" stroke-linejoin="round" stroke-miterlimit="10" stroke-width="2" d="M25.813 65.606c.986-4.155 1.686-6.963 1.686-6.963s-.28-.07-1.691-2.891c-.63-1.262-1.078-5.483-1.41-8.467-.314-2.804.108-3.594 1.106-3.594s1.224.816 1.715 2.183a21.708 21.708 0 001.278 2.806c1.498-4.444 3.57-8.189 4.989-9.977 1.995-2.517 4.559-.353 2.993 1.995-1.995 2.993-2.993 5.986-2.993 5.986"/>
  <path fill="none" stroke="#000" stroke-linecap="round" stroke-linejoin="round" stroke-miterlimit="10" stroke-width="2" d="M36.479 40.698l.998-1.995c2.245-4.49 4.988-1.996 3.99 0-1.024 2.047-2.993 5.986-3.99 8.98"/>
  <path fill="none" stroke="#000" stroke-linecap="round" stroke-linejoin="round" stroke-miterlimit="10" stroke-width="2" d="M35.173 67.353c-.005-2.073.069-4.15.308-5.716.266-1.742 1.996-1.982 2.993-3.978 2.994-5.986 1.83-8.314 3.991-13.968 1.128-2.947-1.56-3.715-3.12-.598"/>
  <path fill="none" stroke="#000" stroke-linecap="round" stroke-linejoin="round" stroke-miterlimit="10" stroke-width="2" d="M42.762 57.96c9.374-2.882 16.199-11.6 16.223-21.921.03-12.695-10.237-23.01-22.931-23.039-12.695-.03-23.01 10.237-23.04 22.931-.016 7.045 3.14 13.358 8.12 17.586"/>
  <path d="M30 31a3.001 3.001 0 01-6 0c0-1.655 1.345-3 3-3s3 1.345 3 3m18 0a3.001 3.001 0 01-6 0c0-1.655 1.345-3 3-3s3 1.345 3 3"/>
</svg>
