<svg viewBox="0 0 72 72" xmlns="http://www.w3.org/2000/svg">
  <path fill="#b3b3b3" d="M0 68.635h68.636V0H0zM3.813 3.813h61.01v61.01H3.813z"/>
  <path fill="none" stroke="#00a5ff" stroke-miterlimit="10" stroke-width="0.1" d="M56.317 58.11H12.319a1.833 1.833 0 01-1.833-1.833V12.28a1.833 1.833 0 011.833-1.834h43.998a1.833 1.833 0 011.833 1.834v43.996a1.833 1.833 0 01-1.833 1.834z"/>
  <path fill="none" stroke="#00a5ff" stroke-miterlimit="10" stroke-width="0.1" d="M51.235 64.822H17.4a2.148 2.148 0 01-2.148-2.148V5.962A2.148 2.148 0 0117.4 3.813h33.834a2.148 2.148 0 012.149 2.149v56.712a2.148 2.148 0 01-2.15 2.148z"/>
  <path fill="none" stroke="#00a5ff" stroke-miterlimit="10" stroke-width="0.1" d="M3.813 51.234V17.401a2.148 2.148 0 012.149-2.149h56.712a2.148 2.148 0 012.149 2.149v33.834a2.148 2.148 0 01-2.149 2.148H5.962a2.148 2.148 0 01-2.149-2.149z"/>
  <circle cx="34.318" cy="34.318" r="27.645" fill="none" stroke="#00a5ff" stroke-miterlimit="10" stroke-width="0.1"/>
  <g fill="none" stroke="#fff" stroke-linecap="round" stroke-linejoin="round" stroke-miterlimit="10" stroke-width="6">
    <circle cx="34.5" cy="12.3" r="3"/>
    <path d="M18.112 23.832l3.528 4.003c1.716 2.002 3.527 1.43 3.909-1.143l.38-2.002c.477-2.574 2.48-4.957 4.577-5.148a33.998 33.998 0 017.626 0c2.097.286 4.194 2.574 4.575 5.148l.382 2.002c.476 2.573 2.478 4.29 4.575 3.717a91.76 91.76 0 003.813-.953"/>
    <path d="M38.99 25.497c-2.289 3.391-.668 5.91 0 7.752a25.754 25.754 0 01.857 5.426c.572 5.814.953 23.256.953 23.256a1.638 1.638 0 01-1.334 1.938 1.962 1.962 0 01-1.62-1.938l-2.384-21.318c-.095-1.066-.667-1.938-1.144-1.938s-1.049.872-1.144 1.938l-2.383 21.318a2.438 2.438 0 01-1.62 1.938 1.638 1.638 0 01-1.335-1.938s.477-17.248 1.049-23.062a39.168 39.168 0 01.763-5.717c.572-1.841 2.287-4.554 0-7.752m8.847-14.7s.643-.14.927.227c.334.432.326 1.765.687 2.424a3.363 3.363 0 001.58 1.49"/>
  </g>
  <g fill="#fcea2b">
    <circle cx="34" cy="12.488" r="3"/>
    <path d="M28.598 24.785l2.226 2.634a26.925 26.925 0 01-1.262 7.333c-.62 1.984-1.44 18.856-1.615 28.076a.405.405 0 00.398.412l1.423.046a.48.48 0 00.49-.412l3.324-23.694 1.52-.03 3.36 23.934 2.349-.546s-.329-16.54-.774-22.352c-.399-5.186-1.901-8.392-1.901-12.516l1.902-2.885s.19 3.909 1.334 5.72a5.732 5.732 0 005.815 2.765s4.29-.572 5.053-2.097a1.89 1.89 0 000-1.812c-.096-.286-2.574.668-2.574.668l-2.765.476-2.002-1.048-1.239-1.43-1.906-6.96-3.337-1.239-9.247-.19-3.241 4.194-.477 4.099-1.62 1.144-6.387-5.91s-1.43 1.62-.476 2.955 3.622 5.052 5.624 5.434a3.969 3.969 0 004.194-1.335 11.804 11.804 0 001.811-5.434z"/>
  </g>
  <circle cx="18.907" cy="17.093" r="1.907" fill="#ea5a47"/>
  <circle cx="38.907" cy="6.093" r="1.907" fill="#92d3f5"/>
  <circle cx="52.907" cy="26.093" r="1.907" fill="#b1cc33"/>
  <g fill="none" stroke="#000" stroke-width="2">
    <circle cx="34.5" cy="12.3" r="3" stroke-miterlimit="10"/>
    <path stroke-linecap="round" stroke-linejoin="round" d="M18.112 23.832l3.528 4.003c1.716 2.002 3.527 1.43 3.909-1.143l.38-2.002c.477-2.574 2.48-4.957 4.577-5.148a33.998 33.998 0 017.626 0c2.097.286 4.194 2.574 4.575 5.148l.382 2.002c.476 2.573 2.478 4.29 4.575 3.717a91.76 91.76 0 003.813-.953"/>
    <path stroke-linecap="round" stroke-linejoin="round" d="M38.99 25.497c-2.289 3.391-.668 5.91 0 7.752a25.754 25.754 0 01.857 5.426c.572 5.814.953 23.256.953 23.256a1.638 1.638 0 01-1.334 1.938 1.962 1.962 0 01-1.62-1.938l-2.384-21.318c-.095-1.066-.667-1.938-1.144-1.938s-1.049.872-1.144 1.938l-2.383 21.318a2.438 2.438 0 01-1.62 1.938 1.638 1.638 0 01-1.335-1.938s.477-17.248 1.049-23.062a39.168 39.168 0 01.763-5.717c.572-1.841 2.287-4.554 0-7.752m8.847-14.7s.643-.14.927.227c.334.432.326 1.765.687 2.424a3.363 3.363 0 001.58 1.49"/>
  </g>
</svg>
