<svg viewBox="0 0 72 72" xmlns="http://www.w3.org/2000/svg">
  <path fill="#B3B3B3" d="M68 4v64H4V4h64m4-4H0v72h72V0z"/>
  <path fill="none" stroke="#00A5FF" stroke-miterlimit="10" stroke-width="0.1" d="M12.923 10.958h46.154c1.062 0 1.923.861 1.923 1.923v46.154a1.923 1.923 0 01-1.923 1.923H12.923A1.923 1.923 0 0111 59.035h0V12.881c0-1.062.861-1.923 1.923-1.923h0z"/>
  <path fill="none" stroke="#00A5FF" stroke-miterlimit="10" stroke-width="0.1" d="M18.254 4h35.492A2.254 2.254 0 0156 6.254v59.492A2.254 2.254 0 0153.746 68H18.254A2.254 2.254 0 0116 65.746V6.254A2.254 2.254 0 0118.254 4z"/>
  <path fill="none" stroke="#00A5FF" stroke-miterlimit="10" stroke-width="0.1" d="M68 18.254v35.492A2.254 2.254 0 0165.746 56H6.254A2.254 2.254 0 014 53.746V18.254A2.254 2.254 0 016.254 16h59.492A2.254 2.254 0 0168 18.254z"/>
  <circle cx="36" cy="36" r="29" fill="none" stroke="#00A5FF" stroke-miterlimit="10" stroke-width="0.1"/>
  <g fill="none" stroke="#fff" stroke-linecap="round" stroke-linejoin="round" stroke-miterlimit="10" stroke-width="6">
    <path d="M4 53.167v17.5M26.75 52.25L4 53.167m49.5-12.334l-15 24.917m4.917-31.417L26.75 52.25m11.75 13.5c-1.042 1.875-15.43 4.917-34.5 4.917m39.417-36.334c1.083 2.292 7.666 6.25 10.083 6.5m-3.58-17.05l.55-.84c.26-.396 1.164-.37 2.008.06l.406.206c.844.43 1.868.273 2.323-.42.454-.691.14-1.625-.653-2.144l-3.6-2.363a1.793 1.793 0 00-2.428.377l-2.886 3.882m5.635 3.711a5.36 5.36 0 00-1.38-2.43m-4.255-1.281c-2.015 3.126 1.027 12.25-.973 13.146m18.666-8.02c-1.791 6.083-9.833 8.02-11.538 12.68m13.042-20.293c1.06.152 1.656.925 1.646 1.938-.01.946-.538 1.932-1.685 1.903 0 0-1.214-.038-1.618-.015a2.58 2.58 0 01-.513-.005 1.938 1.938 0 11.551-3.837l1.619.016z"/>
    <path d="M64.876 16.198c1.06.152 1.656.925 1.645 1.938-.01.947-.537 1.932-1.684 1.903 0 0-1.214-.038-1.619-.015a2.58 2.58 0 01-.512-.005 1.938 1.938 0 11.551-3.837l1.619.016zM63.28 12.64V4M50.585 4H63.28M50.585 4v10.555"/>
  </g>
  <path fill="#B399C8" d="M4 70.667v-17.5l22.75-.917 16.667-17.917c1.083 2.292 7.666 6.25 10.083 6.5l-15 24.917c-1.042 1.875-15.43 4.917-34.5 4.917z"/>
  <path fill="#92D3F5" d="M64.208 27.896L64.25 4.97l-14.574.078-.04 21.35"/>
  <g fill="#FCEA2B">
    <path d="M64.837 20.054c1.06.152 1.656.925 1.646 1.938-.01.946-.538 1.932-1.685 1.903 0 0-1.214-.038-1.618-.015a2.58 2.58 0 01-.513-.005 1.938 1.938 0 11.551-3.837l1.619.016z"/>
    <path d="M64.876 16.198c1.06.152 1.656.925 1.645 1.938-.01.947-.537 1.932-1.684 1.903 0 0-1.214-.038-1.619-.015a2.58 2.58 0 01-.512-.005 1.938 1.938 0 11.551-3.837l1.619.016zM51.275 26.252a5.36 5.36 0 00-1.38-2.43l.024-.039.551-.84c.26-.396 1.164-.37 2.008.06l.406.206c.844.43 1.868.273 2.323-.42.454-.691.14-1.625-.653-2.144l-3.6-2.363a1.793 1.793 0 00-2.428.377l-2.886 3.882c-2.015 3.126 1.027 12.25-.973 13.146 1.654 1.553 3.208 2.73 7.128 4.66 1.705-4.66 9.747-6.597 11.538-12.68"/>
  </g>
  <g fill="none" stroke="#000" stroke-linecap="round" stroke-linejoin="round" stroke-width="2">
    <path stroke-miterlimit="10" d="M4 53.167v17.5M26.75 52.25L4 53.167m49.5-12.334l-15 24.917m4.917-31.417L26.75 52.25m11.75 13.5c-1.042 1.875-15.43 4.917-34.5 4.917m39.417-36.334c1.083 2.292 7.666 6.25 10.083 6.5"/>
    <path d="M49.92 23.783l.55-.84c.26-.396 1.164-.37 2.008.06l.406.206c.844.43 1.868.273 2.323-.42.454-.691.14-1.625-.653-2.144l-3.6-2.363a1.793 1.793 0 00-2.428.377l-2.886 3.882m5.635 3.711a5.36 5.36 0 00-1.38-2.43m-4.255-1.281c-2.015 3.126 1.027 12.25-.973 13.146m18.666-8.02c-1.791 6.083-9.833 8.02-11.538 12.68m13.042-20.293c1.06.152 1.656.925 1.646 1.938-.01.946-.538 1.932-1.685 1.903 0 0-1.214-.038-1.618-.015a2.58 2.58 0 01-.513-.005 1.938 1.938 0 11.551-3.837l1.619.016z"/>
    <path d="M64.876 16.198c1.06.152 1.656.925 1.645 1.938-.01.947-.537 1.932-1.684 1.903 0 0-1.214-.038-1.619-.015a2.58 2.58 0 01-.512-.005 1.938 1.938 0 11.551-3.837l1.619.016zM63.28 12.64V4M50.585 4H63.28M50.585 4v10.555"/>
  </g>
</svg>
