<svg viewBox="0 0 72 72" xmlns="http://www.w3.org/2000/svg">
  <path fill="#b3b3b3" d="M0 68.635h68.636V0H0zM3.813 3.813h61.01v61.01H3.813z"/>
  <path fill="none" stroke="#00a5ff" stroke-miterlimit="10" stroke-width="0.1" d="M56.318 58.11H12.32a1.833 1.833 0 01-1.834-1.833V12.28a1.833 1.833 0 011.834-1.834h43.997a1.833 1.833 0 011.833 1.834v43.996a1.833 1.833 0 01-1.833 1.834z"/>
  <path fill="none" stroke="#00a5ff" stroke-miterlimit="10" stroke-width="0.1" d="M51.236 64.822H17.402a2.148 2.148 0 01-2.148-2.148V5.962a2.148 2.148 0 012.148-2.149h33.834a2.148 2.148 0 012.149 2.149v56.712a2.148 2.148 0 01-2.15 2.148z"/>
  <path fill="none" stroke="#00a5ff" stroke-miterlimit="10" stroke-width="0.1" d="M3.813 51.234V17.401a2.149 2.149 0 012.15-2.149h56.711a2.149 2.149 0 012.149 2.149v33.834a2.149 2.149 0 01-2.149 2.148H5.962a2.149 2.149 0 01-2.148-2.149z"/>
  <circle cx="34.318" cy="34.318" r="27.645" fill="none" stroke="#00a5ff" stroke-miterlimit="10" stroke-width="0.1"/>
  <g fill="none" stroke="#fff" stroke-linecap="round" stroke-linejoin="round" stroke-miterlimit="10" stroke-width="6">
    <circle cx="34.5" cy="12.3" r="3"/>
    <path d="M39.084 24.785l2.48 37.178a1.615 1.615 0 01-1.43 1.906 2.04 2.04 0 01-1.812-1.906l-2.765-20.02c-.095-1.048-.667-1.906-1.239-1.906-.476 0-1.048.858-1.24 1.907l-2.764 20.019a2.04 2.04 0 01-1.81 1.906 1.615 1.615 0 01-1.43-1.906l2.478-37.178"/>
    <path d="M18.113 23.832l3.527 4.003c1.716 2.002 3.527 1.43 3.908-1.143l.382-2.002c.476-2.574 2.478-4.957 4.575-5.148a34 34 0 017.627 0c2.097.286 4.194 2.574 4.575 5.148l.382 2.002c.476 2.573 2.478 4.29 4.575 3.717a91.76 91.76 0 003.813-.953"/>
  </g>
  <g fill="#fcea2b">
    <circle cx="34.318" cy="12.488" r="2.86"/>
    <path d="M28.599 24.785l-1.621 39.084h3.146l3.24-23.832h1.908l3.24 23.832h3.146l-1.62-39.084s.19 3.908 1.334 5.72a5.732 5.732 0 005.815 2.764s4.29-.572 5.053-2.097a1.89 1.89 0 000-1.811c-.096-.286-2.574.667-2.574.667l-2.765.477-2.001-1.049-1.24-1.43-1.906-6.959-3.337-1.239-9.247-.19-3.24 4.194-.477 4.099-1.62 1.144-6.388-5.91s-1.43 1.62-.476 2.955 3.622 5.052 5.624 5.434a3.969 3.969 0 004.194-1.335 11.805 11.805 0 001.812-5.434z"/>
  </g>
  <circle cx="18.907" cy="17.093" r="1.907" fill="#ea5a47"/>
  <circle cx="38.907" cy="6.093" r="1.907" fill="#92d3f5"/>
  <circle cx="52.907" cy="26.093" r="1.907" fill="#b1cc33"/>
  <g fill="none" stroke="#000" stroke-width="2">
    <circle cx="34.5" cy="12.3" r="3" stroke-miterlimit="10"/>
    <path stroke-linecap="round" stroke-linejoin="round" d="M39.084 24.785l2.48 37.178a1.615 1.615 0 01-1.43 1.906 2.04 2.04 0 01-1.812-1.906l-2.765-20.02c-.095-1.048-.667-1.906-1.239-1.906-.476 0-1.048.858-1.24 1.907l-2.764 20.019a2.04 2.04 0 01-1.81 1.906 1.615 1.615 0 01-1.43-1.906l2.478-37.178"/>
    <path stroke-linecap="round" stroke-linejoin="round" d="M18.113 23.832l3.527 4.003c1.716 2.002 3.527 1.43 3.908-1.143l.382-2.002c.476-2.574 2.478-4.957 4.575-5.148a34 34 0 017.627 0c2.097.286 4.194 2.574 4.575 5.148l.382 2.002c.476 2.573 2.478 4.29 4.575 3.717a91.76 91.76 0 003.813-.953"/>
  </g>
</svg>
