<svg viewBox="0 0 72 72" xmlns="http://www.w3.org/2000/svg">
  <path fill="#b3b3b3" d="M68 4v64H4V4h64m4-4H0v72h72V0z"/>
  <path fill="none" stroke="#00a5ff" stroke-miterlimit="10" stroke-width="0.1" d="M12.923 10.958h46.154A1.923 1.923 0 0161 12.881v46.154a1.923 1.923 0 01-1.923 1.923H12.923A1.923 1.923 0 0111 59.035V12.881a1.923 1.923 0 011.923-1.923z"/>
  <rect x="16" y="4" rx="2.254" width="40" height="64" fill="none" stroke="#00a5ff" stroke-miterlimit="10" stroke-width="0.1"/>
  <rect x="16" y="4" rx="2.254" width="40" height="64" transform="rotate(90 36 36)" fill="none" stroke="#00a5ff" stroke-miterlimit="10" stroke-width="0.1"/>
  <circle cx="36" cy="36" r="29" fill="none" stroke="#00a5ff" stroke-miterlimit="10" stroke-width="0.1"/>
  <g fill="none" stroke="#fff" stroke-linecap="round" stroke-linejoin="round" stroke-miterlimit="10" stroke-width="6">
    <ellipse cx="36" cy="30.5" rx="6.799" ry="21.979" transform="rotate(-69.796 36 30.5)"/>
    <ellipse cx="36" cy="30.5" rx="11.533" ry="27.882" transform="rotate(-70 36 30.5)"/>
    <path d="M39.802 52.363c2.887 1.593 21.926 6.78 23.98 1.8m-26.004-5.318c2.358 1.41 18.063 6.284 19.919 2.197"/>
  </g>
  <ellipse cx="36" cy="30.5" rx="11.533" ry="27.882" transform="rotate(-70 36 30.5)" fill="#92d3f5"/>
  <path fill="#61b2e4" d="M62.2 40.036c-2.179 5.986-15.675 6.568-30.145 1.302s-17.22-8.31-14.093-12.54c.958-1.295 5.245 4.31 21.983 10.094C54.499 43.92 64.379 34.05 62.2 40.036z"/>
  <g fill="none" stroke="#000" stroke-linecap="round" stroke-linejoin="round" stroke-width="2">
    <ellipse cx="36" cy="30.5" rx="6.799" ry="21.979" transform="rotate(-69.796 36 30.5)"/>
    <ellipse cx="36" cy="30.5" rx="11.533" ry="27.882" transform="rotate(-70 36 30.5)"/>
    <path d="M39.802 52.363c2.887 1.593 21.926 6.78 23.98 1.8m-26.004-5.318c2.358 1.41 18.063 6.284 19.919 2.197"/>
  </g>
</svg>
