<svg viewBox="0 0 72 72" xmlns="http://www.w3.org/2000/svg">
  <path fill="#b3b3b3" d="M68 4v64H4V4h64m4-4H0v72h72V0z"/>
  <path fill="none" stroke="#00a5ff" stroke-miterlimit="10" stroke-width="0.1" d="M12.923 10.958h46.154A1.923 1.923 0 0161 12.881v46.154a1.923 1.923 0 01-1.923 1.923H12.923A1.923 1.923 0 0111 59.035V12.881a1.923 1.923 0 011.923-1.923z"/>
  <rect x="16" y="4" rx="2.254" width="40" height="64" fill="none" stroke="#00a5ff" stroke-miterlimit="10" stroke-width="0.1"/>
  <rect x="16" y="4" rx="2.254" width="40" height="64" transform="rotate(90 36 36)" fill="none" stroke="#00a5ff" stroke-miterlimit="10" stroke-width="0.1"/>
  <circle cx="36" cy="36" r="29" fill="none" stroke="#00a5ff" stroke-miterlimit="10" stroke-width="0.1"/>
  <path fill="none" stroke="#fff" stroke-linecap="round" stroke-linejoin="round" stroke-miterlimit="10" stroke-width="6" d="M62 55.5V17H10v38.5m52 0l-9.096-9.096M20 46h33m-43 9.5l9.096-9.096M10 17l9.32 28.583m-8.568-27.5h51m-12.732 0h12.582m-44.716 21h38.866m-6.732 0h6.913m-41.181-7h42m-7.732 0h8.33M35.77 17.5v28m-7-28v28m-7-28v28m-7-28v32.949m28-32.366v27.5m7-28.067v28.067m7-27.5v31.999M42.77 21v15.167M12.768 25.083h46.984m-10.984 0h11.417M57.35 32l4.508 4.508m-2.106-11.425l2.151 2.155m-6.801 11.845l6.898 6.5m-47.313-13.5l-4.424 4.424m2.505-10.727l-2.608 2.607m7.011 10.433l-6.834 6.439M53 46l9-28"/>
  <path fill="none" stroke="#000" stroke-linecap="round" stroke-linejoin="round" stroke-width="2" d="M62 55.5V17H10v38.5m52 0l-9.096-9.096M20 46h33m-43 9.5l9.096-9.096M10 17l9.32 28.583m-8.568-27.5h51m-12.732 0h12.582m-44.716 21h38.866m-6.732 0h6.913m-41.181-7h42m-7.732 0h8.33M35.77 17.5v28m-7-28v28m-7-28v28m-7-28v32.949m28-32.366v27.5m7-28.067v28.067m7-27.5v31.999M42.77 21v15.167M12.768 25.083h46.984m-10.984 0h11.417M57.35 32l4.508 4.508m-2.106-11.425l2.151 2.155m-6.801 11.845l6.898 6.5m-47.313-13.5l-4.424 4.424m2.505-10.727l-2.608 2.607m7.011 10.433l-6.834 6.439M53 46l9-28"/>
  <g fill="none" stroke-width="2">
    <path stroke="#d0cfce" stroke-miterlimit="10" d="M10.752 18.083h51"/>
    <path stroke="#9b9b9a" stroke-miterlimit="10" d="M49.02 18.083h12.582"/>
    <path stroke="#d0cfce" stroke-miterlimit="10" d="M16.886 39.083h38.866"/>
    <path stroke="#9b9b9a" stroke-miterlimit="10" d="M49.02 39.083h6.913"/>
    <path stroke="#d0cfce" stroke-miterlimit="10" d="M14.752 32.083h42"/>
    <path stroke="#9b9b9a" stroke-miterlimit="10" d="M49.02 32.083h8.33"/>
    <path stroke="#d0cfce" stroke-miterlimit="10" d="M35.77 17.5v28m-7-28v28m-7-28v28m-7-28v33.858m28-33.275v27.5"/>
    <path stroke="#9b9b9a" stroke-miterlimit="10" d="M49.77 17.516v28.067m7-27.5v32.374"/>
    <path stroke="#d0cfce" stroke-miterlimit="10" d="M42.77 21v15.167M12.768 25.083h46.984"/>
    <path stroke="#9b9b9a" stroke-miterlimit="10" d="M48.768 25.083h11.417M57.35 32l4.795 4.795m-2.393-11.712l2.393 2.398m-7.043 11.602l6.898 6.5"/>
    <path stroke="#d0cfce" stroke-miterlimit="10" d="M14.687 32.083l-4.931 4.931m3.727-11.95l-3.727 3.727m7.415 10.029l-7.41 6.983"/>
    <path stroke="#000" stroke-linecap="round" stroke-linejoin="round" d="M53 46l9-28m0 37.5V17H10v38.5m52 0l-9.096-9.096M20 46h33m-43 9.5l9.096-9.096M10 17l9.32 28.583M53 46l9-28"/>
  </g>
</svg>
