<svg viewBox="0 0 72 72" xmlns="http://www.w3.org/2000/svg">
  <path fill="#B3B3B3" d="M68 4v64H4V4h64m4-4H0v72h72V0z"/>
  <path fill="none" stroke="#00A5FF" stroke-miterlimit="10" stroke-width="0.1" d="M12.9 11h46.2c1.1 0 1.9.9 1.9 1.9h0V59c0 1.1-.9 1.9-1.9 1.9H12.9c-1 .1-1.9-.8-1.9-1.9h0V12.9c0-1.1.9-1.9 1.9-1.9h0z"/>
  <path fill="none" stroke="#00A5FF" stroke-miterlimit="10" stroke-width="0.1" d="M18.3 4h35.5C55 4 56 5 56 6.3v59.5c0 1.2-1 2.3-2.3 2.3H18.3C17 68 16 67 16 65.7V6.3C16 5 17 4 18.3 4z"/>
  <path fill="none" stroke="#00A5FF" stroke-miterlimit="10" stroke-width="0.1" d="M68 18.3v35.5c0 1.2-1 2.3-2.3 2.3H6.3C5 56 4 55 4 53.7V18.3C4 17 5 16 6.3 16h59.5c1.2 0 2.2 1 2.2 2.3z"/>
  <circle cx="36" cy="36" r="29" fill="none" stroke="#00A5FF" stroke-miterlimit="10" stroke-width="0.1"/>
  <g fill="none" stroke="#fff" stroke-linecap="round" stroke-linejoin="round" stroke-miterlimit="10" stroke-width="6">
    <path d="M36.8 37h21.6m1.6-9l-4.5 39h-39L12 28"/>
    <path d="M37.105 60.814l2.088-13.136 13.431 2.136-2.088 13.135zM17.232 38.373l13.827-4.372 3.829 12.11-13.827 4.372z"/>
  </g>
  <path fill="none" stroke="#000" stroke-linecap="round" stroke-linejoin="round" stroke-miterlimit="10" stroke-width="2" d="M36.8 37h21.6"/>
  <path fill="#F4AA41" d="M12.9 36l3.6 31h39l3.6-31z"/>
  <path fill="#E27022" d="M45.1 36l-3.6 31h14l3.6-31z"/>
  <path fill="#FFF" d="M37.105 60.814l2.088-13.136 13.431 2.136-2.088 13.135zM17.232 38.373l13.827-4.372 3.829 12.11-13.827 4.372z"/>
  <g fill="none" stroke="#000" stroke-linecap="round" stroke-linejoin="round" stroke-miterlimit="10">
    <path stroke-width="2" d="M60 28l-4.5 39h-39L12 28"/>
    <path stroke-width="1.792" d="M37.105 60.814l2.088-13.136 13.431 2.136-2.088 13.135z"/>
    <path stroke-width="1.808" d="M17.232 38.373l13.827-4.372 3.829 12.11-13.827 4.372z"/>
  </g>
</svg>
