<svg viewBox="0 0 72 72" xmlns="http://www.w3.org/2000/svg">
  <path fill="#b3b3b3" d="M68 4v64H4V4h64m4-4H0v72h72V0z"/>
  <path fill="none" stroke="#00a5ff" stroke-miterlimit="10" stroke-width="0.1" d="M12.923 10.958h46.154A1.923 1.923 0 0161 12.881v46.154a1.923 1.923 0 01-1.923 1.923H12.923A1.923 1.923 0 0111 59.035V12.881a1.923 1.923 0 011.923-1.923z"/>
  <rect x="16" y="4" rx="2.254" width="40" height="64" fill="none" stroke="#00a5ff" stroke-miterlimit="10" stroke-width="0.1"/>
  <rect x="16" y="4" rx="2.254" width="40" height="64" transform="rotate(90 36 36)" fill="none" stroke="#00a5ff" stroke-miterlimit="10" stroke-width="0.1"/>
  <circle cx="36" cy="36" r="29" fill="none" stroke="#00a5ff" stroke-miterlimit="10" stroke-width="0.1"/>
  <g fill="none" stroke="#fff" stroke-linecap="round" stroke-linejoin="round" stroke-miterlimit="10" stroke-width="6">
    <path d="M26 17h4v7h-4z"/>
    <rect x="12" y="29.067" rx="12" width="48" height="25.6"/>
    <rect x="12" y="40" rx="2.5" width="48" height="5"/>
    <rect x="23" y="25" rx="2" width="26" height="4"/>
    <path d="M44.5 20H30v-3h14.5a1.5 1.5 0 010 3z"/>
  </g>
  <path fill="#d22f27" d="M30 17h16v3H30zm-2 0h2v6h-4v-4a2 2 0 012-2zm-4 8h25v3H24z"/>
  <path fill="#9b9b9a" d="M15.024 45.316l43.782-.014A5.12 5.12 0 0159 47.931a6.665 6.665 0 01-3 3.899 12.842 12.842 0 01-4.46 2.11c-6.418 1.59-14.579.957-22.54.814a196.63 196.63 0 00-7 0 11.766 11.766 0 01-6-2.924c-1.958-1.84-3.823-5.016-2.899-6.127.414-.497 1.297-.47 1.922-.387zM59 40H13a5.281 5.281 0 01-1-3.385c.224-2.978 3.408-5.721 8-6.771 4.221-.455 8.91-.778 14-.846a149.335 149.335 0 0118 .846c4.98 1.589 8.173 4.656 8 7.617A4.665 4.665 0 0159 40z"/>
  <path fill="#3f3f3f" d="M47.154 28A14.055 14.055 0 0041 29.42a13.332 13.332 0 010 24.16A14.055 14.055 0 0047.154 55a13.504 13.504 0 100-27z"/>
  <path fill="#9b9b9a" d="M60 42.5a14.324 14.324 0 00-.227-2.5H48.446a13.898 13.898 0 010 5h11.327A14.325 14.325 0 0060 42.5z"/>
  <g fill="none" stroke="#000" stroke-linecap="round" stroke-linejoin="round" stroke-width="2">
    <path d="M26 17h4v7h-4z"/>
    <rect x="12" y="29.067" rx="12" width="48" height="25.6"/>
    <rect x="12" y="40" rx="2.5" width="48" height="5"/>
    <rect x="23" y="25" rx="2" width="26" height="4"/>
    <path d="M44.5 20H30v-3h14.5a1.5 1.5 0 010 3z"/>
  </g>
</svg>
