<svg viewBox="0 0 72 72" xmlns="http://www.w3.org/2000/svg">
  <path fill="#b3b3b3" d="M68 4v64H4V4h64m4-4H0v72h72V0z"/>
  <path fill="none" stroke="#00a5ff" stroke-miterlimit="10" stroke-width="0.1" d="M12.923 10.958h46.154A1.923 1.923 0 0161 12.881v46.154a1.923 1.923 0 01-1.923 1.923H12.923A1.923 1.923 0 0111 59.035V12.881a1.923 1.923 0 011.923-1.923z"/>
  <rect x="16" y="4" rx="2.254" width="40" height="64" fill="none" stroke="#00a5ff" stroke-miterlimit="10" stroke-width="0.1"/>
  <rect x="16" y="4" rx="2.254" width="40" height="64" transform="rotate(90 36 36)" fill="none" stroke="#00a5ff" stroke-miterlimit="10" stroke-width="0.1"/>
  <circle cx="36" cy="36" r="29" fill="none" stroke="#00a5ff" stroke-miterlimit="10" stroke-width="0.1"/>
  <g fill="none" stroke="#fff" stroke-linecap="round" stroke-linejoin="round" stroke-miterlimit="10" stroke-width="6">
    <path d="M52.75 44.604c0 9.048-7.338 16.375-16.375 16.375-9.049 0-16.376-7.327-16.376-16.375 0-.254.01-.496.021-.75a16.196 16.196 0 011.626-6.42c.634-1.572 1.383-3.167 2.143-4.771 2.038-4.319 4.14-8.69 4.14-13.04a8.444 8.444 0 018.446-8.446c4.656 0 8.446 3.78 8.446 8.447 0 4.35 2.101 8.72 4.139 13.039.76 1.604 1.51 3.199 2.143 4.772.855 2.164 1.5 4.308 1.626 6.42.01.253.021.495.021.749z"/>
    <circle cx="36.375" cy="44.527" r="8.449"/>
  </g>
  <path fill="#B1CC33" d="M52.75 44.604c0 9.048-7.338 16.375-16.375 16.375-9.049 0-16.376-7.327-16.376-16.375 0-.254.01-.496.021-.75a16.196 16.196 0 011.626-6.42c.634-1.572 1.383-3.167 2.143-4.771 2.038-4.319 4.14-8.69 4.14-13.04a8.444 8.444 0 018.446-8.446c4.656 0 8.446 3.78 8.446 8.447 0 4.35 2.101 8.72 4.139 13.039.76 1.604 1.51 3.199 2.143 4.772.855 2.164 1.5 4.308 1.626 6.42.01.253.021.495.021.749z"/>
  <circle cx="36.375" cy="44.527" r="8.449" fill="#A57939" stroke="#A57939" stroke-linecap="round" stroke-linejoin="round" stroke-miterlimit="10" stroke-width="2"/>
  <path fill="#6A462F" d="M44.82 44.522c0 4.67-3.776 8.455-8.445 8.455 0 0 9.682-7.227 0-16.9a8.446 8.446 0 018.445 8.445z"/>
  <g fill="none" stroke="#000" stroke-miterlimit="10" stroke-width="2">
    <path d="M52.75 44.604c0 9.048-7.338 16.375-16.375 16.375-9.049 0-16.376-7.327-16.376-16.375 0-.254.01-.496.021-.75a16.196 16.196 0 011.626-6.42c.634-1.572 1.383-3.167 2.143-4.771 2.038-4.319 4.14-8.69 4.14-13.04a8.444 8.444 0 018.446-8.446c4.656 0 8.446 3.78 8.446 8.447 0 4.35 2.101 8.72 4.139 13.039.76 1.604 1.51 3.199 2.143 4.772.855 2.164 1.5 4.308 1.626 6.42.01.253.021.495.021.749z"/>
    <circle cx="36.375" cy="44.527" r="8.449" stroke-linecap="round" stroke-linejoin="round"/>
  </g>
</svg>
