<svg viewBox="0 0 72 72" xmlns="http://www.w3.org/2000/svg">
  <path fill="#b3b3b3" d="M68 4v64H4V4h64m4-4H0v72h72V0z"/>
  <path fill="none" stroke="#00a5ff" stroke-miterlimit="10" stroke-width="0.1" d="M12.923 10.958h46.154A1.923 1.923 0 0161 12.881v46.154a1.923 1.923 0 01-1.923 1.923H12.923A1.923 1.923 0 0111 59.035V12.881a1.923 1.923 0 011.923-1.923z"/>
  <rect x="16" y="4" rx="2.254" width="40" height="64" fill="none" stroke="#00a5ff" stroke-miterlimit="10" stroke-width="0.1"/>
  <rect x="16" y="4" rx="2.254" width="40" height="64" transform="rotate(90 36 36)" fill="none" stroke="#00a5ff" stroke-miterlimit="10" stroke-width="0.1"/>
  <circle cx="36" cy="36" r="29" fill="none" stroke="#00a5ff" stroke-miterlimit="10" stroke-width="0.1"/>
  <g fill="none" stroke="#fff" stroke-linecap="round" stroke-linejoin="round" stroke-miterlimit="10" stroke-width="6">
    <path d="M47.733 13.576a5 5 0 01-5 5c-2.761 0-5 2.238-5 5a5 5 0 01-5 5.001 4.998 4.998 0 00-5 5 5 5 0 01-5 5"/>
    <path d="M14.241 39.418c-.2.68-.042 1.444.494 1.98l3.695 3.7a2 2 0 002.828 0l1.491-1.505a4.987 4.987 0 013.537-1.464 5 5 0 005-5 4.998 4.998 0 015-5 5 5 0 005-5.001 5 5 0 015-5 5 5 0 005-5c0-1.38.56-2.632 1.465-3.536l1.506-1.492a2 2 0 000-2.829l-3.701-3.693a1.99 1.99 0 00-1.987-.492c-2.468.305-4.387 2.387-4.387 4.937a4.997 4.997 0 01-5 5 5 5 0 00-5 5.001 5 5 0 01-5.001 5 5 5 0 00-5 5 4.998 4.998 0 01-5 5c-2.553 0-4.637 1.922-4.94 4.394zm36.492-4.526a5 5 0 01-5 5 5 5 0 00-5 5 5 5 0 01-5 5 5 5 0 00-5 5 5 5 0 01-5 5"/>
    <path d="M17.241 60.733c-.2.68-.042 1.444.494 1.98l3.695 3.701a2 2 0 002.828 0l1.491-1.506a4.983 4.983 0 013.537-1.464 5 5 0 005-5 5 5 0 015-5 5 5 0 005-5 5 5 0 015-5 5 5 0 005-5c0-1.381.56-2.632 1.465-3.537l1.506-1.492a2 2 0 000-2.828l-3.701-3.693a1.994 1.994 0 00-1.987-.494c-2.468.306-4.387 2.387-4.387 4.939a4.997 4.997 0 01-5 5 5 5 0 00-5 5 5 5 0 01-5.001 5 5 5 0 00-5 5 4.998 4.998 0 01-5 5c-2.553 0-4.637 1.923-4.94 4.394z"/>
  </g>
  <path fill="#ea5a47" d="M14.241 39.418c-.2.68-.042 1.444.494 1.98l3.695 3.7a2 2 0 002.828 0l1.491-1.505a4.987 4.987 0 013.537-1.464 5 5 0 005-5 4.998 4.998 0 015-5 5 5 0 005-5.001 5 5 0 015-5 5 5 0 005-5c0-1.38.56-2.632 1.465-3.536l1.506-1.492a2 2 0 000-2.829l-3.701-3.693a1.99 1.99 0 00-1.987-.492c-2.468.305-4.387 2.387-4.387 4.937a4.997 4.997 0 01-5 5 5 5 0 00-5 5.001 5 5 0 01-5.001 5 5 5 0 00-5 5 4.998 4.998 0 01-5 5c-2.553 0-4.637 1.922-4.94 4.394zm3 21.315c-.2.68-.042 1.444.494 1.98l3.695 3.701a2 2 0 002.828 0l1.491-1.506a4.983 4.983 0 013.537-1.464 5 5 0 005-5 5 5 0 015-5 5 5 0 005-5 5 5 0 015-5 5 5 0 005-5c0-1.381.56-2.632 1.465-3.537l1.506-1.492a2 2 0 000-2.828l-3.701-3.693a1.994 1.994 0 00-1.987-.494c-2.468.306-4.387 2.387-4.387 4.939a4.997 4.997 0 01-5 5 5 5 0 00-5 5 5 5 0 01-5.001 5 5 5 0 00-5 5 4.998 4.998 0 01-5 5c-2.553 0-4.637 1.923-4.94 4.394z"/>
  <g fill="none" stroke="#000" stroke-linecap="round" stroke-linejoin="round" stroke-miterlimit="10" stroke-width="2">
    <path d="M47.733 13.576a5 5 0 01-5 5c-2.761 0-5 2.238-5 5a5 5 0 01-5 5.001 4.998 4.998 0 00-5 5 5 5 0 01-5 5"/>
    <path d="M14.241 39.418c-.2.68-.042 1.444.494 1.98l3.695 3.7a2 2 0 002.828 0l1.491-1.505a4.987 4.987 0 013.537-1.464 5 5 0 005-5 4.998 4.998 0 015-5 5 5 0 005-5.001 5 5 0 015-5 5 5 0 005-5c0-1.38.56-2.632 1.465-3.536l1.506-1.492a2 2 0 000-2.829l-3.701-3.693a1.99 1.99 0 00-1.987-.492c-2.468.305-4.387 2.387-4.387 4.937a4.997 4.997 0 01-5 5 5 5 0 00-5 5.001 5 5 0 01-5.001 5 5 5 0 00-5 5 4.998 4.998 0 01-5 5c-2.553 0-4.637 1.922-4.94 4.394zm36.492-4.526a5 5 0 01-5 5 5 5 0 00-5 5 5 5 0 01-5 5 5 5 0 00-5 5 5 5 0 01-5 5"/>
    <path d="M17.241 60.733c-.2.68-.042 1.444.494 1.98l3.695 3.701a2 2 0 002.828 0l1.491-1.506a4.983 4.983 0 013.537-1.464 5 5 0 005-5 5 5 0 015-5 5 5 0 005-5 5 5 0 015-5 5 5 0 005-5c0-1.381.56-2.632 1.465-3.537l1.506-1.492a2 2 0 000-2.828l-3.701-3.693a1.994 1.994 0 00-1.987-.494c-2.468.306-4.387 2.387-4.387 4.939a4.997 4.997 0 01-5 5 5 5 0 00-5 5 5 5 0 01-5.001 5 5 5 0 00-5 5 4.998 4.998 0 01-5 5c-2.553 0-4.637 1.923-4.94 4.394z"/>
  </g>
</svg>
