<svg viewBox="0 0 72 72" xmlns="http://www.w3.org/2000/svg">
  <path fill="#B3B3B3" d="M68 4v64H4V4h64m4-4H0v72h72V0z"/>
  <path fill="none" stroke="#00A5FF" stroke-miterlimit="10" stroke-width="0.1" d="M12.923 10.958h46.154c1.062 0 1.923.861 1.923 1.923v46.154a1.923 1.923 0 01-1.923 1.923H12.923A1.923 1.923 0 0111 59.035h0V12.881c0-1.062.861-1.923 1.923-1.923h0z"/>
  <path fill="none" stroke="#00A5FF" stroke-miterlimit="10" stroke-width="0.1" d="M18.254 4h35.492A2.254 2.254 0 0156 6.254v59.492A2.254 2.254 0 0153.746 68H18.254A2.254 2.254 0 0116 65.746V6.254A2.254 2.254 0 0118.254 4z"/>
  <path fill="none" stroke="#00A5FF" stroke-miterlimit="10" stroke-width="0.1" d="M68 18.254v35.492A2.254 2.254 0 0165.746 56H6.254A2.254 2.254 0 014 53.746V18.254A2.254 2.254 0 016.254 16h59.492A2.254 2.254 0 0168 18.254z"/>
  <circle cx="36" cy="36" r="29" fill="none" stroke="#00A5FF" stroke-miterlimit="10" stroke-width="0.1"/>
  <g fill="none" stroke="#fff" stroke-linecap="round" stroke-linejoin="round" stroke-miterlimit="10" stroke-width="6">
    <path d="M25.806 65.621c.986-4.155 1.687-6.962 1.687-6.962s-.281-.07-1.692-2.892c-.63-1.262-1.077-5.483-1.41-8.467-.314-2.804.108-3.594 1.106-3.594s1.224.816 1.715 2.183a21.7 21.7 0 001.278 2.806 36.383 36.383 0 014.989-9.977c1.995-2.517 4.559-.353 2.993 1.995a28.228 28.228 0 00-2.993 5.986"/>
    <path d="M36.472 40.713l.998-1.995c2.245-4.49 4.988-1.996 3.99 0a78.6 78.6 0 00-3.99 8.98"/>
    <path d="M35.167 67.368c-.034-1.91.069-3.82.307-5.716.266-1.743 1.996-1.982 2.994-3.978 2.993-5.986 1.828-8.314 3.99-13.968 1.128-2.947-1.56-3.715-3.12-.599"/>
    <path d="M42.755 57.974c12.138-3.73 18.953-16.594 15.222-28.732S41.382 10.29 29.245 14.021 10.292 30.616 14.023 42.753a22.991 22.991 0 007.105 10.778m10.566-21.127a4.726 4.726 0 00-8.638 0m25.888 0a4.726 4.726 0 00-8.638 0m-17.195-7.203c4.393-.138 7.893-1.392 8.778-3.125m17 3.125c-4.393-.138-7.893-1.392-8.778-3.125"/>
  </g>
  <path fill="#FCEA2B" d="M58.974 35.974C58.974 23.286 48.688 13 36 13S13.026 23.286 13.026 35.974a22.974 22.974 0 0013.284 20.83 8.29 8.29 0 001.11 1.807c-.103.18-.486 1.41-1.904 7.793l9.778 1.778a18.971 18.971 0 01.146-6.55c.199-1.299 1.21-1.764 2.126-2.743 12.051-.822 21.406-10.836 21.408-22.915z"/>
  <circle cx="36" cy="35.974" r="22.974" fill="none" stroke="#FCEA2B" stroke-miterlimit="10" stroke-width="1.8"/>
  <g>
    <g fill="none" stroke="#000" stroke-linecap="round" stroke-width="2">
      <path stroke-linejoin="round" d="M25.806 65.621c.986-4.155 1.687-6.962 1.687-6.962s-.281-.07-1.692-2.892c-.63-1.262-1.077-5.483-1.41-8.467-.314-2.804.108-3.594 1.106-3.594s1.224.816 1.715 2.183a21.7 21.7 0 001.278 2.806 36.383 36.383 0 014.989-9.977c1.995-2.517 4.559-.353 2.993 1.995a28.228 28.228 0 00-2.993 5.986"/>
      <path stroke-linejoin="round" d="M36.472 40.713l.998-1.995c2.245-4.49 4.988-1.996 3.99 0a78.6 78.6 0 00-3.99 8.98"/>
      <path stroke-linejoin="round" d="M35.167 67.368c-.034-1.91.069-3.82.307-5.716.266-1.743 1.996-1.982 2.994-3.978 2.993-5.986 1.828-8.314 3.99-13.968 1.128-2.947-1.56-3.715-3.12-.599"/>
      <path stroke-linejoin="round" d="M42.755 57.974c12.138-3.73 18.953-16.594 15.222-28.732S41.382 10.29 29.245 14.021 10.292 30.616 14.023 42.753a22.991 22.991 0 007.105 10.778"/>
      <path stroke-miterlimit="10" d="M31.694 32.404a4.726 4.726 0 00-8.638 0m25.888 0a4.726 4.726 0 00-8.638 0"/>
      <path stroke-linejoin="round" d="M23.111 25.201c4.393-.138 7.893-1.392 8.778-3.125m17 3.125c-4.393-.138-7.893-1.392-8.778-3.125"/>
    </g>
  </g>
</svg>
