<svg viewBox="0 0 72 72" xmlns="http://www.w3.org/2000/svg">
  <path fill="#B3B3B3" d="M68 4v64H4V4h64m4-4H0v72h72V0z"/>
  <path fill="none" stroke="#00A5FF" stroke-miterlimit="10" stroke-width="0.1" d="M12.923 10.958h46.154c1.062 0 1.923.861 1.923 1.923v46.154a1.923 1.923 0 01-1.923 1.923H12.923A1.923 1.923 0 0111 59.035h0V12.881c0-1.062.861-1.923 1.923-1.923h0z"/>
  <path fill="none" stroke="#00A5FF" stroke-miterlimit="10" stroke-width="0.1" d="M18.254 4h35.492A2.254 2.254 0 0156 6.254v59.492A2.254 2.254 0 0153.746 68H18.254A2.254 2.254 0 0116 65.746V6.254A2.254 2.254 0 0118.254 4z"/>
  <path fill="none" stroke="#00A5FF" stroke-miterlimit="10" stroke-width="0.1" d="M68 18.254v35.492A2.254 2.254 0 0165.746 56H6.254A2.254 2.254 0 014 53.746V18.254A2.254 2.254 0 016.254 16h59.492A2.254 2.254 0 0168 18.254z"/>
  <circle cx="36" cy="36" r="29" fill="none" stroke="#00A5FF" stroke-miterlimit="10" stroke-width="0.1"/>
  <path fill="none" stroke="#fff" stroke-linecap="round" stroke-linejoin="round" stroke-miterlimit="10" stroke-width="6" d="M45.815 44.804a15.43 15.43 0 01-19.63 0m25.855 5.562a4.05 4.05 0 00-3.462 6.15l.232.343 7.191 9.218 7.233-9.275a4.048 4.048 0 10-6.916-4.142.351.351 0 01-.633 0 4.021 4.021 0 00-3.645-2.294zm-45-18a4.05 4.05 0 00-3.462 6.15l.232.343 7.191 9.218 7.233-9.275a4.048 4.048 0 10-6.916-4.142.351.351 0 01-.633 0 4.021 4.021 0 00-3.645-2.294zm37-27a4.05 4.05 0 00-3.462 6.15l.232.343 7.191 9.218 7.233-9.275a4.048 4.048 0 10-6.916-4.142.351.351 0 01-.633 0 4.021 4.021 0 00-3.645-2.294zm-1.232 52.61A22.993 22.993 0 0136 59c-7.94 0-14.939-4.022-19.072-10.14m36.82-27.49A22.905 22.905 0 0159 36c0 3.603-.829 7.013-2.306 10.05M14.732 27.227C18.181 18.877 26.404 13 36 13m-4.306 19.404a4.726 4.726 0 00-8.638 0m25.888 0a4.726 4.726 0 00-8.638 0"/>
  <circle cx="36" cy="36" r="24" fill="#FCEA2B"/>
  <path fill="#FFA7C0" d="M11.319 34.66a.351.351 0 01-.633 0 4.048 4.048 0 10-6.917 4.143l7.233 9.274 7.191-9.218.232-.342a4.048 4.048 0 10-7.106-3.857zm37-27a.351.351 0 01-.633 0 4.048 4.048 0 10-6.917 4.143l7.233 9.274 7.191-9.218.232-.342A4.048 4.048 0 1048.32 7.66zm8 45a.351.351 0 01-.633 0 4.048 4.048 0 10-6.917 4.143l7.233 9.274 7.191-9.218.232-.342a4.048 4.048 0 10-7.106-3.857z"/>
  <g fill="none" stroke="#000" stroke-linecap="round" stroke-width="2">
    <path stroke-linejoin="round" d="M45.815 44.804a15.43 15.43 0 01-19.63 0m25.855 5.562a4.05 4.05 0 00-3.462 6.15l.232.343 7.191 9.218 7.233-9.275a4.048 4.048 0 10-6.916-4.142.351.351 0 01-.633 0 4.021 4.021 0 00-3.645-2.294zm-45-18a4.05 4.05 0 00-3.462 6.15l.232.343 7.191 9.218 7.233-9.275a4.048 4.048 0 10-6.916-4.142.351.351 0 01-.633 0 4.021 4.021 0 00-3.645-2.294zm37-27a4.05 4.05 0 00-3.462 6.15l.232.343 7.191 9.218 7.233-9.275a4.048 4.048 0 10-6.916-4.142.351.351 0 01-.633 0 4.021 4.021 0 00-3.645-2.294zm-1.232 52.61A22.993 22.993 0 0136 59c-7.94 0-14.939-4.022-19.072-10.14m36.82-27.49A22.905 22.905 0 0159 36c0 3.603-.829 7.013-2.306 10.05M14.732 27.227C18.181 18.877 26.404 13 36 13"/>
    <path stroke-miterlimit="10" d="M31.694 32.404a4.726 4.726 0 00-8.638 0m25.888 0a4.726 4.726 0 00-8.638 0"/>
  </g>
</svg>
