<svg viewBox="0 0 72 72" xmlns="http://www.w3.org/2000/svg">
  <path fill="#b3b3b3" d="M68 4v64H4V4h64m4-4H0v72h72z"/>
  <rect x="11" y="10.958" rx="1.923" width="50" height="50" fill="none" stroke="#00a5ff" stroke-miterlimit="10" stroke-width="0.1"/>
  <rect x="16" y="4" rx="2.254" width="40" height="64" fill="none" stroke="#00a5ff" stroke-miterlimit="10" stroke-width="0.1"/>
  <rect x="4" y="16" rx="2.254" width="64" height="40" fill="none" stroke="#00a5ff" stroke-miterlimit="10" stroke-width="0.1"/>
  <circle cx="36" cy="36" r="29" fill="none" stroke="#00a5ff" stroke-miterlimit="10" stroke-width="0.1"/>
  <g fill="none" stroke="#fff" stroke-linecap="round" stroke-linejoin="round" stroke-miterlimit="10" stroke-width="6">
    <circle cx="36" cy="36" r="23"/>
    <path d="M30 30.92a3 3 0 11-6.001-.005A3 3 0 0130 30.92m18 .02a3 3 0 11-6.001-.005A3 3 0 0148 30.94m-27.12-5.05a7.173 7.173 0 005.155-.447 7.078 7.078 0 003.105-3.126m22 3.573a7.173 7.173 0 01-5.155-.447 7.078 7.078 0 01-3.105-3.126M41.66 44.82c0 6.075-2.532 11-5.656 11s-5.656-4.925-5.656-11c5.141-1.979 8.198-.947 11.31 0zm8.73-4.19a2.801 2.801 0 01-.826-1.994c0-2.479 2.343-4.851 2.443-4.95a.53.53 0 01.75 0h0c.1.1 2.443 2.472 2.444 4.951a2.82 2.82 0 01-4.812 1.993z"/>
    <path d="M31.56 49.05h-2.739c-1.865-.006-3.375-1.601-3.381-3.571.005-1.97 1.516-3.566 3.381-3.571h14.37c1.865.006 3.375 1.601 3.381 3.571-.006 1.97-1.516 3.566-3.381 3.571h-2.649"/>
  </g>
  <circle cx="36" cy="36" r="23" fill="#FCEA2B"/>
  <path d="M32.47 49h-3.617c-1.856-.006-3.36-1.546-3.365-3.448.005-1.902 1.509-3.442 3.365-3.448h14.3c1.856.006 3.36 1.546 3.365 3.448-.005 1.902-1.509 3.442-3.365 3.448h-1.785m-.498 0h-.506m2.016 0h-1.505"/>
  <path fill="#92D3F5" d="M50.39 40.63a2.801 2.801 0 01-.826-1.994c0-2.479 2.343-4.851 2.443-4.95a.53.53 0 01.75 0c.1.1 2.443 2.472 2.444 4.951a2.82 2.82 0 01-4.812 1.993z"/>
  <path fill="#ea5a47" d="M41.66 44.82c0 6.075-2.532 11-5.656 11s-5.656-4.925-5.656-11c4.014-1.7 7.761-1.537 11.31 0z"/>
  <circle cx="36" cy="36" r="23" fill="none" stroke="#000" stroke-miterlimit="10" stroke-width="2"/>
  <path d="M30 30.92a3 3 0 11-6.001-.005A3 3 0 0130 30.92m18 .02a3 3 0 11-6.001-.005A3 3 0 0148 30.94"/>
  <path fill="none" stroke="#000" stroke-linecap="round" stroke-linejoin="round" stroke-width="2" d="M20.88 25.89a7.173 7.173 0 005.155-.447 7.078 7.078 0 003.105-3.126m22 3.573a7.173 7.173 0 01-5.155-.447 7.078 7.078 0 01-3.105-3.126"/>
  <path fill="none" stroke="#000" stroke-linecap="round" stroke-linejoin="round" stroke-miterlimit="10" stroke-width="2" d="M41.66 44.82c0 6.075-2.532 11-5.656 11s-5.656-4.925-5.656-11c5.141-1.979 8.198-.947 11.31 0zm8.73-4.19a2.801 2.801 0 01-.826-1.994c0-2.479 2.343-4.851 2.443-4.95a.53.53 0 01.75 0h0c.1.1 2.443 2.472 2.444 4.951a2.82 2.82 0 01-4.812 1.993z"/>
  <path fill="none" stroke="#000" stroke-miterlimit="2" stroke-width="1.737" d="M31.56 49.05h-2.739c-1.865-.006-3.375-1.601-3.381-3.571.005-1.97 1.516-3.566 3.381-3.571h14.37c1.865.006 3.375 1.601 3.381 3.571-.006 1.97-1.516 3.566-3.381 3.571h-2.649"/>
</svg>
