<svg viewBox="0 0 72 72" xmlns="http://www.w3.org/2000/svg">
  <path fill="#b3b3b3" d="M68 4v64H4V4h64m4-4H0v72h72V0z"/>
  <path fill="none" stroke="#00a5ff" stroke-miterlimit="10" stroke-width="0.1" d="M12.923 10.958h46.154A1.923 1.923 0 0161 12.881v46.154a1.923 1.923 0 01-1.923 1.923H12.923A1.923 1.923 0 0111 59.035V12.881a1.923 1.923 0 011.923-1.923z"/>
  <rect x="16" y="4" rx="2.254" width="40" height="64" fill="none" stroke="#00a5ff" stroke-miterlimit="10" stroke-width="0.1"/>
  <rect x="16" y="4" rx="2.254" width="40" height="64" transform="rotate(90 36 36)" fill="none" stroke="#00a5ff" stroke-miterlimit="10" stroke-width="0.1"/>
  <circle cx="36" cy="36" r="29" fill="none" stroke="#00a5ff" stroke-miterlimit="10" stroke-width="0.1"/>
  <g fill="none" stroke="#fff" stroke-linecap="round" stroke-linejoin="round" stroke-miterlimit="10" stroke-width="6">
    <path d="M23.01 37.756a14.026 14.026 0 011.242-2.068m7.084-14.415a58.032 58.032 0 001.755-10.475 2.155 2.155 0 012.146-2.023l1.239.001c1.687 0 2.07.694 2.474 2.332l2.177 8.604.226.874a4.828 4.828 0 00.188.527l6.72 14.584c1.098 2.176 2.477 5.504 2.477 8.136a14.369 14.369 0 01-14.578 14.15 14.369 14.369 0 01-14.579-14.15 13.725 13.725 0 011.429-6.077m8.282-16.321l.044-.162m0 0c.081-.28.154-.553.209-.807M22.933 37.88l.077-.124m1.241-2.068c2.052-3.479 5.896-10.292 7.085-14.415M23.01 37.756c.173-.281.627-1.025 1.242-2.068"/>
    <path d="M31.827 19.27c-.513 5.086-9.17 9.406-9.897 9.761l-.072.035M41.012 57.18c8.364-.342 17.143-7.104 17.143-15.205a15.274 15.274 0 00-7.334-12.966 28.91 28.91 0 01-1.08-.6c-2.45-1.42-7.895-5.005-8.72-9.14l-.028-.106"/>
    <path d="M23.392 28.232a14.932 14.932 0 00-1.462.799 15.273 15.273 0 00-7.297 12.944c0 7.986 8.702 14.765 16.912 15.282m19.387-28.191l-.11-.058q-.528-.32-1.082-.6c-.115-.058-.242-.162-.41-.242M32.316 57.983l-1.779 4.772m6.047-4.377l-.122 4.051m4.061-4.44l1.813 4.759"/>
  </g>
  <g fill="#9b9b9a">
    <path d="M23.392 28.232a14.932 14.932 0 00-1.462.799 15.273 15.273 0 00-7.297 12.944c0 8.312 8.335 15.282 16.912 15.282h9.23c8.576 0 17.38-6.97 17.38-15.282a15.274 15.274 0 00-7.334-12.967 28.91 28.91 0 01-1.08-.6c-2.45-1.42-7.57-5.205-8.747-9.139h-9.167c-.513 5.086-9.17 9.407-9.897 9.762l-.072.034"/>
    <path d="M50.932 29.066l-.11-.058q-.528-.32-1.082-.6c-.115-.058-.227-.122-.345-.177"/>
  </g>
  <g fill="#d0cfce">
    <path d="M23.01 37.756a14.026 14.026 0 011.242-2.068m24.442.946c-.196-.32-.4-.635-.62-.938"/>
    <path d="M31.336 21.273a58.169 58.169 0 001.738-10.243 2.455 2.455 0 012.462-2.255l.94.001c1.687 0 2.07.694 2.474 2.332l2.404 9.6 7.34 15.926a13.75 13.75 0 012.044 7.199 14.369 14.369 0 01-14.578 14.15 14.369 14.369 0 01-14.579-14.15 13.725 13.725 0 011.429-6.077m8.282-16.321l.044-.162m0 0c.081-.28.154-.553.209-.807M22.933 37.88l.077-.124m1.241-2.068c2.052-3.479 5.896-10.292 7.085-14.415M23.01 37.756c.173-.281.627-1.025 1.242-2.068m24.442.946c.018.021.039.05.056.068m-.676-1.006c-2.12-3.688-6.72-14.987-6.72-14.988m6.72 14.988a6.567 6.567 0 00.62.938"/>
  </g>
  <g>
    <g fill="none" stroke="#000" stroke-width="1.959">
      <path stroke-miterlimit="10" d="M23.01 37.756a14.026 14.026 0 011.242-2.068"/>
      <path stroke-linejoin="round" d="M31.336 21.273a58.032 58.032 0 001.755-10.475 2.155 2.155 0 012.146-2.023l1.239.001c1.687 0 2.07.694 2.474 2.332l2.177 8.604.226.874a4.828 4.828 0 00.188.527l6.72 14.584c1.098 2.176 2.477 5.504 2.477 8.136a14.369 14.369 0 01-14.578 14.15 14.369 14.369 0 01-14.579-14.15 13.725 13.725 0 011.429-6.077"/>
      <path stroke-miterlimit="10" d="M31.292 21.435l.044-.162m0 0c.081-.28.154-.553.209-.807M22.933 37.88l.077-.124m1.241-2.068c2.052-3.479 5.896-10.292 7.085-14.415M23.01 37.756c.173-.281.627-1.025 1.242-2.068"/>
      <g stroke-miterlimit="10">
        <path d="M31.827 19.27c-.513 5.086-9.17 9.406-9.897 9.761l-.072.035M41.012 57.18c8.364-.342 17.143-7.104 17.143-15.205a15.274 15.274 0 00-7.334-12.966 28.91 28.91 0 01-1.08-.6c-2.45-1.42-7.895-5.005-8.72-9.14l-.028-.106"/>
        <path d="M23.392 28.232a14.932 14.932 0 00-1.462.799 15.273 15.273 0 00-7.297 12.944c0 7.986 8.702 14.765 16.912 15.282m19.387-28.191l-.11-.058q-.528-.32-1.082-.6c-.115-.058-.242-.162-.41-.242"/>
      </g>
      <path stroke-linecap="round" stroke-miterlimit="10" d="M32.316 57.983l-1.779 4.772m6.047-4.377l-.122 4.051m4.061-4.44l1.813 4.759"/>
    </g>
  </g>
</svg>
