<svg viewBox="0 0 72 72" xmlns="http://www.w3.org/2000/svg">
  <path fill="#b3b3b3" d="M68 4v64H4V4h64m4-4H0v72h72V0z"/>
  <path fill="none" stroke="#00a5ff" stroke-miterlimit="10" stroke-width="0.1" d="M12.923 10.958h46.154A1.923 1.923 0 0161 12.881v46.154a1.923 1.923 0 01-1.923 1.923H12.923A1.923 1.923 0 0111 59.035V12.881a1.923 1.923 0 011.923-1.923z"/>
  <rect x="16" y="4" rx="2.254" width="40" height="64" fill="none" stroke="#00a5ff" stroke-miterlimit="10" stroke-width="0.1"/>
  <rect x="16" y="4" rx="2.254" width="40" height="64" transform="rotate(90 36 36)" fill="none" stroke="#00a5ff" stroke-miterlimit="10" stroke-width="0.1"/>
  <circle cx="36" cy="36" r="29" fill="none" stroke="#00a5ff" stroke-miterlimit="10" stroke-width="0.1"/>
  <g fill="none" stroke="#fff" stroke-linecap="round" stroke-linejoin="round" stroke-miterlimit="10" stroke-width="6">
    <path d="M23 17h26M19 28h34M19 56h34M19.895 17H19v50h34V17h-.895M40 14l2.765-4.978A7.82 7.82 0 0149.602 5H60"/>
    <path d="M27.716 49.891a2.168 2.168 0 01-.403-2.406c-1.684-3.303-.663-8.017 2.752-11.431s8.128-4.436 11.431-2.752a2.175 2.175 0 012.883 2.883c1.688 3.306.663 8.016-2.752 11.43s-8.124 4.44-11.431 2.753a2.168 2.168 0 01-2.443-.44l-.037-.037"/>
  </g>
  <path fill="#f4aa41" d="M19.895 17H19v50h34V17h-.895"/>
  <path fill="#fcea2b" d="M27.716 49.891a2.168 2.168 0 01-.403-2.406c-1.684-3.303-.663-8.017 2.752-11.431s8.128-4.436 11.431-2.752a2.175 2.175 0 012.883 2.883c1.688 3.306.663 8.016-2.752 11.43s-8.124 4.44-11.431 2.753a2.168 2.168 0 01-2.443-.44l-.037-.037"/>
  <path fill="#f4aa41" d="M41.377 47.547c-3.415 3.415-8.125 4.44-11.433 2.753 13.724 0 14.378-13.907 14.378-13.907 1.691 3.304.467 7.739-2.945 11.154z"/>
  <path fill="#f4aa41" d="M33.424 51.494a16.572 16.572 0 01-4.137-1.182l-.99-.408h1.647c5.535 0 9.568-2.27 11.988-6.746a17.793 17.793 0 001.995-6.783l.07-1.486.678 1.324c1.766 3.452.582 8.01-3.018 11.614a11.947 11.947 0 01-8.233 3.667zm-1.395-.911a10.627 10.627 0 009.069-3.316c2.803-2.807 4.059-6.331 3.402-9.224-.644 3.5-3.133 11.5-12.471 12.54z"/>
  <path fill="#f4aa41" d="M43.912 33.654a5.77 5.77 0 01.383 2.862l-1.623-1.623 1.24-1.24M27.77 50.36a5.77 5.77 0 002.888-.082l-1.863-1.341-1.024 1.423"/>
  <g fill="none" stroke="#000" stroke-linecap="round" stroke-width="2">
    <path stroke-linejoin="round" d="M23 17h26M19 28h34M19 56h34M19.895 17H19v50h34V17h-.895M40 14l2.765-4.978A7.82 7.82 0 0149.602 5H60"/>
    <path stroke-miterlimit="10" d="M27.716 49.891a2.168 2.168 0 01-.403-2.406c-1.684-3.303-.663-8.017 2.752-11.431s8.128-4.436 11.431-2.752a2.175 2.175 0 012.883 2.883c1.688 3.306.663 8.016-2.752 11.43s-8.124 4.44-11.431 2.753a2.168 2.168 0 01-2.443-.44l-.037-.037"/>
  </g>
</svg>
