<svg viewBox="0 0 72 72" xmlns="http://www.w3.org/2000/svg">
  <path fill="#b3b3b3" d="M68 4v64H4V4h64m4-4H0v72h72V0z"/>
  <path fill="none" stroke="#00a5ff" stroke-miterlimit="10" stroke-width="0.1" d="M12.92 10.96h46.15a1.923 1.923 0 011.923 1.923v46.15a1.923 1.923 0 01-1.923 1.923H12.92a1.923 1.923 0 01-1.923-1.923v-46.15a1.923 1.923 0 011.923-1.923z"/>
  <rect x="16" y="4" rx="2.254" width="40" height="64" fill="none" stroke="#00a5ff" stroke-miterlimit="10" stroke-width="0.1"/>
  <rect x="16" y="4" rx="2.254" width="40" height="64" transform="rotate(90 36 36)" fill="none" stroke="#00a5ff" stroke-miterlimit="10" stroke-width="0.1"/>
  <circle cx="36" cy="36" r="29" fill="none" stroke="#00a5ff" stroke-miterlimit="10" stroke-width="0.1"/>
  <g fill="none" stroke="#fff" stroke-linecap="round" stroke-linejoin="round" stroke-miterlimit="10" stroke-width="6">
    <path stroke-opacity="0.99" d="M51.28 44.49l1.703.985c-5.471 9.48-17.57 12.74-27.02 7.278l3.463-6.007"/>
    <circle cx="36.01" cy="36" r="28"/>
    <path stroke-opacity="0.99" d="M27.02 24.79a7.916 7.916 0 01.477-2.947c1.509-4.147 6.122-6.274 10.3-4.752 3.519 1.281 5.611 4.739 5.286 8.274"/>
    <ellipse cx="20.07" cy="40.02" rx="8.057" ry="7.99" transform="rotate(-10)" stroke-opacity="0.99"/>
    <path stroke-opacity="0.99" d="M21.86 41.28a8.057 7.99 0 006.682 3.535 8.057 7.99 0 008.057-7.99 8.057 7.99 0 00-8.057-7.99 8.057 7.99 0 00-.639.03 8.057 7.99 0 01.098.136 8.057 7.99 0 01.4.691 8.057 7.99 0 01.328.73 8.057 7.99 0 01.254.759 8.057 7.99 0 01.178.779 8.057 7.99 0 01.096.793 8.057 7.99 0 01.021.564 8.057 7.99 0 01-.04.797 8.057 7.99 0 01-.122.791 8.057 7.99 0 01-.2.774 8.057 7.99 0 01-.274.75 8.057 7.99 0 01-.35.718 8.057 7.99 0 01-.422.682 8.057 7.99 0 01-.486.637 8.057 7.99 0 01-.551.584 8.057 7.99 0 01-.604.527 8.057 7.99 0 01-.656.465 8.057 7.99 0 01-.697.396 8.057 7.99 0 01-.736.327 8.057 7.99 0 01-.764.252 8.057 7.99 0 01-.785.175 8.057 7.99 0 01-.73.088z"/>
    <ellipse cx="53.2" cy="19.47" rx="8.411" ry="8.345" transform="rotate(20)" stroke-opacity="0.99"/>
    <path d="M20.02 40.39a8.057 7.99 0 006.682 3.535 8.057 7.99 0 008.057-7.99 8.057 7.99 0 00-8.057-7.99 8.057 7.99 0 00-.639.03 8.057 7.99 0 01.098.136 8.057 7.99 0 01.4.691 8.057 7.99 0 01.328.73 8.057 7.99 0 01.254.759 8.057 7.99 0 01.178.779 8.057 7.99 0 01.096.793 8.057 7.99 0 01.021.564 8.057 7.99 0 01-.04.797 8.057 7.99 0 01-.122.791 8.057 7.99 0 01-.2.774 8.057 7.99 0 01-.274.75 8.057 7.99 0 01-.35.718 8.057 7.99 0 01-.422.682 8.057 7.99 0 01-.486.637 8.057 7.99 0 01-.551.584 8.057 7.99 0 01-.604.527 8.057 7.99 0 01-.656.465 8.057 7.99 0 01-.697.396 8.057 7.99 0 01-.736.327 8.057 7.99 0 01-.764.252 8.057 7.99 0 01-.785.175 8.057 7.99 0 01-.73.088z"/>
  </g>
  <g transform="translate(-40.6 1.488)">
    <circle cx="76.6" cy="34.51" r="28" fill="#fff"/>
    <path fill="#a57939" stroke="#a57939" stroke-width="2" d="M93.59 43.99a19.836 19.836 0 01-12.02 9.248 19.797 19.797 0 01-15.03-1.979l3.463-6.007c8.406-15.49 5.906-11.48 21.62-2.395z"/>
    <ellipse cx="79.02" cy="-4.052" rx="8.057" ry="7.993" transform="rotate(20)" fill="#6a462f" stroke="#6a462f" stroke-width="2"/>
    <ellipse cx="60.45" cy="45.92" rx="8.057" ry="7.99" transform="rotate(-10)" fill="#5c9e31"/>
    <path fill="#6a462f" d="M60.92 39.05a8.057 7.99 0 006.682 3.535 8.057 7.99 0 008.057-7.99 8.057 7.99 0 00-8.057-7.99 8.057 7.99 0 00-.639.03 8.057 7.99 0 01.098.136 8.057 7.99 0 01.4.691 8.057 7.99 0 01.328.73 8.057 7.99 0 01.254.759 8.057 7.99 0 01.178.779 8.057 7.99 0 01.096.793 8.057 7.99 0 01.021.564 8.057 7.99 0 01-.04.797 8.057 7.99 0 01-.122.791 8.057 7.99 0 01-.2.774 8.057 7.99 0 01-.274.75 8.057 7.99 0 01-.35.718 8.057 7.99 0 01-.422.682 8.057 7.99 0 01-.486.637 8.057 7.99 0 01-.551.584 8.057 7.99 0 01-.604.527 8.057 7.99 0 01-.656.465 8.057 7.99 0 01-.697.396 8.057 7.99 0 01-.736.327 8.057 7.99 0 01-.764.252 8.057 7.99 0 01-.785.175 8.057 7.99 0 01-.73.088z"/>
    <ellipse cx="90.67" cy="4.321" rx="8.057" ry="7.99" transform="rotate(20)" fill="#6a462f"/>
    <path fill="none" d="M47.37 59.44a8.057 7.99 0 006.682 3.535 8.057 7.99 0 008.057-7.99 8.057 7.99 0 00-8.057-7.99 8.057 7.99 0 00-.639.03 8.057 7.99 0 01.098.136 8.057 7.99 0 01.4.691 8.057 7.99 0 01.328.73 8.057 7.99 0 01.254.759 8.057 7.99 0 01.178.779 8.057 7.99 0 01.096.793 8.057 7.99 0 01.021.564 8.057 7.99 0 01-.04.797 8.057 7.99 0 01-.122.791 8.057 7.99 0 01-.2.774 8.057 7.99 0 01-.274.75 8.057 7.99 0 01-.35.718 8.057 7.99 0 01-.422.682 8.057 7.99 0 01-.486.637 8.057 7.99 0 01-.551.584 8.057 7.99 0 01-.604.527 8.057 7.99 0 01-.656.465 8.057 7.99 0 01-.697.396 8.057 7.99 0 01-.736.327 8.057 7.99 0 01-.764.252 8.057 7.99 0 01-.785.175 8.057 7.99 0 01-.73.088z"/>
  </g>
  <g fill="none">
    <path stroke="#000" stroke-opacity="0.99" stroke-linecap="round" stroke-width="2" d="M51.28 44.49l1.703.985c-5.471 9.48-17.57 12.74-27.02 7.278l3.463-6.007"/>
    <circle cx="36.01" cy="36" r="28" stroke="#000" stroke-miterlimit="10" stroke-width="2"/>
    <path stroke="#000" stroke-opacity="0.99" stroke-linecap="round" stroke-width="2" d="M27.02 24.79a7.916 7.916 0 01.477-2.947c1.509-4.147 6.122-6.274 10.3-4.752 3.519 1.281 5.611 4.739 5.286 8.274"/>
    <ellipse cx="20.07" cy="40.02" rx="8.057" ry="7.99" transform="rotate(-10)" stroke="#000" stroke-opacity="0.99" stroke-width="2"/>
    <path d="M21.86 41.28a8.057 7.99 0 006.682 3.535 8.057 7.99 0 008.057-7.99 8.057 7.99 0 00-8.057-7.99 8.057 7.99 0 00-.639.03 8.057 7.99 0 01.098.136 8.057 7.99 0 01.4.691 8.057 7.99 0 01.328.73 8.057 7.99 0 01.254.759 8.057 7.99 0 01.178.779 8.057 7.99 0 01.096.793 8.057 7.99 0 01.021.564 8.057 7.99 0 01-.04.797 8.057 7.99 0 01-.122.791 8.057 7.99 0 01-.2.774 8.057 7.99 0 01-.274.75 8.057 7.99 0 01-.35.718 8.057 7.99 0 01-.422.682 8.057 7.99 0 01-.486.637 8.057 7.99 0 01-.551.584 8.057 7.99 0 01-.604.527 8.057 7.99 0 01-.656.465 8.057 7.99 0 01-.697.396 8.057 7.99 0 01-.736.327 8.057 7.99 0 01-.764.252 8.057 7.99 0 01-.785.175 8.057 7.99 0 01-.73.088z"/>
    <ellipse cx="53.2" cy="19.47" rx="8.411" ry="8.345" transform="rotate(20)" stroke="#000" stroke-opacity="0.99" stroke-width="2"/>
    <path stroke="#000" stroke-linecap="round" stroke-linejoin="round" stroke-miterlimit="0" stroke-width="2" d="M20.02 40.39a8.057 7.99 0 006.682 3.535 8.057 7.99 0 008.057-7.99 8.057 7.99 0 00-8.057-7.99 8.057 7.99 0 00-.639.03 8.057 7.99 0 01.098.136 8.057 7.99 0 01.4.691 8.057 7.99 0 01.328.73 8.057 7.99 0 01.254.759 8.057 7.99 0 01.178.779 8.057 7.99 0 01.096.793 8.057 7.99 0 01.021.564 8.057 7.99 0 01-.04.797 8.057 7.99 0 01-.122.791 8.057 7.99 0 01-.2.774 8.057 7.99 0 01-.274.75 8.057 7.99 0 01-.35.718 8.057 7.99 0 01-.422.682 8.057 7.99 0 01-.486.637 8.057 7.99 0 01-.551.584 8.057 7.99 0 01-.604.527 8.057 7.99 0 01-.656.465 8.057 7.99 0 01-.697.396 8.057 7.99 0 01-.736.327 8.057 7.99 0 01-.764.252 8.057 7.99 0 01-.785.175 8.057 7.99 0 01-.73.088z"/>
  </g>
</svg>
