<svg viewBox="0 0 72 72" xmlns="http://www.w3.org/2000/svg">
  <path fill="#B3B3B3" d="M68 4v64H4V4h64m4-4H0v72h72V0z"/>
  <path fill="none" stroke="#00A5FF" stroke-miterlimit="10" stroke-width="0.1" d="M12.923 10.958h46.154c1.062 0 1.923.861 1.923 1.923v46.154a1.923 1.923 0 01-1.923 1.923H12.923A1.923 1.923 0 0111 59.035V12.881c0-1.062.861-1.923 1.923-1.923z"/>
  <path fill="none" stroke="#00A5FF" stroke-miterlimit="10" stroke-width="0.1" d="M18.254 4h35.492A2.254 2.254 0 0156 6.254v59.492A2.254 2.254 0 0153.746 68H18.254A2.254 2.254 0 0116 65.746V6.254A2.254 2.254 0 0118.254 4z"/>
  <path fill="none" stroke="#00A5FF" stroke-miterlimit="10" stroke-width="0.1" d="M68 18.254v35.492A2.254 2.254 0 0165.746 56H6.254A2.254 2.254 0 014 53.746V18.254A2.254 2.254 0 016.254 16h59.492A2.254 2.254 0 0168 18.254z"/>
  <circle cx="36" cy="36" r="29" fill="none" stroke="#00A5FF" stroke-miterlimit="10" stroke-width="0.1"/>
  <g fill="none" stroke="#fff" stroke-linecap="round" stroke-linejoin="round" stroke-miterlimit="10" stroke-width="6">
    <path d="M26 38.057c-3 0-4-7-4-14 0-6 5-12 14-12s14 6 14 12c0 7-1 14-4 14"/>
    <path d="M24.969 31.057c-.102 8 4.936 14 11 14 5.936 0 11.063-6 11.063-14 0-5-3-11-3-11-8 0-10 3-16 1 .001 0-2.999 5-3.063 10z"/>
    <path d="M26.5 39.4H13.4a55.456 55.456 0 014.3 8.4c.507 1.24.941 2.509 1.3 3.8m34-.2c.4-1.2.8-2.4 1.3-3.6a51.128 51.128 0 014.3-8.4H44.7M42 30.1a2 2 0 11-4 0 2 2 0 014 0m-8 0a2 2 0 11-4 0 2 2 0 014 0M33 39c1.875-1 4.125-1 6 0m-1-.5c.24.082.475.182.7.3"/>
    <path d="M17 60v-3c0-5 5-9 10-9 6 5 12 5 18 0 5 0 10 4 10 9v3M34 38.7l.3 2.4.8-2.3-.1-.1zm3.9 0l-.2 2.4-.8-2.3-.1-.1z"/>
  </g>
  <path fill="#3F3F3F" d="M26 38.057c-3 0-4-7-4-14 0-6 5-12 14-12s14 6 14 12c0 7-1 14-4 14"/>
  <path fill="#FCEA2B" d="M24.969 31.057c-.102 8 4.936 14 11 14 5.936 0 11.063-6 11.063-14 0-5-3-11-3-11-8 0-10 3-16 1 .001 0-2.999 5-3.063 10z"/>
  <path fill="#D22F27" d="M35.65 45.1c-3.4-.1-8.6-5.7-8.6-5.7h-13.6a82.948 82.948 0 014.3 8.4 48.596 48.596 0 012.8 9.9h30.9a48.596 48.596 0 012.8-9.9 82.948 82.948 0 014.3-8.4h-13.9c.1 0-5.5 5.7-9 5.7z"/>
  <path fill="#3F3F3F" d="M17 61v-3.8c0-5 5-9 10-9 6 5 12 5 18 0 5 0 10 4 10 9V61H17z"/>
  <path d="M31.45 61h9c3.6-2.9 5.6-13.5 5.6-13.5-5.767 5-14.333 5-20.1 0 0-.1 2 10.5 5.5 13.5z"/>
  <g>
    <path fill="none" stroke="#000" stroke-linecap="round" stroke-linejoin="round" stroke-width="2" d="M26 38.057c-3 0-4-7-4-14 0-6 5-12 14-12s14 6 14 12c0 7-1 14-4 14"/>
    <path fill="none" stroke="#000" stroke-linejoin="round" stroke-width="2" d="M24.969 31.057c-.102 8 4.936 14 11 14 5.936 0 11.063-6 11.063-14 0-5-3-11-3-11-8 0-10 3-16 1 .001 0-2.999 5-3.063 10z"/>
    <path fill="none" stroke="#000" stroke-linejoin="round" stroke-width="2" d="M26.5 39.4H13.4a55.456 55.456 0 014.3 8.4c.507 1.24.941 2.509 1.3 3.8m34-.2c.4-1.2.8-2.4 1.3-3.6a51.128 51.128 0 014.3-8.4H44.7"/>
    <path d="M42 30.1a2 2 0 11-4 0 2 2 0 014 0m-8 0a2 2 0 11-4 0 2 2 0 014 0"/>
    <path fill="none" stroke="#000" stroke-linecap="round" stroke-linejoin="round" stroke-width="2" d="M33 39c1.875-1 4.125-1 6 0"/>
    <path fill="none" stroke="#000" stroke-linecap="round" stroke-linejoin="round" d="M38 38.5c.24.082.475.182.7.3"/>
    <path fill="none" stroke="#000" stroke-linecap="round" stroke-linejoin="round" stroke-width="2" d="M17 60v-3c0-5 5-9 10-9 6 5 12 5 18 0 5 0 10 4 10 9v3"/>
    <path stroke="#000" stroke-linecap="round" stroke-linejoin="round" d="M34 38.7l.3 2.4.8-2.3-.1-.1zm3.9 0l-.2 2.4-.8-2.3-.1-.1z"/>
  </g>
</svg>
