<svg viewBox="0 0 72 72" xmlns="http://www.w3.org/2000/svg">
  <path fill="#b3b3b3" d="M0 68.635h68.636V0H.001zM3.815 3.813h61.01v61.01H3.814z"/>
  <path fill="none" stroke="#00a5ff" stroke-miterlimit="10" stroke-width="0.1" d="M56.317 58.11H12.32a1.833 1.833 0 01-1.833-1.833V12.28a1.833 1.833 0 011.833-1.834h43.997a1.833 1.833 0 011.833 1.834v43.996a1.833 1.833 0 01-1.833 1.834z"/>
  <path fill="none" stroke="#00a5ff" stroke-miterlimit="10" stroke-width="0.1" d="M51.235 64.822H17.402a2.148 2.148 0 01-2.15-2.148V5.962a2.148 2.148 0 012.15-2.149h33.833a2.148 2.148 0 012.149 2.149v56.712a2.148 2.148 0 01-2.149 2.148z"/>
  <path fill="none" stroke="#00a5ff" stroke-miterlimit="10" stroke-width="0.1" d="M3.814 51.234V17.401a2.148 2.148 0 012.148-2.149h56.712a2.148 2.148 0 012.149 2.149v33.834a2.148 2.148 0 01-2.149 2.148H5.962a2.148 2.148 0 01-2.148-2.149z"/>
  <circle cx="34.318" cy="34.318" r="27.645" fill="none" stroke="#00a5ff" stroke-miterlimit="10" stroke-width="0.1"/>
  <g fill="none" stroke="#fff" stroke-linecap="round" stroke-linejoin="round" stroke-miterlimit="10" stroke-width="6">
    <path d="M20.635 57.23l-.08-8.291c0-.955.078-2.634.713-3.164a5.278 5.278 0 011.573-.502c.9-.314 1.384-2.763 2.098-2.868.578-.085 2.92 2.764 3.064 2.9a6.032 6.032 0 01.115 2.168 28.117 28.117 0 00-.226 6.056c.1.879.837 3.7.837 3.7m19.286.001l.08-8.291c0-.955-.078-2.634-.713-3.164a5.278 5.278 0 00-1.573-.502c-.9-.314-1.384-2.763-2.098-2.868-.579-.085-2.921 2.764-3.064 2.9a6.032 6.032 0 00-.115 2.168 28.117 28.117 0 01.226 6.056c-.1.879-.837 3.7-.837 3.7M31.506 36.5a7.796 7.796 0 006 0m-5.046-7.593A1.907 1.907 0 1130.551 27a1.912 1.912 0 011.907 1.907m7.627 0A1.907 1.907 0 1138.178 27a1.912 1.912 0 011.907 1.907"/>
    <path d="M23.376 28.216c0 7.626 5.365 14.715 11.085 14.715s10.486-5.72 10.486-13.345c0-4.767-.756-6.296-2.581-10.886 0 0-5.447.486-6.508.734-1.697.392-4.049 1.129-6.068.942a20.196 20.196 0 01-3.424-.676c-1.85 4-2.99 7.599-2.99 8.516zm4.844 19.316A11.388 11.388 0 0036 49.236h0a12.337 12.337 0 003.968-1.394M16.26 57.23v-2.86a8.921 8.921 0 01.576-2.737c.447-1.327 1.107-2.268 3.172-3.634"/>
    <path d="M24.366 36.7c-3 0-4-7-4-14 0-6 5-12 14-12s14 6 14 12c0 7-1 14-4 14m8.087 20.53v-2.86a8.918 8.918 0 00-.576-2.737c-.447-1.327-1.106-2.267-3.171-3.633"/>
  </g>
  <path fill="#f1b31c" d="M24.366 36.7c-3 0-4-7-4-14 0-6 5-12 14-12s14 6 14 12c0 7-1 14-4 14"/>
  <path fill="#fcea2b" d="M52.954 58.184a.9.9 0 01-.953-.954v-2.86c0-4.29-4.29-8.388-8.293-8.58-5.91 4.767-11.916 4.767-17.826 0-4.004.192-9.247 4.29-9.247 8.58v2.86a.9.9 0 01-.953.954m7.584-28.892c-.1 7.674 4.1 13.43 11 13.43 7.1 0 11.1-5.756 11.1-13.43 0-4.796-3-9.592-3-9.592-8 0-10 2.878-16 .96a16.206 16.206 0 00-3.1 8.632z"/>
  <path fill="#92d3f5" d="M29 58.184s-.91-3.608-.91-4.18l-.016-6.262c0-4.29-3.444-4.722-3.444-4.722l-3.38 2.871-.734 8.356.13 3.937zm10.65 0s.91-3.608.91-4.18l.016-6.262c0-4.29 3.444-4.722 3.444-4.722l3.38 2.871.734 8.356-.13 3.937z"/>
  <path fill="none" stroke="#000" stroke-linecap="round" stroke-linejoin="round" stroke-width="2" d="M20.635 57.23l-.08-8.291c0-.955.078-2.634.713-3.164a5.278 5.278 0 011.573-.502c.9-.314 1.384-2.763 2.098-2.868.578-.085 2.92 2.764 3.064 2.9a6.032 6.032 0 01.115 2.168 28.117 28.117 0 00-.226 6.056c.1.879.837 3.7.837 3.7m19.286.001l.08-8.291c0-.955-.078-2.634-.713-3.164a5.278 5.278 0 00-1.573-.502c-.9-.314-1.384-2.763-2.098-2.868-.579-.085-2.921 2.764-3.064 2.9a6.032 6.032 0 00-.115 2.168 28.117 28.117 0 01.226 6.056c-.1.879-.837 3.7-.837 3.7M31.506 36.5a7.796 7.796 0 006 0"/>
  <path d="M32.46 28.907A1.907 1.907 0 1130.551 27a1.912 1.912 0 011.907 1.907m7.627 0A1.907 1.907 0 1138.178 27a1.912 1.912 0 011.907 1.907"/>
  <path fill="none" stroke="#000" stroke-linejoin="round" stroke-width="2" d="M23.376 28.216c0 7.626 5.365 14.715 11.085 14.715s10.486-5.72 10.486-13.345c0-4.767-.756-6.296-2.581-10.886 0 0-5.447.486-6.508.734-1.697.392-4.049 1.129-6.068.942a20.196 20.196 0 01-3.424-.676c-1.85 4-2.99 7.599-2.99 8.516z"/>
  <path fill="none" stroke="#000" stroke-linecap="round" stroke-linejoin="round" stroke-width="2" d="M28.22 47.532A11.388 11.388 0 0036 49.236h0a12.337 12.337 0 003.968-1.394M16.26 57.23v-2.86a8.921 8.921 0 01.576-2.737c.447-1.327 1.107-2.268 3.172-3.634M24.366 36.7c-3 0-4-7-4-14 0-6 5-12 14-12s14 6 14 12c0 7-1 14-4 14m8.087 20.53v-2.86a8.918 8.918 0 00-.576-2.737c-.447-1.327-1.106-2.267-3.171-3.633"/>
</svg>
