<svg viewBox="0 0 72 72" xmlns="http://www.w3.org/2000/svg">
  <path fill="#B3B3B3" d="M68 4v64H4V4h64m4-4H0v72h72V0z"/>
  <path fill="none" stroke="#00A5FF" stroke-miterlimit="10" stroke-width="0.1" d="M12.923 10.958h46.154c1.062 0 1.923.861 1.923 1.923h0v46.154a1.923 1.923 0 01-1.923 1.923H12.923A1.923 1.923 0 0111 59.035h0V12.881c0-1.062.861-1.923 1.923-1.923h0z"/>
  <path fill="none" stroke="#00A5FF" stroke-miterlimit="10" stroke-width="0.1" d="M18.254 4h35.492A2.254 2.254 0 0156 6.254v59.492A2.254 2.254 0 0153.746 68H18.254A2.254 2.254 0 0116 65.746V6.254A2.254 2.254 0 0118.254 4z"/>
  <path fill="none" stroke="#00A5FF" stroke-miterlimit="10" stroke-width="0.1" d="M68 18.254v35.492A2.254 2.254 0 0165.746 56H6.254A2.254 2.254 0 014 53.746V18.254A2.254 2.254 0 016.254 16h59.492A2.254 2.254 0 0168 18.254z"/>
  <circle cx="36" cy="36" r="29" fill="none" stroke="#00A5FF" stroke-miterlimit="10" stroke-width="0.1"/>
  <g fill="none" stroke="#fff" stroke-linecap="round" stroke-linejoin="round" stroke-miterlimit="10" stroke-width="6">
    <circle cx="54.662" cy="37.461" r="4"/>
    <path d="M65.091 47.667l2.047 2.047m-8.245-5.05v13.2m-25.36-9.766s-1.207 6.021 2.307 6.021c3.513 0 2.307-6.021 2.307-6.021"/>
    <path d="M34.99 54.12l-2.416 3.637c-3.63-1.754-5.671-12.962-5.671-12.962l-5.105 6.935 2.974 1.842-.999 3.113 8.87 1.072m4.047-3.637l2.415 3.637c3.63-1.754 5.673-12.962 5.673-12.962l5.104 6.935-2.974 1.842.999 3.113-8.87 1.072"/>
    <path d="M16.902 57.795s-2-13 10-13c3.192 2.128 5.927 3.598 9 3.592h-.124c3.073.006 5.808-1.464 9-3.592 12 0 10 13 10 13M26 35.08c-4 0-4-4.5-4-11.5s4-14 14-14 14 7 14 14 0 11.5-4 11.5"/>
    <path d="M24.936 28.58c0 9 4.937 14 11 14 5.937 0 11.064-5 11.064-14a12.137 12.137 0 00-1-5c-3-3-7-8-7-8-4 3-7 6-13 7.001 0 0-1.064.999-1.064 6z"/>
    <path d="M33.953 27.047a2 2 0 11-4 0 2 2 0 014 0m2 10.003a7.652 7.652 0 01-3.448-.859 1 1 0 01.895-1.789c1.593.86 3.512.86 5.106 0a1 1 0 01.894 1.79 7.653 7.653 0 01-3.447.857zm6-10.003a2 2 0 11-4 0 2 2 0 014 0M56.284 41.724l2.828-2.829 7.376 7.375-2.829 2.829z"/>
  </g>
  <path fill="#FFF" d="M54.778 58.592s2-13.797-10-13.797c-3.192 2.12-5.927 3.584-9 3.577h.125c-3.074.007-5.809-1.458-9-3.577-12 0-10 13.797-10 13.797"/>
  <path fill="#61B2E4" d="M26.902 44.795c-12 0-10 13.967-10 13.967h15.894s-4.421-3.264-5.893-13.967m17.875 0c12 0 10 13.967 10 13.967H39.03s5.422-7.443 5.748-13.967"/>
  <path fill="#92D3F5" d="M33.533 48.284s-1.207 6.022 2.307 6.022c3.513 0 2.307-6.022 2.307-6.022"/>
  <path fill="#9B9B9A" d="M56.284 41.724l2.828-2.829 7.376 7.375-2.829 2.829z"/>
  <circle cx="54.662" cy="37.461" r="4" fill="#D0CFCE"/>
  <path fill="#92D3F5" d="M34.99 54.488l-2.416 3.638c-3.63-1.754-5.671-12.962-5.671-12.962l-5.105 6.934 2.974 1.842-.999 3.114 8.87 1.072m3.036-4.03l1.79 2.61 1.507 2.044h-6.311l1.507-2.044zm1.011.392l2.415 3.638c3.63-1.754 5.673-12.962 5.673-12.962l5.104 6.934-2.974 1.842.999 3.114-8.87 1.072"/>
  <path fill="#A57939" d="M26 35.08c-4 0-4-4.5-4-11.5s4-14 14-14 14 7 14 14 0 11.5-4 11.5"/>
  <path fill="#FCEA2B" d="M24.936 28.58c0 9 4.937 14 11 14 5.937 0 11.064-5 11.064-14a12.137 12.137 0 00-1-5c-3-3-7-8-7-8-4 3-7 6-13 7.001 0 0-1.064.999-1.064 6z"/>
  <circle cx="54.662" cy="37.461" r="4" fill="none" stroke="#000" stroke-linecap="round" stroke-linejoin="round" stroke-miterlimit="10" stroke-width="2"/>
  <path fill="none" stroke="#000" stroke-linecap="round" stroke-linejoin="round" stroke-miterlimit="10" stroke-width="2" d="M65.091 47.667l2.047 2.047m-8.245-5.05v13.2m-25.36-9.766s-1.207 6.021 2.307 6.021c3.513 0 2.307-6.021 2.307-6.021"/>
  <path fill="none" stroke="#000" stroke-linecap="round" stroke-linejoin="round" stroke-miterlimit="10" stroke-width="2" d="M34.99 54.12l-2.416 3.637c-3.63-1.754-5.671-12.962-5.671-12.962l-5.105 6.935 2.974 1.842-.999 3.113 8.87 1.072m4.047-3.637l2.415 3.637c3.63-1.754 5.673-12.962 5.673-12.962l5.104 6.935-2.974 1.842.999 3.113-8.87 1.072"/>
  <path fill="none" stroke="#000" stroke-linecap="round" stroke-linejoin="round" stroke-miterlimit="10" stroke-width="2" d="M16.902 57.795s-2-13 10-13c3.192 2.128 5.927 3.598 9 3.592h-.124c3.073.006 5.808-1.464 9-3.592 12 0 10 13 10 13"/>
  <path fill="none" stroke="#000" stroke-linecap="round" stroke-linejoin="round" stroke-width="2" d="M26 35.08c-4 0-4-4.5-4-11.5s4-14 14-14 14 7 14 14 0 11.5-4 11.5"/>
  <path fill="none" stroke="#000" stroke-linejoin="round" stroke-width="2" d="M24.936 28.58c0 9 4.937 14 11 14 5.937 0 11.064-5 11.064-14a12.137 12.137 0 00-1-5c-3-3-7-8-7-8-4 3-7 6-13 7.001 0 0-1.064.999-1.064 6z"/>
  <path d="M33.953 27.047a2 2 0 11-4 0 2 2 0 014 0m2 10.003a7.652 7.652 0 01-3.448-.859 1 1 0 01.895-1.789c1.593.86 3.512.86 5.106 0a1 1 0 01.894 1.79 7.653 7.653 0 01-3.447.857zm6-10.003a2 2 0 11-4 0 2 2 0 014 0"/>
  <path fill="none" stroke="#000" stroke-linecap="round" stroke-linejoin="round" stroke-miterlimit="10" stroke-width="2" d="M56.284 41.724l2.828-2.829 7.376 7.375-2.829 2.829z"/>
</svg>
