<svg viewBox="0 0 72 72" xmlns="http://www.w3.org/2000/svg">
  <path fill="#b3b3b3" d="M68 4v64H4V4h64m4-4H0v72h72V0z"/>
  <path fill="none" stroke="#00a5ff" stroke-miterlimit="10" stroke-width="0.1" d="M12.923 10.958h46.154A1.923 1.923 0 0161 12.881v46.154a1.923 1.923 0 01-1.923 1.923H12.923A1.923 1.923 0 0111 59.035V12.881a1.923 1.923 0 011.923-1.923z"/>
  <rect x="16" y="4" rx="2.254" width="40" height="64" fill="none" stroke="#00a5ff" stroke-miterlimit="10" stroke-width="0.1"/>
  <rect x="16" y="4" rx="2.254" width="40" height="64" transform="rotate(90 36 36)" fill="none" stroke="#00a5ff" stroke-miterlimit="10" stroke-width="0.1"/>
  <circle cx="36" cy="36" r="29" fill="none" stroke="#00a5ff" stroke-miterlimit="10" stroke-width="0.1"/>
  <g fill="none" stroke="#fff" stroke-linecap="round" stroke-linejoin="round" stroke-miterlimit="10" stroke-width="6">
    <path d="M42.01 28.552a2 2 0 11-2-2 2 2 0 012 2m-8 0a2 2 0 11-2-2 2 2 0 012 2m2 10.002a7.653 7.653 0 01-3.447-.858 1 1 0 01.894-1.789 5.377 5.377 0 005.106 0 1 1 0 11.894 1.79 7.652 7.652 0 01-3.447.857zm14.948-14.441C46.484 10.493 36.01 11.892 36.01 11.892s-10.353-1.384-14.869 11.986m4.315.821l-11.318-1.617s6.189 9.735 10.366 8.697"/>
    <path d="M46.565 24.718l11.45-1.636s-6.268 9.848-10.494 8.799"/>
    <circle cx="36.01" cy="22.113" r="1.5"/>
    <path d="M36.01 15.74a20.458 20.458 0 01-3.08 5.058m3.08-5.058a20.456 20.456 0 003.08 5.058M18.082 52.072v-9.566h7.085v3.565m-5.151-3.603v-4.744m3.371 4.783v-3.442"/>
    <path d="M54.948 59.912s2-13-10-13c-3.192 2.128-5.927 3.599-9 3.592h.125c-3.074.007-5.808-1.464-9-3.592-12 0-10 13-10 13m9.36-35.402l-.982.23a17.29 17.29 0 00-.78 5.173c0 7.827 5.077 14.173 11.34 14.173s11.338-6.346 11.338-14.174a17.29 17.29 0 00-.78-5.173l-.811-.324"/>
    <path d="M46.565 24.718l11.45-1.636s-6.268 9.848-10.494 8.799m.369 28.089c-18.5-5.137-20.817-13.058-20.817-13.058s-4.2.205-5.678 1.354c3.117 6.429 5.69 8.639 13.86 11.769m-15.62-29.744s-.06 3.717-2.712 5.145c-2.542 1.44-2.752 4.518-2.243 7.07.748 3.536.408 5.711-2.244 8.023-3.12 2.72-2.192 7.751-.9 9.383M26.83 21.54a6.553 6.553 0 006.097 1.535M45.19 21.54a6.553 6.553 0 01-6.098 1.535M52.2 30.291s.06 3.717 2.712 5.145c2.541 1.44 2.752 4.518 2.243 7.07-.748 3.536-.408 5.711 2.244 8.023 3.12 2.72 2.192 7.751.9 9.383"/>
  </g>
  <path fill="#ffa7c0" d="M54.925 60.931s2-14.026-10-14.026c-3.192 2.128-5.927 3.598-9 3.592h.125c-3.074.006-5.809-1.464-9-3.592-12 0-10 14.026-10 14.026z"/>
  <path fill="#e67a94" d="M45.31 46.905a18.013 18.013 0 01-8.937 3.588c13.063.412 12.978 6.395 13.74 10.395h5.113s2.085-13.983-9.915-13.983z"/>
  <path fill="#6a462f" d="M18.058 52.064v-9.565h7.085v3.564"/>
  <path fill="#a57939" d="M47.97 60.958c-18.5-5.136-20.92-14.053-20.92-14.053s-4.2.204-5.678 1.353c3.117 6.43 5.935 9.55 14.105 12.681"/>
  <g fill="#fcea2b">
    <path d="M38.156 20.756a9.395 9.395 0 01-2.18-5.054c-.028 0-.055-.005-.083-.005a8.272 8.272 0 01-1.98 5.06 10.877 10.877 0 01-8.794 4.708 17.4 17.4 0 00-.566 4.405c0 7.828 5.077 14.173 11.339 14.173s11.339-6.345 11.339-14.173a17.345 17.345 0 00-.626-4.61 9.753 9.753 0 01-8.45-4.504z"/>
    <path d="M46.678 24.699l11.45-1.636s-6.267 9.849-10.494 8.799M25.569 24.68L14.25 23.063s6.189 9.735 10.367 8.697"/>
  </g>
  <g fill="#f4aa41">
    <path d="M35.862 11.92a15.35 15.35 0 00-15.137 12.845c8.826 3.057 13.157-3.939 13.157-3.939a8.272 8.272 0 001.98-5.059h.082a9.397 9.397 0 002.18 5.06s3.413 6.46 12.873 3.93a15.35 15.35 0 00-15.135-12.838zm11.401 20.417l4.88-1.535s-.944 1.64 1.022 3.999c1.7 2.039 5.145 3.739 4.215 7.273a9.886 9.886 0 002.855 9.924c3.406 3.23.016 8.936.016 8.936H54.84c1.767-13.95-9.579-13.857-9.579-13.857-10.415 8.09-17.39 0-17.39 0l-2.14.372-.092-4.371-7.626-.186.279 9.3-1.229 8.7h-5.454c-3.19-7.373-.357-8.803 1.546-11.114 1.402-1.703 1.742-7.025 1.742-7.025s-1.737-3.906 2.494-7.603c3.562-3.112 2.413-4.876 2.413-4.876l4.767 2.164S28.895 44.64 35.419 44.08c7.287-.625 10.248-3.893 11.844-11.743"/>
  </g>
  <g>
    <path d="M42.01 28.552a2 2 0 11-2-2 2 2 0 012 2m-8 0a2 2 0 11-2-2 2 2 0 012 2m2 10.002a7.653 7.653 0 01-3.447-.858 1 1 0 01.894-1.789 5.377 5.377 0 005.106 0 1 1 0 11.894 1.79 7.652 7.652 0 01-3.447.857z"/>
    <path fill="none" stroke="#000" stroke-linecap="round" stroke-linejoin="round" stroke-width="2" d="M50.958 24.113C46.484 10.493 36.01 11.892 36.01 11.892s-10.353-1.384-14.869 11.986m4.315.821l-11.318-1.617s6.189 9.735 10.366 8.697"/>
    <path fill="none" stroke="#000" stroke-linecap="round" stroke-linejoin="round" stroke-width="2" d="M46.565 24.718l11.45-1.636s-6.268 9.848-10.494 8.799"/>
    <circle cx="36.01" cy="22.113" r="1.5"/>
    <path fill="none" stroke="#000" stroke-linecap="round" stroke-linejoin="round" stroke-width="2" d="M36.01 15.74a20.458 20.458 0 01-3.08 5.058m3.08-5.058a20.456 20.456 0 003.08 5.058M18.082 52.072v-9.566h7.085v3.565m-5.151-3.603v-4.744m3.371 4.783v-3.442"/>
    <path fill="none" stroke="#000" stroke-linecap="round" stroke-linejoin="round" stroke-width="2" d="M54.948 59.912s2-13-10-13c-3.192 2.128-5.927 3.599-9 3.592h.125c-3.074.007-5.808-1.464-9-3.592-12 0-10 13-10 13m9.36-35.402l-.982.23a17.29 17.29 0 00-.78 5.173c0 7.827 5.077 14.173 11.34 14.173s11.338-6.346 11.338-14.174a17.29 17.29 0 00-.78-5.173l-.811-.324"/>
    <path fill="none" stroke="#000" stroke-linecap="round" stroke-linejoin="round" stroke-width="2" d="M46.565 24.718l11.45-1.636s-6.268 9.848-10.494 8.799m.369 28.089c-18.5-5.137-20.817-13.058-20.817-13.058s-4.2.205-5.678 1.354c3.117 6.429 5.69 8.639 13.86 11.769m-15.62-29.744s-.06 3.717-2.712 5.145c-2.542 1.44-2.752 4.518-2.243 7.07.748 3.536.408 5.711-2.244 8.023-3.12 2.72-2.192 7.751-.9 9.383M26.83 21.54a6.553 6.553 0 006.097 1.535M45.19 21.54a6.553 6.553 0 01-6.098 1.535M52.2 30.291s.06 3.717 2.712 5.145c2.541 1.44 2.752 4.518 2.243 7.07-.748 3.536-.408 5.711 2.244 8.023 3.12 2.72 2.192 7.751.9 9.383"/>
  </g>
</svg>
