<svg viewBox="0 0 72 72" xmlns="http://www.w3.org/2000/svg">
  <path fill="#b3b3b3" d="M68 4v64H4V4h64m4-4H0v72h72V0z"/>
  <path fill="none" stroke="#00a5ff" stroke-miterlimit="10" stroke-width="0.1" d="M12.923 10.958h46.154A1.923 1.923 0 0161 12.881v46.154a1.923 1.923 0 01-1.923 1.923H12.923A1.923 1.923 0 0111 59.035V12.881a1.923 1.923 0 011.923-1.923z"/>
  <rect x="16" y="4" rx="2.254" ry="2.254" width="40" height="64" fill="none" stroke="#00a5ff" stroke-miterlimit="10" stroke-width="0.1"/>
  <rect x="16" y="4" rx="2.254" ry="2.254" width="40" height="64" transform="rotate(90 36 36)" fill="none" stroke="#00a5ff" stroke-miterlimit="10" stroke-width="0.1"/>
  <circle cx="36" cy="36" r="29" fill="none" stroke="#00a5ff" stroke-miterlimit="10" stroke-width="0.1"/>
  <g fill="none" stroke="#fff" stroke-linecap="round" stroke-linejoin="round" stroke-miterlimit="10" stroke-width="6">
    <circle cx="36.053" cy="36.332" r="16.939"/>
    <circle cx="36.053" cy="36.332" r="21.581"/>
    <path d="M27.922 28.929l4.116-2.71m-3.674 16.36l-1.436-4.714m18.802-3.308l-4.85-.866m-.464 10.719l1.261-4.763"/>
    <circle cx="33.056" cy="35.069" r="0.829"/>
    <circle cx="40.87" cy="27.549" r="0.829"/>
    <circle cx="35.28" cy="47.539" r="0.829"/>
  </g>
  <circle cx="36.053" cy="36.332" r="21.581" fill="#d0cfce"/>
  <circle cx="36.053" cy="36.332" r="16.939" fill="#92d3f5"/>
  <g fill="none" stroke="#000" stroke-miterlimit="10" stroke-width="2">
    <circle cx="36.053" cy="36.332" r="16.939"/>
    <circle cx="36.053" cy="36.332" r="21.581"/>
    <path stroke-linecap="round" d="M27.922 28.929l4.116-2.71m-3.674 16.36l-1.436-4.714m18.802-3.308l-4.85-.866m-.464 10.719l1.261-4.763"/>
    <circle cx="33.056" cy="35.069" r="0.829" stroke-linecap="round"/>
    <circle cx="40.87" cy="27.549" r="0.829" stroke-linecap="round"/>
    <circle cx="35.28" cy="47.539" r="0.829" stroke-linecap="round"/>
  </g>
</svg>
