<svg viewBox="0 0 72 72" xmlns="http://www.w3.org/2000/svg">
  <path fill="#b3b3b3" d="M68 4v64H4V4h64m4-4H0v72h72V0z"/>
  <path fill="none" stroke="#00a5ff" stroke-miterlimit="10" stroke-width="0.1" d="M12.923 10.958h46.154A1.923 1.923 0 0161 12.881v46.154a1.923 1.923 0 01-1.923 1.923H12.923A1.923 1.923 0 0111 59.035V12.881a1.923 1.923 0 011.923-1.923z"/>
  <rect x="16" y="4" rx="2.254" width="40" height="64" fill="none" stroke="#00a5ff" stroke-miterlimit="10" stroke-width="0.1"/>
  <rect x="16" y="4" rx="2.254" width="40" height="64" transform="rotate(90 36 36)" fill="none" stroke="#00a5ff" stroke-miterlimit="10" stroke-width="0.1"/>
  <circle cx="36" cy="36" r="29" fill="none" stroke="#00a5ff" stroke-miterlimit="10" stroke-width="0.1"/>
  <g fill="none" stroke="#fff" stroke-linecap="round" stroke-linejoin="round" stroke-miterlimit="10" stroke-width="6">
    <path d="M12.092 58.874v-46m36.559 6.863l10.895-.001m-18.523.001h.869m-7.748 0h.263m-10.821 0h3.887m-14.614 0h4.032m43.017 39.137v-46"/>
    <circle cx="20.197" cy="19.736" r="2.724"/>
    <circle cx="30.834" cy="19.736" r="2.724"/>
    <circle cx="37.697" cy="19.736" r="2.724"/>
    <circle cx="45.246" cy="19.736" r="2.724"/>
    <path d="M58.075 30.374h.784m-8.302 0h.985m-17.062 0h9.442m-16.739 0h.702m-15.026 0h7.775"/>
    <circle cx="23.931" cy="30.374" r="2.724"/>
    <circle cx="31.137" cy="30.374" r="2.724"/>
    <circle cx="47.264" cy="30.374" r="2.724"/>
    <circle cx="54.814" cy="30.374" r="2.724"/>
    <path d="M54.76 41.011h4.099m-14.419 0h3.631m-13.613 0h3.333m-10.539 0h.56m-14.953 0h7.747"/>
    <circle cx="23.931" cy="41.011" r="2.724"/>
    <circle cx="31.137" cy="41.011" r="2.724"/>
    <circle cx="41.088" cy="41.011" r="2.724"/>
    <circle cx="51.423" cy="41.011" r="2.724"/>
  </g>
  <circle cx="20.197" cy="19.736" r="2.724" fill="#ea5a47"/>
  <path fill="#d22f27" d="M21.276 17.057a2.72 2.72 0 01-3.758 3.76 2.722 2.722 0 103.758-3.76z"/>
  <circle cx="30.834" cy="19.736" r="2.724" fill="#ea5a47"/>
  <path fill="#d22f27" d="M31.914 17.057a2.72 2.72 0 01-3.759 3.76 2.722 2.722 0 103.759-3.76z"/>
  <circle cx="37.697" cy="19.736" r="2.724" fill="#ea5a47"/>
  <path fill="#d22f27" d="M38.777 17.057a2.72 2.72 0 01-3.76 3.76 2.722 2.722 0 103.76-3.76z"/>
  <circle cx="45.246" cy="19.736" r="2.724" fill="#ea5a47"/>
  <path fill="#d22f27" d="M46.326 17.057a2.72 2.72 0 01-3.76 3.76 2.722 2.722 0 103.76-3.76z"/>
  <circle cx="23.931" cy="30.374" r="2.724" fill="#fcea2b"/>
  <path fill="#f1b31c" d="M25.01 27.695a2.72 2.72 0 01-3.758 3.758 2.722 2.722 0 103.759-3.758z"/>
  <circle cx="31.137" cy="30.374" r="2.724" fill="#fcea2b"/>
  <path fill="#f1b31c" d="M32.217 27.695a2.72 2.72 0 01-3.76 3.758 2.722 2.722 0 103.76-3.758z"/>
  <circle cx="47.264" cy="30.374" r="2.724" fill="#fcea2b"/>
  <path fill="#f1b31c" d="M48.344 27.695a2.72 2.72 0 01-3.759 3.758 2.722 2.722 0 103.76-3.758z"/>
  <circle cx="54.814" cy="30.374" r="2.724" fill="#fcea2b"/>
  <path fill="#f1b31c" d="M55.893 27.695a2.72 2.72 0 01-3.759 3.758 2.722 2.722 0 103.76-3.758z"/>
  <circle cx="23.931" cy="41.011" r="2.724" fill="#f4aa41"/>
  <path fill="#e27022" d="M25.01 38.332a2.72 2.72 0 01-3.758 3.759 2.722 2.722 0 103.759-3.759z"/>
  <circle cx="31.137" cy="41.011" r="2.724" fill="#f4aa41"/>
  <path fill="#e27022" d="M32.217 38.332a2.72 2.72 0 01-3.76 3.759 2.722 2.722 0 103.76-3.759z"/>
  <circle cx="41.088" cy="41.011" r="2.724" fill="#f4aa41"/>
  <path fill="#e27022" d="M42.168 38.332a2.72 2.72 0 01-3.76 3.759 2.722 2.722 0 103.76-3.759z"/>
  <circle cx="51.423" cy="41.011" r="2.724" fill="#f4aa41"/>
  <path fill="#e27022" d="M52.502 38.332a2.72 2.72 0 01-3.759 3.759 2.722 2.722 0 103.76-3.759z"/>
  <g fill="none" stroke="#000">
    <path stroke-linecap="round" stroke-linejoin="round" stroke-width="2" d="M12.092 58.874v-46m36.559 6.863l10.895-.001m-18.523.001h.869m-7.748 0h.263m-10.821 0h3.887m-14.614 0h4.032m43.017 39.137v-46"/>
    <circle cx="20.197" cy="19.736" r="2.724" stroke-miterlimit="10" stroke-width="1.362"/>
    <circle cx="30.834" cy="19.736" r="2.724" stroke-miterlimit="10" stroke-width="1.362"/>
    <circle cx="37.697" cy="19.736" r="2.724" stroke-miterlimit="10" stroke-width="1.362"/>
    <circle cx="45.246" cy="19.736" r="2.724" stroke-miterlimit="10" stroke-width="1.362"/>
    <path stroke-linecap="round" stroke-linejoin="round" stroke-width="2" d="M58.075 30.374h.784m-8.302 0h.985m-17.062 0h9.442m-16.739 0h.702m-15.026 0h7.775"/>
    <circle cx="23.931" cy="30.374" r="2.724" stroke-miterlimit="10" stroke-width="1.362"/>
    <circle cx="31.137" cy="30.374" r="2.724" stroke-miterlimit="10" stroke-width="1.362"/>
    <circle cx="47.264" cy="30.374" r="2.724" stroke-miterlimit="10" stroke-width="1.362"/>
    <circle cx="54.814" cy="30.374" r="2.724" stroke-miterlimit="10" stroke-width="1.362"/>
    <path stroke-linecap="round" stroke-linejoin="round" stroke-width="2" d="M54.76 41.011h4.099m-14.419 0h3.631m-13.613 0h3.333m-10.539 0h.56m-14.953 0h7.747"/>
    <circle cx="23.931" cy="41.011" r="2.724" stroke-miterlimit="10" stroke-width="1.362"/>
    <circle cx="31.137" cy="41.011" r="2.724" stroke-miterlimit="10" stroke-width="1.362"/>
    <circle cx="41.088" cy="41.011" r="2.724" stroke-miterlimit="10" stroke-width="1.362"/>
    <circle cx="51.423" cy="41.011" r="2.724" stroke-miterlimit="10" stroke-width="1.362"/>
  </g>
</svg>
