<svg viewBox="0 0 72 72" xmlns="http://www.w3.org/2000/svg">
  <path fill="#b3b3b3" d="M68 4v64H4V4h64m4-4H0v72h72V0z"/>
  <path fill="none" stroke="#00a5ff" stroke-miterlimit="10" stroke-width="0.1" d="M12.923 10.958h46.154A1.923 1.923 0 0161 12.881v46.154a1.923 1.923 0 01-1.923 1.923H12.923A1.923 1.923 0 0111 59.035V12.881a1.923 1.923 0 011.923-1.923z"/>
  <rect x="16" y="4" rx="2.254" width="40" height="64" fill="none" stroke="#00a5ff" stroke-miterlimit="10" stroke-width="0.1"/>
  <rect x="16" y="4" rx="2.254" width="40" height="64" transform="rotate(90 36 36)" fill="none" stroke="#00a5ff" stroke-miterlimit="10" stroke-width="0.1"/>
  <circle cx="36" cy="36" r="29" fill="none" stroke="#00a5ff" stroke-miterlimit="10" stroke-width="0.1"/>
  <g fill="none" stroke="#fff" stroke-linecap="round" stroke-linejoin="round" stroke-miterlimit="10" stroke-width="6">
    <path d="M62 23l5.657-1.414M55 14.343L56.414 20M60 20l3-5"/>
    <rect x="3.516" y="31.28" rx="1" width="40" height="13" transform="rotate(-45 23.516 37.78)"/>
    <path d="M58 23.28s-2.757 6.829-7 4 .472-8.764-4-11c-4-2-9.342 7.357-9.342 7.357"/>
  </g>
  <path fill="none" stroke="#000" stroke-linecap="round" stroke-miterlimit="10" stroke-width="2" d="M62 23l5.657-1.414M55 14.343L56.414 20M60 20l3-5"/>
  <rect x="3.516" y="31.28" rx="1" width="40" height="13" transform="rotate(-45 23.516 37.78)" fill="#d22f27"/>
  <path fill="none" stroke="#fcea2b" stroke-linecap="round" stroke-miterlimit="10" stroke-width="2" d="M62 23l5.657-1.414M55 14.343L56.414 20M60 20l3-5"/>
  <g fill="none" stroke="#000" stroke-linejoin="round" stroke-width="2">
    <rect x="3.516" y="31.28" rx="1" width="40" height="13" transform="rotate(-45 23.516 37.78)"/>
    <path stroke-linecap="round" d="M58 23.28s-2.757 6.829-7 4 .472-8.764-4-11c-4-2-9.342 7.357-9.342 7.357"/>
  </g>
</svg>
