<svg viewBox="0 0 72 72" xmlns="http://www.w3.org/2000/svg">
  <path fill="#b3b3b3" d="M68 4v64H4V4h64m4-4H0v72h72V0z"/>
  <path fill="none" stroke="#00a5ff" stroke-miterlimit="10" stroke-width="0.1" d="M12.923 10.958h46.154A1.923 1.923 0 0161 12.881v46.154a1.923 1.923 0 01-1.923 1.923H12.923A1.923 1.923 0 0111 59.035V12.881a1.923 1.923 0 011.923-1.923z"/>
  <rect x="16" y="4" rx="2.254" width="40" height="64" fill="none" stroke="#00a5ff" stroke-miterlimit="10" stroke-width="0.1"/>
  <rect x="16" y="4" rx="2.254" width="40" height="64" transform="rotate(90 36 36)" fill="none" stroke="#00a5ff" stroke-miterlimit="10" stroke-width="0.1"/>
  <circle cx="36" cy="36" r="29" fill="none" stroke="#00a5ff" stroke-miterlimit="10" stroke-width="0.1"/>
  <g fill="none" stroke="#fff" stroke-linecap="round" stroke-linejoin="round" stroke-miterlimit="10" stroke-width="6">
    <path d="M14.402 33.524V19.513h15.226M28 57.882H14.402V43.871m38.368 0v14.011H38.348m1.628-38.369H52.77v14.011m-38.368 0c2.68-2.341 11.631-3.287 11.631 5.174m-11.631 5.173c2.68 2.342 11.631 3.288 11.631-5.173M28 57.882C25.66 55.2 24.713 46.25 33.175 46.25m5.173 11.632c2.341-2.681 3.287-11.631-5.174-11.631M29.628 19.513c-2.341-2.681-3.287-11.631 5.174-11.631m5.173 11.631c2.342-2.681 3.288-11.631-5.173-11.631M52.77 43.871c2.681 2.342 11.631 3.288 11.631-5.173M52.77 33.524c2.681-2.341 11.631-3.287 11.631 5.174"/>
  </g>
  <path fill="#92d3f5" d="M39.78 57.882h12.99V44.85c5.298 0 11.631 1.4 11.631-6.193 0-6.762-6.333-5.854-11.631-5.854v-13.29H39.78c1.823-5.816 1.823-11.632-4.978-11.632s-6.73 6.334-6.73 11.631h-13.67v14.01c4.243-1.57 11.631-4.418 11.631 5.175s-8.48 6.581-11.631 5.173v14.01h11.97c0-5.297 0-12.382 7.214-12.31 6.783.067 6.193 7.013 6.193 12.31z"/>
  <path fill="#61b2e4" d="M39.054 51.1c1.736 1.735 1.11 4.133 1.11 6.782H52.77v-14.01c5.816 1.035 10.997 3.604 10.997-5.214 0-5.298-4.974-6.194-10.272-6.194V19.815h-4.116"/>
  <g fill="none" stroke="#000" stroke-linecap="round" stroke-linejoin="round" stroke-width="2">
    <path d="M14.402 33.524V19.513h15.226M28 57.882H14.402V43.871m38.368 0v14.011H38.348m1.628-38.369H52.77v14.011m-38.368 0c2.68-2.341 11.631-3.287 11.631 5.174m-11.631 5.173c2.68 2.342 11.631 3.288 11.631-5.173M28 57.882C25.66 55.2 24.713 46.25 33.175 46.25m5.173 11.632c2.341-2.681 3.287-11.631-5.174-11.631M29.628 19.513c-2.341-2.681-3.287-11.631 5.174-11.631m5.173 11.631c2.342-2.681 3.288-11.631-5.173-11.631M52.77 43.871c2.681 2.342 11.631 3.288 11.631-5.173M52.77 33.524c2.681-2.341 11.631-3.287 11.631 5.174"/>
  </g>
</svg>
