<svg viewBox="0 0 72 72" xmlns="http://www.w3.org/2000/svg">
  <path fill="#b3b3b3" d="M68 4v64H4V4h64m4-4H0v72h72V0z"/>
  <path fill="none" stroke="#00a5ff" stroke-miterlimit="10" stroke-width="0.1" d="M12.923 10.958h46.154A1.923 1.923 0 0161 12.881v46.154a1.923 1.923 0 01-1.923 1.923H12.923A1.923 1.923 0 0111 59.035V12.881a1.923 1.923 0 011.923-1.923z"/>
  <rect x="16" y="4" rx="2.254" ry="2.254" width="40" height="64" fill="none" stroke="#00a5ff" stroke-miterlimit="10" stroke-width="0.1"/>
  <rect x="16" y="4" rx="2.254" ry="2.254" width="40" height="64" transform="rotate(90 36 36)" fill="none" stroke="#00a5ff" stroke-miterlimit="10" stroke-width="0.1"/>
  <circle cx="36" cy="36" r="29" fill="none" stroke="#00a5ff" stroke-miterlimit="10" stroke-width="0.1"/>
  <g fill="none" stroke="#fff" stroke-linecap="round" stroke-linejoin="round" stroke-miterlimit="10" stroke-width="6">
    <path d="M11.674 11.633h48.652v24.366H11.674z"/>
    <path d="M20.334 35.999V28.74l-.496-.165a5.04 5.04 0 01-3.23-3.932v-.048a4.574 4.574 0 011.245-4.135 5.474 5.474 0 011.489-1.002.429.429 0 01.584.38v3.103l.827 1.246h2.9l.827-1.246v-3.104a.416.416 0 01.584-.38 5.679 5.679 0 011.488 1.003 4.429 4.429 0 011.314 3.25 7.037 7.037 0 01-.069.885 4.91 4.91 0 01-3.152 3.941l-.584.205v7.258m20.307 0h15.958v24.287H11.674V35.999h8.66m21.475 0H24.061"/>
    <path d="M32.423 40.423h7.154v3.613h-7.154zm11.945-4.424l.039-6.938h-2.559l-.039 6.938m-3.22-13.959v7.021h9.007V25.02s6.028 0 8.014 1.986a10.653 10.653 0 00-8.014-5.036 39.628 39.628 0 00-9.007.071zm-2.306.638v5.674h0a2.236 2.236 0 01-2.624 0h0v-5.674h0a1.884 1.884 0 012.624 0z"/>
  </g>
  <path fill="#d22f27" d="M11.674 11.633h48.652v24.366H11.674z"/>
  <path fill="#ea5a47" d="M11.674 35.999h48.652v24.285H11.674z"/>
  <path fill="#a57939" d="M44.407 29.061l-.039 6.938h-2.559l.039-6.938h2.559z"/>
  <path fill="#9b9b9a" d="M38.589 22.089v7.021h9.007v-4.043s6.028 0 8.014 1.986a10.653 10.653 0 00-8.014-5.035 39.626 39.626 0 00-9.007.07z"/>
  <path fill="#d0cfce" d="M36.283 22.727V28.4a2.235 2.235 0 01-2.624 0v-5.674a1.884 1.884 0 012.624 0zm-8.417 1.177a7.357 7.357 0 01-.069.905 4.993 4.993 0 01-3.152 3.98l-.584.204V36h-3.727v-7.006l-.496-.165a5.05 5.05 0 01-3.23-3.98v-.039a4.696 4.696 0 011.245-4.184 6.12 6.12 0 011.49-1.041.425.425 0 01.583.38v3.142l.827 1.246h2.9l.827-1.246v-3.143a.412.412 0 01.584-.38 6.373 6.373 0 011.489 1.042 4.449 4.449 0 011.313 3.28zm4.557 16.519h7.154v3.613h-7.154z"/>
  <g fill="none" stroke="#000">
    <path stroke-linecap="round" stroke-linejoin="round" stroke-width="2" d="M11.674 11.633h48.652v24.366H11.674z"/>
    <path stroke-linecap="round" stroke-linejoin="round" stroke-width="2.001" d="M20.334 35.999V28.74l-.496-.165a5.04 5.04 0 01-3.23-3.932v-.048a4.574 4.574 0 011.245-4.135 5.474 5.474 0 011.489-1.002.429.429 0 01.584.38v3.103l.827 1.246h2.9l.827-1.246v-3.104a.416.416 0 01.584-.38 5.679 5.679 0 011.488 1.003 4.429 4.429 0 011.314 3.25 7.037 7.037 0 01-.069.885 4.91 4.91 0 01-3.152 3.941l-.584.205v7.258"/>
    <path stroke-linecap="round" stroke-linejoin="round" stroke-width="2" d="M44.368 35.999h15.958v24.287H11.674V35.999h8.66"/>
    <path stroke-miterlimit="10" stroke-width="2" d="M41.809 35.999H24.061m8.362 4.424h7.154v3.613h-7.154z"/>
    <path stroke-linecap="round" stroke-linejoin="round" stroke-width="2.001" d="M44.368 35.999l.039-6.938h-2.559l-.039 6.938m-3.22-13.959v7.021h9.007V25.02s6.028 0 8.014 1.986a10.653 10.653 0 00-8.014-5.036 39.628 39.628 0 00-9.007.071zm-2.306.638v5.674h0a2.236 2.236 0 01-2.624 0h0v-5.674h0a1.884 1.884 0 012.624 0z"/>
  </g>
</svg>
