<svg viewBox="0 0 72 72" xmlns="http://www.w3.org/2000/svg">
  <path fill="#b3b3b3" d="M68 4v64H4V4h64m4-4H0v72h72V0z"/>
  <path fill="none" stroke="#00a5ff" stroke-miterlimit="10" stroke-width="0.1" d="M12.923 10.958h46.154A1.923 1.923 0 0161 12.881v46.154a1.923 1.923 0 01-1.923 1.923H12.923A1.923 1.923 0 0111 59.035V12.881a1.923 1.923 0 011.923-1.923z"/>
  <rect x="16" y="4" rx="2.254" width="40" height="64" fill="none" stroke="#00a5ff" stroke-miterlimit="10" stroke-width="0.1"/>
  <rect x="16" y="4" rx="2.254" width="40" height="64" transform="rotate(90 36 36)" fill="none" stroke="#00a5ff" stroke-miterlimit="10" stroke-width="0.1"/>
  <circle cx="36" cy="36" r="29" fill="none" stroke="#00a5ff" stroke-miterlimit="10" stroke-width="0.1"/>
  <path fill="none" stroke="#fff" stroke-linecap="round" stroke-linejoin="round" stroke-miterlimit="10" stroke-width="6" d="M32 36v-9m22 0H15m25-8v8m18 9H19m21 9v-9m12 9H19m13 8v-8m15-27H20m3 0v9m0 18v-4m9-5v-9m17 19v5m-5 3H26m31-14v-4"/>
  <path fill="#d22f27" stroke="#d22f27" stroke-linecap="round" stroke-linejoin="round" stroke-width="2" d="M15 45h17v9H15zm18 1h16v8H33zm7-10h17v9H40zm-17 1h16v7H23zm-8-10h17v9H15zm17 0h17v9H32zm8-9h17v9H40zm-17 0h17v9H23z"/>
  <path fill="none" stroke="#000" stroke-linecap="round" stroke-linejoin="round" stroke-width="2" d="M32 36v-9m22 0H15m25-8v8m18 9H19m21 9v-9m12 9H19m13 8v-8m15-27H20m3 0v9m0 18v-4m9-5v-9m17 19v5m-5 3H26m31-14v-4"/>
</svg>
