<svg viewBox="0 0 72 72" xmlns="http://www.w3.org/2000/svg">
  <path fill="#b3b3b3" d="M68 4v64H4V4h64m4-4H0v72h72V0z"/>
  <path fill="none" stroke="#00a5ff" stroke-miterlimit="10" stroke-width="0.1" d="M12.923 10.958h46.154A1.923 1.923 0 0161 12.881v46.154a1.923 1.923 0 01-1.923 1.923H12.923A1.923 1.923 0 0111 59.035V12.881a1.923 1.923 0 011.923-1.923z"/>
  <rect x="16" y="4" rx="2.254" ry="2.254" width="40" height="64" fill="none" stroke="#00a5ff" stroke-miterlimit="10" stroke-width="0.1"/>
  <rect x="16" y="4" rx="2.254" ry="2.254" width="40" height="64" transform="rotate(90 36 36)" fill="none" stroke="#00a5ff" stroke-miterlimit="10" stroke-width="0.1"/>
  <circle cx="36" cy="36" r="29" fill="none" stroke="#00a5ff" stroke-miterlimit="10" stroke-width="0.1"/>
  <g fill="none" stroke="#fff" stroke-linecap="round" stroke-linejoin="round" stroke-miterlimit="10" stroke-width="6">
    <ellipse cx="32.406" cy="20.848" rx="15.137" ry="5.534"/>
    <path d="M17.27 51.916c0 3.062 6.777 5.532 15.133 5.532 8.367 0 12.85-1.792 16.52-4.377M17.269 20.558v31.361m15.137-25.537v2.5"/>
    <path stroke-dasharray="5.2132 5.2132" d="M32.406 34.095v18.246"/>
    <path d="M32.406 54.948v2.5m15.141-34.434v-2.17m-2.89 3.255s7.239-2.658 10.036-5.156v29.275s-5.212 5.651-11.538 7.824"/>
    <ellipse cx="32.077" cy="20.844" rx="3.554" ry="1.623"/>
  </g>
  <path fill="#d0cfce" d="M44.657 55.58c3.438-2.324 10.074-7.362 10.074-7.362V18.943c-1.768 1.579-7.596 4.399-10.074 5.156"/>
  <ellipse cx="32.077" cy="20.467" rx="3.554" ry="1.623" fill="#fff"/>
  <g fill="none" stroke="#000" stroke-width="2">
    <ellipse cx="32.406" cy="20.848" rx="15.137" ry="5.534" stroke-miterlimit="10"/>
    <path stroke-miterlimit="10" d="M17.27 51.916c0 3.062 6.777 5.532 15.133 5.532 8.367 0 12.85-1.792 16.52-4.377M17.269 20.558v31.361"/>
    <g stroke-linecap="round" stroke-linejoin="round">
      <path d="M32.406 26.382v2.5"/>
      <path stroke-dasharray="5.2132 5.2132" d="M32.406 34.095v18.246"/>
      <path d="M32.406 54.948v2.5"/>
    </g>
    <path stroke-miterlimit="10" d="M47.547 23.014v-2.17"/>
    <path stroke-linecap="round" stroke-linejoin="round" d="M44.657 24.099s7.239-2.658 10.036-5.156v29.275s-5.212 5.651-11.538 7.824"/>
    <ellipse cx="32.077" cy="20.844" rx="3.554" ry="1.623" stroke-linecap="round" stroke-linejoin="round"/>
  </g>
</svg>
