<svg viewBox="0 0 72 72" xmlns="http://www.w3.org/2000/svg">
  <path fill="#b3b3b3" d="M68 4v64H4V4h64m4-4H0v72h72V0z"/>
  <path fill="none" stroke="#00a5ff" stroke-miterlimit="10" stroke-width="0.1" d="M12.923 10.958h46.154A1.923 1.923 0 0161 12.881v46.154a1.923 1.923 0 01-1.923 1.923H12.923A1.923 1.923 0 0111 59.035V12.881a1.923 1.923 0 011.923-1.923z"/>
  <rect x="16" y="4" rx="2.254" width="40" height="64" fill="none" stroke="#00a5ff" stroke-miterlimit="10" stroke-width="0.1"/>
  <rect x="16" y="4" rx="2.254" width="40" height="64" transform="rotate(90 36 36)" fill="none" stroke="#00a5ff" stroke-miterlimit="10" stroke-width="0.1"/>
  <circle cx="36" cy="36" r="29" fill="none" stroke="#00a5ff" stroke-miterlimit="10" stroke-width="0.1"/>
  <g fill="none" stroke="#fff" stroke-linecap="round" stroke-linejoin="round" stroke-miterlimit="10" stroke-width="6">
    <path d="M43.55 22.604c1.266-12.465-9.048-11.634-9.048-11.634s-8.144.576-9.428 11.568m1.307 14.955l2.362 14.724s.835 10.03 10.46 8.462c8-1.304 5.522-12.457 5.522-12.457s-.612-5.412-1.018-11.602"/>
    <path d="M28.19 35.147s-11.22-3.68 5.463-15.157l.348-2.83m6.664 17.006s10.642-4.662-7.012-14.176"/>
  </g>
  <path fill="#fcea2b" d="M37.237 61.846a8.756 8.756 0 01-5.542-1.798c-3.493-2.73-3.931-7.544-3.948-7.747L24.23 30.4c-.924-7.257.122-12.767 3.106-16.406a10.905 10.905 0 017.089-4.022 10.181 10.181 0 017.506 2.744c2.181 2.228 3.061 5.588 2.614 9.989-.775 7.626 1.055 24.327 1.169 25.355.143.684 1.296 6.64-1.322 10.506a7.21 7.21 0 01-5.029 3.1 13.23 13.23 0 01-2.126.18zM34.502 10.97z"/>
  <g fill="none" stroke="#000" stroke-linecap="round" stroke-linejoin="round" stroke-width="2">
    <path d="M43.55 22.604c1.266-12.465-9.048-11.634-9.048-11.634s-8.144.576-9.428 11.568m1.307 14.955l2.362 14.724s.835 10.03 10.46 8.462c8-1.304 5.522-12.457 5.522-12.457s-.612-5.412-1.018-11.602"/>
    <path d="M28.19 35.147s-11.22-3.68 5.463-15.157l.348-2.83m6.664 17.006s10.642-4.662-7.012-14.176"/>
  </g>
</svg>
