<svg viewBox="0 0 72 72" xmlns="http://www.w3.org/2000/svg">
  <path fill="#b3b3b3" d="M68 4v64H4V4h64m4-4H0v72h72V0z"/>
  <path fill="none" stroke="#00a5ff" stroke-miterlimit="10" stroke-width="0.1" d="M12.923 10.958h46.154A1.923 1.923 0 0161 12.881v46.154a1.923 1.923 0 01-1.923 1.923H12.923A1.923 1.923 0 0111 59.035V12.881a1.923 1.923 0 011.923-1.923z"/>
  <rect x="16" y="4" rx="2.254" width="40" height="64" fill="none" stroke="#00a5ff" stroke-miterlimit="10" stroke-width="0.1"/>
  <rect x="16" y="4" rx="2.254" width="40" height="64" transform="rotate(90 36 36)" fill="none" stroke="#00a5ff" stroke-miterlimit="10" stroke-width="0.1"/>
  <circle cx="36" cy="36" r="29" fill="none" stroke="#00a5ff" stroke-miterlimit="10" stroke-width="0.1"/>
  <g fill="none" stroke="#fff" stroke-linecap="round" stroke-linejoin="round" stroke-miterlimit="10" stroke-width="6">
    <path d="M45.674 23.103l3.295 3.287-22.74 22.796-3.295-3.287z"/>
    <rect x="34.263" y="9.277" rx="0.44" width="3.385" height="53.525" transform="rotate(44.93 35.955 36.04)"/>
    <path d="M45.306 23.873l2.329 2.212M23.441 46.194l2.397 2.39M47.575 8.958V7.293m0 7.331v-1.666m-2-2H43.91m7.33 0h-1.665M56 26.31v-1.665m0 7.331V30.31m-2-2h-1.665m7.33 0H58"/>
  </g>
  <path d="M45.674 23.103l3.295 3.287-22.74 22.796-3.295-3.287z"/>
  <path fill="#3f3f3f" d="M45.674 23.103l3.295 3.287-22.74 22.796-3.295-3.287z"/>
  <circle cx="47.575" cy="10.958" r="2" fill="#fcea2b"/>
  <circle cx="56" cy="28.31" r="2" fill="#fcea2b"/>
  <g fill="none" stroke="#000" stroke-miterlimit="10" stroke-width="2">
    <rect x="34.263" y="9.277" rx="0.44" width="3.385" height="53.525" transform="rotate(44.93 35.955 36.04)"/>
    <path d="M45.306 23.873l2.329 2.212M23.441 46.194l2.397 2.39"/>
    <path stroke-linecap="round" d="M47.575 8.958V7.293m0 7.331v-1.666m-2-2H43.91m7.33 0h-1.665M56 26.31v-1.665m0 7.331V30.31m-2-2h-1.665m7.33 0H58"/>
  </g>
</svg>
