<svg viewBox="0 0 72 72" xmlns="http://www.w3.org/2000/svg">
  <path fill="#b3b3b3" d="M68 3.882v64H4v-64h64m4-4H0v72h72v-72z"/>
  <path fill="none" stroke="#00a5ff" stroke-miterlimit="10" stroke-width="0.1" d="M12.923 10.84h46.154A1.923 1.923 0 0161 12.765v46.154a1.923 1.923 0 01-1.923 1.923H12.923A1.923 1.923 0 0111 58.918V12.764a1.923 1.923 0 011.923-1.923z"/>
  <rect x="16" y="3.882" rx="2.254" width="40" height="64" fill="none" stroke="#00a5ff" stroke-miterlimit="10" stroke-width="0.1"/>
  <rect x="16" y="3.882" rx="2.254" width="40" height="64" transform="rotate(90 36 35.882)" fill="none" stroke="#00a5ff" stroke-miterlimit="10" stroke-width="0.1"/>
  <circle cx="36" cy="35.882" r="29" fill="none" stroke="#00a5ff" stroke-miterlimit="10" stroke-width="0.1"/>
  <g fill="none" stroke="#fff" stroke-linecap="round" stroke-linejoin="round" stroke-miterlimit="10" stroke-width="6">
    <path d="M24.969 54.8l-3.234-4.978-5.934-.157 3.734-4.614-1.684-5.692 5.542 2.126 4.893-3.361-.309 5.928 4.708 3.615-5.733 1.538-1.983 5.595z"/>
    <circle cx="24.328" cy="45.662" r="13.328"/>
    <path d="M18.917 32.873a13.33 13.33 0 1117.706 19.259m16.971-39.337c1.276 3.06 5.58 2.747 5.58 2.747a3.18 3.18 0 003.502-3.104 4.168 4.168 0 00-4.413-1.911s-10.068.39-12.281 13.441c-1.513 8.919-4.51 9.777-8.863 9.316-1.62-.171-2.912-.994-5.784-2.265a9.93 9.93 0 00-2.54-.724s-3.395-.297-4.467.457M16.57 35.01a13.33 13.33 0 1117.706 19.26M15.801 35.541A13.33 13.33 0 1133.507 54.8m-18.5-18.465a13.33 13.33 0 1117.707 19.258"/>
  </g>
  <path fill="#8967aa" d="M18.917 32.873a13.33 13.33 0 1117.706 19.259"/>
  <circle cx="24.328" cy="45.662" r="13.328" fill="#b399c8"/>
  <path fill="#fcea2b" d="M24.969 54.8l-3.234-4.978-5.934-.157 3.734-4.614-1.684-5.692 5.542 2.126 4.893-3.361-.309 5.928 4.708 3.615-5.733 1.538-1.983 5.595z"/>
  <g fill="none" stroke="#000" stroke-linecap="round" stroke-linejoin="round">
    <path stroke-width="2" d="M24.969 54.8l-3.234-4.978-5.934-.157 3.734-4.614-1.684-5.692 5.542 2.126 4.893-3.361-.309 5.928 4.708 3.615-5.733 1.538-1.983 5.595z"/>
    <circle cx="24.328" cy="45.662" r="13.328" stroke-width="2"/>
    <path stroke-width="2" d="M18.917 32.873a13.33 13.33 0 1117.706 19.259m16.971-39.337c1.276 3.06 5.58 2.747 5.58 2.747a3.18 3.18 0 003.502-3.104 4.168 4.168 0 00-4.413-1.911s-10.068.39-12.281 13.441c-1.513 8.919-4.51 9.777-8.863 9.316-1.62-.171-2.912-.994-5.784-2.265a9.93 9.93 0 00-2.54-.724s-3.395-.297-4.467.457"/>
    <path stroke-width="0.5" d="M16.57 35.01a13.33 13.33 0 1117.706 19.26M15.801 35.541A13.33 13.33 0 1133.507 54.8m-18.5-18.465a13.33 13.33 0 1117.707 19.258"/>
  </g>
</svg>
