<svg viewBox="0 0 72 72" xmlns="http://www.w3.org/2000/svg">
  <path fill="#b3b3b3" d="M68 4v64H4V4h64m4-4H0v72h72V0z"/>
  <path fill="none" stroke="#00a5ff" stroke-miterlimit="10" stroke-width="0.1" d="M12.923 10.958h46.154A1.923 1.923 0 0161 12.881v46.154a1.923 1.923 0 01-1.923 1.923H12.923A1.923 1.923 0 0111 59.035V12.881a1.923 1.923 0 011.923-1.923z"/>
  <rect x="16" y="4" rx="2.254" ry="2.254" width="40" height="64" fill="none" stroke="#00a5ff" stroke-miterlimit="10" stroke-width="0.1"/>
  <rect x="16" y="4" rx="2.254" ry="2.254" width="40" height="64" transform="rotate(90 36 36)" fill="none" stroke="#00a5ff" stroke-miterlimit="10" stroke-width="0.1"/>
  <circle cx="36" cy="36" r="29" fill="none" stroke="#00a5ff" stroke-miterlimit="10" stroke-width="0.1"/>
  <g fill="none" stroke="#fff" stroke-linecap="round" stroke-linejoin="round" stroke-miterlimit="10" stroke-width="6">
    <path d="M15.248 50.252l5.101 4.943m34.338-35.589a5.044 5.044 0 002.237-.58c.63-.397 3.532-3.361 5.182-5.068a1.698 1.698 0 00-.024-2.382l-1.529-1.529a1.694 1.694 0 00-2.379-.026c-1.827 1.765-5.133 4.973-5.461 5.385a3.317 3.317 0 00-.465 1.447 1.724 1.724 0 01-.5 1.005L29.553 39.496"/>
    <circle cx="21.349" cy="49.342" r="12"/>
  </g>
  <path fill="#a57939" d="M59.65 9.614c-.063.004-4.9 4.868-5.962 5.512-1.541 1.031-2.505 3.779-2.643 3.915L29.119 39.758a15.973 15.973 0 011.955 2.187l22.887-21.65a7.528 7.528 0 003.314-1.967c.306-.362 4.602-4.24 4.97-4.97.757-1.497-2.093-3.777-2.595-3.745z"/>
  <path fill="#ea5a47" d="M34.708 38.436a.893.893 0 00-.215.215.981.981 0 01.216-.213zm-4.274 3.042c-.032-.047-.066-.093-.1-.14.034.047.068.093.1.14z"/>
  <circle cx="21.349" cy="49.342" r="12" fill="#d0cfce"/>
  <g fill="none" stroke="#000" stroke-linecap="round" stroke-linejoin="round" stroke-width="2">
    <path d="M15.248 50.252l5.101 4.943m34.338-35.589a5.044 5.044 0 002.237-.58c.63-.397 3.532-3.361 5.182-5.068a1.698 1.698 0 00-.024-2.382l-1.529-1.529a1.694 1.694 0 00-2.379-.026c-1.827 1.765-5.133 4.973-5.461 5.385a3.317 3.317 0 00-.465 1.447 1.724 1.724 0 01-.5 1.005L29.553 39.496"/>
    <circle cx="21.349" cy="49.342" r="12"/>
  </g>
</svg>
