<svg viewBox="0 0 72 72" xmlns="http://www.w3.org/2000/svg">
  <path fill="#b3b3b3" d="M68 4v64H4V4h64m4-4H0v72h72V0z"/>
  <path fill="none" stroke="#00a5ff" stroke-miterlimit="10" stroke-width="0.1" d="M12.923 10.958h46.154A1.923 1.923 0 0161 12.881v46.154a1.923 1.923 0 01-1.923 1.923H12.923A1.923 1.923 0 0111 59.035V12.881a1.923 1.923 0 011.923-1.923z"/>
  <rect x="16" y="4" rx="2.254" ry="2.254" width="40" height="64" fill="none" stroke="#00a5ff" stroke-miterlimit="10" stroke-width="0.1"/>
  <rect x="16" y="4" rx="2.254" ry="2.254" width="40" height="64" transform="rotate(90 36 36)" fill="none" stroke="#00a5ff" stroke-miterlimit="10" stroke-width="0.1"/>
  <circle cx="36" cy="36" r="29" fill="none" stroke="#00a5ff" stroke-miterlimit="10" stroke-width="0.1"/>
  <g fill="none" stroke="#fff" stroke-linecap="round" stroke-linejoin="round" stroke-miterlimit="10" stroke-width="6">
    <path d="M32.5 22.5s0 38 1 42 4 4 5 0c2.03-8.123 1-42 1-42"/>
    <rect x="20" y="6.5" rx="2.244" ry="2.244" width="32" height="9"/>
    <path d="M22.5 15.5s10 5 10 7m7 0c0-1.699 7.214-5.562 9.388-6.687.385-.2.612-.313.612-.313M20 11h32"/>
  </g>
  <path fill="#92d3f5" d="M32.5 22.5s0 38 1 42 4 4 5 0c2.03-8.123 1-42 1-42m-17-7s10 5 10 7h7c0-1.699 7.214-5.562 9.388-6.687.385-.2.612-.313.612-.313z"/>
  <rect x="20" y="6.5" rx="2.244" ry="2.244" width="32" height="9" fill="#d0cfce"/>
  <g fill="none" stroke="#000" stroke-miterlimit="10" stroke-width="2">
    <path stroke-linecap="round" d="M32.5 22.5s0 38 1 42 4 4 5 0c2.03-8.123 1-42 1-42"/>
    <rect x="20" y="6.5" rx="2.244" ry="2.244" width="32" height="9" stroke-linecap="round"/>
    <path stroke-linecap="round" d="M22.5 15.5s10 5 10 7m7 0c0-1.699 7.214-5.562 9.388-6.687.385-.2.612-.313.612-.313"/>
    <path d="M20 11h32"/>
  </g>
</svg>
