<svg viewBox="0 0 72 72" xmlns="http://www.w3.org/2000/svg">
  <path fill="#b3b3b3" d="M68 4v64H4V4h64m4-4H0v72h72V0z"/>
  <path fill="none" stroke="#00a5ff" stroke-miterlimit="10" stroke-width="0.1" d="M12.92 10.96h46.15a1.923 1.923 0 011.923 1.923v46.15a1.923 1.923 0 01-1.923 1.923H12.92a1.923 1.923 0 01-1.923-1.923v-46.15a1.923 1.923 0 011.923-1.923z"/>
  <rect x="16" y="4" rx="2.254" width="40" height="64" fill="none" stroke="#00a5ff" stroke-miterlimit="10" stroke-width="0.1"/>
  <rect x="16" y="4" rx="2.254" width="40" height="64" transform="rotate(90 36 36)" fill="none" stroke="#00a5ff" stroke-miterlimit="10" stroke-width="0.1"/>
  <circle cx="36" cy="36" r="29" fill="none" stroke="#00a5ff" stroke-miterlimit="10" stroke-width="0.1"/>
  <g fill="none" stroke="#fff" stroke-linecap="round" stroke-linejoin="round" stroke-miterlimit="10" stroke-width="6">
    <path stroke-width="6.99" d="M54.84 51.272l-.78 8.609-4.497-4.31 2.959 4.31h5.103l3.25-7.107-4.555 7.107zm-37.676.011l.78 8.61 4.51-4.3-2.972 4.3H14.38l-3.25-7.107 4.566 7.107z"/>
    <path d="M16.79 47.51V31.32A19.21 19.21 0 0136 12.11v0a19.21 19.21 0 0119.21 19.21v16.19M25.99 30.35h20.02m-20.02 5.22h20.02m-15.26 8.82h10.5"/>
  </g>
  <path fill="none" stroke="#000" stroke-linejoin="round" stroke-width="2.33" d="M54.84 51.272l-.78 8.609-4.497-4.31 2.959 4.31h5.103l3.25-7.107-4.555 7.107zm-37.676.011l.78 8.61 4.51-4.3-2.972 4.3H14.38l-3.25-7.107 4.566 7.107z"/>
  <path fill="#9b9b9a" d="M55.21 59.88H16.79a1.164 1.164 0 01-1.165-1.165v-27.39a20.38 20.38 0 0140.75 0v27.39a1.165 1.165 0 01-1.165 1.165z"/>
  <path fill="#3f3f3f" d="M36 10.95a20.37 20.37 0 00-3.935.39 20.4 20.4 0 0116.44 19.99v28.55h6.706a1.165 1.165 0 001.165-1.166v-27.39a20.4 20.4 0 00-20.38-20.38z"/>
  <path fill="#5c9e31" d="M56.31 61.04h-3.787a1.167 1.167 0 01-.96-.503l-2.97-4.3a1.165 1.165 0 011.763-1.506l2.759 2.635.564-6.2a1.165 1.165 0 011.115-1.058 1.142 1.142 0 011.193.968l.965 5.641 2.936-4.574a1.165 1.165 0 012.04 1.114l-3.254 7.103a1.165 1.165 0 01-1.06.68H56.31zm-40.62.01h-1.305a1.165 1.165 0 01-1.059-.68l-3.253-7.103a1.165 1.165 0 012.04-1.114l2.936 4.576.965-5.644a1.165 1.165 0 012.308.09l.564 6.2 2.758-2.633a1.165 1.165 0 011.763 1.504l-2.97 4.3a1.167 1.167 0 01-.96.503h-1.524a.036.036 0 00-.016 0z"/>
  <g fill="none" stroke="#000" stroke-linecap="round" stroke-linejoin="round" stroke-width="2.33">
    <path d="M16.79 47.51V31.32A19.21 19.21 0 0136 12.11v0a19.21 19.21 0 0119.21 19.21v16.19M25.99 30.35h20.02m-20.02 5.22h20.02m-15.26 8.82h10.5"/>
  </g>
</svg>
