<svg viewBox="0 0 72 72" xmlns="http://www.w3.org/2000/svg">
  <path fill="#b3b3b3" d="M68 4v64H4V4h64m4-4H0v72h72V0z"/>
  <path fill="none" stroke="#00a5ff" stroke-miterlimit="10" stroke-width="0.1" d="M12.923 10.958h46.154A1.923 1.923 0 0161 12.881v46.154a1.923 1.923 0 01-1.923 1.923H12.923A1.923 1.923 0 0111 59.035V12.881a1.923 1.923 0 011.923-1.923z"/>
  <rect x="16" y="4" rx="2.254" width="40" height="64" fill="none" stroke="#00a5ff" stroke-miterlimit="10" stroke-width="0.1"/>
  <rect x="16" y="4" rx="2.254" width="40" height="64" transform="rotate(90 36 36)" fill="none" stroke="#00a5ff" stroke-miterlimit="10" stroke-width="0.1"/>
  <circle cx="36" cy="36" r="29" fill="none" stroke="#00a5ff" stroke-miterlimit="10" stroke-width="0.1"/>
  <path fill="none" stroke="#fff" stroke-linecap="round" stroke-linejoin="round" stroke-miterlimit="10" stroke-width="6" d="M22.273 48.897l-3.392 3.133a1.66 1.66 0 01-2.347.003l-.046-.046a1.66 1.66 0 01-.003-2.348l17.44-16.423 8.435-5.072 10.125-10.15a1.66 1.66 0 012.347-.003l.047.047a1.66 1.66 0 01.003 2.347L44.262 31.03 36 36.22 25.205 46.256m17.788-24.852l1.078 1.077m1.56-3.714l1.077 1.077m-5.789 5.99l-3.188-3.188s-1.192-2.241 1.246-2.241 1.942-2.047 1.942-2.047a1.666 1.666 0 011.976-2.01 1.876 1.876 0 002.144-1.65s-.217-2.398 1.98-1.593l3.188 3.187"/>
  <path fill="#92d3f5" d="M17.706 53.518a2.642 2.642 0 01-1.875-.775l-.043-.042a2.666 2.666 0 01-.012-3.768L33.41 32.358l8.33-5.008 10.038-10.062a2.693 2.693 0 013.813 3.803L44.794 31.878l-8.184 5.14-17.05 15.746a2.61 2.61 0 01-1.85.753z"/>
  <path fill="#fff" d="M42.7 28.617a1 1 0 01-.703-.29L37.02 23.35a.988.988 0 01-.18-.241 2.902 2.902 0 01-.12-2.672 2.398 2.398 0 012.25-1.04 1.206 1.206 0 00.878-.237.823.823 0 00.087-.587 2.955 2.955 0 01.586-2.381 2.847 2.847 0 012.424-.849c.786.036 1.018-.34 1.082-.694a2.827 2.827 0 01.902-2.303 2.408 2.408 0 012.427-.186 1.005 1.005 0 01.359.227l4.976 4.978a1 1 0 01.014 1.408l-9.288 9.541a1.002 1.002 0 01-.707.303z"/>
  <g fill="none" stroke="#000" stroke-linecap="round" stroke-miterlimit="10" stroke-width="2">
    <path d="M22.273 48.897l-3.392 3.133a1.66 1.66 0 01-2.347.003l-.046-.046a1.66 1.66 0 01-.003-2.348l17.44-16.423 8.435-5.072 10.125-10.15a1.66 1.66 0 012.347-.003l.047.047a1.66 1.66 0 01.003 2.347L44.262 31.03 36 36.22 25.205 46.256m17.788-24.852l1.078 1.077m1.56-3.714l1.077 1.077m-5.789 5.99l-3.188-3.188s-1.192-2.241 1.246-2.241 1.942-2.047 1.942-2.047a1.666 1.666 0 011.976-2.01 1.876 1.876 0 002.144-1.65s-.217-2.398 1.98-1.593l3.188 3.187"/>
  </g>
</svg>
