<svg viewBox="0 0 72 72" xmlns="http://www.w3.org/2000/svg">
  <path fill="#b3b3b3" d="M68 4v64H4V4h64m4-4H0v72h72V0z"/>
  <path fill="none" stroke="#00a5ff" stroke-miterlimit="10" stroke-width="0.1" d="M12.923 10.958h46.154A1.923 1.923 0 0161 12.881v46.154a1.923 1.923 0 01-1.923 1.923H12.923A1.923 1.923 0 0111 59.035V12.881a1.923 1.923 0 011.923-1.923z"/>
  <rect x="16" y="4" rx="2.254" width="40" height="64" fill="none" stroke="#00a5ff" stroke-miterlimit="10" stroke-width="0.1"/>
  <rect x="16" y="4" rx="2.254" width="40" height="64" transform="rotate(90 36 36)" fill="none" stroke="#00a5ff" stroke-miterlimit="10" stroke-width="0.1"/>
  <circle cx="36" cy="36" r="29" fill="none" stroke="#00a5ff" stroke-miterlimit="10" stroke-width="0.1"/>
  <g fill="none" stroke="#fff" stroke-linecap="round" stroke-linejoin="round" stroke-miterlimit="10" stroke-width="6">
    <path d="M28.5 32.88a49.364 49.364 0 01-2.192-12.593 3.578 3.578 0 012.97-3.618 41.775 41.775 0 0113.443-.032 3.58 3.58 0 012.97 3.618A51.989 51.989 0 0143.434 33.4"/>
    <rect x="26.306" y="34.555" rx="1.553" width="19.387" height="3.107" transform="rotate(-167.673 36 36.108)"/>
    <path d="M37.156 37.95l-8.777 1.919a1.558 1.558 0 01-1.849-1.186h0a1.558 1.558 0 011.186-1.85l2.164-.472m7.428-1.623l6.313-1.38a1.558 1.558 0 011.849 1.186h0a1.558 1.558 0 01-1.186 1.85M31.285 21.06a55.141 55.141 0 002.326 12.936m5.763-12.936a43.65 43.65 0 01-.844 6.748m4.97 11.529a49.359 49.359 0 012.192 12.593 3.578 3.578 0 01-2.971 3.618 41.775 41.775 0 01-13.442.032 3.58 3.58 0 01-2.971-3.618 53.125 53.125 0 011.93-12.057m12.477 11.252A55.143 55.143 0 0038.39 38.22m-5.764 12.937a43.65 43.65 0 01.844-6.748"/>
  </g>
  <path fill="#fcea2b" d="M43.5 39.337a49.359 49.359 0 012.192 12.593 3.578 3.578 0 01-2.971 3.618 41.775 41.775 0 01-13.442.032 3.58 3.58 0 01-2.971-3.618 53.125 53.125 0 011.93-12.057l.262-7.025a49.364 49.364 0 01-2.192-12.593 3.578 3.578 0 012.97-3.618 41.775 41.775 0 0113.443-.032 3.58 3.58 0 012.97 3.618A51.989 51.989 0 0143.434 33.4z"/>
  <path fill="#f1b31c" d="M38.53 16.17A73.966 73.966 0 0136 34.857l2.952.627 4.48-2.085 2.074-10.495v-4.6l-3.363-1.94zm-1.374 21.78a43.66 43.66 0 012.396 18.158l4.265-.786 1.875-3.392L43.5 39.337z"/>
  <rect x="26.306" y="34.555" rx="1.553" width="19.387" height="3.107" transform="rotate(-167.673 36 36.108)" fill="#b1cc33"/>
  <rect x="26.306" y="34.84" rx="1.553" width="19.387" height="3.107" transform="rotate(-12.328 35.997 36.391)" fill="#b1cc33"/>
  <g fill="none" stroke="#000" stroke-linecap="round" stroke-linejoin="round" stroke-width="2">
    <path d="M28.5 32.88a49.364 49.364 0 01-2.192-12.593 3.578 3.578 0 012.97-3.618 41.775 41.775 0 0113.443-.032 3.58 3.58 0 012.97 3.618A51.989 51.989 0 0143.434 33.4"/>
    <rect x="26.306" y="34.555" rx="1.553" width="19.387" height="3.107" transform="rotate(-167.673 36 36.108)"/>
    <path d="M37.156 37.95l-8.777 1.919a1.558 1.558 0 01-1.849-1.186h0a1.558 1.558 0 011.186-1.85l2.164-.472m7.428-1.623l6.313-1.38a1.558 1.558 0 011.849 1.186h0a1.558 1.558 0 01-1.186 1.85M31.285 21.06a55.141 55.141 0 002.326 12.936m5.763-12.936a43.65 43.65 0 01-.844 6.748m4.97 11.529a49.359 49.359 0 012.192 12.593 3.578 3.578 0 01-2.971 3.618 41.775 41.775 0 01-13.442.032 3.58 3.58 0 01-2.971-3.618 53.125 53.125 0 011.93-12.057m12.477 11.252A55.143 55.143 0 0038.39 38.22m-5.764 12.937a43.65 43.65 0 01.844-6.748"/>
  </g>
</svg>
