<svg viewBox="0 0 72 72" xmlns="http://www.w3.org/2000/svg">
  <path fill="#b3b3b3" d="M68 4v64H4V4h64m4-4H0v72h72V0z"/>
  <path fill="none" stroke="#00a5ff" stroke-miterlimit="10" stroke-width="0.1" d="M12.923 10.958h46.154A1.923 1.923 0 0161 12.881v46.154a1.923 1.923 0 01-1.923 1.923H12.923A1.923 1.923 0 0111 59.035V12.881a1.923 1.923 0 011.923-1.923z"/>
  <rect x="16" y="4" rx="2.254" width="40" height="64" fill="none" stroke="#00a5ff" stroke-miterlimit="10" stroke-width="0.1"/>
  <rect x="16" y="4" rx="2.254" width="40" height="64" transform="rotate(90 36 36)" fill="none" stroke="#00a5ff" stroke-miterlimit="10" stroke-width="0.1"/>
  <circle cx="36" cy="36" r="29" fill="none" stroke="#00a5ff" stroke-miterlimit="10" stroke-width="0.1"/>
  <path fill="none" stroke="#fff" stroke-linecap="round" stroke-linejoin="round" stroke-miterlimit="10" stroke-width="6" d="M14.158 54.717c.42.17.895.283 1.368.283.737 0 1.474-.283 2.106-.737l26.052-15.254.263-.284C44.632 37.988 45 37.081 45 36.06s-.368-1.985-1.053-2.665l-.263-.284-26.052-15.367c-.948-.794-2.316-.964-3.474-.454-1.316.567-2.158 1.985-2.158 3.516V51.2c0 1.53.842 2.948 2.158 3.516zM60 17v38m-8-38v38"/>
  <path fill="none" stroke="#000" stroke-linecap="round" stroke-linejoin="round" stroke-miterlimit="10" stroke-width="2" d="M14.158 54.717c.42.17.895.283 1.368.283.737 0 1.474-.283 2.106-.737l26.052-15.254.263-.284C44.632 37.988 45 37.081 45 36.06s-.368-1.985-1.053-2.665l-.263-.284-26.052-15.367c-.948-.794-2.316-.964-3.474-.454-1.316.567-2.158 1.985-2.158 3.516V51.2c0 1.53.842 2.948 2.158 3.516zM60 17v38m-8-38v38"/>
</svg>
