<svg viewBox="0 0 72 72" xmlns="http://www.w3.org/2000/svg">
  <path fill="#b3b3b3" d="M68 4v64H4V4h64m4-4H0v72h72V0z"/>
  <path fill="none" stroke="#00a5ff" stroke-miterlimit="10" stroke-width="0.1" d="M12.923 10.958h46.154A1.923 1.923 0 0161 12.881v46.154a1.923 1.923 0 01-1.923 1.923H12.923A1.923 1.923 0 0111 59.035V12.881a1.923 1.923 0 011.923-1.923z"/>
  <rect x="16" y="4" rx="2.254" width="40" height="64" fill="none" stroke="#00a5ff" stroke-miterlimit="10" stroke-width="0.1"/>
  <rect x="16" y="4" rx="2.254" width="40" height="64" transform="rotate(90 36 36)" fill="none" stroke="#00a5ff" stroke-miterlimit="10" stroke-width="0.1"/>
  <circle cx="36" cy="36" r="29" fill="none" stroke="#00a5ff" stroke-miterlimit="10" stroke-width="0.1"/>
  <g fill="none" stroke="#fff" stroke-linecap="round" stroke-linejoin="round" stroke-miterlimit="10" stroke-width="6">
    <path d="M50.258 55.036l2.884 4.828m-31.4-4.828l-2.884 4.828M48.85 12.576a5.508 5.508 0 018.246 7.147M23.15 12.576a5.507 5.507 0 00-8.246 7.147"/>
    <circle cx="36" cy="36.294" r="23"/>
    <path d="M36.026 18.989v17m-.052-.054l-6 10.392"/>
  </g>
  <path fill="#FFF" d="M50.258 55.036l2.884 4.828m-31.4-4.828l-2.884 4.828"/>
  <path fill="#d0cfce" d="M46.186 14.792c2.253-4.648 4.265-4.084 6.167-4.317 1.287-.157 6.461 3.164 6.461 6.58s-2.243 4.739-3.56 5.487m-29.44-7.75c-2.253-4.648-4.265-4.084-6.167-4.317-1.287-.157-6.461 3.164-6.461 6.58s2.243 4.739 3.56 5.487"/>
  <circle cx="36" cy="36.294" r="23" fill="#FFF"/>
  <path fill="#FFF" d="M36.026 18.989v17m-.052-.054l-6 10.392"/>
  <g fill="none" stroke="#000" stroke-linecap="round" stroke-linejoin="round" stroke-miterlimit="10">
    <path stroke-width="2" d="M50.258 55.036l2.884 4.828m-31.4-4.828l-2.884 4.828M48.85 12.576a5.508 5.508 0 018.246 7.147M23.15 12.576a5.507 5.507 0 00-8.246 7.147"/>
    <circle cx="36" cy="36.294" r="23" stroke-width="2"/>
    <path stroke-width="2" d="M36.026 18.989v17"/>
    <path stroke-width="2.079" d="M35.974 35.935l-6 10.392"/>
  </g>
</svg>
