<svg viewBox="0 0 72 72" xmlns="http://www.w3.org/2000/svg">
  <path fill="#b3b3b3" d="M68 4.042v64H4v-64h64m4-4H0v72h72v-72z"/>
  <path fill="none" stroke="#00a5ff" stroke-miterlimit="10" stroke-width="0.1" d="M12.923 11h46.154A1.923 1.923 0 0161 12.923v46.154A1.923 1.923 0 0159.077 61H12.923A1.923 1.923 0 0111 59.077V12.923A1.923 1.923 0 0112.923 11z"/>
  <rect x="16" y="4.042" rx="2.254" width="40" height="64" fill="none" stroke="#00a5ff" stroke-miterlimit="10" stroke-width="0.1"/>
  <rect x="16" y="4.042" rx="2.254" width="40" height="64" transform="rotate(90 36 36.042)" fill="none" stroke="#00a5ff" stroke-miterlimit="10" stroke-width="0.1"/>
  <circle cx="36" cy="36.042" r="29" fill="none" stroke="#00a5ff" stroke-miterlimit="10" stroke-width="0.1"/>
  <path fill="none" stroke="#fff" stroke-linecap="round" stroke-linejoin="round" stroke-miterlimit="10" stroke-width="6" d="M16.083 16.042h39.833v39.833H16.083z"/>
  <path d="M16.083 16.042h39.833v39.833H16.083z"/>
  <path fill="none" stroke="#000" stroke-linecap="round" stroke-linejoin="round" stroke-width="2" d="M16.083 16.042h39.833v39.833H16.083z"/>
</svg>
