<svg viewBox="0 0 72 72" xmlns="http://www.w3.org/2000/svg">
  <path fill="#b3b3b3" d="M68 4v64H4V4h64m4-4H0v72h72V0z"/>
  <path fill="none" stroke="#00a5ff" stroke-miterlimit="10" stroke-width="0.1" d="M12.923 10.958h46.154A1.923 1.923 0 0161 12.881v46.154a1.923 1.923 0 01-1.923 1.923H12.923A1.923 1.923 0 0111 59.035V12.881a1.923 1.923 0 011.923-1.923z"/>
  <rect x="16" y="4" rx="2.254" ry="2.254" width="40" height="64" fill="none" stroke="#00a5ff" stroke-miterlimit="10" stroke-width="0.1"/>
  <rect x="16" y="4" rx="2.254" ry="2.254" width="40" height="64" transform="rotate(90 36 36)" fill="none" stroke="#00a5ff" stroke-miterlimit="10" stroke-width="0.1"/>
  <circle cx="36" cy="36" r="29" fill="none" stroke="#00a5ff" stroke-miterlimit="10" stroke-width="0.1"/>
  <g fill="none" stroke="#fff" stroke-linecap="round" stroke-linejoin="round" stroke-miterlimit="10" stroke-width="6">
    <circle cx="35.96" cy="35.89" r="3.281"/>
    <path d="M23.09 43.42a14.76 14.76 0 003.496 4.097l5.791-6.957a5.733 5.733 0 01-2.167-3.753l-8.921 1.537a14.76 14.76 0 001.8 5.076zm25.82 0a14.76 14.76 0 001.8-5.076l-8.921-1.537a5.733 5.733 0 01-2.167 3.753l5.791 6.957a14.76 14.76 0 003.496-4.097zM36 21.13a14.76 14.76 0 00-5.296.98l3.129 8.493a5.733 5.733 0 014.333 0l3.129-8.494a14.76 14.76 0 00-5.296-.979z"/>
    <circle cx="36" cy="36" r="23"/>
  </g>
  <circle cx="36" cy="36" r="23" fill="#f4aa41"/>
  <g stroke="#000">
    <circle cx="35.96" cy="35.89" r="3.281" stroke-miterlimit="10" stroke-width="1.25"/>
    <path stroke-miterlimit="10" stroke-width="1.254" d="M23.09 43.42a14.76 14.76 0 003.496 4.097l5.791-6.957a5.733 5.733 0 01-2.167-3.753l-8.921 1.537a14.76 14.76 0 001.8 5.076zm25.82 0a14.76 14.76 0 001.8-5.076l-8.921-1.537a5.733 5.733 0 01-2.167 3.753l5.791 6.957a14.76 14.76 0 003.496-4.097zM36 21.13a14.76 14.76 0 00-5.296.98l3.129 8.493a5.733 5.733 0 014.333 0l3.129-8.494a14.76 14.76 0 00-5.296-.979z"/>
    <circle cx="36" cy="36" r="23" fill="none" stroke-linecap="round" stroke-linejoin="round" stroke-width="2"/>
  </g>
</svg>
