<svg viewBox="0 0 72 72" xmlns="http://www.w3.org/2000/svg">
  <path fill="#b3b3b3" d="M68 4v64H4V4h64m4-4H0v72h72V0z"/>
  <path fill="none" stroke="#00a5ff" stroke-miterlimit="10" stroke-width="0.1" d="M12.923 10.958h46.154A1.923 1.923 0 0161 12.881v46.154a1.923 1.923 0 01-1.923 1.923H12.923A1.923 1.923 0 0111 59.035V12.881a1.923 1.923 0 011.923-1.923z"/>
  <rect x="16" y="4" rx="2.254" width="40" height="64" fill="none" stroke="#00a5ff" stroke-miterlimit="10" stroke-width="0.1"/>
  <rect x="16" y="4" rx="2.254" width="40" height="64" transform="rotate(90 36 36)" fill="none" stroke="#00a5ff" stroke-miterlimit="10" stroke-width="0.1"/>
  <circle cx="36" cy="36" r="29" fill="none" stroke="#00a5ff" stroke-miterlimit="10" stroke-width="0.1"/>
  <g fill="none" stroke="#fff" stroke-linecap="round" stroke-linejoin="round" stroke-miterlimit="10" stroke-width="6">
    <path d="M45 57c1.975 0 3.9-.275 5.713-.8A24.787 24.787 0 0136 61c-13.812 0-25-11.188-25-25s11.188-25 25-25c5.5 0 10.588 1.775 14.713 4.8A20.544 20.544 0 0045 15c-11.6 0-21 9.4-21 21s9.4 21 21 21z"/>
    <path d="M50.652 27.896l2.372 4.807 5.306.771-3.84 3.742.907 5.284-4.745-2.495-4.745 2.495.906-5.284-3.84-3.742 5.306-.77z"/>
  </g>
  <g fill="#B399C8">
    <path d="M45 57c1.975 0 3.9-.275 5.713-.8A24.787 24.787 0 0136 61c-13.812 0-25-11.188-25-25s11.188-25 25-25c5.5 0 10.588 1.775 14.713 4.8A20.544 20.544 0 0045 15c-11.6 0-21 9.4-21 21s9.4 21 21 21z"/>
    <path d="M50.652 27.896l2.372 4.807 5.306.771-3.84 3.742.907 5.284-4.745-2.495-4.745 2.495.906-5.284-3.84-3.742 5.306-.77z"/>
  </g>
  <g fill="none" stroke="#000" stroke-linecap="round" stroke-linejoin="round" stroke-miterlimit="10" stroke-width="2">
    <path d="M45 57c1.975 0 3.9-.275 5.713-.8A24.787 24.787 0 0136 61c-13.812 0-25-11.188-25-25s11.188-25 25-25c5.5 0 10.588 1.775 14.713 4.8A20.544 20.544 0 0045 15c-11.6 0-21 9.4-21 21s9.4 21 21 21z"/>
    <path d="M50.652 27.896l2.372 4.807 5.306.771-3.84 3.742.907 5.284-4.745-2.495-4.745 2.495.906-5.284-3.84-3.742 5.306-.77z"/>
  </g>
</svg>
