<svg viewBox="0 0 72 72" xmlns="http://www.w3.org/2000/svg">
  <path fill="#b3b3b3" d="M68 4v64H4V4h64m4-4H0v72h72V0z"/>
  <path fill="none" stroke="#00a5ff" stroke-miterlimit="10" stroke-width="0.1" d="M12.92 10.96h46.15a1.923 1.923 0 011.923 1.923v46.15a1.922 1.922 0 01-1.922 1.922h-46.16a1.923 1.923 0 01-1.923-1.923v-46.15a1.923 1.923 0 011.923-1.923z"/>
  <rect x="16" y="4" rx="2.254" ry="2.254" width="40" height="64" fill="none" stroke="#00a5ff" stroke-miterlimit="10" stroke-width="0.1"/>
  <rect x="16" y="4" rx="2.254" ry="2.254" width="40" height="64" transform="rotate(90 36 36)" fill="none" stroke="#00a5ff" stroke-miterlimit="10" stroke-width="0.1"/>
  <circle cx="36" cy="36" r="29" fill="none" stroke="#00a5ff" stroke-miterlimit="10" stroke-width="0.1"/>
  <g fill="none" stroke="#fff" stroke-linecap="round" stroke-linejoin="round" stroke-miterlimit="10" stroke-width="6">
    <path d="M51.01 35.99a15 15 0 11-15-15 15 15 0 0115 15z"/>
    <path d="M41 36a5 5 0 11-5-5.001A5.001 5.001 0 0141 36zm-5-5V19m0 34V41"/>
    <path d="M12 12h48v48H12zm29 24h12m-34 0h12m8.54-3.54l8.48-8.48M23.98 48.02l8.48-8.48m0-7.08l-8.48-8.48m24.04 24.04l-8.48-8.48"/>
  </g>
  <path fill="#b399c8" d="M12 12h48v47.83H12z"/>
  <g fill="none" stroke="#000" stroke-linecap="round" stroke-linejoin="round">
    <path stroke-width="3" d="M51.01 35.99a15 15 0 11-15-15 15 15 0 0115 15z"/>
    <path stroke-width="3" d="M41 36a5 5 0 11-5-5.001A5.001 5.001 0 0141 36zm-5-5V19m0 34V41"/>
    <path stroke-width="2" d="M12 12h48v48H12z"/>
    <path stroke-width="3" d="M41 36h12m-34 0h12m8.54-3.54l8.48-8.48M23.98 48.02l8.48-8.48m0-7.08l-8.48-8.48m24.04 24.04l-8.48-8.48"/>
  </g>
</svg>
