<svg viewBox="0 0 72 72" xmlns="http://www.w3.org/2000/svg">
  <path fill="#b3b3b3" d="M68 4v64H4V4h64m4-4H0v72h72V0z"/>
  <path fill="none" stroke="#00a5ff" stroke-miterlimit="10" stroke-width="0.1" d="M12.923 10.958h46.154A1.923 1.923 0 0161 12.881v46.154a1.923 1.923 0 01-1.923 1.923H12.923A1.923 1.923 0 0111 59.035V12.881a1.923 1.923 0 011.923-1.923z"/>
  <rect x="16" y="4" rx="2.254" width="40" height="64" fill="none" stroke="#00a5ff" stroke-miterlimit="10" stroke-width="0.1"/>
  <rect x="16" y="4" rx="2.254" width="40" height="64" transform="rotate(90 36 36)" fill="none" stroke="#00a5ff" stroke-miterlimit="10" stroke-width="0.1"/>
  <circle cx="36" cy="36" r="29" fill="none" stroke="#00a5ff" stroke-miterlimit="10" stroke-width="0.1"/>
  <g fill="none" stroke="#fff" stroke-linecap="round" stroke-linejoin="round" stroke-miterlimit="10" stroke-width="6">
    <path d="M54.738 14.921H38.475l-4.95 4.95h12.728l-.084.084-.47.47-8.427 8.427-.824.824c-5.858-4.175-14.043-3.634-19.299 1.621-5.858 5.858-5.858 15.356 0 21.213s15.355 5.858 21.213 0c5.256-5.256 5.796-13.443 1.62-19.3l.943-.945 7.513-7.512 1.35-1.343v12.724l4.95-4.95V14.922"/>
    <circle cx="27.756" cy="41.904" r="10" transform="rotate(-45.001 27.755 41.905)"/>
  </g>
  <path fill="#9B9B9A" d="M40.094 33.096l.944-.943 7.513-7.513 1.35-1.343v12.725l4.95-4.95V14.808H38.588l-4.95 4.95h12.728l-.084.084-.47.47-8.427 8.427-.824.824c-5.858-4.175-14.043-3.634-19.299 1.621-5.858 5.858-5.858 15.356 0 21.213 5.858 5.858 15.355 5.858 21.213 0 5.256-5.256 5.796-13.442 1.62-19.3zM20.766 48.893c-3.905-3.905-3.905-10.237 0-14.142s10.237-3.905 14.142 0 3.906 10.237 0 14.142-10.236 3.905-14.142 0z"/>
  <g fill="none" stroke="#000" stroke-linecap="round" stroke-linejoin="round" stroke-miterlimit="10" stroke-width="2">
    <path d="M54.738 14.921H38.475l-4.95 4.95h12.728l-.084.084-.47.47-8.427 8.427-.824.824c-5.858-4.175-14.043-3.634-19.299 1.621-5.858 5.858-5.858 15.356 0 21.213s15.355 5.858 21.213 0c5.256-5.256 5.796-13.443 1.62-19.3l.943-.945 7.513-7.512 1.35-1.343v12.724l4.95-4.95V14.922"/>
    <circle cx="27.756" cy="41.904" r="10" transform="rotate(-45.001 27.755 41.905)"/>
  </g>
</svg>
