<svg viewBox="0 0 72 72" xmlns="http://www.w3.org/2000/svg">
  <path fill="#b3b3b3" d="M68 4v64H4V4h64m4-4H0v72h72V0z"/>
  <path fill="none" stroke="#00a5ff" stroke-miterlimit="10" stroke-width="0.1" d="M12.92 10.96h46.15a1.923 1.923 0 011.923 1.923v46.15a1.922 1.922 0 01-1.922 1.922h-46.16a1.923 1.923 0 01-1.923-1.923v-46.15a1.923 1.923 0 011.923-1.923z"/>
  <rect x="16" y="4" rx="2.254" ry="2.254" width="40" height="64" fill="none" stroke="#00a5ff" stroke-miterlimit="10" stroke-width="0.1"/>
  <rect x="16" y="4" rx="2.254" ry="2.254" width="40" height="64" transform="rotate(90 36 36)" fill="none" stroke="#00a5ff" stroke-miterlimit="10" stroke-width="0.1"/>
  <circle cx="36" cy="36" r="29" fill="none" stroke="#00a5ff" stroke-miterlimit="10" stroke-width="0.1"/>
  <g fill="none" stroke="#fff" stroke-linecap="round" stroke-linejoin="round" stroke-miterlimit="10" stroke-width="6">
    <path d="M12 12h48v48H12zm23.23 32.91l.125-13.68"/>
    <path d="M26.31 44.91V30.88c-.145-1.558-.626-3.32-2.212-5.754m2.212 6.094s.766-6.485 4.523-6.437 4.405 4.103 4.523 6.437c.183-2.264.916-6.54 4.478-6.544 3.562-.004 4.31 3.958 4.478 6.544V44.9c.365 2.829 2.394 5.11 3.83 5.112 3.041.488 3.963-9.966 1.123-10.73-3.348-.579-5.387 7.691-7.545 13.16"/>
  </g>
  <path fill="#b399c8" d="M12 12h48v48H12z"/>
  <g fill="none" stroke="#000" stroke-linecap="round" stroke-linejoin="round">
    <path stroke-width="2" d="M12 12h48v48H12z"/>
    <path stroke-width="3" d="M35.23 44.91l.125-13.68M26.31 44.91V30.88c-.145-1.558-.626-3.32-2.212-5.754"/>
    <path stroke-width="3" d="M26.31 31.22s.766-6.485 4.523-6.437 4.405 4.103 4.523 6.437c.183-2.264.916-6.54 4.478-6.544 3.562-.004 4.31 3.958 4.478 6.544V44.9c.365 2.829 2.394 5.11 3.83 5.112 3.041.488 3.963-9.966 1.123-10.73-3.348-.579-5.387 7.691-7.545 13.16"/>
  </g>
</svg>
