<svg viewBox="0 0 72 72" xmlns="http://www.w3.org/2000/svg">
  <path fill="#b3b3b3" d="M68 4v64H4V4h64m4-4H0v72h72V0z"/>
  <path fill="none" stroke="#00a5ff" stroke-miterlimit="10" stroke-width="0.1" d="M12.923 10.958h46.154A1.923 1.923 0 0161 12.881v46.154a1.923 1.923 0 01-1.923 1.923H12.923A1.923 1.923 0 0111 59.035V12.881a1.923 1.923 0 011.923-1.923z"/>
  <rect x="16" y="4" rx="2.254" ry="2.254" width="40" height="64" fill="none" stroke="#00a5ff" stroke-miterlimit="10" stroke-width="0.1"/>
  <rect x="16" y="4" rx="2.254" ry="2.254" width="40" height="64" transform="rotate(90 36 36)" fill="none" stroke="#00a5ff" stroke-miterlimit="10" stroke-width="0.1"/>
  <circle cx="36" cy="36" r="29" fill="none" stroke="#00a5ff" stroke-miterlimit="10" stroke-width="0.1"/>
  <path fill="none" stroke="#fff" stroke-linecap="round" stroke-linejoin="round" stroke-miterlimit="10" stroke-width="6" d="M36 32.51c4.335-4.336 8.841-9.096 15.73-9.096 7.226 0 12.24 5.271 12.24 12.58-.056 7.058-5.863 12.71-12.92 12.58-5.006 0-8.99-3.178-12.47-6.532m-2.581-2.564c-4.335 4.335-8.841 9.096-15.73 9.096-7.141 0-12.24-5.271-12.24-12.58.056-7.058 5.863-12.71 12.92-12.58 5.02 0 9.012 3.194 12.49 6.558m-3.476 3.475c-2.586-2.503-5.447-4.932-9.102-4.932a7.49 7.49 0 00-7.48 7.48 7.126 7.126 0 007.226 7.48c4.844 0 8.754-4.166 11.98-7.48m9.401 2.521c2.594 2.513 5.462 4.959 9.129 4.959a7.492 7.492 0 007.482-7.48h0a7.126 7.126 0 00-7.226-7.48c-4.846 0-8.756 4.165-11.99 7.48M32.6 36l3.4-3.49m0 6.98L39.4 36"/>
  <path fill="#9b9b9a" stroke="#9b9b9a" stroke-width="2" d="M36 39.44c-4.335 4.335-8.841 9.096-15.73 9.096-7.141 0-12.24-5.271-12.24-12.58.056-7.058 5.863-12.67 12.92-12.54 6.29 0 10.97 4.973 15.05 9.054 4.335-4.336 8.841-9.054 15.73-9.054 7.226 0 12.24 5.229 12.24 12.54-.056 7.058-5.863 12.75-12.92 12.62-6.29 0-10.97-5.057-15.05-9.137zm-3.4-3.444c-3.315-3.06-6.801-7.522-11.73-7.522a7.49 7.49 0 00-7.48 7.48c-.205 4.113 3.108 7.584 7.226 7.522 4.844 0 8.754-4.166 11.98-7.48zm26.01-.042a7.126 7.126 0 00-7.226-7.48c-4.846 0-8.756 4.165-11.99 7.48 3.315 3.06 6.8 7.522 11.73 7.522 4.129-.005 7.476-3.393 7.482-7.522z"/>
  <g stroke="#000" stroke-linecap="round" stroke-width="2">
    <path fill="none" d="M36 32.51c4.335-4.336 8.841-9.096 15.73-9.096 7.226 0 12.24 5.271 12.24 12.58-.056 7.058-5.863 12.71-12.92 12.58-5.006 0-8.99-3.178-12.47-6.532m-2.581-2.564c-4.335 4.335-8.841 9.096-15.73 9.096-7.141 0-12.24-5.271-12.24-12.58.056-7.058 5.863-12.71 12.92-12.58 5.02 0 9.012 3.194 12.49 6.558m-3.476 3.475c-2.586-2.503-5.447-4.932-9.102-4.932a7.49 7.49 0 00-7.48 7.48 7.126 7.126 0 007.226 7.48c4.844 0 8.754-4.166 11.98-7.48m9.401 2.521c2.594 2.513 5.462 4.959 9.129 4.959a7.492 7.492 0 007.482-7.48h0a7.126 7.126 0 00-7.226-7.48c-4.846 0-8.756 4.165-11.99 7.48"/>
    <path stroke-linejoin="round" d="M32.6 36l3.4-3.49m0 6.98L39.4 36"/>
  </g>
</svg>
