<svg viewBox="0 0 72 72" xmlns="http://www.w3.org/2000/svg">
  <path fill="#b3b3b3" d="M68 4v64H4V4h64m4-4H0v72h72V0z"/>
  <path fill="none" stroke="#00a5ff" stroke-miterlimit="10" stroke-width="0.1" d="M12.923 10.958h46.154A1.923 1.923 0 0161 12.881v46.154a1.923 1.923 0 01-1.923 1.923H12.923A1.923 1.923 0 0111 59.035V12.881a1.923 1.923 0 011.923-1.923z"/>
  <rect x="16" y="4" rx="2.254" width="40" height="64" fill="none" stroke="#00a5ff" stroke-miterlimit="10" stroke-width="0.1"/>
  <rect x="16" y="4" rx="2.254" width="40" height="64" transform="rotate(90 36 36)" fill="none" stroke="#00a5ff" stroke-miterlimit="10" stroke-width="0.1"/>
  <circle cx="36" cy="36" r="29" fill="none" stroke="#00a5ff" stroke-miterlimit="10" stroke-width="0.1"/>
  <g fill="none" stroke="#fff" stroke-linecap="round" stroke-linejoin="round" stroke-miterlimit="10" stroke-width="6">
    <path d="M37.893 41.736l2.409 1.858 7.485 11.917-.907.578-2.721 1.733-.907.578-5.745-9.016-1.549-2.432m-2.024-5.198l-1.599-2.54-7.944-12.738 2.721-1.733 7.146 11.469 1.65 2.622m1.657-23.891a13.463 13.463 0 00-11.961.075 50.083 50.083 0 00-9.552 6.192l1.332 2.091-1.877 1.138-.939-1.475a2.381 2.381 0 00-2.797 1.782l3.853 6.048a2.825 2.825 0 002.797-1.782l-.988-1.55 1.867-1.153 1.519 2.384 9.601-6.116-2.745-4.309s6.425-4.093 9.89-3.325zm7.893-.247L40.69 22.18l9.6 6.116s6.468 1.63 9.939 2.354l-5.123-9.913z"/>
    <path d="M35.908 38.834l8.893-14.091 2.721 1.733-10.596 16.792-.751 3.348-7.637 11.82-.907-.578-2.721-1.734-.907-.577 7.561-11.869 2.64-2.143 1.704-2.701"/>
  </g>
  <path fill="#d0cfce" d="M45.458 14.696L40.69 22.18l9.6 6.116s6.468 1.63 9.939 2.354l-5.123-9.913z"/>
  <path fill="#6a462f" d="M27.112 24.743l10.473 16.756 2.717 2.095 7.485 11.917-.907.578-2.721 1.733-.907.578-7.561-11.868-.827-3.299-10.473-16.757 2.721-1.733z"/>
  <path fill="#a57939" d="M47.522 26.476L36.926 43.268l-.751 3.348-7.637 11.82-.907-.578-2.721-1.734-.907-.577 7.561-11.869 2.64-2.143 10.597-16.792 2.721 1.733z"/>
  <path fill="#9b9b9a" d="M37.565 14.943a13.463 13.463 0 00-11.961.075 50.083 50.083 0 00-9.552 6.192l1.332 2.091-1.877 1.138-.939-1.475a2.381 2.381 0 00-2.797 1.782l3.853 6.048a2.825 2.825 0 002.797-1.782l-.988-1.55 1.867-1.153 1.519 2.384 9.601-6.116-2.745-4.309s6.425-4.093 9.89-3.325z"/>
  <g>
    <g fill="none" stroke="#000" stroke-linecap="round" stroke-linejoin="round" stroke-width="2">
      <path d="M37.893 41.736l2.409 1.858 7.485 11.917-.907.578-2.721 1.733-.907.578-5.745-9.016-1.549-2.432m-2.024-5.198l-1.599-2.54-7.944-12.738 2.721-1.733 7.146 11.469 1.65 2.622m1.657-23.891a13.463 13.463 0 00-11.961.075 50.083 50.083 0 00-9.552 6.192l1.332 2.091-1.877 1.138-.939-1.475a2.381 2.381 0 00-2.797 1.782l3.853 6.048a2.825 2.825 0 002.797-1.782l-.988-1.55 1.867-1.153 1.519 2.384 9.601-6.116-2.745-4.309s6.425-4.093 9.89-3.325zm7.893-.247L40.69 22.18l9.6 6.116s6.468 1.63 9.939 2.354l-5.123-9.913z"/>
      <path d="M35.908 38.834l8.893-14.091 2.721 1.733-10.596 16.792-.751 3.348-7.637 11.82-.907-.578-2.721-1.734-.907-.577 7.561-11.869 2.64-2.143 1.704-2.701"/>
    </g>
  </g>
</svg>
