<svg viewBox="0 0 72 72" xmlns="http://www.w3.org/2000/svg">
  <path fill="#B3B3B3" d="M68 4v64H4V4h64m4-4H0v72h72V0z"/>
  <path fill="none" stroke="#00A5FF" stroke-miterlimit="10" stroke-width="0.1" d="M12.923 10.958h46.154c1.062 0 1.923.861 1.923 1.923v46.154a1.923 1.923 0 01-1.923 1.923H12.923A1.923 1.923 0 0111 59.035h0V12.881c0-1.062.861-1.923 1.923-1.923h0z"/>
  <path fill="none" stroke="#00A5FF" stroke-miterlimit="10" stroke-width="0.1" d="M18.254 4h35.492A2.254 2.254 0 0156 6.254v59.492A2.254 2.254 0 0153.746 68H18.254A2.254 2.254 0 0116 65.746V6.254A2.254 2.254 0 0118.254 4z"/>
  <path fill="none" stroke="#00A5FF" stroke-miterlimit="10" stroke-width="0.1" d="M68 18.254v35.492A2.254 2.254 0 0165.746 56H6.254A2.254 2.254 0 014 53.746V18.254A2.254 2.254 0 016.254 16h59.492A2.254 2.254 0 0168 18.254z"/>
  <circle cx="36" cy="36" r="29" fill="none" stroke="#00A5FF" stroke-miterlimit="10" stroke-width="0.1"/>
  <g fill="none" stroke="#fff" stroke-linecap="round" stroke-linejoin="round" stroke-miterlimit="10" stroke-width="6">
    <path d="M39 5.762V37h18.687zM54.119 49.81C57.119 46.81 59 42 59 42H16s-1.208 4.838 2.792 7.838M35.262 13v24H23.738zM39 6v36"/>
    <path d="M5 47c3 0 9 3 15 3s10-3 16-3 11 3 16 3 7-3 15-3"/>
  </g>
  <path fill="#D0CFCE" d="M39 5.762V37h18.687z"/>
  <path fill="#A57939" d="M54 50c3-3 5-8 5-8H16s-1 5 3 8h35z"/>
  <path fill="#D0CFCE" d="M35.262 13v24H23.738z"/>
  <path fill="none" d="M69 48.235L68 68H4V48.235"/>
  <path fill="#92D3F5" d="M68 47v21H4V47h1c3 0 9 3 15 3s10-3 16-3 11 3 16 3 7-3 15-3h1z"/>
  <g fill="none" stroke="#000" stroke-linecap="round" stroke-linejoin="round" stroke-miterlimit="10">
    <path stroke-width="2.036" d="M39 5.762V37h18.687z"/>
    <path stroke-width="2" d="M54.119 49.81C57.119 46.81 59 42 59 42H16s-1.208 4.838 2.792 7.838M35.262 13v24H23.738z"/>
    <path stroke-width="2.036" d="M39 6v36"/>
    <path stroke-width="2" d="M5 47c3 0 9 3 15 3s10-3 16-3 11 3 16 3 7-3 15-3"/>
  </g>
</svg>
