<svg viewBox="0 0 72 72" xmlns="http://www.w3.org/2000/svg">
  <path fill="#b3b3b3" d="M68 4v64H4V4h64m4-4H0v72h72V0z"/>
  <path fill="none" stroke="#00a5ff" stroke-miterlimit="10" stroke-width="0.1" d="M12.923 10.958h46.154A1.923 1.923 0 0161 12.881v46.154a1.923 1.923 0 01-1.923 1.923H12.923A1.923 1.923 0 0111 59.035V12.881a1.923 1.923 0 011.923-1.923z"/>
  <rect x="16" y="4" rx="2.254" width="40" height="64" fill="none" stroke="#00a5ff" stroke-miterlimit="10" stroke-width="0.1"/>
  <rect x="16" y="4" rx="2.254" width="40" height="64" transform="rotate(90 36 36)" fill="none" stroke="#00a5ff" stroke-miterlimit="10" stroke-width="0.1"/>
  <circle cx="36" cy="36" r="29" fill="none" stroke="#00a5ff" stroke-miterlimit="10" stroke-width="0.1"/>
  <g fill="none" stroke="#fff" stroke-linecap="round" stroke-linejoin="round" stroke-miterlimit="10" stroke-width="6">
    <path d="M15 16h20v40H15zm20 30V36h28v10m0 0v10H35V46"/>
    <path d="M20 21h9v5h-9zm15-3h17v10H35zm6 3h5m-5 3h5M10 34v-4l-1-2"/>
    <path d="M8 37v-3.04c0-.528.45-.96 1-.96h2c.55 0 1 .432 1 .96V37m1 1c0 .55-.338 1-.75 1h-4.5c-.412 0-.75-.45-.75-1s.338-1 .75-1h4.5c.412 0 .75.45.75 1zm-1 14c-4-6-1-7-2-14"/>
  </g>
  <path fill="#d0cfce" d="M15 16h20v40H15z"/>
  <path fill="#ea5a47" d="M35 46V36h28v10"/>
  <path fill="#d0cfce" d="M63 46v10H35V46"/>
  <path fill="#92d3f5" d="M20 21h9v5h-9z"/>
  <path fill="#d0cfce" d="M35 18h17v10H35z"/>
  <path fill="none" stroke="#000" stroke-linecap="round" stroke-linejoin="round" stroke-miterlimit="10" stroke-width="2" d="M15 16h20v40H15zm20 30V36h28v10m0 0v10H35V46"/>
  <path fill="none" stroke="#000" stroke-linecap="round" stroke-linejoin="round" stroke-miterlimit="10" stroke-width="2" d="M20 21h9v5h-9zm15-3h17v10H35zm6 3h5m-5 3h5M10 34v-4l-1-2"/>
  <path d="M8 37v-3.04c0-.528.45-.96 1-.96h2c.55 0 1 .432 1 .96V37m1 1c0 .55-.338 1-.75 1h-4.5c-.412 0-.75-.45-.75-1s.338-1 .75-1h4.5c.412 0 .75.45.75 1z"/>
  <path fill="none" stroke="#000" stroke-linecap="round" stroke-linejoin="round" stroke-miterlimit="10" stroke-width="2" d="M12 52c-4-6-1-7-2-14"/>
</svg>
