<svg viewBox="0 0 72 72" xmlns="http://www.w3.org/2000/svg">
  <path fill="#b3b3b3" d="M68 4v64H4V4h64m4-4H0v72h72V0z"/>
  <path fill="none" stroke="#00a5ff" stroke-miterlimit="10" stroke-width="0.1" d="M12.923 10.958h46.154A1.923 1.923 0 0161 12.881v46.154a1.923 1.923 0 01-1.923 1.923H12.923A1.923 1.923 0 0111 59.035V12.881a1.923 1.923 0 011.923-1.923z"/>
  <rect x="16" y="4" rx="2.254" width="40" height="64" fill="none" stroke="#00a5ff" stroke-miterlimit="10" stroke-width="0.1"/>
  <rect x="16" y="4" rx="2.254" width="40" height="64" transform="rotate(90 36 36)" fill="none" stroke="#00a5ff" stroke-miterlimit="10" stroke-width="0.1"/>
  <circle cx="36" cy="36" r="29" fill="none" stroke="#00a5ff" stroke-miterlimit="10" stroke-width="0.1"/>
  <path fill="none" stroke="#fff" stroke-linecap="round" stroke-linejoin="round" stroke-miterlimit="10" stroke-width="6" d="M53.13 28.38v2.91a3 3 0 01-3 3h-6.68a3 3 0 00-3 3v20.72a3 3 0 01-3 3h-2.9a3 3 0 01-3-3V37.29a3 3 0 00-3-3h-6.68a3 3 0 01-3-3v-2.91a3 3 0 013-3h6.68a3 3 0 003-3v-8.39a3 3 0 013-3h2.9a3 3 0 013 3v8.39a3 3 0 003 3h6.68a3 3 0 013 3z"/>
  <path fill="#B399C8" d="M53.13 28.38v2.91a3 3 0 01-3 3h-6.68a3 3 0 00-3 3v20.72a3 3 0 01-3 3h-2.9a3 3 0 01-3-3V37.29a3 3 0 00-3-3h-6.68a3 3 0 01-3-3v-2.91a3 3 0 013-3h6.68a3 3 0 003-3v-8.39a3 3 0 013-3h2.9a3 3 0 013 3v8.39a3 3 0 003 3h6.68a3 3 0 013 3z"/>
  <path fill="none" stroke="#000" stroke-linecap="round" stroke-linejoin="round" stroke-miterlimit="10" stroke-width="2" d="M53.13 28.38v2.91a3 3 0 01-3 3h-6.68a3 3 0 00-3 3v20.72a3 3 0 01-3 3h-2.9a3 3 0 01-3-3V37.29a3 3 0 00-3-3h-6.68a3 3 0 01-3-3v-2.91a3 3 0 013-3h6.68a3 3 0 003-3v-8.39a3 3 0 013-3h2.9a3 3 0 013 3v8.39a3 3 0 003 3h6.68a3 3 0 013 3z"/>
</svg>
