<svg viewBox="0 0 72 72" xmlns="http://www.w3.org/2000/svg">
  <path fill="#b3b3b3" d="M68 4v64H4V4h64m4-4H0v72h72V0z"/>
  <path fill="none" stroke="#00a5ff" stroke-miterlimit="10" stroke-width="0.1" d="M12.923 10.958h46.154A1.923 1.923 0 0161 12.881v46.154a1.923 1.923 0 01-1.923 1.923H12.923A1.923 1.923 0 0111 59.035V12.881a1.923 1.923 0 011.923-1.923z"/>
  <rect x="16" y="4" rx="2.254" width="40" height="64" fill="none" stroke="#00a5ff" stroke-miterlimit="10" stroke-width="0.1"/>
  <rect x="16" y="4" rx="2.254" width="40" height="64" transform="rotate(90 36 36)" fill="none" stroke="#00a5ff" stroke-miterlimit="10" stroke-width="0.1"/>
  <circle cx="36" cy="36" r="29" fill="none" stroke="#00a5ff" stroke-miterlimit="10" stroke-width="0.1"/>
  <g fill="none" stroke="#fff" stroke-linecap="round" stroke-linejoin="round" stroke-miterlimit="10" stroke-width="6">
    <path d="M59.04 60.166H12.96a.96.96 0 01-.96-.96v-46.08c0-.53.43-.96.96-.96h46.08c.53 0 .96.43.96.96v46.08c0 .53-.43.96-.96.96z"/>
    <path d="M42.837 35.575l2.481-2.521 8.66-8.811-6.679-6.796-8.666 8.816-2.358 2.397-.305.306L24.71 17.51l-6.68 6.796 11.066 11.258.193.195-2.649 2.691-9.407 9.57 6.68 6.796 9.409-9.572 2.419-2.458.226-.232 12.122 12.332 6.68-6.796L42.65 35.762z"/>
  </g>
  <path fill="#B1CC33" d="M59.04 60.166H12.96a.96.96 0 01-.96-.96v-46.08c0-.53.43-.96.96-.96h46.08c.53 0 .96.43.96.96v46.08c0 .53-.43.96-.96.96z"/>
  <path fill="#D0CFCE" d="M42.837 35.575l2.481-2.521 8.66-8.811-6.679-6.796-8.666 8.816-2.358 2.397-.305.306L24.71 17.51l-6.68 6.796 11.066 11.258.193.195-2.649 2.691-9.407 9.57 6.68 6.796 9.409-9.572 2.419-2.458.226-.232 12.122 12.332 6.68-6.796L42.65 35.762z"/>
  <g fill="none" stroke="#000" stroke-linecap="round" stroke-linejoin="round" stroke-miterlimit="10" stroke-width="2">
    <path d="M59.04 60.166H12.96a.96.96 0 01-.96-.96v-46.08c0-.53.43-.96.96-.96h46.08c.53 0 .96.43.96.96v46.08c0 .53-.43.96-.96.96z"/>
    <path d="M42.837 35.575l2.481-2.521 8.66-8.811-6.679-6.796-8.666 8.816-2.358 2.397-.305.306L24.71 17.51l-6.68 6.796 11.066 11.258.193.195-2.649 2.691-9.407 9.57 6.68 6.796 9.409-9.572 2.419-2.458.226-.232 12.122 12.332 6.68-6.796L42.65 35.762z"/>
  </g>
</svg>
