<svg viewBox="0 0 72 72" xmlns="http://www.w3.org/2000/svg">
  <path fill="#b3b3b3" d="M68 4v64H4V4h64m4-4H0v72h72V0z"/>
  <path fill="none" stroke="#00a5ff" stroke-miterlimit="10" stroke-width="0.1" d="M12.923 10.958h46.154A1.923 1.923 0 0161 12.881v46.154a1.923 1.923 0 01-1.923 1.923H12.923A1.923 1.923 0 0111 59.035V12.881a1.923 1.923 0 011.923-1.923z"/>
  <rect x="16" y="4" rx="2.254" width="40" height="64" fill="none" stroke="#00a5ff" stroke-miterlimit="10" stroke-width="0.1"/>
  <rect x="16" y="4" rx="2.254" width="40" height="64" transform="rotate(90 36 36)" fill="none" stroke="#00a5ff" stroke-miterlimit="10" stroke-width="0.1"/>
  <circle cx="36" cy="36" r="29" fill="none" stroke="#00a5ff" stroke-miterlimit="10" stroke-width="0.1"/>
  <path fill="none" stroke="#fff" stroke-linecap="round" stroke-linejoin="round" stroke-miterlimit="10" stroke-width="6" d="M35 7.577a2.001 2.001 0 012 0l23.115 13.346c.619.357 1 1.017 1 1.732v26.69c0 .715-.381 1.375-1 1.732L37 64.423a2.001 2.001 0 01-2 0L11.885 51.077a1.999 1.999 0 01-1-1.732v-26.69c0-.715.381-1.375 1-1.732L35 7.577z"/>
  <path stroke="#000" stroke-width="2" d="M35 7.577a2.001 2.001 0 012 0l23.115 13.346c.619.357 1 1.017 1 1.732v26.69c0 .715-.381 1.375-1 1.732L37 64.423a2.001 2.001 0 01-2 0L11.885 51.077a1.999 1.999 0 01-1-1.732v-26.69c0-.715.381-1.375 1-1.732L35 7.577z"/>
</svg>
