<svg viewBox="0 0 72 72" xmlns="http://www.w3.org/2000/svg">
  <path fill="#b3b3b3" d="M68 4v64H4V4h64m4-4H0v72h72V0z"/>
  <path fill="none" stroke="#00a5ff" stroke-miterlimit="10" stroke-width="0.1" d="M12.923 10.958h46.154A1.923 1.923 0 0161 12.881v46.154a1.923 1.923 0 01-1.923 1.923H12.923A1.923 1.923 0 0111 59.035V12.881a1.923 1.923 0 011.923-1.923z"/>
  <rect x="16" y="4" rx="2.254" width="40" height="64" fill="none" stroke="#00a5ff" stroke-miterlimit="10" stroke-width="0.1"/>
  <rect x="16" y="4" rx="2.254" width="40" height="64" transform="rotate(90 36 36)" fill="none" stroke="#00a5ff" stroke-miterlimit="10" stroke-width="0.1"/>
  <circle cx="36" cy="36" r="29" fill="none" stroke="#00a5ff" stroke-miterlimit="10" stroke-width="0.1"/>
  <path fill="none" stroke="#fff" stroke-linecap="round" stroke-linejoin="round" stroke-miterlimit="10" stroke-width="6" d="M16 37.166c1 3 2.239 5 5 5 2.75 0 3.99-1.983 4.987-4.961l.013-.039.017-.051c1.797-5.372 4.028-8.949 8.983-8.949 4.97 0 7.2 3.6 9 9l.038.114c1.12 2.906 2.236 4.886 4.962 4.886 2.761 0 4-2 5-5h0l.02-.062.024-.069c1.792-5.327 4.026-8.869 8.956-8.869v5.001c-2.634.33-4.275 1.825-5 4l-.081.241c-1.786 5.265-4.023 8.758-8.919 8.758-4.946 0-7.178-3.565-8.973-8.92l-.115-.34c-.946-2.855-2.231-4.74-4.912-4.74-2.761 0-4 2-5 5l-.06.179c-1.79 5.3-4.024 8.821-8.94 8.821-4.97 0-7.2-3.6-9-9l-.03-.089c-.74-2.126-2.372-3.584-4.97-3.91v-5.001c4.97 0 7.2 3.6 9 9"/>
  <path fill="#3F3F3F" d="M16 37.166c1 3 2.239 5 5 5 2.75 0 3.99-1.983 4.987-4.961l.013-.039.017-.051c1.797-5.372 4.028-8.949 8.983-8.949 4.97 0 7.2 3.6 9 9l.038.114c1.12 2.906 2.236 4.886 4.962 4.886 2.761 0 4-2 5-5l.02-.062.024-.069c1.792-5.327 4.026-8.869 8.956-8.869v5.001c-2.634.33-4.275 1.825-5 4l-.081.241c-1.786 5.265-4.023 8.758-8.919 8.758-4.946 0-7.178-3.565-8.973-8.92l-.115-.34c-.946-2.855-2.231-4.74-4.912-4.74-2.761 0-4 2-5 5l-.06.179c-1.79 5.3-4.024 8.821-8.94 8.821-4.97 0-7.2-3.6-9-9l-.03-.089c-.74-2.126-2.372-3.584-4.97-3.91v-5.001c4.97 0 7.2 3.6 9 9"/>
  <path fill="none" stroke="#000" stroke-linecap="round" stroke-linejoin="round" stroke-width="2" d="M16 37.166c1 3 2.239 5 5 5 2.75 0 3.99-1.983 4.987-4.961l.013-.039.017-.051c1.797-5.372 4.028-8.949 8.983-8.949 4.97 0 7.2 3.6 9 9l.038.114c1.12 2.906 2.236 4.886 4.962 4.886 2.761 0 4-2 5-5h0l.02-.062.024-.069c1.792-5.327 4.026-8.869 8.956-8.869v5.001c-2.634.33-4.275 1.825-5 4l-.081.241c-1.786 5.265-4.023 8.758-8.919 8.758-4.946 0-7.178-3.565-8.973-8.92l-.115-.34c-.946-2.855-2.231-4.74-4.912-4.74-2.761 0-4 2-5 5l-.06.179c-1.79 5.3-4.024 8.821-8.94 8.821-4.97 0-7.2-3.6-9-9l-.03-.089c-.74-2.126-2.372-3.584-4.97-3.91v-5.001c4.97 0 7.2 3.6 9 9"/>
</svg>
