<svg viewBox="0 0 72 72" xmlns="http://www.w3.org/2000/svg">
  <path fill="#b3b3b3" d="M68 4v64H4V4h64m4-4H0v72h72V0z"/>
  <path fill="none" stroke="#00a5ff" stroke-miterlimit="10" stroke-width="0.1" d="M12.923 10.958h46.154A1.923 1.923 0 0161 12.881v46.154a1.923 1.923 0 01-1.923 1.923H12.923A1.923 1.923 0 0111 59.035V12.881a1.923 1.923 0 011.923-1.923z"/>
  <rect x="16" y="4" rx="2.254" ry="2.254" width="40" height="64" fill="none" stroke="#00a5ff" stroke-miterlimit="10" stroke-width="0.1"/>
  <rect x="16" y="4" rx="2.254" ry="2.254" width="40" height="64" transform="rotate(90 36 36)" fill="none" stroke="#00a5ff" stroke-miterlimit="10" stroke-width="0.1"/>
  <circle cx="36" cy="36" r="29" fill="none" stroke="#00a5ff" stroke-miterlimit="10" stroke-width="0.1"/>
  <g fill="none" stroke="#fff" stroke-linecap="round" stroke-linejoin="round" stroke-miterlimit="10" stroke-width="6">
    <path d="M45.366 37.468v16.555a.919.919 0 01-.973.973h-26.38a.975.975 0 01-.972-.973V15.117a.975.975 0 01.973-.973h13.558"/>
    <circle cx="31.203" cy="59.252" r="1.945"/>
    <path d="M33.334 11.226H26.34m21.885 25.635v23.38a3.69 3.69 0 01-3.68 3.68H17.862a3.69 3.69 0 01-3.68-3.68V11.659a3.69 3.69 0 013.68-3.68H36.97m9.922 18.36v-5.745h-2.903m5.663 5.745h-5.729"/>
    <circle cx="46.589" cy="15.602" r="1.909"/>
    <path d="M46.285 7.675A13.026 13.026 0 0037.256 30.1l-2.604 8.36 7.077-5.548a13.03 13.03 0 104.556-25.236z"/>
  </g>
  <rect x="14.182" y="7.979" rx="3.68" ry="3.68" width="34.043" height="55.942" fill="#9b9b9a"/>
  <path fill="#3f3f3f" d="M44.393 54.996h-26.38a.975.975 0 01-.972-.973V15.117a.975.975 0 01.973-.973h26.379a.975.975 0 01.973.973v38.906a.919.919 0 01-.973.973z"/>
  <path fill="#fcea2b" d="M46.285 7.675a13.032 13.032 0 00-9.263 22.203l-2.673 8.581 7.173-5.624a13.032 13.032 0 104.763-25.16z"/>
  <g>
    <path fill="none" stroke="#000" stroke-linecap="round" stroke-linejoin="round" stroke-width="2" d="M45.366 37.468v16.555a.919.919 0 01-.973.973h-26.38a.975.975 0 01-.972-.973V15.117a.975.975 0 01.973-.973h13.558"/>
    <circle cx="31.203" cy="59.252" r="1.945"/>
    <path fill="none" stroke="#000" stroke-linecap="round" stroke-linejoin="round" stroke-width="2" d="M33.334 11.226H26.34m21.885 25.635v23.38a3.69 3.69 0 01-3.68 3.68H17.862a3.69 3.69 0 01-3.68-3.68V11.659a3.69 3.69 0 013.68-3.68H36.97"/>
    <path fill="none" stroke="#000" stroke-linecap="round" stroke-linejoin="round" stroke-width="2.5" d="M46.892 26.339v-5.745h-2.903m5.663 5.745h-5.729"/>
    <circle cx="46.589" cy="15.602" r="1.909"/>
    <path fill="none" stroke="#000" stroke-linecap="round" stroke-linejoin="round" stroke-width="2" d="M46.285 7.675A13.026 13.026 0 0037.256 30.1l-2.604 8.36 7.077-5.548a13.03 13.03 0 104.556-25.236z"/>
  </g>
</svg>
