<svg viewBox="0 0 72 72" xmlns="http://www.w3.org/2000/svg">
  <path fill="#B3B3B3" d="M68 4v64H4V4h64m4-4H0v72h72V0z"/>
  <path fill="none" stroke="#00A5FF" stroke-miterlimit="10" stroke-width="0.1" d="M12.923 10.958h46.154c1.062 0 1.923.861 1.923 1.923h0v46.154a1.923 1.923 0 01-1.923 1.923H12.923A1.923 1.923 0 0111 59.035h0V12.881c0-1.062.861-1.923 1.923-1.923h0z"/>
  <path fill="none" stroke="#00A5FF" stroke-miterlimit="10" stroke-width="0.1" d="M18.254 4h35.492A2.254 2.254 0 0156 6.254v59.492A2.254 2.254 0 0153.746 68H18.254A2.254 2.254 0 0116 65.746V6.254A2.254 2.254 0 0118.254 4z"/>
  <path fill="none" stroke="#00A5FF" stroke-miterlimit="10" stroke-width="0.1" d="M68 18.254v35.492A2.254 2.254 0 0165.746 56H6.254A2.254 2.254 0 014 53.746V18.254A2.254 2.254 0 016.254 16h59.492A2.254 2.254 0 0168 18.254z"/>
  <circle cx="36" cy="36" r="29" fill="none" stroke="#00A5FF" stroke-miterlimit="10" stroke-width="0.1"/>
  <g fill="none" stroke="#fff" stroke-linecap="round" stroke-linejoin="round" stroke-miterlimit="10" stroke-width="6">
    <path d="M33.79 23.71c4.13-1.45 7.09-5.39 7.09-10.02 0-5.87-4.75-10.63-10.62-10.63S19.64 7.82 19.64 13.69c0 4.65 2.99 8.6 7.15 10.04m28.026 27.044c0 9.089-7.367 16.456-16.456 16.456s-16.455-7.367-16.455-16.456m32.911-.873v-12m-6.992-.294a3.5 3.5 0 116.994.294m-13.991-.527a3.5 3.5 0 116.994.294m-6.99-.428a3.5 3.5 0 116.978.562m-14.019-.906a3.5 3.5 0 016.985.448M16.836 39.12a3.5 3.5 0 115.035-4.863m4.919-19.733a3.5 3.5 0 117 0m-.001 22.335V14.524m-6.999 0v27.791m-2.961-5.844l-1.958-2.214m-3.268 7.183c1.953 2.143 3.374 5.167 3.302 9.521M16.836 39.12l1.821 2.38"/>
    <path d="M54.831 50.76c0 9.087-7.367 16.455-16.455 16.455S21.92 59.847 21.92 50.759"/>
  </g>
  <path fill="#FCEA2B" d="M54.625 48.824c0 11.975-7.161 18.39-16.25 18.39-10.129-1.815-18.501-4.08-16.616-31.152"/>
  <path fill="none" d="M54.831 49.886v-12"/>
  <path fill="#FCEA2B" d="M47.84 37.592a3.5 3.5 0 116.993.294m-13.991-.526a3.5 3.5 0 116.994.293m-6.99-.428a3.5 3.5 0 116.978.562m-14.019-.907a3.5 3.5 0 016.985.449m-18.499 8.856c-5.867-7.62-6.744-10.687-5.354-12.03s5.694.784 7.037 2.175m2.831-21.821a3.5 3.5 0 117 0"/>
  <path fill="none" d="M33.805 36.844V14.509m-7 0v27.79m-2.961-5.844l-1.958-2.213"/>
  <path fill="#FCEA2B" d="M18.619 41.424c1.952 2.144 3.373 5.168 3.3 9.522"/>
  <path fill="none" d="M16.851 39.105l1.821 2.38"/>
  <path fill="#FCEA2B" d="M33.915 41.924l-7.063-1.967V14.174h6.953zm0-5.08h20.921V49.07H33.915zm-7.11 3.221l-2.656-.995.51-3.186 2.163 2.93z"/>
  <g fill="none" stroke="#000" stroke-linecap="round" stroke-linejoin="round" stroke-miterlimit="10" stroke-width="2">
    <path d="M33.79 23.71c4.13-1.45 7.09-5.39 7.09-10.02 0-5.87-4.75-10.63-10.62-10.63S19.64 7.82 19.64 13.69c0 4.65 2.99 8.6 7.15 10.04m28.026 27.044c0 9.089-7.367 16.456-16.456 16.456s-16.455-7.367-16.455-16.456m32.911-.873v-12m-6.992-.294a3.5 3.5 0 116.994.294m-13.991-.527a3.5 3.5 0 116.994.294m-6.99-.428a3.5 3.5 0 116.978.562m-14.019-.906a3.5 3.5 0 016.985.448M16.836 39.12a3.5 3.5 0 115.035-4.863m4.919-19.733a3.5 3.5 0 117 0m-.001 22.335V14.524m-6.999 0v27.791m-2.961-5.844l-1.958-2.214m-3.268 7.183c1.953 2.143 3.374 5.167 3.302 9.521M16.836 39.12l1.821 2.38"/>
    <path d="M54.831 50.76c0 9.087-7.367 16.455-16.455 16.455S21.92 59.847 21.92 50.759"/>
  </g>
</svg>
