<svg viewBox="0 0 72 72" xmlns="http://www.w3.org/2000/svg">
  <path fill="#b3b3b3" d="M68 4v64H4V4h64m4-4H0v72h72V0z"/>
  <path fill="none" stroke="#00a5ff" stroke-miterlimit="10" stroke-width="0.1" d="M12.923 10.958h46.154A1.923 1.923 0 0161 12.881v46.154a1.923 1.923 0 01-1.923 1.923H12.923A1.923 1.923 0 0111 59.035V12.881a1.923 1.923 0 011.923-1.923z"/>
  <rect x="16" y="4" rx="2.254" width="40" height="64" fill="none" stroke="#00a5ff" stroke-miterlimit="10" stroke-width="0.1"/>
  <rect x="16" y="4" rx="2.254" width="40" height="64" transform="rotate(90 36 36)" fill="none" stroke="#00a5ff" stroke-miterlimit="10" stroke-width="0.1"/>
  <circle cx="36" cy="36" r="29" fill="none" stroke="#00a5ff" stroke-miterlimit="10" stroke-width="0.1"/>
  <g fill="none" stroke="#fff" stroke-linecap="round" stroke-linejoin="round" stroke-miterlimit="10" stroke-width="6">
    <path d="M23.4 24.976A7.735 7.735 0 1133.854 14m-6.497 2.564a7.735 7.735 0 1114.693 1.99M35.899 14a7.735 7.735 0 119.225 12.031"/>
    <path d="M30.614 20.738a3.531 3.531 0 10-6.999-.095l-.257 18.998.005.951-.006-1.625c.284-1.93-.851-3.724-2.78-4.008a3.53 3.53 0 00-4.008 2.98c-.046.309-.05 1.75-.013 2.061l-.176 3.871.053 10.085c.425 8.31 7.752 13.63 16.06 13.205a19.617 19.617 0 0012.728-5.657c2.918-3.09 10.085-11.535 10.085-11.535 1.463-2.158.329-5.494-.8-4.673l-9.876 4.651-.039-5.4.039 5.4-.039-5.4.04-21.85a3.531 3.531 0 10-7-.095l-.094 7-.186 10.636.367-22.192a3.531 3.531 0 10-7-.095l-.175 20.454"/>
  </g>
  <path fill="#fcea2b" d="M30.614 20.738a3.531 3.531 0 10-6.999-.095l-.257 18.998.022 4.325.006-4.999c.284-1.93-.88-3.724-2.81-4.008a3.53 3.53 0 00-4.02 3.913l-.176 5 .053 10.084c.425 8.31 7.752 13.63 16.06 13.205a19.617 19.617 0 0012.728-5.657c2.918-3.09 10.085-11.535 10.085-11.535 1.463-2.158.329-5.494-.8-4.673l-9.876 4.651-.039-5.4.039 5.4-.039-5.4.04-21.85a3.531 3.531 0 10-7-.095l-.094 7-.186 10.636.367-22.192a3.531 3.531 0 10-7-.095l-.206 24.016"/>
  <g fill="none" stroke="#000" stroke-linecap="round" stroke-linejoin="round" stroke-width="2">
    <path stroke-miterlimit="10" d="M23.4 24.976A7.735 7.735 0 1133.854 14m-6.497 2.564a7.735 7.735 0 1114.693 1.99M35.899 14a7.735 7.735 0 119.225 12.031"/>
    <path d="M30.614 20.738a3.531 3.531 0 10-6.999-.095l-.257 18.998.005.951-.006-1.625c.284-1.93-.851-3.724-2.78-4.008a3.53 3.53 0 00-4.008 2.98c-.046.309-.05 1.75-.013 2.061l-.176 3.871.053 10.085c.425 8.31 7.752 13.63 16.06 13.205a19.617 19.617 0 0012.728-5.657c2.918-3.09 10.085-11.535 10.085-11.535 1.463-2.158.329-5.494-.8-4.673l-9.876 4.651-.039-5.4.039 5.4-.039-5.4.04-21.85a3.531 3.531 0 10-7-.095l-.094 7-.186 10.636.367-22.192a3.531 3.531 0 10-7-.095l-.175 20.454"/>
  </g>
</svg>
