<svg viewBox="0 0 72 72" xmlns="http://www.w3.org/2000/svg">
  <path fill="#b3b3b3" d="M68 4v64H4V4h64m4-4H0v72h72V0z"/>
  <path fill="none" stroke="#00a5ff" stroke-miterlimit="10" stroke-width="0.1" d="M12.92 10.96h46.15a1.923 1.923 0 011.923 1.923v46.15a1.923 1.923 0 01-1.923 1.923H12.92a1.923 1.923 0 01-1.923-1.923v-46.15a1.923 1.923 0 011.923-1.923z"/>
  <rect x="16" y="4" rx="2.254" width="40" height="64" fill="none" stroke="#00a5ff" stroke-miterlimit="10" stroke-width="0.1"/>
  <rect x="16" y="4" rx="2.254" width="40" height="64" transform="rotate(90 36 36)" fill="none" stroke="#00a5ff" stroke-miterlimit="10" stroke-width="0.1"/>
  <circle cx="36" cy="36" r="29" fill="none" stroke="#00a5ff" stroke-miterlimit="10" stroke-width="0.1"/>
  <g fill="none" stroke="#fff" stroke-linecap="round" stroke-linejoin="round" stroke-miterlimit="10" stroke-width="6">
    <rect x="26" y="18.5" rx="1" ry="1" width="20" height="3"/>
    <path d="M38 54.01v5.986h6.986M27 54.01v5.986h6.986M38 44v6h7m-18-5.99v5.986h6.986M38 34.01v5.986h6.986M27 34.01v5.986h6.986M38 24.01v5.986h6.986M27 24.01v5.986h6.986"/>
    <rect x="23" y="16" rx="1" width="26" height="48"/>
    <path d="M34 12V9.6c0-.884.895-1.6 2-1.6s2 .716 2 1.6V12m-13 4v-3a1 1 0 011-1h19a1 1 0 011 1v3"/>
  </g>
  <rect x="25" y="12" rx="1" width="21" height="5" fill="#1e50a0"/>
  <rect x="23" y="16" rx="1" width="26" height="48" fill="#1e50a0"/>
  <path fill="#fff" fill-rule="evenodd" d="M38 9.6c0-.884-.895-1.6-2-1.6s-2 .716-2 1.6V12h4z" clip-rule="evenodd"/>
  <rect x="37" y="53" rx="1.125" ry="1.143" width="9" height="8" fill="#3f3f3f" fill-opacity="0.502"/>
  <rect x="26" y="53" rx="1.125" ry="1.143" width="9" height="8" fill="#3f3f3f" fill-opacity="0.502"/>
  <rect x="37" y="43" rx="1.125" ry="1.143" width="9" height="8" fill="#3f3f3f" fill-opacity="0.502"/>
  <rect x="26" y="43" rx="1.125" ry="1.143" width="9" height="8" fill="#3f3f3f" fill-opacity="0.502"/>
  <rect x="37" y="33" rx="1.125" ry="1.143" width="9" height="8" fill="#3f3f3f" fill-opacity="0.502"/>
  <rect x="26" y="33" rx="1.125" ry="1.143" width="9" height="8" fill="#3f3f3f" fill-opacity="0.502"/>
  <rect x="37" y="23" rx="1.125" ry="1.143" width="9" height="8" fill="#fff"/>
  <rect x="26" y="23" rx="1.125" ry="1.143" width="9" height="8" fill="#fff"/>
  <g>
    <rect x="26" y="18.5" rx="1" ry="1" width="20" height="3"/>
    <path fill="none" stroke="#000" stroke-linecap="round" stroke-linejoin="round" stroke-width="2" d="M38 54.01v5.986h6.986M27 54.01v5.986h6.986M38 44v6h7m-18-5.99v5.986h6.986M38 34.01v5.986h6.986M27 34.01v5.986h6.986M38 24.01v5.986h6.986M27 24.01v5.986h6.986"/>
    <rect x="23" y="16" rx="1" width="26" height="48" fill="none" stroke="#000" stroke-width="2"/>
    <path fill="none" stroke="#000" stroke-width="2" d="M34 12V9.6c0-.884.895-1.6 2-1.6s2 .716 2 1.6V12m-13 4v-3a1 1 0 011-1h19a1 1 0 011 1v3"/>
  </g>
</svg>
