<svg viewBox="0 0 72 72" xmlns="http://www.w3.org/2000/svg">
  <path fill="#B3B3B3" d="M68 4v64H4V4h64zm4-4H0v72h72V0z"/>
  <path fill="none" stroke="#00A5FF" stroke-miterlimit="10" stroke-width="0.1" d="M12.923 10.958h46.154A1.923 1.923 0 0161 12.881v46.154a1.923 1.923 0 01-1.923 1.923H12.923A1.923 1.923 0 0111 59.035V12.881a1.923 1.923 0 011.923-1.923v0z"/>
  <path fill="none" stroke="#00A5FF" stroke-miterlimit="10" stroke-width="0.1" d="M53.746 4H18.254A2.254 2.254 0 0016 6.254v59.492A2.254 2.254 0 0018.254 68h35.492A2.254 2.254 0 0056 65.746V6.254A2.254 2.254 0 0053.746 4z"/>
  <path fill="none" stroke="#00A5FF" stroke-miterlimit="10" stroke-width="0.1" d="M68 53.746V18.254A2.254 2.254 0 0065.746 16H6.254A2.254 2.254 0 004 18.254v35.492A2.254 2.254 0 006.254 56h59.492A2.254 2.254 0 0068 53.746z"/>
  <path fill="none" stroke="#00A5FF" stroke-miterlimit="10" stroke-width="0.1" d="M36 65c16.016 0 29-12.984 29-29S52.016 7 36 7 7 19.984 7 36s12.984 29 29 29z"/>
  <g fill="none" stroke="#fff" stroke-linecap="round" stroke-linejoin="round" stroke-miterlimit="10" stroke-width="6">
    <path d="M22 15a3 3 0 013-3h22a3 3 0 013 3v41a4 4 0 01-4 4H26a4 4 0 01-4-4V21.5L17.5 18l4.5-2.5V15z" clip-rule="evenodd"/>
    <path d="M50 50h-1v1h1v-1zm0-4v-1h-1v1h1zm0-24v-1h-1v1h1zm0 4h-1v1h1v-1zm1 24v-4h-2v4h2zm12-14c0 7.18-5.82 13-13 13v2c8.284 0 15-6.716 15-15h-2zM50 23c7.18 0 13 5.82 13 13h2c0-8.284-6.716-15-15-15v2zm1 3v-4h-2v4h2zm-1 1a9 9 0 019 9h2c0-6.075-4.925-11-11-11v2zm9 9a9 9 0 01-9 9v2c6.075 0 11-4.925 11-11h-2zM22 15.5h25M32.337 10a3.5 3.5 0 116.326 0M34 16v8m3-8v10m-14-4h8m9 0h10"/>
  </g>
  <path fill="#A57939" fill-rule="evenodd" d="M50 21v35a4 4 0 01-4 4H26a4 4 0 01-4-4V21h28z" clip-rule="evenodd"/>
  <path fill="#3F3F3F" d="M35.5 5a3.5 3.5 0 00-3.163 5h6.326A3.5 3.5 0 0035.5 5z"/>
  <path fill="#9B9B9A" d="M34 15.5h3V26l-3-2v-8.5z"/>
  <path fill="#3F3F3F" fill-rule="evenodd" d="M50 16.5V15a3 3 0 00-3-3H25a3 3 0 00-3 3v1.5h28z" clip-rule="evenodd"/>
  <path fill="#6A462F" fill-rule="evenodd" d="M50 56H22a4 4 0 004 4h20a4 4 0 004-4z" clip-rule="evenodd"/>
  <path fill="#3F3F3F" fill-rule="evenodd" d="M50 46v4c7.732 0 14-6.268 14-14s-6.268-14-14-14v4c5.523 0 10 4.477 10 10s-4.477 10-10 10z" clip-rule="evenodd"/>
  <path fill="none" stroke="#3F3F3F" stroke-linecap="round" stroke-width="2" d="M35.5 5a3.5 3.5 0 00-3.163 5h6.326A3.5 3.5 0 0035.5 5z"/>
  <path fill="#fff" d="M22 16h28v6H23l-5-4 4-2z"/>
  <g>
    <path fill="none" stroke="#000" stroke-linejoin="round" stroke-width="2" d="M22 15a3 3 0 013-3h22a3 3 0 013 3v41a4 4 0 01-4 4H26a4 4 0 01-4-4V21.5L17.5 18l4.5-2.5V15z" clip-rule="evenodd"/>
    <path d="M50 50h-1v1h1v-1zm0-4v-1h-1v1h1zm0-24v-1h-1v1h1zm0 4h-1v1h1v-1zm1 24v-4h-2v4h2zm12-14c0 7.18-5.82 13-13 13v2c8.284 0 15-6.716 15-15h-2zM50 23c7.18 0 13 5.82 13 13h2c0-8.284-6.716-15-15-15v2zm1 3v-4h-2v4h2zm-1 1a9 9 0 019 9h2c0-6.075-4.925-11-11-11v2zm9 9a9 9 0 01-9 9v2c6.075 0 11-4.925 11-11h-2z"/>
    <path fill="none" stroke="#000" stroke-linecap="round" stroke-width="2" d="M22 15.5h25M32.337 10a3.5 3.5 0 116.326 0M34 16v8"/>
    <path stroke="#000" stroke-linecap="round" stroke-width="2" d="M37 16v10m-14-4h8"/>
    <path fill="none" stroke="#000" stroke-linecap="round" stroke-width="2" d="M40 22h10"/>
  </g>
</svg>
