<svg viewBox="0 0 72 72" xmlns="http://www.w3.org/2000/svg">
  <path fill="#B3B3B3" d="M68 4v64H4V4h64zm4-4H0v72h72V0z"/>
  <path fill="none" stroke="#00A5FF" stroke-miterlimit="10" stroke-width="0.1" d="M12.923 10.958h46.154A1.923 1.923 0 0161 12.881v46.154a1.923 1.923 0 01-1.923 1.923H12.923A1.923 1.923 0 0111 59.035V12.881a1.923 1.923 0 011.923-1.923v0z"/>
  <path fill="none" stroke="#00A5FF" stroke-miterlimit="10" stroke-width="0.1" d="M53.746 4H18.254A2.254 2.254 0 0016 6.254v59.492A2.254 2.254 0 0018.254 68h35.492A2.254 2.254 0 0056 65.746V6.254A2.254 2.254 0 0053.746 4z"/>
  <path fill="none" stroke="#00A5FF" stroke-miterlimit="10" stroke-width="0.1" d="M68 53.746V18.254A2.254 2.254 0 0065.746 16H6.254A2.254 2.254 0 004 18.254v35.492A2.254 2.254 0 006.254 56h59.492A2.254 2.254 0 0068 53.746z"/>
  <path fill="none" stroke="#00A5FF" stroke-miterlimit="10" stroke-width="0.1" d="M36 65c16.016 0 29-12.984 29-29S52.016 7 36 7 7 19.984 7 36s12.984 29 29 29z"/>
  <g fill="none" stroke="#fff" stroke-linecap="round" stroke-linejoin="round" stroke-miterlimit="10" stroke-width="6">
    <path d="M41 53.794l11-2.588M38 21a2 2 0 012-2h13a2 2 0 012 2v37a2 2 0 01-2 2H40a2 2 0 01-2-2V21zm6-7h5v5h-5z"/>
    <path d="M44 16h-6l-15 9h-6v-3"/>
    <path d="M22 13.528C22 16.556 19.761 22 17 22s-5-5.444-5-8.472c0-3.027 2.239-2.491 5-2.491s5-.536 5 2.491zM39 41h13"/>
  </g>
  <path fill="#fff" d="M38 54V41h17v9l-17 4z"/>
  <path fill="#A57939" d="M38 19h17v23H38V19z"/>
  <g fill="#6A462F">
    <path fill-rule="evenodd" d="M38 54.5V58a2 2 0 002 2h13a2 2 0 002-2v-7.5l-17 4z" clip-rule="evenodd"/>
    <path d="M38 54.5l-.229-.973A1 1 0 0037 54.5h1zm17-4h1a1 1 0 00-1.229-.973L55 50.5zM39 58v-3.5h-2V58h2zm1 1a1 1 0 01-1-1h-2a3 3 0 003 3v-2zm13 0H40v2h13v-2zm1-1a1 1 0 01-1 1v2a3 3 0 003-3h-2zm0-3.5V58h2v-3.5h-2zm0-4v4h2v-4h-2zm-15.771 4.973l17-4-.458-1.946-17 4 .458 1.946z"/>
    <path d="M38 54.5l-.229-.973A1 1 0 0037 54.5h1zm17-4h1a1 1 0 00-1.229-.973L55 50.5zM39 58v-3.5h-2V58h2zm1 1a1 1 0 01-1-1h-2a3 3 0 003 3v-2zm13 0H40v2h13v-2zm1-1a1 1 0 01-1 1v2a3 3 0 003-3h-2zm0-3.5V58h2v-3.5h-2zm0-4v4h2v-4h-2zm-15.771 4.973l17-4-.458-1.946-17 4 .458 1.946z"/>
  </g>
  <path fill="#A57939" d="M22 13.528C22 16.556 19.761 22 17 22s-5-5.444-5-8.472c0-3.027 2.239-2.491 5-2.491s5-.536 5 2.491z"/>
  <path fill="#d0cfce" d="M44 14h5v5h-5z"/>
  <g stroke="#000" stroke-width="2">
    <path fill="none" stroke-linecap="round" stroke-linejoin="round" d="M41 53.794l11-2.588"/>
    <path fill="none" d="M38 21a2 2 0 012-2h13a2 2 0 012 2v37a2 2 0 01-2 2H40a2 2 0 01-2-2V21z"/>
    <path fill="none" stroke-linejoin="round" d="M44 14h5v5h-5zm0 2h-6l-15 9h-6v-3"/>
    <path fill="none" d="M22 13.528C22 16.556 19.761 22 17 22s-5-5.444-5-8.472c0-3.027 2.239-2.491 5-2.491s5-.536 5 2.491z"/>
    <path stroke-linecap="round" d="M39 41h13"/>
  </g>
</svg>
