<svg viewBox="0 0 72 72" xmlns="http://www.w3.org/2000/svg">
  <path fill="#b3b3b3" d="M68 4v64H4V4h64m4-4H0v72h72V0z"/>
  <path fill="none" stroke="#00a5ff" stroke-miterlimit="10" stroke-width="0.1" d="M12.923 10.958h46.154A1.923 1.923 0 0161 12.881v46.154a1.923 1.923 0 01-1.923 1.923H12.923A1.923 1.923 0 0111 59.035V12.881a1.923 1.923 0 011.923-1.923z"/>
  <rect x="16" y="4" rx="2.254" width="40" height="64" fill="none" stroke="#00a5ff" stroke-miterlimit="10" stroke-width="0.1"/>
  <rect x="16" y="4" rx="2.254" width="40" height="64" transform="rotate(90 36 36)" fill="none" stroke="#00a5ff" stroke-miterlimit="10" stroke-width="0.1"/>
  <circle cx="36" cy="36" r="29" fill="none" stroke="#00a5ff" stroke-miterlimit="10" stroke-width="0.1"/>
  <g fill="none" stroke="#fff" stroke-linecap="round" stroke-linejoin="round" stroke-miterlimit="10" stroke-width="6">
    <path d="M11 16.001h50v39.998H11z"/>
    <path d="M16.329 16.48v4.374H11h50m-32.167 9.541l-6.927 6.927m6.927 6.995l-6.927-6.928m16.278-9.237L32.809 46.25m9.35-1.998l6.927-6.928m-6.927-6.994l6.927 6.927"/>
  </g>
  <path fill="#d0cfce" d="M11 16.083h50v39.833H11z"/>
  <g fill="none" stroke="#000" stroke-linecap="round" stroke-linejoin="round" stroke-miterlimit="10" stroke-width="2">
    <path d="M11 16.001h50v39.998H11z"/>
    <path d="M16.329 16.48v4.374H11h50m-32.167 9.541l-6.927 6.927m6.927 6.995l-6.927-6.928m16.278-9.237L32.809 46.25m9.35-1.998l6.927-6.928m-6.927-6.994l6.927 6.927"/>
  </g>
</svg>
