<svg viewBox="0 0 72 72" xmlns="http://www.w3.org/2000/svg">
  <path fill="#B3B3B3" d="M68 4v64H4V4h64m4-4H0v72h72V0z"/>
  <path fill="none" stroke="#00A5FF" stroke-miterlimit="10" stroke-width="0.1" d="M12.923 10.958h46.154c1.062 0 1.923.861 1.923 1.923h0v46.154a1.923 1.923 0 01-1.923 1.923H12.923A1.923 1.923 0 0111 59.035h0V12.881c0-1.062.861-1.923 1.923-1.923h0z"/>
  <path fill="none" stroke="#00A5FF" stroke-miterlimit="10" stroke-width="0.1" d="M18.254 4h35.492A2.254 2.254 0 0156 6.254v59.492A2.254 2.254 0 0153.746 68H18.254A2.254 2.254 0 0116 65.746V6.254A2.254 2.254 0 0118.254 4z"/>
  <path fill="none" stroke="#00A5FF" stroke-miterlimit="10" stroke-width="0.1" d="M68 18.254v35.492A2.254 2.254 0 0165.746 56H6.254A2.254 2.254 0 014 53.746V18.254A2.254 2.254 0 016.254 16h59.492A2.254 2.254 0 0168 18.254z"/>
  <circle cx="36" cy="36" r="29" fill="none" stroke="#00A5FF" stroke-miterlimit="10" stroke-width="0.1"/>
  <g fill="none" stroke="#fff" stroke-linecap="round" stroke-linejoin="round" stroke-miterlimit="10" stroke-width="6">
    <path d="M6.808 55.158L22.07 33.412l8.59 8.59 15.983-15.981L65.72 55.875H6.28z"/>
    <path d="M38 17.021h22.021A7.979 7.979 0 0168 25v24.235H4V25a7.979 7.979 0 017.979-7.979h21.938L36 21.625l2-4.604z"/>
    <path d="M8.208 24.125v-3H11m4.52 0h3v2.792m0 4.521v3h-2.79m-4.522 0h-3v-2.792"/>
    <circle cx="13.229" cy="26.146" r="2.021"/>
    <path d="M62.837 26.021H40.642m27.217 0h-5.022m5.022 3.217h-5.022m5.022 3.218h-5.022m5.022 3.217h-5.022m5.022 3.218h-5.022m5.022 3.217h-5.022m5.022 3.217h-5.022m-16.266 3.91V20.06"/>
  </g>
  <path fill="#9B9B9A" d="M6.808 55.158L22.07 33.412l8.59 8.59 15.983-15.981L65.72 55.875H6.28z"/>
  <g fill="none" stroke="#000" stroke-linecap="round" stroke-linejoin="round" stroke-miterlimit="10" stroke-width="2">
    <path d="M6.808 55.158L22.07 33.412l8.59 8.59 15.983-15.981L65.72 55.875H6.28z"/>
    <path d="M38 17.021h22.021A7.979 7.979 0 0168 25v24.235H4V25a7.979 7.979 0 017.979-7.979h21.938L36 21.625l2-4.604z"/>
    <path d="M8.208 24.125v-3H11m4.52 0h3v2.792m0 4.521v3h-2.79m-4.522 0h-3v-2.792"/>
    <circle cx="13.229" cy="26.146" r="2.021"/>
    <path d="M62.837 26.021H40.642m27.217 0h-5.022m5.022 3.217h-5.022m5.022 3.218h-5.022m5.022 3.217h-5.022m5.022 3.218h-5.022m5.022 3.217h-5.022m5.022 3.217h-5.022m-16.266 3.91V20.06"/>
  </g>
</svg>
