<svg viewBox="0 0 72 72" xmlns="http://www.w3.org/2000/svg">
  <path fill="#b3b3b3" d="M68 4v64H4V4h64m4-4H0v72h72V0z"/>
  <path fill="none" stroke="#00a5ff" stroke-miterlimit="10" stroke-width="0.1" d="M12.923 10.958h46.154A1.923 1.923 0 0161 12.881v46.154a1.923 1.923 0 01-1.923 1.923H12.923A1.923 1.923 0 0111 59.035V12.881a1.923 1.923 0 011.923-1.923z"/>
  <rect x="16" y="4" rx="2.254" width="40" height="64" fill="none" stroke="#00a5ff" stroke-miterlimit="10" stroke-width="0.1"/>
  <rect x="16" y="4" rx="2.254" width="40" height="64" transform="rotate(90 36 36)" fill="none" stroke="#00a5ff" stroke-miterlimit="10" stroke-width="0.1"/>
  <circle cx="36" cy="36" r="29" fill="none" stroke="#00a5ff" stroke-miterlimit="10" stroke-width="0.1"/>
  <g fill="none" stroke="#fff" stroke-linecap="round" stroke-linejoin="round" stroke-miterlimit="10" stroke-width="6">
    <path d="M15 17l4 14-1 16 30-5-2-24zm4 14l27-13m2 24L19 31m27-13l10 24m-2 9H20v-4"/>
    <path d="M46 18l13 4-3 20-5 5-3-5-2-24zm0 0l10 24"/>
  </g>
  <path fill="#9b9b9a" d="M20 40h35v11H20z"/>
  <path fill="#fcea2b" d="M46 18l13 4-3 20-5 5-3-5-2-24z"/>
  <path fill="#fcea2b" d="M15 17l4 14-1 16 30-5-2-24z"/>
  <g fill="none" stroke="#000" stroke-linecap="round" stroke-linejoin="round" stroke-width="2">
    <path d="M15 17l4 14-1 16 30-5-2-24zm4 14l27-13m2 24L19 31m27-13l10 24m-2 9H20v-4"/>
    <path d="M46 18l13 4-3 20-5 5-3-5-2-24zm0 0l10 24"/>
  </g>
</svg>
