<svg viewBox="0 0 72 72" xmlns="http://www.w3.org/2000/svg">
  <path fill="#b3b3b3" d="M68 4v64H4V4h64m4-4H0v72h72V0z"/>
  <path fill="none" stroke="#00a5ff" stroke-miterlimit="10" stroke-width="0.1" d="M12.923 10.958h46.154A1.923 1.923 0 0161 12.881v46.154a1.923 1.923 0 01-1.923 1.923H12.923A1.923 1.923 0 0111 59.035V12.881a1.923 1.923 0 011.923-1.923z"/>
  <rect x="16" y="4" rx="2.254" ry="2.254" width="40" height="64" fill="none" stroke="#00a5ff" stroke-miterlimit="10" stroke-width="0.1"/>
  <rect x="16" y="4" rx="2.254" ry="2.254" width="40" height="64" transform="rotate(90 36 36)" fill="none" stroke="#00a5ff" stroke-miterlimit="10" stroke-width="0.1"/>
  <circle cx="36" cy="36" r="29" fill="none" stroke="#00a5ff" stroke-miterlimit="10" stroke-width="0.1"/>
  <g fill="none" stroke="#fff" stroke-linecap="round" stroke-linejoin="round" stroke-miterlimit="10" stroke-width="6">
    <rect x="32.66" y="15.16" rx="0.887" ry="0.887" width="6.858" height="4.837"/>
    <path d="M37.489 32.657H34.22l-1.34 29.861h5.806l-1.197-29.861zm-7.554-13.514a16.383 16.383 0 0011.766 0s.051.025.118.061a24.71 24.71 0 01-1.013 11.227 4.895 4.895 0 01-1.12 1.629c-.052-.022.042 0 .042 0"/>
    <path d="M41.801 19.143a16.383 16.383 0 01-11.766 0l-.118.061a24.712 24.712 0 001.013 11.227 4.898 4.898 0 001.121 1.629c.051-.022-.043 0-.043 0m9.376-4.525s-6.01 2.786-10.855 0m9.165 4.568a12.729 12.729 0 01-7.707-.064m10.026-8.896s-6.186 2.66-12.1-.133m7.718-15.263V5.818c0-.629-.706-1.137-1.58-1.137s-1.58.508-1.58 1.137v11.886h3.163V7.747zM5.135 62.528h61.962v4.5H5.135z"/>
    <ellipse cx="35.832" cy="18.92" rx="6.777" ry="1.704"/>
  </g>
  <path fill="#d0cfce" d="M37.489 32.657H34.22l-1.34 29.861h5.806l-1.197-29.861z"/>
  <path fill="#b1cc33" d="M6.076 63.44h30.041v2.587H6.076z"/>
  <path fill="#5c9e31" d="M35.844 63.452h30.267v2.587H35.844z"/>
  <path fill="#d0cfce" d="M30.082 19.143a38.395 38.395 0 016.043-.944h.015a24.333 24.333 0 015.416.944 1.26 1.26 0 01.173.065 17.6 17.6 0 01-1.44 11.133c-.266.51-.517.911-.705 1.204a28.72 28.72 0 00-3.679.098h-.031a28.119 28.119 0 00-2.959.402 1.156 1.156 0 01-.641-.434l-.048-.065c-1.017-1.52-3.271-5.773-2.144-12.403z"/>
  <path fill="#9b9b9a" d="M35.853 18.832v43.07h3.112l-1.333-29.256 2.062-1.112 2.018-2.005.457-4.93-.534-5.468s-6.057-.3-5.782-.3z"/>
  <path fill="#d22f27" d="M35.868 8.588c-.804 0-1.455-.448-1.455-1V5.75c0-.553.651-1 1.456-1s1.454.447 1.454 1v1.837c0 .552-.65 1-1.455 1z"/>
  <path fill="#d0cfce" d="M34.413 7.447h2.913v2.048h-2.913zm0 4.012h2.913v2.048h-2.913z"/>
  <path fill="#d22f27" d="M34.413 13.447h2.913v2.048h-2.913zm0-4.012h2.913v2.048h-2.913z"/>
  <g>
    <rect x="32.66" y="15.16" rx="0.887" ry="0.887" width="6.858" height="4.837"/>
    <path fill="none" stroke="#000" stroke-linecap="round" stroke-linejoin="round" stroke-width="2" d="M37.489 32.657H34.22l-1.34 29.861h5.806l-1.197-29.861zm-7.554-13.514a16.383 16.383 0 0011.766 0s.051.025.118.061a24.71 24.71 0 01-1.013 11.227 4.895 4.895 0 01-1.12 1.629c-.052-.022.042 0 .042 0"/>
    <path fill="none" stroke="#000" stroke-linecap="round" stroke-linejoin="round" stroke-width="2" d="M41.801 19.143a16.383 16.383 0 01-11.766 0l-.118.061a24.712 24.712 0 001.013 11.227 4.898 4.898 0 001.121 1.629c.051-.022-.043 0-.043 0m9.376-4.525s-6.01 2.786-10.855 0m9.165 4.568a12.729 12.729 0 01-7.707-.064m10.026-8.896s-6.186 2.66-12.1-.133"/>
    <path fill="none" stroke="#000" stroke-miterlimit="10" stroke-width="1.6" d="M37.631 7.747V5.818c0-.629-.706-1.137-1.58-1.137s-1.58.508-1.58 1.137v11.886h3.163V7.747z"/>
    <path fill="none" stroke="#000" stroke-linecap="round" stroke-linejoin="round" stroke-width="2" d="M5.135 62.528h61.962v4.5H5.135z"/>
    <ellipse cx="35.832" cy="18.92" rx="6.777" ry="1.704"/>
  </g>
</svg>
