<svg viewBox="0 0 72 72" xmlns="http://www.w3.org/2000/svg">
  <path fill="#B3B3B3" d="M68 4v64H4V4h64m4-4H0v72h72V0z"/>
  <path fill="none" stroke="#00A5FF" stroke-miterlimit="10" stroke-width="0.1" d="M12.923 10.958h46.154c1.062 0 1.923.861 1.923 1.923v46.154a1.923 1.923 0 01-1.923 1.923H12.923A1.923 1.923 0 0111 59.035h0V12.881c0-1.062.861-1.923 1.923-1.923h0z"/>
  <path fill="none" stroke="#00A5FF" stroke-miterlimit="10" stroke-width="0.1" d="M18.254 4h35.492A2.254 2.254 0 0156 6.254v59.492A2.254 2.254 0 0153.746 68H18.254A2.254 2.254 0 0116 65.746V6.254A2.254 2.254 0 0118.254 4z"/>
  <path fill="none" stroke="#00A5FF" stroke-miterlimit="10" stroke-width="0.1" d="M68 18.254v35.492A2.254 2.254 0 0165.746 56H6.254A2.254 2.254 0 014 53.746V18.254A2.254 2.254 0 016.254 16h59.492A2.254 2.254 0 0168 18.254z"/>
  <circle cx="36" cy="36" r="29" fill="none" stroke="#00A5FF" stroke-miterlimit="10" stroke-width="0.1"/>
  <g fill="none" stroke="#fff" stroke-linecap="round" stroke-linejoin="round" stroke-miterlimit="10" stroke-width="6">
    <circle cx="13.02" cy="20.122" r="3"/>
    <path d="M7.02 33.122s1-4.31 3-5.31 4-1 6 0 3 5.31 3 5.31"/>
    <circle cx="59.08" cy="42.036" r="3"/>
    <path d="M53.08 55.036s1-4.31 3-5.31 4-1 6 0 3 5.31 3 5.31m-49.03-.09a3.008 3.008 0 01-3.008-3.009v-8.862l-.002-3.407c0-.211.247-.326.408-.19l3.78 3.3a.752.752 0 00.484.177h23.28A3.008 3.008 0 0144 45.963v5.974a3.008 3.008 0 01-3.008 3.008H16.05h0zm42.597-22.478a.25.25 0 00.41-.191v-3.229h0v-9.03a3.024 3.024 0 00-3.024-3.024H31.122a3.024 3.024 0 00-3.024 3.024v6.006a3.024 3.024 0 003.024 3.024h23.33c.178 0 .35.063.487.178l3.708 3.242z"/>
  </g>
  <path fill="#9B9B9A" d="M16.05 54.946a3.008 3.008 0 01-3.008-3.009v-8.862l-.002-3.407c0-.211.247-.326.408-.19l3.78 3.3a.752.752 0 00.484.177h23.28A3.008 3.008 0 0144 45.963v5.974a3.008 3.008 0 01-3.008 3.008H16.05z"/>
  <path fill="#D0CFCE" d="M58.647 32.468a.25.25 0 00.41-.191V20.018a3.024 3.024 0 00-3.024-3.024H31.122a3.024 3.024 0 00-3.024 3.024v6.006a3.024 3.024 0 003.024 3.024h23.33c.178 0 .35.063.487.178l3.708 3.242z"/>
  <g fill="#FCEA2B">
    <circle cx="13.02" cy="20.122" r="3"/>
    <circle cx="59.08" cy="42.036" r="3"/>
    <path d="M7.456 30.226l3.082-2.714 4.834-.198 2.968 2.828.685 3.98-12.081-.008zM53.58 52.143l3.081-2.714 4.834-.198 2.969 2.827.684 3.98-12.081-.008z"/>
  </g>
  <g fill="none" stroke="#000" stroke-miterlimit="10" stroke-width="2">
    <circle cx="13.02" cy="20.122" r="3"/>
    <path stroke-linecap="round" stroke-linejoin="round" d="M7.02 33.122s1-4.31 3-5.31 4-1 6 0 3 5.31 3 5.31"/>
    <circle cx="59.08" cy="42.036" r="3"/>
    <path stroke-linecap="round" stroke-linejoin="round" d="M53.08 55.036s1-4.31 3-5.31 4-1 6 0 3 5.31 3 5.31"/>
    <path d="M16.05 54.946a3.008 3.008 0 01-3.008-3.009v-8.862l-.002-3.407c0-.211.247-.326.408-.19l3.78 3.3a.752.752 0 00.484.177h23.28A3.008 3.008 0 0144 45.963v5.974a3.008 3.008 0 01-3.008 3.008H16.05h0zm42.597-22.478a.25.25 0 00.41-.191v-3.229h0v-9.03a3.024 3.024 0 00-3.024-3.024H31.122a3.024 3.024 0 00-3.024 3.024v6.006a3.024 3.024 0 003.024 3.024h23.33c.178 0 .35.063.487.178l3.708 3.242z"/>
  </g>
</svg>
