<svg viewBox="0 0 72 72" xmlns="http://www.w3.org/2000/svg">
  <path fill="#B3B3B3" d="M68 4v64H4V4h64m4-4H0v72h72V0z"/>
  <path fill="none" stroke="#00A5FF" stroke-miterlimit="10" stroke-width="0.1" d="M12.923 10.958h46.154c1.062 0 1.923.861 1.923 1.923h0v46.154a1.923 1.923 0 01-1.923 1.923H12.923A1.923 1.923 0 0111 59.035h0V12.881c0-1.062.861-1.923 1.923-1.923h0z"/>
  <path fill="none" stroke="#00A5FF" stroke-miterlimit="10" stroke-width="0.1" d="M18.254 4h35.492A2.254 2.254 0 0156 6.254v59.492A2.254 2.254 0 0153.746 68H18.254A2.254 2.254 0 0116 65.746V6.254A2.254 2.254 0 0118.254 4z"/>
  <path fill="none" stroke="#00A5FF" stroke-miterlimit="10" stroke-width="0.1" d="M68 18.254v35.492A2.254 2.254 0 0165.746 56H6.254A2.254 2.254 0 014 53.746V18.254A2.254 2.254 0 016.254 16h59.492A2.254 2.254 0 0168 18.254z"/>
  <circle cx="36" cy="36" r="29" fill="none" stroke="#00A5FF" stroke-miterlimit="10" stroke-width="0.1"/>
  <g fill="none" stroke="#fff" stroke-linecap="round" stroke-linejoin="round" stroke-miterlimit="10" stroke-width="6">
    <path d="M18.613 6.683c0-.673.373-1.219.834-1.219h35.897c.46 0 .834.546.834 1.219v52.466c0 .672-.373 1.218-.834 1.218"/>
    <path d="M51.18 66.452H15.284c-.46 0-.834-.545-.834-1.218V12.768c0-.673.374-1.218.834-1.218H51.18c.46 0 .833.545.833 1.218v52.466c0 .673-.373 1.218-.834 1.218zM12.356 20.501h7.272m-7.272 7.363h7.272M11 35.319h7.272m0 7.364H11m0 7.363h7.272M11 57.41h7.272"/>
    <path d="M42.818 45.637s0-.743-.371-2.23c-.45-1.8-1.487-2.972-3.716-2.972h-8.174c-2.229 0-3.265 1.172-3.715 2.973-.372 1.486-.372 2.229-.372 2.229m4.459-12.633c0 1.384.2 2.902.743 3.716.691 1.038 1.864 1.486 2.972 1.486 1.15 0 2.28-.449 2.972-1.486.543-.814.744-2.332.744-3.716 0-1.038-.372-4.458-3.716-4.458s-3.715 2.729-3.715 4.458z"/>
  </g>
  <path fill="#FCEA2B" d="M55.326 61.67c.47 0 .852-.559.852-1.247V6.71c0-.688-.381-1.247-.852-1.247H18.662c-.47 0-.852.559-.852 1.248V39.81l30.103 21.86h7.413z"/>
  <path fill="#FCEA2B" d="M55.344 60.367c.46 0 .834-.546.834-1.218V6.683c0-.673-.373-1.219-.834-1.219H19.446c-.46 0-.833.546-.833 1.219v53.684h36.731z"/>
  <path fill="#FCEA2B" d="M18.613 6.683c0-.673.373-1.219.834-1.219h35.897c.46 0 .834.546.834 1.219v52.466c0 .672-.373 1.218-.834 1.218"/>
  <path fill="#F1B31C" d="M51.18 66.452H15.284c-.46 0-.834-.545-.834-1.218V12.768c0-.673.374-1.218.834-1.218H51.18c.46 0 .833.545.833 1.218v52.466c0 .673-.373 1.218-.834 1.218z"/>
  <g fill="none" stroke="#000" stroke-linejoin="round" stroke-width="2">
    <path stroke-linecap="round" stroke-miterlimit="10" d="M18.613 6.683c0-.673.373-1.219.834-1.219h35.897c.46 0 .834.546.834 1.219v52.466c0 .672-.373 1.218-.834 1.218"/>
    <path stroke-linecap="round" stroke-miterlimit="10" d="M51.18 66.452H15.284c-.46 0-.834-.545-.834-1.218V12.768c0-.673.374-1.218.834-1.218H51.18c.46 0 .833.545.833 1.218v52.466c0 .673-.373 1.218-.834 1.218zM12.356 20.501h7.272m-7.272 7.363h7.272M11 35.319h7.272m0 7.364H11m0 7.363h7.272M11 57.41h7.272"/>
    <path stroke-linecap="round" d="M42.818 45.637s0-.743-.371-2.23c-.45-1.8-1.487-2.972-3.716-2.972h-8.174c-2.229 0-3.265 1.172-3.715 2.973-.372 1.486-.372 2.229-.372 2.229"/>
    <path d="M30.929 33.004c0 1.384.2 2.902.743 3.716.691 1.038 1.864 1.486 2.972 1.486 1.15 0 2.28-.449 2.972-1.486.543-.814.744-2.332.744-3.716 0-1.038-.372-4.458-3.716-4.458s-3.715 2.729-3.715 4.458z"/>
  </g>
</svg>
