<svg viewBox="0 0 72 72" xmlns="http://www.w3.org/2000/svg">
  <path fill="#B3B3B3" d="M68 4v64H4V4h64m4-4H0v72h72V0z"/>
  <path fill="none" stroke="#00A5FF" stroke-miterlimit="10" stroke-width="0.1" d="M12.923 10.958h46.154c1.062 0 1.923.861 1.923 1.923v46.154a1.923 1.923 0 01-1.923 1.923H12.923A1.923 1.923 0 0111 59.035h0V12.881c0-1.062.861-1.923 1.923-1.923h0z"/>
  <path fill="none" stroke="#00A5FF" stroke-miterlimit="10" stroke-width="0.1" d="M18.254 4h35.492A2.254 2.254 0 0156 6.254v59.492A2.254 2.254 0 0153.746 68H18.254A2.254 2.254 0 0116 65.746V6.254A2.254 2.254 0 0118.254 4z"/>
  <path fill="none" stroke="#00A5FF" stroke-miterlimit="10" stroke-width="0.1" d="M68 18.254v35.492A2.254 2.254 0 0165.746 56H6.254A2.254 2.254 0 014 53.746V18.254A2.254 2.254 0 016.254 16h59.492A2.254 2.254 0 0168 18.254z"/>
  <circle cx="36" cy="36" r="29" fill="none" stroke="#00A5FF" stroke-miterlimit="10" stroke-width="0.1"/>
  <g fill="none" stroke="#fff" stroke-linecap="round" stroke-linejoin="round" stroke-miterlimit="10" stroke-width="6">
    <path d="M51.065 43.916V10.98H18.937v49.76h16.062M23.667 16.02H32m-8.333 8.48h22m-22 3.771h22m-22 3.77h22m-22 3.771h22m-22 3.771h22M36.38 43.35H23.67m9.58 3.77h-9.58m8.45 3.77h-8.45"/>
    <circle cx="43.167" cy="52.167" r="11.129"/>
    <path d="M51.065 60.739l5.467 5.467M33.439 48.453h13.436m-14.703 5.386h14.703"/>
  </g>
  <path fill="#FFF" d="M51.065 43.916V10.98H18.937v49.76h16.062"/>
  <circle cx="43.167" cy="52.167" r="11.129" fill="#D0CFCE"/>
  <g fill="none" stroke="#000" stroke-linecap="round" stroke-linejoin="round" stroke-miterlimit="10" stroke-width="2">
    <path d="M51.065 43.916V10.98H18.937v49.76h16.062M23.667 16.02H32m-8.333 8.48h22m-22 3.771h22m-22 3.77h22m-22 3.771h22m-22 3.771h22M36.38 43.35H23.67m9.58 3.77h-9.58m8.45 3.77h-8.45"/>
    <circle cx="43.167" cy="52.167" r="11.129"/>
    <path d="M51.065 60.739l5.467 5.467M33.439 48.453h13.436m-14.703 5.386h14.703"/>
  </g>
</svg>
