<svg viewBox="0 0 72 72" xmlns="http://www.w3.org/2000/svg">
  <path fill="#b3b3b3" d="M68 4v64H4V4h64m4-4H0v72h72V0z"/>
  <path fill="none" stroke="#00a5ff" stroke-miterlimit="10" stroke-width="0.1" d="M12.923 10.958h46.154A1.923 1.923 0 0161 12.881v46.154a1.923 1.923 0 01-1.923 1.923H12.923A1.923 1.923 0 0111 59.035V12.881a1.923 1.923 0 011.923-1.923z"/>
  <rect x="16" y="4" rx="2.254" width="40" height="64" fill="none" stroke="#00a5ff" stroke-miterlimit="10" stroke-width="0.1"/>
  <rect x="16" y="4" rx="2.254" width="40" height="64" transform="rotate(90 36 36)" fill="none" stroke="#00a5ff" stroke-miterlimit="10" stroke-width="0.1"/>
  <circle cx="36" cy="36" r="29" fill="none" stroke="#00a5ff" stroke-miterlimit="10" stroke-width="0.1"/>
  <g fill="none" stroke="#fff" stroke-linecap="round" stroke-linejoin="round" stroke-miterlimit="10" stroke-width="6">
    <path d="M46.801 51.984v7.013c0 .55-.45 1-1 1h-33c-.55 0-1-.45-1-1v-33a1 1 0 011-1h7.082"/>
    <path d="M58.802 46.997h-33c-.55 0-1-.45-1-1v-33a1 1 0 011-1h33c.55 0 1 .45 1 1v33c0 .55-.45 1-1 1z"/>
  </g>
  <path fill="#D0CFCE" d="M12.802 24.086h34.882V59.03H12.802z"/>
  <path fill="#FFF" d="M24.894 12.081h34.901v34.786H24.894z"/>
  <g fill="none" stroke="#000" stroke-linecap="round" stroke-linejoin="round" stroke-miterlimit="10" stroke-width="2">
    <path d="M46.801 51.984v7.013c0 .55-.45 1-1 1h-33c-.55 0-1-.45-1-1v-33a1 1 0 011-1h7.082"/>
    <path d="M58.802 46.997h-33c-.55 0-1-.45-1-1v-33a1 1 0 011-1h33c.55 0 1 .45 1 1v33c0 .55-.45 1-1 1z"/>
  </g>
</svg>
