<svg viewBox="0 0 72 72" xmlns="http://www.w3.org/2000/svg">
  <path fill="#b3b3b3" d="M68 4v64H4V4h64m4-4H0v72h72V0z"/>
  <path fill="none" stroke="#00a5ff" stroke-miterlimit="10" stroke-width="0.1" d="M12.923 10.958h46.154A1.923 1.923 0 0161 12.881v46.154a1.923 1.923 0 01-1.923 1.923H12.923A1.923 1.923 0 0111 59.035V12.881a1.923 1.923 0 011.923-1.923z"/>
  <rect x="16" y="4" rx="2.254" width="40" height="64" fill="none" stroke="#00a5ff" stroke-miterlimit="10" stroke-width="0.1"/>
  <rect x="16" y="4" rx="2.254" width="40" height="64" transform="rotate(90 36 36)" fill="none" stroke="#00a5ff" stroke-miterlimit="10" stroke-width="0.1"/>
  <circle cx="36" cy="36" r="29" fill="none" stroke="#00a5ff" stroke-miterlimit="10" stroke-width="0.1"/>
  <g fill="none" stroke="#fff" stroke-linecap="round" stroke-linejoin="round" stroke-miterlimit="10" stroke-width="6">
    <path d="M36.085 17.147v18.87m6.155-6.122l-6.14 6.14m-6.19-6.14l6.14 6.14m20.846 18.943h-41.82c-1.65 0-3-1.35-3-3v-7.576c0-1.65 1.35-3 3-3h41.82c1.65 0 3 1.35 3 3v7.576c0 1.65-1.35 3-3 3z"/>
    <circle cx="19.017" cy="48.289" r="2"/>
  </g>
  <path fill="#D0CFCE" d="M58.231 54.809H14.125c-.892 0-1.622-.73-1.622-1.623V43.181c0-.893.73-1.623 1.622-1.623h44.106c.893 0 1.623.73 1.623 1.623v10.005c0 .893-.73 1.623-1.623 1.623z"/>
  <circle cx="19.017" cy="48.289" r="1.934" fill="#92D3F5"/>
  <g fill="none" stroke="#000" stroke-linecap="round" stroke-linejoin="round" stroke-miterlimit="10" stroke-width="2">
    <path d="M36.085 17.147v18.87m6.155-6.122l-6.14 6.14m-6.19-6.14l6.14 6.14m20.846 18.943h-41.82c-1.65 0-3-1.35-3-3v-7.576c0-1.65 1.35-3 3-3h41.82c1.65 0 3 1.35 3 3v7.576c0 1.65-1.35 3-3 3z"/>
    <circle cx="19.017" cy="48.289" r="2"/>
  </g>
</svg>
