<svg viewBox="0 0 72 72" xmlns="http://www.w3.org/2000/svg">
  <path fill="#b3b3b3" d="M68 4v64H4V4h64m4-4H0v72h72V0z"/>
  <path fill="none" stroke="#00a5ff" stroke-miterlimit="10" stroke-width="0.1" d="M12.923 10.958h46.154A1.923 1.923 0 0161 12.881v46.154a1.923 1.923 0 01-1.923 1.923H12.923A1.923 1.923 0 0111 59.035V12.881a1.923 1.923 0 011.923-1.923z"/>
  <rect x="16" y="4" rx="2.254" width="40" height="64" fill="none" stroke="#00a5ff" stroke-miterlimit="10" stroke-width="0.1"/>
  <rect x="16" y="4" rx="2.254" width="40" height="64" transform="rotate(90 36 36)" fill="none" stroke="#00a5ff" stroke-miterlimit="10" stroke-width="0.1"/>
  <circle cx="36" cy="36" r="29" fill="none" stroke="#00a5ff" stroke-miterlimit="10" stroke-width="0.1"/>
  <g fill="none" stroke="#fff" stroke-linecap="round" stroke-linejoin="round" stroke-miterlimit="10" stroke-width="6">
    <circle cx="26" cy="35.079" r="2.857"/>
    <circle cx="36" cy="35.079" r="2.857"/>
    <circle cx="46" cy="35.079" r="2.857"/>
    <path d="M23.437 50.356C22.105 53.88 18.432 58.712 15 61c7.165 0 12.233-2.092 16-7.273"/>
    <path d="M23.437 50.356C22.105 53.88 18.432 58.712 15 61c7.165 0 12.233-2.092 16-7.273m-10.52-6.11A19.917 19.917 0 0116 35c0-11.046 8.954-20 20-20s20 8.954 20 20-8.954 20-20 20c-.37 0-.738-.01-1.104-.03"/>
  </g>
  <g fill="#FCEA2B">
    <circle cx="36" cy="35" r="20.8"/>
    <path d="M23.437 50.356C22.105 53.88 18.432 58.712 15 61c7.165 0 12.233-2.092 16-7.273"/>
  </g>
  <circle cx="26" cy="35.079" r="2.857"/>
  <circle cx="36" cy="35.079" r="2.857"/>
  <circle cx="46" cy="35.079" r="2.857"/>
  <path fill="none" stroke="#000" stroke-linecap="round" stroke-linejoin="round" stroke-miterlimit="10" stroke-width="2" d="M23.437 50.356C22.105 53.88 18.432 58.712 15 61c7.165 0 12.233-2.092 16-7.273"/>
  <path fill="none" stroke="#000" stroke-linecap="round" stroke-linejoin="round" stroke-miterlimit="10" stroke-width="2" d="M23.437 50.356C22.105 53.88 18.432 58.712 15 61c7.165 0 12.233-2.092 16-7.273"/>
  <path fill="none" stroke="#000" stroke-linecap="round" stroke-miterlimit="10" stroke-width="2" d="M20.48 47.617A19.917 19.917 0 0116 35c0-11.046 8.954-20 20-20s20 8.954 20 20-8.954 20-20 20c-.37 0-.738-.01-1.104-.03"/>
</svg>
