<svg viewBox="0 0 72 72" xmlns="http://www.w3.org/2000/svg">
  <path fill="#B3B3B3" d="M68 4v64H4V4h64m4-4H0v72h72V0z"/>
  <path fill="none" stroke="#00A5FF" stroke-miterlimit="10" stroke-width="0.1" d="M12.923 10.958h46.154c1.062 0 1.923.861 1.923 1.923v46.154a1.923 1.923 0 01-1.923 1.923H12.923A1.923 1.923 0 0111 59.035h0V12.881c0-1.062.861-1.923 1.923-1.923h0z"/>
  <path fill="none" stroke="#00A5FF" stroke-miterlimit="10" stroke-width="0.1" d="M18.254 4h35.492A2.254 2.254 0 0156 6.254v59.492A2.254 2.254 0 0153.746 68H18.254A2.254 2.254 0 0116 65.746V6.254A2.254 2.254 0 0118.254 4z"/>
  <path fill="none" stroke="#00A5FF" stroke-miterlimit="10" stroke-width="0.1" d="M68 18.254v35.492A2.254 2.254 0 0165.746 56H6.254A2.254 2.254 0 014 53.746V18.254A2.254 2.254 0 016.254 16h59.492A2.254 2.254 0 0168 18.254z"/>
  <circle cx="36" cy="36" r="29" fill="none" stroke="#00A5FF" stroke-miterlimit="10" stroke-width="0.1"/>
  <g fill="none" stroke="#fff" stroke-linecap="round" stroke-linejoin="round" stroke-miterlimit="10" stroke-width="6">
    <path d="M44.021 57l2.187-13.365-.958-11.902-1.5-2.906 1.5-5.219-1.5-5.958 10.833 1.319 5.899-.355 3.601.855 4 .75"/>
    <path d="M54.333 57l-1.25-2.656 1.25-5.375.25-4.125-1.5-4.75v-4.875l5.25-1.667 10.375 1.177"/>
    <path d="M61.708 39.958l1.125 4.75-.945 5.012M39.613 57l-3.466-12.381-1.492-11.641-1.852-2.695.834-5.366-2.235-5.723m0 0l-13.027 3.858 5.851 15.167-5.768-.292 3.584 4.75 2 1.875 1.125 2.667v4.541l3.541 2.917 1 2.323m-18.46 0H67M5 57h1.098M43.75 17.65l-6.604 3.631 2.467 7.125v9.028l1.97 9.41L39.708 57m-28-14v5.333l3.417-4.833zm-4 10.583l-1.583 2.75L8.458 60.5l4.959-.5z"/>
  </g>
  <path fill="#FFF" d="M31.402 19.194l-13.027 3.858 5.851 15.167-5.768-.292 3.584 4.75 2 1.875 1.125 2.667v4.541l3.541 2.917 1 2.323h9.905l-3.466-12.381-1.492-11.641-1.852-2.695.834-5.366-2.235-5.723M67 57H44.021l2.187-13.365-.958-11.902-1.5-2.906 1.5-5.219-1.5-5.958 10.833 1.319 5.899-.355 3.601.855 4 .75"/>
  <path fill="#D0CFCE" d="M53.358 39.439l1.5 4.74-.26 4.13-1.24 5.37L54.598 57H48.75l1.608-3.321 1.24-5.37.26-4.13-1.5-4.74v-4.88l5.24-1.67 2.21.25-4.45 1.42zm-7.344 3.662L43.554 57h-4.11l1.13-10.509-.18-9.95-1.404-8.072-1.482-7.387 6.046-3.971 1.5 5.96-1.5 5.22 1.5 2.9z"/>
  <path fill="#FFF" d="M11.708 43v5.333l3.417-4.833z"/>
  <path fill="#92D3F5" d="M4 57h64v11H4z"/>
  <path fill="none" stroke="#61B2E4" stroke-linecap="round" stroke-linejoin="round" stroke-width="2" d="M8.072 61.34l6.121-.482"/>
  <path fill="#FFF" d="M7.708 53.583l-1.583 2.75L8.458 60.5l4.959-.5z"/>
  <g fill="none" stroke="#000" stroke-linecap="round" stroke-linejoin="round">
    <path stroke-width="2" d="M44.021 57l2.187-13.365-.958-11.902-1.5-2.906 1.5-5.219-1.5-5.958 10.833 1.319 5.899-.355 3.601.855 4 .75"/>
    <path stroke-width="2" d="M54.333 57l-1.25-2.656 1.25-5.375.25-4.125-1.5-4.75v-4.875l5.25-1.667 10.375 1.177"/>
    <path stroke-width="2" d="M61.708 39.958l1.125 4.75-.945 5.012M39.613 57l-3.466-12.381-1.492-11.641-1.852-2.695.834-5.366-2.235-5.723m0 0l-13.027 3.858 5.851 15.167-5.768-.292 3.584 4.75 2 1.875 1.125 2.667v4.541l3.541 2.917 1 2.323m-18.46 0H67M5 57h1.098M43.75 17.65l-6.604 3.631 2.467 7.125v9.028l1.97 9.41L39.708 57"/>
    <path stroke-width="1.6" d="M11.708 43v5.333l3.417-4.833zm-4 10.583l-1.583 2.75L8.458 60.5l4.959-.5z"/>
  </g>
</svg>
