<svg viewBox="0 0 72 72" xmlns="http://www.w3.org/2000/svg">
  <path fill="#b3b3b3" d="M68 4v64H4V4h64m4-4H0v72h72V0z"/>
  <path fill="none" stroke="#00a5ff" stroke-miterlimit="10" stroke-width="0.1" d="M12.923 10.958h46.154A1.923 1.923 0 0161 12.881v46.154a1.923 1.923 0 01-1.923 1.923H12.923A1.923 1.923 0 0111 59.035V12.881a1.923 1.923 0 011.923-1.923z"/>
  <rect x="16" y="4" rx="2.254" width="40" height="64" fill="none" stroke="#00a5ff" stroke-miterlimit="10" stroke-width="0.1"/>
  <rect x="16" y="4" rx="2.254" width="40" height="64" transform="rotate(90 36 36)" fill="none" stroke="#00a5ff" stroke-miterlimit="10" stroke-width="0.1"/>
  <circle cx="36" cy="36" r="29" fill="none" stroke="#00a5ff" stroke-miterlimit="10" stroke-width="0.1"/>
  <g fill="none" stroke="#fff" stroke-linecap="round" stroke-linejoin="round" stroke-miterlimit="10" stroke-width="6">
    <path d="M11.106 44.03h49.788V60H11.106z"/>
    <path d="M15.803 48.727h12.212V60H15.803zm0 3.758h12.212m-12.212 3.757h12.212m9.394-2.818h-4.697v-4.697h4.697m4.697 4.697h-4.697m0-4.697h4.697m4.697 4.697h-4.697m0-4.697h4.697m4.697 4.697h-4.697m0-4.697H51.5m0 0h4.697v4.697H51.5m3.288-9.394h-5.636L50.091 29h3.757l.94 15.03zM15.8 37.455l.005 6.575h9.389L15.8 37.455zm9.867 0l.004 6.575h9.39l-9.394-6.575zm9.394 0l.004 6.575h9.39l-9.394-6.575zm3.828-25.177a5.258 5.258 0 019.225-3.471 4.195 4.195 0 017.643 2.417l.02-.002a4.222 4.222 0 110 8.445c-.068 0-.131-.017-.2-.02a3.115 3.115 0 01-1.947 4.06c.006.063.037.117.037.182a2.111 2.111 0 11-4.222 0 2.085 2.085 0 01.547-1.388 3.149 3.149 0 01-.425-.955 3.143 3.143 0 01-4.3-2.489 4.199 4.199 0 01-6.087-5.124 5.22 5.22 0 01-.291-1.655z"/>
  </g>
  <path fill="#d0cfce" d="M38.889 12.278a5.258 5.258 0 019.225-3.471 4.195 4.195 0 017.643 2.417l.02-.002a4.222 4.222 0 110 8.445c-.068 0-.131-.017-.2-.02a3.115 3.115 0 01-1.947 4.06c.006.063.037.117.037.182a2.111 2.111 0 11-4.222 0 2.085 2.085 0 01.547-1.388 3.149 3.149 0 01-.425-.955 3.143 3.143 0 01-4.3-2.489 4.199 4.199 0 01-6.087-5.124 5.22 5.22 0 01-.291-1.655z"/>
  <path fill="#9b9b9a" d="M11.106 44.03h49.788V60H11.106z"/>
  <path fill="#d0cfce" d="M15.803 48.727h12.212V60H15.803z"/>
  <path fill="#92d3f5" d="M51.5 48.727H32.712v4.697h23.485v-4.697H51.5z"/>
  <path fill="#9b9b9a" d="M54.788 44.03h-5.636L50.091 29h3.757l.94 15.03z"/>
  <path fill="#d0cfce" d="M15.8 37.455l.005 6.575h9.389L15.8 37.455zm9.867 0l.004 6.575h9.39l-9.394-6.575zm9.394 0l.004 6.575h9.39l-9.394-6.575z"/>
  <g fill="none" stroke="#000" stroke-linecap="round" stroke-linejoin="round" stroke-width="2">
    <path d="M11.106 44.03h49.788V60H11.106z"/>
    <path d="M15.803 48.727h12.212V60H15.803zm0 3.758h12.212m-12.212 3.757h12.212m9.394-2.818h-4.697v-4.697h4.697m4.697 4.697h-4.697m0-4.697h4.697m4.697 4.697h-4.697m0-4.697h4.697m4.697 4.697h-4.697m0-4.697H51.5m0 0h4.697v4.697H51.5m3.288-9.394h-5.636L50.091 29h3.757l.94 15.03zM15.8 37.455l.005 6.575h9.389L15.8 37.455zm9.867 0l.004 6.575h9.39l-9.394-6.575zm9.394 0l.004 6.575h9.39l-9.394-6.575zm3.828-25.177a5.258 5.258 0 019.225-3.471 4.195 4.195 0 017.643 2.417l.02-.002a4.222 4.222 0 110 8.445c-.068 0-.131-.017-.2-.02a3.115 3.115 0 01-1.947 4.06c.006.063.037.117.037.182a2.111 2.111 0 11-4.222 0 2.085 2.085 0 01.547-1.388 3.149 3.149 0 01-.425-.955 3.143 3.143 0 01-4.3-2.489 4.199 4.199 0 01-6.087-5.124 5.22 5.22 0 01-.291-1.655z"/>
  </g>
</svg>
