<svg viewBox="0 0 72 72" xmlns="http://www.w3.org/2000/svg">
  <path fill="#B3B3B3" d="M68 4v64H4V4h64m4-4H0v72h72V0z"/>
  <path fill="none" stroke="#00A5FF" stroke-miterlimit="10" stroke-width="0.1" d="M12.923 10.958h46.154c1.062 0 1.923.861 1.923 1.923v46.154a1.923 1.923 0 01-1.923 1.923H12.923A1.923 1.923 0 0111 59.035h0V12.881c0-1.062.861-1.923 1.923-1.923h0z"/>
  <path fill="none" stroke="#00A5FF" stroke-miterlimit="10" stroke-width="0.1" d="M18.254 4h35.492A2.254 2.254 0 0156 6.254v59.492A2.254 2.254 0 0153.746 68H18.254A2.254 2.254 0 0116 65.746V6.254A2.254 2.254 0 0118.254 4z"/>
  <path fill="none" stroke="#00A5FF" stroke-miterlimit="10" stroke-width="0.1" d="M68 18.254v35.492A2.254 2.254 0 0165.746 56H6.254A2.254 2.254 0 014 53.746V18.254A2.254 2.254 0 016.254 16h59.492A2.254 2.254 0 0168 18.254z"/>
  <circle cx="36" cy="36" r="29" fill="none" stroke="#00A5FF" stroke-miterlimit="10" stroke-width="0.1"/>
  <g fill="none" stroke="#fff" stroke-linecap="round" stroke-linejoin="round" stroke-miterlimit="10" stroke-width="6">
    <path d="M15.5 21.903h7.29v3.894H15.5zm9.607 0h7.29v3.894h-7.29zm9.607 0h7.29v3.894h-7.29zM15.5 25.797H56v24.3H15.5z"/>
    <path d="M16.4 21.903h5.49a.9.9 0 01.9.9v2.994h0-7.29 0v-2.993a.9.9 0 01.9-.901zm9.608 0h5.488a.9.9 0 01.901.9v2.994h0-7.29 0v-2.993a.9.9 0 01.9-.901zm9.607 0h5.488a.9.9 0 01.901.9v2.994h0-7.29 0v-2.993a.9.9 0 01.9-.901zM15.5 25.797H56v24.3H15.5z"/>
    <path d="M37.076 32.853v3.768h3.767v2.652h-3.767v3.768h-2.652v-3.768h-3.768v-2.652h3.768v-3.768h2.652m0-2h-2.652a2 2 0 00-2 2v1.768h-1.768a2 2 0 00-2 2v2.652a2 2 0 002 2h1.768v1.768a2 2 0 002 2h2.652a2 2 0 002-2v-1.768h1.767a2 2 0 002-2v-2.652a2 2 0 00-2-2h-1.767v-1.768a2 2 0 00-2-2z"/>
  </g>
  <path fill="#EA5A47" d="M15.5 21.903h7.29v3.894H15.5z"/>
  <path fill="#FCEA2B" d="M25.107 21.903h7.29v3.894h-7.29z"/>
  <path fill="#B1CC33" d="M34.714 21.903h7.29v3.894h-7.29z"/>
  <path fill="#D0CFCE" d="M15.5 25.797H56v24.3H15.5z"/>
  <path fill="none" d="M16.4 21.903h5.49a.9.9 0 01.9.9v2.994H15.5v-2.993a.9.9 0 01.9-.901zm9.608 0h5.488a.9.9 0 01.901.9v2.994h-7.29v-2.993a.9.9 0 01.9-.901zm9.607 0h5.488a.9.9 0 01.901.9v2.994h-7.29v-2.993a.9.9 0 01.9-.901zM15.5 25.797H56v24.3H15.5z"/>
  <path fill="#D22F27" d="M30.656 39.273h3.768v3.768h2.652v-3.768h3.768V36.62h-3.768v-3.767h-2.652v3.767h-3.768z"/>
  <g>
    <path fill="none" d="M15.5 21.903h7.29v3.894H15.5zm9.607 0h7.29v3.894h-7.29zm9.607 0h7.29v3.894h-7.29zM15.5 25.797H56v24.3H15.5z"/>
    <path fill="none" stroke="#000" stroke-linecap="round" stroke-linejoin="round" stroke-width="2" d="M16.4 21.903h5.49a.9.9 0 01.9.9v2.994h0-7.29 0v-2.993a.9.9 0 01.9-.901zm9.608 0h5.488a.9.9 0 01.901.9v2.994h0-7.29 0v-2.993a.9.9 0 01.9-.901zm9.607 0h5.488a.9.9 0 01.901.9v2.994h0-7.29 0v-2.993a.9.9 0 01.9-.901zM15.5 25.797H56v24.3H15.5z"/>
    <path d="M37.076 32.853v3.768h3.767v2.652h-3.767v3.768h-2.652v-3.768h-3.768v-2.652h3.768v-3.768h2.652m0-2h-2.652a2 2 0 00-2 2v1.768h-1.768a2 2 0 00-2 2v2.652a2 2 0 002 2h1.768v1.768a2 2 0 002 2h2.652a2 2 0 002-2v-1.768h1.767a2 2 0 002-2v-2.652a2 2 0 00-2-2h-1.767v-1.768a2 2 0 00-2-2z"/>
  </g>
</svg>
