<svg viewBox="0 0 72 72" xmlns="http://www.w3.org/2000/svg">
  <path fill="#B3B3B3" d="M68 4v64H4V4h64m4-4H0v72h72V0z"/>
  <path fill="none" stroke="#00A5FF" stroke-miterlimit="10" stroke-width="0.1" d="M12.923 10.958h46.154c1.062 0 1.923.861 1.923 1.923v46.154a1.923 1.923 0 01-1.923 1.923H12.923A1.923 1.923 0 0111 59.035h0V12.881c0-1.062.861-1.923 1.923-1.923h0z"/>
  <path fill="none" stroke="#00A5FF" stroke-miterlimit="10" stroke-width="0.1" d="M18.254 4h35.492A2.254 2.254 0 0156 6.254v59.492A2.254 2.254 0 0153.746 68H18.254A2.254 2.254 0 0116 65.746V6.254A2.254 2.254 0 0118.254 4z"/>
  <path fill="none" stroke="#00A5FF" stroke-miterlimit="10" stroke-width="0.1" d="M68 18.254v35.492A2.254 2.254 0 0165.746 56H6.254A2.254 2.254 0 014 53.746V18.254A2.254 2.254 0 016.254 16h59.492A2.254 2.254 0 0168 18.254z"/>
  <circle cx="36" cy="36" r="29" fill="none" stroke="#00A5FF" stroke-miterlimit="10" stroke-width="0.1"/>
  <g fill="none" stroke="#fff" stroke-linecap="round" stroke-linejoin="round" stroke-miterlimit="10" stroke-width="6">
    <path d="M28.286 49.967V53.9h0a7.315 7.315 0 005.993 7.211c2.56.518 5.21.378 7.701-.407a7.154 7.154 0 004.703-8.058 12.767 12.767 0 01-.224-2.142 9.505 9.505 0 013.185-7.043c1.982-1.865 4.217-4.534 2.037-11.37M16 19.308v-1.736a5.631 5.631 0 015.631-5.631s0 0 0 0H35.37a5.631 5.631 0 015.631 5.63v1.777"/>
    <path d="M23.606 44.026h9.36v4.777h-9.36zm27.48-23.51h1.419c1.05 0 1.902.852 1.902 1.903v7.77c0 1.05-.852 1.902-1.902 1.902h-1.419a1.902 1.902 0 01-1.902-1.902v-7.77c0-1.051.852-1.903 1.902-1.903zm.709 0v-6.603M16 19.308h25v12.496c0 3.828-2.52 6.93-5.63 6.93h-1.365c-3.13.567-3 5.292-3 5.292h-5.66s.13-4.725-3-5.292h-.714c-3.11 0-5.631-3.102-5.631-6.93V19.31z"/>
    <path d="M32.007 30.836a3.513 3.513 0 11-7.013-.004s-.038-2.508 2.92-7.045c0 0 .555-.941 1.114-.062 2.959 4.537 2.979 7.111 2.979 7.111"/>
  </g>
  <path fill="#D0CFCE" d="M23.606 44.026h9.36v4.777h-9.36z"/>
  <path fill="#D22F27" d="M16 19.308h25v12.496c0 3.828-2.52 6.93-5.63 6.93h-1.365c-3.13.567-3 5.292-3 5.292h-5.66s.13-4.725-3-5.292h-.714c-3.11 0-5.631-3.102-5.631-6.93V19.31zm35.086 1.208h1.419c1.05 0 1.902.852 1.902 1.903v7.77c0 1.05-.852 1.902-1.902 1.902h-1.419a1.902 1.902 0 01-1.902-1.902v-7.77c0-1.051.852-1.903 1.902-1.903z"/>
  <path fill="#EA5A47" d="M32.007 30.836a3.513 3.513 0 11-7.013-.004s-.038-2.508 2.92-7.045c0 0 .555-.941 1.114-.062 2.959 4.537 2.979 7.111 2.979 7.111"/>
  <path fill="#D22F27" d="M28.5 23.35c2.257 1.819 3.484 7.166 3.484 7.166 0 2.63-1.548 4.054-3.484 4.054 0 0 3.857-3.178 0-11.22"/>
  <g fill="none" stroke="#000">
    <path stroke-linecap="round" stroke-linejoin="round" stroke-width="2" d="M28.286 49.967V53.9h0a7.315 7.315 0 005.993 7.211c2.56.518 5.21.378 7.701-.407a7.154 7.154 0 004.703-8.058 12.767 12.767 0 01-.224-2.142 9.505 9.505 0 013.185-7.043c1.982-1.865 4.217-4.534 2.037-11.37M16 19.308v-1.736a5.631 5.631 0 015.631-5.631s0 0 0 0H35.37a5.631 5.631 0 015.631 5.63v1.777"/>
    <path stroke-linecap="round" stroke-linejoin="round" stroke-width="2" d="M23.606 44.026h9.36v4.777h-9.36zm27.48-23.51h1.419c1.05 0 1.902.852 1.902 1.903v7.77c0 1.05-.852 1.902-1.902 1.902h-1.419a1.902 1.902 0 01-1.902-1.902v-7.77c0-1.051.852-1.903 1.902-1.903zm.709 0v-6.603"/>
    <path stroke-miterlimit="10" stroke-width="2" d="M16 19.308h25v12.496c0 3.828-2.52 6.93-5.63 6.93h-1.365c-3.13.567-3 5.292-3 5.292h-5.66s.13-4.725-3-5.292h-.714c-3.11 0-5.631-3.102-5.631-6.93V19.31z"/>
    <path stroke-linecap="round" stroke-linejoin="round" stroke-width="1.5" d="M32.007 30.836a3.513 3.513 0 11-7.013-.004s-.038-2.508 2.92-7.045c0 0 .555-.941 1.114-.062 2.959 4.537 2.979 7.111 2.979 7.111"/>
  </g>
</svg>
