<svg viewBox="0 0 72 72" xmlns="http://www.w3.org/2000/svg">
  <path fill="#b3b3b3" d="M68 4v64H4V4h64m4-4H0v72h72V0z"/>
  <rect x="11" y="10.958" rx="1.923" width="50" height="50" fill="none" stroke="#00a5ff" stroke-miterlimit="10" stroke-width="0.1"/>
  <rect x="16" y="4" rx="2.254" width="40" height="64" fill="none" stroke="#00a5ff" stroke-miterlimit="10" stroke-width="0.1"/>
  <rect x="16" y="4" rx="2.254" width="40" height="64" transform="rotate(90 36 36)" fill="none" stroke="#00a5ff" stroke-miterlimit="10" stroke-width="0.1"/>
  <circle cx="36" cy="36" r="29" fill="none" stroke="#00a5ff" stroke-miterlimit="10" stroke-width="0.1"/>
  <g fill="none" stroke="#fff" stroke-linecap="round" stroke-linejoin="round" stroke-miterlimit="10" stroke-width="6">
    <path d="M27.6 53.322a2.836 2.836 0 002.162-1.786S43.456 26.33 45.143 20.078M25.21 51.965a3.049 3.049 0 01.546-2.786S40.6 24.63 45.144 20.017"/>
    <path d="M44.908 18.66l1.641.947a.6.6 0 01.22.82l-3.232 5.598h0l-2.68-1.547h0l3.232-5.599a.6.6 0 01.82-.22z"/>
  </g>
  <path fill="none" stroke="#000" stroke-linecap="round" stroke-miterlimit="10" stroke-width="2" d="M27.6 53.322a2.836 2.836 0 002.162-1.786S43.456 26.33 45.143 20.078M25.21 51.965a3.049 3.049 0 01.546-2.786S40.6 24.63 45.144 20.017"/>
  <path d="M44.908 18.66l1.641.947a.6.6 0 01.22.82l-3.232 5.598-2.68-1.547 3.232-5.599a.6.6 0 01.82-.22z"/>
</svg>
