<svg viewBox="0 0 72 72" xmlns="http://www.w3.org/2000/svg">
  <path fill="#b3b3b3" d="M68 4v64H4V4h64m4-4H0v72h72V0z"/>
  <rect x="11" y="10.958" rx="1.923" width="50" height="50" fill="none" stroke="#00a5ff" stroke-miterlimit="10" stroke-width="0.1"/>
  <rect x="16" y="4" rx="2.254" width="40" height="64" fill="none" stroke="#00a5ff" stroke-miterlimit="10" stroke-width="0.1"/>
  <rect x="16" y="4" rx="2.254" width="40" height="64" transform="rotate(90 36 36)" fill="none" stroke="#00a5ff" stroke-miterlimit="10" stroke-width="0.1"/>
  <circle cx="36" cy="36" r="29" fill="none" stroke="#00a5ff" stroke-miterlimit="10" stroke-width="0.1"/>
  <path fill="none" stroke="#fff" stroke-linecap="round" stroke-linejoin="round" stroke-miterlimit="10" stroke-width="6" d="M52.482 29.62c-1.251 1.808-.075 3.386 1.104 5.186 1.223 1.868.563 4.303-1.262 5.916a1.353 1.353 0 00-.367 1.95c1.242 2.624.357 5.163-2.12 6.738a2.974 2.974 0 00-1.117 1.377 4.917 4.917 0 01-5.273 3.447 1.902 1.902 0 00-1.392.702c-1.422 1.967-3.278 2.355-5.31.918a1.115 1.115 0 00-1.553.008c-1.96 1.417-3.89 1.007-5.323-.942a1.925 1.925 0 00-1.408-.694 4.72 4.72 0 01-5.15-3.371 2.973 2.973 0 00-1.12-1.404c-2.651-1.652-3.51-4.269-2.082-7.063.404-.79.174-1.099-.371-1.576a4.98 4.98 0 01-.162-7.77 1.32 1.32 0 00.373-1.753c-1.134-2.796-.305-5.051 2.242-6.69a3.162 3.162 0 001.147-1.532 4.591 4.591 0 014.98-3.201 1.446 1.446 0 001.664-.79 3.38 3.38 0 015.09-.991 1.227 1.227 0 001.765.012c1.877-1.348 3.824-.89 5.212.99a2.048 2.048 0 001.505.73 4.864 4.864 0 015.183 3.558 3.24 3.24 0 001.283 1.416 5.234 5.234 0 012.462 4.828zM36 18.461v37.084m-5.325-25.484s3.923-3.944 5.325 1.352m5.325-1.352S37.402 26.117 36 31.413m8.122-4.336s2.659-4.887-2.817-4.717m.02 20.54S37.402 46.846 36 41.55m6.312-5.049s3.96-3.908 5.313 1.4M30.675 42.9s3.923 3.945 5.325-1.35m14.02-16.76s-1.258-1.334-5.298-1.009m-.659 22.808s2.214 5.104-3.225 4.448m9.142-1.72s-1.617 1.292-5.612.608M28.085 27.077s-2.66-4.887 2.817-4.717M29.2 36.501s-3.96-3.908-5.312 1.4m-1.751-13.267s1.308-1.178 5.348-.853m.405 22.808s-2.214 5.104 3.225 4.448m-9.142-1.72s1.617 1.292 5.612.608"/>
  <path fill="#ffa7c0" d="M52.482 29.62c-1.251 1.808-.075 3.386 1.104 5.186 1.223 1.868.563 4.303-1.262 5.916a1.353 1.353 0 00-.367 1.95c1.242 2.624.357 5.163-2.12 6.738a2.974 2.974 0 00-1.117 1.377 4.917 4.917 0 01-5.273 3.447 1.902 1.902 0 00-1.392.702c-1.422 1.967-3.278 2.355-5.31.918a1.115 1.115 0 00-1.553.008c-1.96 1.417-3.89 1.007-5.323-.942a1.925 1.925 0 00-1.408-.694 4.72 4.72 0 01-5.15-3.371 2.973 2.973 0 00-1.12-1.404c-2.651-1.652-3.51-4.269-2.082-7.063.404-.79.174-1.099-.371-1.576a4.98 4.98 0 01-.162-7.77 1.32 1.32 0 00.373-1.753c-1.134-2.796-.305-5.051 2.242-6.69a3.162 3.162 0 001.147-1.532 4.591 4.591 0 014.98-3.201 1.446 1.446 0 001.664-.79 3.38 3.38 0 015.09-.991 1.227 1.227 0 001.765.012c1.877-1.348 3.824-.89 5.212.99a2.048 2.048 0 001.505.73 4.864 4.864 0 015.183 3.558 3.24 3.24 0 001.283 1.416 5.234 5.234 0 012.462 4.828z"/>
  <g fill="none" stroke="#000" stroke-width="2">
    <path stroke-miterlimit="10" d="M52.482 29.62c-1.251 1.808-.075 3.386 1.104 5.186 1.223 1.868.563 4.303-1.262 5.916a1.353 1.353 0 00-.367 1.95c1.242 2.624.357 5.163-2.12 6.738a2.974 2.974 0 00-1.117 1.377 4.917 4.917 0 01-5.273 3.447 1.902 1.902 0 00-1.392.702c-1.422 1.967-3.278 2.355-5.31.918a1.115 1.115 0 00-1.553.008c-1.96 1.417-3.89 1.007-5.323-.942a1.925 1.925 0 00-1.408-.694 4.72 4.72 0 01-5.15-3.371 2.973 2.973 0 00-1.12-1.404c-2.651-1.652-3.51-4.269-2.082-7.063.404-.79.174-1.099-.371-1.576a4.98 4.98 0 01-.162-7.77 1.32 1.32 0 00.373-1.753c-1.134-2.796-.305-5.051 2.242-6.69a3.162 3.162 0 001.147-1.532 4.591 4.591 0 014.98-3.201 1.446 1.446 0 001.664-.79 3.38 3.38 0 015.09-.991 1.227 1.227 0 001.765.012c1.877-1.348 3.824-.89 5.212.99a2.048 2.048 0 001.505.73 4.864 4.864 0 015.183 3.558 3.24 3.24 0 001.283 1.416 5.234 5.234 0 012.462 4.828zM36 18.461v37.084"/>
    <path stroke-linecap="round" stroke-linejoin="round" d="M30.675 30.061s3.923-3.944 5.325 1.352m5.325-1.352S37.402 26.117 36 31.413m8.122-4.336s2.659-4.887-2.817-4.717m.02 20.54S37.402 46.846 36 41.55m6.312-5.049s3.96-3.908 5.313 1.4M30.675 42.9s3.923 3.945 5.325-1.35m14.02-16.76s-1.258-1.334-5.298-1.009m-.659 22.808s2.214 5.104-3.225 4.448m9.142-1.72s-1.617 1.292-5.612.608M28.085 27.077s-2.66-4.887 2.817-4.717M29.2 36.501s-3.96-3.908-5.312 1.4m-1.751-13.267s1.308-1.178 5.348-.853m.405 22.808s-2.214 5.104 3.225 4.448m-9.142-1.72s1.617 1.292 5.612.608"/>
  </g>
</svg>
