<svg viewBox="0 0 72 72" xmlns="http://www.w3.org/2000/svg">
  <path fill="#b3b3b3" d="M68 4v64H4V4h64m4-4H0v72h72V0z"/>
  <path fill="none" stroke="#00a5ff" stroke-miterlimit="10" stroke-width="0.1" d="M12.923 10.958h46.154A1.923 1.923 0 0161 12.881v46.154a1.923 1.923 0 01-1.923 1.923H12.923A1.923 1.923 0 0111 59.035V12.881a1.923 1.923 0 011.923-1.923z"/>
  <rect x="16" y="4" rx="2.254" width="40" height="64" fill="none" stroke="#00a5ff" stroke-miterlimit="10" stroke-width="0.1"/>
  <rect x="16" y="4" rx="2.254" width="40" height="64" transform="rotate(90 36 36)" fill="none" stroke="#00a5ff" stroke-miterlimit="10" stroke-width="0.1"/>
  <circle cx="36" cy="36" r="29" fill="none" stroke="#00a5ff" stroke-miterlimit="10" stroke-width="0.1"/>
  <g fill="none" stroke="#fff" stroke-linecap="round" stroke-linejoin="round" stroke-miterlimit="10" stroke-width="6">
    <ellipse cx="36" cy="39.921" rx="20" ry="11.737"/>
    <circle cx="36.144" cy="39.651" r="4.85"/>
    <circle cx="36.144" cy="39.651" r="4.85"/>
    <circle cx="36.144" cy="39.651" r="8.896"/>
    <path d="M43.135 24.35l1.983-4.037 2.026 2.152 2.491-5.072m-25.319-1.134l2.333 3.845-2.904.549 2.93 4.83m9.805-2.801l-.19-4.494-2.721 1.154-.238-5.646"/>
  </g>
  <circle cx="36.144" cy="39.651" r="8.896" fill="#a57939"/>
  <ellipse cx="36" cy="39.921" rx="20" ry="11.737" fill="none" stroke="#000" stroke-linecap="round" stroke-linejoin="round" stroke-width="2"/>
  <circle cx="36.144" cy="39.651" r="4.85"/>
  <circle cx="36.144" cy="39.651" r="4.85" fill="none"/>
  <circle cx="36.144" cy="39.651" r="8.896" fill="none" stroke="#000" stroke-linecap="round" stroke-linejoin="round" stroke-width="2"/>
  <path fill="none" stroke="#000" stroke-linecap="round" stroke-linejoin="round" stroke-width="2" d="M43.135 24.35l1.983-4.037 2.026 2.152 2.491-5.072m-25.319-1.134l2.333 3.845-2.904.549 2.93 4.83m9.805-2.801l-.19-4.494-2.721 1.154-.238-5.646"/>
  <g fill="none" stroke="#d22f27" stroke-linecap="round" stroke-linejoin="round" stroke-width="2">
    <path d="M43.135 24.35l1.983-4.037 2.026 2.152 2.491-5.072m-25.319-1.134l2.333 3.845-2.904.549 2.93 4.83m9.805-2.801l-.19-4.494-2.721 1.154-.238-5.646"/>
  </g>
</svg>
