<svg viewBox="0 0 72 72" xmlns="http://www.w3.org/2000/svg">
  <path fill="#b3b3b3" d="M68 4v64H4V4h64m4-4H0v72h72V0z"/>
  <rect x="11" y="10.958" rx="1.923" width="50" height="50" fill="none" stroke="#00a5ff" stroke-miterlimit="10" stroke-width="0.1"/>
  <rect x="16" y="4" rx="2.254" width="40" height="64" fill="none" stroke="#00a5ff" stroke-miterlimit="10" stroke-width="0.1"/>
  <rect x="16" y="4" rx="2.254" width="40" height="64" transform="rotate(90 36 36)" fill="none" stroke="#00a5ff" stroke-miterlimit="10" stroke-width="0.1"/>
  <circle cx="36" cy="36" r="29" fill="none" stroke="#00a5ff" stroke-miterlimit="10" stroke-width="0.1"/>
  <g fill="none" stroke="#fff" stroke-linecap="round" stroke-linejoin="round" stroke-miterlimit="10" stroke-width="6">
    <path d="M16.985 42.761a20.43 20.43 0 0039.601-7.483 20.43 20.43 0 00-39.684-7.257s8.798.275 8.887.167c3.72-4.512 6.023-5.59 10.318-5.59a12.682 12.682 0 010 25.36 12.364 12.364 0 01-10.198-5.412m-8.577-.134l7.241.044"/>
    <path d="M10.186 40.904l26.07.078a3.232 3.232 0 01-2.036 1.41c-1.252.156-24.068.035-24.068.035zm1.611-8.758h12.968a1.694 1.694 0 011.207.502 14.389 14.389 0 012.554 3.097l.015.053a1.691 1.691 0 01-1.655 2.106l-15.067-.008a1.701 1.701 0 01-1.7-1.686l-.023-2.347a1.701 1.701 0 011.701-1.717z"/>
    <ellipse cx="32.8" cy="34.819" rx="3.217" ry="3.199"/>
  </g>
  <path fill="#92d3f5" d="M11.797 32.146h12.968a1.694 1.694 0 011.207.502 14.389 14.389 0 012.554 3.097l.015.053a1.691 1.691 0 01-1.655 2.106l-15.067-.008a1.701 1.701 0 01-1.7-1.686l-.023-2.347a1.701 1.701 0 011.701-1.717z"/>
  <path fill="none" stroke="#000" stroke-linecap="round" stroke-linejoin="round" stroke-width="2" d="M16.985 42.761a20.43 20.43 0 0039.601-7.483 20.43 20.43 0 00-39.684-7.257s8.798.275 8.887.167c3.72-4.512 6.023-5.59 10.318-5.59a12.682 12.682 0 010 25.36 12.364 12.364 0 01-10.198-5.412m-8.577-.134l7.241.044"/>
  <path stroke="#000" stroke-linecap="round" stroke-linejoin="round" stroke-width="2" d="M10.186 40.904l26.07.078a3.232 3.232 0 01-2.036 1.41c-1.252.156-24.068.035-24.068.035z"/>
  <path fill="none" stroke="#000" stroke-miterlimit="10" stroke-width="2" d="M11.797 32.146h12.968a1.694 1.694 0 011.207.502 14.389 14.389 0 012.554 3.097l.015.053a1.691 1.691 0 01-1.655 2.106l-15.067-.008a1.701 1.701 0 01-1.7-1.686l-.023-2.347a1.701 1.701 0 011.701-1.717z"/>
  <ellipse cx="32.8" cy="34.819" rx="3.217" ry="3.199"/>
</svg>
