<svg viewBox="0 0 72 72" xmlns="http://www.w3.org/2000/svg">
  <path fill="#b3b3b3" d="M68 4v64H4V4h64m4-4H0v72h72V0z"/>
  <path fill="none" stroke="#00a5ff" stroke-miterlimit="10" stroke-width="0.1" d="M12.923 10.958h46.154A1.923 1.923 0 0161 12.881v46.154a1.923 1.923 0 01-1.923 1.923H12.923A1.923 1.923 0 0111 59.035V12.881a1.923 1.923 0 011.923-1.923z"/>
  <rect x="16" y="4" rx="2.254" width="40" height="64" fill="none" stroke="#00a5ff" stroke-miterlimit="10" stroke-width="0.1"/>
  <rect x="16" y="4" rx="2.254" width="40" height="64" transform="rotate(90 36 36)" fill="none" stroke="#00a5ff" stroke-miterlimit="10" stroke-width="0.1"/>
  <circle cx="36" cy="36" r="29" fill="none" stroke="#00a5ff" stroke-miterlimit="10" stroke-width="0.1"/>
  <g fill="none" stroke="#fff" stroke-linecap="round" stroke-linejoin="round" stroke-miterlimit="10" stroke-width="6">
    <path d="M59.035 60h-46.07a.968.968 0 01-.965-.965v-46.07a.968.968 0 01.965-.965h46.07a.968.968 0 01.965.965v46.07a.968.968 0 01-.965.965v0z"/>
    <path d="M29 47.5a4.5 4.5 0 11-9 0 4.5 4.5 0 019 0z"/>
    <path d="M41 52c0-11.598-9.402-21-21-21v6c8.284 0 15 6.716 15 15h6z" clip-rule="evenodd"/>
    <path d="M52 52c0-17.673-14.327-32-32-32v6.001c14.106.134 25.5 11.611 25.5 25.749l-.001.25H52z" clip-rule="evenodd"/>
  </g>
  <path fill="#F1B31C" d="M59.035 60h-46.07a.968.968 0 01-.965-.965v-46.07a.968.968 0 01.965-.965h46.07a.968.968 0 01.965.965v46.07a.968.968 0 01-.965.965z"/>
  <circle cx="24.5" cy="47.5" r="4.5" fill="#fff"/>
  <path fill="#fff" fill-rule="evenodd" d="M42 52c0-12.15-9.85-22-22-22v7c8.284 0 15 6.716 15 15h7z" clip-rule="evenodd"/>
  <path fill="#fff" fill-rule="evenodd" d="M52 52c0-17.673-14.327-32-32-32v7c13.807 0 25 11.193 25 25h7z" clip-rule="evenodd"/>
  <g fill="none" stroke="#000" stroke-linejoin="round" stroke-width="2">
    <path stroke-miterlimit="10" d="M59.035 60h-46.07a.968.968 0 01-.965-.965v-46.07a.968.968 0 01.965-.965h46.07a.968.968 0 01.965.965v46.07a.968.968 0 01-.965.965v0z"/>
    <path stroke-linecap="round" d="M29 47.5a4.5 4.5 0 11-9 0 4.5 4.5 0 019 0z"/>
    <path d="M41 52c0-11.598-9.402-21-21-21v6c8.284 0 15 6.716 15 15h6z" clip-rule="evenodd"/>
    <path d="M52 52c0-17.673-14.327-32-32-32v6.001c14.106.134 25.5 11.611 25.5 25.749l-.001.25H52z" clip-rule="evenodd"/>
  </g>
</svg>
