<svg viewBox="0 0 72 72" xmlns="http://www.w3.org/2000/svg"><path fill="#b3b3b3" d="M68 4v64H4V4h64m4-4H0v72h72V0z"/><path fill="none" stroke="#00a5ff" stroke-miterlimit="10" stroke-width=".1" d="M12.923 10.958h46.154A1.923 1.923 0 0161 12.881v46.154a1.923 1.923 0 01-1.923 1.923H12.923A1.923 1.923 0 0111 59.035V12.881a1.923 1.923 0 011.923-1.923z"/><rect x="16" y="4" rx="2.254" width="40" height="64" fill="none" stroke="#00a5ff" stroke-miterlimit="10" stroke-width=".1"/><rect x="16" y="4" rx="2.254" width="40" height="64" transform="rotate(90 36 36)" fill="none" stroke="#00a5ff" stroke-miterlimit="10" stroke-width=".1"/><circle cx="36" cy="36" r="29" fill="none" stroke="#00a5ff" stroke-miterlimit="10" stroke-width=".1"/><g stroke-linecap="round" stroke-miterlimit="10" stroke-width="6" stroke="#fff" fill="none" stroke-linejoin="round"><path d="M30.735 34.656L14.303 50.68v7.24h7.565v-4.636h5.125v-5.858h5.098l2.405-2.404v-4.358h2.015"/><circle cx="48.52" cy="23.998" r="3.952"/><path d="M34.226 31.178c-1.43-4.238-.347-9.22 3.18-12.695 4.845-4.771 12.465-4.889 17.022-.263s4.322 12.244-.523 17.016c-3.917 3.857-9.648 4.673-14.108 2.4"/></g><path fill="#F4AA41" d="M33.536 31.991c-1.402-4.288-.225-9.41 3.428-13.063 5.018-5.018 12.808-5.364 17.4-.773s4.244 12.381-.774 17.4c-4.057 4.056-10.434 5.512-14.268 2.588"/><path fill="#F4AA41" stroke="#F4AA41" stroke-linecap="round" stroke-linejoin="round" stroke-miterlimit="10" stroke-width="2" d="M33.652 31.736l-2.434 2.451-16.574 16.327v7.146h7.399v-4.576h5.011v-5.782h4.986l2.351-2.373v-4.302h1.97l3.091-3.09"/><path fill="#E27022" d="M15.985 53.346v-1.907l15.913-15.565.952.974z"/><circle cx="48.52" cy="23.998" r="3.952" fill="#E27022"/><g fill="none" stroke="#000" stroke-linecap="round" stroke-linejoin="round" stroke-miterlimit="10" stroke-width="2"><path d="M30.735 34.656L14.303 50.68v7.24h7.565v-4.636h5.125v-5.858h5.098l2.405-2.404v-4.358h2.015"/><circle cx="48.52" cy="23.998" r="3.952"/><path d="M34.226 31.178c-1.43-4.238-.347-9.22 3.18-12.695 4.845-4.771 12.465-4.889 17.022-.263s4.322 12.244-.523 17.016c-3.917 3.857-9.648 4.673-14.108 2.4"/></g></svg>