<svg viewBox="0 0 72 72" xmlns="http://www.w3.org/2000/svg"><path fill="#b3b3b3" d="M68 4v64H4V4h64m4-4H0v72h72V0z"/><path fill="none" stroke="#00a5ff" stroke-miterlimit="10" stroke-width=".1" d="M12.923 10.958h46.154A1.923 1.923 0 0161 12.881v46.154a1.923 1.923 0 01-1.923 1.923H12.923A1.923 1.923 0 0111 59.035V12.881a1.923 1.923 0 011.923-1.923z"/><rect x="16" y="4" rx="2.254" width="40" height="64" fill="none" stroke="#00a5ff" stroke-miterlimit="10" stroke-width=".1"/><rect x="16" y="4" rx="2.254" width="40" height="64" transform="rotate(90 36 36)" fill="none" stroke="#00a5ff" stroke-miterlimit="10" stroke-width=".1"/><circle cx="36" cy="36" r="29" fill="none" stroke="#00a5ff" stroke-miterlimit="10" stroke-width=".1"/><path d="M53 32.25h1.875v26.875h-38V32.25h1.875zm-6.726-3.335c.477-6.986-4.83-12.683-10.514-12.494-4.672.156-8.616 4.285-9.828 9.301l-4.05-.902c1.661-6.692 7.218-12.221 13.811-12.428 7.97-.251 15.41 7.284 14.742 16.523" stroke-linecap="round" stroke-miterlimit="10" stroke-width="6" stroke="#fff" fill="none" stroke-linejoin="round"/><path fill="#FCEA2B" d="M53 32.297h1.875v26.875h-38V32.297h1.875z"/><path fill="#F1B31C" d="M54.43 32.493L35.66 58.994h19.308z"/><path fill="#D0CFCE" stroke="#D0CFCE" stroke-linejoin="round" stroke-miterlimit="10" stroke-width="2" d="M46.064 31.817l.21-2.902c.477-6.985-4.83-12.683-10.514-12.494-4.672.156-8.616 4.285-9.828 9.301l-4.05-.902c1.661-6.692 7.218-12.221 13.811-12.428 7.97-.251 15.41 7.284 14.742 16.523l-.243 2.902"/><path d="M53 32.25h1.875v26.875h-38V32.25h1.875zm-6.726-3.335c.477-6.986-4.83-12.683-10.514-12.494-4.672.156-8.616 4.285-9.828 9.301l-4.05-.902c1.661-6.692 7.218-12.221 13.811-12.428 7.97-.251 15.41 7.284 14.742 16.523" fill="none" stroke="#000" stroke-linecap="round" stroke-linejoin="round" stroke-miterlimit="10" stroke-width="2"/></svg>