<svg viewBox="0 0 72 72" xmlns="http://www.w3.org/2000/svg"><path fill="#b3b3b3" d="M68 4v64H4V4h64m4-4H0v72h72V0z"/><path fill="none" stroke="#00a5ff" stroke-miterlimit="10" stroke-width=".1" d="M12.923 10.958h46.154A1.923 1.923 0 0161 12.881v46.154a1.923 1.923 0 01-1.923 1.923H12.923A1.923 1.923 0 0111 59.035V12.881a1.923 1.923 0 011.923-1.923z"/><rect x="16" y="4" rx="2.254" ry="2.254" width="40" height="64" fill="none" stroke="#00a5ff" stroke-miterlimit="10" stroke-width=".1"/><rect x="16" y="4" rx="2.254" ry="2.254" width="40" height="64" transform="rotate(90 36 36)" fill="none" stroke="#00a5ff" stroke-miterlimit="10" stroke-width=".1"/><circle cx="36" cy="36" r="29" fill="none" stroke="#00a5ff" stroke-miterlimit="10" stroke-width=".1"/><g stroke-linecap="round" stroke-miterlimit="10" stroke-width="6" stroke="#fff" fill="none" stroke-linejoin="round"><path d="M22.317 23.954a7.002 7.002 0 016.408-12.404M50 24a6.875 6.875 0 003-6 7.005 7.005 0 00-9.438-6.564M42 21l1-8h-7v8m-6 0l-1-8h7v8"/><path d="M36 13h-7l-1-6h8v6zm0 0h7l1-6h-8v6zm8.746 52H27.254a2.684 2.684 0 01-2.644-2.22l-5.338-30.42a8.61 8.61 0 014.597-9.437 10.158 10.158 0 014.725-1.077H44s7.357.147 8.752 6.865a9.7 9.7 0 01-.01 3.647L47.39 62.78A2.684 2.684 0 0144.746 65z"/><path d="M36 21.845h8s7.357.147 8.752 6.865a9.7 9.7 0 01-.01 3.647l-5.493 31.229A1.71 1.71 0 0145.564 65h-9.575"/><path d="M36.006 51.003h13.456l2.404-13.665H35.989"/><path d="M36.006 51.003H22.544l-2.398-13.665h15.843M43 13h-7v8m-6 0l-1-8h7v8M28 7h8v6h-7l-1-6m16 0h-8v6h7M22.317 23.954a7.002 7.002 0 016.408-12.404M50 24a6.875 6.875 0 003-6 7.005 7.005 0 00-9.438-6.564"/><path d="M27 41h4v6h-4zm14 0h4v6h-4z"/></g><path fill="#f4aa41" d="M43 13h-7v9h6l1-9z"/><path fill="#e27022" d="M29 13h7v9h-6l-1-9z"/><path fill="#f4aa41" d="M36 13h-7l-1-6h8v6z"/><path fill="#e27022" d="M36 13h7l1-6h-8v6z"/><path fill="#f4aa41" d="M44.746 65H27.254a2.684 2.684 0 01-2.644-2.22l-5.338-30.42a8.61 8.61 0 014.597-9.437 10.158 10.158 0 014.725-1.077H44s7.357.147 8.752 6.865a9.7 9.7 0 01-.01 3.647L47.39 62.78A2.684 2.684 0 0144.746 65z"/><path fill="#e27022" d="M36 21.845h8s7.357.147 8.752 6.865a9.7 9.7 0 01-.01 3.647l-5.493 31.229A1.71 1.71 0 0145.564 65h-9.575"/><path fill="#fcea2b" d="M36.006 51.003h13.456l2.404-13.665H35.989"/><path fill="#d0cfce" d="M36.006 51.003H22.544l-2.398-13.665h15.843"/><path fill="#fcea2b" d="M27 41h4v6h-4z"/><path fill="#d0cfce" d="M41 41h4v6h-4z"/><g fill="none" stroke="#000" stroke-linejoin="round"><path stroke-linecap="round" stroke-width="2" d="M22.317 23.954a7.002 7.002 0 016.408-12.404M50 24a6.875 6.875 0 003-6 7.005 7.005 0 00-9.438-6.564M42 21l1-8h-7v8m-6 0l-1-8h7v8"/><path stroke-linecap="round" stroke-width="2" d="M36 13h-7l-1-6h8v6zm0 0h7l1-6h-8v6zm8.746 52H27.254a2.684 2.684 0 01-2.644-2.22l-5.338-30.42a8.61 8.61 0 014.597-9.437 10.158 10.158 0 014.725-1.077H44s7.357.147 8.752 6.865a9.7 9.7 0 01-.01 3.647L47.39 62.78A2.684 2.684 0 0144.746 65z"/><path stroke-linecap="round" stroke-width="2" d="M36 21.845h8s7.357.147 8.752 6.865a9.7 9.7 0 01-.01 3.647l-5.493 31.229A1.71 1.71 0 0145.564 65h-9.575"/><path stroke-linecap="round" stroke-width="2" d="M36.006 51.003h13.456l2.404-13.665H35.989"/><path stroke-linecap="round" stroke-width="2" d="M36.006 51.003H22.544l-2.398-13.665h15.843M43 13h-7v8m-6 0l-1-8h7v8M28 7h8v6h-7l-1-6m16 0h-8v6h7M22.317 23.954a7.002 7.002 0 016.408-12.404M50 24a6.875 6.875 0 003-6 7.005 7.005 0 00-9.438-6.564"/><path d="M27 41h4v6h-4zm14 0h4v6h-4z"/></g></svg>