<svg viewBox="0 0 72 72" xmlns="http://www.w3.org/2000/svg"><path fill="#b3b3b3" d="M68 4v64H4V4h64m4-4H0v72h72V0z"/><path fill="none" stroke="#00a5ff" stroke-miterlimit="10" stroke-width=".1" d="M12.923 10.958h46.154A1.923 1.923 0 0161 12.881v46.154a1.923 1.923 0 01-1.923 1.923H12.923A1.923 1.923 0 0111 59.035V12.881a1.923 1.923 0 011.923-1.923z"/><rect x="16" y="4" rx="2.254" width="40" height="64" fill="none" stroke="#00a5ff" stroke-miterlimit="10" stroke-width=".1"/><rect x="16" y="4" rx="2.254" width="40" height="64" transform="rotate(90 36 36)" fill="none" stroke="#00a5ff" stroke-miterlimit="10" stroke-width=".1"/><circle cx="36" cy="36" r="29" fill="none" stroke="#00a5ff" stroke-miterlimit="10" stroke-width=".1"/><g stroke-linecap="round" stroke-miterlimit="10" stroke-width="6" stroke="#fff" fill="none" stroke-linejoin="round"><path d="M21 25.975s24.789 1.29 40-9.142M21 44.884s24.789-1.29 40 9.142M14.213 25.975H21V44.61h0-6.787a2 2 0 01-2-2V27.975a2 2 0 012-2z"/><rect x="61" y="15.289" rx="2" width="6" height="40.007"/><path d="M21 44.919l2.835 15.039h-6.489l-2.835-15.039M21 25.975s24.789 1.29 40-9.142M21 44.884s24.789-1.29 40 9.142M12.213 28.795H9.727a2 2 0 00-2 2v8.922a2 2 0 002 2h2.486M15 41h3"/></g><path fill="#d0cfce" d="M21 45v-4.116s25.392-.507 40 8.546v4.596c-15.211-10.431-40-9.142-40-9.142"/><path fill="#d22f27" d="M14.213 25.975H21V44.61h-6.787a2 2 0 01-2-2V27.975a2 2 0 012-2z"/><rect x="61" y="15.289" rx="2" width="6" height="40.007" fill="#ea5a47"/><path fill="#9b9b9a" d="M21 44.919l2.835 15.039h-6.489l-2.835-15.039"/><path fill="#ea5a47" d="M12.213 28.795H9.727a2 2 0 00-2 2v8.922a2 2 0 002 2h2.486"/><g fill="none" stroke="#000" stroke-linecap="round" stroke-linejoin="round" stroke-width="2"><path d="M21 25.975s24.789 1.29 40-9.142M21 44.884s24.789-1.29 40 9.142M14.213 25.975H21V44.61h0-6.787a2 2 0 01-2-2V27.975a2 2 0 012-2z"/><rect x="61" y="15.289" rx="2" width="6" height="40.007"/><path d="M21 44.919l2.835 15.039h-6.489l-2.835-15.039M21 25.975s24.789 1.29 40-9.142M21 44.884s24.789-1.29 40 9.142M12.213 28.795H9.727a2 2 0 00-2 2v8.922a2 2 0 002 2h2.486M15 41h3"/></g></svg>