<svg viewBox="0 0 72 72" xmlns="http://www.w3.org/2000/svg"><path fill="#b3b3b3" d="M68 4v64H4V4h64m4-4H0v72h72V0z"/><path fill="none" stroke="#00a5ff" stroke-miterlimit="10" stroke-width=".1" d="M12.923 10.958h46.154A1.923 1.923 0 0161 12.881v46.154a1.923 1.923 0 01-1.923 1.923H12.923A1.923 1.923 0 0111 59.035V12.881a1.923 1.923 0 011.923-1.923z"/><rect x="16" y="4" rx="2.254" width="40" height="64" fill="none" stroke="#00a5ff" stroke-miterlimit="10" stroke-width=".1"/><rect x="16" y="4" rx="2.254" width="40" height="64" transform="rotate(90 36 36)" fill="none" stroke="#00a5ff" stroke-miterlimit="10" stroke-width=".1"/><circle cx="36" cy="36" r="29" fill="none" stroke="#00a5ff" stroke-miterlimit="10" stroke-width=".1"/><path d="M43.219 11.375L26.784 24.721H14.072a3.01 3.01 0 00-3 3v16.692a3.01 3.01 0 003 3h12.712L43.22 60.541l-.001-49.166zM26.784 25.333v21.25m27.89-21.971a18.91 18.91 0 010 22.692" stroke-linecap="round" stroke-miterlimit="10" stroke-width="6" stroke="#fff" fill="none" stroke-linejoin="round"/><path fill="#9b9b9a" d="M12.08 44.411V27.717a2 2 0 012-2h11.71V46.41H14.08a2 2 0 01-2-1.998z"/><path fill="#d0cfce" d="M42.268 58.433l-14.5-11.579a.977.977 0 00.061-.3v-21.25a.937.937 0 00-.024-.117l14.46-11.74.003 44.986z"/><g fill="none" stroke="#000" stroke-linecap="round" stroke-width="2"><path stroke-linejoin="round" d="M43.219 11.375L26.784 24.721H14.072a3.01 3.01 0 00-3 3v16.692a3.01 3.01 0 003 3h12.712L43.22 60.541l-.001-49.166zM26.784 25.333v21.25"/><path stroke-miterlimit="10" d="M54.674 24.612a18.91 18.91 0 010 22.692"/></g></svg>