<svg viewBox="0 0 72 72" xmlns="http://www.w3.org/2000/svg"><path fill="#b3b3b3" d="M68 4v64H4V4h64m4-4H0v72h72V0z"/><path fill="none" stroke="#00a5ff" stroke-miterlimit="10" stroke-width=".1" d="M12.923 10.958h46.154A1.923 1.923 0 0161 12.881v46.154a1.923 1.923 0 01-1.923 1.923H12.923A1.923 1.923 0 0111 59.035V12.881a1.923 1.923 0 011.923-1.923z"/><rect x="16" y="4" rx="2.254" width="40" height="64" fill="none" stroke="#00a5ff" stroke-miterlimit="10" stroke-width=".1"/><rect x="16" y="4" rx="2.254" width="40" height="64" transform="rotate(90 36 36)" fill="none" stroke="#00a5ff" stroke-miterlimit="10" stroke-width=".1"/><circle cx="36" cy="36" r="29" fill="none" stroke="#00a5ff" stroke-miterlimit="10" stroke-width=".1"/><path d="M50.22 45.488l-.001-34.113-16.435 13.346h-4.128m-9.426.122a3.01 3.01 0 00-2.158 2.878v16.692a3.01 3.01 0 003 3h12.712L50.22 60.541v-5.659M33.784 25.333V29m0 10v8.051M11.605 11.783l48.5 48.499" stroke-linecap="round" stroke-miterlimit="10" stroke-width="6" stroke="#fff" fill="none" stroke-linejoin="round"/><g stroke-miterlimit="10"><path fill="#d0cfce" stroke="#d0cfce" stroke-linecap="round" stroke-linejoin="round" stroke-width="2" d="M33.77 47.413l16.436 13.128V11.375L33.77 24.721m-.055.08v21.25"/><path fill="#9b9b9a" stroke="#9b9b9a" stroke-width="1.938" d="M32.793 24.721H20.855c-1.554.005-2.812 1.345-2.817 3v16.692c.005 1.655 1.263 2.995 2.817 3h11.938"/></g><path d="M50.22 45.488l-.001-34.113-16.435 13.346h-4.128m-9.426.122a3.01 3.01 0 00-2.158 2.878v16.692a3.01 3.01 0 003 3h12.712L50.22 60.541v-5.659M33.784 25.333V29m0 10v8.051M11.605 11.783l48.5 48.499" fill="none" stroke="#000" stroke-linecap="round" stroke-linejoin="round" stroke-width="2"/></svg>