<svg viewBox="0 0 72 72" xmlns="http://www.w3.org/2000/svg"><path fill="#b3b3b3" d="M68 4v64H4V4h64m4-4H0v72h72V0z"/><path fill="none" stroke="#00a5ff" stroke-miterlimit="10" stroke-width=".1" d="M12.923 10.958h46.154A1.923 1.923 0 0161 12.881v46.154a1.923 1.923 0 01-1.923 1.923H12.923A1.923 1.923 0 0111 59.035V12.881a1.923 1.923 0 011.923-1.923z"/><rect x="16" y="4" rx="2.254" width="40" height="64" fill="none" stroke="#00a5ff" stroke-miterlimit="10" stroke-width=".1"/><rect x="16" y="4" rx="2.254" width="40" height="64" transform="rotate(90 36 36)" fill="none" stroke="#00a5ff" stroke-miterlimit="10" stroke-width=".1"/><circle cx="36" cy="36" r="29" fill="none" stroke="#00a5ff" stroke-miterlimit="10" stroke-width=".1"/><g stroke-linecap="round" stroke-miterlimit="10" stroke-width="6" stroke="#fff" fill="none" stroke-linejoin="round"><path d="M30.105 13.283a5 5 0 0110 0M40.087 60a5 5 0 01-8.966-.002"/><path d="M53.464 49.77a42.349 42.349 0 01-.613-2.573c-1.352-6.584-1.88-15.515-2.246-19.415-.775-8.247-6.716-15-15-15h-.5c-4.945 0-9.055 2.406-11.73 6.1m-3.117 7.682c-.063.402-.115.808-.153 1.218-.367 3.9-.894 12.831-2.246 19.415-1.195 5.82-3.254 9.585-3.254 9.585h35.5m-38.5-43.999l47.5 47.499"/></g><g stroke-miterlimit="10" stroke-width="2"><circle cx="35.61" cy="57.772" r="5" fill="#f1b31c" stroke="#f1b31c"/><path fill="#fcea2b" stroke="#fcea2b" stroke-linecap="round" stroke-linejoin="round" d="M56.105 56.782s-2.059-3.766-3.254-9.585c-1.352-6.584-1.88-15.515-2.246-19.415-.775-8.247-6.716-15-15-15h-.5c-8.284 0-14.225 6.753-15 15-.367 3.9-.894 12.831-2.246 19.415-1.196 5.82-3.254 9.585-3.254 9.585h41.5z"/></g><g fill="none" stroke="#000" stroke-linecap="round" stroke-linejoin="round" stroke-width="2"><path d="M30.105 13.283a5 5 0 0110 0M40.087 60a5 5 0 01-8.966-.002"/><path stroke-miterlimit="10" d="M53.464 49.77a42.349 42.349 0 01-.613-2.573c-1.352-6.584-1.88-15.515-2.246-19.415-.775-8.247-6.716-15-15-15h-.5c-4.945 0-9.055 2.406-11.73 6.1m-3.117 7.682c-.063.402-.115.808-.153 1.218-.367 3.9-.894 12.831-2.246 19.415-1.195 5.82-3.254 9.585-3.254 9.585h35.5"/><path d="M11.605 12.783l47.5 47.499"/></g></svg>