<svg viewBox="0 0 72 72" xmlns="http://www.w3.org/2000/svg"><path fill="#b3b3b3" d="M68 4v64H4V4h64m4-4H0v72h72V0z"/><path fill="none" stroke="#00a5ff" stroke-miterlimit="10" stroke-width=".1" d="M12.923 10.958h46.154A1.923 1.923 0 0161 12.881v46.154a1.923 1.923 0 01-1.923 1.923H12.923A1.923 1.923 0 0111 59.035V12.881a1.923 1.923 0 011.923-1.923z"/><rect x="16" y="4" rx="2.254" width="40" height="64" fill="none" stroke="#00a5ff" stroke-miterlimit="10" stroke-width=".1"/><rect x="16" y="4" rx="2.254" width="40" height="64" transform="rotate(90 36 36)" fill="none" stroke="#00a5ff" stroke-miterlimit="10" stroke-width=".1"/><circle cx="36" cy="36" r="29" fill="none" stroke="#00a5ff" stroke-miterlimit="10" stroke-width=".1"/><g stroke-linecap="round" stroke-miterlimit="10" stroke-width="6" stroke="#fff" fill="none" stroke-linejoin="round"><path d="M40 44c7 1 9 1 9 1 3 0 1 6 1 6 4-2 5-7 5-7 14-2 14-6 14-6l-12.32-3.79a6.239 6.239 0 01-1.3-.568C49.115 29.996 50.845 29.877 46 26c-5-4-10-4-10-4 4 4 3 9 3 9-4 7-21 6-21 6-4-5-14-5-14-5s7 5 8 9-1 8-1 8c4-3 7.25-8.667 7.25-8.667L27 42"/><path d="M37 43s-2.928 1.668-3.478 3.836c0 0-2.594-2.504-4.548-2.078l4.458-3.02M45 37s2 2 0 5m2-5s2 2 0 5m2-5s2 2 0 5"/></g><path fill="#9B9B9A" d="M18.25 40.965S15 46.828 11 49.931c0 0 2-4.138 1-8.276s-8-9.31-8-9.31 10 0 14 5.172c0 0 17 1.035 21-6.207 0 0 1-5.172-3-9.31 0 0 5 0 10 4.138 4.846 4.01 3.116 4.134 9.38 7.905a6.13 6.13 0 001.3.588L69 38.55s0 4.139-14 6.208c0 0-1 5.172-5 7.241 0 0 2-6.207-1-6.207 0 0-2 0-9-1.034"/><path fill="#D0CFCE" d="M37.505 42.314s-3.132 1.905-3.679 4.455c0 0-2.866-3.02-4.972-2.56l4.759-3.47M44.556 37s4.25 2 0 5m2-5s4.25 2 0 5m2-5s4.25 2 0 5"/><g fill="none" stroke="#000" stroke-linecap="round" stroke-linejoin="round" stroke-miterlimit="10"><path stroke-width="2" d="M40 44c7 1 9 1 9 1 3 0 1 6 1 6 4-2 5-7 5-7 14-2 14-6 14-6l-12.32-3.79a6.239 6.239 0 01-1.3-.568C49.115 29.996 50.845 29.877 46 26c-5-4-10-4-10-4 4 4 3 9 3 9-4 7-21 6-21 6-4-5-14-5-14-5s7 5 8 9-1 8-1 8c4-3 7.25-8.667 7.25-8.667L27 42"/><path stroke-width="2" d="M37 43s-2.928 1.668-3.478 3.836c0 0-2.594-2.504-4.548-2.078l4.458-3.02"/><path d="M45 37s2 2 0 5m2-5s2 2 0 5m2-5s2 2 0 5"/></g></svg>