<svg viewBox="0 0 72 72" xmlns="http://www.w3.org/2000/svg"><path fill="#b3b3b3" d="M68 4v64H4V4h64m4-4H0v72h72V0z"/><path fill="none" stroke="#00a5ff" stroke-miterlimit="10" stroke-width=".1" d="M12.923 10.958h46.154A1.923 1.923 0 0161 12.881v46.154a1.923 1.923 0 01-1.923 1.923H12.923A1.923 1.923 0 0111 59.035V12.881a1.923 1.923 0 011.923-1.923z"/><rect x="16" y="4" rx="2.254" width="40" height="64" fill="none" stroke="#00a5ff" stroke-miterlimit="10" stroke-width=".1"/><rect x="16" y="4" rx="2.254" width="40" height="64" transform="rotate(90 36 36)" fill="none" stroke="#00a5ff" stroke-miterlimit="10" stroke-width=".1"/><circle cx="36" cy="36" r="29" fill="none" stroke="#00a5ff" stroke-miterlimit="10" stroke-width=".1"/><g stroke-linecap="round" stroke-miterlimit="10" stroke-width="6" stroke="#fff" fill="none" stroke-linejoin="round"><path d="M47 59.423V11.668a.868.868 0 00-.868-.868H33.44a.868.868 0 00-.58.223l-6.11 5.497a.868.868 0 00-.113 1.167l1.286 1.714a.869.869 0 01.082.909l-8.162 16.323a.868.868 0 00.776 1.257h4.137c.645 0 1.065.68.776 1.257l-2.753 5.506a.868.868 0 00-.091.388v5.873c0 .48.388.868.868.868h8.683c.48 0 .868.389.868.869v6.598c0 .48.389.869.868.869h12.156c.48 0 .868-.215.868-.695zM22.689 44.836h5.556"/><path d="M41.138 31.638v13.198h1.612M29.346 26.5l7.641-6.514h-4.206"/></g><path fill="#D0CFCE" d="M47 59.423V11.668a.868.868 0 00-.868-.868H33.44a.868.868 0 00-.58.223l-6.11 5.497a.868.868 0 00-.113 1.167l1.286 1.714a.869.869 0 01.082.909l-8.162 16.323a.868.868 0 00.776 1.257h4.137c.645 0 1.065.68.776 1.257l-2.753 5.506a.868.868 0 00-.091.388v5.873c0 .48.388.868.868.868h8.683c.48 0 .868.389.868.869v6.598c0 .48.389.869.868.869h12.156c.48 0 .868-.215.868-.695z"/><path fill="#d0cfce" d="M41.138 31.638v13.198h1.612"/><g stroke="#000" stroke-miterlimit="10" stroke-width="2"><path fill="none" d="M47 59.423V11.668a.868.868 0 00-.868-.868H33.44a.868.868 0 00-.58.223l-6.11 5.497a.868.868 0 00-.113 1.167l1.286 1.714a.869.869 0 01.082.909l-8.162 16.323a.868.868 0 00.776 1.257h4.137c.645 0 1.065.68.776 1.257l-2.753 5.506a.868.868 0 00-.091.388v5.873c0 .48.388.868.868.868h8.683c.48 0 .868.389.868.869v6.598c0 .48.389.869.868.869h12.156c.48 0 .868-.215.868-.695z"/><path stroke-linecap="round" stroke-linejoin="round" d="M22.689 44.836h5.556"/><path fill="none" stroke-linecap="round" stroke-linejoin="round" d="M41.138 31.638v13.198h1.612M29.346 26.5l7.641-6.514h-4.206"/></g></svg>