<svg viewBox="0 0 72 72" xmlns="http://www.w3.org/2000/svg"><path fill="#b3b3b3" d="M68 4v64H4V4h64m4-4H0v72h72V0z"/><path fill="none" stroke="#00a5ff" stroke-miterlimit="10" stroke-width=".1" d="M12.923 10.958h46.154A1.923 1.923 0 0161 12.881v46.154a1.923 1.923 0 01-1.923 1.923H12.923A1.923 1.923 0 0111 59.035V12.881a1.923 1.923 0 011.923-1.923z"/><rect x="16" y="4" rx="2.254" width="40" height="64" fill="none" stroke="#00a5ff" stroke-miterlimit="10" stroke-width=".1"/><rect x="16" y="4" rx="2.254" width="40" height="64" transform="rotate(90 36 36)" fill="none" stroke="#00a5ff" stroke-miterlimit="10" stroke-width=".1"/><circle cx="36" cy="36" r="29" fill="none" stroke="#00a5ff" stroke-miterlimit="10" stroke-width=".1"/><g stroke-linecap="round" stroke-miterlimit="10" stroke-width="6" stroke="#fff" fill="none" stroke-linejoin="round"><path d="M16.963 16.119h38.074v24.75H16.963zm22.188 28.083v15.566H32.85V44.202m0-28.083v-3.97h6.301v3.97"/><path d="M23.586 35.175a10.022 10.022 0 011.85-3.665c.153-.191.36-.395.601-.355a.683.683 0 01.38.273c.93 1.113 1.41 2.579 2.478 3.559a1.017 1.017 0 00.439.269c.457.105.834-.34 1.112-.717a12.007 12.007 0 012.422-2.452 2.094 2.094 0 01.955-.473 2.012 2.012 0 011.737 1.075 4.463 4.463 0 001.392 1.608.624.624 0 00.49.077.713.713 0 00.29-.246c1.045-1.298 1.731-3.173 3.358-3.534a18.98 18.98 0 001.076 3.012c.109.238.3.515.556.462a.597.597 0 00.282-.191l3.186-3.225 2.224 3.897m-24.858-7.444a14.593 14.593 0 013.536-5.043 38.612 38.612 0 003.055 3.12 2.194 2.194 0 001.876.796 2.302 2.302 0 001.081-.864 33.734 33.734 0 012.616-2.782 2.061 2.061 0 01.906-.589 1.81 1.81 0 011.746 1.027 5.379 5.379 0 001.262 1.734.723.723 0 00.567.152.93.93 0 00.41-.297 13.768 13.768 0 012.66-2.153 1.776 1.776 0 011.435-.36 1.885 1.885 0 01.881.86l2.092 3.241"/></g><path fill="#fff" d="M55.037 42.06H16.963a1.19 1.19 0 01-1.19-1.19V16.119a1.19 1.19 0 011.19-1.19h38.074a1.19 1.19 0 011.19 1.19v24.75a1.19 1.19 0 01-1.19 1.191z"/><path fill="#d0cfce" d="M44.518 16.119h10.519v24.75H44.518z"/><path fill="#a57939" d="M40.15 40.869v18.898a1 1 0 01-1 1h-6.3a1 1 0 01-1-1V40.87zm-8.3-24.75v-3.97a1 1 0 011-1h6.3a1 1 0 011 1v3.97z"/><g fill="none" stroke="#000" stroke-linecap="round" stroke-linejoin="round" stroke-width="2"><path d="M16.963 16.119h38.074v24.75H16.963zm22.188 28.083v15.566H32.85V44.202m0-28.083v-3.97h6.301v3.97"/><path d="M23.586 35.175a10.022 10.022 0 011.85-3.665c.153-.191.36-.395.601-.355a.683.683 0 01.38.273c.93 1.113 1.41 2.579 2.478 3.559a1.017 1.017 0 00.439.269c.457.105.834-.34 1.112-.717a12.007 12.007 0 012.422-2.452 2.094 2.094 0 01.955-.473 2.012 2.012 0 011.737 1.075 4.463 4.463 0 001.392 1.608.624.624 0 00.49.077.713.713 0 00.29-.246c1.045-1.298 1.731-3.173 3.358-3.534a18.98 18.98 0 001.076 3.012c.109.238.3.515.556.462a.597.597 0 00.282-.191l3.186-3.225 2.224 3.897m-24.858-7.444a14.593 14.593 0 013.536-5.043 38.612 38.612 0 003.055 3.12 2.194 2.194 0 001.876.796 2.302 2.302 0 001.081-.864 33.734 33.734 0 012.616-2.782 2.061 2.061 0 01.906-.589 1.81 1.81 0 011.746 1.027 5.379 5.379 0 001.262 1.734.723.723 0 00.567.152.93.93 0 00.41-.297 13.768 13.768 0 012.66-2.153 1.776 1.776 0 011.435-.36 1.885 1.885 0 01.881.86l2.092 3.241"/></g></svg>