<svg viewBox="0 0 72 72" xmlns="http://www.w3.org/2000/svg"><path fill="#b3b3b3" d="M68 4v64H4V4h64m4-4H0v72h72V0z"/><path fill="none" stroke="#00a5ff" stroke-miterlimit="10" stroke-width=".1" d="M12.923 10.958h46.154A1.923 1.923 0 0161 12.881v46.154a1.923 1.923 0 01-1.923 1.923H12.923A1.923 1.923 0 0111 59.035V12.881a1.923 1.923 0 011.923-1.923z"/><rect x="16" y="4" rx="2.254" width="40" height="64" fill="none" stroke="#00a5ff" stroke-miterlimit="10" stroke-width=".1"/><rect x="16" y="4" rx="2.254" width="40" height="64" transform="rotate(90 36 36)" fill="none" stroke="#00a5ff" stroke-miterlimit="10" stroke-width=".1"/><circle cx="36" cy="36" r="29" fill="none" stroke="#00a5ff" stroke-miterlimit="10" stroke-width=".1"/><path d="M36.334 22v16m-4.8-11.367h9.6M31.632 67.6h9.064a3 3 0 002.858-2.088l12.352-38.705a3 3 0 00-.329-2.526L43.772 5.786A3 3 0 0041.243 4.4H31.085a3 3 0 00-2.53 1.386L16.752 24.28a3 3 0 00-.33 2.526l12.353 38.705a3 3 0 002.858 2.088z" stroke-linecap="round" stroke-miterlimit="10" stroke-width="6" stroke="#fff" fill="none" stroke-linejoin="round"/><path fill="#A57939" stroke="#A57939" stroke-miterlimit="10" stroke-width="2" d="M31.632 67.6h9.064a3 3 0 002.858-2.088l12.352-38.705a3 3 0 00-.329-2.526L43.772 5.786A3 3 0 0041.243 4.4H31.085a3 3 0 00-2.53 1.386L16.752 24.28a3 3 0 00-.33 2.526l12.353 38.705a3 3 0 002.858 2.088z"/><path fill="#f4aa41" d="M36.334 22v16m-4.8-11.367h9.6"/><path fill="#6A462F" stroke="#6A462F" stroke-linejoin="round" stroke-miterlimit="10" d="M39.25 4.4l8.25 22.1-8.25 41.1 2.25-.1L56 25.382 41.5 4.5z"/><g fill="none" stroke="#000" stroke-miterlimit="10" stroke-width="2"><path stroke-linecap="round" d="M36.334 22v16m-4.8-11.367h9.6"/><path d="M31.632 67.6h9.064a3 3 0 002.858-2.088l12.352-38.705a3 3 0 00-.329-2.526L43.772 5.786A3 3 0 0041.243 4.4H31.085a3 3 0 00-2.53 1.386L16.752 24.28a3 3 0 00-.33 2.526l12.353 38.705a3 3 0 002.858 2.088z"/></g></svg>