<svg viewBox="0 0 72 72" xmlns="http://www.w3.org/2000/svg"><path fill="#b3b3b3" d="M68 4v64H4V4h64m4-4H0v72h72V0z"/><path fill="none" stroke="#00a5ff" stroke-miterlimit="10" stroke-width=".1" d="M12.923 10.958h46.154A1.923 1.923 0 0161 12.881v46.154a1.923 1.923 0 01-1.923 1.923H12.923A1.923 1.923 0 0111 59.035V12.881a1.923 1.923 0 011.923-1.923z"/><rect x="16" y="4" rx="2.254" ry="2.254" width="40" height="64" fill="none" stroke="#00a5ff" stroke-miterlimit="10" stroke-width=".1"/><rect x="16" y="4" rx="2.254" ry="2.254" width="40" height="64" transform="rotate(90 36 36)" fill="none" stroke="#00a5ff" stroke-miterlimit="10" stroke-width=".1"/><circle cx="36" cy="36" r="29" fill="none" stroke="#00a5ff" stroke-miterlimit="10" stroke-width=".1"/><path d="M5 17h62v38H5z" stroke-linecap="round" stroke-miterlimit="10" stroke-width="6" stroke="#fff" fill="none" stroke-linejoin="round"/><path fill="#1e50a0" stroke="#d22f27" stroke-linecap="round" stroke-linejoin="round" d="M5 17h62v38H5z"/><path fill="#fff" d="M5 17v38l62-38H5z"/><g fill="#d22f27" stroke="#d22f27" stroke-linecap="round" stroke-linejoin="round"><path d="M19.518 31l3.614 6.259h-7.228L19.518 31z"/><path d="M19.518 39.345l-3.614-6.259h7.228l-3.614 6.259z"/></g><circle cx="19.518" cy="35.173" r="6" fill="none" stroke="#000" stroke-miterlimit="10"/><path fill="#f1b31c" d="M5 17v16l25-16H5z"/><g><path fill="none" stroke="#000" stroke-linecap="round" stroke-linejoin="round" stroke-width="2" d="M5 17h62v38H5z"/></g></svg>