<svg viewBox="0 0 72 72" xmlns="http://www.w3.org/2000/svg"><path fill="#b3b3b3" d="M68 4v64H4V4h64m4-4H0v72h72V0z"/><path fill="none" stroke="#00a5ff" stroke-miterlimit="10" stroke-width=".1" d="M12.923 10.958h46.154A1.923 1.923 0 0161 12.881v46.154a1.923 1.923 0 01-1.923 1.923H12.923A1.923 1.923 0 0111 59.035V12.881a1.923 1.923 0 011.923-1.923z"/><rect x="16" y="4" rx="2.254" ry="2.254" width="40" height="64" fill="none" stroke="#00a5ff" stroke-miterlimit="10" stroke-width=".1"/><rect x="16" y="4" rx="2.254" ry="2.254" width="40" height="64" transform="rotate(90 36 36)" fill="none" stroke="#00a5ff" stroke-miterlimit="10" stroke-width=".1"/><circle cx="36" cy="36" r="29" fill="none" stroke="#00a5ff" stroke-miterlimit="10" stroke-width=".1"/><path d="M5 17h62v38H5z" stroke-linecap="round" stroke-miterlimit="10" stroke-width="6" stroke="#fff" fill="none" stroke-linejoin="round"/><path fill="#fff" d="M5 17h62v38H5z"/><path fill="#d22f27" stroke="#d22f27" stroke-linecap="round" stroke-linejoin="round" stroke-width="2" d="M27 32h18v9H27zm7-10h4v9h-4z"/><path fill="#d22f27" stroke="#d22f27" stroke-linecap="round" stroke-linejoin="round" stroke-width="2" d="M43 25h2v10h-2zm-16 0h2v10h-2z"/><path fill="#d22f27" stroke="#000" stroke-linecap="round" stroke-linejoin="round" stroke-width="4" d="M30 37v5m6-5v5m6-5v5"/><path fill="#d22f27" d="M5 45h62v10H5z"/><path fill="none" stroke="#fcea2b" stroke-linecap="round" stroke-linejoin="round" stroke-width="2" d="M36 45v6"/><path fill="#fff" d="M4.5 42h62v3h-62z"/><g><path fill="none" stroke="#000" stroke-linecap="round" stroke-linejoin="round" stroke-width="2" d="M5 17h62v38H5z"/></g></svg>