<svg viewBox="0 0 72 72" xmlns="http://www.w3.org/2000/svg"><path fill="#b3b3b3" d="M68 4v64H4V4h64m4-4H0v72h72V0z"/><path fill="none" stroke="#00a5ff" stroke-miterlimit="10" stroke-width=".1" d="M12.923 10.958h46.154A1.923 1.923 0 0161 12.881v46.154a1.923 1.923 0 01-1.923 1.923H12.923A1.923 1.923 0 0111 59.035V12.881a1.923 1.923 0 011.923-1.923z"/><rect x="16" y="4" rx="2.254" ry="2.254" width="40" height="64" fill="none" stroke="#00a5ff" stroke-miterlimit="10" stroke-width=".1"/><rect x="16" y="4" rx="2.254" ry="2.254" width="40" height="64" transform="rotate(90 36 36)" fill="none" stroke="#00a5ff" stroke-miterlimit="10" stroke-width=".1"/><circle cx="36" cy="36" r="29" fill="none" stroke="#00a5ff" stroke-miterlimit="10" stroke-width=".1"/><path d="M5 17h62v38H5z" stroke-linecap="round" stroke-miterlimit="10" stroke-width="6" stroke="#fff" fill="none" stroke-linejoin="round"/><path fill="#fff" d="M5 17h62v38H5z"/><path fill="#fcea2b" stroke="#fcea2b" stroke-linecap="round" stroke-linejoin="round" d="M43.5 25.91l1-3h-17l1 3h15z"/><path fill="#1e50a0" stroke="#1e50a0" stroke-linecap="round" stroke-linejoin="round" d="M36 45.91s7.5-2.5 7.5-10v-10h-15v10c0 7.5 7.5 10 7.5 10z"/><path fill="#d22f27" stroke="#d22f27" stroke-miterlimit="10" d="M28.5 32.41v3.5a10.184 10.184 0 00.306 2.5h14.388a10.184 10.184 0 00.306-2.5v-3.5z"/><g fill="#fcea2b" stroke="#fcea2b" stroke-linecap="round" stroke-linejoin="round"><path d="M36 30.16v-2.5m-.625.834h1.25M40.5 30.16v-2.5m-.625.834h1.25M31.5 30.16v-2.5m-.625.834h1.25"/></g><path d="M36 36.66v-2.5m1.25 1.25h-2.5" fill="#fff" stroke="#fff" stroke-linecap="round" stroke-linejoin="round"/><circle cx="36" cy="43.91" r="1" fill="#fcea2b"/><circle cx="33" cy="40.91" r="1" fill="#fcea2b"/><circle cx="39" cy="40.91" r="1" fill="#fcea2b"/><path fill="none" stroke="#a57939" stroke-linecap="round" stroke-linejoin="round" stroke-width="2" d="M47 46.27a23.092 23.092 0 01-11 2.82m-11-2.82a23.093 23.093 0 0011 2.82"/><g><path fill="none" stroke="#000" stroke-linecap="round" stroke-linejoin="round" stroke-width="2" d="M5 17h62v38H5z"/></g></svg>