<svg viewBox="0 0 72 72" xmlns="http://www.w3.org/2000/svg"><path fill="#b3b3b3" d="M68 4v64H4V4h64m4-4H0v72h72V0z"/><path fill="none" stroke="#00a5ff" stroke-miterlimit="10" stroke-width=".1" d="M12.92 10.96h46.15a1.923 1.923 0 011.923 1.923v46.15a1.923 1.923 0 01-1.923 1.923H12.92a1.923 1.923 0 01-1.923-1.923v-46.15a1.923 1.923 0 011.923-1.923z"/><rect x="16" y="4" rx="2.254" ry="2.254" width="40" height="64" fill="none" stroke="#00a5ff" stroke-miterlimit="10" stroke-width=".1"/><rect x="16" y="4" rx="2.254" ry="2.254" width="40" height="64" transform="rotate(90 36 36)" fill="none" stroke="#00a5ff" stroke-miterlimit="10" stroke-width=".1"/><circle cx="36" cy="36" r="29" fill="none" stroke="#00a5ff" stroke-miterlimit="10" stroke-width=".1"/><path d="M5 17h62v38H5z" stroke-linecap="round" stroke-miterlimit="10" stroke-width="6" stroke="#fff" fill="none" stroke-linejoin="round"/><path fill="#d22f27" d="M5 17h62v38H5z"/><path fill="#f1b31c" d="M5 17v38l62-38z"/><path fill="none" stroke="#fff" stroke-linecap="round" stroke-linejoin="round" stroke-width="3" d="M46.24 27.67c.201.14-9.044-2.459-5.06 6.075 3.623 7.761-10.23-2.525-11.32 3.865-.743 4.356-3.086 7.037-7.395 7.782"/><path fill="none" stroke="#fff" stroke-linecap="round" stroke-linejoin="round" stroke-width="2" d="M40.81 32.58c2.651 1.756 5.4 3.373 7.745 1.011M41.33 36.44c-.966 4.229-.449 4.465 2.864 5.502"/><circle cx="46.92" cy="43.06" r="1.5" fill="#fff"/><circle cx="51.01" cy="32.07" r="1.5" fill="#fff"/><circle cx="35.19" cy="47.37" r="1" fill="#fff" transform="matrix(1.5 0 0 1.5 -22.39 -22.64)"/><path fill="none" stroke="#fff" stroke-linecap="round" stroke-linejoin="round" stroke-width="2" d="M29.21 40.36c1.304 2.327 1.453 3.054 1.085 5.196M29.3 38.71c1.54.539 2.636 1.603 4.377 1.421"/><circle cx="35.19" cy="47.37" r="1" fill="#fff" transform="matrix(1.5 0 0 1.5 -16.34 -31.18)"/><g><path fill="none" stroke="#000" stroke-linecap="round" stroke-linejoin="round" stroke-width="2" d="M5 17h62v38H5z"/></g></svg>