<svg viewBox="0 0 72 72" xmlns="http://www.w3.org/2000/svg"><path fill="#b3b3b3" d="M68 4v64H4V4h64m4-4H0v72h72V0z"/><path fill="none" stroke="#00a5ff" stroke-miterlimit="10" stroke-width=".1" d="M12.923 10.958h46.154A1.923 1.923 0 0161 12.881v46.154a1.923 1.923 0 01-1.923 1.923H12.923A1.923 1.923 0 0111 59.035V12.881a1.923 1.923 0 011.923-1.923z"/><rect x="16" y="4" rx="2.254" ry="2.254" width="40" height="64" fill="none" stroke="#00a5ff" stroke-miterlimit="10" stroke-width=".1"/><rect x="16" y="4" rx="2.254" ry="2.254" width="40" height="64" transform="rotate(90 36 36)" fill="none" stroke="#00a5ff" stroke-miterlimit="10" stroke-width=".1"/><circle cx="36" cy="36" r="29" fill="none" stroke="#00a5ff" stroke-miterlimit="10" stroke-width=".1"/><path d="M5 17h62v38H5z" stroke-linecap="round" stroke-miterlimit="10" stroke-width="6" stroke="#fff" fill="none" stroke-linejoin="round"/><path fill="#1e50a0" d="M5 17h62v38H5z"/><path fill="#fff" stroke="#fff" stroke-linecap="round" stroke-linejoin="round" d="M54.233 38.945l.927-3 .927 3-2.427-1.855 3 .001-2.427 1.854zM20.5 46.999l-1.558 1.477.155-2.17L17 45.978l1.75-1.23-1.057-1.886 2.028.637.779-2.023.779 2.023 2.028-.637-1.057 1.886 1.75 1.23-2.097.328.155 2.17-1.558-1.477zm24-11.578l-1.113 1.055.111-1.55L42 34.691l1.25-.878-.755-1.347 1.449.455.556-1.445.556 1.445 1.449-.455-.755 1.347 1.25.878-1.498.235.111 1.55-1.113-1.055zm15-3l-1.113 1.055.111-1.55L57 31.691l1.25-.878-.755-1.347 1.449.455.556-1.445.556 1.445 1.449-.455-.755 1.347 1.25.878-1.498.235.111 1.55-1.113-1.055zm-8-6l-1.113 1.055.111-1.55L49 25.691l1.25-.878-.755-1.347 1.449.455.556-1.445.556 1.445 1.449-.455-.755 1.347 1.25.878-1.498.235.111 1.55-1.113-1.055zm0 21l-1.113 1.055.111-1.55L49 46.691l1.25-.878-.755-1.347 1.449.455.556-1.445.556 1.445 1.449-.455-.755 1.347 1.25.878-1.498.235.111 1.55-1.113-1.055z"/><path fill="#fff" d="M9.887 18H6v2.332L32.113 36H36v-2.332L9.887 18z"/><path fill="#fff" d="M36 20.332V18h-3.887L6 33.668V36h3.887L36 20.332z"/><path fill="#fff" d="M6 24h30v6H6z"/><path fill="#fff" d="M18 18h6v18h-6z"/><path fill="#d22f27" d="M20 18h2v18h-2z"/><path fill="#d22f27" d="M6 26h30v2H6zm30 7.668L29.887 30H26l10 6v-2.332zM36 18h-3.887L24 22.868V24h2.001L36 18.001V18zM6 20.332L12.113 24h3.888l-10-6-.001.001v2.331zM6 36h3.887L18 31.132V30h-2L6 35.999V36z"/><g><path fill="none" stroke="#000" stroke-linecap="round" stroke-linejoin="round" stroke-width="2" d="M5 17h62v38H5z"/></g></svg>