<svg viewBox="0 0 72 72" xmlns="http://www.w3.org/2000/svg"><path fill="#b3b3b3" d="M68 4v64H4V4h64m4-4H0v72h72V0z"/><path fill="none" stroke="#00a5ff" stroke-miterlimit="10" stroke-width=".1" d="M12.923 10.958h46.154A1.923 1.923 0 0161 12.881v46.154a1.923 1.923 0 01-1.923 1.923H12.923A1.923 1.923 0 0111 59.035V12.881a1.923 1.923 0 011.923-1.923z"/><rect x="16" y="4" rx="2.254" ry="2.254" width="40" height="64" fill="none" stroke="#00a5ff" stroke-miterlimit="10" stroke-width=".1"/><rect x="16" y="4" rx="2.254" ry="2.254" width="40" height="64" transform="rotate(90 36 36)" fill="none" stroke="#00a5ff" stroke-miterlimit="10" stroke-width=".1"/><circle cx="36" cy="36" r="29" fill="none" stroke="#00a5ff" stroke-miterlimit="10" stroke-width=".1"/><path d="M5 17h62v38H5z" stroke-linecap="round" stroke-miterlimit="10" stroke-width="6" stroke="#fff" fill="none" stroke-linejoin="round"/><path fill="#f1b31c" d="M5 17h62v38H5z"/><path fill="#5c9e31" d="M5 42h62v13H5z"/><path fill="#d22f27" d="M5 17h62v13H5z"/><ellipse cx="38.5" cy="33.2" rx="2.2" ry="1.2" transform="rotate(-45 38.5 33.2)"/><ellipse cx="34.5" cy="33.2" rx="1.2" ry="2.2" transform="rotate(-45 34.5 33.2)"/><ellipse cx="36.5" cy="36.867" rx="2" ry="3.133" fill="#61b2e4"/><path fill="#d22f27" d="M40 41a1 1 0 01-.707-1.707 1.725 1.725 0 00-.006-2.592 1 1 0 011.42-1.408 3.72 3.72 0 010 5.414A.997.997 0 0140 41zm-7.111 0a.997.997 0 01-.707-.293 3.72 3.72 0 010-5.414 1 1 0 011.419 1.41 1.724 1.724 0 00-.005 2.59A1 1 0 0132.889 41z"/><g><path fill="none" stroke="#000" stroke-linecap="round" stroke-linejoin="round" stroke-width="2" d="M5 17h62v38H5z"/></g></svg>