<svg viewBox="0 0 72 72" xmlns="http://www.w3.org/2000/svg"><path fill="#b3b3b3" d="M68 4v64H4V4h64m4-4H0v72h72V0z"/><path fill="none" stroke="#00a5ff" stroke-miterlimit="10" stroke-width=".1" d="M12.923 10.958h46.154A1.923 1.923 0 0161 12.881v46.154a1.923 1.923 0 01-1.923 1.923H12.923A1.923 1.923 0 0111 59.035V12.881a1.923 1.923 0 011.923-1.923z"/><rect x="16" y="4" rx="2.254" ry="2.254" width="40" height="64" fill="none" stroke="#00a5ff" stroke-miterlimit="10" stroke-width=".1"/><rect x="16" y="4" rx="2.254" ry="2.254" width="40" height="64" transform="rotate(90 36 36)" fill="none" stroke="#00a5ff" stroke-miterlimit="10" stroke-width=".1"/><circle cx="36" cy="36" r="29" fill="none" stroke="#00a5ff" stroke-miterlimit="10" stroke-width=".1"/><path d="M5 17h62v38H5z" stroke-linecap="round" stroke-miterlimit="10" stroke-width="6" stroke="#fff" fill="none" stroke-linejoin="round"/><path fill="#1e50a0" d="M5 17h62v38H5z"/><path fill="#d22f27" d="M5 17h62v13H5z"/><path fill="#fff" d="M5 30h62v12H5z"/><path fill="#fff" d="M32 33h3v3h-3zm5 0h3v3h-3z"/><path fill="#d22f27" d="M35 33h2v3h-2z"/><path fill="#fff" d="M32 42h3v3h-3zm5 0h3v3h-3z"/><path fill="#d22f27" d="M35 42h2v3h-2zm-3-2h3v2h-3zm5 0h3v2h-3z"/><path fill="#fff" d="M35 40h2v2h-2zm-3-2h3v2h-3zm5 0h3v2h-3z"/><path fill="#d22f27" d="M35 38h2v2h-2zm-3-2h3v2h-3zm5 0h3v2h-3z"/><path fill="#fff" d="M35 36h2v2h-2z"/><path d="M32 33h8m0 0v10a2.006 2.006 0 01-2 2h-4a2.006 2.006 0 01-2-2V33" fill="none" stroke="#d22f27" stroke-linecap="round" stroke-linejoin="round" stroke-width="2"/><path fill="none" stroke="#1e50a0" stroke-linecap="round" stroke-linejoin="round" stroke-width="2" d="M32 30a8.568 8.568 0 014-1m4 1a8.568 8.568 0 00-4-1"/><g><path fill="none" stroke="#000" stroke-linecap="round" stroke-linejoin="round" stroke-width="2" d="M5 17h62v38H5z"/></g></svg>