<svg viewBox="0 0 72 72" xmlns="http://www.w3.org/2000/svg"><path fill="#b3b3b3" d="M68 4v64H4V4h64m4-4H0v72h72V0z"/><path fill="none" stroke="#00a5ff" stroke-miterlimit="10" stroke-width=".1" d="M12.923 10.958h46.154A1.923 1.923 0 0161 12.881v46.154a1.923 1.923 0 01-1.923 1.923H12.923A1.923 1.923 0 0111 59.035V12.881a1.923 1.923 0 011.923-1.923z"/><rect x="16" y="4" rx="2.254" ry="2.254" width="40" height="64" fill="none" stroke="#00a5ff" stroke-miterlimit="10" stroke-width=".1"/><rect x="16" y="4" rx="2.254" ry="2.254" width="40" height="64" transform="rotate(90 36 36)" fill="none" stroke="#00a5ff" stroke-miterlimit="10" stroke-width=".1"/><circle cx="36" cy="36" r="29" fill="none" stroke="#00a5ff" stroke-miterlimit="10" stroke-width=".1"/><path d="M5 17h62v38H5z" stroke-linecap="round" stroke-miterlimit="10" stroke-width="6" stroke="#fff" fill="none" stroke-linejoin="round"/><path fill="#186648" d="M5 17h62v38H5z"/><g stroke-linecap="round" stroke-linejoin="round"><path fill="none" stroke="#fff" d="M32.408 49.977h7m4.5-2h-16m-2.5-2h21"/><path fill="#f1b31c" stroke="#f1b31c" d="M34.467 27.023l1.66-5 1.43 4.923-3.974-2.966 5-.124-4.116 3.167zm8.526 1.284l-.638-3.096 2.221 2.129-2.955-.349 2.561-1.564-1.189 2.88zm3.101 4.74l.996-3 .859 2.954-2.385-1.78 3-.074-2.47 1.9zm-17.087-4.892l.638-3.096-2.221 2.129 2.955-.349-2.561-1.564 1.189 2.88zm-3.101 4.74l-.996-3-.859 2.954 2.385-1.78-3-.074 2.47 1.9z"/><g fill="#fff" stroke="#fff"><path d="M35.007 41.34c1.382 1.256 4.002 1.832 6.835 1.333s5.098-1.938 5.967-3.591c-1.382-1.256-4.003-1.833-6.836-1.333s-5.097 1.937-5.967 3.59z"/><path d="M24.006 39.083c.87 1.653 3.135 3.09 5.967 3.59s5.454-.077 6.836-1.333c-.869-1.653-3.135-3.091-5.967-3.591s-5.453.077-6.835 1.333z"/><path d="M35.907 29.977c-1.476 1.044-2.5 3.31-2.5 5.937s1.024 4.894 2.5 5.938c1.478-1.044 2.5-3.31 2.5-5.938s-1.022-4.893-2.498-5.937z"/></g></g><g><path fill="none" stroke="#000" stroke-linecap="round" stroke-linejoin="round" stroke-width="2" d="M5 17h62v38H5z"/></g></svg>