<svg viewBox="0 0 72 72" xmlns="http://www.w3.org/2000/svg"><path fill="#b3b3b3" d="M68 4v64H4V4h64m4-4H0v72h72V0z"/><path fill="none" stroke="#00a5ff" stroke-miterlimit="10" stroke-width=".1" d="M12.923 10.958h46.154A1.923 1.923 0 0161 12.881v46.154a1.923 1.923 0 01-1.923 1.923H12.923A1.923 1.923 0 0111 59.035V12.881a1.923 1.923 0 011.923-1.923z"/><rect x="16" y="4" rx="2.254" ry="2.254" width="40" height="64" fill="none" stroke="#00a5ff" stroke-miterlimit="10" stroke-width=".1"/><rect x="16" y="4" rx="2.254" ry="2.254" width="40" height="64" transform="rotate(90 36 36)" fill="none" stroke="#00a5ff" stroke-miterlimit="10" stroke-width=".1"/><circle cx="36" cy="36" r="29" fill="none" stroke="#00a5ff" stroke-miterlimit="10" stroke-width=".1"/><path d="M5 17h62v38H5z" stroke-linecap="round" stroke-miterlimit="10" stroke-width="6" stroke="#fff" fill="none" stroke-linejoin="round"/><path fill="#d22f27" d="M5 17h19v13H5z"/><path fill="none" stroke="#5c9e31" stroke-miterlimit="10" stroke-width="2" d="M6 30l18-12M6 18l18 12"/><path stroke="#fff" stroke-miterlimit="10" stroke-width="2" d="M15 30V18m-9 6h18"/><path fill="#61b2e4" d="M24 17h43v38H24z"/><path fill="#fff" d="M5 30h19v12H5z"/><path fill="#f1b31c" stroke="#f1b31c" stroke-linecap="round" stroke-linejoin="round" stroke-width="2" d="M36 35c0 3 4 5 7 5s11-1 15-9h2c0 4-3 11-6 13H37l-8-9h7"/><path d="M24 46c3 0 3-2 6-2s3 2 6 2m0 0c3 0 3-2 6-2s3 2 6 2m0 0c3 0 3-2 6-2s3 2 6 2m0 0c3 0 3-2 6-2" fill="none" stroke="#fff" stroke-linecap="round" stroke-linejoin="round" stroke-width="2"/><path fill="#d22f27" d="M5 42h19v13H5z"/><path fill="none" stroke="#f1b31c" stroke-linecap="round" stroke-linejoin="round" stroke-width="2" d="M10 46h10m-10 4h10"/><path fill="#f1b31c" stroke="#f1b31c" stroke-linecap="round" stroke-linejoin="round" stroke-width="2" d="M47 24c-2 4-3 10-2 12l-4-1c0-5 2-9 5-11zm8 0c-2 4-3 10-2 12l-4-1c0-5 2-9 5-11zm-21.579 6.105A10.278 10.278 0 0138 24h1a25.06 25.06 0 00-2.16 6.96z"/><g><path fill="none" stroke="#000" stroke-linecap="round" stroke-linejoin="round" stroke-width="2" d="M5 17h62v38H5z"/></g></svg>