<svg viewBox="0 0 72 72" xmlns="http://www.w3.org/2000/svg"><path fill="#b3b3b3" d="M68 4v64H4V4h64m4-4H0v72h72V0z"/><path fill="none" stroke="#00a5ff" stroke-miterlimit="10" stroke-width=".1" d="M12.923 10.958h46.154A1.923 1.923 0 0161 12.881v46.154a1.923 1.923 0 01-1.923 1.923H12.923A1.923 1.923 0 0111 59.035V12.881a1.923 1.923 0 011.923-1.923z"/><rect x="16" y="4" rx="2.254" ry="2.254" width="40" height="64" fill="none" stroke="#00a5ff" stroke-miterlimit="10" stroke-width=".1"/><rect x="16" y="4" rx="2.254" ry="2.254" width="40" height="64" transform="rotate(90 36 36)" fill="none" stroke="#00a5ff" stroke-miterlimit="10" stroke-width=".1"/><circle cx="36" cy="36" r="29" fill="none" stroke="#00a5ff" stroke-miterlimit="10" stroke-width=".1"/><path d="M5 17h62v38H5z" stroke-linecap="round" stroke-miterlimit="10" stroke-width="6" stroke="#fff" fill="none" stroke-linejoin="round"/><path fill="#61b2e4" d="M5 17h62v38H5z"/><ellipse cx="36" cy="36" rx="10.466" ry="10.5" fill="none" stroke="#fff" stroke-miterlimit="10" stroke-width="3"/><path fill="none" stroke="#fcea2b" stroke-linecap="round" stroke-linejoin="round" d="M46.466 35.931a10.466 10.466 0 11-20.932.138"/><path fill="none" stroke="#d22f27" stroke-linecap="round" stroke-linejoin="round" d="M25.534 36.069a10.466 10.466 0 1120.932-.138"/><path fill="#9b9b9a" stroke="#9b9b9a" stroke-linecap="round" stroke-linejoin="round" d="M40.5 50h-9l3-18h3l3 18z"/><path fill="#9b9b9a" stroke="#9b9b9a" stroke-linecap="round" stroke-linejoin="round" d="M38.5 29h-5l1 4h3l1-4z"/><path fill="#fff" stroke="#fff" stroke-linecap="round" stroke-linejoin="round" d="M32.122 42l3.983-12 3.434 11.816L30 34.696l12-.296-9.878 7.6z"/><path fill="none" stroke="#5c9e31" stroke-linecap="round" stroke-linejoin="round" d="M25.747 38.116A10.642 10.642 0 0125.724 34m20.53 0a10.639 10.639 0 01.023 4.116"/><g><path fill="none" stroke="#000" stroke-linecap="round" stroke-linejoin="round" stroke-width="2" d="M5 17h62v38H5z"/></g></svg>