<svg viewBox="0 0 72 72" xmlns="http://www.w3.org/2000/svg"><path fill="#b3b3b3" d="M68 4v64H4V4h64m4-4H0v72h72V0z"/><path fill="none" stroke="#00a5ff" stroke-miterlimit="10" stroke-width=".1" d="M12.923 10.958h46.154A1.923 1.923 0 0161 12.881v46.154a1.923 1.923 0 01-1.923 1.923H12.923A1.923 1.923 0 0111 59.035V12.881a1.923 1.923 0 011.923-1.923z"/><rect x="16" y="4" rx="2.254" ry="2.254" width="40" height="64" fill="none" stroke="#00a5ff" stroke-miterlimit="10" stroke-width=".1"/><rect x="16" y="4" rx="2.254" ry="2.254" width="40" height="64" transform="rotate(90 36 36)" fill="none" stroke="#00a5ff" stroke-miterlimit="10" stroke-width=".1"/><circle cx="36" cy="36" r="29" fill="none" stroke="#00a5ff" stroke-miterlimit="10" stroke-width=".1"/><path d="M5 17h62v38H5z" stroke-linecap="round" stroke-miterlimit="10" stroke-width="6" stroke="#fff" fill="none" stroke-linejoin="round"/><path fill="#fff" d="M5 17h62v38H5z"/><path fill="#d22f27" d="M5 17h62v9H5zm0 29h62v9H5z"/><path fill="#92d3f5" stroke="#92d3f5" stroke-linejoin="round" stroke-width=".933" d="M42 36a7 7 0 01-14 0"/><path fill="#f4aa41" stroke="#f4aa41" stroke-linejoin="round" stroke-width=".933" d="M28 36a7 7 0 0114 0"/><path fill="#d22f27" stroke="#d22f27" stroke-linejoin="round" d="M36.542 31s-3.167 0-3.167 2.111v3.167l3.167 1.583V33.64s-2.111-.528 0-2.639z"/><path fill="none" stroke="#d22f27" stroke-linecap="round" stroke-linejoin="round" d="M33 39.58s-1.044.696-1.74 0l.05-4.82m5.95 4.82s1.044.696 1.74 0l-.05-4.82"/><g><path fill="none" stroke="#000" stroke-linecap="round" stroke-linejoin="round" stroke-width="2" d="M5 17h62v38H5z"/></g></svg>