<svg viewBox="0 0 72 72" xmlns="http://www.w3.org/2000/svg"><path fill="#b3b3b3" d="M68 4v64H4V4h64m4-4H0v72h72V0z"/><path fill="none" stroke="#00a5ff" stroke-miterlimit="10" stroke-width=".1" d="M12.923 10.958h46.154A1.923 1.923 0 0161 12.881v46.154a1.923 1.923 0 01-1.923 1.923H12.923A1.923 1.923 0 0111 59.035V12.881a1.923 1.923 0 011.923-1.923z"/><rect x="16" y="4" rx="2.254" ry="2.254" width="40" height="64" fill="none" stroke="#00a5ff" stroke-miterlimit="10" stroke-width=".1"/><rect x="16" y="4" rx="2.254" ry="2.254" width="40" height="64" transform="rotate(90 36 36)" fill="none" stroke="#00a5ff" stroke-miterlimit="10" stroke-width=".1"/><circle cx="36" cy="36" r="29" fill="none" stroke="#00a5ff" stroke-miterlimit="10" stroke-width=".1"/><path d="M5 17h62v38H5z" stroke-linecap="round" stroke-miterlimit="10" stroke-width="6" stroke="#fff" fill="none" stroke-linejoin="round"/><path fill="#fff" d="M5 17h62v38H5z"/><path fill="#d22f27" d="M5 17h62v7H5zm0 31h62v7H5z"/><path fill="#5c9e31" stroke="#5c9e31" stroke-linecap="round" stroke-linejoin="round" stroke-width="2" d="M36 27l-7 5 7-1 7 1-7-5z"/><path fill="#5c9e31" stroke="#5c9e31" stroke-linecap="round" stroke-linejoin="round" stroke-width="2" d="M36 31l-8 5 8-1 8 1-8-5z"/><path fill="#5c9e31" stroke="#5c9e31" stroke-linecap="round" stroke-linejoin="round" stroke-width="2" d="M36 35l-9 5 9-1 9 1-9-5z"/><path fill="#5c9e31" d="M38 39v3.5a2.227 2.227 0 001.423 1.974l.154.052-.154-.052A11.113 11.113 0 0036.5 44h-1a11.113 11.113 0 00-2.923.474l-.154.052.154-.052A2.227 2.227 0 0034 42.5V39"/><path fill="none" stroke="#5c9e31" stroke-linecap="round" stroke-linejoin="round" stroke-width="2" d="M38 39v3.5a2.227 2.227 0 001.423 1.974l.154.052h0l-.154-.052A11.113 11.113 0 0036.5 44h-1a11.113 11.113 0 00-2.923.474l-.154.052h0l.154-.052A2.227 2.227 0 0034 42.5V39"/><g><path fill="none" stroke="#000" stroke-linecap="round" stroke-linejoin="round" stroke-width="2" d="M5 17h62v38H5z"/></g></svg>