<svg viewBox="0 0 72 72" xmlns="http://www.w3.org/2000/svg"><path fill="#b3b3b3" d="M68 4v64H4V4h64m4-4H0v72h72V0z"/><path fill="none" stroke="#00a5ff" stroke-miterlimit="10" stroke-width=".1" d="M12.923 10.958h46.154A1.923 1.923 0 0161 12.881v46.154a1.923 1.923 0 01-1.923 1.923H12.923A1.923 1.923 0 0111 59.035V12.881a1.923 1.923 0 011.923-1.923z"/><rect x="16" y="4" rx="2.254" ry="2.254" width="40" height="64" fill="none" stroke="#00a5ff" stroke-miterlimit="10" stroke-width=".1"/><rect x="16" y="4" rx="2.254" ry="2.254" width="40" height="64" transform="rotate(90 36 36)" fill="none" stroke="#00a5ff" stroke-miterlimit="10" stroke-width=".1"/><circle cx="36" cy="36" r="29" fill="none" stroke="#00a5ff" stroke-miterlimit="10" stroke-width=".1"/><path d="M5 17h62v38H5z" stroke-linecap="round" stroke-miterlimit="10" stroke-width="6" stroke="#fff" fill="none" stroke-linejoin="round"/><path fill="#5c9e31" d="M5 17h62v38H5z"/><path fill="#d22f27" d="M5 30h62v12H5z"/><path fill="#1e50a0" d="M5 17h62v13H5z"/><circle cx="25" cy="36.5" r="13" fill="#fcea2b" stroke="#000" stroke-miterlimit="10"/><path fill="none" stroke="#000" stroke-linecap="round" stroke-linejoin="round" d="M25 23.5v25"/><ellipse cx="25" cy="36" rx="1.5" ry=".5" stroke="#000" stroke-linecap="round" stroke-linejoin="round"/><ellipse cx="25" cy="42.5" rx="1.5" ry="2" stroke="#000" stroke-linecap="round" stroke-linejoin="round"/><circle cx="25" cy="30" r="1.5" stroke="#000" stroke-linecap="round" stroke-linejoin="round"/><path fill="none" stroke="#000" stroke-linecap="round" stroke-linejoin="round" d="M22.84 27.75l4.33-2.5m1.33 5.25v3h-7v-3m0 11v-3h7v3"/><path stroke="#000" stroke-miterlimit="10" d="M25 49.5a12.94 12.94 0 004.446-.797C29.179 47.464 27.302 46.5 25 46.5s-4.179.964-4.446 2.203A12.94 12.94 0 0025 49.5z"/><g><path fill="none" stroke="#000" stroke-linecap="round" stroke-linejoin="round" stroke-width="2" d="M5 17h62v38H5z"/></g></svg>