<svg viewBox="0 0 72 72" xmlns="http://www.w3.org/2000/svg"><path fill="#B3B3B3" d="M68 4v64H4V4h64m4-4H0v72h72V0z"/><path fill="none" stroke="#00A5FF" stroke-miterlimit="10" stroke-width=".1" d="M12.9 11h46.2c1.1 0 1.9.9 1.9 1.9h0V59c0 1.1-.9 1.9-1.9 1.9H12.9c-1 .1-1.9-.8-1.9-1.9h0V12.9c0-1.1.9-1.9 1.9-1.9h0z"/><path fill="none" stroke="#00A5FF" stroke-miterlimit="10" stroke-width=".1" d="M18.3 4h35.5C55 4 56 5 56 6.3v59.5c0 1.2-1 2.3-2.3 2.3H18.3C17 68 16 67 16 65.7V6.3C16 5 17 4 18.3 4z"/><path fill="none" stroke="#00A5FF" stroke-miterlimit="10" stroke-width=".1" d="M68 18.3v35.5c0 1.2-1 2.3-2.3 2.3H6.3C5 56 4 55 4 53.7V18.3C4 17 5 16 6.3 16h59.5c1.2 0 2.2 1 2.2 2.3z"/><circle cx="36" cy="36" r="29" fill="none" stroke="#00A5FF" stroke-miterlimit="10" stroke-width=".1"/><g stroke-linecap="round" stroke-miterlimit="10" stroke-width="6" stroke="#fff" fill="none" stroke-linejoin="round"><path d="M31.5 25.569v.644c0 5.7-3.586 10.39-8 10.39s-8-4.69-8-10.39v-.644"/><path d="M13.929 21.39c.533-7.734 6.4-7.823 9.335-7.379.266.09 1.067 0 1.333 0 5.334-.711 8.002 5.334 8.002 8.002 0 .978.225 3.365-1.108 4.699 0 0-3.249-3.721-3.427-5.855 0 0-10.135 3.823-10.846.533 0 0-.711 2.667-1.334 3.379 0 0-.328 2.044-.328 2.667 0 0-1.894-2.667-1.627-6.046z"/><path d="M22.25 26.5c0 .714-.536 1.25-1.25 1.25s-1.25-.536-1.25-1.25.536-1.25 1.25-1.25 1.25.536 1.25 1.25m5 0c0 .714-.536 1.25-1.25 1.25s-1.25-.536-1.25-1.25.536-1.25 1.25-1.25 1.25.536 1.25 1.25m-5.617 5.033a3.968 3.968 0 003.734 0M26.5 60.2v-1.733C26.5 56 29.002 54 31.504 54c2.975 2.467 5.95 2.467 8.993 0 2.502 0 5.003 2 5.003 4.467V60.2m-6.702-14.498a.9.9 0 11-.898-.84.87.87 0 01.898.84zm-4.134 3.484a2.093 2.093 0 002.672 0M34.1 44.862a.9.9 0 11-.898.84.87.87 0 01.898-.84z"/><path d="M42.55 45.268c.007.141.011.283.011.426a6.776 6.776 0 01-6.488 7.031 6.776 6.776 0 01-6.489-7.03c0-.096.002-.19.005-.285m4.047-3.138c.47 3.363 4.487-.871 4.487-.871.549 1.574 4.425 3.867 4.425 3.867 1.033-.955.526-2.852.372-3.513a5.12 5.12 0 00-5.808-4.115 6.447 6.447 0 01-1.032 0c-2.27-.337-6.03-.148-7.12 4.644-.532 2.338.624 2.984.624 2.984s3.764-5.059 4.052-2.996zM11 60V44.955C11 41.665 14.292 39 17.584 39c2.682 2.253 5.364 2.963 8.075 2.128"/></g><path fill="#92D3F5" d="M36 38.999h-6.583c-4.004 3.29-7.919 3.29-11.833 0-3.292 0-6.584 2.667-6.584 5.956V61h25V38.999z"/><path fill="#B1CC33" d="M26.5 61v-2.533C26.5 56 29.002 54 31.504 54c2.975 2.467 5.95 2.467 8.992 0 2.502 0 5.004 2 5.004 4.467V61"/><path d="M13.929 21.39c.533-7.734 6.4-7.823 9.335-7.379.266.09 1.067 0 1.333 0 5.334-.711 8.002 5.334 8.002 8.002 0 .978.225 3.365-1.108 4.699 0 0-3.249-3.721-3.427-5.855 0 0-10.135 3.823-10.846.533 0 0-.711 2.667-1.334 3.379 0 0-.328 2.044-.328 2.667 0 0-1.894-2.667-1.627-6.046zm19.707 20.882c.469 3.363 4.486-.871 4.486-.871.55 1.574 4.426 3.867 4.426 3.867 1.032-.955.526-2.852.372-3.513a5.12 5.12 0 00-5.808-4.115 6.447 6.447 0 01-1.032 0c-2.271-.337-6.03-.148-7.12 4.644-.532 2.338.624 2.984.624 2.984s3.764-5.059 4.052-2.996z" fill="#A57939"/><path d="M28.045 20.857S17.91 24.68 17.2 21.39c0 0-.711 2.667-1.334 3.379 0 0-.318 1.983-.327 2.635.459 5.148 3.841 9.2 7.943 9.2 4.286 0 7.782-4.427 7.98-9.903-.104-.12-3.24-3.746-3.416-5.844zm10.078 20.544s-4.018 4.234-4.487.87c-.258-1.846-3.294 2.005-3.929 2.835-.073.335-.123.566-.123.588a6.776 6.776 0 006.489 7.031 6.776 6.776 0 006.488-7.03c0-.03-.059-.227-.15-.51-.678-.414-3.8-2.383-4.288-3.784z" fill="#FCEA2B"/><g><path fill="none" stroke="#000" stroke-miterlimit="10" stroke-width="2" d="M31.5 25.569v.644c0 5.7-3.586 10.39-8 10.39s-8-4.69-8-10.39v-.644"/><path fill="none" stroke="#000" stroke-linecap="round" stroke-linejoin="round" stroke-width="2" d="M13.929 21.39c.533-7.734 6.4-7.823 9.335-7.379.266.09 1.067 0 1.333 0 5.334-.711 8.002 5.334 8.002 8.002 0 .978.225 3.365-1.108 4.699 0 0-3.249-3.721-3.427-5.855 0 0-10.135 3.823-10.846.533 0 0-.711 2.667-1.334 3.379 0 0-.328 2.044-.328 2.667 0 0-1.894-2.667-1.627-6.046z"/><path d="M22.25 26.5c0 .714-.536 1.25-1.25 1.25s-1.25-.536-1.25-1.25.536-1.25 1.25-1.25 1.25.536 1.25 1.25m5 0c0 .714-.536 1.25-1.25 1.25s-1.25-.536-1.25-1.25.536-1.25 1.25-1.25 1.25.536 1.25 1.25"/><path fill="none" stroke="#000" stroke-linecap="round" stroke-linejoin="round" stroke-width="2" d="M21.633 31.533a3.968 3.968 0 003.734 0"/><path fill="none" stroke="#000" stroke-linecap="round" stroke-linejoin="round" stroke-width="1.6" d="M26.5 60.2v-1.733C26.5 56 29.002 54 31.504 54c2.975 2.467 5.95 2.467 8.993 0 2.502 0 5.003 2 5.003 4.467V60.2"/><path d="M38.798 45.702a.9.9 0 11-.898-.84.87.87 0 01.898.84z"/><path fill="none" stroke="#000" stroke-linecap="round" stroke-linejoin="round" stroke-width="1.6" d="M34.664 49.186a2.093 2.093 0 002.672 0"/><path d="M34.1 44.862a.9.9 0 11-.898.84.87.87 0 01.898-.84z"/><path fill="none" stroke="#000" stroke-miterlimit="10" stroke-width="1.6" d="M42.55 45.268c.007.141.011.283.011.426a6.776 6.776 0 01-6.488 7.031 6.776 6.776 0 01-6.489-7.03c0-.096.002-.19.005-.285"/><path fill="none" stroke="#000" stroke-linecap="round" stroke-linejoin="round" stroke-width="1.6" d="M33.636 42.272c.47 3.363 4.487-.871 4.487-.871.549 1.574 4.425 3.867 4.425 3.867 1.033-.955.526-2.852.372-3.513a5.12 5.12 0 00-5.808-4.115 6.447 6.447 0 01-1.032 0c-2.27-.337-6.03-.148-7.12 4.644-.532 2.338.624 2.984.624 2.984s3.764-5.059 4.052-2.996z"/><path fill="none" stroke="#000" stroke-linecap="round" stroke-linejoin="round" stroke-miterlimit="10" stroke-width="2" d="M11 60V44.955C11 41.665 14.292 39 17.584 39c2.682 2.253 5.364 2.963 8.075 2.128"/></g></svg>