<svg viewBox="0 0 72 72" xmlns="http://www.w3.org/2000/svg"><path fill="#B3B3B3" d="M68 4v64H4V4h64m4-4H0v72h72V0z"/><path fill="none" stroke="#00A5FF" stroke-miterlimit="10" stroke-width=".1" d="M12.9 11h46.2c1.1 0 1.9.9 1.9 1.9h0V59c0 1.1-.9 1.9-1.9 1.9H12.9c-1 .1-1.9-.8-1.9-1.9h0V12.9c0-1.1.9-1.9 1.9-1.9h0z"/><path fill="none" stroke="#00A5FF" stroke-miterlimit="10" stroke-width=".1" d="M18.3 4h35.5C55 4 56 5 56 6.3v59.5c0 1.2-1 2.3-2.3 2.3H18.3C17 68 16 67 16 65.7V6.3C16 5 17 4 18.3 4z"/><path fill="none" stroke="#00A5FF" stroke-miterlimit="10" stroke-width=".1" d="M68 18.3v35.5c0 1.2-1 2.3-2.3 2.3H6.3C5 56 4 55 4 53.7V18.3C4 17 5 16 6.3 16h59.5c1.2 0 2.2 1 2.2 2.3z"/><circle cx="36" cy="36" r="29" fill="none" stroke="#00A5FF" stroke-miterlimit="10" stroke-width=".1"/><g stroke-linecap="round" stroke-miterlimit="10" stroke-width="6" stroke="#fff" fill="none" stroke-linejoin="round"><path d="M38.7 54c-3-4.5-.6-7.8.8-11.3 1.2-3.2-.2-4.9 1-9.1 1.1-4.2 5.5-6.8 10.4-6.8 4.1 0 6.1 2.3 6.1 2.3 3.2.3 5.6 2.9 5.6 6.1.3 5.4.8 5.4 2.6 9.7 1.3 3.1.8 6.6-1.4 9.2"/><path d="M43.2 41.9c0 6.1 3.8 10.6 8.3 10.6s8.3-4.5 8.3-10.6c0-3.8-1.5-6.1-4.5-9.1-3 3-12.1 6.8-12.1 8.3v.8zm6 5.5c.6.8 1.4.8 2.1 0m2.6-6.3s1.5 1.5 3 0m-10.6.7s1.5 1.5 3 0m-20.1-.3c0 6.2-3.9 11.3-8.7 11.3s-8.7-5.1-8.7-11.3c0-1.9 1-4.2 1-4.2s4.3-1.7 7.6-1.7c3.2 0 7.5 1.5 7.5 1.5s1.3 2.3 1.3 4.4zm-8 5.9c.6.7 1.4.7 2.1 0m-7.5-6.3s1.5 1.5 3 0m4.4.7s1.5 1.5 3 0"/><path d="M11.5 51.6c-8.1 1.2-4.2-5-2.8-8.5 1.2-3.2-.2-4.9 1-9.1 1.1-4.1 5.5-6.7 10.3-6.7 4.1 0 6 2.3 6 2.3 3.1.3 5.5 2.9 5.6 6 .3 5.4 0 3.1 1.6 7.4 2.6 6.1 1.7 9.1-3.5 8.7m6.3-37c1.1-2.4 4-3.4 6.3-2.2s3.3 4 2.2 6.4c-.1.3-.3.5-.4.7L36 30l-8.1-10.4c-.2-.2-.3-.5-.4-.7-1.1-2.4-.1-5.2 2.2-6.4s5.2-.2 6.3 2.2h0z"/></g><path fill="#EA5A47" d="M36 14.7c1.1-2.4 4-3.4 6.3-2.2s3.3 4 2.2 6.4c-.1.3-.3.5-.4.7L36 30l-8.1-10.4c-.2-.2-.3-.5-.4-.7-1.1-2.4-.1-5.2 2.2-6.4s5.2-.2 6.3 2.2z"/><path fill="#A57939" d="M38.7 55c-3-4.5-.6-8.8.8-12.3 1.2-3.2-.2-4.9 1-9.1 1.1-4.2 5.5-6.8 10.4-6.8 4.1 0 6.1 2.3 6.1 2.3 3.2.3 5.6 2.9 5.6 6.1.3 5.4.8 5.4 2.6 9.7 1.3 3.1.8 7.6-1.4 10.2m-52.3-2.5c-8.1 1.2-4.2-6-2.8-9.5 1.2-3.2-.2-4.9 1-9.1 1.1-4.1 5.5-6.7 10.3-6.7 4.1 0 6 2.3 6 2.3 3.1.3 5.5 2.9 5.6 6 .3 5.4 0 3.1 1.6 7.4 2.6 6.1 1.7 10.1-3.5 9.7"/><path fill="#FCEA2B" d="M43.2 41.9c0 6.1 3.8 10.6 8.3 10.6s8.3-4.5 8.3-10.6c0-3.8-1.5-6.1-4.5-9.1-3 3-12.1 6.8-12.1 8.3v.8zm-14-.4c0 6.2-3.9 11.3-8.7 11.3s-8.7-5.1-8.7-11.3c0-1.9 1-4.2 1-4.2s4.3-1.7 7.6-1.7c3.2 0 7.5 1.5 7.5 1.5s1.3 2.3 1.3 4.4z"/><g fill="none" stroke="#000" stroke-width="2"><path stroke-linecap="round" stroke-linejoin="round" d="M38.7 54c-3-4.5-.6-7.8.8-11.3 1.2-3.2-.2-4.9 1-9.1 1.1-4.2 5.5-6.8 10.4-6.8 4.1 0 6.1 2.3 6.1 2.3 3.2.3 5.6 2.9 5.6 6.1.3 5.4.8 5.4 2.6 9.7 1.3 3.1.8 6.6-1.4 9.2"/><path stroke-linejoin="round" stroke-miterlimit="10" d="M43.2 41.9c0 6.1 3.8 10.6 8.3 10.6s8.3-4.5 8.3-10.6c0-3.8-1.5-6.1-4.5-9.1-3 3-12.1 6.8-12.1 8.3v.8z"/><path stroke-linecap="round" stroke-linejoin="round" d="M49.2 47.4c.6.8 1.4.8 2.1 0"/><path stroke-linecap="round" stroke-miterlimit="10" d="M53.9 41.1s1.5 1.5 3 0m-10.6.7s1.5 1.5 3 0"/><path stroke-linejoin="round" stroke-miterlimit="10" d="M29.2 41.5c0 6.2-3.9 11.3-8.7 11.3s-8.7-5.1-8.7-11.3c0-1.9 1-4.2 1-4.2s4.3-1.7 7.6-1.7c3.2 0 7.5 1.5 7.5 1.5s1.3 2.3 1.3 4.4z"/><path stroke-linecap="round" stroke-linejoin="round" d="M21.2 47.4c.6.7 1.4.7 2.1 0"/><path stroke-linecap="round" stroke-miterlimit="10" d="M15.8 41.1s1.5 1.5 3 0m4.4.7s1.5 1.5 3 0"/><path stroke-linecap="round" stroke-linejoin="round" d="M11.5 51.6c-8.1 1.2-4.2-5-2.8-8.5 1.2-3.2-.2-4.9 1-9.1 1.1-4.1 5.5-6.7 10.3-6.7 4.1 0 6 2.3 6 2.3 3.1.3 5.5 2.9 5.6 6 .3 5.4 0 3.1 1.6 7.4 2.6 6.1 1.7 9.1-3.5 8.7m6.3-37c1.1-2.4 4-3.4 6.3-2.2s3.3 4 2.2 6.4c-.1.3-.3.5-.4.7L36 30l-8.1-10.4c-.2-.2-.3-.5-.4-.7-1.1-2.4-.1-5.2 2.2-6.4s5.2-.2 6.3 2.2h0z"/></g></svg>