<svg viewBox="0 0 72 72" xmlns="http://www.w3.org/2000/svg"><path fill="#b3b3b3" d="M68 4v64H4V4h64m4-4H0v72h72V0z"/><path fill="none" stroke="#00a5ff" stroke-miterlimit="10" stroke-width=".1" d="M12.923 10.958h46.154A1.923 1.923 0 0161 12.881v46.154a1.923 1.923 0 01-1.923 1.923H12.923A1.923 1.923 0 0111 59.035V12.881a1.923 1.923 0 011.923-1.923z"/><rect x="16" y="4" rx="2.254" width="40" height="64" fill="none" stroke="#00a5ff" stroke-miterlimit="10" stroke-width=".1"/><rect x="16" y="4" rx="2.254" width="40" height="64" transform="rotate(90 36 36)" fill="none" stroke="#00a5ff" stroke-miterlimit="10" stroke-width=".1"/><circle cx="36" cy="36" r="29" fill="none" stroke="#00a5ff" stroke-miterlimit="10" stroke-width=".1"/><path d="M35.5 33c-1.76 0-7.5-.397-7.5-5.5s5.74-5.5 7.5-5.5c8.5 0 8.5 3.996 8.5 5.5a3.5 3.5 0 007 0c0-6.68-4.23-11.05-11.5-12.192V12.5a4 4 0 00-8 0v2.904C25.088 16.719 21 21.244 21 27.5 21 34.977 26.827 40 35.5 40c2.94 0 8.5 1.15 8.5 5.5S38.44 51 35.5 51c-1.76 0-7.5-.397-7.5-5.5a3.5 3.5 0 00-7 0c0 6.255 4.088 10.78 10.5 12.096V59.5a4 4 0 008 0v-1.899C45.686 56.373 51 52.273 51 45.5 51 37.294 43.202 33 35.5 33z" stroke-linecap="round" stroke-miterlimit="10" stroke-width="6" stroke="#fff" fill="none" stroke-linejoin="round"/><path fill="#9b9b9a" d="M35.5 33c-1.76 0-7.5-.397-7.5-5.5s5.74-5.5 7.5-5.5c8.5 0 8.5 3.996 8.5 5.5a3.5 3.5 0 007 0c0-6.68-4.23-11.05-11.5-12.192V12.5a4 4 0 00-8 0v2.904C25.088 16.719 21 21.244 21 27.5 21 34.977 26.827 40 35.5 40c2.94 0 8.5 1.15 8.5 5.5S38.44 51 35.5 51c-1.76 0-7.5-.397-7.5-5.5a3.5 3.5 0 00-7 0c0 6.255 4.088 10.78 10.5 12.096V59.5a4 4 0 008 0v-1.899C45.686 56.373 51 52.273 51 45.5 51 37.294 43.202 33 35.5 33z"/><path fill="none" stroke="#000" stroke-miterlimit="10" stroke-width="2" d="M35.5 33c-1.76 0-7.5-.397-7.5-5.5s5.74-5.5 7.5-5.5c8.5 0 8.5 3.996 8.5 5.5a3.5 3.5 0 007 0c0-6.68-4.23-11.05-11.5-12.192V12.5a4 4 0 00-8 0v2.904C25.088 16.719 21 21.244 21 27.5 21 34.977 26.827 40 35.5 40c2.94 0 8.5 1.15 8.5 5.5S38.44 51 35.5 51c-1.76 0-7.5-.397-7.5-5.5a3.5 3.5 0 00-7 0c0 6.255 4.088 10.78 10.5 12.096V59.5a4 4 0 008 0v-1.899C45.686 56.373 51 52.273 51 45.5 51 37.294 43.202 33 35.5 33z"/></svg>