<svg viewBox="0 0 72 72" xmlns="http://www.w3.org/2000/svg"><path fill="#b3b3b3" d="M68 4v64H4V4h64m4-4H0v72h72V0z"/><path fill="none" stroke="#00a5ff" stroke-miterlimit="10" stroke-width=".1" d="M12.923 10.958h46.154A1.923 1.923 0 0161 12.881v46.154a1.923 1.923 0 01-1.923 1.923H12.923A1.923 1.923 0 0111 59.035V12.881a1.923 1.923 0 011.923-1.923z"/><rect x="16" y="4" rx="2.254" ry="2.254" width="40" height="64" fill="none" stroke="#00a5ff" stroke-miterlimit="10" stroke-width=".1"/><rect x="16" y="4" rx="2.254" ry="2.254" width="40" height="64" transform="rotate(90 36 36)" fill="none" stroke="#00a5ff" stroke-miterlimit="10" stroke-width=".1"/><circle cx="36" cy="36" r="29" fill="none" stroke="#00a5ff" stroke-miterlimit="10" stroke-width=".1"/><g stroke-linecap="round" stroke-miterlimit="10" stroke-width="6" stroke="#fff" fill="none" stroke-linejoin="round"><path d="M57.809 36.404a6.574 6.574 0 015.229 2.45 7.282 7.282 0 011.205 2.853 7.984 7.984 0 01-.284 3.4 6.873 6.873 0 01-4.438 4.508 6.134 6.134 0 01-2.9.14 7.341 7.341 0 01-2.749-1.223l-.458.61"/><path d="M53.414 49.142a6.427 6.427 0 012.774 5.046 6 6 0 01-.7 3.014 8.489 8.489 0 01-.91 1.414 9.534 9.534 0 01-1.308 1.174 7.19 7.19 0 01-3.14 1.325 6.59 6.59 0 01-3.087-.264 6.488 6.488 0 01-3.942-4.205l-.717.254"/><path d="M42.385 56.9a6.51 6.51 0 01-.725 5.71 6.878 6.878 0 01-2.345 2.019 8.146 8.146 0 01-3.315.799 8.146 8.146 0 01-3.315-.8 6.878 6.878 0 01-2.345-2.017 6.51 6.51 0 01-.724-5.711l-.717-.254m0 0a6.488 6.488 0 01-3.943 4.206 6.59 6.59 0 01-3.087.263 7.19 7.19 0 01-3.139-1.325 9.534 9.534 0 01-1.307-1.174 8.489 8.489 0 01-.91-1.414 6 6 0 01-.7-3.014 6.427 6.427 0 012.774-5.046l-.458-.61m-.001.001a7.341 7.341 0 01-2.749 1.223 6.134 6.134 0 01-2.9-.14 6.873 6.873 0 01-4.438-4.509 7.984 7.984 0 01-.284-3.4 7.282 7.282 0 011.205-2.853 6.574 6.574 0 015.23-2.45v-.38M53.872 23.895a7.047 7.047 0 012.749-1.223 6.133 6.133 0 012.9.14 6.873 6.873 0 014.438 4.509 7.984 7.984 0 01.284 3.4 7.282 7.282 0 01-1.205 2.853 6.574 6.574 0 01-5.23 2.45v.38"/><path d="M43.101 15.782a6.488 6.488 0 013.943-4.206 6.59 6.59 0 013.087-.263 7.19 7.19 0 013.139 1.325 9.534 9.534 0 011.307 1.174 8.486 8.486 0 01.91 1.414 6 6 0 01.7 3.014 6.428 6.428 0 01-2.773 5.046l.458.61m-24.256-8.368a6.51 6.51 0 01.724-5.71 6.879 6.879 0 012.345-2.019A8.144 8.144 0 0136 7a8.144 8.144 0 013.315.799 6.879 6.879 0 012.345 2.018 6.51 6.51 0 01.724 5.71l.717.255m-24.515 7.504a6.428 6.428 0 01-2.774-5.046 6 6 0 01.7-3.014 8.486 8.486 0 01.91-1.414 9.534 9.534 0 011.308-1.174 7.19 7.19 0 013.14-1.325 6.59 6.59 0 013.086.263 6.488 6.488 0 013.943 4.206l.717-.254M14.191 36.023a6.574 6.574 0 01-5.229-2.449 7.282 7.282 0 01-1.205-2.853 7.984 7.984 0 01.284-3.4 6.873 6.873 0 014.438-4.508 6.132 6.132 0 012.9-.14 7.338 7.338 0 012.749 1.223l.458-.61"/></g><g fill="#d0cfce"><path d="M57.809 36.404a6.574 6.574 0 015.229 2.45 7.282 7.282 0 011.205 2.853 7.984 7.984 0 01-.284 3.4 6.873 6.873 0 01-4.438 4.508 6.134 6.134 0 01-2.9.14 7.341 7.341 0 01-2.749-1.223l-.458.61"/><path d="M53.414 49.142a6.427 6.427 0 012.774 5.046 6 6 0 01-.7 3.014 8.489 8.489 0 01-.91 1.414 9.534 9.534 0 01-1.308 1.174 7.19 7.19 0 01-3.14 1.325 6.59 6.59 0 01-3.087-.264 6.488 6.488 0 01-3.942-4.205l-.717.254"/><path d="M42.385 56.9a6.51 6.51 0 01-.725 5.71 6.878 6.878 0 01-2.345 2.019 8.146 8.146 0 01-3.315.799 8.146 8.146 0 01-3.315-.8 6.878 6.878 0 01-2.345-2.017 6.51 6.51 0 01-.724-5.711l-.717-.254m0 0a6.488 6.488 0 01-3.943 4.206 6.59 6.59 0 01-3.087.263 7.19 7.19 0 01-3.139-1.325 9.534 9.534 0 01-1.307-1.174 8.489 8.489 0 01-.91-1.414 6 6 0 01-.7-3.014 6.427 6.427 0 012.774-5.046l-.458-.61m-.001.001a7.341 7.341 0 01-2.749 1.223 6.134 6.134 0 01-2.9-.14 6.873 6.873 0 01-4.438-4.509 7.984 7.984 0 01-.284-3.4 7.282 7.282 0 011.205-2.853 6.574 6.574 0 015.23-2.45v-.38"/></g><g fill="#d0cfce"><path d="M53.872 23.895a7.047 7.047 0 012.749-1.223 6.133 6.133 0 012.9.14 6.873 6.873 0 014.438 4.509 7.984 7.984 0 01.284 3.4 7.282 7.282 0 01-1.205 2.853 6.574 6.574 0 01-5.23 2.45v.38"/><path d="M43.101 15.782a6.488 6.488 0 013.943-4.206 6.59 6.59 0 013.087-.263 7.19 7.19 0 013.139 1.325 9.534 9.534 0 011.307 1.174 8.486 8.486 0 01.91 1.414 6 6 0 01.7 3.014 6.428 6.428 0 01-2.773 5.046l.458.61m-24.256-8.368a6.51 6.51 0 01.724-5.71 6.879 6.879 0 012.345-2.019A8.144 8.144 0 0136 7a8.144 8.144 0 013.315.799 6.879 6.879 0 012.345 2.018 6.51 6.51 0 01.724 5.71l.717.255m-24.515 7.504a6.428 6.428 0 01-2.774-5.046 6 6 0 01.7-3.014 8.486 8.486 0 01.91-1.414 9.534 9.534 0 011.308-1.174 7.19 7.19 0 013.14-1.325 6.59 6.59 0 013.086.263 6.488 6.488 0 013.943 4.206l.717-.254M14.191 36.023a6.574 6.574 0 01-5.229-2.449 7.282 7.282 0 01-1.205-2.853 7.984 7.984 0 01.284-3.4 6.873 6.873 0 014.438-4.508 6.132 6.132 0 012.9-.14 7.338 7.338 0 012.749 1.223l.458-.61"/></g><circle cx="36" cy="36" r="22" fill="#d0cfce"/><path fill="none" stroke="#fff" stroke-linecap="round" stroke-linejoin="round" stroke-width="1.782" d="M32.436 35.132s0 .036.003.1a3.315 3.315 0 005.412 2.321c1.758-1.398 3.426-5.726-1.851-8.658-2.337-1.298-8.91.891-9.802 6.238a7.605 7.605 0 00.861 4.883 10.178 10.178 0 007.881 5.177c2.989.35 8.055-.406 9.97-4.714 3.564-8.02-2.673-11.584-2.673-11.584"/><g fill="none" stroke="#000" stroke-linecap="round" stroke-linejoin="round" stroke-width="2"><path d="M57.809 36.404a6.574 6.574 0 015.229 2.45 7.282 7.282 0 011.205 2.853 7.984 7.984 0 01-.284 3.4 6.873 6.873 0 01-4.438 4.508 6.134 6.134 0 01-2.9.14 7.341 7.341 0 01-2.749-1.223l-.458.61"/><path d="M53.414 49.142a6.427 6.427 0 012.774 5.046 6 6 0 01-.7 3.014 8.489 8.489 0 01-.91 1.414 9.534 9.534 0 01-1.308 1.174 7.19 7.19 0 01-3.14 1.325 6.59 6.59 0 01-3.087-.264 6.488 6.488 0 01-3.942-4.205l-.717.254"/><path d="M42.385 56.9a6.51 6.51 0 01-.725 5.71 6.878 6.878 0 01-2.345 2.019 8.146 8.146 0 01-3.315.799 8.146 8.146 0 01-3.315-.8 6.878 6.878 0 01-2.345-2.017 6.51 6.51 0 01-.724-5.711l-.717-.254m0 0a6.488 6.488 0 01-3.943 4.206 6.59 6.59 0 01-3.087.263 7.19 7.19 0 01-3.139-1.325 9.534 9.534 0 01-1.307-1.174 8.489 8.489 0 01-.91-1.414 6 6 0 01-.7-3.014 6.427 6.427 0 012.774-5.046l-.458-.61m-.001.001a7.341 7.341 0 01-2.749 1.223 6.134 6.134 0 01-2.9-.14 6.873 6.873 0 01-4.438-4.509 7.984 7.984 0 01-.284-3.4 7.282 7.282 0 011.205-2.853 6.574 6.574 0 015.23-2.45v-.38M53.872 23.895a7.047 7.047 0 012.749-1.223 6.133 6.133 0 012.9.14 6.873 6.873 0 014.438 4.509 7.984 7.984 0 01.284 3.4 7.282 7.282 0 01-1.205 2.853 6.574 6.574 0 01-5.23 2.45v.38"/><path d="M43.101 15.782a6.488 6.488 0 013.943-4.206 6.59 6.59 0 013.087-.263 7.19 7.19 0 013.139 1.325 9.534 9.534 0 011.307 1.174 8.486 8.486 0 01.91 1.414 6 6 0 01.7 3.014 6.428 6.428 0 01-2.773 5.046l.458.61m-24.256-8.368a6.51 6.51 0 01.724-5.71 6.879 6.879 0 012.345-2.019A8.144 8.144 0 0136 7a8.144 8.144 0 013.315.799 6.879 6.879 0 012.345 2.018 6.51 6.51 0 01.724 5.71l.717.255m-24.515 7.504a6.428 6.428 0 01-2.774-5.046 6 6 0 01.7-3.014 8.486 8.486 0 01.91-1.414 9.534 9.534 0 011.308-1.174 7.19 7.19 0 013.14-1.325 6.59 6.59 0 013.086.263 6.488 6.488 0 013.943 4.206l.717-.254M14.191 36.023a6.574 6.574 0 01-5.229-2.449 7.282 7.282 0 01-1.205-2.853 7.984 7.984 0 01.284-3.4 6.873 6.873 0 014.438-4.508 6.132 6.132 0 012.9-.14 7.338 7.338 0 012.749 1.223l.458-.61"/></g><g><path fill="none" stroke="#d22f27" stroke-linecap="round" stroke-linejoin="round" stroke-width="2" d="M32.436 34.241s0 .036.003.1a3.315 3.315 0 005.412 2.321c1.758-1.398 3.426-5.726-1.851-8.658-2.337-1.298-8.91.891-9.802 6.237a7.605 7.605 0 00.861 4.884A10.178 10.178 0 0034.94 44.3c2.989.351 8.055-.405 9.97-4.714 3.564-8.019-2.673-11.583-2.673-11.583"/></g></svg>