<svg viewBox="0 0 72 72" xmlns="http://www.w3.org/2000/svg"><path fill="#b3b3b3" d="M68 4v64H4V4h64m4-4H0v72h72V0z"/><path fill="none" stroke="#00a5ff" stroke-miterlimit="10" stroke-width=".1" d="M12.923 10.958h46.154A1.923 1.923 0 0161 12.881v46.154a1.923 1.923 0 01-1.923 1.923H12.923A1.923 1.923 0 0111 59.035V12.881a1.923 1.923 0 011.923-1.923z"/><rect x="16" y="4" rx="2.254" width="40" height="64" fill="none" stroke="#00a5ff" stroke-miterlimit="10" stroke-width=".1"/><rect x="16" y="4" rx="2.254" width="40" height="64" transform="rotate(90 36 36)" fill="none" stroke="#00a5ff" stroke-miterlimit="10" stroke-width=".1"/><circle cx="36" cy="36" r="29" fill="none" stroke="#00a5ff" stroke-miterlimit="10" stroke-width=".1"/><path d="M32.667 22.084C29.211 23.53 21 29 17 38c-2.291 5.154-5 22-5 22s6.44-3.095 13-4.333c4.417-.834 7.428-1.718 9.417-2.5 7-2.751 16.25-10.667 18.833-16.334C56.066 30.654 60 12 60 12s-3.5 2.167-11.75 5.167c-5.282 1.92-12 3.416-15.583 4.916zM50 22a2 2 0 012 2m-11 0a2 2 0 012 2m0 7a2 2 0 012 2m-13-6a2 2 0 012 2m1 10a2 2 0 012 2m-12-6a2 2 0 012 2" stroke-linecap="round" stroke-miterlimit="10" stroke-width="6" stroke="#fff" fill="none" stroke-linejoin="round"/><path fill="#f4aa41" d="M32.667 22.084C29.211 23.53 21 29 17 38c-2.291 5.154-5 22-5 22s6.44-3.095 13-4.333c4.417-.834 7.428-1.718 9.417-2.5 7-2.751 16.25-10.667 18.833-16.334C56.066 30.654 60 12 60 12s-3.5 2.167-11.75 5.167c-5.282 1.92-12 3.416-15.583 4.916z"/><path fill="#e27022" d="M59.175 12.466a4.953 4.953 0 01-2.43 1.964 4.997 4.997 0 00-2.942 6.43 4.997 4.997 0 01-2.943 6.427 5 5 0 00-2.942 6.43 4.999 4.999 0 01-2.94 6.43 4.996 4.996 0 00-2.942 6.43c.248.666.34 1.353.302 2.02 4.814-3.534 9.248-8.113 10.912-11.764C56.066 30.654 60 12 60 12s-.273.168-.825.466z"/><path d="M32.667 22.084C29.211 23.53 21 29 17 38c-2.291 5.154-5 22-5 22s6.44-3.095 13-4.333c4.417-.834 7.428-1.718 9.417-2.5 7-2.751 16.25-10.667 18.833-16.334C56.066 30.654 60 12 60 12s-3.5 2.167-11.75 5.167c-5.282 1.92-12 3.416-15.583 4.916zM50 22a2 2 0 012 2m-11 0a2 2 0 012 2m0 7a2 2 0 012 2m-13-6a2 2 0 012 2m1 10a2 2 0 012 2m-12-6a2 2 0 012 2" fill="none" stroke="#000" stroke-linecap="round" stroke-linejoin="round" stroke-miterlimit="10" stroke-width="2"/></svg>