<svg viewBox="0 0 72 72" xmlns="http://www.w3.org/2000/svg"><path fill="#b3b3b3" d="M68 4v64H4V4h64m4-4H0v72h72V0z"/><path fill="none" stroke="#00a5ff" stroke-miterlimit="10" stroke-width=".1" d="M12.923 10.958h46.154A1.923 1.923 0 0161 12.881v46.154a1.923 1.923 0 01-1.923 1.923H12.923A1.923 1.923 0 0111 59.035V12.881a1.923 1.923 0 011.923-1.923z"/><rect x="16" y="4" rx="2.254" width="40" height="64" fill="none" stroke="#00a5ff" stroke-miterlimit="10" stroke-width=".1"/><rect x="16" y="4" rx="2.254" width="40" height="64" transform="rotate(90 36 36)" fill="none" stroke="#00a5ff" stroke-miterlimit="10" stroke-width=".1"/><circle cx="36" cy="36" r="29" fill="none" stroke="#00a5ff" stroke-miterlimit="10" stroke-width=".1"/><g stroke-linecap="round" stroke-miterlimit="10" stroke-width="6" stroke="#fff" fill="none" stroke-linejoin="round"><circle cx="36.142" cy="35.999" transform="rotate(-45.001 36.14 36)" r="10"/><circle cx="22" cy="21.858" transform="rotate(-45.001 22 21.858)" r="10"/><circle cx="50.284" cy="50.142" transform="rotate(-45.001 50.284 50.142)" r="10"/><path d="M60.143 60l7 7"/></g><circle cx="36.142" cy="35.999" transform="rotate(-45.001 36.14 36)" fill="#FFF" r="10"/><circle cx="22.142" cy="21.999" transform="rotate(-45.001 22.142 22)" fill="#ea5a47" r="10"/><path fill="#D22F27" d="M29.213 14.92c-2.594-2.595-6.258-3.455-9.571-2.602a9.935 9.935 0 014.57 2.602c3.907 3.905 3.907 10.237.002 14.143a9.949 9.949 0 01-4.571 2.601c3.313.853 6.976-.008 9.57-2.602 3.906-3.905 3.906-10.237 0-14.142z"/><ellipse cx="50.142" cy="49.999" rx="9.999" ry="10" transform="rotate(-45.001 50.139 49.999)" fill="#b1cc33"/><path fill="#5c9e31" d="M57.213 42.92c-2.594-2.594-6.258-3.455-9.571-2.602a9.943 9.943 0 014.57 2.602 10 10 0 01.002 14.142 9.949 9.949 0 01-4.571 2.602c3.313.854 6.976-.008 9.57-2.602a10 10 0 000-14.142z"/><circle cx="36.142" cy="35.999" transform="rotate(-45.001 36.142 36)" fill="none" r="10"/><path fill="#d0cfce" d="M43.213 28.92c-2.594-2.595-6.258-3.455-9.571-2.602a9.935 9.935 0 014.57 2.602c3.907 3.905 3.907 10.236.002 14.142a9.949 9.949 0 01-4.571 2.602c3.313.854 6.976-.008 9.57-2.602 3.906-3.906 3.906-10.237 0-14.142z"/><g fill="none" stroke="#000" stroke-linecap="round" stroke-linejoin="round" stroke-miterlimit="10" stroke-width="2"><circle cx="36.142" cy="35.999" transform="rotate(-45.001 36.14 36)" r="10"/><circle cx="22" cy="21.858" transform="rotate(-45.001 22 21.858)" r="10"/><circle cx="50.284" cy="50.142" transform="rotate(-45.001 50.284 50.142)" r="10"/><path d="M60.143 60l7 7"/></g></svg>