<svg viewBox="0 0 72 72" xmlns="http://www.w3.org/2000/svg"><path fill="#b3b3b3" d="M68 4v64H4V4h64m4-4H0v72h72V0z"/><path fill="none" stroke="#00a5ff" stroke-miterlimit="10" stroke-width=".1" d="M12.923 10.958h46.154A1.923 1.923 0 0161 12.881v46.154a1.923 1.923 0 01-1.923 1.923H12.923A1.923 1.923 0 0111 59.035V12.881a1.923 1.923 0 011.923-1.923z"/><rect x="16" y="4" rx="2.254" width="40" height="64" fill="none" stroke="#00a5ff" stroke-miterlimit="10" stroke-width=".1"/><rect x="16" y="4" rx="2.254" width="40" height="64" transform="rotate(90 36 36)" fill="none" stroke="#00a5ff" stroke-miterlimit="10" stroke-width=".1"/><circle cx="36" cy="36" r="29" fill="none" stroke="#00a5ff" stroke-miterlimit="10" stroke-width=".1"/><g stroke-linecap="round" stroke-miterlimit="10" stroke-width="6" stroke="#fff" fill="none" stroke-linejoin="round"><path d="M5 19a2 2 0 012-2h58a2 2 0 012 2v34a2 2 0 01-2 2H7a2 2 0 01-2-2V19zm22-2v38m0-21h40"/><path d="M17.606 43.213c5.858-5.858 5.858-15.355 0-21.213H14c-5.857 5.858-5.857 15.355 0 21.213h3.606zM11 28h10"/><path d="M13 42.213L12 51l4-4h0l4 4-1.394-8.787M39 40a2 2 0 00-2-2h-4a2 2 0 00-2 2v9a2 2 0 002 2h4a2 2 0 002-2v-9zm12 0a2 2 0 00-2-2h-4a2 2 0 00-2 2v9a2 2 0 002 2h4a2 2 0 002-2v-9zm12 0a2 2 0 00-2-2h-4a2 2 0 00-2 2v9a2 2 0 002 2h4a2 2 0 002-2v-9zM44 21a5.001 5.001 0 01-7.071 7.071L44 21zm12.536 0a5.001 5.001 0 01-7.072 7.071L56.536 21zM39 44.334a2 2 0 01-2 2M39 40a2 2 0 01-2 2m14 2.334a2 2 0 01-2 2M51 40a2 2 0 01-2 2m14 2.334a2 2 0 01-2 2M63 40a2 2 0 01-2 2"/></g><path fill="#FFF" d="M5 19a2 2 0 012-2h58a2 2 0 012 2v34a2 2 0 01-2 2H7a2 2 0 01-2-2V19z"/><path fill="#d0cfce" d="M44.071 21A5.001 5.001 0 0137 28.071L44.071 21zm12.536 0a5.001 5.001 0 01-7.072 7.071L56.607 21z"/><path fill="#ea5a47" d="M39 40a2 2 0 00-2-2h-4a2 2 0 00-2 2v9a2 2 0 002 2h4a2 2 0 002-2v-9zm12 0a2 2 0 00-2-2h-4a2 2 0 00-2 2v9a2 2 0 002 2h4a2 2 0 002-2v-9zm12 0a2 2 0 00-2-2h-4a2 2 0 00-2 2v9a2 2 0 002 2h4a2 2 0 002-2v-9z"/><path fill="#61b2e4" d="M12.998 42.213l-1 8.787 4-4 4 4-1.393-8.787"/><path fill="#92d3f5" d="M17.605 43.213c5.857-5.858 5.857-15.355 0-21.213h-3.607c-5.857 5.858-5.857 15.355 0 21.213h3.607z"/><g fill="none" stroke="#000" stroke-linecap="round" stroke-linejoin="round" stroke-miterlimit="10" stroke-width="2"><path d="M5 19a2 2 0 012-2h58a2 2 0 012 2v34a2 2 0 01-2 2H7a2 2 0 01-2-2V19zm22-2v38m0-21h40"/><path d="M17.606 43.213c5.858-5.858 5.858-15.355 0-21.213H14c-5.857 5.858-5.857 15.355 0 21.213h3.606zM11 28h10"/><path d="M13 42.213L12 51l4-4h0l4 4-1.394-8.787M39 40a2 2 0 00-2-2h-4a2 2 0 00-2 2v9a2 2 0 002 2h4a2 2 0 002-2v-9zm12 0a2 2 0 00-2-2h-4a2 2 0 00-2 2v9a2 2 0 002 2h4a2 2 0 002-2v-9zm12 0a2 2 0 00-2-2h-4a2 2 0 00-2 2v9a2 2 0 002 2h4a2 2 0 002-2v-9zM44 21a5.001 5.001 0 01-7.071 7.071L44 21zm12.536 0a5.001 5.001 0 01-7.072 7.071L56.536 21zM39 44.334a2 2 0 01-2 2M39 40a2 2 0 01-2 2m14 2.334a2 2 0 01-2 2M51 40a2 2 0 01-2 2m14 2.334a2 2 0 01-2 2M63 40a2 2 0 01-2 2"/></g></svg>