<svg viewBox="0 0 72 72" xmlns="http://www.w3.org/2000/svg"><path fill="#b3b3b3" d="M68 4v64H4V4h64m4-4H0v72h72V0z"/><path fill="none" stroke="#00a5ff" stroke-miterlimit="10" stroke-width=".1" d="M12.923 10.958h46.154A1.923 1.923 0 0161 12.881v46.154a1.923 1.923 0 01-1.923 1.923H12.923A1.923 1.923 0 0111 59.035V12.881a1.923 1.923 0 011.923-1.923z"/><rect x="16" y="4" rx="2.254" width="40" height="64" fill="none" stroke="#00a5ff" stroke-miterlimit="10" stroke-width=".1"/><rect x="16" y="4" rx="2.254" width="40" height="64" transform="rotate(90 36 36)" fill="none" stroke="#00a5ff" stroke-miterlimit="10" stroke-width=".1"/><circle cx="36" cy="36" r="29" fill="none" stroke="#00a5ff" stroke-miterlimit="10" stroke-width=".1"/><path d="M57.59 18.33a6.431 6.431 0 00-2.467-1.533 4.371 4.371 0 00-3.793-.224 4.477 4.477 0 00-6.104-2.962 4.46 4.46 0 00-6.223-.2 4.445 4.445 0 00-6.532.574 4.472 4.472 0 00-6.716 2.333 4.434 4.434 0 00-5.252 4.424 4.432 4.432 0 00.055.545 4.405 4.405 0 00-3.98 5.207 4.472 4.472 0 00-2.332 6.716 4.445 4.445 0 00-.575 6.532 4.445 4.445 0 00.575 6.532A4.487 4.487 0 0016.2 52.86a6.486 6.486 0 0011.07 4.98l30.32-30.32a6.519 6.519 0 000-9.192z" stroke-linecap="round" stroke-miterlimit="10" stroke-width="6" stroke="#fff" fill="none" stroke-linejoin="round"/><path fill="#fcea2b" d="M57.09 18.09a6.431 6.431 0 00-2.467-1.533 4.371 4.371 0 00-3.793-.224 4.477 4.477 0 00-6.104-2.962 4.46 4.46 0 00-6.223-.2 4.445 4.445 0 00-6.532.574 4.472 4.472 0 00-6.716 2.333 4.434 4.434 0 00-5.252 4.424 4.432 4.432 0 00.055.545 4.405 4.405 0 00-3.98 5.207 4.472 4.472 0 00-2.332 6.716 4.445 4.445 0 00-.575 6.532 4.445 4.445 0 00.575 6.532A4.487 4.487 0 0015.7 52.62a6.486 6.486 0 0011.07 4.98l30.32-30.32a6.519 6.519 0 000-9.192z"/><path fill="none" stroke="#f1b31c" stroke-linecap="round" stroke-width="2" d="M14.25 33.21l3.393.613M20.56 21.28l2.823 2.014m9.097-9.314l.593 3.396"/><path transform="matrix(.6322 .7748 -.7436 .6686 0 0)" fill="none" stroke="#f1b31c" stroke-linecap="round" stroke-linejoin="round" stroke-width="2.001" d="M50.4 8.855A12.77 14.13 0 0139-4.115a12.77 14.13 0 019.473-14.75" paint-order="stroke fill markers"/><g><path fill="none" stroke="#000" stroke-linecap="round" stroke-linejoin="round" stroke-width="2" d="M57.59 18.33a6.431 6.431 0 00-2.467-1.533 4.371 4.371 0 00-3.793-.224 4.477 4.477 0 00-6.104-2.962 4.46 4.46 0 00-6.223-.2 4.445 4.445 0 00-6.532.574 4.472 4.472 0 00-6.716 2.333 4.434 4.434 0 00-5.252 4.424 4.432 4.432 0 00.055.545 4.405 4.405 0 00-3.98 5.207 4.472 4.472 0 00-2.332 6.716 4.445 4.445 0 00-.575 6.532 4.445 4.445 0 00.575 6.532A4.487 4.487 0 0016.2 52.86a6.486 6.486 0 0011.07 4.98l30.32-30.32a6.519 6.519 0 000-9.192z"/></g></svg>