<svg viewBox="0 0 72 72" xmlns="http://www.w3.org/2000/svg"><path fill="#b3b3b3" d="M68 4v64H4V4h64m4-4H0v72h72V0z"/><path fill="none" stroke="#00a5ff" stroke-miterlimit="10" stroke-width=".1" d="M12.923 10.958h46.154A1.923 1.923 0 0161 12.881v46.154a1.923 1.923 0 01-1.923 1.923H12.923A1.923 1.923 0 0111 59.035V12.881a1.923 1.923 0 011.923-1.923z"/><rect x="16" y="4" rx="2.254" width="40" height="64" fill="none" stroke="#00a5ff" stroke-miterlimit="10" stroke-width=".1"/><rect x="16" y="4" rx="2.254" width="40" height="64" transform="rotate(90 36 36)" fill="none" stroke="#00a5ff" stroke-miterlimit="10" stroke-width=".1"/><circle cx="36" cy="36" r="29" fill="none" stroke="#00a5ff" stroke-miterlimit="10" stroke-width=".1"/><g stroke-linecap="round" stroke-miterlimit="10" stroke-width="6" stroke="#fff" fill="none" stroke-linejoin="round"><path d="M17.712 29.958l2.85 24.542h30.875l2.85-24.542"/><path d="M54.269 29.956L51.437 54.5H20.562L17 23.625m38 0l-.73 6.331M15 22L8 37m49-15l7 15M20 22h32m-32 0l2 15m30-15l-2 15m-28 0h28M21 51h30m-31-3h31M18 26h2m-2 3h2m32-3h2m-2 3h2m-12-7l12.709-11.276a.961.961 0 00-1.359-1.36L42 22m-4 0L49.32 6.549a.955.955 0 00-.29-1.359.997.997 0 00-1.36.291L38 22"/></g><path d="M51 27h4v2h-4zm-34 0h4v2h-4zm3 22h32v2H20z" fill="#d22f27"/><g fill="none" stroke="#000" stroke-linecap="round" stroke-linejoin="round" stroke-width="2"><path d="M17.712 29.958l2.85 24.542h30.875l2.85-24.542"/><path d="M54.269 29.956L51.437 54.5H20.562L17 23.625m38 0l-.73 6.331M15 22L8 37m49-15l7 15M20 22h32m-32 0l2 15m30-15l-2 15m-28 0h28M21 51h30m-31-3h31M18 26h2m-2 3h2m32-3h2m-2 3h2m-12-7l12.709-11.276a.961.961 0 00-1.359-1.36L42 22m-4 0L49.32 6.549a.955.955 0 00-.29-1.359.997.997 0 00-1.36.291L38 22"/></g></svg>