<svg viewBox="0 0 72 72" xmlns="http://www.w3.org/2000/svg"><path fill="#b3b3b3" d="M68 4v64H4V4h64m4-4H0v72h72V0z"/><path fill="none" stroke="#00a5ff" stroke-miterlimit="10" stroke-width=".1" d="M12.923 10.958h46.154A1.923 1.923 0 0161 12.881v46.154a1.923 1.923 0 01-1.923 1.923H12.923A1.923 1.923 0 0111 59.035V12.881a1.923 1.923 0 011.923-1.923z"/><rect x="16" y="4" rx="2.254" width="40" height="64" fill="none" stroke="#00a5ff" stroke-miterlimit="10" stroke-width=".1"/><rect x="16" y="4" rx="2.254" width="40" height="64" transform="rotate(90 36 36)" fill="none" stroke="#00a5ff" stroke-miterlimit="10" stroke-width=".1"/><circle cx="36" cy="36" r="29" fill="none" stroke="#00a5ff" stroke-miterlimit="10" stroke-width=".1"/><g stroke-linecap="round" stroke-miterlimit="10" stroke-width="6" stroke="#fff" fill="none" stroke-linejoin="round"><path d="M38.089 37.047a25.402 25.402 0 00-5.68 1.228 29.259 29.259 0 00-10.8 7.09l-.005.005c-.078.086-.236.26-.242.27a14.506 14.506 0 002.372 2.855 19.399 19.399 0 101.789-24.545 20.132 20.132 0 00-4.161 4.505c.006.01.163.184.242.27l.005.005C26.132 33.678 34 37 34 37"/><path d="M17.847 38.124l-5.117-3.248 3.386-5.335 8.178 5.191"/></g><path fill="#d0cfce" d="M12.123 35.832l4.575-7.208 14.508 9.21-4.575 7.207z"/><path fill="#fcea2b" d="M38.089 37.047a25.402 25.402 0 00-5.68 1.228 29.259 29.259 0 00-10.8 7.09l-.005.005c-.078.086-.236.26-.242.27a14.506 14.506 0 002.372 2.855 19.399 19.399 0 101.789-24.545 20.132 20.132 0 00-4.161 4.505c.006.01.163.184.242.27l.005.005A43.358 43.358 0 0033 37"/><path fill="#f1b31c" d="M49.896 20.99a19.284 19.284 0 00-12.26-2.938 19.188 19.188 0 018.577 2.939 19.352 19.352 0 01-8.668 35.618 19.37 19.37 0 0012.35-35.618z"/><g fill="none" stroke="#000" stroke-linecap="round" stroke-linejoin="round" stroke-width="2"><path d="M38.089 37.047a25.402 25.402 0 00-5.68 1.228 29.259 29.259 0 00-10.8 7.09l-.005.005c-.078.086-.236.26-.242.27a14.506 14.506 0 002.372 2.855 19.399 19.399 0 101.789-24.545 20.132 20.132 0 00-4.161 4.505c.006.01.163.184.242.27l.005.005C26.132 33.678 34 37 34 37"/><path d="M17.847 38.124l-5.117-3.248 3.386-5.335 8.178 5.191"/></g></svg>