<svg viewBox="0 0 72 72" xmlns="http://www.w3.org/2000/svg"><path fill="#b3b3b3" d="M68 4v64H4V4h64m4-4H0v72h72V0z"/><path fill="none" stroke="#00a5ff" stroke-miterlimit="10" stroke-width=".1" d="M12.923 10.958h46.154A1.923 1.923 0 0161 12.881v46.154a1.923 1.923 0 01-1.923 1.923H12.923A1.923 1.923 0 0111 59.035V12.881a1.923 1.923 0 011.923-1.923z"/><rect x="16" y="4" rx="2.254" width="40" height="64" fill="none" stroke="#00a5ff" stroke-miterlimit="10" stroke-width=".1"/><rect x="16" y="4" rx="2.254" width="40" height="64" transform="rotate(90 36 36)" fill="none" stroke="#00a5ff" stroke-miterlimit="10" stroke-width=".1"/><circle cx="36" cy="36" r="29" fill="none" stroke="#00a5ff" stroke-miterlimit="10" stroke-width=".1"/><g stroke-linecap="round" stroke-miterlimit="10" stroke-width="6" stroke="#fff" fill="none" stroke-linejoin="round"><path d="M32 33l-7.5-7.5M40 33l8.5-8.5M40 41l7.5 7.5M32 41l-7.5 7.5m-12.435-12l24.218-24.217L60.5 36.5 36.283 60.718z"/><path d="M31.757 32.757h8.485v8.485h-8.485z"/></g><path fill="#92d3f5" d="M12.065 36.5l24.218-24.217L60.5 36.5 36.283 60.718z"/><path fill="#e27022" d="M31.757 32.757h8.485v8.485h-8.485z"/><g fill="none" stroke="#000" stroke-linecap="round" stroke-linejoin="round" stroke-width="2"><path d="M32 33l-7.5-7.5M40 33l8.5-8.5M40 41l7.5 7.5M32 41l-7.5 7.5m-12.435-12l24.218-24.217L60.5 36.5 36.283 60.718z"/><path d="M31.757 32.757h8.485v8.485h-8.485z"/></g></svg>