<svg viewBox="0 0 72 72" xmlns="http://www.w3.org/2000/svg"><path fill="#b3b3b3" d="M68 4.02v64H4v-64h64m4-4H0v72h72v-72z"/><path fill="none" stroke="#00a5ff" stroke-miterlimit="10" stroke-width=".1" d="M12.923 10.98h46.154A1.923 1.923 0 0161 12.901v46.154a1.923 1.923 0 01-1.923 1.923H12.923A1.923 1.923 0 0111 59.056V12.902a1.923 1.923 0 011.923-1.923z"/><rect x="16" y="4.021" rx="2.254" width="40" height="64" fill="none" stroke="#00a5ff" stroke-miterlimit="10" stroke-width=".1"/><rect x="16" y="4.021" rx="2.254" width="40" height="64" transform="rotate(90 36 36.02)" fill="none" stroke="#00a5ff" stroke-miterlimit="10" stroke-width=".1"/><circle cx="36" cy="36.021" r="29" fill="none" stroke="#00a5ff" stroke-miterlimit="10" stroke-width=".1"/><path d="M20.264 20.202h31.471v31.471H20.264z" stroke-linecap="round" stroke-miterlimit="10" stroke-width="6" stroke="#fff" fill="none" stroke-linejoin="round"/><path fill="#fff" d="M20.264 20.202h31.471v31.471H20.264z"/><path fill="none" stroke="#000" stroke-linecap="round" stroke-linejoin="round" stroke-width="2" d="M20.264 20.202h31.471v31.471H20.264z"/></svg>