<svg viewBox="0 0 72 72" xmlns="http://www.w3.org/2000/svg"><path fill="#B3B3B3" d="M68 4v64H4V4h64m4-4H0v72h72V0z"/><path fill="none" stroke="#00A5FF" stroke-miterlimit="10" stroke-width=".1" d="M12.923 10.958h46.154c1.062 0 1.923.861 1.923 1.923h0v46.154a1.923 1.923 0 01-1.923 1.923H12.923A1.923 1.923 0 0111 59.035h0V12.881c0-1.062.861-1.923 1.923-1.923h0z"/><path fill="none" stroke="#00A5FF" stroke-miterlimit="10" stroke-width=".1" d="M18.254 4h35.492A2.254 2.254 0 0156 6.254v59.492A2.254 2.254 0 0153.746 68H18.254A2.254 2.254 0 0116 65.746V6.254A2.254 2.254 0 0118.254 4z"/><path fill="none" stroke="#00A5FF" stroke-miterlimit="10" stroke-width=".1" d="M68 18.254v35.492A2.254 2.254 0 0165.746 56H6.254A2.254 2.254 0 014 53.746V18.254A2.254 2.254 0 016.254 16h59.492A2.254 2.254 0 0168 18.254z"/><circle cx="36" cy="36" r="29" fill="none" stroke="#00A5FF" stroke-miterlimit="10" stroke-width=".1"/><g stroke-linecap="round" stroke-miterlimit="10" stroke-width="6" stroke="#fff" fill="none" stroke-linejoin="round"><path d="M57.25 44.814A22.93 22.93 0 0059 36c0-12.703-10.298-23-23-23-12.703 0-23 10.297-23 23 0 12.702 10.297 23 23 23 3.37 0 6.572-.725 9.457-2.028M31.694 33.404a4.726 4.726 0 00-8.638 0m25.888 0a4.726 4.726 0 00-8.638 0"/><path d="M50.57 44.471s6.387 4.21 6.387 7.624c0 2.467-1.575 4.51-4.272 4.51-3.721 0-7.684-6.244-7.684-6.244"/><path d="M20.166 41.358C22.398 47.959 28.644 52.712 36 52.712s13.602-4.754 15.835-11.356"/></g><circle cx="36" cy="36" r="24" fill="#FCEA2B"/><path fill="#EA5A47" d="M50.57 44.471s6.387 4.21 6.387 7.624c0 2.467-1.575 4.51-4.272 4.51-3.721 0-7.684-6.244-7.684-6.244"/><g fill="none" stroke="#000" stroke-miterlimit="10" stroke-width="2"><path stroke-linecap="round" stroke-linejoin="round" d="M57.25 44.814A22.93 22.93 0 0059 36c0-12.703-10.298-23-23-23-12.703 0-23 10.297-23 23 0 12.702 10.297 23 23 23 3.37 0 6.572-.725 9.457-2.028"/><path stroke-linecap="round" d="M31.694 33.404a4.726 4.726 0 00-8.638 0m25.888 0a4.726 4.726 0 00-8.638 0"/><path d="M50.57 44.471s6.387 4.21 6.387 7.624c0 2.467-1.575 4.51-4.272 4.51-3.721 0-7.684-6.244-7.684-6.244"/><path stroke-linecap="round" stroke-linejoin="round" d="M20.166 41.358C22.398 47.959 28.644 52.712 36 52.712s13.602-4.754 15.835-11.356"/></g></svg>