<svg viewBox="0 0 72 72" xmlns="http://www.w3.org/2000/svg">
  <path fill="#b3b3b3" d="M68 4v64H4V4h64m4-4H0v72h72V0z"/>
  <path fill="none" stroke="#00a5ff" stroke-miterlimit="10" stroke-width="0.1" d="M12.92 10.96h46.15a1.923 1.923 0 011.923 1.923v46.15a1.923 1.923 0 01-1.923 1.923H12.92a1.923 1.923 0 01-1.923-1.923v-46.15a1.923 1.923 0 011.923-1.923z"/>
  <rect x="16" y="4" rx="2.254" width="40" height="64" fill="none" stroke="#00a5ff" stroke-miterlimit="10" stroke-width="0.1"/>
  <rect x="16" y="4" rx="2.254" width="40" height="64" transform="rotate(90 36 36)" fill="none" stroke="#00a5ff" stroke-miterlimit="10" stroke-width="0.1"/>
  <circle cx="36" cy="36" r="29" fill="none" stroke="#00a5ff" stroke-miterlimit="10" stroke-width="0.1"/>
  <g fill="none" stroke="#fff" stroke-linecap="round" stroke-linejoin="round" stroke-miterlimit="10" stroke-width="6">
    <circle cx="36" cy="36" r="26.68"/>
    <path d="M43.24 22.41l-15.01 26-.327-.189"/>
    <path stroke-width="26.082" d="M36 51.209a8.327 8.327 0 01-8.329-8.329V29.11a8.33 8.33 0 0116.658 0v13.77A8.327 8.327 0 0136 51.21z" clip-rule="evenodd"/>
  </g>
  <circle cx="36" cy="36" r="26.68" fill="#fff" fill-rule="evenodd"/>
  <g fill="none" stroke="#000" stroke-linejoin="round">
    <circle cx="36" cy="36" r="26.68" stroke-linecap="round" stroke-width="4.74"/>
    <path stroke-width="4.74" d="M43.24 22.41l-15.01 26-.327-.189"/>
    <path stroke-linecap="round" stroke-miterlimit="10" stroke-width="7.998" d="M36 51.209a8.327 8.327 0 01-8.329-8.329V29.11a8.33 8.33 0 0116.658 0v13.77A8.327 8.327 0 0136 51.21z" clip-rule="evenodd"/>
  </g>
</svg>
