<svg viewBox="0 0 72 72" xmlns="http://www.w3.org/2000/svg">
  <path fill="#b3b3b3" d="M68 4v64H4V4h64m4-4H0v72h72V0z"/>
  <path fill="none" stroke="#00a5ff" stroke-miterlimit="10" stroke-width="0.1" d="M12.923 10.958h46.154A1.923 1.923 0 0161 12.881v46.154a1.923 1.923 0 01-1.923 1.923H12.923A1.923 1.923 0 0111 59.035V12.881a1.923 1.923 0 011.923-1.923z"/>
  <rect x="16" y="4" rx="2.254" width="40" height="64" fill="none" stroke="#00a5ff" stroke-miterlimit="10" stroke-width="0.1"/>
  <rect x="16" y="4" rx="2.254" width="40" height="64" transform="rotate(90 36 36)" fill="none" stroke="#00a5ff" stroke-miterlimit="10" stroke-width="0.1"/>
  <circle cx="36" cy="36" r="29" fill="none" stroke="#00a5ff" stroke-miterlimit="10" stroke-width="0.1"/>
  <g fill="none" stroke="#fff" stroke-linecap="round" stroke-linejoin="round" stroke-miterlimit="10" stroke-width="6">
    <path d="M59.035 59.333h-46.07a.968.968 0 01-.965-.965v-46.07a.968.968 0 01.965-.965h46.07a.968.968 0 01.965.965v46.07a.968.968 0 01-.965.965z"/>
    <path d="M22 42.833v-15l10.714 15v-15m17.482 1.349a5.337 5.337 0 00-3.553-1.349h0a5.357 5.357 0 00-5.357 5.358v4.285a5.357 5.357 0 005.357 5.357h0A5.357 5.357 0 0052 37.476v-2.17h-4.286"/>
  </g>
  <path fill="#92d3f5" d="M59.035 59h-46.07a.968.968 0 01-.965-.965v-46.07a.968.968 0 01.965-.965h46.07a.968.968 0 01.965.965v46.07a.968.968 0 01-.965.965z"/>
  <g fill="none" stroke="#000" stroke-width="2">
    <path stroke-miterlimit="10" d="M59.035 59.333h-46.07a.968.968 0 01-.965-.965v-46.07a.968.968 0 01.965-.965h46.07a.968.968 0 01.965.965v46.07a.968.968 0 01-.965.965z"/>
    <path stroke-linecap="round" stroke-linejoin="round" d="M22 42.833v-15l10.714 15v-15m17.482 1.349a5.337 5.337 0 00-3.553-1.349h0a5.357 5.357 0 00-5.357 5.358v4.285a5.357 5.357 0 005.357 5.357h0A5.357 5.357 0 0052 37.476v-2.17h-4.286"/>
  </g>
</svg>
