<svg viewBox="0 0 72 72" xmlns="http://www.w3.org/2000/svg">
  <path fill="#b3b3b3" d="M68 4v64H4V4h64m4-4H0v72h72V0z"/>
  <path fill="none" stroke="#00a5ff" stroke-miterlimit="10" stroke-width="0.1" d="M12.923 10.958h46.154A1.923 1.923 0 0161 12.881v46.154a1.923 1.923 0 01-1.923 1.923H12.923A1.923 1.923 0 0111 59.035V12.881a1.923 1.923 0 011.923-1.923z"/>
  <rect x="16" y="4" rx="2.254" width="40" height="64" fill="none" stroke="#00a5ff" stroke-miterlimit="10" stroke-width="0.1"/>
  <rect x="16" y="4" rx="2.254" width="40" height="64" transform="rotate(90 36 36)" fill="none" stroke="#00a5ff" stroke-miterlimit="10" stroke-width="0.1"/>
  <circle cx="36" cy="36" r="29" fill="none" stroke="#00a5ff" stroke-miterlimit="10" stroke-width="0.1"/>
  <g fill="none" stroke="#fff" stroke-linecap="round" stroke-linejoin="round" stroke-miterlimit="10" stroke-width="6">
    <path d="M59.035 60h-46.07a.968.968 0 01-.965-.965v-46.07c0-.53.434-.965.965-.965h46.07c.53 0 .965.434.965.965v46.07c0 .53-.434.965-.965.965z"/>
    <path d="M44.168 33.244c-.293-1.138-1.557-1.994-3.073-1.994h0c-1.733 0-3.137 1.118-3.137 2.497s1.404 2.498 3.137 2.498l-.064.01c1.733 0 3.137 1.117 3.137 2.497s-1.404 2.498-3.137 2.498h0c-1.516 0-2.78-.856-3.073-1.995m-2.726-7.996l-2.854 9.99-2.855-9.99"/>
  </g>
  <path fill="#d0cfce" d="M59.035 60h-46.07a.968.968 0 01-.965-.965v-46.07c0-.53.434-.965.965-.965h46.07c.53 0 .965.434.965.965v46.07c0 .53-.434.965-.965.965z"/>
  <g fill="none" stroke="#000" stroke-linejoin="round" stroke-miterlimit="10" stroke-width="2">
    <path d="M59.035 60h-46.07a.968.968 0 01-.965-.965v-46.07c0-.53.434-.965.965-.965h46.07c.53 0 .965.434.965.965v46.07c0 .53-.434.965-.965.965z"/>
    <path stroke-linecap="round" d="M44.168 33.244c-.293-1.138-1.557-1.994-3.073-1.994h0c-1.733 0-3.137 1.118-3.137 2.497s1.404 2.498 3.137 2.498l-.064.01c1.733 0 3.137 1.117 3.137 2.497s-1.404 2.498-3.137 2.498h0c-1.516 0-2.78-.856-3.073-1.995m-2.726-7.996l-2.854 9.99-2.855-9.99"/>
  </g>
</svg>
