<svg viewBox="0 0 72 72" xmlns="http://www.w3.org/2000/svg">
  <path fill="#b3b3b3" d="M68 4v64H4V4h64m4-4H0v72h72V0z"/>
  <path fill="none" stroke="#00a5ff" stroke-miterlimit="10" stroke-width="0.1" d="M12.923 10.958h46.154A1.923 1.923 0 0161 12.881v46.154a1.923 1.923 0 01-1.923 1.923H12.923A1.923 1.923 0 0111 59.035V12.881a1.923 1.923 0 011.923-1.923z"/>
  <rect x="16" y="4" rx="2.254" ry="2.254" width="40" height="64" fill="none" stroke="#00a5ff" stroke-miterlimit="10" stroke-width="0.1"/>
  <rect x="16" y="4" rx="2.254" ry="2.254" width="40" height="64" transform="rotate(90 36 36)" fill="none" stroke="#00a5ff" stroke-miterlimit="10" stroke-width="0.1"/>
  <circle cx="36" cy="36" r="29" fill="none" stroke="#00a5ff" stroke-miterlimit="10" stroke-width="0.1"/>
  <path fill="none" stroke="#fff" stroke-linecap="round" stroke-linejoin="round" stroke-miterlimit="10" stroke-width="6" d="M5 17h62v38H5z"/>
  <path fill="#fff" d="M5 17h62v38H5z"/>
  <path fill="#d22f27" d="M63.173 17H8.827L36 33.654 63.173 17zm0 38L36 38.346 8.827 55h54.346z"/>
  <path fill="#5c9e31" d="M67 19.346L39.827 36 67 52.654V19.346zM5 52.654L32.173 36 5 19.346v33.308z"/>
  <circle cx="36" cy="36" r="10" fill="#fff"/>
  <circle cx="36" cy="31" r="2" fill="#d22f27"/>
  <circle cx="40.33" cy="38.5" r="2" fill="#d22f27"/>
  <circle cx="31.67" cy="38.5" r="2" fill="#d22f27"/>
  <path fill="none" d="M31.67 38.5L36 36m4.33 2.5L36 36"/>
  <g>
    <path fill="none" stroke="#000" stroke-linecap="round" stroke-linejoin="round" stroke-width="2" d="M5 17h62v38H5z"/>
  </g>
</svg>
