<svg viewBox="0 0 72 72" xmlns="http://www.w3.org/2000/svg">
  <path fill="#b3b3b3" d="M68 4v64H4V4h64m4-4H0v72h72V0z"/>
  <path fill="none" stroke="#00a5ff" stroke-miterlimit="10" stroke-width="0.1" d="M12.923 10.958h46.154A1.923 1.923 0 0161 12.881v46.154a1.923 1.923 0 01-1.923 1.923H12.923A1.923 1.923 0 0111 59.035V12.881a1.923 1.923 0 011.923-1.923z"/>
  <rect x="16" y="4" rx="2.254" ry="2.254" width="40" height="64" fill="none" stroke="#00a5ff" stroke-miterlimit="10" stroke-width="0.1"/>
  <rect x="16" y="4" rx="2.254" ry="2.254" width="40" height="64" transform="rotate(90 36 36)" fill="none" stroke="#00a5ff" stroke-miterlimit="10" stroke-width="0.1"/>
  <circle cx="36" cy="36" r="29" fill="none" stroke="#00a5ff" stroke-miterlimit="10" stroke-width="0.1"/>
  <path fill="none" stroke="#fff" stroke-linecap="round" stroke-linejoin="round" stroke-miterlimit="10" stroke-width="6" d="M5 17h62v38H5z"/>
  <path fill="#f1b31c" d="M5 17h62v38H5z"/>
  <path fill="#1e50a0" d="M5 17h21v38H5zm41 0h21v38H46z"/>
  <g stroke="#000" stroke-linecap="round" stroke-linejoin="round">
    <path d="M33.415 29.501L36 26.712l2.585 2.789-.642.595-1.504-1.629v16.821h-.878V28.467l-1.504 1.629-.642-.595zm8.085 9.711h-.797V31.9l-1.018 1.103-.435-.403 2.25-2.388v9zm-11-9l2.25 2.388-.435.403-1.018-1.103v7.312H30.5v-9z"/>
    <path d="M41.5 39.297h-11v-.594h11v.594z"/>
  </g>
  <g>
    <path fill="none" stroke="#000" stroke-linecap="round" stroke-linejoin="round" stroke-width="2" d="M5 17h62v38H5z"/>
  </g>
</svg>
