<svg viewBox="0 0 72 72" xmlns="http://www.w3.org/2000/svg">
  <path fill="#b3b3b3" d="M68 4v64H4V4h64m4-4H0v72h72V0z"/>
  <path fill="none" stroke="#00a5ff" stroke-miterlimit="10" stroke-width="0.1" d="M12.923 10.958h46.154A1.923 1.923 0 0161 12.881v46.154a1.923 1.923 0 01-1.923 1.923H12.923A1.923 1.923 0 0111 59.035V12.881a1.923 1.923 0 011.923-1.923z"/>
  <rect x="16" y="4" rx="2.254" ry="2.254" width="40" height="64" fill="none" stroke="#00a5ff" stroke-miterlimit="10" stroke-width="0.1"/>
  <rect x="16" y="4" rx="2.254" ry="2.254" width="40" height="64" transform="rotate(90 36 36)" fill="none" stroke="#00a5ff" stroke-miterlimit="10" stroke-width="0.1"/>
  <circle cx="36" cy="36" r="29" fill="none" stroke="#00a5ff" stroke-miterlimit="10" stroke-width="0.1"/>
  <path fill="none" stroke="#fff" stroke-linecap="round" stroke-linejoin="round" stroke-miterlimit="10" stroke-width="6" d="M5 17h62v38H5z"/>
  <path fill="#1e50a0" d="M5 17h62v38H5z"/>
  <path fill="#fff" d="M5 17h62v5H5zm0 9h62v4H5zm0 8h62v4H5zm0 8h62v4H5zm0 8h62v5H5z"/>
  <path fill="#fff" d="M5.001 17.002H26v20.997H5.001z"/>
  <path fill="#f1b31c" stroke="#f1b31c" stroke-linecap="round" stroke-linejoin="round" d="M15.296 26.896L17 24.536l-1.192 2.656L18.464 26l-2.36 1.704L19 28l-2.896.296L18.464 30l-2.656-1.192L17 31.464l-1.704-2.36L15 32l-.296-2.896L13 31.464l1.192-2.656L11.536 30l2.36-1.704L11 28l2.896-.296L11.536 26l2.656 1.192L13 24.536l1.704 2.36L15 24l.296 2.896z"/>
  <g>
    <path fill="none" stroke="#000" stroke-linecap="round" stroke-linejoin="round" stroke-width="2" d="M5 17h62v38H5z"/>
  </g>
</svg>
