<svg viewBox="0 0 72 72" xmlns="http://www.w3.org/2000/svg">
  <path fill="#b3b3b3" d="M68 4v64H4V4h64m4-4H0v72h72V0z"/>
  <path fill="none" stroke="#00a5ff" stroke-miterlimit="10" stroke-width="0.1" d="M12.923 10.958h46.154A1.923 1.923 0 0161 12.881v46.154a1.923 1.923 0 01-1.923 1.923H12.923A1.923 1.923 0 0111 59.035V12.881a1.923 1.923 0 011.923-1.923z"/>
  <rect x="16" y="4" rx="2.254" ry="2.254" width="40" height="64" fill="none" stroke="#00a5ff" stroke-miterlimit="10" stroke-width="0.1"/>
  <rect x="16" y="4" rx="2.254" ry="2.254" width="40" height="64" transform="rotate(90 36 36)" fill="none" stroke="#00a5ff" stroke-miterlimit="10" stroke-width="0.1"/>
  <circle cx="36" cy="36" r="29" fill="none" stroke="#00a5ff" stroke-miterlimit="10" stroke-width="0.1"/>
  <g stroke-linecap="round" stroke-linejoin="round">
    <path fill="#d22f27" stroke="#1e50a0" stroke-width="2" d="M50 55H22V17l28 20H33l17 18z"/>
    <path fill="#fff" stroke="#fff" d="M30 42.773L31.206 42l.658 1.272 1.43-.066-.066 1.431 1.272.657-.773 1.206.773 1.206-1.272.657.066 1.431-1.43-.066L31.206 51 30 50.227 28.794 51l-.657-1.272-1.431.066.066-1.431-1.272-.657.773-1.206-.773-1.206 1.272-.657-.066-1.431 1.431.066.657-1.272 1.206.773z"/>
    <circle cx="30" cy="30" r="2" fill="#fff" stroke="#fff"/>
    <path fill="none" stroke="#fff" stroke-width="1.5" d="M34 31c-.45 1-1.719 2-4 2s-3.55-1-4-2"/>
  </g>
</svg>
