<svg viewBox="0 0 72 72" xmlns="http://www.w3.org/2000/svg">
  <path fill="#b3b3b3" d="M68 4v64H4V4h64m4-4H0v72h72V0z"/>
  <path fill="none" stroke="#00a5ff" stroke-miterlimit="10" stroke-width="0.1" d="M12.923 10.958h46.154A1.923 1.923 0 0161 12.881v46.154a1.923 1.923 0 01-1.923 1.923H12.923A1.923 1.923 0 0111 59.035V12.881a1.923 1.923 0 011.923-1.923z"/>
  <rect x="16" y="4" rx="2.254" ry="2.254" width="40" height="64" fill="none" stroke="#00a5ff" stroke-miterlimit="10" stroke-width="0.1"/>
  <rect x="16" y="4" rx="2.254" ry="2.254" width="40" height="64" transform="rotate(90 36 36)" fill="none" stroke="#00a5ff" stroke-miterlimit="10" stroke-width="0.1"/>
  <circle cx="36" cy="36" r="29" fill="none" stroke="#00a5ff" stroke-miterlimit="10" stroke-width="0.1"/>
  <path fill="none" stroke="#fff" stroke-linecap="round" stroke-linejoin="round" stroke-miterlimit="10" stroke-width="6" d="M5 17h62v38H5z"/>
  <path fill="#5c9e31" d="M5 17h62v38H5z"/>
  <path fill="none" stroke="#d22f27" stroke-miterlimit="10" stroke-width="8.861" d="M9.431 21.43h53.14v29.14H9.431z"/>
  <path fill="#fff" stroke="#fff" stroke-linecap="round" stroke-linejoin="round" d="M34.59 36a6.215 6.215 0 015.405-5.885A7.487 7.487 0 0038.698 30c-3.702 0-6.703 2.686-6.703 6s3.001 6 6.703 6a7.487 7.487 0 001.297-.114A6.215 6.215 0 0134.59 36z"/>
  <g>
    <path fill="none" stroke="#000" stroke-linecap="round" stroke-linejoin="round" stroke-width="2" d="M5 17h62v38H5z"/>
  </g>
</svg>
