<svg viewBox="0 0 72 72" xmlns="http://www.w3.org/2000/svg">
  <path fill="#b3b3b3" d="M68 4v64H4V4h64m4-4H0v72h72V0z"/>
  <path fill="none" stroke="#00a5ff" stroke-miterlimit="10" stroke-width="0.1" d="M12.923 10.958h46.154A1.923 1.923 0 0161 12.881v46.154a1.923 1.923 0 01-1.923 1.923H12.923A1.923 1.923 0 0111 59.035V12.881a1.923 1.923 0 011.923-1.923z"/>
  <rect x="16" y="4" rx="2.254" ry="2.254" width="40" height="64" fill="none" stroke="#00a5ff" stroke-miterlimit="10" stroke-width="0.1"/>
  <rect x="16" y="4" rx="2.254" ry="2.254" width="40" height="64" transform="rotate(90 36 36)" fill="none" stroke="#00a5ff" stroke-miterlimit="10" stroke-width="0.1"/>
  <circle cx="36" cy="36" r="29" fill="none" stroke="#00a5ff" stroke-miterlimit="10" stroke-width="0.1"/>
  <path fill="none" stroke="#fff" stroke-linecap="round" stroke-linejoin="round" stroke-miterlimit="10" stroke-width="6" d="M5 17h62v38H5z"/>
  <path fill="#d22f27" d="M5 17h62v38H5z"/>
  <path fill="#5c9e31" d="M5 17h11v38H5z"/>
  <path fill="#e27022" d="M16 17h10v38H16z"/>
  <path fill="none" stroke="#f1b31c" stroke-miterlimit="10" stroke-width="2" d="M26 18v36M7 19h58v34H7z"/>
  <path fill="none" stroke="#f1b31c" stroke-linecap="round" stroke-linejoin="round" stroke-width="2" d="M50 45h2l1-2-3-6m-9 8h2l1-2-3-6m-4-11a7.07 7.07 0 00-1 4v12"/>
  <path fill="#f1b31c" stroke="#f1b31c" stroke-linecap="round" stroke-linejoin="round" stroke-width="2" d="M44 41c3 0 3-2 7-2l5 2c-1-2 2-3 1-6H42s-3 2-3 5h3z"/>
  <path fill="none" stroke="#f1b31c" stroke-linecap="round" stroke-linejoin="round" stroke-width="2" d="M54 45h2l1-2-3-6m-19 0l4 3m17-9a2 2 0 010 4m-4-4a2 2 0 010-4"/>
  <rect x="42" y="30" rx="1" ry="1" width="4" height="5" fill="#f1b31c"/>
  <rect x="42" y="30" rx="1" ry="1" width="4" height="5" fill="none" stroke="#f1b31c" stroke-linecap="round" stroke-linejoin="round" stroke-width="2"/>
  <path fill="none" stroke="#f1b31c" stroke-linecap="round" stroke-linejoin="round" stroke-width="2" d="M52 31h4m4-7l1-1m-30 1l-1-1m13 9l-3-1m3 2l-3 1m20 14l1 1m-30-1l-1 1"/>
  <g>
    <path fill="none" stroke="#000" stroke-linecap="round" stroke-linejoin="round" stroke-width="2" d="M5 17h62v38H5z"/>
  </g>
</svg>
