<svg viewBox="0 0 72 72" xmlns="http://www.w3.org/2000/svg">
  <path fill="#b3b3b3" d="M68 4v64H4V4h64m4-4H0v72h72V0z"/>
  <path fill="none" stroke="#00a5ff" stroke-miterlimit="10" stroke-width="0.1" d="M12.923 10.958h46.154A1.923 1.923 0 0161 12.881v46.154a1.923 1.923 0 01-1.923 1.923H12.923A1.923 1.923 0 0111 59.035V12.881a1.923 1.923 0 011.923-1.923z"/>
  <rect x="16" y="4" rx="2.254" ry="2.254" width="40" height="64" fill="none" stroke="#00a5ff" stroke-miterlimit="10" stroke-width="0.1"/>
  <rect x="16" y="4" rx="2.254" ry="2.254" width="40" height="64" transform="rotate(90 36 36)" fill="none" stroke="#00a5ff" stroke-miterlimit="10" stroke-width="0.1"/>
  <circle cx="36" cy="36" r="29" fill="none" stroke="#00a5ff" stroke-miterlimit="10" stroke-width="0.1"/>
  <path fill="none" stroke="#fff" stroke-linecap="round" stroke-linejoin="round" stroke-miterlimit="10" stroke-width="6" d="M5 17h62v38H5z"/>
  <path fill="#1e50a0" d="M5 17h62v38H5z"/>
  <path fill="#fff" stroke="#fff" stroke-miterlimit="10" stroke-width="2" d="M67.004 33.045l-28-.041.024-16-6-.008-.024 16-28-.041-.008 6 28 .041-.024 16 6 .008.024-16 28 .041.008-6z"/>
  <g stroke="#fff" stroke-linecap="round" stroke-linejoin="round" stroke-width="2">
    <path fill="#f1b31c" d="M16 50h6.5M16 50l6.5-1"/>
    <circle cx="22.5" cy="49.5" r="0.5" fill="none"/>
    <path fill="none" d="M19 47a3 3 0 003 3m-5-6h1.5a.501.501 0 01.5.5V47"/>
  </g>
  <g stroke="#fff" stroke-linecap="round" stroke-linejoin="round" stroke-width="2">
    <path fill="#f1b31c" d="M16 28h6.5M16 28l6.5-1"/>
    <circle cx="22.5" cy="27.5" r="0.5" fill="none"/>
    <path fill="none" d="M19 25a3 3 0 003 3m-5-6h1.5a.501.501 0 01.5.5V25"/>
  </g>
  <g stroke="#fff" stroke-linecap="round" stroke-linejoin="round" stroke-width="2">
    <path fill="#f1b31c" d="M50 50h6.5M50 50l6.5-1"/>
    <circle cx="56.5" cy="49.5" r="0.5" fill="none"/>
    <path fill="none" d="M53 47a3 3 0 003 3m-5-6h1.5a.501.501 0 01.5.5V47"/>
  </g>
  <g stroke="#fff" stroke-linecap="round" stroke-linejoin="round" stroke-width="2">
    <path fill="#f1b31c" d="M50 28h6.5M50 28l6.5-1"/>
    <circle cx="56.5" cy="27.5" r="0.5" fill="none"/>
    <path fill="none" d="M53 25a3 3 0 003 3m-5-6h1.5a.501.501 0 01.5.5V25"/>
  </g>
  <g>
    <path fill="none" stroke="#000" stroke-linecap="round" stroke-linejoin="round" stroke-width="2" d="M5 17h62v38H5z"/>
  </g>
</svg>
