<svg viewBox="0 0 72 72" xmlns="http://www.w3.org/2000/svg">
  <path fill="#b3b3b3" d="M68 4v64H4V4h64m4-4H0v72h72V0z"/>
  <path fill="none" stroke="#00a5ff" stroke-miterlimit="10" stroke-width="0.1" d="M12.923 10.958h46.154A1.923 1.923 0 0161 12.881v46.154a1.923 1.923 0 01-1.923 1.923H12.923A1.923 1.923 0 0111 59.035V12.881a1.923 1.923 0 011.923-1.923z"/>
  <rect x="16" y="4" rx="2.254" width="40" height="64" fill="none" stroke="#00a5ff" stroke-miterlimit="10" stroke-width="0.1"/>
  <rect x="16" y="4" rx="2.254" width="40" height="64" transform="rotate(90 36 36)" fill="none" stroke="#00a5ff" stroke-miterlimit="10" stroke-width="0.1"/>
  <circle cx="36" cy="36" r="29" fill="none" stroke="#00a5ff" stroke-miterlimit="10" stroke-width="0.1"/>
  <g fill="none" stroke="#fff" stroke-linecap="round" stroke-linejoin="round" stroke-miterlimit="10" stroke-width="6">
    <path d="M37.932 51.824V36.539h12.14v15.285m-12.14-10.391h12.14M23.834 30.254h8.898m-8.453 11.313l8.475-2.708m17.318-12.602v3.997h-12.14V19.615m-9.456 0v31.509h-7.229m16.685-4.388h12.14m-12.14-21.203l10.056-3.013"/>
    <rect x="11.168" y="11.09" rx="1.699" width="48.984" height="48.984"/>
  </g>
  <rect x="11.168" y="11.09" rx="1.699" width="48.984" height="48.984" fill="#d0cfce"/>
  <g fill="none" stroke="#000" stroke-width="2">
    <path stroke-linecap="round" stroke-linejoin="round" d="M37.932 51.824V36.539h12.14v15.285"/>
    <path stroke-miterlimit="5" d="M37.932 41.433h12.14"/>
    <path stroke-linecap="round" stroke-miterlimit="5" d="M23.834 30.254h8.898m-8.453 11.313l8.475-2.708"/>
    <path stroke-linecap="round" stroke-linejoin="round" d="M50.072 26.257v3.997h-12.14V19.615m-9.456 0v31.509h-7.229"/>
    <path stroke-miterlimit="5" d="M37.932 46.736h12.14"/>
    <path stroke-linecap="round" stroke-miterlimit="5" d="M37.932 25.533l10.056-3.013"/>
    <rect x="11.168" y="11.09" rx="1.699" width="48.984" height="48.984" stroke-miterlimit="10"/>
  </g>
</svg>
