<svg viewBox="0 0 72 72" xmlns="http://www.w3.org/2000/svg">
  <path fill="#b3b3b3" d="M68 4v64H4V4h64m4-4H0v72h72V0z"/>
  <path fill="none" stroke="#00a5ff" stroke-miterlimit="10" stroke-width="0.1" d="M12.923 10.958h46.154A1.923 1.923 0 0161 12.881v46.154a1.923 1.923 0 01-1.923 1.923H12.923A1.923 1.923 0 0111 59.035V12.881a1.923 1.923 0 011.923-1.923z"/>
  <rect x="16" y="4" rx="2.254" width="40" height="64" fill="none" stroke="#00a5ff" stroke-miterlimit="10" stroke-width="0.1"/>
  <rect x="16" y="4" rx="2.254" width="40" height="64" transform="rotate(90 36 36)" fill="none" stroke="#00a5ff" stroke-miterlimit="10" stroke-width="0.1"/>
  <circle cx="36" cy="36" r="29" fill="none" stroke="#00a5ff" stroke-miterlimit="10" stroke-width="0.1"/>
  <g fill="none" stroke="#fff" stroke-linecap="round" stroke-linejoin="round" stroke-miterlimit="10" stroke-width="6">
    <path d="M36.5 11A25.5 25.5 0 1111 36.5 25.529 25.529 0 0136.5 11m0-2A27.5 27.5 0 1064 36.5 27.5 27.5 0 0036.5 9zM21 25h31"/>
    <path d="M37.5 52.5h8v-26m-20 21v-14h12v10h-11"/>
  </g>
  <circle cx="36.5" cy="36.5" r="27.5" fill="#d0cfce"/>
  <path d="M36.5 11A25.5 25.5 0 1111 36.5 25.529 25.529 0 0136.5 11m0-2A27.5 27.5 0 1064 36.5 27.5 27.5 0 0036.5 9z"/>
  <path fill="none" stroke="#000" stroke-linecap="round" stroke-linejoin="round" stroke-width="2" d="M21 25h31M37.5 52.5h8v-26m-20 21v-14h12v10h-11"/>
</svg>
