<svg viewBox="0 0 72 72" xmlns="http://www.w3.org/2000/svg">
  <path fill="#b3b3b3" d="M68 4v64H4V4h64m4-4H0v72h72V0z"/>
  <path fill="none" stroke="#00a5ff" stroke-miterlimit="10" stroke-width="0.1" d="M12.923 10.958h46.154A1.923 1.923 0 0161 12.881v46.154a1.923 1.923 0 01-1.923 1.923H12.923A1.923 1.923 0 0111 59.035V12.881a1.923 1.923 0 011.923-1.923z"/>
  <rect x="16" y="4" rx="2.254" width="40" height="64" fill="none" stroke="#00a5ff" stroke-miterlimit="10" stroke-width="0.1"/>
  <rect x="16" y="4" rx="2.254" width="40" height="64" transform="rotate(90 36 36)" fill="none" stroke="#00a5ff" stroke-miterlimit="10" stroke-width="0.1"/>
  <circle cx="36" cy="36" r="29" fill="none" stroke="#00a5ff" stroke-miterlimit="10" stroke-width="0.1"/>
  <g fill="none" stroke="#fff" stroke-linecap="round" stroke-linejoin="round" stroke-miterlimit="10" stroke-width="6">
    <path d="M53.75 17.19l.927.663-.344-1.086.917-.677-1.14-.099-.36-.991-.36 1.081-1.14.009.917.677-.344 1.086.927-.663zM55 27.271l.618.442-.229-.724.611-.451-.76-.006-.24-.721-.24.721-.76.006.611.361-.229.814.618-.442zm-8-2.433l1.236.973-.459-1.448L49 23.46l-1.519-.011L47 22.007l-.481 1.442L45 23.46l1.223.903-.459 1.448L47 24.838zm-3.897 20.044l1.3.929-.483-1.523 1.286-.949-1.598-.012-.505-1.516-.505 1.426-1.598.102 1.285.949-.482 1.523 1.3-.929zm9.147-10.668l1.236.884-.459-1.449 1.223-.902-1.519-.102-.481-1.351-.481 1.441-1.519.012 1.223.902-.459 1.449 1.236-.884zM42 36.192l1.854 1.325-.688-2.173L45 33.991l-2.279-.107L42 31.811l-.721 2.163-2.279.017 1.834 1.353-.688 2.173L42 36.192zm-6.25 13.314l1.7 1.305-.631-1.992 1.681-1.241-2.089-.015-.661-1.983-.661 1.983-2.089.015 1.681 1.241-.631 1.992 1.7-1.305zM35 41.369l.618.442-.229-.724.611-.451-.76-.006-.24-.721-.24.721-.76.006.611.451-.229.634.618-.352zm13-3.098l.618.442-.229-.724.611-.451-.76-.096-.24-.631-.24.721-.76.006.611.451-.229.724.618-.442zM29 52.369l.618.442-.229-.724.611-.451-.76-.006-.24-.721-.24.721-.76.006.611.451-.229.634.618-.352zm-12.5 4.632l.927.663-.344-1.086.917-.767-1.14.081-.36-1.081-.36 1.081-1.14.009.917.677-.344 1.086.927-.663zm11-9l.927.663-.344-1.086.917-.677-1.14-.098-.36-.992-.36 1.081-1.14.009.917.677-.344 1.086.927-.663zm-5.397 5.881l1.3.929-.483-1.523 1.286-.949-1.598-.012-.505-1.516-.505 1.516-1.598.012 1.285.859-.482 1.613 1.3-.929z"/>
    <rect x="12" y="12" rx="1" width="48" height="48"/>
  </g>
  <g stroke="#000" stroke-linejoin="round">
    <path d="M53.75 17.19l.927.663-.344-1.086.917-.677-1.14-.099-.36-.991-.36 1.081-1.14.009.917.677-.344 1.086.927-.663z"/>
    <path stroke-width="0.75" d="M55 27.271l.618.442-.229-.724.611-.451-.76-.006-.24-.721-.24.721-.76.006.611.361-.229.814.618-.442z"/>
    <path stroke-width="2" d="M47 24.838l1.236.973-.459-1.448L49 23.46l-1.519-.011L47 22.007l-.481 1.442L45 23.46l1.223.903-.459 1.448L47 24.838z"/>
    <path stroke-width="1.5" d="M43.103 44.882l1.3.929-.483-1.523 1.286-.949-1.598-.012-.505-1.516-.505 1.426-1.598.102 1.285.949-.482 1.523 1.3-.929z"/>
    <path stroke-width="2" d="M52.25 34.214l1.236.884-.459-1.449 1.223-.902-1.519-.102-.481-1.351-.481 1.441-1.519.012 1.223.902-.459 1.449 1.236-.884zM42 36.192l1.854 1.325-.688-2.173L45 33.991l-2.279-.107L42 31.811l-.721 2.163-2.279.017 1.834 1.353-.688 2.173L42 36.192zm-6.25 13.314l1.7 1.305-.631-1.992 1.681-1.241-2.089-.015-.661-1.983-.661 1.983-2.089.015 1.681 1.241-.631 1.992 1.7-1.305z"/>
    <path stroke-width="0.75" d="M35 41.369l.618.442-.229-.724.611-.451-.76-.006-.24-.721-.24.721-.76.006.611.451-.229.634.618-.352zm13-3.098l.618.442-.229-.724.611-.451-.76-.096-.24-.631-.24.721-.76.006.611.451-.229.724.618-.442zM29 52.369l.618.442-.229-.724.611-.451-.76-.006-.24-.721-.24.721-.76.006.611.451-.229.634.618-.352z"/>
    <path d="M16.5 57.001l.927.663-.344-1.086.917-.767-1.14.081-.36-1.081-.36 1.081-1.14.009.917.677-.344 1.086.927-.663zm11-9l.927.663-.344-1.086.917-.677-1.14-.098-.36-.992-.36 1.081-1.14.009.917.677-.344 1.086.927-.663z"/>
    <path stroke-width="1.5" d="M22.103 53.882l1.3.929-.483-1.523 1.286-.949-1.598-.012-.505-1.516-.505 1.516-1.598.012 1.285.859-.482 1.613 1.3-.929z"/>
  </g>
  <rect x="12" y="12" rx="1" width="48" height="48" fill="#1e50a0"/>
  <g fill="#f1b31c" stroke="#f1b31c" stroke-linejoin="round">
    <path d="M53.75 17.19l.927.663-.344-1.086.917-.677-1.14-.099-.36-.991-.36 1.081-1.14.009.917.677-.344 1.086.927-.663z"/>
    <path stroke-width="0.75" d="M55 27.271l.618.442-.229-.724.611-.451-.76-.006-.24-.721-.24.721-.76.006.611.361-.229.814.618-.442z"/>
    <path stroke-width="2" d="M47 24.838l1.236.973-.459-1.448L49 23.46l-1.519-.011L47 22.007l-.481 1.442L45 23.46l1.223.903-.459 1.448L47 24.838z"/>
    <path stroke-width="1.5" d="M43.103 44.882l1.3.929-.483-1.523 1.286-.949-1.598-.012-.505-1.516-.505 1.426-1.598.102 1.285.949-.482 1.523 1.3-.929z"/>
    <path stroke-width="2" d="M52.25 34.214l1.236.884-.459-1.449 1.223-.902-1.519-.102-.481-1.351-.481 1.441-1.519.012 1.223.902-.459 1.449 1.236-.884zM42 36.192l1.854 1.325-.688-2.173L45 33.991l-2.279-.107L42 31.811l-.721 2.163-2.279.017 1.834 1.353-.688 2.173L42 36.192zm-6.25 13.314l1.7 1.305-.631-1.992 1.681-1.241-2.089-.015-.661-1.983-.661 1.983-2.089.015 1.681 1.241-.631 1.992 1.7-1.305z"/>
    <path stroke-width="0.75" d="M35 41.369l.618.442-.229-.724.611-.451-.76-.006-.24-.721-.24.721-.76.006.611.451-.229.634.618-.352zm13-3.098l.618.442-.229-.724.611-.451-.76-.096-.24-.631-.24.721-.76.006.611.451-.229.724.618-.442zM29 52.369l.618.442-.229-.724.611-.451-.76-.006-.24-.721-.24.721-.76.006.611.451-.229.634.618-.352z"/>
    <path d="M16.5 57.001l.927.663-.344-1.086.917-.767-1.14.081-.36-1.081-.36 1.081-1.14.009.917.677-.344 1.086.927-.663zm11-9l.927.663-.344-1.086.917-.677-1.14-.098-.36-.992-.36 1.081-1.14.009.917.677-.344 1.086.927-.663z"/>
    <path stroke-width="1.5" d="M22.103 53.882l1.3.929-.483-1.523 1.286-.949-1.598-.012-.505-1.516-.505 1.516-1.598.012 1.285.859-.482 1.613 1.3-.929z"/>
  </g>
  <g>
    <rect x="12" y="12" rx="1" width="48" height="48" fill="none" stroke="#000" stroke-miterlimit="10" stroke-width="2"/>
  </g>
</svg>
