<svg viewBox="0 0 72 72" xmlns="http://www.w3.org/2000/svg">
  <path fill="#B3B3B3" d="M68 4v64H4V4h64m4-4H0v72h72V0z"/>
  <path fill="none" stroke="#00A5FF" stroke-miterlimit="10" stroke-width="0.1" d="M12.923 10.958h46.154c1.062 0 1.923.861 1.923 1.923v46.154a1.923 1.923 0 01-1.923 1.923H12.923A1.923 1.923 0 0111 59.035h0V12.881c0-1.062.861-1.923 1.923-1.923h0z"/>
  <path fill="none" stroke="#00A5FF" stroke-miterlimit="10" stroke-width="0.1" d="M18.254 4h35.492A2.254 2.254 0 0156 6.254v59.492A2.254 2.254 0 0153.746 68H18.254A2.254 2.254 0 0116 65.746V6.254A2.254 2.254 0 0118.254 4z"/>
  <path fill="none" stroke="#00A5FF" stroke-miterlimit="10" stroke-width="0.1" d="M68 18.254v35.492A2.254 2.254 0 0165.746 56H6.254A2.254 2.254 0 014 53.746V18.254A2.254 2.254 0 016.254 16h59.492A2.254 2.254 0 0168 18.254z"/>
  <circle cx="36" cy="36" r="29" fill="none" stroke="#00A5FF" stroke-miterlimit="10" stroke-width="0.1"/>
  <g fill="none" stroke="#fff" stroke-linecap="round" stroke-linejoin="round" stroke-miterlimit="10" stroke-width="6">
    <path d="M68 47.896v20.062H4V27.833C4 13.148 13.579 4 27.836 3.997"/>
    <path d="M68 37.506C64.353 39.423 60.656 40.7 56.4 41 26.25 43.125 15 19.125 27.836 3.997"/>
    <path d="M68 47.896c-4.833 2.687-11.25 3.371-19.016 2.988-34.993-3.259-37.603-36.5-21.148-46.887m17.021 5.725c1.674 1.907 1.579 4.722-.21 6.293s-4.596 1.298-6.27-.608c0 0-2.07-2.286-3.018-8.876 0 0-.251-1.32.979-.96 6.412 1.79 8.519 4.151 8.519 4.151m19.018 53.556c-3.424 0-3.424-2.055-6.848-2.055-3.421 0-3.421 2.055-6.843 2.055-3.425 0-3.425-2.055-6.85-2.055-3.427 0-3.427 2.055-6.855 2.055s-3.427-2.055-6.854-2.055"/>
  </g>
  <path fill="#92D3F5" d="M4 28.19C4 14.816 14.286 3.976 27.837 3.976 15 19.344 26.25 43.722 56.4 41.563c4.256-.305 8.947-1.778 12.593-3.724v30.086a1.01 1.01 0 01-1.01 1.011L4 68.958V28.189"/>
  <path fill="#61B2E4" d="M21.784 10.012c-3.821 7.178-5.95 21.127 6.556 33.343 0 0 10.239 12.65 40.653 4.885V37.35s-11.106 7.592-27.525 2.338C26.083 34.765 22.043 23.16 22.558 18.92c.183-1.5.789-6.042.789-6.042s.839-3.014.545-3.8c-.34-.911-1.834.419-2.108.933z"/>
  <path fill="#92D3F5" d="M44.857 9.722c1.674 1.907 1.579 4.722-.21 6.293s-4.596 1.298-6.27-.608c0 0-2.07-2.286-3.018-8.876 0 0-.251-1.32.979-.96 6.412 1.79 8.519 4.151 8.519 4.151"/>
  <path fill="#61B2E4" d="M35.41 6.055c4.354-.6 9.166 3.388 9.166 3.388 2.133 2.43 1.86 5 .07 6.571 0 0-.997-5.442-9.236-9.959"/>
  <g fill="none" stroke="#000" stroke-linecap="round" stroke-linejoin="round" stroke-miterlimit="10">
    <path stroke-width="2" d="M68 47.896v20.062H4V27.833C4 13.148 13.579 4 27.836 3.997"/>
    <path stroke-width="2" d="M68 37.506C64.353 39.423 60.656 40.7 56.4 41 26.25 43.125 15 19.125 27.836 3.997"/>
    <path stroke-width="2" d="M68 47.896c-4.833 2.687-11.25 3.371-19.016 2.988-34.993-3.259-37.603-36.5-21.148-46.887"/>
    <path stroke-width="1.9" d="M44.857 9.722c1.674 1.907 1.579 4.722-.21 6.293s-4.596 1.298-6.27-.608c0 0-2.07-2.286-3.018-8.876 0 0-.251-1.32.979-.96 6.412 1.79 8.519 4.151 8.519 4.151"/>
    <path stroke-width="2" d="M63.875 63.278c-3.424 0-3.424-2.055-6.848-2.055-3.421 0-3.421 2.055-6.843 2.055-3.425 0-3.425-2.055-6.85-2.055-3.427 0-3.427 2.055-6.855 2.055s-3.427-2.055-6.854-2.055"/>
  </g>
</svg>
