<svg viewBox="0 0 72 72" xmlns="http://www.w3.org/2000/svg">
  <path fill="#b3b3b3" d="M68 4v64H4V4h64m4-4H0v72h72V0z"/>
  <path fill="none" stroke="#00a5ff" stroke-miterlimit="10" stroke-width="0.1" d="M12.923 10.958h46.154A1.923 1.923 0 0161 12.881v46.154a1.923 1.923 0 01-1.923 1.923H12.923A1.923 1.923 0 0111 59.035V12.881a1.923 1.923 0 011.923-1.923z"/>
  <rect x="16" y="4" rx="2.254" width="40" height="64" fill="none" stroke="#00a5ff" stroke-miterlimit="10" stroke-width="0.1"/>
  <rect x="16" y="4" rx="2.254" width="40" height="64" transform="rotate(90 36 36)" fill="none" stroke="#00a5ff" stroke-miterlimit="10" stroke-width="0.1"/>
  <circle cx="36" cy="36" r="29" fill="none" stroke="#00a5ff" stroke-miterlimit="10" stroke-width="0.1"/>
  <path fill="none" stroke="#fff" stroke-linecap="round" stroke-linejoin="round" stroke-miterlimit="10" stroke-width="6" d="M19.279 22.44a.756.756 0 01-.672.678c-4.3.46-7.607 4.694-7.607 9.847 0 5.461 3.787 9.888 8.459 9.888h32.248c5.132 0 9.293-4.678 9.293-10.45 0-5.53-3.821-10.057-8.657-10.424a.805.805 0 01-.74-.65c-1.08-5.547-6.064-9.716-11.956-9.716-3.829 0-7.24 1.734-9.455 4.492-.216.269-.58.392-.899.258-.852-.357-1.752-.53-2.76-.53-3.806 0-6.93 2.905-7.254 6.607zm9.489 30.079v7.868m-3.36-1.967l6.719-3.935m0 3.935l-6.719-3.935m30.883-8.445v7.222m-3.083-1.805l6.166-3.612m0 3.612l-6.166-3.612m-36.25-.805v7.222m-3.084-1.805l6.167-3.612m0 3.612l-6.167-3.612m28.835-.769v12.007m-5.126-3.001l10.253-6.005m0 6.005l-10.253-6.005"/>
  <path fill="#d0cfce" d="M19.279 22.44a.756.756 0 01-.672.678c-4.3.46-7.607 4.694-7.607 9.847 0 5.461 3.787 9.888 8.459 9.888h32.248c5.132 0 9.293-4.678 9.293-10.45 0-5.53-3.821-10.057-8.657-10.424a.805.805 0 01-.74-.65c-1.08-5.547-6.064-9.716-11.956-9.716-3.829 0-7.24 1.734-9.455 4.492-.216.269-.58.392-.899.258-.852-.357-1.752-.53-2.76-.53-3.806 0-6.93 2.905-7.254 6.607z"/>
  <g fill="none" stroke="#000" stroke-linecap="round" stroke-linejoin="round" stroke-miterlimit="10">
    <path stroke-width="2" d="M19.279 22.44a.756.756 0 01-.672.678c-4.3.46-7.607 4.694-7.607 9.847 0 5.461 3.787 9.888 8.459 9.888h32.248c5.132 0 9.293-4.678 9.293-10.45 0-5.53-3.821-10.057-8.657-10.424a.805.805 0 01-.74-.65c-1.08-5.547-6.064-9.716-11.956-9.716-3.829 0-7.24 1.734-9.455 4.492-.216.269-.58.392-.899.258-.852-.357-1.752-.53-2.76-.53-3.806 0-6.93 2.905-7.254 6.607z"/>
    <path stroke-width="1.8" d="M28.768 52.519v7.868m-3.36-1.967l6.719-3.935m0 3.935l-6.719-3.935m30.883-8.445v7.222m-3.083-1.805l6.166-3.612m0 3.612l-6.166-3.612m-36.25-.805v7.222m-3.084-1.805l6.167-3.612m0 3.612l-6.167-3.612m28.835-.769v12.007m-5.126-3.001l10.253-6.005m0 6.005l-10.253-6.005"/>
  </g>
</svg>
