<svg viewBox="0 0 72 72" xmlns="http://www.w3.org/2000/svg">
  <path fill="#b3b3b3" d="M68 4v64H4V4h64m4-4H0v72h72V0z"/>
  <path fill="none" stroke="#00a5ff" stroke-miterlimit="10" stroke-width="0.1" d="M12.923 10.958h46.154A1.923 1.923 0 0161 12.881v46.154a1.923 1.923 0 01-1.923 1.923H12.923A1.923 1.923 0 0111 59.035V12.881a1.923 1.923 0 011.923-1.923z"/>
  <rect x="16" y="4" rx="2.254" width="40" height="64" fill="none" stroke="#00a5ff" stroke-miterlimit="10" stroke-width="0.1"/>
  <rect x="16" y="4" rx="2.254" width="40" height="64" transform="rotate(90 36 36)" fill="none" stroke="#00a5ff" stroke-miterlimit="10" stroke-width="0.1"/>
  <circle cx="36" cy="36" r="29" fill="none" stroke="#00a5ff" stroke-miterlimit="10" stroke-width="0.1"/>
  <g fill="none" stroke="#fff" stroke-linecap="round" stroke-linejoin="round" stroke-miterlimit="10" stroke-width="6">
    <rect x="12" y="12" rx="1" width="48" height="48"/>
    <path d="M38 54.938L21 55s-5 0-5-5 6-5 6-5m1-3.062s1-9 9-9a7.5 7.5 0 016 3m1 3s4.163-4.613 9-3a6.83 6.83 0 014 4m-2 3s7-1 7 5-8 7-15 7m-9.985-36.514C34.17 15.534 40.265 13.85 43 19m-7 10.064S40 29 45 29a3.508 3.508 0 100-7m-25-2s2-3 5-3 4 3 4 3m20.644-2.187A6.05 6.05 0 0154.814 24M27.696 47.365s3.696-5.598 7.929-2.268M20 23c-5 1-3 6 0 6h11"/>
  </g>
  <rect x="12" y="12" rx="1" width="48" height="48" fill="#d0cfce"/>
  <g fill="none" stroke="#000" stroke-linecap="round" stroke-miterlimit="10" stroke-width="2">
    <rect x="12" y="12" rx="1" width="48" height="48"/>
    <path d="M38 54.938L21 55s-5 0-5-5 6-5 6-5m1-3.062s1-9 9-9a7.5 7.5 0 016 3m1 3s4.163-4.613 9-3a6.83 6.83 0 014 4m-2 3s7-1 7 5-8 7-15 7m-9.985-36.514C34.17 15.534 40.265 13.85 43 19m-7 10.064S40 29 45 29a3.508 3.508 0 100-7m-25-2s2-3 5-3 4 3 4 3m20.644-2.187A6.05 6.05 0 0154.814 24M27.696 47.365s3.696-5.598 7.929-2.268M20 23c-5 1-3 6 0 6h11"/>
  </g>
</svg>
