<svg viewBox="0 0 72 72" xmlns="http://www.w3.org/2000/svg">
  <path fill="#b3b3b3" d="M68 4v64H4V4h64m4-4H0v72h72V0z"/>
  <path fill="none" stroke="#00a5ff" stroke-miterlimit="10" stroke-width="0.1" d="M12.923 10.958h46.154A1.923 1.923 0 0161 12.881v46.154a1.923 1.923 0 01-1.923 1.923H12.923A1.923 1.923 0 0111 59.035V12.881a1.923 1.923 0 011.923-1.923z"/>
  <rect x="16" y="4" rx="2.254" width="40" height="64" fill="none" stroke="#00a5ff" stroke-miterlimit="10" stroke-width="0.1"/>
  <rect x="16" y="4" rx="2.254" width="40" height="64" transform="rotate(90 36 36)" fill="none" stroke="#00a5ff" stroke-miterlimit="10" stroke-width="0.1"/>
  <circle cx="36" cy="36" r="29" fill="none" stroke="#00a5ff" stroke-miterlimit="10" stroke-width="0.1"/>
  <path fill="none" stroke="#fff" stroke-linecap="round" stroke-linejoin="round" stroke-miterlimit="10" stroke-width="6" d="M36 63.166v-12l-5-22m5 22l5-10M22.362 19.992c4.067 1.4 6.098 6.216 6.098 6.216s-4.564 2.548-8.632 1.149-6.098-6.216-6.098-6.216 4.566-2.546 8.632-1.149zm29.573 15.88c4.2.928 6.765 5.482 6.765 5.482s-4.245 3.05-8.445 2.123-6.765-5.483-6.765-5.483 4.247-3.048 8.445-2.122z"/>
  <path fill="#B1CC33" d="M51.935 35.872c4.2.928 6.765 5.482 6.765 5.482s-4.245 3.05-8.445 2.123-6.765-5.483-6.765-5.483 4.247-3.048 8.445-2.122z"/>
  <path fill="#5C9E31" d="M22.362 19.992c4.067 1.4 6.098 6.216 6.098 6.216s-4.564 2.548-8.632 1.149-6.098-6.216-6.098-6.216 4.566-2.546 8.632-1.149z"/>
  <path fill="none" stroke="#000" stroke-linecap="round" stroke-linejoin="round" stroke-width="2" d="M36 63.166v-12l-5-22m5 22l5-10M22.362 19.992c4.067 1.4 6.098 6.216 6.098 6.216s-4.564 2.548-8.632 1.149-6.098-6.216-6.098-6.216 4.566-2.546 8.632-1.149zm29.573 15.88c4.2.928 6.765 5.482 6.765 5.482s-4.245 3.05-8.445 2.123-6.765-5.483-6.765-5.483 4.247-3.048 8.445-2.122z"/>
</svg>
