<svg viewBox="0 0 72 72" xmlns="http://www.w3.org/2000/svg">
  <path fill="#b3b3b3" d="M68 4v64H4V4h64m4-4H0v72h72V0z"/>
  <path fill="none" stroke="#00a5ff" stroke-miterlimit="10" stroke-width="0.1" d="M12.923 10.958h46.154A1.923 1.923 0 0161 12.881v46.154a1.923 1.923 0 01-1.923 1.923H12.923A1.923 1.923 0 0111 59.035V12.881a1.923 1.923 0 011.923-1.923z"/>
  <rect x="16" y="4" rx="2.254" ry="2.254" width="40" height="64" fill="none" stroke="#00a5ff" stroke-miterlimit="10" stroke-width="0.1"/>
  <rect x="16" y="4" rx="2.254" ry="2.254" width="40" height="64" transform="rotate(90 36 36)" fill="none" stroke="#00a5ff" stroke-miterlimit="10" stroke-width="0.1"/>
  <circle cx="36" cy="36" r="29" fill="none" stroke="#00a5ff" stroke-miterlimit="10" stroke-width="0.1"/>
  <g fill="none" stroke="#fff" stroke-linecap="round" stroke-linejoin="round" stroke-miterlimit="10" stroke-width="6">
    <path d="M16.927 23.498l.084.194C34.508 34.184 57 23.614 57 23.614a23.843 23.843 0 00-19.356-10.108M16 23.614c17.497 10.492 41 0 41 0m-10.527 3.93s4.606 13.533-1.184 25.301m1.184-25.301s4.606 13.533-1.184 25.301"/>
    <path d="M21.977 17.807c-6.157 3.983-10.244 10.39-9.866 17.742.389 7.565 6.78 14.68 13.547 16.362 4.101 1.018 8.704 4.838 10.017 5.983a.625.625 0 00.773.04 69.433 69.433 0 018.549-4.984c8.574-4.202 13.503-9.836 14.977-17.4 2.29-11.762-10.085-22.043-23.302-22.043a27.39 27.39 0 00-11.383 2.485m1.737 11.552a113.756 113.756 0 001.184 25.301"/>
  </g>
  <path fill="#a57939" d="M28 28.614l18-1s5 25-1 25l-9 5-7.79-4.769C24 40.614 28 28.614 28 28.614z"/>
  <path fill="#f1b31c" d="M17 23.614s.422-2.317 4-5c4-3 16-5 16-5l-14 12z"/>
  <path fill="#6a462f" d="M27 27.614l-11.25-4s-12.75 19 11.25 28zm20 0l11.25-4s10.5 11.429-11.25 28l1-13z"/>
  <path fill="#f1b31c" d="M16.927 23.498l.084.194C34.508 34.184 57 23.614 57 23.614a23.843 23.843 0 00-19.356-10.108"/>
  <g fill="none" stroke="#000" stroke-width="2">
    <path stroke-miterlimit="10" d="M16.927 23.498l.084.194C34.508 34.184 57 23.614 57 23.614a23.843 23.843 0 00-19.356-10.108M16 23.614c17.497 10.492 41 0 41 0m-10.527 3.93s4.606 13.533-1.184 25.301m1.184-25.301s4.606 13.533-1.184 25.301"/>
    <path stroke-linecap="round" stroke-linejoin="round" d="M21.977 17.807c-6.157 3.983-10.244 10.39-9.866 17.742.389 7.565 6.78 14.68 13.547 16.362 4.101 1.018 8.704 4.838 10.017 5.983a.625.625 0 00.773.04 69.433 69.433 0 018.549-4.984c8.574-4.202 13.503-9.836 14.977-17.4 2.29-11.762-10.085-22.043-23.302-22.043a27.39 27.39 0 00-11.383 2.485"/>
    <path stroke-miterlimit="10" d="M27.026 27.544a113.756 113.756 0 001.184 25.301"/>
  </g>
</svg>
