<svg viewBox="0 0 72 72" xmlns="http://www.w3.org/2000/svg">
  <path fill="#b3b3b3" d="M68 4v64H4V4h64m4-4H0v72h72V0z"/>
  <path fill="none" stroke="#00a5ff" stroke-miterlimit="10" stroke-width="0.1" d="M12.923 10.958h46.154A1.923 1.923 0 0161 12.881v46.154a1.923 1.923 0 01-1.923 1.923H12.923A1.923 1.923 0 0111 59.035V12.881a1.923 1.923 0 011.923-1.923z"/>
  <rect x="16" y="4" rx="2.254" width="40" height="64" fill="none" stroke="#00a5ff" stroke-miterlimit="10" stroke-width="0.1"/>
  <rect x="16" y="4" rx="2.254" width="40" height="64" transform="rotate(90 36 36)" fill="none" stroke="#00a5ff" stroke-miterlimit="10" stroke-width="0.1"/>
  <circle cx="36" cy="36" r="29" fill="none" stroke="#00a5ff" stroke-miterlimit="10" stroke-width="0.1"/>
  <g fill="none" stroke="#fff" stroke-linecap="round" stroke-linejoin="round" stroke-miterlimit="10" stroke-width="6">
    <path d="M27.124 46.732v8.04s-.117 1.357 2.527 1.357h11.77s2.254.397 2.254-1.72v-7.677m17.321-12.774c0 8.837-11.193 9-25 9s-25-.163-25-9 11.193-23 25-23 25 14.164 25 23z"/>
    <path d="M60.996 33.958c0 8.837-11.193 9-25 9s-25-.163-25-9 11.193-23 25-23 25 14.164 25 23z"/>
    <path d="M22.742 15.387s4.692 14.121-10.925 14.012c0 0 3.005-9.064 10.925-14.012z"/>
    <ellipse cx="35.996" cy="30.149" rx="8.021" ry="6.176" transform="rotate(-2.189 35.99 30.143)"/>
    <path d="M49.155 15.387S44.463 29.508 60.08 29.399c0 0-3.005-9.064-10.925-14.012z"/>
  </g>
  <path fill="#D0CFCE" stroke="#D0CFCE" stroke-linecap="round" stroke-linejoin="round" stroke-miterlimit="10" stroke-width="2" d="M27.124 42.962v11.254s-.117 1.901 2.527 1.901h11.77s2.254.557 2.254-2.408V42.96"/>
  <path fill="#D0CFCE" d="M27.124 46.732v8.04s-.117 1.357 2.527 1.357h11.77s2.254.397 2.254-1.72v-7.677"/>
  <path fill="#EA5A47" d="M60.996 33.958c0 8.837-11.193 9-25 9s-25-.163-25-9 11.193-23 25-23 25 14.164 25 23z"/>
  <path fill="none" stroke="#FFF" stroke-linecap="round" stroke-linejoin="round" stroke-miterlimit="10" stroke-width="2" d="M60.996 33.958c0 8.837-11.193 9-25 9s-25-.163-25-9 11.193-23 25-23 25 14.164 25 23z"/>
  <path fill="#D22F27" d="M60.996 33.96c0 8.836-11.194 9.001-25.004 9.001 33.174-7.596 0-32.003 0-32.003 13.81 0 25.004 14.164 25.004 23.001z"/>
  <path fill="#FFF" d="M22.742 15.387s4.692 14.121-10.925 14.012c0 0 3.005-9.064 10.925-14.012z"/>
  <ellipse cx="35.996" cy="30.149" rx="8.021" ry="6.176" transform="rotate(-2.189 35.99 30.143)" fill="#FFF"/>
  <path fill="#D0CFCE" d="M49.155 15.387S44.463 29.508 60.08 29.399c0 0-3.005-9.064-10.925-14.012z"/>
  <g fill="none" stroke="#000" stroke-linecap="round" stroke-linejoin="round" stroke-miterlimit="10" stroke-width="2">
    <path d="M27.124 46.732v8.04s-.117 1.357 2.527 1.357h11.77s2.254.397 2.254-1.72v-7.677m17.321-12.774c0 8.837-11.193 9-25 9s-25-.163-25-9 11.193-23 25-23 25 14.164 25 23z"/>
    <path d="M60.996 33.958c0 8.837-11.193 9-25 9s-25-.163-25-9 11.193-23 25-23 25 14.164 25 23z"/>
    <path d="M22.742 15.387s4.692 14.121-10.925 14.012c0 0 3.005-9.064 10.925-14.012z"/>
    <ellipse cx="35.996" cy="30.149" rx="8.021" ry="6.176" transform="rotate(-2.189 35.99 30.143)"/>
    <path d="M49.155 15.387S44.463 29.508 60.08 29.399c0 0-3.005-9.064-10.925-14.012z"/>
  </g>
</svg>
