<svg viewBox="0 0 72 72" xmlns="http://www.w3.org/2000/svg">
  <path fill="#b3b3b3" d="M68 4v64H4V4h64m4-4H0v72h72V0z"/>
  <path fill="none" stroke="#00a5ff" stroke-miterlimit="10" stroke-width="0.1" d="M12.923 10.958h46.154A1.923 1.923 0 0161 12.881v46.154a1.923 1.923 0 01-1.923 1.923H12.923A1.923 1.923 0 0111 59.035V12.881a1.923 1.923 0 011.923-1.923z"/>
  <rect x="16" y="4" rx="2.254" width="40" height="64" fill="none" stroke="#00a5ff" stroke-miterlimit="10" stroke-width="0.1"/>
  <rect x="16" y="4" rx="2.254" width="40" height="64" transform="rotate(90 36 36)" fill="none" stroke="#00a5ff" stroke-miterlimit="10" stroke-width="0.1"/>
  <circle cx="36" cy="36" r="29" fill="none" stroke="#00a5ff" stroke-miterlimit="10" stroke-width="0.1"/>
  <g fill="none" stroke="#fff" stroke-linecap="round" stroke-linejoin="round" stroke-miterlimit="10" stroke-width="6">
    <path d="M16.03 55.937a5.479 5.479 0 01-1.018-6.081c-4.257-8.348-1.675-20.26 6.954-28.89s20.542-11.21 28.89-6.954a5.48 5.48 0 016.175 1.11 5.48 5.48 0 011.11 6.175c4.266 8.357 1.675 20.26-6.954 28.89s-20.533 11.22-28.89 6.954a5.48 5.48 0 01-6.267-1.204"/>
    <path d="M16.03 55.937a5.479 5.479 0 01-1.018-6.081c-4.257-8.348-1.675-20.26 6.954-28.89s20.542-11.21 28.89-6.954a5.48 5.48 0 016.175 1.11 5.48 5.48 0 011.11 6.175c4.266 8.357 1.675 20.26-6.954 28.89s-20.533 11.22-28.89 6.954a5.48 5.48 0 01-6.267-1.204"/>
  </g>
  <path fill="#fcea2b" d="M16.03 55.937a5.479 5.479 0 01-1.018-6.081c-4.257-8.348-1.675-20.26 6.954-28.89s20.542-11.21 28.89-6.954a5.48 5.48 0 016.175 1.11 5.48 5.48 0 011.11 6.175c4.266 8.357 1.675 20.26-6.954 28.89s-20.533 11.22-28.89 6.954a5.48 5.48 0 01-6.267-1.204"/>
  <path fill="#f4aa41" d="M50.556 50.012C41.925 58.643 30.02 61.234 21.66 56.97c34.683 0 36.337-35.145 36.337-35.145 4.274 8.35 1.18 19.558-7.442 28.188z"/>
  <path fill="#f4aa41" d="M30.454 59.988C27.178 59.988 20 57 20 57l-2.5-1.03h4.161c13.988 0 24.18-5.737 30.295-17.048 4.587-8.488 5.04-17.06 5.043-17.145l.177-3.755 1.713 3.347c4.464 8.723 1.47 20.244-7.626 29.35-6 6-13.69 9.27-20.809 9.27zm-3.525-2.303c7.453 1.351 16.268-1.728 22.92-8.38 7.086-7.094 10.257-16 8.6-23.312-1.63 8.848-7.92 29.064-31.52 31.692z"/>
  <path fill="#f4aa41" d="M56.961 14.9s1.827 4.824.968 7.235l-4.101-4.101 3.133-3.133m-40.793 42.22s5.054 1.029 7.295-.206l-4.705-3.39-2.59 3.596"/>
  <g fill="none" stroke="#000" stroke-linecap="round" stroke-miterlimit="10" stroke-width="2">
    <path d="M16.03 55.937a5.479 5.479 0 01-1.018-6.081c-4.257-8.348-1.675-20.26 6.954-28.89s20.542-11.21 28.89-6.954a5.48 5.48 0 016.175 1.11 5.48 5.48 0 011.11 6.175c4.266 8.357 1.675 20.26-6.954 28.89s-20.533 11.22-28.89 6.954a5.48 5.48 0 01-6.267-1.204"/>
    <path d="M16.03 55.937a5.479 5.479 0 01-1.018-6.081c-4.257-8.348-1.675-20.26 6.954-28.89s20.542-11.21 28.89-6.954a5.48 5.48 0 016.175 1.11 5.48 5.48 0 011.11 6.175c4.266 8.357 1.675 20.26-6.954 28.89s-20.533 11.22-28.89 6.954a5.48 5.48 0 01-6.267-1.204"/>
  </g>
</svg>
