<svg viewBox="0 0 72 72" xmlns="http://www.w3.org/2000/svg">
  <path fill="#b3b3b3" d="M68 4v64H4V4h64m4-4H0v72h72V0z"/>
  <path fill="none" stroke="#00a5ff" stroke-miterlimit="10" stroke-width="0.1" d="M12.923 10.958h46.154A1.923 1.923 0 0161 12.881v46.154a1.923 1.923 0 01-1.923 1.923H12.923A1.923 1.923 0 0111 59.035V12.881a1.923 1.923 0 011.923-1.923z"/>
  <rect x="16" y="4" rx="2.254" width="40" height="64" fill="none" stroke="#00a5ff" stroke-miterlimit="10" stroke-width="0.1"/>
  <rect x="16" y="4" rx="2.254" width="40" height="64" transform="rotate(90 36 36)" fill="none" stroke="#00a5ff" stroke-miterlimit="10" stroke-width="0.1"/>
  <circle cx="36" cy="36" r="29" fill="none" stroke="#00a5ff" stroke-miterlimit="10" stroke-width="0.1"/>
  <path fill="none" stroke="#fff" stroke-linecap="round" stroke-linejoin="round" stroke-miterlimit="10" stroke-width="6" d="M33.493 61a2.994 2.994 0 002.5-1.346 2.993 2.993 0 002.5 1.346 3 3 0 000-6v-6h-5v6a3 3 0 100 6zm7.384-48.214c-.777-1.94-2.667-3.314-4.884-3.314s-4.106 1.375-4.884 3.314C24.692 21.011 24.32 32.41 29.993 41v5a3 3 0 003 3h6a3 3 0 003-3v-5.001c5.673-8.59 5.302-19.988-1.116-28.213z"/>
  <path fill="#FFF" d="M33.493 61a2.994 2.994 0 002.5-1.346 2.993 2.993 0 002.5 1.346 3 3 0 000-6v-6h-5v6a3 3 0 100 6z"/>
  <path fill="#f4aa41" d="M40.877 12.786c-.777-1.94-2.667-3.314-4.884-3.314s-4.106 1.375-4.884 3.314C24.692 21.011 24.32 32.41 29.993 41v5a3 3 0 003 3h6a3 3 0 003-3v-5.001c5.673-8.59 5.302-19.988-1.116-28.213z"/>
  <path fill="none" stroke="#000" stroke-linecap="round" stroke-linejoin="round" stroke-miterlimit="10" stroke-width="2" d="M33.493 61a2.994 2.994 0 002.5-1.346 2.993 2.993 0 002.5 1.346 3 3 0 000-6v-6h-5v6a3 3 0 100 6zm7.384-48.214c-.777-1.94-2.667-3.314-4.884-3.314s-4.106 1.375-4.884 3.314C24.692 21.011 24.32 32.41 29.993 41v5a3 3 0 003 3h6a3 3 0 003-3v-5.001c5.673-8.59 5.302-19.988-1.116-28.213z"/>
</svg>
