<svg viewBox="0 0 72 72" xmlns="http://www.w3.org/2000/svg">
  <path fill="#b3b3b3" d="M68 4v64H4V4h64m4-4H0v72h72V0z"/>
  <path fill="none" stroke="#00a5ff" stroke-miterlimit="10" stroke-width="0.1" d="M12.923 10.958h46.154A1.923 1.923 0 0161 12.881v46.154a1.923 1.923 0 01-1.923 1.923H12.923A1.923 1.923 0 0111 59.035V12.881a1.923 1.923 0 011.923-1.923z"/>
  <rect x="16" y="4" rx="2.254" width="40" height="64" fill="none" stroke="#00a5ff" stroke-miterlimit="10" stroke-width="0.1"/>
  <rect x="16" y="4" rx="2.254" width="40" height="64" transform="rotate(90 36 36)" fill="none" stroke="#00a5ff" stroke-miterlimit="10" stroke-width="0.1"/>
  <circle cx="36" cy="36" r="29" fill="none" stroke="#00a5ff" stroke-miterlimit="10" stroke-width="0.1"/>
  <g fill="none" stroke="#fff" stroke-linecap="round" stroke-linejoin="round" stroke-miterlimit="10" stroke-width="6">
    <circle cx="36" cy="36" r="28"/>
    <path d="M41.6 43.33a3.062 3.062 0 00-3.15-2.965 3.275 3.275 0 00-1.382.312 2.794 2.794 0 00.332-1.3 2.85 2.85 0 00-.817-1.977 2.85 2.85 0 00.817-1.977 2.799 2.799 0 00-.23-1.102 2.994 2.994 0 002.33-2.85 3.062 3.062 0 00-3.15-2.965 3.275 3.275 0 00-1.382.313 2.795 2.795 0 00.332-1.301 3.062 3.062 0 00-3.15-2.965 3.275 3.275 0 00-1.382.313 2.794 2.794 0 00.332-1.301 3.156 3.156 0 00-6.3 0 2.794 2.794 0 00.332 1.3 3.275 3.275 0 00-1.382-.312 3.115 3.115 0 00-3.029 2.193 3.306 3.306 0 00-1.171-.217 3.062 3.062 0 00-3.15 2.965 2.994 2.994 0 002.33 2.85 2.8 2.8 0 00-.23 1.103 2.85 2.85 0 00.818 1.977 2.798 2.798 0 000 3.953 2.85 2.85 0 00-.818 1.976 2.994 2.994 0 002.33 2.85 2.8 2.8 0 00-.23 1.103 2.85 2.85 0 00.818 1.976 2.85 2.85 0 00-.818 1.977 3.062 3.062 0 003.15 2.965 3.237 3.237 0 002.1-.77 3.237 3.237 0 002.1.77 3.304 3.304 0 001.171-.217A3.115 3.115 0 0032.15 54.2a3.062 3.062 0 003.15-2.965 2.794 2.794 0 00-.332-1.3 3.275 3.275 0 001.382.312 3.062 3.062 0 003.15-2.965 2.8 2.8 0 00-.23-1.102 2.994 2.994 0 002.33-2.85z"/>
    <path d="M39.19 54.196c4.72.176 8.775-5.02 9.224-11.69 4.614-.042 8.415-3.144 8.58-7.145.171-4.139-3.606-7.64-8.435-7.821a10.047 10.047 0 00-2.174.178 6.341 6.341 0 00.11-.69c.17-4.14-3.606-7.641-8.436-7.822a10.012 10.012 0 00-3.427.462"/>
  </g>
  <circle cx="36" cy="36" r="28" fill="#d0cfce"/>
  <path fill="#f4aa41" stroke="#f4aa41" stroke-miterlimit="10" stroke-width="2" d="M56.994 35.361c.171-4.14-3.606-7.64-8.435-7.821a10.047 10.047 0 00-2.174.178 6.341 6.341 0 00.11-.69c.17-4.14-3.606-7.641-8.436-7.822s-8.882 3.029-9.053 7.168a7.413 7.413 0 004.503 6.822 15.84 15.84 0 00-2.548 8.189c-.284 6.895 3.4 12.63 8.23 12.811 4.718.176 8.773-5.02 9.222-11.69 4.615-.042 8.417-3.144 8.581-7.145z"/>
  <path fill="#fff" d="M41.6 43.33a3.062 3.062 0 00-3.15-2.965 3.275 3.275 0 00-1.382.312 2.794 2.794 0 00.332-1.3 2.85 2.85 0 00-.817-1.977 2.85 2.85 0 00.817-1.977 2.799 2.799 0 00-.23-1.102 2.994 2.994 0 002.33-2.85 3.062 3.062 0 00-3.15-2.965 3.275 3.275 0 00-1.382.313 2.795 2.795 0 00.332-1.301 3.062 3.062 0 00-3.15-2.965 3.275 3.275 0 00-1.382.313 2.794 2.794 0 00.332-1.301 3.156 3.156 0 00-6.3 0 2.794 2.794 0 00.332 1.3 3.275 3.275 0 00-1.382-.312 3.115 3.115 0 00-3.029 2.193 3.306 3.306 0 00-1.171-.217 3.062 3.062 0 00-3.15 2.965 2.994 2.994 0 002.33 2.85 2.8 2.8 0 00-.23 1.103 2.85 2.85 0 00.818 1.977 2.798 2.798 0 000 3.953 2.85 2.85 0 00-.818 1.976 2.994 2.994 0 002.33 2.85 2.8 2.8 0 00-.23 1.103 2.85 2.85 0 00.818 1.976 2.85 2.85 0 00-.818 1.977 3.062 3.062 0 003.15 2.965 3.237 3.237 0 002.1-.77 3.237 3.237 0 002.1.77 3.304 3.304 0 001.171-.217A3.115 3.115 0 0032.15 54.2a3.062 3.062 0 003.15-2.965 2.794 2.794 0 00-.332-1.3 3.275 3.275 0 001.382.312 3.062 3.062 0 003.15-2.965 2.8 2.8 0 00-.23-1.102 2.994 2.994 0 002.33-2.85z"/>
  <rect x="38.8" y="23.4" rx="1" width="4.2" height="2.8" fill="#fcea2b"/>
  <rect x="44.4" y="33.2" rx="1" width="4.2" height="2.8" transform="rotate(27.642 46.5 34.6)" fill="#fcea2b"/>
  <rect x="41.6" y="45.8" rx="1" width="4.2" height="2.8" transform="rotate(-23.451 43.7 47.2)" fill="#fcea2b"/>
  <rect x="50" y="34.6" rx="1" width="4.2" height="2.8" fill="#fcea2b"/>
  <g fill="none" stroke="#000" stroke-width="2">
    <circle cx="36" cy="36" r="28" stroke-miterlimit="10"/>
    <path stroke-linecap="round" stroke-linejoin="round" d="M41.6 43.33a3.062 3.062 0 00-3.15-2.965 3.275 3.275 0 00-1.382.312 2.794 2.794 0 00.332-1.3 2.85 2.85 0 00-.817-1.977 2.85 2.85 0 00.817-1.977 2.799 2.799 0 00-.23-1.102 2.994 2.994 0 002.33-2.85 3.062 3.062 0 00-3.15-2.965 3.275 3.275 0 00-1.382.313 2.795 2.795 0 00.332-1.301 3.062 3.062 0 00-3.15-2.965 3.275 3.275 0 00-1.382.313 2.794 2.794 0 00.332-1.301 3.156 3.156 0 00-6.3 0 2.794 2.794 0 00.332 1.3 3.275 3.275 0 00-1.382-.312 3.115 3.115 0 00-3.029 2.193 3.306 3.306 0 00-1.171-.217 3.062 3.062 0 00-3.15 2.965 2.994 2.994 0 002.33 2.85 2.8 2.8 0 00-.23 1.103 2.85 2.85 0 00.818 1.977 2.798 2.798 0 000 3.953 2.85 2.85 0 00-.818 1.976 2.994 2.994 0 002.33 2.85 2.8 2.8 0 00-.23 1.103 2.85 2.85 0 00.818 1.976 2.85 2.85 0 00-.818 1.977 3.062 3.062 0 003.15 2.965 3.237 3.237 0 002.1-.77 3.237 3.237 0 002.1.77 3.304 3.304 0 001.171-.217A3.115 3.115 0 0032.15 54.2a3.062 3.062 0 003.15-2.965 2.794 2.794 0 00-.332-1.3 3.275 3.275 0 001.382.312 3.062 3.062 0 003.15-2.965 2.8 2.8 0 00-.23-1.102 2.994 2.994 0 002.33-2.85z"/>
    <path stroke-linecap="round" stroke-linejoin="round" d="M39.19 54.196c4.72.176 8.775-5.02 9.224-11.69 4.614-.042 8.415-3.144 8.58-7.145.171-4.139-3.606-7.64-8.435-7.821a10.047 10.047 0 00-2.174.178 6.341 6.341 0 00.11-.69c.17-4.14-3.606-7.641-8.436-7.822a10.012 10.012 0 00-3.427.462"/>
  </g>
</svg>
