<svg viewBox="0 0 72 72" xmlns="http://www.w3.org/2000/svg">
  <path fill="#b3b3b3" d="M68 4v64H4V4h64m4-4H0v72h72V0z"/>
  <path fill="none" stroke="#00a5ff" stroke-miterlimit="10" stroke-width="0.1" d="M12.923 10.958h46.154A1.923 1.923 0 0161 12.881v46.154a1.923 1.923 0 01-1.923 1.923H12.923A1.923 1.923 0 0111 59.035V12.881a1.923 1.923 0 011.923-1.923z"/>
  <rect x="16" y="4" rx="2.254" width="40" height="64" fill="none" stroke="#00a5ff" stroke-miterlimit="10" stroke-width="0.1"/>
  <rect x="16" y="4" rx="2.254" width="40" height="64" transform="rotate(90 36 36)" fill="none" stroke="#00a5ff" stroke-miterlimit="10" stroke-width="0.1"/>
  <circle cx="36" cy="36" r="29" fill="none" stroke="#00a5ff" stroke-miterlimit="10" stroke-width="0.1"/>
  <g fill="none" stroke="#fff" stroke-linecap="round" stroke-linejoin="round" stroke-miterlimit="10" stroke-width="6">
    <path d="M22.19 17.02C24.5 11.71 29.79 8 35.947 8s11.45 3.71 13.76 9.02"/>
    <path d="M27.833 17.158A9.983 9.983 0 0135.948 13a9.987 9.987 0 018.117 4.158m-11.193 1.919A4.924 4.924 0 0135.948 18c1.166 0 2.23.405 3.077 1.077M7 36c0 16.017 12.983 29 29 29s29-12.983 29-29H7zm3-3c1.39-6.847 7.442-12 14.698-12 7.258 0 13.309 5.153 14.7 12"/>
    <path d="M15.157 33c1.276-4.057 5.065-7 9.541-7a10 10 0 019.541 7"/>
    <path d="M20.722 33c.912-1.207 2.346-2 3.976-2 1.631 0 3.065.793 3.979 2m10.33-9.5a14.925 14.925 0 018.295-2.5C54.558 21 60.61 26.153 62 33"/>
    <path d="M41.793 27.653A9.94 9.94 0 0147.302 26c4.476 0 8.265 2.943 9.54 7m-12.848-.728A4.94 4.94 0 0147.302 31c1.63 0 3.064.793 3.976 2M11 11l7 7"/>
  </g>
  <circle cx="24.688" cy="36" r="16" fill="#fcea2b"/>
  <circle cx="47.313" cy="36" r="16" fill="#fcea2b"/>
  <circle cx="35.938" cy="23" r="16" fill="#fcea2b"/>
  <path fill="#d0cfce" d="M49 36c0 16.016-4 29-13 29 16.017 0 29-12.984 29-29H49z"/>
  <path fill="#FFF" d="M7 36c0 16.016 12.983 29 29 29 9 0 13-12.984 13-29H7zm4-25l7 7"/>
  <g fill="none" stroke="#000" stroke-linecap="round" stroke-linejoin="round" stroke-miterlimit="10" stroke-width="2">
    <path d="M22.19 17.02C24.5 11.71 29.79 8 35.947 8s11.45 3.71 13.76 9.02"/>
    <path d="M27.833 17.158A9.983 9.983 0 0135.948 13a9.987 9.987 0 018.117 4.158m-11.193 1.919A4.924 4.924 0 0135.948 18c1.166 0 2.23.405 3.077 1.077M7 36c0 16.017 12.983 29 29 29s29-12.983 29-29H7zm3-3c1.39-6.847 7.442-12 14.698-12 7.258 0 13.309 5.153 14.7 12"/>
    <path d="M15.157 33c1.276-4.057 5.065-7 9.541-7a10 10 0 019.541 7"/>
    <path d="M20.722 33c.912-1.207 2.346-2 3.976-2 1.631 0 3.065.793 3.979 2m10.33-9.5a14.925 14.925 0 018.295-2.5C54.558 21 60.61 26.153 62 33"/>
    <path d="M41.793 27.653A9.94 9.94 0 0147.302 26c4.476 0 8.265 2.943 9.54 7m-12.848-.728A4.94 4.94 0 0147.302 31c1.63 0 3.064.793 3.976 2M11 11l7 7"/>
  </g>
</svg>
