<svg viewBox="0 0 72 72" xmlns="http://www.w3.org/2000/svg">
  <path fill="#b3b3b3" d="M68 4v64H4V4h64m4-4H0v72h72V0z"/>
  <path fill="none" stroke="#00a5ff" stroke-miterlimit="10" stroke-width="0.1" d="M12.923 10.958h46.154A1.923 1.923 0 0161 12.881v46.154a1.923 1.923 0 01-1.923 1.923H12.923A1.923 1.923 0 0111 59.035V12.881a1.923 1.923 0 011.923-1.923z"/>
  <rect x="16" y="4" rx="2.254" ry="2.254" width="40" height="64" fill="none" stroke="#00a5ff" stroke-miterlimit="10" stroke-width="0.1"/>
  <rect x="16" y="4" rx="2.254" ry="2.254" width="40" height="64" transform="rotate(90 36 36)" fill="none" stroke="#00a5ff" stroke-miterlimit="10" stroke-width="0.1"/>
  <circle cx="36" cy="36" r="29" fill="none" stroke="#00a5ff" stroke-miterlimit="10" stroke-width="0.1"/>
  <g fill="none" stroke="#fff" stroke-linecap="round" stroke-linejoin="round" stroke-miterlimit="10" stroke-width="6">
    <path d="M52.396 38c1-8-6.716-13-15-13s-15.973 7.78-17 16c-1 8 7.716 16 16 16s14.972-10.78 16-19zm-16-13c10-1 14 5 14 5"/>
    <path d="M45.396 42.5a19.482 19.482 0 00-9.91-16.967 7.39 7.39 0 012.91-.533c8.284 0 15 5 14 13-1.123 8.986-3 22-16 26-1.888.58-4.23-1.672-5.005-2.799A19.498 19.498 0 0045.396 42.5zm-25 2.5s-8.024-19.649 16-20"/>
    <circle cx="25.396" cy="35" r="2"/>
    <circle cx="33.396" cy="35" r="2"/>
    <circle cx="40.396" cy="35" r="2"/>
    <circle cx="47.396" cy="35" r="2"/>
    <circle cx="44.396" cy="43" r="2"/>
    <circle cx="36.396" cy="43" r="2"/>
    <circle cx="28.396" cy="43" r="2"/>
    <circle cx="32.396" cy="52" r="2"/>
    <circle cx="40.396" cy="52" r="2"/>
    <path d="M25.192 35.5v-2.016m8 2.016v-2.016m7 2.016v-2.016m7 2.016v-2.016m-3 10.016v-2.016m-8 2.016v-2.016m-8 2.016v-2.016m4 11.016v-2.016m8 2.016v-2.016M52.396 33c4.87 16.561-11.615 30.123-16 31-5 1-13-11-15-16m15-23c10-1 14 5 14 5M32.397 10.658q.097-.244.203-.488A14 14 0 0134.527 7a14.09 14.09 0 013.762 6.919m-3.238 7.014a14.001 14.001 0 01-.14 3.707 13.956 13.956 0 01-9.941-15.8 14.02 14.02 0 0110.082 12.094z"/>
    <path d="M46.012 10.666a14.62 14.62 0 00-.193-1.827 13.956 13.956 0 00-9.942 15.801A14.02 14.02 0 0045.96 12.546"/>
    <path d="M43.965 10.896a12.992 12.992 0 00-.071-1.345 13.997 13.997 0 011.925-.712 14.657 14.657 0 01.193 1.827l-.053 1.88A14.02 14.02 0 0135.877 24.64a14.696 14.696 0 01-.186-1.744 12.85 12.85 0 008.274-12z"/>
    <path d="M46.012 10.666a14.62 14.62 0 00-.193-1.827 13.956 13.956 0 00-9.942 15.801A14.02 14.02 0 0045.96 12.546M25.192 35.5v-2.016m8 2.016v-2.016m7 2.016v-2.016m7 2.016v-2.016m-3 10.016v-2.016m-8 2.016v-2.016m-8 2.016v-2.016m4 11.016v-2.016m8 2.016v-2.016M52.396 33c4.87 16.561-11.615 30.123-16 31-5 1-13-11-15-16m15-23c10-1 14 5 14 5"/>
  </g>
  <path fill="#ea5a47" d="M52.396 38c1-8-6.716-13-15-13s-15.973 7.78-17 16c-1 8 7.716 16 16 16s14.972-10.78 16-19zm-16-13c10-1 14 5 14 5"/>
  <path fill="#ea5a47" d="M52.396 33c4.87 16.561-11.615 30.123-16 31-5 1-13-11-15-16"/>
  <path fill="#d22f27" d="M45.396 42.5a19.482 19.482 0 00-9.91-16.967 7.39 7.39 0 012.91-.533c8.284 0 15 5 14 13-1.123 8.986-3 22-16 26-1.888.58-4.23-1.672-5.005-2.799A19.498 19.498 0 0045.396 42.5z"/>
  <path fill="#ea5a47" d="M20.396 45s-8.024-19.649 16-20"/>
  <circle cx="25.396" cy="35" r="2" fill="#d22f27"/>
  <circle cx="33.396" cy="35" r="2" fill="#d22f27"/>
  <circle cx="40.396" cy="35" r="2" fill="#d22f27"/>
  <circle cx="47.396" cy="35" r="2" fill="#d22f27"/>
  <circle cx="44.396" cy="43" r="2" fill="#d22f27"/>
  <circle cx="36.396" cy="43" r="2" fill="#d22f27"/>
  <circle cx="28.396" cy="43" r="2" fill="#d22f27"/>
  <circle cx="32.396" cy="52" r="2" fill="#d22f27"/>
  <circle cx="40.396" cy="52" r="2" fill="#d22f27"/>
  <path fill="#186648" d="M32.397 10.658q.097-.244.203-.488A14 14 0 0134.527 7a14.02 14.02 0 012.92 15.473c-.509 1.168-5.514-.344-6.728-.28"/>
  <path fill="#b1cc33" d="M35.051 20.933a14.001 14.001 0 01-.14 3.707 13.956 13.956 0 01-9.941-15.8 14.02 14.02 0 0110.082 12.094zm10.961-10.267a14.62 14.62 0 00-.193-1.827 13.956 13.956 0 00-9.942 15.801A14.02 14.02 0 0045.96 12.546"/>
  <path fill="#5c9e31" d="M43.965 10.896a12.992 12.992 0 00-.071-1.345 13.997 13.997 0 011.925-.712 14.657 14.657 0 01.193 1.827l-.053 1.88A14.02 14.02 0 0135.877 24.64a14.696 14.696 0 01-.186-1.744 12.85 12.85 0 008.274-12z"/>
  <g fill="none">
    <path d="M52.396 38c1-8-6.716-13-15-13s-15.973 7.78-17 16c-1 8 7.716 16 16 16s14.972-10.78 16-19z"/>
    <path stroke="#000" stroke-linecap="round" stroke-linejoin="round" stroke-width="2" d="M36.396 25c10-1 14 5 14 5"/>
    <path d="M45.396 42.5a19.482 19.482 0 00-9.91-16.967 7.39 7.39 0 012.91-.533c8.284 0 15 5 14 13-1.123 8.986-3 22-16 26-1.888.58-4.23-1.672-5.005-2.799A19.498 19.498 0 0045.396 42.5z"/>
    <path stroke="#000" stroke-linecap="round" stroke-linejoin="round" stroke-width="2" d="M20.396 45s-8.024-19.649 16-20"/>
    <circle cx="25.396" cy="35" r="2"/>
    <circle cx="33.396" cy="35" r="2"/>
    <circle cx="40.396" cy="35" r="2"/>
    <circle cx="47.396" cy="35" r="2"/>
    <circle cx="44.396" cy="43" r="2"/>
    <circle cx="36.396" cy="43" r="2"/>
    <circle cx="28.396" cy="43" r="2"/>
    <circle cx="32.396" cy="52" r="2"/>
    <circle cx="40.396" cy="52" r="2"/>
    <path stroke="#000" stroke-linecap="round" stroke-linejoin="round" stroke-width="2" d="M25.192 35.5v-2.016m8 2.016v-2.016m7 2.016v-2.016m7 2.016v-2.016m-3 10.016v-2.016m-8 2.016v-2.016m-8 2.016v-2.016m4 11.016v-2.016m8 2.016v-2.016M52.396 33c4.87 16.561-11.615 30.123-16 31-5 1-13-11-15-16m15-23c10-1 14 5 14 5"/>
    <path stroke="#000" stroke-linecap="round" stroke-linejoin="round" stroke-width="1.558" d="M32.397 10.658q.097-.244.203-.488A14 14 0 0134.527 7a14.09 14.09 0 013.762 6.919"/>
    <path stroke="#000" stroke-linejoin="round" stroke-width="1.558" d="M35.051 20.933a14.001 14.001 0 01-.14 3.707 13.956 13.956 0 01-9.941-15.8 14.02 14.02 0 0110.082 12.094z"/>
    <path stroke="#000" stroke-linecap="round" stroke-linejoin="round" stroke-width="1.558" d="M46.012 10.666a14.62 14.62 0 00-.193-1.827 13.956 13.956 0 00-9.942 15.801A14.02 14.02 0 0045.96 12.546"/>
    <path d="M43.965 10.896a12.992 12.992 0 00-.071-1.345 13.997 13.997 0 011.925-.712 14.657 14.657 0 01.193 1.827l-.053 1.88A14.02 14.02 0 0135.877 24.64a14.696 14.696 0 01-.186-1.744 12.85 12.85 0 008.274-12z"/>
    <path stroke="#000" stroke-linecap="round" stroke-linejoin="round" stroke-width="1.558" d="M46.012 10.666a14.62 14.62 0 00-.193-1.827 13.956 13.956 0 00-9.942 15.801A14.02 14.02 0 0045.96 12.546"/>
    <path stroke="#000" stroke-linecap="round" stroke-linejoin="round" stroke-width="2" d="M25.192 35.5v-2.016m8 2.016v-2.016m7 2.016v-2.016m7 2.016v-2.016m-3 10.016v-2.016m-8 2.016v-2.016m-8 2.016v-2.016m4 11.016v-2.016m8 2.016v-2.016M52.396 33c4.87 16.561-11.615 30.123-16 31-5 1-13-11-15-16m15-23c10-1 14 5 14 5"/>
  </g>
</svg>
