<svg viewBox="0 0 72 72" xmlns="http://www.w3.org/2000/svg">
  <path fill="#b3b3b3" d="M68 4v64H4V4h64m4-4H0v72h72V0z"/>
  <path fill="none" stroke="#00a5ff" stroke-miterlimit="10" stroke-width="0.1" d="M12.923 10.958h46.154A1.923 1.923 0 0161 12.881v46.154a1.923 1.923 0 01-1.923 1.923H12.923A1.923 1.923 0 0111 59.035V12.881a1.923 1.923 0 011.923-1.923z"/>
  <rect x="16" y="4" rx="2.254" width="40" height="64" fill="none" stroke="#00a5ff" stroke-miterlimit="10" stroke-width="0.1"/>
  <rect x="16" y="4" rx="2.254" width="40" height="64" transform="rotate(90 36 36)" fill="none" stroke="#00a5ff" stroke-miterlimit="10" stroke-width="0.1"/>
  <circle cx="36" cy="36" r="29" fill="none" stroke="#00a5ff" stroke-miterlimit="10" stroke-width="0.1"/>
  <g fill="none" stroke="#fff" stroke-linecap="round" stroke-linejoin="round" stroke-miterlimit="10" stroke-width="6">
    <path d="M33 17a5 5 0 015 5c0 1.636-.797 3.075-2.012 3.987a1.826 1.826 0 00-.298.217c-.42.366-.69.898-.69 1.5V53a2 2 0 01-2 2"/>
    <path d="M10 17h52a5 5 0 015 5c0 1.636-.797 3.075-2.012 3.987a1.826 1.826 0 00-.299.217c-.42.366-.689.898-.689 1.5V53a2 2 0 01-2 2H10a2 2 0 01-2-2V27.703c0-.6-.27-1.133-.69-1.499a1.822 1.822 0 00-.298-.217C5.797 25.075 5 23.636 5 22a5 5 0 015-5z"/>
  </g>
  <path fill="#f1b31c" d="M33 17h29a5 5 0 015 5c0 1.636-.797 3.075-2.012 3.987a1.826 1.826 0 00-.299.217c-.42.366-.689.898-.689 1.5V53a2 2 0 01-2 2H33a2 2 0 002-2V27.703c0-.6.27-1.133.69-1.499a1.79 1.79 0 01.298-.217C37.203 25.075 38 23.636 38 22a5 5 0 00-5-5z"/>
  <path fill="#fcea2b" d="M33 17a5 5 0 015 5c0 1.636-.797 3.075-2.012 3.987a1.826 1.826 0 00-.298.217c-.42.366-.69.898-.69 1.5V53a2 2 0 01-2 2H10a2 2 0 01-2-2V27.703c0-.6-.27-1.133-.69-1.499a1.822 1.822 0 00-.298-.217C5.797 25.075 5 23.636 5 22a5 5 0 015-5h23z"/>
  <g fill="none" stroke="#000" stroke-linecap="round" stroke-linejoin="round" stroke-miterlimit="10" stroke-width="2">
    <path d="M33 17a5 5 0 015 5c0 1.636-.797 3.075-2.012 3.987a1.826 1.826 0 00-.298.217c-.42.366-.69.898-.69 1.5V53a2 2 0 01-2 2"/>
    <path d="M10 17h52a5 5 0 015 5c0 1.636-.797 3.075-2.012 3.987a1.826 1.826 0 00-.299.217c-.42.366-.689.898-.689 1.5V53a2 2 0 01-2 2H10a2 2 0 01-2-2V27.703c0-.6-.27-1.133-.69-1.499a1.822 1.822 0 00-.298-.217C5.797 25.075 5 23.636 5 22a5 5 0 015-5z"/>
  </g>
</svg>
