<svg viewBox="0 0 72 72" xmlns="http://www.w3.org/2000/svg">
  <path fill="#b3b3b3" d="M68 4v64H4V4h64m4-4H0v72h72V0z"/>
  <path fill="none" stroke="#00a5ff" stroke-miterlimit="10" stroke-width="0.1" d="M12.923 10.958h46.154A1.923 1.923 0 0161 12.881v46.154a1.923 1.923 0 01-1.923 1.923H12.923A1.923 1.923 0 0111 59.035V12.881a1.923 1.923 0 011.923-1.923z"/>
  <rect x="16" y="4" rx="2.254" width="40" height="64" fill="none" stroke="#00a5ff" stroke-miterlimit="10" stroke-width="0.1"/>
  <rect x="16" y="4" rx="2.254" width="40" height="64" transform="rotate(90 36 36)" fill="none" stroke="#00a5ff" stroke-miterlimit="10" stroke-width="0.1"/>
  <circle cx="36" cy="36" r="29" fill="none" stroke="#00a5ff" stroke-miterlimit="10" stroke-width="0.1"/>
  <g fill="none" stroke="#fff" stroke-linecap="round" stroke-linejoin="round" stroke-miterlimit="10" stroke-width="6">
    <path d="M55 17v-6H17v6m34 25a3 3 0 01-6 0m6-19a3 3 0 106 0v-5M45 31a5 5 0 11-10 0m10 11V31m6 11V23m-16 8V17m-2 0v-6"/>
    <path d="M45 60c8.284 0 15-6.716 15-15V22a5 5 0 00-5-5H17a5 5 0 00-5 5v23c0 8.284 6.716 15 15 15h18z"/>
  </g>
  <path fill="#f4aa41" d="M55 17v-6H17v6m28 43c8.284 0 15-6.716 15-15V22a5 5 0 00-5-5H17a5 5 0 00-5 5v23c0 8.284 6.716 15 15 15h18z"/>
  <path fill="#fcea2b" d="M35 17v14a5 5 0 0010 0v11a3 3 0 006 0V23a3 3 0 106 0v-5.578A4.979 4.979 0 0055 17H33v-6h22v6"/>
  <g fill="none" stroke="#000" stroke-linecap="round" stroke-linejoin="round" stroke-miterlimit="10" stroke-width="2">
    <path d="M55 17v-6H17v6m34 25a3 3 0 01-6 0m6-19a3 3 0 106 0v-5M45 31a5 5 0 11-10 0m10 11V31m6 11V23m-16 8V17m-2 0v-6"/>
    <path d="M45 60c8.284 0 15-6.716 15-15V22a5 5 0 00-5-5H17a5 5 0 00-5 5v23c0 8.284 6.716 15 15 15h18z"/>
  </g>
</svg>
