<svg viewBox="0 0 72 72" xmlns="http://www.w3.org/2000/svg">
  <path fill="#b3b3b3" d="M68 4v64H4V4h64m4-4H0v72h72V0z"/>
  <path fill="none" stroke="#00a5ff" stroke-miterlimit="10" stroke-width="0.1" d="M12.923 10.958h46.154A1.923 1.923 0 0161 12.881v46.154a1.923 1.923 0 01-1.923 1.923H12.923A1.923 1.923 0 0111 59.035V12.881a1.923 1.923 0 011.923-1.923z"/>
  <rect x="16" y="4" rx="2.254" width="40" height="64" fill="none" stroke="#00a5ff" stroke-miterlimit="10" stroke-width="0.1"/>
  <rect x="16" y="4" rx="2.254" width="40" height="64" transform="rotate(90 36 36)" fill="none" stroke="#00a5ff" stroke-miterlimit="10" stroke-width="0.1"/>
  <circle cx="36" cy="36" r="29" fill="none" stroke="#00a5ff" stroke-miterlimit="10" stroke-width="0.1"/>
  <g fill="none" stroke="#fff" stroke-linecap="round" stroke-linejoin="round" stroke-miterlimit="10" stroke-width="6">
    <circle cx="8.675" cy="51.41" r="18.22" transform="rotate(-45)"/>
    <path d="M12 60.7l13.79-13.79m16.9-15.92c.19-.71 1.05-.094 1.179.316.35 1.11-.82 1.996-1.811 2.042-1.774.082-2.992-1.659-2.906-3.306.128-2.417 2.507-4.008 4.801-3.769 3.058.32 5.032 3.357 4.632 6.297-.503 3.699-4.208 6.059-7.792 5.495-4.341-.683-7.089-5.059-6.359-9.287.86-4.982 5.911-8.12 10.78-7.222 5.624 1.037 9.152 6.763 8.085 12.28-1.213 6.266-7.615 10.18-13.77 8.948-6.907-1.387-11.22-8.467-9.811-15.27 1.562-7.549 9.32-12.25 16.76-10.67"/>
  </g>
  <circle cx="8.627" cy="51.48" r="18" transform="rotate(-45)" fill="#ea5a47"/>
  <g fill="none" stroke="#000" stroke-linecap="round" stroke-linejoin="round">
    <circle cx="8.675" cy="51.41" r="18.22" transform="rotate(-45)" stroke-miterlimit="10" stroke-width="2"/>
    <path stroke-miterlimit="10" stroke-width="2" d="M12 60.7l13.79-13.79"/>
    <path stroke-width="1.864" d="M42.69 30.99c.19-.71 1.05-.094 1.179.316.35 1.11-.82 1.996-1.811 2.042-1.774.082-2.992-1.659-2.906-3.306.128-2.417 2.507-4.008 4.801-3.769 3.058.32 5.032 3.357 4.632 6.297-.503 3.699-4.208 6.059-7.792 5.495-4.341-.683-7.089-5.059-6.359-9.287.86-4.982 5.911-8.12 10.78-7.222 5.624 1.037 9.152 6.763 8.085 12.28-1.213 6.266-7.615 10.18-13.77 8.948-6.907-1.387-11.22-8.467-9.811-15.27 1.562-7.549 9.32-12.25 16.76-10.67"/>
  </g>
  <path fill="none" stroke="#fff" stroke-linecap="round" stroke-linejoin="round" stroke-width="1.864" d="M42.69 30.99c.19-.71 1.05-.094 1.179.316.35 1.11-.82 1.996-1.811 2.042-1.774.082-2.992-1.659-2.906-3.306.128-2.417 2.507-4.008 4.801-3.769 3.058.32 5.032 3.357 4.632 6.297-.503 3.699-4.208 6.059-7.792 5.495-4.341-.683-7.089-5.059-6.359-9.287.86-4.982 5.911-8.12 10.78-7.222 5.624 1.037 9.152 6.763 8.085 12.28-1.213 6.266-7.615 10.18-13.77 8.948-6.907-1.387-11.22-8.467-9.811-15.27 1.562-7.549 9.32-12.25 16.76-10.67"/>
</svg>
