<svg viewBox="0 0 72 72" xmlns="http://www.w3.org/2000/svg">
  <path fill="#b3b3b3" d="M68 4v64H4V4h64m4-4H0v72h72V0z"/>
  <path fill="none" stroke="#00a5ff" stroke-miterlimit="10" stroke-width="0.1" d="M12.923 10.958h46.154A1.923 1.923 0 0161 12.881v46.154a1.923 1.923 0 01-1.923 1.923H12.923A1.923 1.923 0 0111 59.035V12.881a1.923 1.923 0 011.923-1.923z"/>
  <rect x="16" y="4" rx="2.254" width="40" height="64" fill="none" stroke="#00a5ff" stroke-miterlimit="10" stroke-width="0.1"/>
  <rect x="16" y="4" rx="2.254" width="40" height="64" transform="rotate(90 36 36)" fill="none" stroke="#00a5ff" stroke-miterlimit="10" stroke-width="0.1"/>
  <circle cx="36" cy="36" r="29" fill="none" stroke="#00a5ff" stroke-miterlimit="10" stroke-width="0.1"/>
  <path fill="none" stroke="#fff" stroke-linecap="round" stroke-linejoin="round" stroke-miterlimit="10" stroke-width="6" d="M32.07 26.296c0-5.943-5.12-12.16-5.12-10.296s.947 26.632.947 26.632L26.95 58.83a2 2 0 104 0l-.529-16.29s1.65-10.3 1.65-16.243zm13.868-9.556s.112 4.158.112 8.106c0 2.96-.9 4.82-2.181 5.565h0l.029 28.418a2 2 0 11-4 0l.81-28.413h0c-1.287-.74-2.19-2.602-2.19-5.57 0-3.948.11-8.106.11-8.106m3.655 0v9.585"/>
  <path fill="#D0CFCE" d="M32.07 26.296c0-5.943-5.12-12.16-5.12-10.296s.947 26.632.947 26.632L26.95 58.83a2 2 0 104 0l-.529-16.29s1.65-10.3 1.65-16.243zm13.868-9.556s.112 4.158.112 8.106c0 2.96-.9 4.82-2.181 5.565l.029 28.418a2 2 0 11-4 0l.81-28.413c-1.287-.74-2.19-2.602-2.19-5.57 0-3.948.11-8.106.11-8.106"/>
  <g fill="none" stroke="#000" stroke-miterlimit="10" stroke-width="2">
    <path d="M32.07 26.296c0-5.943-5.12-12.16-5.12-10.296s.947 26.632.947 26.632L26.95 58.83a2 2 0 104 0l-.529-16.29s1.65-10.3 1.65-16.243z"/>
    <path stroke-linecap="round" stroke-linejoin="round" d="M45.938 16.74s.112 4.158.112 8.106c0 2.96-.9 4.82-2.181 5.565h0l.029 28.418a2 2 0 11-4 0l.81-28.413h0c-1.287-.74-2.19-2.602-2.19-5.57 0-3.948.11-8.106.11-8.106m3.655 0v9.585"/>
  </g>
</svg>
