<svg viewBox="0 0 72 72" xmlns="http://www.w3.org/2000/svg">
  <path fill="#B3B3B3" d="M68 4v64H4V4h64m4-4H0v72h72V0z"/>
  <path fill="none" stroke="#00A5FF" stroke-miterlimit="10" stroke-width="0.1" d="M12.9 11h46.2c1.1 0 1.9.9 1.9 1.9h0V59c0 1.1-.9 1.9-1.9 1.9H12.9c-1 .1-1.9-.8-1.9-1.9h0V12.9c0-1.1.9-1.9 1.9-1.9h0z"/>
  <path fill="none" stroke="#00A5FF" stroke-miterlimit="10" stroke-width="0.1" d="M18.3 4h35.5C55 4 56 5 56 6.3v59.5c0 1.2-1 2.3-2.3 2.3H18.3C17 68 16 67 16 65.7V6.3C16 5 17 4 18.3 4z"/>
  <path fill="none" stroke="#00A5FF" stroke-miterlimit="10" stroke-width="0.1" d="M68 18.3v35.5c0 1.2-1 2.3-2.3 2.3H6.3C5 56 4 55 4 53.7V18.3C4 17 5 16 6.3 16h59.5c1.2 0 2.2 1 2.2 2.3z"/>
  <circle cx="36" cy="36" r="29" fill="none" stroke="#00A5FF" stroke-miterlimit="10" stroke-width="0.1"/>
  <path fill="none" stroke="#fff" stroke-linecap="round" stroke-linejoin="round" stroke-miterlimit="10" stroke-width="6" d="M16.9 28h38.3M36 56v11m-16 0h32m4-34c0 12.7-9 23-20 23S16 45.7 16 33m34.1-17.4C53.8 20.3 56 26.8 56 34m-40 0c0-7 2.1-13.3 5.6-18M43 24V11l7-7"/>
  <path fill="none" stroke="#000" stroke-linecap="round" stroke-linejoin="round" stroke-miterlimit="10" stroke-width="2" d="M16.9 28h38.3"/>
  <path fill="#FCEA2B" d="M56 33c-.1-2.1-.3-4.1-.7-6H16.8c-.4 1.9-.7 3.9-.7 6v1c.5 12.2 9.2 22 20 22s19.5-9.8 20-22v-.4c-.1-.2-.1-.4-.1-.6z"/>
  <path fill="#F1B31C" d="M56 33c-.1-2.1-.4-4.1-.8-6h-13c.4 1.9.7 3.9.7 6v1c-.4 9.6-5.9 17.8-13.5 20.8 2 .8 4.2 1.2 6.5 1.2 10.8 0 19.5-9.8 20-22v-.4c.1-.2.1-.4.1-.6z"/>
  <g fill="none" stroke="#000" stroke-miterlimit="10" stroke-width="2">
    <path stroke-linecap="round" stroke-linejoin="round" d="M36 56v11m-16 0h32"/>
    <path d="M56 33c0 12.7-9 23-20 23S16 45.7 16 33"/>
    <path stroke-linecap="round" stroke-linejoin="round" d="M50.1 15.6C53.8 20.3 56 26.8 56 34m-40 0c0-7 2.1-13.3 5.6-18M43 24V11l7-7"/>
  </g>
</svg>
