<svg viewBox="0 0 72 72" xmlns="http://www.w3.org/2000/svg">
  <path fill="#b3b3b3" d="M68.075 4v64h-64V4h64m4-4h-72v72h72V0z"/>
  <rect x="11.075" y="10.958" rx="1.923" ry="1.923" width="50" height="50" fill="none" stroke="#00a5ff" stroke-miterlimit="10" stroke-width="0.1"/>
  <rect x="16.075" y="4" rx="2.254" ry="2.254" width="40" height="64" fill="none" stroke="#00a5ff" stroke-miterlimit="10" stroke-width="0.1"/>
  <rect x="16.075" y="4" rx="2.254" ry="2.254" width="40" height="64" transform="rotate(90 36.075 36)" fill="none" stroke="#00a5ff" stroke-miterlimit="10" stroke-width="0.1"/>
  <circle cx="36.075" cy="36" r="29" fill="none" stroke="#00a5ff" stroke-miterlimit="10" stroke-width="0.1"/>
  <g fill="none" stroke="#fff" stroke-linecap="round" stroke-linejoin="round" stroke-miterlimit="10" stroke-width="6">
    <path d="M32.549 5v18.164m5-18.164v17m-11 2c-1-1-2.5-3.5-5-6a14.385 14.385 0 00-3-2l-2-3m29.999 17s-1 3 0 5c1.2 2.4 5.8 8 5.8 9l-2.8 3s-1.1.7-1.1 1.4a1.563 1.563 0 001.9 1.6s6.4-5.6 6.2-6c-.5-1.3-1.4-3.7-2-5-1-2 4-5 4-8 0-1.6-1-6-5-7a19.324 19.324 0 00-6-.3M24.549 54a19.438 19.438 0 01-5-3 3.054 3.054 0 010-3l3-6a7.813 7.813 0 01-3-2c-1-1-.9-5-1-7-.1-1.8-2-8-2-8a37.464 37.464 0 00-8 1c-.7.2-2.6-1.6-2-2a79.74 79.74 0 018-6m12 33a11.354 11.354 0 011.2 1.2 1.758 1.758 0 01-2.2 2.7c-.6-.5-1-.9-1-.9"/>
    <path d="M47.548 38s-7.4 3.4-10 4a79.17 79.17 0 01-9 1c-4 4-5 6-5 6a20.035 20.035 0 003 2m22-12s-2.1 6.8-3 9c-.5 1.2-.6 1.9-1.5 4-.8 1.8-.9 2.1-.9 2.1a1.85 1.85 0 001 2.4 2.158 2.158 0 002.4-1.3l1-2.1M15.549 52v2c0 1.1-.7 2-1.5 2a1.56 1.56 0 01-1.5-1.6V52m6-12a61.25 61.25 0 00-6 4 3.881 3.881 0 00-1 3 46.187 46.187 0 001 5m43.999-27h2c3 0 7 3 6 7-.7 2.9-5 6 0 11m-31.999 3v21m5-22v22m-8-42c-.2 2.269.385 3.392 1 4 1.432 1.416 3.388.387 5 2 1.148 1.15.812 2.332 2 3a3.719 3.719 0 003 0m-25 14v4"/>
  </g>
  <path fill="#f4aa41" d="M37.549 22.707l-5 .893L32.491 4h5.058v18.707zm-5 22.864l4.942-1.071.058 23.5h-5V45.571z"/>
  <path fill="#fcea2b" d="M34.959 45.049l2.187-.549.022 23.5h-2.209V45.049zm2.279-22.287l-2.209.402V4.028h2.209v18.734z"/>
  <path fill="#d0cfce" d="M48.548 39s-2.1 6.8-3 9a68.387 68.387 0 00-2 8l4.2-1.2 2.4-4.9-1.2-.2v-2.6l2.9-3m4.7-19.1h2c3 0 7 3 6 7-.7 2.9-4.1 5.6.9 10.6 0 0 .7 2.8-2 2a6.358 6.358 0 01-3.4-4.1c-1.8-5.5 1.7-8.2 1-10.2-.4-1.2-2.3-1.1-2.3-1.1M21.849 42.1l-1.1 2.9c-.6.2-4.4 1.5-4.3 2.7.2 1.9-.9 7.3-.9 7.3l-2 1s-2-8-2-9a3.881 3.881 0 011-3 61.25 61.25 0 016-4"/>
  <path fill="#e67a94" d="M42.548 28c.073 3.48.114 5.413-1 6-1.408.743-3.942-1.052-5-2-1.134-1.017-1.012-1.458-2-2-1.68-.922-2.923-.136-4-1-.5-.402-1.022-1.208-1-3"/>
  <path fill="#ffa7c0" d="M30.539 24.906l11.344-1.645a.582.582 0 01.665.576V28l-13-2z"/>
  <g fill="none" stroke="#000" stroke-linecap="round" stroke-width="2">
    <path stroke-miterlimit="10" d="M32.549 5v18.164m5-18.164v17"/>
    <path stroke-linejoin="round" d="M26.549 24c-1-1-2.5-3.5-5-6a14.385 14.385 0 00-3-2l-2-3m29.999 17s-1 3 0 5c1.2 2.4 5.8 8 5.8 9l-2.8 3s-1.1.7-1.1 1.4a1.563 1.563 0 001.9 1.6s6.4-5.6 6.2-6c-.5-1.3-1.4-3.7-2-5-1-2 4-5 4-8 0-1.6-1-6-5-7a19.324 19.324 0 00-6-.3M24.549 54a19.438 19.438 0 01-5-3 3.054 3.054 0 010-3l3-6a7.813 7.813 0 01-3-2c-1-1-.9-5-1-7-.1-1.8-2-8-2-8a37.464 37.464 0 00-8 1c-.7.2-2.6-1.6-2-2a79.74 79.74 0 018-6m12 33a11.354 11.354 0 011.2 1.2 1.758 1.758 0 01-2.2 2.7c-.6-.5-1-.9-1-.9"/>
    <path stroke-linejoin="round" d="M47.548 38s-7.4 3.4-10 4a79.17 79.17 0 01-9 1c-4 4-5 6-5 6a20.035 20.035 0 003 2m22-12s-2.1 6.8-3 9c-.5 1.2-.6 1.9-1.5 4-.8 1.8-.9 2.1-.9 2.1a1.85 1.85 0 001 2.4 2.158 2.158 0 002.4-1.3l1-2.1M15.549 52v2c0 1.1-.7 2-1.5 2a1.56 1.56 0 01-1.5-1.6V52m6-12a61.25 61.25 0 00-6 4 3.881 3.881 0 00-1 3 46.187 46.187 0 001 5m43.999-27h2c3 0 7 3 6 7-.7 2.9-5 6 0 11"/>
    <path stroke-miterlimit="10" d="M32.549 46v21m5-22v22"/>
    <path stroke-linejoin="round" d="M29.549 25c-.2 2.269.385 3.392 1 4 1.432 1.416 3.388.387 5 2 1.148 1.15.812 2.332 2 3a3.719 3.719 0 003 0m-25 14v4"/>
  </g>
</svg>
