<svg viewBox="0 0 72 72" xmlns="http://www.w3.org/2000/svg">
  <path fill="#b3b3b3" d="M68 4v64H4V4h64m4-4H0v72h72V0z"/>
  <path fill="none" stroke="#00a5ff" stroke-miterlimit="10" stroke-width="0.1" d="M12.923 10.958h46.154A1.923 1.923 0 0161 12.881v46.154a1.923 1.923 0 01-1.923 1.923H12.923A1.923 1.923 0 0111 59.035V12.881a1.923 1.923 0 011.923-1.923z"/>
  <rect x="16" y="4" rx="2.254" width="40" height="64" fill="none" stroke="#00a5ff" stroke-miterlimit="10" stroke-width="0.1"/>
  <rect x="16" y="4" rx="2.254" width="40" height="64" transform="rotate(90 36 36)" fill="none" stroke="#00a5ff" stroke-miterlimit="10" stroke-width="0.1"/>
  <circle cx="36" cy="36" r="29" fill="none" stroke="#00a5ff" stroke-miterlimit="10" stroke-width="0.1"/>
  <g fill="none" stroke="#fff" stroke-linecap="round" stroke-linejoin="round" stroke-miterlimit="10" stroke-width="6">
    <circle cx="15.205" cy="45.71" r="5"/>
    <circle cx="29.446" cy="57.93" r="5"/>
    <circle cx="46.139" cy="45.71" r="5"/>
    <path d="M56.73 17.155h-5.97l.38 28.555M40.036 29.375h-5.969l.379 28.555m-8.651-40.775h-5.969l.379 28.555"/>
  </g>
  <g fill="#3f3f3f">
    <circle cx="15.205" cy="45.71" r="5.548"/>
    <circle cx="29.446" cy="57.93" r="5.548"/>
    <circle cx="46.139" cy="45.71" r="5.548"/>
  </g>
  <g fill="none" stroke="#000" stroke-linecap="round" stroke-linejoin="round" stroke-miterlimit="10" stroke-width="2">
    <circle cx="15.205" cy="45.71" r="5"/>
    <circle cx="29.446" cy="57.93" r="5"/>
    <circle cx="46.139" cy="45.71" r="5"/>
    <path d="M56.73 17.155h-5.97l.38 28.555M40.036 29.375h-5.969l.379 28.555m-8.651-40.775h-5.969l.379 28.555"/>
  </g>
</svg>
