<svg viewBox="0 0 72 72" xmlns="http://www.w3.org/2000/svg">
  <path fill="#b3b3b3" d="M68 4v64H4V4h64m4-4H0v72h72V0z"/>
  <path fill="none" stroke="#00a5ff" stroke-miterlimit="10" stroke-width="0.1" d="M12.923 10.958h46.154A1.923 1.923 0 0161 12.881v46.154a1.923 1.923 0 01-1.923 1.923H12.923A1.923 1.923 0 0111 59.035V12.881a1.923 1.923 0 011.923-1.923z"/>
  <rect x="16" y="4" rx="2.254" width="40" height="64" fill="none" stroke="#00a5ff" stroke-miterlimit="10" stroke-width="0.1"/>
  <rect x="16" y="4" rx="2.254" width="40" height="64" transform="rotate(90 36 36)" fill="none" stroke="#00a5ff" stroke-miterlimit="10" stroke-width="0.1"/>
  <circle cx="36" cy="36" r="29" fill="none" stroke="#00a5ff" stroke-miterlimit="10" stroke-width="0.1"/>
  <g fill="none" stroke="#fff" stroke-linecap="round" stroke-linejoin="round" stroke-miterlimit="10" stroke-width="6">
    <path d="M12.629 12.08h47.662v47.662H12.629z"/>
    <path d="M19.64 12.07h7.404v30.911H19.64zm13.118 0h7.404v30.911h-7.404zm13.119 0h7.404v30.911h-7.404zM24.545 47.433v12.309M36.46 47.433v12.309m11.916-12.309v12.309"/>
  </g>
  <path fill="#FFF" d="M13.63 13.08h45.661v45.662H13.63z"/>
  <path fill="#3F3F3F" d="M32.864 12.262h7.073v30.503h-7.073zm13.199-.063h6.884v30.755h-6.884zm-26.398-.345h7.578v31.353h-7.578z"/>
  <g fill="none" stroke="#000" stroke-linecap="round" stroke-linejoin="round" stroke-miterlimit="10" stroke-width="2">
    <path d="M12.629 12.08h47.662v47.662H12.629z"/>
    <path d="M19.64 12.07h7.404v30.911H19.64zm13.118 0h7.404v30.911h-7.404zm13.119 0h7.404v30.911h-7.404zM24.545 47.433v12.309M36.46 47.433v12.309m11.916-12.309v12.309"/>
  </g>
</svg>
