<svg viewBox="0 0 72 72" xmlns="http://www.w3.org/2000/svg">
  <path fill="#b3b3b3" d="M68 4v64H4V4h64m4-4H0v72h72V0z"/>
  <path fill="none" stroke="#00a5ff" stroke-miterlimit="10" stroke-width="0.1" d="M12.923 10.958h46.154A1.923 1.923 0 0161 12.881v46.154a1.923 1.923 0 01-1.923 1.923H12.923A1.923 1.923 0 0111 59.035V12.881a1.923 1.923 0 011.923-1.923z"/>
  <rect x="16" y="4" rx="2.254" width="40" height="64" fill="none" stroke="#00a5ff" stroke-miterlimit="10" stroke-width="0.1"/>
  <rect x="16" y="4" rx="2.254" width="40" height="64" transform="rotate(90 36 36)" fill="none" stroke="#00a5ff" stroke-miterlimit="10" stroke-width="0.1"/>
  <circle cx="36" cy="36" r="29" fill="none" stroke="#00a5ff" stroke-miterlimit="10" stroke-width="0.1"/>
  <g fill="none" stroke="#fff" stroke-linecap="round" stroke-linejoin="round" stroke-miterlimit="10" stroke-width="6">
    <path d="M51.619 17.552l-25.445 5.67-.069-4.681 25.444-5.666z"/>
    <circle cx="20.756" cy="51.59" r="5.787"/>
    <path d="M26.105 18.541l.438 33.049"/>
    <circle cx="46.206" cy="46.013" r="5.787"/>
    <path d="M51.555 12.963l.438 33.05"/>
  </g>
  <g fill="#3F3F3F">
    <path d="M26.324 22.812l25.295-5.26-.07-4.677-25.444 5.666z"/>
    <circle cx="20.756" cy="51.59" r="5.787"/>
    <circle cx="46.206" cy="46.013" r="5.787"/>
  </g>
  <g fill="none" stroke="#000" stroke-linecap="round" stroke-linejoin="round" stroke-miterlimit="10" stroke-width="2">
    <path d="M51.619 17.552l-25.445 5.67-.069-4.681 25.444-5.666z"/>
    <circle cx="20.756" cy="51.59" r="5.787"/>
    <path d="M26.105 18.541l.438 33.049"/>
    <circle cx="46.206" cy="46.013" r="5.787"/>
    <path d="M51.555 12.963l.438 33.05"/>
  </g>
</svg>
