<svg viewBox="0 0 72 72" xmlns="http://www.w3.org/2000/svg">
  <path fill="#b3b3b3" d="M0 68.636h68.635V0H0zM3.813 3.813h61.01v61.01H3.813z"/>
  <path fill="none" stroke="#00a5ff" stroke-miterlimit="10" stroke-width="0.1" d="M56.316 58.11H12.32a1.833 1.833 0 01-1.833-1.833V12.28a1.833 1.833 0 011.833-1.834h43.997a1.833 1.833 0 011.834 1.834v43.996a1.833 1.833 0 01-1.834 1.834z"/>
  <path fill="none" stroke="#00a5ff" stroke-miterlimit="10" stroke-width="0.1" d="M51.234 64.823H17.401a2.149 2.149 0 01-2.149-2.15V5.963a2.149 2.149 0 012.149-2.149h33.834a2.149 2.149 0 012.148 2.149v56.712a2.149 2.149 0 01-2.149 2.149z"/>
  <path fill="none" stroke="#00a5ff" stroke-miterlimit="10" stroke-width="0.1" d="M3.813 51.235V17.4a2.148 2.148 0 012.149-2.149h56.712a2.148 2.148 0 012.148 2.15v33.833a2.148 2.148 0 01-2.148 2.148H5.962a2.148 2.148 0 01-2.149-2.148z"/>
  <circle cx="34.318" cy="34.318" r="27.645" fill="none" stroke="#00a5ff" stroke-miterlimit="10" stroke-width="0.1"/>
  <g fill="none" stroke="#fff" stroke-linecap="round" stroke-linejoin="round" stroke-miterlimit="10" stroke-width="6">
    <path d="M4.822 31.349c2.86 0 8.58 2.86 14.299 2.86s9.532-2.86 15.252-2.86 10.486 2.86 15.252 2.86 6.673-2.86 14.3-2.86m-20.019 7.626a19.967 19.967 0 005.72.953c2.574 0 4.385-.858 6.673-1.62m-44.043.572a26.505 26.505 0 006.864 1.048c5.72 0 9.533-2.86 15.252-2.86m-9.532 8.58c3.05-.858 5.91-2.002 9.533-2.002 4.194 0 7.912 1.525 11.439 2.383"/>
    <circle cx="18.548" cy="28.583" r="3"/>
    <path d="M24.84 33.255c.953-2.86.953-5.72 3.813-8.58 1.907-1.906 4.766-5.72 6.673-5.72s6.673 2.86 6.673 2.86"/>
    <path d="M41.046 32.302s-4.957-3.718-6.673-4.767c-1.811-1.144-1.907-1.906-1.907-1.906"/>
  </g>
  <g fill="#fcea2b">
    <path d="M41.713 32.588s-6.196-4.29-7.626-5.72a4.878 4.878 0 01-.763-1.716c-.287-.763 1.143-3.527 2.573-3.431a16.134 16.134 0 014.481 1.715c1.335.572 2.097-.572 2.479-1.238L35.42 18.67l-4.86 4.385-3.432 3.433-2.765 6.862 2.954-.666 7.342-1.24z"/>
    <circle cx="18.548" cy="28.583" r="2.86"/>
  </g>
  <path fill="#92d3f5" d="M64.877 31.349c-7.626 0-10.486 2.86-15.252 2.86s-9.533-2.86-15.252-2.86-9.533 2.86-15.253 2.86-12.392-2.86-15.252-2.86v11.153c0 1.334 1.335 7.912 6.673 7.912h48.712c5.529 0 5.624-4.576 5.624-9.056z"/>
  <g fill="none" stroke="#000" stroke-width="2">
    <path stroke-linecap="round" stroke-linejoin="round" d="M4.822 31.349c2.86 0 8.58 2.86 14.299 2.86s9.532-2.86 15.252-2.86 10.486 2.86 15.252 2.86 6.673-2.86 14.3-2.86m-20.019 7.626a19.967 19.967 0 005.72.953c2.574 0 4.385-.858 6.673-1.62m-44.043.572a26.505 26.505 0 006.864 1.048c5.72 0 9.533-2.86 15.252-2.86m-9.532 8.58c3.05-.858 5.91-2.002 9.533-2.002 4.194 0 7.912 1.525 11.439 2.383"/>
    <circle cx="18.548" cy="28.583" r="3" stroke-miterlimit="10"/>
    <path stroke-linecap="round" stroke-linejoin="round" d="M24.84 33.255c.953-2.86.953-5.72 3.813-8.58 1.907-1.906 4.766-5.72 6.673-5.72s6.673 2.86 6.673 2.86"/>
    <path stroke-linecap="round" stroke-linejoin="round" d="M41.046 32.302s-4.957-3.718-6.673-4.767c-1.811-1.144-1.907-1.906-1.907-1.906"/>
  </g>
</svg>
