<svg viewBox="0 0 72 72" xmlns="http://www.w3.org/2000/svg">
  <path fill="#B3B3B3" d="M68 4v64H4V4h64zm4-4H0v72h72V0z"/>
  <path fill="none" stroke="#00A5FF" stroke-miterlimit="10" stroke-width="0.1" d="M12.923 10.958h46.154c1.062 0 1.923.861 1.923 1.923v46.154a1.923 1.923 0 01-1.923 1.923H12.923A1.923 1.923 0 0111 59.035h0V12.881c0-1.062.861-1.923 1.923-1.923h0z"/>
  <path fill="none" stroke="#00A5FF" stroke-miterlimit="10" stroke-width="0.1" d="M18.254 4h35.492A2.254 2.254 0 0156 6.254v59.492A2.254 2.254 0 0153.746 68H18.254A2.254 2.254 0 0116 65.746V6.254A2.254 2.254 0 0118.254 4z"/>
  <path fill="none" stroke="#00A5FF" stroke-miterlimit="10" stroke-width="0.1" d="M68 18.254v35.492A2.254 2.254 0 0165.746 56H6.254A2.254 2.254 0 014 53.746V18.254A2.254 2.254 0 016.254 16h59.492A2.254 2.254 0 0168 18.254z"/>
  <circle cx="36" cy="36" r="29" fill="none" stroke="#00A5FF" stroke-miterlimit="10" stroke-width="0.1"/>
  <g fill="none" stroke="#fff" stroke-linecap="round" stroke-linejoin="round" stroke-miterlimit="10" stroke-width="6">
    <path d="M66 34l-4 15H41c0-10.49-2.9-12-5-12s-5 1.51-5 12H10L6 34c0-4.88 4.23-6.95 9.81-7.78 2.31-2.16 6.51-2.36 10.68-2.08 2.55-4.75 7.65.26 9.51.26 1.85 0 7.47-4.98 10.32-.31 3.9-.19 7.71.11 9.87 2.13 5.58.83 9.81 2.9 9.81 7.78zM41 49H31m27-18c0-2.18-.68-3.71-1.81-4.78m-40.38 0C14.68 27.29 14 28.82 14 31"/>
    <path d="M48 33.57c0-3.54-.35-6.06-.94-7.82l-.74-1.66m-19.83.05l-.64 1.61c-.53 1.76-.85 4.28-.85 7.82M13 49v-6c0-.55.45-1 1-1m5 7v-6c0-.55.45-1 1-1m5 7v-6c0-.55.45-1 1-1m31 7v-6c0-.55.45-1 1-1m-7 7v-6c0-.55.45-1 1-1m-7 7v-6c0-.55.45-1 1-1m-5 7H31c0-10.49 2.9-12 5-12s5 1.51 5 12z"/>
  </g>
  <path fill="#D0CFCE" d="M66 34l-4 15H10L6 34zm0 0c0-10.493-19.507-8-30-8S6 23.507 6 34h60z"/>
  <path fill="#D0CFCE" d="M14 31c0-10.493 15.704-6 22-6s22-4.493 22 6H14z"/>
  <path fill="#D0CFCE" d="M25 33.573c0-18.382 8.482-9.172 11-9.172 2.518 0 12-9.21 12 9.172H25z"/>
  <path fill="#92D3F5" d="M41 49c0-10.493-2.901-12-5-12s-5 1.507-5 12h10z"/>
  <g fill="none" stroke="#000" stroke-linecap="round" stroke-linejoin="round" stroke-miterlimit="10" stroke-width="2">
    <path d="M66 34l-4 15H41c0-10.49-2.9-12-5-12s-5 1.51-5 12H10L6 34c0-4.88 4.23-6.95 9.81-7.78 2.31-2.16 6.51-2.36 10.68-2.08 2.55-4.75 7.65.26 9.51.26 1.85 0 7.47-4.98 10.32-.31 3.9-.19 7.71.11 9.87 2.13 5.58.83 9.81 2.9 9.81 7.78zM41 49H31m27-18c0-2.18-.68-3.71-1.81-4.78m-40.38 0C14.68 27.29 14 28.82 14 31"/>
    <path d="M48 33.57c0-3.54-.35-6.06-.94-7.82l-.74-1.66m-19.83.05l-.64 1.61c-.53 1.76-.85 4.28-.85 7.82M13 49v-6c0-.55.45-1 1-1m5 7v-6c0-.55.45-1 1-1m5 7v-6c0-.55.45-1 1-1m31 7v-6c0-.55.45-1 1-1m-7 7v-6c0-.55.45-1 1-1m-7 7v-6c0-.55.45-1 1-1m-5 7H31c0-10.49 2.9-12 5-12s5 1.51 5 12z"/>
  </g>
</svg>
