<svg viewBox="0 0 72 72" xmlns="http://www.w3.org/2000/svg">
  <path fill="#b3b3b3" d="M68 4v64H4V4h64m4-4H0v72h72V0z"/>
  <path fill="none" stroke="#00a5ff" stroke-miterlimit="10" stroke-width="0.1" d="M12.923 10.958h46.154A1.923 1.923 0 0161 12.881v46.154a1.923 1.923 0 01-1.923 1.923H12.923A1.923 1.923 0 0111 59.035V12.881a1.923 1.923 0 011.923-1.923z"/>
  <rect x="16" y="4" rx="2.254" width="40" height="64" fill="none" stroke="#00a5ff" stroke-miterlimit="10" stroke-width="0.1"/>
  <rect x="16" y="4" rx="2.254" width="40" height="64" transform="rotate(90 36 36)" fill="none" stroke="#00a5ff" stroke-miterlimit="10" stroke-width="0.1"/>
  <circle cx="36" cy="36" r="29" fill="none" stroke="#00a5ff" stroke-miterlimit="10" stroke-width="0.1"/>
  <g fill="none" stroke="#fff" stroke-linecap="round" stroke-linejoin="round" stroke-miterlimit="10" stroke-width="6">
    <path d="M48.5 32h5v4h-5zm9-5h-23v-1.463L46 15l11.5 10.537zM21 34.581l-4 3.665V32h4zm20-15l-4 3.665V17h4z"/>
    <path d="M34.5 33v-7.463L46 15l11.5 10.537V42h-16"/>
    <path d="M45 42V32h-6v4.088M19 47h6v10h-6zm9.5 0h5v4h-5zm9-5h-23v-1.463L26 30l11.5 10.537z"/>
    <path d="M14.5 42h23v15h-23z"/>
  </g>
  <path fill="#FFF" d="M14.5 41.5h23v16h-23z"/>
  <path fill="#FFF" d="M33.61 26.9h23v16h-23z"/>
  <path fill="#92D3F5" d="M48.5 32h5v4h-5z"/>
  <path fill="#EA5A47" d="M57.5 27h-23v-1.463L46 15l11.5 10.537zM21 34.581l-4 3.665V32h4zm20-15l-4 3.665V17h4z"/>
  <path fill="#A57939" d="M38 33h8v9.992h-8zM19 47h6v10h-6z"/>
  <path fill="#92D3F5" d="M28.5 47h5v4h-5z"/>
  <path fill="#EA5A47" d="M37.5 42h-23v-1.463L26 30l11.5 10.537z"/>
  <g fill="none" stroke="#000" stroke-linecap="round" stroke-linejoin="round" stroke-miterlimit="10" stroke-width="2">
    <path d="M48.5 32h5v4h-5zm9-5h-23v-1.463L46 15l11.5 10.537zM21 34.581l-4 3.665V32h4zm20-15l-4 3.665V17h4z"/>
    <path d="M34.5 33v-7.463L46 15l11.5 10.537V42h-16"/>
    <path d="M45 42V32h-6v4.088M19 47h6v10h-6zm9.5 0h5v4h-5zm9-5h-23v-1.463L26 30l11.5 10.537z"/>
    <path d="M14.5 42h23v15h-23z"/>
  </g>
</svg>
