<svg viewBox="0 0 72 72" xmlns="http://www.w3.org/2000/svg">
  <path fill="#B3B3B3" d="M68 4v64H4V4h64m4-4H0v72h72V0z"/>
  <path fill="none" stroke="#00A5FF" stroke-miterlimit="10" stroke-width="0.1" d="M12.923 10.958h46.154c1.062 0 1.923.861 1.923 1.923v46.154a1.923 1.923 0 01-1.923 1.923H12.923A1.923 1.923 0 0111 59.035h0V12.881c0-1.062.861-1.923 1.923-1.923h0z"/>
  <path fill="none" stroke="#00A5FF" stroke-miterlimit="10" stroke-width="0.1" d="M18.254 4h35.492A2.254 2.254 0 0156 6.254v59.492A2.254 2.254 0 0153.746 68H18.254A2.254 2.254 0 0116 65.746V6.254A2.254 2.254 0 0118.254 4z"/>
  <path fill="none" stroke="#00A5FF" stroke-miterlimit="10" stroke-width="0.1" d="M68 18.254v35.492A2.254 2.254 0 0165.746 56H6.254A2.254 2.254 0 014 53.746V18.254A2.254 2.254 0 016.254 16h59.492A2.254 2.254 0 0168 18.254z"/>
  <circle cx="36" cy="36" r="29" fill="none" stroke="#00A5FF" stroke-miterlimit="10" stroke-width="0.1"/>
  <g fill="none" stroke="#fff" stroke-linecap="round" stroke-linejoin="round" stroke-miterlimit="10" stroke-width="6">
    <path d="M28.5 22.059l-5 4.706V17h5zM32 40l-6.5 6.5V40zm2.5 3.33V56h-9v-3.67zM48 47h-8v-7h8z"/>
    <path d="M21.342 50.656l13.192-13.191 2.914 2.914-13.191 13.192zM42.792 47L46 43l-3-1-1-2h6v7zM42 22v4m3-1v1m-6-7v7m1-7l-4-4-17 16v1h34v-1l-6-5-7 1-8 1 2-4-2-2 6.6-4.4M36 20v7"/>
    <path d="M19 32h34v24H19z"/>
  </g>
  <path fill="#FFF" d="M18.5 31.5h35v25h-35z"/>
  <path fill="#EA5A47" d="M28.5 22.059l-5 4.706V17h5z"/>
  <path fill="#A57939" d="M25.5 40h9v16h-9z"/>
  <path fill="#6A462F" d="M37.45 40.38L24.26 53.57l-2.92-2.91 4.16-4.16L32 40l2.53-2.53z"/>
  <path fill="#9B9B9A" d="M48 47h-8v-7h8z"/>
  <path fill="#92D3F5" d="M42.792 47L46 43l-3-1-1-2h6v7z"/>
  <path fill="#EA5A47" d="M36 15L19 31v1h34v-1l-6-5-7 1-8 1 2-4-2-2 6.6-4.4z"/>
  <g fill="none" stroke="#000" stroke-linecap="round" stroke-linejoin="round" stroke-miterlimit="10" stroke-width="2">
    <path d="M28.5 22.059l-5 4.706V17h5zM32 40l-6.5 6.5V40zm2.5 3.33V56h-9v-3.67zM48 47h-8v-7h8z"/>
    <path d="M21.342 50.656l13.192-13.191 2.914 2.914-13.191 13.192zM42.792 47L46 43l-3-1-1-2h6v7zM42 22v4m3-1v1m-6-7v7m1-7l-4-4-17 16v1h34v-1l-6-5-7 1-8 1 2-4-2-2 6.6-4.4M36 20v7"/>
    <path d="M19 32h34v24H19z"/>
  </g>
</svg>
