<svg viewBox="0 0 72 72" xmlns="http://www.w3.org/2000/svg">
  <path fill="#B3B3B3" d="M68 4v64H4V4h64m4-4H0v72h72V0z"/>
  <path fill="none" stroke="#00A5FF" stroke-miterlimit="10" stroke-width="0.1" d="M12.923 10.958h46.154c1.062 0 1.923.861 1.923 1.923h0v46.154a1.923 1.923 0 01-1.923 1.923H12.923A1.923 1.923 0 0111 59.035h0V12.881c0-1.062.861-1.923 1.923-1.923h0z"/>
  <path fill="none" stroke="#00A5FF" stroke-miterlimit="10" stroke-width="0.1" d="M18.254 4h35.492A2.254 2.254 0 0156 6.254v59.492A2.254 2.254 0 0153.746 68H18.254A2.254 2.254 0 0116 65.746V6.254A2.254 2.254 0 0118.254 4z"/>
  <path fill="none" stroke="#00A5FF" stroke-miterlimit="10" stroke-width="0.1" d="M68 18.254v35.492A2.254 2.254 0 0165.746 56H6.254A2.254 2.254 0 014 53.746V18.254A2.254 2.254 0 016.254 16h59.492A2.254 2.254 0 0168 18.254z"/>
  <circle cx="36" cy="36" r="29" fill="none" stroke="#00A5FF" stroke-miterlimit="10" stroke-width="0.1"/>
  <g fill="none" stroke="#fff" stroke-linecap="round" stroke-linejoin="round" stroke-miterlimit="10" stroke-width="6">
    <path d="M26 38h36v17H9V38h3"/>
    <path d="M14 45h10v10H14zm5 10V45m9 0h10v10H28zm10 0h10v10H38zm10 0h10v10H48z"/>
    <ellipse cx="19" cy="37" rx="7" ry="5"/>
    <path d="M16.577 35.99a.922.922 0 01.903-.737h0a.92.92 0 01.651.27c.26.26.236.69-.008.965l-1.565 1.765h1.843m2.377-3l-1.115 2.52h1.755m-.289-.928v1.408"/>
  </g>
  <path fill="#E27022" d="M9 38h53v17H9z"/>
  <path fill="#92D3F5" d="M14 45h10v10H14zm14 0h10v10H28zm10 0h10v10H38zm10 0h10v10H48z"/>
  <ellipse cx="19" cy="37" rx="7" ry="5" fill="#FFF"/>
  <g fill="none" stroke="#000" stroke-miterlimit="10">
    <path stroke-linecap="round" stroke-linejoin="round" stroke-width="2" d="M26 38h36v17H9V38h3"/>
    <path stroke-linecap="round" stroke-linejoin="round" stroke-width="2" d="M14 45h10v10H14zm5 10V45m9 0h10v10H28zm10 0h10v10H38zm10 0h10v10H48z"/>
    <ellipse cx="19" cy="37" rx="7" ry="5" stroke-width="2"/>
    <path stroke-linecap="round" stroke-linejoin="round" stroke-width="0.857" d="M16.577 35.99a.922.922 0 01.903-.737h0a.92.92 0 01.651.27c.26.26.236.69-.008.965l-1.565 1.765h1.843m2.377-3l-1.115 2.52h1.755m-.289-.928v1.408"/>
  </g>
</svg>
