<svg viewBox="0 0 72 72" xmlns="http://www.w3.org/2000/svg">
  <path fill="#b3b3b3" d="M68 4v64H4V4h64m4-4H0v72h72V0z"/>
  <path fill="none" stroke="#00a5ff" stroke-miterlimit="10" stroke-width="0.1" d="M12.923 10.958h46.154A1.923 1.923 0 0161 12.881v46.154a1.923 1.923 0 01-1.923 1.923H12.923A1.923 1.923 0 0111 59.035V12.881a1.923 1.923 0 011.923-1.923z"/>
  <rect x="16" y="4" rx="2.254" width="40" height="64" fill="none" stroke="#00a5ff" stroke-miterlimit="10" stroke-width="0.1"/>
  <rect x="16" y="4" rx="2.254" width="40" height="64" transform="rotate(90 36 36)" fill="none" stroke="#00a5ff" stroke-miterlimit="10" stroke-width="0.1"/>
  <circle cx="36" cy="36" r="29" fill="none" stroke="#00a5ff" stroke-miterlimit="10" stroke-width="0.1"/>
  <g fill="none" stroke="#fff" stroke-linecap="round" stroke-linejoin="round" stroke-miterlimit="10" stroke-width="6">
    <path d="M16 12h40v48H16z"/>
    <path d="M20 50h8v10h-8zm24 0h8v10h-8zm-12 0h8v10h-8zM16 36h10v10H16zm10 0h10v10H26zm10 0h10v10H36zm10 0h10v10H46zM16 26h10v10H16zm10 0h10v10H26zm10 0h10v10H36zm10 0h10v10H46zM16 16h10v10H16zm10 0h10v10H26zm10 0h10v10H36zm10 0h10v10H46z"/>
  </g>
  <path fill="#D0CFCE" d="M16 12h40v48H16z"/>
  <path fill="#92D3F5" d="M20 50h8v10h-8zm24 0h8v10h-8zm-12 0h8v10h-8zM16 36h10v10H16zm10 0h10v10H26zm10 0h10v10H36zm10 0h10v10H46zM16 26h10v10H16zm10 0h10v10H26zm10 0h10v10H36zm10 0h10v10H46zM16 16h10v10H16zm10 0h10v10H26zm10 0h10v10H36zm10 0h10v10H46z"/>
  <g fill="none" stroke="#000" stroke-linecap="round" stroke-linejoin="round" stroke-miterlimit="10" stroke-width="2">
    <path d="M16 12h40v48H16z"/>
    <path d="M20 50h8v10h-8zm24 0h8v10h-8zm-12 0h8v10h-8zM16 36h10v10H16zm10 0h10v10H26zm10 0h10v10H36zm10 0h10v10H46zM16 26h10v10H16zm10 0h10v10H26zm10 0h10v10H36zm10 0h10v10H46zM16 16h10v10H16zm10 0h10v10H26zm10 0h10v10H36zm10 0h10v10H46z"/>
  </g>
</svg>
