<svg viewBox="0 0 72 72" xmlns="http://www.w3.org/2000/svg">
  <path fill="#b3b3b3" d="M68 4v64H4V4h64m4-4H0v72h72z"/>
  <path fill="none" stroke="#00a5ff" stroke-miterlimit="10" stroke-width="0.1" d="M12.9 11h46.2a1.899 1.899 0 011.9 1.9h0V59a1.899 1.899 0 01-1.9 1.9H12.9A1.837 1.837 0 0111 59h0V12.9a1.899 1.899 0 011.9-1.9z"/>
  <path fill="none" stroke="#00a5ff" stroke-miterlimit="10" stroke-width="0.1" d="M18.3 4h35.5A2.243 2.243 0 0156 6.3v59.5a2.326 2.326 0 01-2.3 2.3H18.3a2.414 2.414 0 01-2.3-2.4V6.3A2.263 2.263 0 0118.3 4z"/>
  <path fill="none" stroke="#00a5ff" stroke-miterlimit="10" stroke-width="0.1" d="M68 18.3v35.5a2.326 2.326 0 01-2.3 2.3H6.3A2.414 2.414 0 014 53.7V18.3A2.263 2.263 0 016.3 16h59.5a2.243 2.243 0 012.2 2.3z"/>
  <circle cx="36" cy="36" r="29" fill="none" stroke="#00a5ff" stroke-miterlimit="10" stroke-width="0.1"/>
  <g fill="none" stroke="#fff" stroke-linecap="round" stroke-linejoin="round" stroke-miterlimit="10" stroke-width="6">
    <path d="M13 14h46v46H13z"/>
    <path d="M43 36.9L41 39a11.184 11.184 0 01-3.8 1 3 3 0 10-.4 0 9.289 9.289 0 01-3.8-1l-.3.3-1.5-4A6.027 6.027 0 0143 36.9zM29.5 50h13v10h-13zM36 60V50"/>
    <path d="M32.7 39.3l-1.4 1.4-4.6-1.9 4.3-4.3.2.8 1.5 4zM47 37l-4 4-2-2 2-2.1 1.9-1.9 2.1 2z"/>
    <path d="M43 41a8.813 8.813 0 01-5.5 2h-.9a8.88 8.88 0 01-5.6-2l2-2a11.184 11.184 0 003.8 1h.4a9.289 9.289 0 003.8-1zM21 25h-2v-5m34 15h-2v-5m-6-5h-2v-5m10 5h-2v-5m-14 5h-2v-5m-6 5h-2v-5m-6 15h-2v-5m2 15h-2v-5m34 5h-2v-5m2 15h-2v-5m-30 5h-2v-5"/>
  </g>
  <path fill="#d0cfce" d="M13 14h46v46H13z"/>
  <circle cx="37" cy="37" r="6" fill="#fcea2b"/>
  <path fill="#92d3f5" d="M29.5 50h13v10h-13z"/>
  <path fill="none" stroke="#92d3f5" stroke-linecap="round" stroke-linejoin="round" stroke-width="2" d="M51 30h2v5h-2zm0-10h2v5h-2zm-16 0h2v5h-2zm8 0h2v5h-2zm-16 0h2v5h-2zm24 20h2v5h-2zm0 10h2v5h-2zM19 30h2v5h-2zm0-10h2v5h-2zm0 20h2v5h-2zm0 10h2v5h-2z"/>
  <circle cx="37" cy="37" r="3" fill="#d0cfce"/>
  <path fill="#fcea2b" d="M31 34.5l-4.3 4.3L32 41l1-1-2-5.5zM47 37l-4 4-2-2 3.9-4 2.1 2z"/>
  <path fill="#fcea2b" d="M43 41a8.89 8.89 0 01-6 2 8.89 8.89 0 01-6-2l2-2a10.718 10.718 0 004 1 10.718 10.718 0 004-1z"/>
  <g fill="none" stroke="#000" stroke-linecap="round" stroke-linejoin="round" stroke-width="2">
    <path d="M13 14h46v46H13z"/>
    <path d="M43 36.9L41 39a11.184 11.184 0 01-3.8 1 3 3 0 10-.4 0 9.289 9.289 0 01-3.8-1l-.3.3-1.5-4A6.027 6.027 0 0143 36.9zM29.5 50h13v10h-13zM36 60V50"/>
    <path d="M32.7 39.3l-1.4 1.4-4.6-1.9 4.3-4.3.2.8 1.5 4zM47 37l-4 4-2-2 2-2.1 1.9-1.9 2.1 2z"/>
    <path d="M43 41a8.813 8.813 0 01-5.5 2h-.9a8.88 8.88 0 01-5.6-2l2-2a11.184 11.184 0 003.8 1h.4a9.289 9.289 0 003.8-1zM21 25h-2v-5m34 15h-2v-5m-6-5h-2v-5m10 5h-2v-5m-14 5h-2v-5m-6 5h-2v-5m-6 15h-2v-5m2 15h-2v-5m34 5h-2v-5m2 15h-2v-5m-30 5h-2v-5"/>
  </g>
</svg>
