<svg viewBox="0 0 72 72" xmlns="http://www.w3.org/2000/svg">
  <path fill="#B3B3B3" d="M68 4v64H4V4h64zm4-4H0v72h72V0z"/>
  <path fill="none" stroke="#00A5FF" stroke-miterlimit="10" stroke-width="0.1" d="M12.92 10.96h46.15a1.924 1.924 0 011.923 1.923v46.15a1.924 1.924 0 01-1.923 1.923H12.92a1.924 1.924 0 01-1.923-1.923v-46.15a1.924 1.924 0 011.923-1.923z"/>
  <path fill="none" stroke="#00A5FF" stroke-miterlimit="10" stroke-width="0.1" d="M53.75 4H18.26a2.254 2.254 0 00-2.254 2.254v59.49a2.254 2.254 0 002.254 2.254h35.49a2.254 2.254 0 002.254-2.254V6.254A2.254 2.254 0 0053.75 4z"/>
  <path fill="none" stroke="#00A5FF" stroke-miterlimit="10" stroke-width="0.1" d="M68 53.75V18.26a2.254 2.254 0 00-2.254-2.254H6.256a2.254 2.254 0 00-2.254 2.254v35.49a2.254 2.254 0 002.254 2.254h59.49A2.254 2.254 0 0068 53.75z"/>
  <path fill="none" stroke="#00A5FF" stroke-miterlimit="10" stroke-width="0.1" d="M36 65c16.02 0 29-12.98 29-29S52.02 7 36 7 7 19.98 7 36s12.98 29 29 29z"/>
  <g fill="none" stroke="#fff" stroke-linecap="round" stroke-linejoin="round" stroke-miterlimit="10" stroke-width="6">
    <path d="M67 17H5v38h62V17zM29 29h2.5"/>
    <path d="M34.45 39.55c-.199 1.895-.006 2.834.556 4.637-1.005 1.063-1.834 2.039-3.279 2.039l-.343-1.028 1.62-.51c-.911-1.067-2.173-2.229-2.002-3-2.507.235-2.746 1.631-3.661 3.763l-3.004-1 .461-1.106 1.698.842c-.44-2.904.953-4.623 3.004-5.998-.83-.677-.949-1.62-.95-2.607-2.516.659-4.081.884-5.557-1.39l.5-1c1.767 3.186 2.876 1.52 5.085.225-4.49-2.806-3.86-1.68-5.084-4.724l1-.5c.578 2.902 2.24 2.353 4.506 2.999l2.503-2c-.664-2.515-2.985-.183-3.004-2.498H30c1.595-1.816 3.339-.361 4.505-.5l-.501 1c.142 1.168.003 1.993-.5 2.999 1.236 1.85-.105 2.506-.381 4.573-.111.83 1.116 3.144 1.326 4.786z" clip-rule="evenodd"/>
  </g>
  <path fill="#fff" d="M67 17H5.32v37.804H67V17z"/>
  <path fill="#D22F27" d="M5 17h62v8H5zm0 30h62v8H5z"/>
  <g stroke="#000" stroke-linecap="round">
    <path fill="none" stroke-linejoin="round" stroke-width="2" d="M67 17H5v38h62V17z"/>
    <path fill="none" stroke-linejoin="bevel" d="M29 29h2.5"/>
    <path fill-rule="evenodd" stroke-linejoin="round" d="M34.45 39.55c-.199 1.895-.006 2.834.556 4.637-1.005 1.063-1.834 2.039-3.279 2.039l-.343-1.028 1.62-.51c-.911-1.067-2.173-2.229-2.002-3-2.507.235-2.746 1.631-3.661 3.763l-3.004-1 .461-1.106 1.698.842c-.44-2.904.953-4.623 3.004-5.998-.83-.677-.949-1.62-.95-2.607-2.516.659-4.081.884-5.557-1.39l.5-1c1.767 3.186 2.876 1.52 5.085.225-4.49-2.806-3.86-1.68-5.084-4.724l1-.5c.578 2.902 2.24 2.353 4.506 2.999l2.503-2c-.664-2.515-2.985-.183-3.004-2.498H30c1.595-1.816 3.339-.361 4.505-.5l-.501 1c.142 1.168.003 1.993-.5 2.999 1.236 1.85-.105 2.506-.381 4.573-.111.83 1.116 3.144 1.326 4.786z" clip-rule="evenodd"/>
  </g>
</svg>
