<svg viewBox="0 0 72 72" xmlns="http://www.w3.org/2000/svg">
  <path fill="#b3b3b3" d="M68 4v64H4V4h64m4-4H0v72h72V0z"/>
  <path fill="none" stroke="#00a5ff" stroke-miterlimit="10" stroke-width="0.1" d="M12.923 10.958h46.154A1.923 1.923 0 0161 12.881v46.154a1.923 1.923 0 01-1.923 1.923H12.923A1.923 1.923 0 0111 59.035V12.881a1.923 1.923 0 011.923-1.923z"/>
  <rect x="16" y="4" rx="2.254" width="40" height="64" fill="none" stroke="#00a5ff" stroke-miterlimit="10" stroke-width="0.1"/>
  <rect x="16" y="4" rx="2.254" width="40" height="64" transform="rotate(90 36 36)" fill="none" stroke="#00a5ff" stroke-miterlimit="10" stroke-width="0.1"/>
  <circle cx="36" cy="36" r="29" fill="none" stroke="#00a5ff" stroke-miterlimit="10" stroke-width="0.1"/>
  <g fill="none" stroke="#fff" stroke-linecap="round" stroke-linejoin="round" stroke-miterlimit="10" stroke-width="6">
    <path d="M31.526 34.684l-8.052-3.579-2.684-7.158m19.684 10.737l8.052-3.579 2.684-7.158M40.474 38.263h9.842L53 35.58m-21.474 2.683h-9.842L19 35.58m13.421 4.578l-9.842 8.947.895 7.158m16.105-16.105l10.737 8.947-.895 7.158M33.838 25.737l-1.417-3.58.895-1.789m4.474 5.369l1.416-3.58-.895-1.789"/>
    <ellipse cx="36" cy="29.763" rx="6.263" ry="4.026"/>
    <ellipse cx="36" cy="36.921" rx="4.474" ry="2.876"/>
    <ellipse cx="36" cy="50.342" rx="6.263" ry="10.29"/>
  </g>
  <g fill="#6A462F">
    <ellipse cx="36" cy="29.763" rx="6.263" ry="4.026"/>
    <ellipse cx="36" cy="36.921" rx="4.474" ry="2.876"/>
    <ellipse cx="36" cy="50.342" rx="6.263" ry="10.29"/>
  </g>
  <g fill="none" stroke="#000" stroke-linecap="round" stroke-linejoin="round" stroke-miterlimit="10" stroke-width="2">
    <path d="M31.526 34.684l-8.052-3.579-2.684-7.158m19.684 10.737l8.052-3.579 2.684-7.158M40.474 38.263h9.842L53 35.58m-21.474 2.683h-9.842L19 35.58m13.421 4.578l-9.842 8.947.895 7.158m16.105-16.105l10.737 8.947-.895 7.158M33.838 25.737l-1.417-3.58.895-1.789m4.474 5.369l1.416-3.58-.895-1.789"/>
    <ellipse cx="36" cy="29.763" rx="6.263" ry="4.026"/>
    <ellipse cx="36" cy="36.921" rx="4.474" ry="2.876"/>
    <ellipse cx="36" cy="50.342" rx="6.263" ry="10.29"/>
  </g>
</svg>
