<svg viewBox="0 0 72 72" xmlns="http://www.w3.org/2000/svg">
  <path fill="#b3b3b3" d="M68 4v64H4V4h64m4-4H0v72h72V0z"/>
  <path fill="none" stroke="#00a5ff" stroke-miterlimit="10" stroke-width="0.1" d="M12.923 10.958h46.154A1.923 1.923 0 0161 12.881v46.154a1.923 1.923 0 01-1.923 1.923H12.923A1.923 1.923 0 0111 59.035V12.881a1.923 1.923 0 011.923-1.923z"/>
  <rect x="16" y="4" rx="2.254" width="40" height="64" fill="none" stroke="#00a5ff" stroke-miterlimit="10" stroke-width="0.1"/>
  <rect x="16" y="4" rx="2.254" width="40" height="64" transform="rotate(90 36 36)" fill="none" stroke="#00a5ff" stroke-miterlimit="10" stroke-width="0.1"/>
  <circle cx="36" cy="36" r="29" fill="none" stroke="#00a5ff" stroke-miterlimit="10" stroke-width="0.1"/>
  <g fill="none" stroke="#fff" stroke-linecap="round" stroke-linejoin="round" stroke-miterlimit="10" stroke-width="6">
    <path d="M47.632 55.495c9.088 0 16.456-7.368 16.456-16.456S56.72 22.583 47.632 22.583m-.874 32.912h-12m-.293-6.993a3.5 3.5 0 10.293 6.994m-.526-13.991a3.5 3.5 0 10.294 6.994m-.428-6.989a3.5 3.5 0 10.562 6.977m-.906-14.019a3.5 3.5 0 00.448 6.985m1.776-23.939a3.5 3.5 0 10-4.863 5.035m-19.733 4.919a3.5 3.5 0 100 7m22.335 0H11.382m0-7h27.79m-5.844-2.961l-2.214-1.958m7.183-3.267c2.144 1.952 5.168 3.373 9.522 3.3m-11.841-5.068l2.38 1.821"/>
    <path d="M47.647 55.48c9.089 0 16.456-7.368 16.456-16.457s-7.367-16.455-16.456-16.455m-.873 32.911h-12m-.294-6.992a3.5 3.5 0 10.294 6.994m-.526-13.991a3.5 3.5 0 10.293 6.994m-.427-6.99a3.5 3.5 0 10.56 6.977m-.904-14.019a3.5 3.5 0 00.447 6.986m1.776-23.939a3.5 3.5 0 10-4.863 5.035m-19.733 4.918a3.5 3.5 0 100 7m22.335 0H11.397m0-7h27.791m-5.845-2.96l-2.213-1.958m7.183-3.268c2.143 1.953 5.167 3.374 9.521 3.302m-11.841-5.069l2.38 1.821"/>
  </g>
  <g fill="#fcea2b">
    <path d="M45.697 55.288c11.975 0 18.39-7.161 18.39-16.25s-6.275-19.272-31.152-16.616m13.823 33.073h-12m-.293-6.993a3.5 3.5 0 10.293 6.994m-.526-13.991a3.5 3.5 0 10.294 6.994m-.428-6.989a3.5 3.5 0 10.562 6.977m-.906-14.019a3.5 3.5 0 00.448 6.985"/>
    <path d="M43.058 22.954c-7.62-5.867-10.687-6.745-12.03-5.354-1.342 1.39.784 5.694 2.175 7.037m-21.821 2.831a3.5 3.5 0 100 7m22.335 0H11.382m0-7h27.79m-5.844-2.961l-2.214-1.958m7.183-3.267c2.144 1.952 5.168 3.373 9.522 3.3m-11.841-5.068l2.38 1.821"/>
    <path d="M38.797 34.578l-1.967-7.063H11.047v6.953z"/>
    <path d="M45.943 34.577v20.921H33.717v-20.92zm-9.005-7.109l-.995-2.656-3.186.51 2.93 2.163z"/>
  </g>
  <g fill="none" stroke="#000" stroke-linecap="round" stroke-linejoin="round" stroke-miterlimit="10" stroke-width="2">
    <path d="M47.632 55.495c9.088 0 16.456-7.368 16.456-16.456S56.72 22.583 47.632 22.583m-.874 32.912h-12m-.293-6.993a3.5 3.5 0 10.293 6.994m-.526-13.991a3.5 3.5 0 10.294 6.994m-.428-6.989a3.5 3.5 0 10.562 6.977m-.906-14.019a3.5 3.5 0 00.448 6.985m1.776-23.939a3.5 3.5 0 10-4.863 5.035m-19.733 4.919a3.5 3.5 0 100 7m22.335 0H11.382m0-7h27.79m-5.844-2.961l-2.214-1.958m7.183-3.267c2.144 1.952 5.168 3.373 9.522 3.3m-11.841-5.068l2.38 1.821"/>
    <path d="M47.647 55.48c9.089 0 16.456-7.368 16.456-16.457s-7.367-16.455-16.456-16.455m-.873 32.911h-12m-.294-6.992a3.5 3.5 0 10.294 6.994m-.526-13.991a3.5 3.5 0 10.293 6.994m-.427-6.99a3.5 3.5 0 10.56 6.977m-.904-14.019a3.5 3.5 0 00.447 6.986m1.776-23.939a3.5 3.5 0 10-4.863 5.035m-19.733 4.918a3.5 3.5 0 100 7m22.335 0H11.397m0-7h27.791m-5.845-2.96l-2.213-1.958m7.183-3.268c2.143 1.953 5.167 3.374 9.521 3.302m-11.841-5.069l2.38 1.821"/>
  </g>
</svg>
