<svg viewBox="0 0 72 72" xmlns="http://www.w3.org/2000/svg">
  <path fill="#b3b3b3" d="M68 4v64H4V4h64m4-4H0v72h72V0z"/>
  <path fill="none" stroke="#00a5ff" stroke-miterlimit="10" stroke-width="0.1" d="M12.923 10.958h46.154A1.923 1.923 0 0161 12.881v46.154a1.923 1.923 0 01-1.923 1.923H12.923A1.923 1.923 0 0111 59.035V12.881a1.923 1.923 0 011.923-1.923z"/>
  <rect x="16" y="4" rx="2.254" width="40" height="64" fill="none" stroke="#00a5ff" stroke-miterlimit="10" stroke-width="0.1"/>
  <rect x="16" y="4" rx="2.254" width="40" height="64" transform="rotate(90 36 36)" fill="none" stroke="#00a5ff" stroke-miterlimit="10" stroke-width="0.1"/>
  <circle cx="36" cy="36" r="29" fill="none" stroke="#00a5ff" stroke-miterlimit="10" stroke-width="0.1"/>
  <g fill="none" stroke="#fff" stroke-linecap="round" stroke-linejoin="round" stroke-miterlimit="10" stroke-width="6">
    <path d="M26.125 19.625C30.75 2.083 61 7.875 49.688 35.958c-14.592 35.792-31.876 25-28.813 13.323"/>
    <path d="M35.103 28c4.439 7 7.397 13.542 1.397 16.25-1.397.574-2.877.413-4.382 1.173-1.535.723-1.82 1.327-3.639 3.285-2.562 2.063-5.77-1.546-3.958-3.687 3.073-3.396 6.448-3.927 4.667-7.209-1.22-2.204-.407-5.28 3.5-4.156m-3.006-9.718c3.974-15.875 24.832-10.259 15.24 11.118"/>
  </g>
  <path fill="#fcea2b" d="M25.107 19.748C29.732 2.207 61 7 49.711 35.665c-14.592 35.792-32.791 24.677-29.729 13"/>
  <path fill="#f1b31c" d="M45.688 35.614c3.663-21.877-14.563-17.239-16.006-11.676 3.974-15.875 24.091-9.593 16.006 11.676zm-11.525-7.98c4.438 7 8.337 13.908 2.337 16.616-1.397.574-2.877.413-4.382 1.173-1.535.723-1.82 1.327-3.639 3.285-2.562 2.063-5.77-1.546-3.958-3.687 3.073-3.396 6.448-3.927 4.667-7.209-1.22-2.204.495-5.027 4.402-3.902"/>
  <g fill="none" stroke="#000" stroke-linecap="round" stroke-linejoin="round" stroke-miterlimit="10" stroke-width="2">
    <path d="M26.125 19.625C30.75 2.083 61 7.875 49.688 35.958c-14.592 35.792-31.876 25-28.813 13.323"/>
    <path d="M35.103 28c4.439 7 7.397 13.542 1.397 16.25-1.397.574-2.877.413-4.382 1.173-1.535.723-1.82 1.327-3.639 3.285-2.562 2.063-5.77-1.546-3.958-3.687 3.073-3.396 6.448-3.927 4.667-7.209-1.22-2.204-.407-5.28 3.5-4.156m-3.006-9.718c3.974-15.875 24.832-10.259 15.24 11.118"/>
  </g>
</svg>
