<svg viewBox="0 0 72 72" xmlns="http://www.w3.org/2000/svg">
  <path fill="#B3B3B3" d="M68 4v64H4V4h64m4-4H0v72h72V0z"/>
  <path fill="none" stroke="#00A5FF" stroke-miterlimit="10" stroke-width="0.1" d="M12.923 10.958h46.154c1.062 0 1.923.861 1.923 1.923v46.154a1.923 1.923 0 01-1.923 1.923H12.923A1.923 1.923 0 0111 59.035h0V12.881c0-1.062.861-1.923 1.923-1.923h0z"/>
  <path fill="none" stroke="#00A5FF" stroke-miterlimit="10" stroke-width="0.1" d="M18.254 4h35.492A2.254 2.254 0 0156 6.254v59.492A2.254 2.254 0 0153.746 68H18.254A2.254 2.254 0 0116 65.746V6.254A2.254 2.254 0 0118.254 4z"/>
  <path fill="none" stroke="#00A5FF" stroke-miterlimit="10" stroke-width="0.1" d="M68 18.254v35.492A2.254 2.254 0 0165.746 56H6.254A2.254 2.254 0 014 53.746V18.254A2.254 2.254 0 016.254 16h59.492A2.254 2.254 0 0168 18.254z"/>
  <circle cx="36" cy="36" r="29" fill="none" stroke="#00A5FF" stroke-miterlimit="10" stroke-width="0.1"/>
  <path fill="none" stroke="#fff" stroke-linecap="round" stroke-linejoin="round" stroke-miterlimit="10" stroke-width="6" d="M18.657 19.24a3.531 3.531 0 10-5.563 4.25l11.533 15.1 2.688 3.387-7.89-10.331a3.531 3.531 0 10-5.564 4.249l7.891 10.331 6.27 7.899c5.468 6.273 14.515 5.93 20.787.465a19.617 19.617 0 006.515-12.31c.386-4.233.807-15.301.807-15.301-.182-2.601-3.135-4.524-3.515-3.18l-4.894 9.757-3.366-4.223 3.366 4.223-3.366-4.223-13.465-17.208a3.531 3.531 0 10-5.563 4.249l4.249 5.563L36 30.417l-13.419-17.68a3.531 3.531 0 10-5.563 4.248L31.689 36m-20.016 6.872c0 2.566 1.747 4.643 3.905 4.643m-8.517-5.078c0 5.596 3.81 10.124 8.517 10.124m29.684-31.323c0-2.567-1.747-4.643-3.906-4.643m8.517 5.078c0-5.596-3.81-10.124-8.517-10.124"/>
  <path fill="#FCEA2B" d="M18.657 19.24a3.531 3.531 0 10-5.563 4.25l11.533 15.1 2.688 3.387-7.89-10.331a3.531 3.531 0 10-5.564 4.249l7.891 10.331 6.27 7.899c5.468 6.273 14.515 5.93 20.787.465a19.617 19.617 0 006.515-12.31c.386-4.233.807-15.301.807-15.301-.182-2.601-3.135-4.524-3.515-3.18l-4.894 9.757-3.366-4.223 3.366 4.223-3.366-4.223-13.465-17.208a3.531 3.531 0 10-5.563 4.249l4.249 5.563L36 30.417l-13.419-17.68a3.531 3.531 0 10-5.563 4.248L31.689 36"/>
  <g fill="none" stroke="#000" stroke-linecap="round" stroke-linejoin="round" stroke-width="2">
    <path d="M18.657 19.24a3.531 3.531 0 10-5.563 4.25l11.533 15.1 2.688 3.387-7.89-10.331a3.531 3.531 0 10-5.564 4.249l7.891 10.331 6.27 7.899c5.468 6.273 14.515 5.93 20.787.465a19.617 19.617 0 006.515-12.31c.386-4.233.807-15.301.807-15.301-.182-2.601-3.135-4.524-3.515-3.18l-4.894 9.757-3.366-4.223 3.366 4.223-3.366-4.223-13.465-17.208a3.531 3.531 0 10-5.563 4.249l4.249 5.563L36 30.417l-13.419-17.68a3.531 3.531 0 10-5.563 4.248L31.689 36"/>
    <path stroke-miterlimit="10" d="M11.673 42.872c0 2.566 1.747 4.643 3.905 4.643m-8.517-5.078c0 5.596 3.81 10.124 8.517 10.124m29.684-31.323c0-2.567-1.747-4.643-3.906-4.643m8.517 5.078c0-5.596-3.81-10.124-8.517-10.124"/>
  </g>
</svg>
