<svg viewBox="0 0 72 72" xmlns="http://www.w3.org/2000/svg">
  <path fill="#B3B3B3" d="M68 4v64H4V4h64m4-4H0v72h72V0z"/>
  <path fill="none" stroke="#00A5FF" stroke-miterlimit="10" stroke-width="0.1" d="M12.923 10.958h46.154c1.062 0 1.923.861 1.923 1.923v46.154a1.923 1.923 0 01-1.923 1.923H12.923A1.923 1.923 0 0111 59.035h0V12.881c0-1.062.861-1.923 1.923-1.923h0z"/>
  <path fill="none" stroke="#00A5FF" stroke-miterlimit="10" stroke-width="0.1" d="M18.254 4h35.492A2.254 2.254 0 0156 6.254v59.492A2.254 2.254 0 0153.746 68H18.254A2.254 2.254 0 0116 65.746V6.254A2.254 2.254 0 0118.254 4z"/>
  <path fill="none" stroke="#00A5FF" stroke-miterlimit="10" stroke-width="0.1" d="M68 18.254v35.492A2.254 2.254 0 0165.746 56H6.254A2.254 2.254 0 014 53.746V18.254A2.254 2.254 0 016.254 16h59.492A2.254 2.254 0 0168 18.254z"/>
  <circle cx="36" cy="36" r="29" fill="none" stroke="#00A5FF" stroke-miterlimit="10" stroke-width="0.1"/>
  <g fill="none" stroke="#fff" stroke-linecap="round" stroke-linejoin="round" stroke-miterlimit="10" stroke-width="6">
    <path d="M4 51.624h64v7.267H4zM7 11v40.624h58V11M7 11a5 5 0 010 10"/>
    <path d="M23.443 33.937a16.418 16.418 0 01-13.042-6.427A16.371 16.371 0 017 17.494m57.967 0c0 9.082-7.361 16.443-16.442 16.443"/>
    <circle cx="35.996" cy="16.008" r="5"/>
    <path d="M65 21a5 5 0 010-10M4 51.624h64v7.267H4zM7 11a5 5 0 010 10m58 0a5 5 0 010-10"/>
    <path d="M34.597 20.874c-.588 7.46-3.396 13.063-11.318 13.063h.164a16.418 16.418 0 01-13.042-6.427A16.37 16.37 0 017 17.494V11v40.624h58V11"/>
    <path d="M64.967 17.494c0 9.082-7.361 16.443-16.442 16.443h-.287c-7.906 0-10.72-5.58-11.315-13.016"/>
    <circle cx="35.996" cy="16.008" r="5"/>
  </g>
  <path fill="#FFF" d="M4 51.624h64v7.267H4z"/>
  <circle cx="35.996" cy="16.008" r="5" fill="#FFF"/>
  <path fill="#F1B31C" d="M4 51.624h64v7.267H4z"/>
  <path fill="#FCEA2B" d="M7 11a5 5 0 010 10m58 0a5 5 0 010-10"/>
  <path fill="#FCEA2B" d="M64.967 17.494c0 9.082-7.361 16.443-16.442 16.443h-.287c-9.081 0-11.443-7.361-11.443-16.443h-2.074c0 9.082-2.361 16.443-11.442 16.443h.164a16.418 16.418 0 01-13.042-6.427A16.37 16.37 0 017 17.494V11v40.624h58V11"/>
  <circle cx="35.996" cy="16.008" r="5" fill="#FCEA2B"/>
  <g fill="none" stroke="#000" stroke-linecap="round" stroke-linejoin="round" stroke-miterlimit="10" stroke-width="2">
    <path d="M4 51.624h64v7.267H4zM7 11v40.624h58V11M7 11a5 5 0 010 10"/>
    <path d="M23.443 33.937a16.418 16.418 0 01-13.042-6.427A16.371 16.371 0 017 17.494m57.967 0c0 9.082-7.361 16.443-16.442 16.443"/>
    <circle cx="35.996" cy="16.008" r="5"/>
    <path d="M65 21a5 5 0 010-10M4 51.624h64v7.267H4zM7 11a5 5 0 010 10m58 0a5 5 0 010-10"/>
    <path d="M34.597 20.874c-.588 7.46-3.396 13.063-11.318 13.063h.164a16.418 16.418 0 01-13.042-6.427A16.37 16.37 0 017 17.494V11v40.624h58V11"/>
    <path d="M64.967 17.494c0 9.082-7.361 16.443-16.442 16.443h-.287c-7.906 0-10.72-5.58-11.315-13.016"/>
    <circle cx="35.996" cy="16.008" r="5"/>
  </g>
</svg>
