<svg viewBox="0 0 72 72" xmlns="http://www.w3.org/2000/svg">
  <path fill="#b3b3b3" d="M68 4v64H4V4h64m4-4H0v72h72V0z"/>
  <path fill="none" stroke="#00a5ff" stroke-miterlimit="10" stroke-width="0.1" d="M12.923 10.958h46.154A1.923 1.923 0 0161 12.881v46.154a1.923 1.923 0 01-1.923 1.923H12.923A1.923 1.923 0 0111 59.035V12.881a1.923 1.923 0 011.923-1.923z"/>
  <rect x="16" y="4" rx="2.254" width="40" height="64" fill="none" stroke="#00a5ff" stroke-miterlimit="10" stroke-width="0.1"/>
  <rect x="16" y="4" rx="2.254" width="40" height="64" transform="rotate(90 36 36)" fill="none" stroke="#00a5ff" stroke-miterlimit="10" stroke-width="0.1"/>
  <circle cx="36" cy="36" r="29" fill="none" stroke="#00a5ff" stroke-miterlimit="10" stroke-width="0.1"/>
  <g fill="none" stroke="#fff" stroke-linecap="round" stroke-linejoin="round" stroke-miterlimit="10" stroke-width="6">
    <path d="M4 50.794h64m-5.862-4.68l-15.524-7.712-15.524 7.712V30.69l15.524 7.712 15.524-7.712z"/>
    <path d="M16 46.048V36c0-11.046 8.954-20 20-20 8.457 0 15.688 5.249 18.613 12.666"/>
  </g>
  <path fill="#A57939" stroke="#A57939" stroke-miterlimit="10" stroke-width="2" d="M36 16c11.046 0 20 8.954 20 20v14.794H16V36c0-11.046 8.954-20 20-20"/>
  <path fill="#B1CC33" d="M62.138 46.114l-15.524-7.712-15.524 7.712V30.69l15.524 7.712 15.524-7.712z"/>
  <g fill="none" stroke="#000" stroke-linecap="round" stroke-linejoin="round" stroke-miterlimit="10" stroke-width="2">
    <path d="M4 50.794h64m-5.862-4.68l-15.524-7.712-15.524 7.712V30.69l15.524 7.712 15.524-7.712z"/>
    <path d="M16 46.048V36c0-11.046 8.954-20 20-20 8.457 0 15.688 5.249 18.613 12.666"/>
  </g>
</svg>
