<svg viewBox="0 0 72 72" xmlns="http://www.w3.org/2000/svg">
  <path fill="#b3b3b3" d="M68 4v64H4V4h64m4-4H0v72h72V0z"/>
  <path fill="none" stroke="#00a5ff" stroke-miterlimit="10" stroke-width="0.1" d="M12.923 10.958h46.154A1.923 1.923 0 0161 12.881v46.154a1.923 1.923 0 01-1.923 1.923H12.923A1.923 1.923 0 0111 59.035V12.881a1.923 1.923 0 011.923-1.923z"/>
  <rect x="16" y="4" rx="2.254" width="40" height="64" fill="none" stroke="#00a5ff" stroke-miterlimit="10" stroke-width="0.1"/>
  <rect x="16" y="4" rx="2.254" width="40" height="64" transform="rotate(90 36 36)" fill="none" stroke="#00a5ff" stroke-miterlimit="10" stroke-width="0.1"/>
  <circle cx="36" cy="36" r="29" fill="none" stroke="#00a5ff" stroke-miterlimit="10" stroke-width="0.1"/>
  <g fill="none" stroke="#fff" stroke-linecap="round" stroke-linejoin="round" stroke-miterlimit="10" stroke-width="6">
    <path d="M30.699 41.712c-2.246 3.325-7.05 5.511-11.365 5.511-6.904 0-12.5-5.596-12.5-12.5l-.105-4.914-1.895.05v-4.127s18.931-16.179 29.48 5.321h6.424c10.549-21.5 29.48-5.321 29.48-5.321v4.127l-1.895-.05-.105 4.914c0 6.904-5.596 12.5-12.5 12.5-4.314 0-9.119-2.186-11.365-5.51m-9.592-4.007a3 3 0 116 0"/>
    <circle cx="19.766" cy="33.558" r="9.58"/>
    <circle cx="55.286" cy="33.558" r="9.58"/>
  </g>
  <path fill="#9B9B9A" stroke="#9B9B9A" stroke-linejoin="round" stroke-miterlimit="10" stroke-width="2" d="M37.59 34.151c1.03-.156 2.393-.355 3.171 3.555.509 2.556 2.452 2.382 3.592 4.006 2.306 3.284 7.05 5.511 11.365 5.511 6.904 0 12.5-5.596 12.5-12.5l.105-4.914 1.895.05v-4.127s-18.932-16.179-29.48 5.321h-6.424c-10.549-21.5-29.48-5.321-29.48-5.321v4.127l1.895-.05.105 4.914c0 6.904 5.596 12.5 12.5 12.5 4.314 0 9.119-2.186 11.365-5.51"/>
  <path fill="#9B9B9A" stroke="#9B9B9A" stroke-miterlimit="10" stroke-width="2" d="M37.59 34.151c1.03-.156 2.393-.355 3.171 3.555.509 2.556 2.452 2.382 3.592 4.006 2.306 3.284 7.05 5.511 11.365 5.511M37.791 33.829c-6.72-.992-2.797 3.438-3.088 3.91-1.399 2.274-2.535 2.027-3.676 3.651-2.305 3.284-7.05 5.511-11.365 5.511"/>
  <circle cx="19.766" cy="33.558" r="9.58" fill="#D0CFCE"/>
  <circle cx="55.286" cy="33.558" r="9.58" fill="#D0CFCE"/>
  <g fill="none" stroke="#000" stroke-linecap="round" stroke-linejoin="round" stroke-miterlimit="10">
    <path stroke-width="2" d="M30.699 41.712c-2.246 3.325-7.05 5.511-11.365 5.511-6.904 0-12.5-5.596-12.5-12.5l-.105-4.914-1.895.05v-4.127s18.931-16.179 29.48 5.321h6.424c10.549-21.5 29.48-5.321 29.48-5.321v4.127l-1.895-.05-.105 4.914c0 6.904-5.596 12.5-12.5 12.5-4.314 0-9.119-2.186-11.365-5.51m-9.592-4.007a3 3 0 116 0"/>
    <circle cx="19.766" cy="33.558" r="9.58" stroke-width="1.846"/>
    <circle cx="55.286" cy="33.558" r="9.58" stroke-width="1.846"/>
  </g>
</svg>
