<svg viewBox="0 0 72 72" xmlns="http://www.w3.org/2000/svg">
  <path fill="#b3b3b3" d="M68 4v64H4V4h64m4-4H0v72h72V0z"/>
  <path fill="none" stroke="#00a5ff" stroke-miterlimit="10" stroke-width="0.1" d="M12.923 10.958h46.154A1.923 1.923 0 0161 12.881v46.154a1.923 1.923 0 01-1.923 1.923H12.923A1.923 1.923 0 0111 59.035V12.881a1.923 1.923 0 011.923-1.923z"/>
  <rect x="16" y="4" rx="2.254" width="40" height="64" fill="none" stroke="#00a5ff" stroke-miterlimit="10" stroke-width="0.1"/>
  <rect x="16" y="4" rx="2.254" width="40" height="64" transform="rotate(90 36 36)" fill="none" stroke="#00a5ff" stroke-miterlimit="10" stroke-width="0.1"/>
  <circle cx="36" cy="36" r="29" fill="none" stroke="#00a5ff" stroke-miterlimit="10" stroke-width="0.1"/>
  <g fill="none" stroke="#fff" stroke-linecap="round" stroke-linejoin="round" stroke-miterlimit="10" stroke-width="6">
    <path d="M7 52.06c-2.248-1.852-3-8.255-3-11.396 0-2.79 1.13-10.315 2.959-12.143 0 0 2.658-1.132 4.041 0 4.529 3.71 13.658 12.215 25.004 0 0 0 17.578 8.342 22.32 9.546 8.143 2.067 8.417 4.12 8.417 6.822 0 8.652-10.084 7.54-16.81 7.172-3.707-.203-38.801.225-42.931 0"/>
    <path d="M8 46.816s15.134-2.46 24.496.11 28.345 1.23 28.345 1.23M40.442 35.958l-5.072 5.938m10.156-4.135l-3.532 4.135"/>
    <path d="M7 52.06c-2.248-1.852-3-8.255-3-11.396 0-2.79 1.13-10.315 2.959-12.143 0 0 2.658-1.132 4.041 0 4.529 3.71 13.658 12.215 25.004 0 0 0 17.578 8.342 22.32 9.546 8.143 2.067 8.417 4.12 8.417 6.822 0 8.652-10.084 7.54-16.81 7.172-3.707-.203-38.801.225-42.931 0"/>
  </g>
  <path fill="#9B9B9A" d="M7 52.06c-2.248-1.852-3-8.255-3-11.396 0-2.79 1.13-10.315 2.959-12.143 0 0 2.658-1.132 4.041 0 4.529 3.71 13.658 12.215 25.004 0 0 0 17.578 8.342 22.32 9.546 8.143 2.067 8.417 4.12 8.417 6.822 0 8.652-10.084 7.54-16.81 7.172-3.707-.203-38.801.225-42.931 0"/>
  <path fill="#D0CFCE" d="M7 45.884s16.134-1.529 25.496 1.043 28.345.23 28.345.23l5.268-.026s-.936 5.79-5.523 5.79S6 51.128 6 51.128s-3.382-4.69 1-5.245z"/>
  <g fill="none" stroke="#000" stroke-linecap="round" stroke-linejoin="round" stroke-miterlimit="10" stroke-width="2">
    <path d="M7 52.06c-2.248-1.852-3-8.255-3-11.396 0-2.79 1.13-10.315 2.959-12.143 0 0 2.658-1.132 4.041 0 4.529 3.71 13.658 12.215 25.004 0 0 0 17.578 8.342 22.32 9.546 8.143 2.067 8.417 4.12 8.417 6.822 0 8.652-10.084 7.54-16.81 7.172-3.707-.203-38.801.225-42.931 0"/>
    <path d="M8 46.816s15.134-2.46 24.496.11 28.345 1.23 28.345 1.23M40.442 35.958l-5.072 5.938m10.156-4.135l-3.532 4.135"/>
    <path d="M7 52.06c-2.248-1.852-3-8.255-3-11.396 0-2.79 1.13-10.315 2.959-12.143 0 0 2.658-1.132 4.041 0 4.529 3.71 13.658 12.215 25.004 0 0 0 17.578 8.342 22.32 9.546 8.143 2.067 8.417 4.12 8.417 6.822 0 8.652-10.084 7.54-16.81 7.172-3.707-.203-38.801.225-42.931 0"/>
  </g>
</svg>
