<svg viewBox="0 0 72 72" xmlns="http://www.w3.org/2000/svg">
  <path fill="#B3B3B3" d="M68 4v64H4V4h64m4-4H0v72h72V0z"/>
  <path fill="none" stroke="#00A5FF" stroke-miterlimit="10" stroke-width="0.1" d="M12.9 11h46.2c1.1 0 1.9.9 1.9 1.9h0V59c0 1.1-.9 1.9-1.9 1.9H12.9c-1 .1-1.9-.8-1.9-1.9h0V12.9c0-1.1.9-1.9 1.9-1.9h0z"/>
  <path fill="none" stroke="#00A5FF" stroke-miterlimit="10" stroke-width="0.1" d="M18.3 4h35.5C55 4 56 5 56 6.3v59.5c0 1.2-1 2.3-2.3 2.3H18.3C17 68 16 67 16 65.7V6.3C16 5 17 4 18.3 4z"/>
  <path fill="none" stroke="#00A5FF" stroke-miterlimit="10" stroke-width="0.1" d="M68 18.3v35.5c0 1.2-1 2.3-2.3 2.3H6.3C5 56 4 55 4 53.7V18.3C4 17 5 16 6.3 16h59.5c1.2 0 2.2 1 2.2 2.3z"/>
  <circle cx="36" cy="36" r="29" fill="none" stroke="#00A5FF" stroke-miterlimit="10" stroke-width="0.1"/>
  <g fill="none" stroke="#fff" stroke-linecap="round" stroke-linejoin="round" stroke-miterlimit="10" stroke-width="6">
    <path d="M17 59.9v-3c0-5 5-9 10-9 6 5 12 5 18 0 5 0 10 4 10 9v3m-13-30c0 1.1-.9 2-2 2s-2-.9-2-2 .9-2 2-2 2 .9 2 2m-8 0c0 1.1-.9 2-2 2s-2-.9-2-2 .9-2 2-2 2 .9 2 2m-1 8.2c1.9 1 4.1 1 6 0"/>
    <path d="M28.8 41.5c-2.5-2.9-3.8-6.7-3.7-10.5.1-2.8.8-5.5 2.1-8 .5.9 1.4 1.5 2.4 1.6 1.3 0 2.5-.9 2.8-2.1 1.1 1.4 3 1.7 4.4.6.3-.2.5-.4.7-.7 1.5 1.8 4.1 2.1 5.9.6.4-.4.8-.8 1.1-1.3 1.6 2.9 2.5 6.1 2.7 9.4 0 8-5.1 14-11.1 14-2.8-.1-5.5-1.4-7.3-3.6z"/>
    <path d="M44.6 39.6c1.3.5 2.7.3 3.7-.5.8-.6 1.3-1.5 1.5-2.5.9-.5 1.6-1.3 1.9-2.4.3-1.2 0-2.4-.7-3.4 1-1 1.5-2.3 1.3-3.7-.2-1.1-.8-2.1-1.6-2.7 1-1.2 1.3-2.8.7-4.3-.5-1-1.3-1.7-2.4-2.1.1-1.3-.4-2.6-1.5-3.3-1.3-.8-2.9-.7-4.1.3-.5-1.3-1.6-2.2-3-2.4-1.3-.1-2.5.4-3.3 1.4 0 0-3.2-3.5-7.1.1 0 0-4.7-3.1-6.1 2.6 0 0-5.4.8-2.6 6.2 0 0-2.9 3-.8 6.5 0 0-2.1 4.2 1.8 5.7-.1 1 .2 1.9.7 2.7.9 1.1 2.3 1.7 3.7 1.5"/>
  </g>
  <path fill="#F4AA41" d="M44.6 39.6c1.3.5 2.7.3 3.7-.5.8-.6 1.3-1.5 1.5-2.5.9-.5 1.6-1.3 1.9-2.4.3-1.2 0-2.4-.7-3.4 1-1 1.5-2.3 1.3-3.7-.2-1.1-.8-2.1-1.6-2.7 1-1.2 1.3-2.8.7-4.3-.5-1-1.3-1.7-2.4-2.1.1-1.3-.4-2.6-1.5-3.3-1.3-.8-2.9-.7-4.1.3-.5-1.3-1.6-2.2-3-2.4-1.3-.1-2.5.4-3.3 1.4 0 0-3.2-3.5-7.1.1 0 0-5-2.1-6.5 2.9 0 0-4.2 1.1-2.2 5.9 0 0-2.9 3-.8 6.5 0 0-2.1 4.2 1.8 5.7-.1 1 .2 1.9.7 2.7.9 1.1 2.3 1.7 3.7 1.5"/>
  <path fill="#FCEA2B" d="M44.5 21.8c1.7 2.7 2.7 5.9 2.6 9.1 0 7.7-4.9 14-11 14s-11-6.3-11-14c0-2.7.6-5.4 1.9-7.8l3.2 1.3c1.9-.9 3.9-1.2 6-1.1 1.9.2 3 .8 4.8.4 1.3-.3 2.5-.9 3.5-1.9z"/>
  <path fill="#92D3F5" d="M17 61v-4c0-5 5-9 10-9 6 5 12 5 18 0 5 0 10 4 10 9v4"/>
  <path fill="none" stroke="#000" stroke-linecap="round" stroke-linejoin="round" stroke-width="2" d="M17 59.9v-3c0-5 5-9 10-9 6 5 12 5 18 0 5 0 10 4 10 9v3"/>
  <path d="M42 29.9c0 1.1-.9 2-2 2s-2-.9-2-2 .9-2 2-2 2 .9 2 2m-8 0c0 1.1-.9 2-2 2s-2-.9-2-2 .9-2 2-2 2 .9 2 2"/>
  <path fill="none" stroke="#000" stroke-linecap="round" stroke-linejoin="round" stroke-width="2" d="M33 38.1c1.9 1 4.1 1 6 0m-10.2 3.4c-2.5-2.9-3.8-6.7-3.7-10.5.1-2.8.8-5.5 2.1-8 .5.9 1.4 1.5 2.4 1.6 1.3 0 2.5-.9 2.8-2.1 1.1 1.4 3 1.7 4.4.6.3-.2.5-.4.7-.7 1.5 1.8 4.1 2.1 5.9.6.4-.4.8-.8 1.1-1.3 1.6 2.9 2.5 6.1 2.7 9.4 0 8-5.1 14-11.1 14-2.8-.1-5.5-1.4-7.3-3.6z"/>
  <path fill="none" stroke="#000" stroke-linejoin="round" stroke-width="2" d="M44.6 39.6c1.3.5 2.7.3 3.7-.5.8-.6 1.3-1.5 1.5-2.5.9-.5 1.6-1.3 1.9-2.4.3-1.2 0-2.4-.7-3.4 1-1 1.5-2.3 1.3-3.7-.2-1.1-.8-2.1-1.6-2.7 1-1.2 1.3-2.8.7-4.3-.5-1-1.3-1.7-2.4-2.1.1-1.3-.4-2.6-1.5-3.3-1.3-.8-2.9-.7-4.1.3-.5-1.3-1.6-2.2-3-2.4-1.3-.1-2.5.4-3.3 1.4 0 0-3.2-3.5-7.1.1 0 0-4.7-3.1-6.1 2.6 0 0-5.4.8-2.6 6.2 0 0-2.9 3-.8 6.5 0 0-2.1 4.2 1.8 5.7-.1 1 .2 1.9.7 2.7.9 1.1 2.3 1.7 3.7 1.5"/>
</svg>
