<svg viewBox="0 0 72 72" xmlns="http://www.w3.org/2000/svg">
  <path fill="#b3b3b3" d="M68 4v64H4V4h64m4-4H0v72h72V0z"/>
  <path fill="none" stroke="#00a5ff" stroke-miterlimit="10" stroke-width="0.1" d="M12.923 10.958h46.154A1.923 1.923 0 0161 12.881v46.154a1.923 1.923 0 01-1.923 1.923H12.923A1.923 1.923 0 0111 59.035V12.881a1.923 1.923 0 011.923-1.923z"/>
  <rect x="16" y="4" rx="2.254" width="40" height="64" fill="none" stroke="#00a5ff" stroke-miterlimit="10" stroke-width="0.1"/>
  <rect x="16" y="4" rx="2.254" width="40" height="64" transform="rotate(90 36 36)" fill="none" stroke="#00a5ff" stroke-miterlimit="10" stroke-width="0.1"/>
  <circle cx="36" cy="36" r="29" fill="none" stroke="#00a5ff" stroke-miterlimit="10" stroke-width="0.1"/>
  <path fill="none" stroke="#fff" stroke-linecap="round" stroke-linejoin="round" stroke-miterlimit="10" stroke-width="6" d="M35 60v-7c0-7 4-10 8-10h12c4 0 8 3 8 10v7M9 60v-7c0-7 4-10 8-10h12c1.531 0 3.06.531 4.367 1.549M15 26c0 4 .876 6.314 2 8 1.432 2.148 3.706 3 6 3 2.38 0 4.566-.852 6-3 1.123-1.685 2-4 2-8 0-2.148-1.077-9-8-9s-8 5.419-8 9zm26 0c0 4 .876 6.314 2 8 1.432 2.148 3.706 3 6 3 2.38 0 4.566-.852 6-3 1.123-1.685 2-4 2-8 0-2.148-1.077-9-8-9s-8 5.419-8 9z"/>
  <path fill="#D0CFCE" d="M63 61v-8c0-7-4-10-8-10H43c-2.784 0-5.564.506-7 3.75-1.125-3.313-4.216-4.703-7-4.703-5 0-5 .953-12 .953-4 0-8 3-8 10v8m6-35c0 4 .876 6.314 2 8 1.432 2.148 3.706 3 6 3 2.38 0 4.566-.852 6-3 1.123-1.685 2-4 2-8 0-2.148-1.077-9-8-9s-8 5.419-8 9zm26 0c0 4 .876 6.314 2 8 1.432 2.148 3.706 3 6 3 2.38 0 4.566-.852 6-3 1.123-1.685 2-4 2-8 0-2.148-1.077-9-8-9s-8 5.419-8 9z"/>
  <g fill="none" stroke="#000" stroke-linejoin="round" stroke-width="2">
    <path stroke-linecap="round" d="M35 60v-7c0-7 4-10 8-10h12c4 0 8 3 8 10v7M9 60v-7c0-7 4-10 8-10h12c1.531 0 3.06.531 4.367 1.549"/>
    <path d="M15 26c0 4 .876 6.314 2 8 1.432 2.148 3.706 3 6 3 2.38 0 4.566-.852 6-3 1.123-1.685 2-4 2-8 0-2.148-1.077-9-8-9s-8 5.419-8 9zm26 0c0 4 .876 6.314 2 8 1.432 2.148 3.706 3 6 3 2.38 0 4.566-.852 6-3 1.123-1.685 2-4 2-8 0-2.148-1.077-9-8-9s-8 5.419-8 9z"/>
  </g>
</svg>
