<svg viewBox="0 0 72 72" xmlns="http://www.w3.org/2000/svg">
  <path fill="#b3b3b3" d="M68 4v64H4V4h64m4-4H0v72h72V0z"/>
  <path fill="none" stroke="#00a5ff" stroke-miterlimit="10" stroke-width="0.1" d="M12.923 10.958h46.154A1.923 1.923 0 0161 12.881v46.154a1.923 1.923 0 01-1.923 1.923H12.923A1.923 1.923 0 0111 59.035V12.881a1.923 1.923 0 011.923-1.923z"/>
  <rect x="16" y="4" rx="2.254" width="40" height="64" fill="none" stroke="#00a5ff" stroke-miterlimit="10" stroke-width="0.1"/>
  <rect x="16" y="4" rx="2.254" width="40" height="64" transform="rotate(90 36 36)" fill="none" stroke="#00a5ff" stroke-miterlimit="10" stroke-width="0.1"/>
  <circle cx="36" cy="36" r="29" fill="none" stroke="#00a5ff" stroke-miterlimit="10" stroke-width="0.1"/>
  <g fill="none" stroke="#fff" stroke-linecap="round" stroke-linejoin="round" stroke-miterlimit="10" stroke-width="6">
    <path d="M50.69 56.273c1.202 0 2.002-1.177 2.002-2.946 0 0-.552-10.183-.741-12.623s-2.335-3.934-5.714-3.934m2.287 17.174c.243 1.625 1.024 2.33 2.165 2.33m-24.023-9a5.524 5.524 0 105.595-5.452h0m3.475-18.632l-4.211-.53c-1.656-.198-2.778.05-3.246.994l-3.285 7.429a1.24 1.24 0 00-.106.501v7.283c0 1.517.726 2.17 1.684 2.17"/>
    <path d="M32.093 22.732c-1.656-.199-3.304.15-3.772 1.094l-3.284 7.428a1.242 1.242 0 00-.106.502v7.282c0 1.518.726 2.171 1.684 2.171m3.747-9.274h1.598a25.341 25.341 0 016.57 1.474"/>
    <circle cx="34.319" cy="16.028" r="3.543"/>
    <path d="M22.604 39.745a12.242 12.242 0 107.467-4.367m3.7-12.435c1.965.248 2.477 0 3.646 1.553a5.298 5.298 0 01.851 3.192 4.285 4.285 0 01-.851 2.51l.017 2.236m-7.266-19.44s-.578-.27-.925.018c-.408.337-.686 1.599-1.168 2.145a3.26 3.26 0 01-1.813 1.071"/>
  </g>
  <path fill="#d0cfce" d="M32.031 59.62a12.276 12.276 0 0012.434-12.116A12.276 12.276 0 1032.03 59.62"/>
  <path fill="#9b9b9a" d="M32.261 41.822a5.524 5.524 0 105.453 5.595 5.524 5.524 0 00-5.453-5.595z"/>
  <g fill="#fcea2b">
    <path d="M31.525 22.66c-1.656-.198-2.749.05-3.246.994l-2.369 4.394a6.734 6.734 0 00-1.021 4.164v6.655c0 1.517.726 2.17 1.684 2.17.995 0 1.612-.934 1.612-2.268v-6.95a.571.571 0 01.06-.252l1.051-2.128a.641.641 0 01.487-.294c.166 0 .276.156.276.35v1.87a.57.57 0 00.57.57h1.331"/>
    <path d="M30.8 31.483c0-1.968-.464-6.914-.464-8.478 0-.545.593-.096 3.778-.096 1.73 0 2.318.438 3.38 1.933a5.439 5.439 0 011.423 2.951 2.73 2.73 0 01-1.476 2.214l-.278 2.36zm.589-.785v2.214"/>
    <circle cx="34.319" cy="16.028" r="3.543"/>
    <path d="M46.237 36.77l2.287 17.174c.243 1.625 1.024 2.329 2.165 2.329"/>
    <path d="M50.69 56.273c1.202 0 2.002-1.177 2.002-2.946 0 0-.552-10.183-.741-12.623s-2.335-3.934-5.714-3.934"/>
  </g>
  <g>
    <g fill="none" stroke="#000" stroke-linecap="round" stroke-linejoin="round" stroke-width="2">
      <path d="M50.69 56.273c1.202 0 2.002-1.177 2.002-2.946 0 0-.552-10.183-.741-12.623s-2.335-3.934-5.714-3.934m2.287 17.174c.243 1.625 1.024 2.33 2.165 2.33m-24.023-9a5.524 5.524 0 105.595-5.452h0m3.475-18.632l-4.211-.53c-1.656-.198-2.778.05-3.246.994l-3.285 7.429a1.24 1.24 0 00-.106.501v7.283c0 1.517.726 2.17 1.684 2.17"/>
      <path d="M32.093 22.732c-1.656-.199-3.304.15-3.772 1.094l-3.284 7.428a1.242 1.242 0 00-.106.502v7.282c0 1.518.726 2.171 1.684 2.171m3.747-9.274h1.598a25.341 25.341 0 016.57 1.474"/>
      <circle cx="34.319" cy="16.028" r="3.543"/>
      <path d="M22.604 39.745a12.242 12.242 0 107.467-4.367m3.7-12.435c1.965.248 2.477 0 3.646 1.553a5.298 5.298 0 01.851 3.192 4.285 4.285 0 01-.851 2.51l.017 2.236m-7.266-19.44s-.578-.27-.925.018c-.408.337-.686 1.599-1.168 2.145a3.26 3.26 0 01-1.813 1.071"/>
    </g>
  </g>
</svg>
