<svg viewBox="0 0 72 72" xmlns="http://www.w3.org/2000/svg">
  <path fill="#B3B3B3" d="M68 4v64H4V4h64m4-4H0v72h72V0z"/>
  <path fill="none" stroke="#00A5FF" stroke-miterlimit="10" stroke-width="0.1" d="M12.923 10.958h46.154c1.062 0 1.923.861 1.923 1.923h0v46.154a1.923 1.923 0 01-1.923 1.923H12.923A1.923 1.923 0 0111 59.035h0V12.881c0-1.062.861-1.923 1.923-1.923h0z"/>
  <path fill="none" stroke="#00A5FF" stroke-miterlimit="10" stroke-width="0.1" d="M18.254 4h35.492A2.254 2.254 0 0156 6.254v59.492A2.254 2.254 0 0153.746 68H18.254A2.254 2.254 0 0116 65.746V6.254A2.254 2.254 0 0118.254 4z"/>
  <path fill="none" stroke="#00A5FF" stroke-miterlimit="10" stroke-width="0.1" d="M68 18.254v35.492A2.254 2.254 0 0165.746 56H6.254A2.254 2.254 0 014 53.746V18.254A2.254 2.254 0 016.254 16h59.492A2.254 2.254 0 0168 18.254z"/>
  <circle cx="36" cy="36" r="29" fill="none" stroke="#00A5FF" stroke-miterlimit="10" stroke-width="0.1"/>
  <g fill="none" stroke="#fff" stroke-linecap="round" stroke-linejoin="round" stroke-miterlimit="10" stroke-width="6">
    <path d="M30.747 53.669c.429.405 2.333 2.11 5.101 1.927 2.246-.148 3.752-1.452 4.251-1.927M22.57 42.348c1.992 3.7 5.344 5.712 7.486 4.494 2.142-1.217 2.263-5.204.27-8.904s-5.344-5.712-7.486-4.494-2.263 5.204-.27 8.904z"/>
    <path d="M35.943 63c-10 0-13.51-11.778-13.51-11.778s-7.275-5.889-7.275-18.844C15.158 17.417 25.55 10 35.943 10s20.784 7.417 20.784 22.378c0 12.955-7.07 18.38-7.275 18.844C45.295 60.644 40.322 63 35.942 63z"/>
    <path d="M49.032 42.348c-1.993 3.7-5.344 5.712-7.486 4.494-2.142-1.217-2.263-5.204-.27-8.904s5.344-5.712 7.485-4.494c2.142 1.217 2.263 5.204.27 8.904z"/>
  </g>
  <path fill="#D0CFCE" d="M56.727 32.378c0 5.478-1.672 11.05-4.2 15.913-.635 1.22-1.855 1.59-2.584 2.709-.608.932-.713 2.63-1.37 3.476C44.579 59.609 39.81 63 35.943 63c-3.827 0-8.535-3.319-12.502-8.36-.682-.867.131-2.68-.498-3.64-.532-.81-2.515-.755-2.999-1.621-2.852-5.11-4.786-11.11-4.786-17.001C15.158 17.417 25.55 10 35.943 10s20.784 7.417 20.784 22.378z"/>
  <path fill="#9B9B9A" d="M36.943 63c6-5 11.926-48.054 12-49 2.216 3.118 7.027 9.872 7.651 13.979 1.165 7.656-1.995 13.811-5 20.481C45.942 61 36.942 63 36.942 63"/>
  <path fill="#3F3F3F" d="M22.57 42.348c1.992 3.7 5.344 5.712 7.486 4.494 2.142-1.217 2.263-5.204.27-8.904s-5.344-5.712-7.486-4.494-2.263 5.204-.27 8.904zm26.462 0c-1.993 3.7-5.344 5.712-7.486 4.494-2.142-1.217-2.263-5.204-.27-8.904s5.344-5.712 7.485-4.494c2.142 1.217 2.263 5.204.27 8.904z"/>
  <g fill="none" stroke="#000" stroke-miterlimit="10" stroke-width="2">
    <path stroke-linecap="round" stroke-linejoin="round" d="M30.747 53.669c.429.405 2.333 2.11 5.101 1.927 2.246-.148 3.752-1.452 4.251-1.927"/>
    <path d="M22.57 42.348c1.992 3.7 5.344 5.712 7.486 4.494 2.142-1.217 2.263-5.204.27-8.904s-5.344-5.712-7.486-4.494-2.263 5.204-.27 8.904z"/>
    <path stroke-linecap="round" stroke-linejoin="round" d="M35.943 63c-10 0-13.51-11.778-13.51-11.778s-7.275-5.889-7.275-18.844C15.158 17.417 25.55 10 35.943 10s20.784 7.417 20.784 22.378c0 12.955-7.07 18.38-7.275 18.844C45.295 60.644 40.322 63 35.942 63z"/>
    <path d="M49.032 42.348c-1.993 3.7-5.344 5.712-7.486 4.494-2.142-1.217-2.263-5.204-.27-8.904s5.344-5.712 7.485-4.494c2.142 1.217 2.263 5.204.27 8.904z"/>
  </g>
</svg>
