<svg viewBox="0 0 72 72" xmlns="http://www.w3.org/2000/svg">
  <path fill="#B3B3B3" d="M68 4v64H4V4h64m4-4H0v72h72V0z"/>
  <path fill="none" stroke="#00A5FF" stroke-miterlimit="10" stroke-width="0.1" d="M12.923 10.958h46.154c1.062 0 1.923.861 1.923 1.923v46.154a1.923 1.923 0 01-1.923 1.923H12.923A1.923 1.923 0 0111 59.035h0V12.881c0-1.062.861-1.923 1.923-1.923h0z"/>
  <path fill="none" stroke="#00A5FF" stroke-miterlimit="10" stroke-width="0.1" d="M18.254 4h35.492A2.254 2.254 0 0156 6.254v59.492A2.254 2.254 0 0153.746 68H18.254A2.254 2.254 0 0116 65.746V6.254A2.254 2.254 0 0118.254 4z"/>
  <path fill="none" stroke="#00A5FF" stroke-miterlimit="10" stroke-width="0.1" d="M68 18.254v35.492A2.254 2.254 0 0165.746 56H6.254A2.254 2.254 0 014 53.746V18.254A2.254 2.254 0 016.254 16h59.492A2.254 2.254 0 0168 18.254z"/>
  <circle cx="36" cy="36" r="29" fill="none" stroke="#00A5FF" stroke-miterlimit="10" stroke-width="0.1"/>
  <path fill="#B3B3B3" d="M68 4v64H4V4h64m4-4H0v72h72V0z"/>
  <path fill="none" stroke="#00A5FF" stroke-miterlimit="10" stroke-width="0.1" d="M12.923 11.958h46.154c1.062 0 1.923.861 1.923 1.923v46.154a1.923 1.923 0 01-1.923 1.923H12.923A1.923 1.923 0 0111 60.035V13.881c0-1.062.861-1.923 1.923-1.923z"/>
  <path fill="none" stroke="#00A5FF" stroke-miterlimit="10" stroke-width="0.1" d="M18.254 4h35.492A2.254 2.254 0 0156 6.254v59.492A2.254 2.254 0 0153.746 68H18.254A2.254 2.254 0 0116 65.746V6.254A2.254 2.254 0 0118.254 4z"/>
  <path fill="none" stroke="#00A5FF" stroke-miterlimit="10" stroke-width="0.1" d="M68 18.254v35.492A2.254 2.254 0 0165.746 56H6.254A2.254 2.254 0 014 53.746V18.254A2.254 2.254 0 016.254 16h59.492A2.254 2.254 0 0168 18.254z"/>
  <circle cx="36" cy="36" r="29" fill="none" stroke="#00A5FF" stroke-miterlimit="10" stroke-width="0.1"/>
  <g fill="none" stroke="#fff" stroke-linecap="round" stroke-linejoin="round" stroke-miterlimit="10" stroke-width="6">
    <path d="M15.5 42V11h41v21.201m-.082 11.649c-1.023 11.278-10.993 19.59-22.269 18.567C23.59 61.458 15.501 52.604 15.5 42m28.313 8.541a20.571 20.571 0 00-15.627 0"/>
    <path d="M33.63 28.925a3 3 0 11-3-3h0c1.656 0 3 1.344 3 3m12 0a3 3 0 11-3-3h0a3 3 0 013 3M25.313 17l7 6m15-6l-7 6m15.058 12H39.254m21.059 0H55.43m1.07 6h4.813s4 0 4-3a2.938 2.938 0 00-3-3h-2m-24 6H56.5m-20.187 4s4-3 8 0a6.422 6.422 0 002.615 1.264m-11-1.264s-4-3-8 0a6.422 6.422 0 01-2.615 1.264"/>
  </g>
  <path fill="#EA5A47" stroke="#EA5A47" stroke-miterlimit="10" d="M15.313 11h41v34l-1 5-3 4-3 4-3 2-4 2h-6l-7-1-5-2-3-3-3-4-2-3-1-6z"/>
  <path fill="#FFF" stroke="#FFF" stroke-linecap="round" stroke-linejoin="round" d="M23.298 23.865l.454-.558a3.537 3.537 0 014.976-.507l4.594 3.745a3.537 3.537 0 01.506 4.976l-.454.557a3.537 3.537 0 01-4.976.507l-4.594-3.744a3.537 3.537 0 01-.506-4.976zm16.454 8.213l-.454-.557a3.537 3.537 0 01.506-4.976l4.594-3.745a3.537 3.537 0 014.976.507l.454.558a3.537 3.537 0 01-.506 4.976l-4.594 3.744a3.537 3.537 0 01-4.976-.507z"/>
  <g fill="#D22F27">
    <path d="M36.313 41l10-6h16.999l1 1 1 1v3l-2 1h-15z"/>
    <path d="M38.867 35h8.892a2.554 2.554 0 012.554 2.554v.892A2.554 2.554 0 0147.759 41h-8.892a2.554 2.554 0 01-2.554-2.554v-.892A2.554 2.554 0 0138.867 35z"/>
  </g>
  <g>
    <path fill="none" stroke="#000" stroke-linecap="round" stroke-linejoin="round" stroke-width="2" d="M15.5 42V11h41v21.201"/>
    <path fill="none" stroke="#000" stroke-linecap="round" stroke-miterlimit="10" stroke-width="2" d="M56.418 43.85c-1.023 11.278-10.993 19.59-22.269 18.567C23.59 61.458 15.501 52.604 15.5 42m28.313 8.541a20.571 20.571 0 00-15.627 0"/>
    <path d="M33.63 28.925a3 3 0 11-3-3c1.656 0 3 1.344 3 3m12 0a3 3 0 11-3-3 3 3 0 013 3"/>
    <path fill="none" stroke="#000" stroke-linecap="round" stroke-linejoin="round" stroke-width="2" d="M25.313 17l7 6m15-6l-7 6m15.058 12H39.254m21.059 0H55.43m1.07 6h4.813s4 0 4-3a2.938 2.938 0 00-3-3h-2m-24 6H56.5m-20.187 4s4-3 8 0a6.422 6.422 0 002.615 1.264m-11-1.264s-4-3-8 0a6.422 6.422 0 01-2.615 1.264"/>
  </g>
</svg>
