<svg viewBox="0 0 72 72" xmlns="http://www.w3.org/2000/svg">
  <path fill="#b3b3b3" d="M68 4v64H4V4h64m4-4H0v72h72V0z"/>
  <path fill="none" stroke="#00a5ff" stroke-miterlimit="10" stroke-width="0.1" d="M12.923 10.958h46.154A1.923 1.923 0 0161 12.881v46.154a1.923 1.923 0 01-1.923 1.923H12.923A1.923 1.923 0 0111 59.035V12.881a1.923 1.923 0 011.923-1.923z"/>
  <rect x="16" y="4" rx="2.254" width="40" height="64" fill="none" stroke="#00a5ff" stroke-miterlimit="10" stroke-width="0.1"/>
  <rect x="16" y="4" rx="2.254" width="40" height="64" transform="rotate(90 36 36)" fill="none" stroke="#00a5ff" stroke-miterlimit="10" stroke-width="0.1"/>
  <circle cx="36" cy="36" r="29" fill="none" stroke="#00a5ff" stroke-miterlimit="10" stroke-width="0.1"/>
  <g fill="none" stroke="#fff" stroke-linecap="round" stroke-linejoin="round" stroke-miterlimit="10" stroke-width="6">
    <rect x="15.325" y="40.826" rx="1.949" width="3.898" height="4.931"/>
    <rect x="20.643" y="37.339" rx="1.949" width="3.898" height="4.931"/>
    <rect x="25.805" y="39.222" rx="1.949" width="3.898" height="4.931"/>
    <rect x="31.104" y="46.795" rx="1.949" width="3.898" height="4.931"/>
    <path d="M20.191 56.532l-.213-13.461a2.717 2.717 0 00-2.655-2.573 2.495 2.495 0 00-2.569 2.568l.058 16.625m15.77-2.896l-.17-15.172s-.254-2.584-2.548-2.583c-2.3 0-2.7 2.587-2.7 2.587m10.602 18.064l-.138-10.939a2.443 2.443 0 00-2.5-2.108 2.558 2.558 0 00-2.636 2.11"/>
    <path d="M25.249 55.233l-.137-16.085a2.443 2.443 0 00-2.499-2.108 2.558 2.558 0 00-2.637 2.11l.028 5.6M39 36.562l6.418-9.655m-9.336 16.625s1.87-1.39 2.44-1.915A3.975 3.975 0 0040 38.167a1.82 1.82 0 00-2.07-1.514m5.222-11.245l9.664-14.395 5.214 2.753-9.829 14.981-2.783-1.84-2.266-1.499z"/>
  </g>
  <g fill="none" stroke="#000" stroke-miterlimit="10" stroke-width="1.8">
    <rect x="15.325" y="40.826" rx="1.949" width="3.898" height="4.931"/>
    <rect x="20.643" y="37.339" rx="1.949" width="3.898" height="4.931"/>
    <rect x="25.805" y="39.222" rx="1.949" width="3.898" height="4.931"/>
    <rect x="31.104" y="46.795" rx="1.949" width="3.898" height="4.931"/>
  </g>
  <g fill="#ea5a47">
    <path d="M43.152 25.408l9.664-14.395 5.214 2.753-9.829 14.981-2.783-1.84-2.266-1.499zm-5.098 10.279c-1.216-.281-4.112 2.177-3.223 4.243.737 1.715.87 1.61.414 3.079l3.277-1.392s1.813-1.892 1.477-3.45c-.155-.72-1.041-2.271-1.945-2.48z"/>
    <rect x="15.325" y="40.826" rx="1.949" width="3.898" height="4.931"/>
    <rect x="20.643" y="37.339" rx="1.949" width="3.898" height="4.931"/>
    <rect x="25.805" y="39.222" rx="1.949" width="3.898" height="4.931"/>
    <rect x="31.104" y="46.795" rx="1.949" width="3.898" height="4.931"/>
  </g>
  <g fill="#fcea2b">
    <path d="M35.554 49.012a2.511 2.511 0 00-1.41-1.89 2.172 2.172 0 01.29.24 1.986 1.986 0 01.57 1.38v1.03a1.95 1.95 0 01-3.9 0v-1.03a1.967 1.967 0 01.98-1.69 2.592 2.592 0 00-1.67 1.96l-.08-7.13a3.04 3.04 0 00-1.63-2.41 1.925 1.925 0 01.43.32 1.968 1.968 0 01.57 1.38v1.03a1.95 1.95 0 11-3.9 0v-1.03a1.983 1.983 0 01.82-1.59 3.385 3.385 0 00-1.53 2.31l-.03.01-.03-2.49a2.431 2.431 0 00-2.49-2.11 2.556 2.556 0 00-2.64 2.11l.02 3.92h-.02a2.714 2.714 0 00-2.65-2.57 2.49 2.49 0 00-2.57 2.57l.06 17.32h20.96zm-16.33-5.2a1.95 1.95 0 01-3.9 0v-1.04a1.95 1.95 0 113.9 0zm5.32-3.49a1.95 1.95 0 11-3.9 0v-1.03a1.95 1.95 0 113.9 0z"/>
    <path d="M35.554 49.012a2.511 2.511 0 00-1.41-1.89 2.172 2.172 0 01.29.24 1.986 1.986 0 01.57 1.38v1.03a1.95 1.95 0 01-3.9 0v-1.03a1.967 1.967 0 01.98-1.69 2.592 2.592 0 00-1.67 1.96l-.08-7.13a3.04 3.04 0 00-1.63-2.41 1.925 1.925 0 01.43.32 1.968 1.968 0 01.57 1.38v1.03a1.95 1.95 0 11-3.9 0v-1.03a1.983 1.983 0 01.82-1.59 3.385 3.385 0 00-1.53 2.31l-.03.01-.03-2.49a2.431 2.431 0 00-2.49-2.11 2.556 2.556 0 00-2.64 2.11l.02 3.92h-.02a2.714 2.714 0 00-2.65-2.57 2.49 2.49 0 00-2.57 2.57l.06 17.32h20.96zm-16.33-5.2a1.95 1.95 0 01-3.9 0v-1.04a1.95 1.95 0 113.9 0zm5.32-3.49a1.95 1.95 0 11-3.9 0v-1.03a1.95 1.95 0 113.9 0z"/>
  </g>
  <g fill="none" stroke="#000" stroke-linecap="round" stroke-linejoin="round" stroke-width="2">
    <path d="M20.191 56.532l-.213-13.461a2.717 2.717 0 00-2.655-2.573 2.495 2.495 0 00-2.569 2.568l.058 16.625m15.77-2.896l-.17-15.172s-.254-2.584-2.548-2.583c-2.3 0-2.7 2.587-2.7 2.587m10.602 18.064l-.138-10.939a2.443 2.443 0 00-2.5-2.108 2.558 2.558 0 00-2.636 2.11"/>
    <path d="M25.249 55.233l-.137-16.085a2.443 2.443 0 00-2.499-2.108 2.558 2.558 0 00-2.637 2.11l.028 5.6M39 36.562l6.418-9.655m-9.336 16.625s1.87-1.39 2.44-1.915A3.975 3.975 0 0040 38.167a1.82 1.82 0 00-2.07-1.514m5.222-11.245l9.664-14.395 5.214 2.753-9.829 14.981-2.783-1.84-2.266-1.499z"/>
  </g>
</svg>
