<svg viewBox="0 0 72 72" xmlns="http://www.w3.org/2000/svg">
  <path fill="#B3B3B3" d="M68 4v64H4V4h64m4-4H0v72h72V0z"/>
  <path fill="none" stroke="#00A5FF" stroke-miterlimit="10" stroke-width="0.1" d="M12.923 10.958h46.154c1.062 0 1.923.861 1.923 1.923v46.154a1.923 1.923 0 01-1.923 1.923H12.923A1.923 1.923 0 0111 59.035h0V12.881c0-1.062.861-1.923 1.923-1.923h0z"/>
  <path fill="none" stroke="#00A5FF" stroke-miterlimit="10" stroke-width="0.1" d="M18.254 4h35.492A2.254 2.254 0 0156 6.254v59.492A2.254 2.254 0 0153.746 68H18.254A2.254 2.254 0 0116 65.746V6.254A2.254 2.254 0 0118.254 4z"/>
  <path fill="none" stroke="#00A5FF" stroke-miterlimit="10" stroke-width="0.1" d="M68 18.254v35.492A2.254 2.254 0 0165.746 56H6.254A2.254 2.254 0 014 53.746V18.254A2.254 2.254 0 016.254 16h59.492A2.254 2.254 0 0168 18.254z"/>
  <circle cx="36" cy="36" r="29" fill="none" stroke="#00A5FF" stroke-miterlimit="10" stroke-width="0.1"/>
  <g fill="none" stroke="#fff" stroke-linecap="round" stroke-linejoin="round" stroke-miterlimit="10" stroke-width="6">
    <path d="M49.566 15.61c-4.322 0-8.187 2.36-10.189 6.18L36 29.679l7 6.017-6 8.424L42 51l-3.585 9.162 20.462-26.237a11.425 11.425 0 002.213-6.793c0-6.354-5.17-11.523-11.524-11.523z"/>
    <path d="M37.1 50.984l-5.054-6.961 5.939-8.046-7.046-5.946s1.622-7.549 1.455-7.894c-1.944-4.026-5.918-6.528-10.371-6.528-6.354 0-11.523 5.17-11.523 11.523 0 2.116.578 4.185 1.672 5.981l.66.974 20.462 26.23.35-.45 3.455-8.883z"/>
  </g>
  <g fill="#EA5A47">
    <path d="M49.566 15.61c-4.322 0-8.187 2.36-10.189 6.18L36 29.679l7 6.017-6 8.424L42 51l-3.585 9.162 20.462-26.237a11.425 11.425 0 002.213-6.793c0-6.354-5.17-11.523-11.524-11.523z"/>
    <path d="M37.1 50.984l-5.054-6.961 5.939-8.046-7.046-5.946s1.622-7.549 1.455-7.894c-1.944-4.026-5.918-6.528-10.371-6.528-6.354 0-11.523 5.17-11.523 11.523 0 2.116.578 4.185 1.672 5.981l.66.974 20.462 26.23.35-.45 3.455-8.883z"/>
  </g>
  <g fill="none" stroke="#000" stroke-miterlimit="10" stroke-width="2">
    <path stroke-linecap="round" stroke-linejoin="round" d="M49.566 15.61c-4.322 0-8.187 2.36-10.189 6.18L36 29.679l7 6.017-6 8.424L42 51l-3.585 9.162 20.462-26.237a11.425 11.425 0 002.213-6.793c0-6.354-5.17-11.523-11.524-11.523z"/>
    <path d="M37.1 50.984l-5.054-6.961 5.939-8.046-7.046-5.946s1.622-7.549 1.455-7.894c-1.944-4.026-5.918-6.528-10.371-6.528-6.354 0-11.523 5.17-11.523 11.523 0 2.116.578 4.185 1.672 5.981l.66.974 20.462 26.23.35-.45 3.455-8.883z"/>
  </g>
</svg>
