<svg viewBox="0 0 72 72" xmlns="http://www.w3.org/2000/svg">
  <path fill="#b3b3b3" d="M68 4v64H4V4h64m4-4H0v72h72V0z"/>
  <path fill="none" stroke="#00a5ff" stroke-miterlimit="10" stroke-width="0.1" d="M12.923 10.958h46.154A1.923 1.923 0 0161 12.881v46.154a1.923 1.923 0 01-1.923 1.923H12.923A1.923 1.923 0 0111 59.035V12.881a1.923 1.923 0 011.923-1.923z"/>
  <rect x="16" y="4" rx="2.254" width="40" height="64" fill="none" stroke="#00a5ff" stroke-miterlimit="10" stroke-width="0.1"/>
  <rect x="16" y="4" rx="2.254" width="40" height="64" transform="rotate(90 36 36)" fill="none" stroke="#00a5ff" stroke-miterlimit="10" stroke-width="0.1"/>
  <circle cx="36" cy="36" r="29" fill="none" stroke="#00a5ff" stroke-miterlimit="10" stroke-width="0.1"/>
  <g fill="none" stroke="#fff" stroke-linecap="round" stroke-linejoin="round" stroke-miterlimit="10" stroke-width="6">
    <path d="M53 41.495v24.508c0 .55-.4.997-.895.997h-32.21c-.494 0-.895-.446-.895-.997V41.495c0-.29.113-.565.31-.755l16.105-15.498a.827.827 0 011.17 0L52.69 40.74c.197.19.31.465.31.755z"/>
    <path d="M43 27v-8.565l-6.382-5.216a.981.981 0 00-1.236 0L29 18.435V27m7-14V5m-3.5 3h7M41 58.943c0-3.85-3.348-6.126-4.565-6.825a.86.86 0 00-.87 0c-1.217.7-4.565 2.974-4.565 6.825v7.09c0 .534.41.967.914.967h8.172c.505 0 .914-.433.914-.968v-7.089zm-5-13.118l-4.87-6.244-.156-.232A2.863 2.863 0 1136 36.621a2.863 2.863 0 114.888 2.936L36 45.825z"/>
  </g>
  <path fill="#D0CFCE" d="M44 34V19.435l-7.294-5.216a1.248 1.248 0 00-1.412 0L28 19.435V34"/>
  <path fill="#FFF" d="M53 41.495v24.508c0 .55-.4.997-.895.997h-32.21c-.494 0-.895-.446-.895-.997V41.495c0-.29.113-.565.31-.755l16.105-15.498a.827.827 0 011.17 0L52.69 40.74c.197.19.31.465.31.755z"/>
  <path fill="#A57939" d="M41 58.943c0-3.85-3.348-6.126-4.565-6.825a.86.86 0 00-.87 0c-1.217.7-4.565 2.974-4.565 6.825v7.09c0 .534.41.967.914.967h8.172c.505 0 .914-.433.914-.968v-7.089z"/>
  <path fill="#EA5A47" d="M36 45.825l-4.87-6.244-.156-.232A2.863 2.863 0 1136 36.621a2.863 2.863 0 114.888 2.936L36 45.825z"/>
  <g fill="none" stroke="#000" stroke-linecap="round" stroke-width="2">
    <path stroke-linejoin="round" stroke-miterlimit="10" d="M53 41.495v24.508c0 .55-.4.997-.895.997h-32.21c-.494 0-.895-.446-.895-.997V41.495c0-.29.113-.565.31-.755l16.105-15.498a.827.827 0 011.17 0L52.69 40.74c.197.19.31.465.31.755z"/>
    <path stroke-linejoin="round" stroke-miterlimit="10" d="M43 27v-8.565l-6.382-5.216a.981.981 0 00-1.236 0L29 18.435V27"/>
    <path stroke-miterlimit="10" d="M36 13V5m-3.5 3h7M41 58.943c0-3.85-3.348-6.126-4.565-6.825a.86.86 0 00-.87 0c-1.217.7-4.565 2.974-4.565 6.825v7.09c0 .534.41.967.914.967h8.172c.505 0 .914-.433.914-.968v-7.089z"/>
    <path stroke-linejoin="round" d="M36 45.825l-4.87-6.244-.156-.232A2.863 2.863 0 1136 36.621a2.863 2.863 0 114.888 2.936L36 45.825z"/>
  </g>
</svg>
