<svg viewBox="0 0 72 72" xmlns="http://www.w3.org/2000/svg">
  <path fill="#b3b3b3" d="M68 4v64H4V4h64m4-4H0v72h72V0z"/>
  <path fill="none" stroke="#00a5ff" stroke-miterlimit="10" stroke-width="0.1" d="M12.923 10.958h46.154A1.923 1.923 0 0161 12.881v46.154a1.923 1.923 0 01-1.923 1.923H12.923A1.923 1.923 0 0111 59.035V12.881a1.923 1.923 0 011.923-1.923z"/>
  <rect x="16" y="4" rx="2.254" width="40" height="64" fill="none" stroke="#00a5ff" stroke-miterlimit="10" stroke-width="0.1"/>
  <rect x="16" y="4" rx="2.254" width="40" height="64" transform="rotate(90 36 36)" fill="none" stroke="#00a5ff" stroke-miterlimit="10" stroke-width="0.1"/>
  <circle cx="36" cy="36" r="29" fill="none" stroke="#00a5ff" stroke-miterlimit="10" stroke-width="0.1"/>
  <path fill="none" stroke="#fff" stroke-linecap="round" stroke-linejoin="round" stroke-miterlimit="10" stroke-width="6" d="M18.316 32.405v-8.25l5.5-11-5.5 11-5.5-11m.279 10.589H23.46m10.631 5.881l-8.675 20.614-6.996-2.984-7.462 11.753 3.078 2.052 5.597-9.048 4.384 1.679 3.358 1.399 8.686-20.56 10.716 6.009 13.525-27.15-2.798-1.865-12.593 24.351-10.82-6.25z"/>
  <path fill="#b1cc33" d="M34.091 29.625l-8.675 20.614-6.996-2.984-7.462 11.753 3.078 2.052 5.597-9.048 4.384 1.679 3.358 1.399 8.686-20.56 10.716 6.009 13.525-27.15-2.798-1.865-12.593 24.351-10.82-6.25z"/>
  <path fill="none" stroke="#000" stroke-linecap="round" stroke-linejoin="round" stroke-width="2" d="M18.316 32.405v-8.25l5.5-11-5.5 11-5.5-11m.279 10.589H23.46m10.631 5.881l-8.675 20.614-6.996-2.984-7.462 11.753 3.078 2.052 5.597-9.048 4.384 1.679 3.358 1.399 8.686-20.56 10.716 6.009 13.525-27.15-2.798-1.865-12.593 24.351-10.82-6.25z"/>
</svg>
