<svg viewBox="0 0 72 72" xmlns="http://www.w3.org/2000/svg">
  <path fill="#b3b3b3" d="M68 4v64H4V4h64m4-4H0v72h72V0z"/>
  <path fill="none" stroke="#00a5ff" stroke-miterlimit="10" stroke-width="0.1" d="M12.923 10.958h46.154A1.923 1.923 0 0161 12.881v46.154a1.923 1.923 0 01-1.923 1.923H12.923A1.923 1.923 0 0111 59.035V12.881a1.923 1.923 0 011.923-1.923z"/>
  <rect x="16" y="4" rx="2.254" width="40" height="64" fill="none" stroke="#00a5ff" stroke-miterlimit="10" stroke-width="0.1"/>
  <rect x="16" y="4" rx="2.254" width="40" height="64" transform="rotate(90 36 36)" fill="none" stroke="#00a5ff" stroke-miterlimit="10" stroke-width="0.1"/>
  <circle cx="36" cy="36" r="29" fill="none" stroke="#00a5ff" stroke-miterlimit="10" stroke-width="0.1"/>
  <g fill="none" stroke="#fff" stroke-linecap="round" stroke-linejoin="round" stroke-miterlimit="10" stroke-width="6">
    <path d="M59.959 52.794H12.04a1 1 0 01-1-1V22.247a1 1 0 011-1h47.92a1 1 0 011 1v29.547a1 1 0 01-1 1z"/>
    <path d="M60 31H12a1 1 0 01-1-1v-2.8a1 1 0 011-1h48a1 1 0 011 1V30a1 1 0 01-1 1zM20.998 47.8h-1.947a3.035 3.035 0 01-3.026-3.026v-1.948A3.035 3.035 0 0119.05 39.8h1.947a3.035 3.035 0 013.027 3.026v1.948a3.035 3.035 0 01-3.027 3.026z"/>
  </g>
  <path fill="#92D3F5" d="M59.959 52.794H12.04a1 1 0 01-1-1V22.247a1 1 0 011-1h47.92a1 1 0 011 1v29.547a1 1 0 01-1 1z"/>
  <path fill="#3F3F3F" d="M60 31H12a1 1 0 01-1-1v-2.8a1 1 0 011-1h48a1 1 0 011 1V30a1 1 0 01-1 1z"/>
  <path fill="#FCEA2B" d="M20.998 47.8h-1.947a3.035 3.035 0 01-3.026-3.026v-1.948A3.035 3.035 0 0119.05 39.8h1.947a3.035 3.035 0 013.027 3.026v1.948a3.035 3.035 0 01-3.027 3.026z"/>
  <g fill="none" stroke="#000" stroke-miterlimit="10" stroke-width="2">
    <path d="M59.959 52.794H12.04a1 1 0 01-1-1V22.247a1 1 0 011-1h47.92a1 1 0 011 1v29.547a1 1 0 01-1 1z"/>
    <path d="M60 31H12a1 1 0 01-1-1v-2.8a1 1 0 011-1h48a1 1 0 011 1V30a1 1 0 01-1 1z"/>
    <path stroke-linecap="round" stroke-linejoin="round" d="M20.998 47.8h-1.947a3.035 3.035 0 01-3.026-3.026v-1.948A3.035 3.035 0 0119.05 39.8h1.947a3.035 3.035 0 013.027 3.026v1.948a3.035 3.035 0 01-3.027 3.026z"/>
  </g>
</svg>
