<svg viewBox="0 0 72 72" xmlns="http://www.w3.org/2000/svg">
  <path fill="#b3b3b3" d="M68 4v64H4V4h64m4-4H0v72h72V0z"/>
  <path fill="none" stroke="#00a5ff" stroke-miterlimit="10" stroke-width="0.1" d="M12.923 10.958h46.154A1.923 1.923 0 0161 12.881v46.154a1.923 1.923 0 01-1.923 1.923H12.923A1.923 1.923 0 0111 59.035V12.881a1.923 1.923 0 011.923-1.923z"/>
  <rect x="16" y="4" rx="2.254" width="40" height="64" fill="none" stroke="#00a5ff" stroke-miterlimit="10" stroke-width="0.1"/>
  <rect x="16" y="4" rx="2.254" width="40" height="64" transform="rotate(90 36 36)" fill="none" stroke="#00a5ff" stroke-miterlimit="10" stroke-width="0.1"/>
  <circle cx="36" cy="36" r="29" fill="none" stroke="#00a5ff" stroke-miterlimit="10" stroke-width="0.1"/>
  <g fill="none" stroke="#fff" stroke-linecap="round" stroke-linejoin="round" stroke-miterlimit="10" stroke-width="6">
    <path d="M56 48.821V10.958H16v30.153"/>
    <path d="M47.972 38.15l-34.133 7.502.814 10.79 31.19-4.165 3.272-.437L53 51.321zM20.622 16H36m-15.378 5.328H51.66M20.622 32.221H51.66m-31.038 5.406h12.771M20.622 26.814H51.66M56 48.321a3 3 0 01-3 3"/>
  </g>
  <path fill="#9B9B9A" d="M56 48.821V10.958H15.037v41.307l39.427-1.348"/>
  <path fill="#9B9B9A" d="M56 48.821V10.958H16v30.153"/>
  <path fill="#D0CFCE" d="M47.972 38.15l-34.133 7.502.814 10.79 31.19-4.165 3.272-.437L53 51.321z"/>
  <g fill="none" stroke="#000" stroke-linecap="round" stroke-linejoin="round" stroke-miterlimit="10" stroke-width="2">
    <path d="M56 48.821V10.958H16v30.153"/>
    <path d="M47.972 38.15l-34.133 7.502.814 10.79 31.19-4.165 3.272-.437L53 51.321zM20.622 16H36m-15.378 5.328H51.66M20.622 32.221H51.66m-31.038 5.406h12.771M20.622 26.814H51.66M56 48.321a3 3 0 01-3 3"/>
  </g>
</svg>
