<svg viewBox="0 0 72 72" xmlns="http://www.w3.org/2000/svg">
  <path fill="#b3b3b3" d="M68 4v64H4V4h64m4-4H0v72h72V0z"/>
  <path fill="none" stroke="#00a5ff" stroke-miterlimit="10" stroke-width="0.1" d="M12.923 10.958h46.154A1.923 1.923 0 0161 12.881v46.154a1.923 1.923 0 01-1.923 1.923H12.923A1.923 1.923 0 0111 59.035V12.881a1.923 1.923 0 011.923-1.923z"/>
  <rect x="16" y="4" rx="2.254" width="40" height="64" fill="none" stroke="#00a5ff" stroke-miterlimit="10" stroke-width="0.1"/>
  <rect x="16" y="4" rx="2.254" width="40" height="64" transform="rotate(90 36 36)" fill="none" stroke="#00a5ff" stroke-miterlimit="10" stroke-width="0.1"/>
  <circle cx="36" cy="36" r="29" fill="none" stroke="#00a5ff" stroke-miterlimit="10" stroke-width="0.1"/>
  <g fill="none" stroke="#fff" stroke-linecap="round" stroke-linejoin="round" stroke-miterlimit="10" stroke-width="6">
    <path d="M18.03 59.01V37.6h8v21.41m19.94 0V44.39h8v14.62M12.75 31.28h15.74m15.02 9.54h15.94m-1.97 9.55h1.69"/>
    <path d="M12.05 12.05h47.9v47.9h-47.9z"/>
    <path d="M32 59.01V21.73h8v37.28M12.39 40.82h2.13m-2.13 9.55h2.13m28.99-19.09h15.94m-15.94-9.54h15.94m-46.7 0h15.74"/>
  </g>
  <path fill="#fff" d="M12.05 12.05h47.9v47.9h-47.9z"/>
  <path fill="#b1cc33" d="M18.32 37.6h8v21.41h-8z"/>
  <path fill="#92d3f5" d="M46.25 44.38h8V59h-8z"/>
  <path fill="#d22f27" d="M32.28 21.69h8v37.32h-8z"/>
  <g fill="none" stroke="#000" stroke-linecap="round" stroke-linejoin="round" stroke-miterlimit="10" stroke-width="2">
    <path d="M18.03 59.01V37.6h8v21.41m19.94 0V44.39h8v14.62M12.75 31.28h15.74m15.02 9.54h15.94m-1.97 9.55h1.69"/>
    <path d="M12.05 12.05h47.9v47.9h-47.9z"/>
    <path d="M32 59.01V21.73h8v37.28M12.39 40.82h2.13m-2.13 9.55h2.13m28.99-19.09h15.94m-15.94-9.54h15.94m-46.7 0h15.74"/>
  </g>
</svg>
