<svg viewBox="0 0 72 72" xmlns="http://www.w3.org/2000/svg">
  <path fill="#b3b3b3" d="M68 4v64H4V4h64m4-4H0v72h72V0z"/>
  <path fill="none" stroke="#00a5ff" stroke-miterlimit="10" stroke-width="0.1" d="M12.923 10.958h46.154A1.923 1.923 0 0161 12.881v46.154a1.923 1.923 0 01-1.923 1.923H12.923A1.923 1.923 0 0111 59.035V12.881a1.923 1.923 0 011.923-1.923z"/>
  <rect x="16" y="4" rx="2.254" width="40" height="64" fill="none" stroke="#00a5ff" stroke-miterlimit="10" stroke-width="0.1"/>
  <rect x="16" y="4" rx="2.254" width="40" height="64" transform="rotate(90 36 36)" fill="none" stroke="#00a5ff" stroke-miterlimit="10" stroke-width="0.1"/>
  <circle cx="36" cy="36" r="29" fill="none" stroke="#00a5ff" stroke-miterlimit="10" stroke-width="0.1"/>
  <g fill="none" stroke="#fff" stroke-linecap="round" stroke-linejoin="round" stroke-miterlimit="10" stroke-width="6">
    <path d="M11 17l4.998-5h43.004c.551 0 .998.447.998.998v43.004a.998.998 0 01-.998.998"/>
    <path d="M55.002 61H11.998a.998.998 0 01-.998-.998V16.998c0-.551.447-.998.998-.998h43.004c.551 0 .998.447.998.998v43.004a.998.998 0 01-.998.998z"/>
  </g>
  <path fill="#FFF" d="M12 58l47.847-.15v-45.7H15.669L12 16z"/>
  <path fill="#d22f27" d="M55.002 61H11.998a.998.998 0 01-.998-.998V16.998c0-.551.447-.998.998-.998h43.004c.551 0 .998.447.998.998v43.004a.998.998 0 01-.998.998z"/>
  <g fill="none" stroke="#000" stroke-linecap="round" stroke-linejoin="round" stroke-miterlimit="10" stroke-width="2">
    <path d="M11 17l4.998-5h43.004c.551 0 .998.447.998.998v43.004a.998.998 0 01-.998.998"/>
    <path d="M55.002 61H11.998a.998.998 0 01-.998-.998V16.998c0-.551.447-.998.998-.998h43.004c.551 0 .998.447.998.998v43.004a.998.998 0 01-.998.998z"/>
  </g>
</svg>
