<svg viewBox="0 0 72 72" xmlns="http://www.w3.org/2000/svg">
  <path fill="#b3b3b3" d="M68 4v64H4V4h64m4-4H0v72h72V0z"/>
  <path fill="none" stroke="#00a5ff" stroke-miterlimit="10" stroke-width="0.1" d="M12.923 10.958h46.154A1.923 1.923 0 0161 12.881v46.154a1.923 1.923 0 01-1.923 1.923H12.923A1.923 1.923 0 0111 59.035V12.881a1.923 1.923 0 011.923-1.923z"/>
  <rect x="16" y="4" rx="2.254" width="40" height="64" fill="none" stroke="#00a5ff" stroke-miterlimit="10" stroke-width="0.1"/>
  <rect x="16" y="4" rx="2.254" width="40" height="64" transform="rotate(90 36 36)" fill="none" stroke="#00a5ff" stroke-miterlimit="10" stroke-width="0.1"/>
  <circle cx="36" cy="36" r="29" fill="none" stroke="#00a5ff" stroke-miterlimit="10" stroke-width="0.1"/>
  <g fill="none" stroke="#fff" stroke-linecap="round" stroke-linejoin="round" stroke-miterlimit="10" stroke-width="6">
    <path d="M18 13v46m44.909-4.185A1.986 1.986 0 0064 53.047V9.083A2.083 2.083 0 0061.917 7H16.459a4.771 4.771 0 00-3.973 2.13h0a1.889 1.889 0 001.573 2.935h3.808L20 12.047h39.917v48H14.058a1.89 1.89 0 01-1.891-1.85V10.575"/>
    <path d="M39.533 27.219v7h3m-8.825 0h0a2.5 2.5 0 01-2.5-2.5v-2a2.5 2.5 0 012.5-2.5h0a2.5 2.5 0 012.5 2.5v2a2.5 2.5 0 01-2.5 2.5z"/>
    <circle cx="45.533" cy="34.219" r="1"/>
    <path d="M28.416 27.29l-1.518 7h-1.361l-1.537-7m25.563 5.531a1.932 1.932 0 001.934 1.398h0a1.763 1.763 0 100-3.5 1.763 1.763 0 100-3.5h0a1.932 1.932 0 00-1.934 1.397"/>
  </g>
  <path fill="#92d3f5" d="M18 12h42v47.5H18z"/>
  <path fill="#61b2e4" d="M12 12h6.992v47.5H12z"/>
  <g>
    <path fill="none" stroke="#000" stroke-linecap="round" stroke-linejoin="round" stroke-width="2" d="M18 13v46m44.909-4.185A1.986 1.986 0 0064 53.047V9.083A2.083 2.083 0 0061.917 7H16.459a4.771 4.771 0 00-3.973 2.13h0a1.889 1.889 0 001.573 2.935h3.808L20 12.047h39.917v48H14.058a1.89 1.89 0 01-1.891-1.85V10.575"/>
    <path fill="none" stroke="#000" stroke-linecap="round" stroke-linejoin="round" stroke-width="2" d="M39.533 27.219v7h3m-8.825 0h0a2.5 2.5 0 01-2.5-2.5v-2a2.5 2.5 0 012.5-2.5h0a2.5 2.5 0 012.5 2.5v2a2.5 2.5 0 01-2.5 2.5z"/>
    <circle cx="45.533" cy="34.219" r="1"/>
    <path fill="none" stroke="#000" stroke-linecap="round" stroke-linejoin="round" stroke-width="2" d="M28.416 27.29l-1.518 7h-1.361l-1.537-7m25.563 5.531a1.932 1.932 0 001.934 1.398h0a1.763 1.763 0 100-3.5 1.763 1.763 0 100-3.5h0a1.932 1.932 0 00-1.934 1.397"/>
  </g>
</svg>
