<svg viewBox="0 0 72 72" xmlns="http://www.w3.org/2000/svg">
  <path fill="#b3b3b3" d="M68 4v64H4V4h64m4-4H0v72h72V0z"/>
  <path fill="none" stroke="#00a5ff" stroke-miterlimit="10" stroke-width="0.1" d="M12.923 10.958h46.154A1.923 1.923 0 0161 12.881v46.154a1.923 1.923 0 01-1.923 1.923H12.923A1.923 1.923 0 0111 59.035V12.881a1.923 1.923 0 011.923-1.923z"/>
  <rect x="16" y="4" rx="2.254" width="40" height="64" fill="none" stroke="#00a5ff" stroke-miterlimit="10" stroke-width="0.1"/>
  <rect x="16" y="4" rx="2.254" width="40" height="64" transform="rotate(90 36 36)" fill="none" stroke="#00a5ff" stroke-miterlimit="10" stroke-width="0.1"/>
  <circle cx="36" cy="36" r="29" fill="none" stroke="#00a5ff" stroke-miterlimit="10" stroke-width="0.1"/>
  <path fill="none" stroke="#fff" stroke-linecap="round" stroke-linejoin="round" stroke-miterlimit="10" stroke-width="6" d="M15.947 24.818l21.689 6.098m0 8.196l-24.895-6.595m24.895-14.296l23.271 6.324m.012.046l-23.283 6.325m0-12.695L14.07 24.468m46.849 8.32l-23.283 6.324m-24.251-6.429c-1.847-.557-2.803-2.804-2.135-5.02.668-2.214 2.706-3.559 4.553-3.002m21.833 23.16l-24.895-6.595m48.178.27l-23.283 6.325m-24.251-6.429c-1.847-.557-2.803-2.804-2.135-5.02.668-2.215 2.706-3.56 4.553-3.002m21.876 23.161l-24.894-6.595m48.178.27l-23.284 6.325m-24.251-6.429c-1.847-.557-2.802-2.804-2.135-5.02.668-2.215 2.707-3.56 4.554-3.002"/>
  <path fill="#FFF" d="M61.775 24.673H14.163c-6.176 3.042-.92 8.724-.92 8.724s-4.922 4.548-.252 8.663c-1.698 3.023-2.669 5.004-1.112 7.562l25.8 6.909 24.096-5.854V24.673z"/>
  <path fill="#D22F27" d="M14.07 24.468l23.566-6.247 23.27 6.324.014.046-23.284 6.325z"/>
  <path fill="#FFF" d="M37.636 18.221l23.271 6.324m-23.271-6.324L14.07 24.468"/>
  <path fill="none" stroke="#000" stroke-linecap="round" stroke-linejoin="round" stroke-miterlimit="10" stroke-width="2" d="M15.947 24.818l21.689 6.098m0 8.196l-24.895-6.595m24.895-14.296l23.271 6.324m.012.046l-23.283 6.325m0-12.695L14.07 24.468m46.849 8.32l-23.283 6.324m-24.251-6.429c-1.847-.557-2.803-2.804-2.135-5.02.668-2.214 2.706-3.559 4.553-3.002m21.833 23.16l-24.895-6.595m48.178.27l-23.283 6.325m-24.251-6.429c-1.847-.557-2.803-2.804-2.135-5.02.668-2.215 2.706-3.56 4.553-3.002m21.876 23.161l-24.894-6.595m48.178.27l-23.284 6.325m-24.251-6.429c-1.847-.557-2.802-2.804-2.135-5.02.668-2.215 2.707-3.56 4.554-3.002"/>
</svg>
