<svg viewBox="0 0 72 72" xmlns="http://www.w3.org/2000/svg">
  <path fill="#b3b3b3" d="M68 4v64H4V4h64m4-4H0v72h72V0z"/>
  <path fill="none" stroke="#00a5ff" stroke-miterlimit="10" stroke-width="0.1" d="M12.923 10.958h46.154A1.923 1.923 0 0161 12.881v46.154a1.923 1.923 0 01-1.923 1.923H12.923A1.923 1.923 0 0111 59.035V12.881a1.923 1.923 0 011.923-1.923z"/>
  <rect x="16" y="4" rx="2.254" width="40" height="64" fill="none" stroke="#00a5ff" stroke-miterlimit="10" stroke-width="0.1"/>
  <rect x="16" y="4" rx="2.254" width="40" height="64" transform="rotate(90 36 36)" fill="none" stroke="#00a5ff" stroke-miterlimit="10" stroke-width="0.1"/>
  <circle cx="36" cy="36" r="29" fill="none" stroke="#00a5ff" stroke-miterlimit="10" stroke-width="0.1"/>
  <g fill="none" stroke="#fff" stroke-linecap="round" stroke-linejoin="round" stroke-miterlimit="10" stroke-width="6">
    <path d="M16.12 12.01c0-.55.447-.998.998-.998h43.003c.552 0 .999.447.999.999v43.003a.999.999 0 01-.999.998"/>
    <path d="M55.134 61H12.13a.999.999 0 01-.999-.999V16.998A1 1 0 0112.13 16h43.003c.551 0 .998.447.998.999V60a.999.999 0 01-.998.999zM7 23.411h8.712M7 29.447h8.712M7 35.482h8.712m0 6.036H7m0 6.035h8.712M7 53.589h8.712"/>
  </g>
  <path fill="#FCEA2B" d="M60.1 57.08c.563 0 1.02-.458 1.02-1.022V12.034c0-.564-.457-1.022-1.02-1.022H16.178c-.563 0-1.02.458-1.02 1.022v27.129L51.22 57.08h8.88z"/>
  <path fill="#FCEA2B" d="M60.121 56.012a.999.999 0 00.999-.998V12.01a.999.999 0 00-.999-.999H17.118a.999.999 0 00-.998.999v44.001h44z"/>
  <path fill="#FCEA2B" d="M16.12 12.01c0-.55.447-.998.998-.998h43.003c.552 0 .999.447.999.999v43.003a.999.999 0 01-.999.998"/>
  <path fill="#F1B31C" d="M55.134 61H12.13a.999.999 0 01-.999-.999V16.998A1 1 0 0112.13 16h43.003c.551 0 .998.447.998.999V60a.999.999 0 01-.998.999z"/>
  <g fill="none" stroke="#000" stroke-linecap="round" stroke-linejoin="round" stroke-miterlimit="10" stroke-width="2">
    <path d="M16.12 12.01c0-.55.447-.998.998-.998h43.003c.552 0 .999.447.999.999v43.003a.999.999 0 01-.999.998"/>
    <path d="M55.134 61H12.13a.999.999 0 01-.999-.999V16.998A1 1 0 0112.13 16h43.003c.551 0 .998.447.998.999V60a.999.999 0 01-.998.999zM7 23.411h8.712M7 29.447h8.712M7 35.482h8.712m0 6.036H7m0 6.035h8.712M7 53.589h8.712"/>
  </g>
</svg>
