<svg viewBox="0 0 72 72" xmlns="http://www.w3.org/2000/svg">
  <path fill="#b3b3b3" d="M68 4v64H4V4h64m4-4H0v72h72V0z"/>
  <path fill="none" stroke="#00a5ff" stroke-miterlimit="10" stroke-width="0.1" d="M12.923 10.958h46.154A1.923 1.923 0 0161 12.881v46.154a1.923 1.923 0 01-1.923 1.923H12.923A1.923 1.923 0 0111 59.035V12.881a1.923 1.923 0 011.923-1.923z"/>
  <rect x="16" y="4" rx="2.254" width="40" height="64" fill="none" stroke="#00a5ff" stroke-miterlimit="10" stroke-width="0.1"/>
  <rect x="16" y="4" rx="2.254" width="40" height="64" transform="rotate(90 36 36)" fill="none" stroke="#00a5ff" stroke-miterlimit="10" stroke-width="0.1"/>
  <circle cx="36" cy="36" r="29" fill="none" stroke="#00a5ff" stroke-miterlimit="10" stroke-width="0.1"/>
  <path fill="none" stroke="#fff" stroke-linecap="round" stroke-linejoin="round" stroke-miterlimit="10" stroke-width="6" d="M29.507 22.43h1.589a1 1 0 00.999-.999v-4.41a1 1 0 011-1h4.33a1 1 0 011 1v4.41a1 1 0 001 1h1.578a1 1 0 01.816 1.577l-5.748 8.12a1 1 0 01-1.632 0l-5.748-8.12a1 1 0 01.816-1.577zm31.229 19.759v10.74a3.095 3.095 0 01-3.092 3.092H13.736a3 3 0 01-3-3V42.096a3 3 0 013-3h5.406c1.12 0 2.228.523 2.787 1.494a2.903 2.903 0 002.515 1.464l11.287.01 11.286-.01c1.072 0 2.01-.587 2.515-1.464.56-.97 1.667-1.494 2.787-1.494h5.325c1.7 0 3.092 1.382 3.092 3.093z"/>
  <path fill="#EA5A47" d="M29.507 22.43h1.589a1 1 0 00.999-.999v-4.41a1 1 0 011-1h4.33a1 1 0 011 1v4.41a1 1 0 001 1h1.578a1 1 0 01.816 1.577l-5.748 8.12a1 1 0 01-1.632 0l-5.748-8.12a1 1 0 01.816-1.577z"/>
  <path fill="#d0cfce" d="M60.736 42.189v10.74a3.095 3.095 0 01-3.092 3.092H13.736a3 3 0 01-3-3V42.096a3 3 0 013-3h5.406c1.12 0 2.228.523 2.787 1.494a2.903 2.903 0 002.515 1.464l11.287.01 11.286-.01c1.072 0 2.01-.587 2.515-1.464.56-.97 1.667-1.494 2.787-1.494h5.325c1.7 0 3.092 1.382 3.092 3.093z"/>
  <g fill="none" stroke="#000" stroke-linecap="round" stroke-miterlimit="10" stroke-width="2">
    <path d="M29.507 22.43h1.589a1 1 0 00.999-.999v-4.41a1 1 0 011-1h4.33a1 1 0 011 1v4.41a1 1 0 001 1h1.578a1 1 0 01.816 1.577l-5.748 8.12a1 1 0 01-1.632 0l-5.748-8.12a1 1 0 01.816-1.577z"/>
    <path stroke-linejoin="round" d="M60.736 42.189v10.74a3.095 3.095 0 01-3.092 3.092H13.736a3 3 0 01-3-3V42.096a3 3 0 013-3h5.406c1.12 0 2.228.523 2.787 1.494a2.903 2.903 0 002.515 1.464l11.287.01 11.286-.01c1.072 0 2.01-.587 2.515-1.464.56-.97 1.667-1.494 2.787-1.494h5.325c1.7 0 3.092 1.382 3.092 3.093z"/>
  </g>
</svg>
