<svg viewBox="0 0 72 72" xmlns="http://www.w3.org/2000/svg">
  <path fill="#b3b3b3" d="M68 4v64H4V4h64m4-4H0v72h72V0z"/>
  <path fill="none" stroke="#00a5ff" stroke-miterlimit="10" stroke-width="0.1" d="M12.923 10.958h46.154A1.923 1.923 0 0161 12.881v46.154a1.923 1.923 0 01-1.923 1.923H12.923A1.923 1.923 0 0111 59.035V12.881a1.923 1.923 0 011.923-1.923z"/>
  <rect x="16" y="4" rx="2.254" width="40" height="64" fill="none" stroke="#00a5ff" stroke-miterlimit="10" stroke-width="0.1"/>
  <rect x="16" y="4" rx="2.254" width="40" height="64" transform="rotate(90 36 36)" fill="none" stroke="#00a5ff" stroke-miterlimit="10" stroke-width="0.1"/>
  <circle cx="36" cy="36" r="29" fill="none" stroke="#00a5ff" stroke-miterlimit="10" stroke-width="0.1"/>
  <g fill="none" stroke="#fff" stroke-linecap="round" stroke-linejoin="round" stroke-miterlimit="10" stroke-width="6">
    <path d="M57.577 25.129l-6.574 5.189m-7.105-7.354l7.113-5.402m0 .011l6.58 7.556 4.997-.816-8.268-12.87zm-35.72 21.852v16.551h35.31V23.264H38.594v-2.755H15.52m39.259 12.704l2.063-.006v18.972l-2.063.006"/>
    <path d="M42.305 52H23.701V30.318h18.604a3 3 0 013 3V49a3 3 0 01-3 3z"/>
    <circle cx="34.258" cy="43.337" r="5"/>
    <path d="M11.666 20.509h3.626v18.916h-3.626z"/>
  </g>
  <path fill="#D0CFCE" d="M55.28 53.184l1.562-.001v-.003z"/>
  <path fill="#D0CFCE" d="M56.927 51.183l-.087-18.976-6.023.003.084-9.246s-11.988.852-11.988.3l-.32-2.755-23.302.201-.16 35.427L50.6 56l.026-2.814 5.799-.006c-.549-.003.5-1.997.5-1.997z"/>
  <path fill="#3F3F3F" d="M62.588 24.313l-8.268-12.87-2.92 5.402-8.52 6.419 7.257.5.866 6.554 5.797-4.576z"/>
  <path fill="#9B9B9A" d="M45.302 49.797V32.52a2.206 2.206 0 00-2.204-2.204H23.705V52H43.1a2.206 2.206 0 002.203-2.203z"/>
  <circle cx="34.259" cy="43.337" r="5" fill="#D0CFCE"/>
  <path fill="#3F3F3F" d="M11.838 20.597h3.453v18.74h-3.453z"/>
  <g fill="none" stroke="#000" stroke-linecap="round" stroke-linejoin="round" stroke-miterlimit="10" stroke-width="2">
    <path d="M57.577 25.129l-6.574 5.189m-7.105-7.354l7.113-5.402m0 .011l6.58 7.556 4.997-.816-8.268-12.87zm-35.72 21.852v16.551h35.31V23.264H38.594v-2.755H15.52m39.259 12.704l2.063-.006v18.972l-2.063.006"/>
    <path d="M42.305 52H23.701V30.318h18.604a3 3 0 013 3V49a3 3 0 01-3 3z"/>
    <circle cx="34.258" cy="43.337" r="5"/>
    <path d="M11.666 20.509h3.626v18.916h-3.626z"/>
  </g>
</svg>
