<svg viewBox="0 0 72 72" xmlns="http://www.w3.org/2000/svg">
  <path fill="#b3b3b3" d="M68 4v64H4V4h64m4-4H0v72h72V0z"/>
  <path fill="none" stroke="#00a5ff" stroke-miterlimit="10" stroke-width="0.1" d="M12.923 10.958h46.154A1.923 1.923 0 0161 12.881v46.154a1.923 1.923 0 01-1.923 1.923H12.923A1.923 1.923 0 0111 59.035V12.881a1.923 1.923 0 011.923-1.923z"/>
  <rect x="16" y="4" rx="2.254" width="40" height="64" fill="none" stroke="#00a5ff" stroke-miterlimit="10" stroke-width="0.1"/>
  <rect x="16" y="4" rx="2.254" width="40" height="64" transform="rotate(90 36 36)" fill="none" stroke="#00a5ff" stroke-miterlimit="10" stroke-width="0.1"/>
  <circle cx="36" cy="36" r="29" fill="none" stroke="#00a5ff" stroke-miterlimit="10" stroke-width="0.1"/>
  <path fill="none" stroke="#fff" stroke-linecap="round" stroke-linejoin="round" stroke-miterlimit="10" stroke-width="6" d="M40.377 40.458l6.91 6.934c1.614 1.619 4.095 2.566 6.724 2.566h12.775M5 21.958h12.775c2.629 0 5.11.948 6.724 2.567l7.023 7.047M5 49.958h12.775c2.629 0 5.11-.947 6.724-2.566l22.788-22.867c1.614-1.62 4.095-2.567 6.724-2.567h12.775m0 0L58.6 13.744m0 16.428l8.186-8.214m0 28L58.6 41.744m0 16.428l8.186-8.214"/>
  <path fill="none" stroke="#000" stroke-linecap="round" stroke-linejoin="round" stroke-miterlimit="10" stroke-width="2" d="M40.377 40.458l6.91 6.934c1.614 1.619 4.095 2.566 6.724 2.566h12.775M5 21.958h12.775c2.629 0 5.11.948 6.724 2.567l7.023 7.047M5 49.958h12.775c2.629 0 5.11-.947 6.724-2.566l22.788-22.867c1.614-1.62 4.095-2.567 6.724-2.567h12.775m0 0L58.6 13.744m0 16.428l8.186-8.214m0 28L58.6 41.744m0 16.428l8.186-8.214"/>
</svg>
