<svg viewBox="0 0 72 72" xmlns="http://www.w3.org/2000/svg">
  <path fill="#b3b3b3" d="M68 4v64H4V4h64m4-4H0v72h72V0z"/>
  <path fill="none" stroke="#00a5ff" stroke-miterlimit="10" stroke-width="0.1" d="M12.923 10.958h46.154A1.923 1.923 0 0161 12.881v46.154a1.923 1.923 0 01-1.923 1.923H12.923A1.923 1.923 0 0111 59.035V12.881a1.923 1.923 0 011.923-1.923z"/>
  <rect x="16" y="4" rx="2.254" width="40" height="64" fill="none" stroke="#00a5ff" stroke-miterlimit="10" stroke-width="0.1"/>
  <rect x="16" y="4" rx="2.254" width="40" height="64" transform="rotate(90 36 36)" fill="none" stroke="#00a5ff" stroke-miterlimit="10" stroke-width="0.1"/>
  <circle cx="36" cy="36" r="29" fill="none" stroke="#00a5ff" stroke-miterlimit="10" stroke-width="0.1"/>
  <g fill="none" stroke="#fff" stroke-linecap="round" stroke-linejoin="round" stroke-miterlimit="10" stroke-width="6">
    <circle cx="43.971" cy="25.476" r="14.637" transform="rotate(-57.459 43.97 25.476)"/>
    <circle cx="43.971" cy="25.476" r="11.166" transform="rotate(-57.459 43.97 25.476)"/>
    <path d="M31.31 39.966l4.406 2.81-10.496 16.45c-.75 1.176-2.344 1.5-3.56.723h0c-1.217-.776-1.596-2.358-.846-3.533l10.496-16.45z"/>
  </g>
  <circle cx="43.971" cy="25.476" r="11.166" transform="rotate(-57.459 43.97 25.476)" fill="#FFF"/>
  <path fill="#92D3F5" d="M53.44 31.846c1.461-2.29 2.284-6.515 1.698-9.167-.401-1.817-2.655-3.84-3.899-5.159.65 2.354 1.039 7.35-2.185 11.972-2.736 3.92-6.69 5.635-8.947 6.057 4.248 1.283 10.83.218 13.333-3.703z"/>
  <path fill="#D0CFCE" d="M51.777 13.241a14.432 14.432 0 00-10.937-1.937 14.424 14.424 0 00-9.104 6.365c-4.304 6.746-2.318 15.737 4.428 20.041 6.745 4.305 15.735 2.32 20.042-4.427a14.417 14.417 0 001.936-10.938 14.42 14.42 0 00-6.365-9.104zm1.837 18.388c-2.18 3.415-5.882 5.281-9.661 5.281a11.36 11.36 0 01-6.135-1.792c-5.317-3.393-6.881-10.48-3.489-15.795a11.361 11.361 0 017.175-5.016 11.363 11.363 0 018.62 1.527 11.36 11.36 0 015.017 7.174 11.368 11.368 0 01-1.527 8.621z"/>
  <path fill="#3F3F3F" d="M31.443 40.265L24.525 50.6l-3.71 5.816c-.478.75.379 3.21 1.129 3.688.361.23 2.532.011 2.532.011L36 42.923l-4.557-2.658z"/>
  <g fill="none" stroke="#000" stroke-linecap="round" stroke-linejoin="round" stroke-miterlimit="10" stroke-width="2">
    <circle cx="43.971" cy="25.476" r="14.637" transform="rotate(-57.459 43.97 25.476)"/>
    <circle cx="43.971" cy="25.476" r="11.166" transform="rotate(-57.459 43.97 25.476)"/>
    <path d="M31.31 39.966l4.406 2.81-10.496 16.45c-.75 1.176-2.344 1.5-3.56.723h0c-1.217-.776-1.596-2.358-.846-3.533l10.496-16.45z"/>
  </g>
</svg>
