<svg viewBox="0 0 72 72" xmlns="http://www.w3.org/2000/svg">
  <path fill="#b3b3b3" d="M68 4v64H4V4h64m4-4H0v72h72V0z"/>
  <path fill="none" stroke="#00a5ff" stroke-miterlimit="10" stroke-width="0.1" d="M12.923 10.958h46.154A1.923 1.923 0 0161 12.881v46.154a1.923 1.923 0 01-1.923 1.923H12.923A1.923 1.923 0 0111 59.035V12.881a1.923 1.923 0 011.923-1.923z"/>
  <rect x="16" y="4" rx="2.254" width="40" height="64" fill="none" stroke="#00a5ff" stroke-miterlimit="10" stroke-width="0.1"/>
  <rect x="16" y="4" rx="2.254" width="40" height="64" transform="rotate(90 36 36)" fill="none" stroke="#00a5ff" stroke-miterlimit="10" stroke-width="0.1"/>
  <circle cx="36" cy="36" r="29" fill="none" stroke="#00a5ff" stroke-miterlimit="10" stroke-width="0.1"/>
  <g fill="none" stroke="#fff" stroke-linecap="round" stroke-linejoin="round" stroke-miterlimit="10" stroke-width="6">
    <path d="M61.081 31.348v-7.16a1 1 0 00-1-1H6.772a1 1 0 00-1 1v25.017a1 1 0 001 1h53.313a1 1 0 001-1V42.53h5.143V31.347h-5.147z"/>
    <path d="M11 27.36h34.239v19.007H11z"/>
  </g>
  <path fill="#d0cfce" d="M59.971 42.798a1 1 0 011-1h4.143v-9.183h-4.143a1 1 0 01-1-1m0 0v-7.158H6.662V49.47h53.309v-6.671"/>
  <path fill="#d0cfce" d="M61.083 32.349a1 1 0 01-1-1v-7.16H6.773v25.014h53.313V42.53a1 1 0 011-1h4.143v-9.18h-4.146z"/>
  <path fill="#b1cc33" d="M12.002 45.367h32.239V28.36H12.002v17.007z"/>
  <g fill="none" stroke="#000" stroke-linecap="round" stroke-linejoin="round" stroke-width="2">
    <path d="M61.081 31.348v-7.16a1 1 0 00-1-1H6.772a1 1 0 00-1 1v25.017a1 1 0 001 1h53.313a1 1 0 001-1V42.53h5.143V31.347h-5.147z"/>
    <path d="M11 27.36h34.239v19.007H11z"/>
  </g>
</svg>
