<svg viewBox="0 0 72 72" xmlns="http://www.w3.org/2000/svg">
  <path fill="#b3b3b3" d="M68 4v64H4V4h64m4-4H0v72h72V0z"/>
  <path fill="none" stroke="#00a5ff" stroke-miterlimit="10" stroke-width="0.1" d="M12.923 10.958h46.154A1.923 1.923 0 0161 12.881v46.154a1.923 1.923 0 01-1.923 1.923H12.923A1.923 1.923 0 0111 59.035V12.881a1.923 1.923 0 011.923-1.923z"/>
  <rect x="16" y="4" rx="2.254" width="40" height="64" fill="none" stroke="#00a5ff" stroke-miterlimit="10" stroke-width="0.1"/>
  <rect x="16" y="4" rx="2.254" width="40" height="64" transform="rotate(90 36 36)" fill="none" stroke="#00a5ff" stroke-miterlimit="10" stroke-width="0.1"/>
  <circle cx="36" cy="36" r="29" fill="none" stroke="#00a5ff" stroke-miterlimit="10" stroke-width="0.1"/>
  <path fill="none" stroke="#fff" stroke-linecap="round" stroke-linejoin="round" stroke-miterlimit="10" stroke-width="6" d="M11.5 45.81a17.26 17.26 0 01-1.5-7.064v-1.108c0-9.463 7.575-17.135 16.92-17.135h30.908m2.666 5.465A17.38 17.38 0 0162 33.071v1.114c0 9.515-7.603 17.229-16.98 17.229H14m43.828-30.911l-8.185-8.214m0 16.427l8.185-8.213M14 51.414l8.185-8.214m0 16.428L14 51.414"/>
  <path fill="none" stroke="#000" stroke-linecap="round" stroke-linejoin="round" stroke-miterlimit="10" stroke-width="2" d="M11.5 45.81a17.26 17.26 0 01-1.5-7.064v-1.108c0-9.463 7.575-17.135 16.92-17.135h30.908m2.666 5.465A17.38 17.38 0 0162 33.071v1.114c0 9.515-7.603 17.229-16.98 17.229H14m43.828-30.911l-8.185-8.214m0 16.427l8.185-8.213M14 51.414l8.185-8.214m0 16.428L14 51.414"/>
</svg>
