<svg viewBox="0 0 72 72" xmlns="http://www.w3.org/2000/svg">
  <path fill="#b3b3b3" d="M68 4v64H4V4h64m4-4H0v72h72V0z"/>
  <rect x="11" y="10.958" rx="1.923" ry="1.923" width="50" height="50" fill="none" stroke="#00a5ff" stroke-miterlimit="10" stroke-width="0.1"/>
  <rect x="16" y="4" rx="2.254" ry="2.254" width="40" height="64" fill="none" stroke="#00a5ff" stroke-miterlimit="10" stroke-width="0.1"/>
  <rect x="16" y="4" rx="2.254" ry="2.254" width="40" height="64" transform="rotate(90 36 36)" fill="none" stroke="#00a5ff" stroke-miterlimit="10" stroke-width="0.1"/>
  <circle cx="36" cy="36" r="29" fill="none" stroke="#00a5ff" stroke-miterlimit="10" stroke-width="0.1"/>
  <g fill="none" stroke="#fff" stroke-linecap="round" stroke-linejoin="round" stroke-miterlimit="10" stroke-width="6">
    <path d="M26.675 17l8.215 9.452h-6.024l.236 25.086s-.746 6.721 7.468 2.24l1.494 2.987c-13.442 7.468-13.442-5.974-13.442-5.974l-.137-24.34H18.46L26.675 17"/>
    <path d="M44.785 59.025l-8.214-9.452h6.024l-.237-25.087s.747-6.72-7.468-2.24l-1.493-2.987c13.442-7.468 13.442 5.974 13.442 5.974l.137 24.34H53l-8.215 9.452"/>
  </g>
  <g fill="#92d3f5">
    <path d="M26.675 17l8.215 9.452h-6.024l.236 25.086s-.746 6.721 7.468 2.24l1.494 2.987c-13.442 7.468-13.442-5.974-13.442-5.974l-.137-24.34H18.46L26.675 17"/>
    <path d="M44.785 59.025l-8.214-9.452h6.024l-.237-25.087s.747-6.72-7.468-2.24l-1.493-2.987c13.442-7.468 13.442 5.974 13.442 5.974l.137 24.34H53l-8.215 9.452"/>
  </g>
  <g fill="none" stroke="#000" stroke-linecap="round" stroke-linejoin="round" stroke-width="2">
    <path d="M26.675 17l8.215 9.452h-6.024l.236 25.086s-.746 6.721 7.468 2.24l1.494 2.987c-13.442 7.468-13.442-5.974-13.442-5.974l-.137-24.34H18.46L26.675 17"/>
    <path d="M44.785 59.025l-8.214-9.452h6.024l-.237-25.087s.747-6.72-7.468-2.24l-1.493-2.987c13.442-7.468 13.442 5.974 13.442 5.974l.137 24.34H53l-8.215 9.452"/>
  </g>
</svg>
