<svg viewBox="0 0 72 72" xmlns="http://www.w3.org/2000/svg">
  <path fill="#b3b3b3" d="M68 4v64H4V4h64m4-4H0v72h72V0z"/>
  <path fill="none" stroke="#00a5ff" stroke-miterlimit="10" stroke-width="0.1" d="M12.923 10.958h46.154A1.923 1.923 0 0161 12.881v46.154a1.923 1.923 0 01-1.923 1.923H12.923A1.923 1.923 0 0111 59.035V12.881a1.923 1.923 0 011.923-1.923z"/>
  <rect x="16" y="4" rx="2.254" width="40" height="64" fill="none" stroke="#00a5ff" stroke-miterlimit="10" stroke-width="0.1"/>
  <rect x="16" y="4" rx="2.254" width="40" height="64" transform="rotate(90 36 36)" fill="none" stroke="#00a5ff" stroke-miterlimit="10" stroke-width="0.1"/>
  <circle cx="36" cy="36" r="29" fill="none" stroke="#00a5ff" stroke-miterlimit="10" stroke-width="0.1"/>
  <path fill="none" stroke="#fff" stroke-linecap="round" stroke-linejoin="round" stroke-miterlimit="10" stroke-width="6" d="M20.483 30.108c-3.545-.267-10.948-.805-15.867 0 0 0-1.386 1.756 0 5.63 0 0 2.257-.453 4-.453 1.49 0 9.445 1.19 12.232.759m3.424 3.806h9.344c32 0 31.95-9.742 31.95-9.742H24.272v9.741"/>
  <path fill="#3F3F3F" stroke="#3F3F3F" stroke-miterlimit="10" stroke-width="2" d="M24.272 30.108c-3.545-.267-13.737-.805-18.656 0 0 0-1.386.756 0 4.63 0 0 1.257.547 3 .547 1.49 0 12.87 1.538 15.656 1.108"/>
  <path fill="#3F3F3F" d="M20.483 30.108c-3.545-.267-10.948-.805-15.867 0 0 0-1.386 1.756 0 5.63 0 0 2.257-.453 4-.453 1.49 0 9.445 1.19 12.232.759"/>
  <path fill="#D0CFCE" d="M24.272 39.85h9.344c32 0 31.95-9.742 31.95-9.742H24.272v9.741"/>
  <path fill="none" stroke="#000" stroke-linecap="round" stroke-linejoin="round" stroke-miterlimit="10" stroke-width="2" d="M20.483 30.108c-3.545-.267-10.948-.805-15.867 0 0 0-1.386 1.756 0 5.63 0 0 2.257-.453 4-.453 1.49 0 9.445 1.19 12.232.759m3.424 3.806h9.344c32 0 31.95-9.742 31.95-9.742H24.272v9.741"/>
</svg>
