<svg viewBox="0 0 72 72" xmlns="http://www.w3.org/2000/svg">
  <path fill="#b3b3b3" d="M68 4v64H4V4h64m4-4H0v72h72V0z"/>
  <path fill="none" stroke="#00a5ff" stroke-miterlimit="10" stroke-width="0.1" d="M12.923 10.959h46.154A1.923 1.923 0 0161 12.882v46.154a1.922 1.922 0 01-1.922 1.922H12.923A1.923 1.923 0 0111 59.035V12.882a1.923 1.923 0 011.923-1.923z"/>
  <rect x="16" y="4" rx="2.254" ry="2.254" width="40" height="64" fill="none" stroke="#00a5ff" stroke-miterlimit="10" stroke-width="0.1"/>
  <rect x="16" y="4" rx="2.254" ry="2.254" width="40" height="64" transform="rotate(90 36 36)" fill="none" stroke="#00a5ff" stroke-miterlimit="10" stroke-width="0.1"/>
  <circle cx="36" cy="36" r="29" fill="none" stroke="#00a5ff" stroke-miterlimit="10" stroke-width="0.1"/>
  <g fill="none" stroke="#fff" stroke-linecap="round" stroke-linejoin="round" stroke-miterlimit="10" stroke-width="6">
    <path d="M38.5 36a2.5 2.5 0 11-2.499-2.5A2.499 2.499 0 0138.5 36z"/>
    <path d="M12 12h48v48H12z"/>
    <path d="M36 18.67l14.97 25.96H21.03l7.486-12.98 7.482-12.98" paint-order="stroke fill markers"/>
    <path d="M21.01 27.39l29.97.019-14.97 25.93-7.5-12.97-7.502-12.97" paint-order="stroke fill markers"/>
  </g>
  <path fill="#b399c8" d="M12 12.08h48v47.83H12z"/>
  <path d="M38.5 36a2.5 2.5 0 11-2.499-2.5A2.499 2.499 0 0138.5 36z"/>
  <path fill="none" stroke="#000" stroke-linecap="round" stroke-linejoin="round" stroke-width="2" d="M12 12h48v48H12z"/>
  <path fill="none" stroke="#000" stroke-linecap="round" stroke-linejoin="round" stroke-width="2.696" d="M36 18.67l14.97 25.96H21.03l7.486-12.98 7.482-12.98" paint-order="stroke fill markers"/>
  <path fill="none" stroke="#000" stroke-linecap="round" stroke-linejoin="round" stroke-width="2.696" d="M21.01 27.39l29.97.019-14.97 25.93-7.5-12.97-7.502-12.97" paint-order="stroke fill markers"/>
</svg>
