<svg viewBox="0 0 72 72" xmlns="http://www.w3.org/2000/svg">
  <path fill="#b3b3b3" d="M68 4v64H4V4h64m4-4H0v72h72V0z"/>
  <path fill="none" stroke="#00a5ff" stroke-miterlimit="10" stroke-width="0.1" d="M12.923 10.958h46.154A1.923 1.923 0 0161 12.881v46.154a1.923 1.923 0 01-1.923 1.923H12.923A1.923 1.923 0 0111 59.035V12.881a1.923 1.923 0 011.923-1.923z"/>
  <rect x="16" y="4" rx="2.254" ry="2.254" width="40" height="64" fill="none" stroke="#00a5ff" stroke-miterlimit="10" stroke-width="0.1"/>
  <rect x="16" y="4" rx="2.254" ry="2.254" width="40" height="64" transform="rotate(90 36 36)" fill="none" stroke="#00a5ff" stroke-miterlimit="10" stroke-width="0.1"/>
  <circle cx="36" cy="36" r="29" fill="none" stroke="#00a5ff" stroke-miterlimit="10" stroke-width="0.1"/>
  <path fill="none" stroke="#fff" stroke-linecap="round" stroke-linejoin="round" stroke-miterlimit="10" stroke-width="6" d="M17.677 12.097c-.922-.6-1.677-.19-1.677.91v34a4.735 4.735 0 001.56 3.252l16.819 13.496a2.624 2.624 0 003.123.005l16.934-13.506A4.715 4.715 0 0056 47.007v-34c0-1.1-.755-1.51-1.677-.91l-16.646 10.82a3.352 3.352 0 01-3.354 0zM36 24.007v40"/>
  <path fill="#fcea2b" d="M17 12.007l-1 36 19 16v-40l-18-12z"/>
  <path fill="#5c9e31" d="M55 12.007l1 36-19 16v-40l18-12z"/>
  <g fill="none" stroke="#000" stroke-linecap="round" stroke-miterlimit="10" stroke-width="2">
    <path d="M17.677 12.097c-.922-.6-1.677-.19-1.677.91v34a4.735 4.735 0 001.56 3.252l16.819 13.496a2.624 2.624 0 003.123.005l16.934-13.506A4.715 4.715 0 0056 47.007v-34c0-1.1-.755-1.51-1.677-.91l-16.646 10.82a3.352 3.352 0 01-3.354 0zM36 24.007v40"/>
  </g>
</svg>
