<svg viewBox="0 0 72 72" xmlns="http://www.w3.org/2000/svg">
  <path fill="#B3B3B3" d="M68 4v64H4V4h64m4-4H0v72h72V0z"/>
  <path fill="none" stroke="#00A5FF" stroke-miterlimit="10" stroke-width="0.1" d="M12.923 10.958h46.154c1.062 0 1.923.861 1.923 1.923v46.154a1.923 1.923 0 01-1.923 1.923H12.923A1.923 1.923 0 0111 59.035h0V12.881c0-1.062.861-1.923 1.923-1.923h0z"/>
  <path fill="none" stroke="#00A5FF" stroke-miterlimit="10" stroke-width="0.1" d="M18.254 4h35.492A2.254 2.254 0 0156 6.254v59.492A2.254 2.254 0 0153.746 68H18.254A2.254 2.254 0 0116 65.746V6.254A2.254 2.254 0 0118.254 4z"/>
  <path fill="none" stroke="#00A5FF" stroke-miterlimit="10" stroke-width="0.1" d="M68 18.254v35.492A2.254 2.254 0 0165.746 56H6.254A2.254 2.254 0 014 53.746V18.254A2.254 2.254 0 016.254 16h59.492A2.254 2.254 0 0168 18.254z"/>
  <circle cx="36" cy="36" r="29" fill="none" stroke="#00A5FF" stroke-miterlimit="10" stroke-width="0.1"/>
  <g fill="none" stroke="#fff" stroke-linecap="round" stroke-linejoin="round" stroke-miterlimit="10" stroke-width="6">
    <path d="M17.5 26h7v5h-7zm0 10h7v24h-7zm37 0c0 1.42-.37 2.78-1.04 4H30.54a8.28 8.28 0 01-1.04-4c0-5.52 5.6-10 12.5-10s12.5 4.48 12.5 10zm.5 4v20h-9v-8.09c0-.59-.18-1.17-.5-1.67l-2.84-4.25L42 45l-.66.99-2.84 4.25c-.32.5-.5 1.08-.5 1.67V60h-9V40h26zM21 17l-3.5 9h7zm5.5 14l-2 5h-7l-2-5z"/>
    <circle cx="42" cy="24" r="2"/>
    <path d="M46 51.91V60h-8v-8.09c0-.59.18-1.17.5-1.67l2.84-4.25L42 45l.66.99 2.84 4.25c.32.5.5 1.08.5 1.67z"/>
  </g>
  <path fill="#D0CFCE" d="M17.5 26h7v34h-7z"/>
  <ellipse cx="42" cy="36" rx="12.5" ry="10" fill="#F4AA41"/>
  <path fill="#D0CFCE" d="M29 40h26v20H29z"/>
  <path fill="#F4AA41" d="M21 17l-3.5 9h7z"/>
  <path fill="#3F3F3F" d="M24.5 36h-7l-2-5h11z"/>
  <circle cx="42" cy="24" r="2" fill="#F4AA41"/>
  <path fill="#9B9B9A" d="M42 45l-3.496 5.244A3 3 0 0038 51.908V60h8v-8.092a3 3 0 00-.504-1.664L42 45z"/>
  <g fill="none" stroke="#000" stroke-linecap="round" stroke-linejoin="round" stroke-miterlimit="10" stroke-width="2">
    <path d="M17.5 26h7v5h-7zm0 10h7v24h-7zm37 0c0 1.42-.37 2.78-1.04 4H30.54a8.28 8.28 0 01-1.04-4c0-5.52 5.6-10 12.5-10s12.5 4.48 12.5 10zm.5 4v20h-9v-8.09c0-.59-.18-1.17-.5-1.67l-2.84-4.25L42 45l-.66.99-2.84 4.25c-.32.5-.5 1.08-.5 1.67V60h-9V40h26zM21 17l-3.5 9h7zm5.5 14l-2 5h-7l-2-5z"/>
    <circle cx="42" cy="24" r="2"/>
    <path d="M46 51.91V60h-8v-8.09c0-.59.18-1.17.5-1.67l2.84-4.25L42 45l.66.99 2.84 4.25c.32.5.5 1.08.5 1.67z"/>
  </g>
</svg>
