<svg viewBox="0 0 72 72" xmlns="http://www.w3.org/2000/svg">
  <path fill="#b3b3b3" d="M68 4v64H4V4h64m4-4H0v72h72V0z"/>
  <path fill="none" stroke="#00a5ff" stroke-miterlimit="10" stroke-width="0.1" d="M12.923 10.958h46.154A1.923 1.923 0 0161 12.881v46.154a1.923 1.923 0 01-1.923 1.923H12.923A1.923 1.923 0 0111 59.035V12.881a1.923 1.923 0 011.923-1.923z"/>
  <rect x="16" y="4" rx="2.254" width="40" height="64" fill="none" stroke="#00a5ff" stroke-miterlimit="10" stroke-width="0.1"/>
  <rect x="16" y="4" rx="2.254" width="40" height="64" transform="rotate(90 36 36)" fill="none" stroke="#00a5ff" stroke-miterlimit="10" stroke-width="0.1"/>
  <circle cx="36" cy="36" r="29" fill="none" stroke="#00a5ff" stroke-miterlimit="10" stroke-width="0.1"/>
  <g fill="none" stroke="#fff" stroke-linecap="round" stroke-linejoin="round" stroke-miterlimit="10" stroke-width="6">
    <path d="M40.326 34.262a3.5 3.5 0 116.993.293m6.997.233l-.001 12.874M23.011 34.788c-1.343-1.39-3.463-1.343-4.853 0-1.39 1.343-.96 3.274.382 4.664 1.77 1.875 2.935 4.043 2.863 8.397v-.187c0 9.088 7.368 16.455 16.456 16.455s16.456-7.367 16.456-16.455"/>
    <path d="M54.316 34.788a3.5 3.5 0 10-6.993-.293l-.016.194a3.5 3.5 0 10-6.977-.561l-.05.427V11.411l-.006.112a3.5 3.5 0 00-6.986-.448v22.671a3.5 3.5 0 10-7 0"/>
  </g>
  <g fill="#fcea2b">
    <path d="M40.326 34.262a3.5 3.5 0 116.993.293m-24.049-.39c-1.343-1.39-3.13-1.477-4.521-.134a3.5 3.5 0 00-.086 4.95c1.77 1.874 2.812 4.513 2.74 8.868v-.187c0 9.088 7.368 16.456 16.456 16.456s16.456-7.368 16.456-16.456l.001-12.874"/>
    <path d="M54.316 34.788a3.5 3.5 0 10-6.993-.293l-.016.194a3.5 3.5 0 10-6.977-.561l-.05.427V11.411l-.006.112a3.5 3.5 0 00-6.986-.448v22.671c0-1.933-1.567-3.5-3.5-3.5s-3.5 2.915-3.5 4.848"/>
  </g>
  <g fill="none" stroke="#000" stroke-linecap="round" stroke-linejoin="round" stroke-miterlimit="10" stroke-width="2">
    <path d="M40.326 34.262a3.5 3.5 0 116.993.293m6.997.233l-.001 12.874M23.011 34.788c-1.343-1.39-3.463-1.343-4.853 0-1.39 1.343-.96 3.274.382 4.664 1.77 1.875 2.935 4.043 2.863 8.397v-.187c0 9.088 7.368 16.455 16.456 16.455s16.456-7.367 16.456-16.455"/>
    <path d="M54.316 34.788a3.5 3.5 0 10-6.993-.293l-.016.194a3.5 3.5 0 10-6.977-.561l-.05.427V11.411l-.006.112a3.5 3.5 0 00-6.986-.448v22.671a3.5 3.5 0 10-7 0"/>
  </g>
</svg>
