<svg viewBox="0 0 72 72" xmlns="http://www.w3.org/2000/svg">
  <path fill="#b3b3b3" d="M68 4v64H4V4h64m4-4H0v72h72V0z"/>
  <path fill="none" stroke="#00a5ff" stroke-miterlimit="10" stroke-width="0.1" d="M12.923 10.958h46.154A1.923 1.923 0 0161 12.881v46.154a1.923 1.923 0 01-1.923 1.923H12.923A1.923 1.923 0 0111 59.035V12.881a1.923 1.923 0 011.923-1.923z"/>
  <rect x="16" y="4" rx="2.254" width="40" height="64" fill="none" stroke="#00a5ff" stroke-miterlimit="10" stroke-width="0.1"/>
  <rect x="16" y="4" rx="2.254" width="40" height="64" transform="rotate(90 36 36)" fill="none" stroke="#00a5ff" stroke-miterlimit="10" stroke-width="0.1"/>
  <circle cx="36" cy="36" r="29" fill="none" stroke="#00a5ff" stroke-miterlimit="10" stroke-width="0.1"/>
  <g fill="none" stroke="#fff" stroke-linecap="round" stroke-linejoin="round" stroke-miterlimit="10" stroke-width="6">
    <path d="M63.194 56H9.232a5.075 5.075 0 01-5.074-5.075V16.033a5.075 5.075 0 015.074-5.075h53.962a5.075 5.075 0 015.075 5.075v34.892A5.075 5.075 0 0163.194 56z"/>
    <path d="M68.269 47.563s.168 4.855-1.55 6.83-.722 1.604-3.525 1.604H9.232c-2.802 0-4.164-1.852-4.164-2.444l-.91-5.99"/>
    <path d="M63.194 56H9.232a5.075 5.075 0 01-5.074-5.075V16.033a5.075 5.075 0 015.074-5.075h53.962a5.075 5.075 0 015.075 5.075v34.892A5.075 5.075 0 0163.194 56zM7.213 48.492h58m-22.03 12.466c0 4.959 8.84 7.042 8.84 7.042h-31.62s8.84-2.083 8.84-7.042"/>
  </g>
  <path fill="#D0CFCE" d="M44.183 60.958c0 4.959 7.84 7.042 7.84 7.042h-31.62s7.84-2.083 7.84-7.042v-4.933h15.778l.162 4.933z"/>
  <path fill="#9B9B9A" d="M63.194 56H9.232a5.075 5.075 0 01-5.074-5.075V16.033a5.075 5.075 0 015.074-5.075h53.962a5.075 5.075 0 015.075 5.075v34.892A5.075 5.075 0 0163.194 56z"/>
  <path fill="#FFF" d="M67.547 46.721L4.213 24.201v-9.458a2.671 2.671 0 013.566-2.517L67.547 33.48v13.242z"/>
  <path fill="#D0CFCE" d="M68.269 47.563s.168 4.855-1.55 6.83-.722 1.604-3.525 1.604H9.232c-2.802 0-4.164-1.852-4.164-2.444l-.91-5.99"/>
  <g fill="none" stroke="#000" stroke-linecap="round" stroke-linejoin="round" stroke-miterlimit="10">
    <path stroke-width="2" d="M63.194 56H9.232a5.075 5.075 0 01-5.074-5.075V16.033a5.075 5.075 0 015.074-5.075h53.962a5.075 5.075 0 015.075 5.075v34.892A5.075 5.075 0 0163.194 56z"/>
    <path stroke-width="0.919" d="M68.269 47.563s.168 4.855-1.55 6.83-.722 1.604-3.525 1.604H9.232c-2.802 0-4.164-1.852-4.164-2.444l-.91-5.99"/>
    <path stroke-width="2" d="M63.194 56H9.232a5.075 5.075 0 01-5.074-5.075V16.033a5.075 5.075 0 015.074-5.075h53.962a5.075 5.075 0 015.075 5.075v34.892A5.075 5.075 0 0163.194 56zM7.213 48.492h58m-22.03 12.466c0 4.959 8.84 7.042 8.84 7.042h-31.62s8.84-2.083 8.84-7.042"/>
  </g>
</svg>
