<svg viewBox="0 0 72 72" xmlns="http://www.w3.org/2000/svg">
  <path fill="#b3b3b3" d="M68 4v64H4V4h64m4-4H0v72h72V0z"/>
  <path fill="none" stroke="#00a5ff" stroke-miterlimit="10" stroke-width="0.1" d="M12.923 10.958h46.154A1.923 1.923 0 0161 12.881v46.154a1.923 1.923 0 01-1.923 1.923H12.923A1.923 1.923 0 0111 59.035V12.881a1.923 1.923 0 011.923-1.923z"/>
  <rect x="16" y="4" rx="2.254" width="40" height="64" fill="none" stroke="#00a5ff" stroke-miterlimit="10" stroke-width="0.1"/>
  <rect x="16" y="4" rx="2.254" width="40" height="64" transform="rotate(90 36 36)" fill="none" stroke="#00a5ff" stroke-miterlimit="10" stroke-width="0.1"/>
  <circle cx="36" cy="36" r="29" fill="none" stroke="#00a5ff" stroke-miterlimit="10" stroke-width="0.1"/>
  <g fill="none" stroke="#fff" stroke-linecap="round" stroke-linejoin="round" stroke-miterlimit="10" stroke-width="6">
    <path d="M36.26 31.12h-.518a2.49 2.49 0 01-2.49-2.478v-8.126a2.492 2.492 0 012.49-2.478h.518a2.49 2.49 0 012.49 2.478v8.126a2.492 2.492 0 01-2.49 2.478z"/>
    <path d="M39.61 60.05h-7.215c-6.475 0-11.77-5.263-11.77-11.7V23.64c0-6.432 5.298-11.7 11.77-11.7h7.215c6.475 0 11.77 5.263 11.77 11.7v24.71c0 6.432-5.298 11.7-11.77 11.7z"/>
  </g>
  <path fill="#d0cfce" d="M38.41 11.95h-4.821c-7.25 0-13.18 4.932-13.18 12.18v23.74c0 7.25 5.932 12.18 13.18 12.18h4.821c7.25 0 13.18-4.932 13.18-12.18V24.13c0-7.25-5.932-12.18-13.18-12.18z"/>
  <path fill="#3f3f3f" d="M36.15 17.93h-.308a2.565 2.565 0 00-2.558 2.558v7.94a2.565 2.565 0 002.558 2.558h.308a2.565 2.565 0 002.558-2.558v-7.94a2.565 2.565 0 00-2.558-2.558z"/>
  <path fill="#9b9b9a" d="M34.79 12.79c3.959 1.699 7.723 4.137 8.161 10.3.508 7.135-2.133 20.5-2.982 27.28-.594 4.745-2.94 6.942-6.056 9.432-1.571 1.256 6.889 1.102 10.37-.934 2.989-1.747 5.885-4.747 5.921-3.798l.422-33.75s-1.225-9.075-11.2-9.078c0 0-10.01-.515-4.635.551z"/>
  <g fill="none" stroke="#000" stroke-linecap="round" stroke-linejoin="round" stroke-miterlimit="10" stroke-width="2">
    <path d="M36.26 31.12h-.518a2.49 2.49 0 01-2.49-2.478v-8.126a2.492 2.492 0 012.49-2.478h.518a2.49 2.49 0 012.49 2.478v8.126a2.492 2.492 0 01-2.49 2.478z"/>
    <path d="M39.61 60.05h-7.215c-6.475 0-11.77-5.263-11.77-11.7V23.64c0-6.432 5.298-11.7 11.77-11.7h7.215c6.475 0 11.77 5.263 11.77 11.7v24.71c0 6.432-5.298 11.7-11.77 11.7z"/>
  </g>
</svg>
