<svg viewBox="0 0 72 72" xmlns="http://www.w3.org/2000/svg">
  <path fill="#b3b3b3" d="M68 4v64H4V4h64m4-4H0v72h72V0z"/>
  <path fill="none" stroke="#00a5ff" stroke-miterlimit="10" stroke-width="0.1" d="M12.923 10.958h46.154A1.923 1.923 0 0161 12.881v46.154a1.923 1.923 0 01-1.923 1.923H12.923A1.923 1.923 0 0111 59.035V12.881a1.923 1.923 0 011.923-1.923z"/>
  <rect x="16" y="4" rx="2.254" width="40" height="64" fill="none" stroke="#00a5ff" stroke-miterlimit="10" stroke-width="0.1"/>
  <rect x="16" y="4" rx="2.254" width="40" height="64" transform="rotate(90 36 36)" fill="none" stroke="#00a5ff" stroke-miterlimit="10" stroke-width="0.1"/>
  <circle cx="36" cy="36" r="29" fill="none" stroke="#00a5ff" stroke-miterlimit="10" stroke-width="0.1"/>
  <g fill="none" stroke="#fff" stroke-linecap="round" stroke-linejoin="round" stroke-miterlimit="10" stroke-width="6">
    <path d="M35 26.906h2s4-11 4-16v-.067a5 5 0 00-10-.006v.073c0 5 4 16 4 16m-7 0a3 3 0 100 6v-.015m16 0v.015a3 3 0 100-6m-16 0a32.985 32.985 0 0016 0m0 5.985a32.983 32.983 0 00-16 0"/>
    <path d="M36 65.71a39.702 39.702 0 01-3.197-14.613l-.488-18.895s3.685-.492 7.685 0l-.488 18.895a39.698 39.698 0 01-3.197 14.613"/>
  </g>
  <path fill="#3F3F3F" d="M35 27.166h2s4-11 4-16v-.068a5 5 0 00-10-.005v.073c0 5 4 16 4 16"/>
  <path fill="#9B9B9A" d="M28 27.166s-5 3 0 5c0 0 8-2 17 0 0 0 4-4-1-5 0 0-6 1-16 0z"/>
  <path fill="#D0CFCE" d="M36 65.71a39.702 39.702 0 01-3.197-14.613l-.488-18.895s3.685-.492 7.685 0l-.488 18.895a39.698 39.698 0 01-3.197 14.613"/>
  <g fill="none" stroke="#000" stroke-linecap="round" stroke-linejoin="round" stroke-miterlimit="10" stroke-width="2">
    <path d="M35 26.906h2s4-11 4-16v-.067a5 5 0 00-10-.006v.073c0 5 4 16 4 16m-7 0a3 3 0 100 6v-.015m16 0v.015a3 3 0 100-6m-16 0a32.985 32.985 0 0016 0m0 5.985a32.983 32.983 0 00-16 0"/>
    <path d="M36 65.71a39.702 39.702 0 01-3.197-14.613l-.488-18.895s3.685-.492 7.685 0l-.488 18.895a39.698 39.698 0 01-3.197 14.613"/>
  </g>
</svg>
