<svg viewBox="0 0 72 72" xmlns="http://www.w3.org/2000/svg">
  <path fill="#b3b3b3" d="M68 4v64H4V4h64m4-4H0v72h72z"/>
  <rect x="11" y="10.958" rx="1.923" width="50" height="50" fill="none" stroke="#00a5ff" stroke-miterlimit="10" stroke-width="0.1"/>
  <rect x="16" y="4" rx="2.254" width="40" height="64" fill="none" stroke="#00a5ff" stroke-miterlimit="10" stroke-width="0.1"/>
  <rect x="4" y="16" rx="2.254" width="64" height="40" fill="none" stroke="#00a5ff" stroke-miterlimit="10" stroke-width="0.1"/>
  <circle cx="36" cy="36" r="29" fill="none" stroke="#00a5ff" stroke-miterlimit="10" stroke-width="0.1"/>
  <g fill="none" stroke="#fff" stroke-linecap="round" stroke-linejoin="round" stroke-miterlimit="10" stroke-width="6">
    <path d="M45.815 45.227a15.43 15.43 0 01-19.63 0m21.581-28.994a23.027 23.027 0 00-23.37-.096m-6.758 6.01a23 23 0 1036.625-.13"/>
    <ellipse cx="36" cy="14.8" rx="25" ry="5.25"/>
    <path d="M31.694 33.404a4.726 4.726 0 00-8.638 0m25.888 0a4.726 4.726 0 00-8.638 0"/>
  </g>
  <path fill="#fcea2b" d="M36 60a24 24 0 0018.157-39.695q-.13-.152-.265-.301A24 24 0 1036 60z"/>
  <g fill="none" stroke="#000" stroke-width="2">
    <path stroke-linecap="round" stroke-linejoin="round" d="M45.815 45.227a15.43 15.43 0 01-19.63 0m21.581-28.994a23.027 23.027 0 00-23.37-.096m-6.758 6.01a23 23 0 1036.625-.13"/>
    <ellipse cx="36" cy="14.8" rx="25" ry="5.25" stroke-miterlimit="10"/>
    <path stroke-linecap="round" stroke-miterlimit="10" d="M31.694 33.404a4.726 4.726 0 00-8.638 0m25.888 0a4.726 4.726 0 00-8.638 0"/>
  </g>
  <ellipse cx="36" cy="14.8" rx="25" ry="5.25" fill="none" stroke="#61b2e4" stroke-miterlimit="10" stroke-width="2.1"/>
</svg>
