<svg viewBox="0 0 72 72" xmlns="http://www.w3.org/2000/svg">
  <path fill="#B3B3B3" d="M68 4v64H4V4h64m4-4H0v72h72V0z"/>
  <path fill="none" stroke="#00A5FF" stroke-miterlimit="10" stroke-width="0.1" d="M12.923 10.958h46.154c1.062 0 1.923.861 1.923 1.923h0v46.154a1.923 1.923 0 01-1.923 1.923H12.923A1.923 1.923 0 0111 59.035h0V12.881c0-1.062.861-1.923 1.923-1.923h0z"/>
  <path fill="none" stroke="#00A5FF" stroke-miterlimit="10" stroke-width="0.1" d="M18.254 4h35.492A2.254 2.254 0 0156 6.254v59.492A2.254 2.254 0 0153.746 68H18.254A2.254 2.254 0 0116 65.746V6.254A2.254 2.254 0 0118.254 4z"/>
  <path fill="none" stroke="#00A5FF" stroke-miterlimit="10" stroke-width="0.1" d="M68 18.254v35.492A2.254 2.254 0 0165.746 56H6.254A2.254 2.254 0 014 53.746V18.254A2.254 2.254 0 016.254 16h59.492A2.254 2.254 0 0168 18.254z"/>
  <circle cx="36" cy="36" r="29" fill="none" stroke="#00A5FF" stroke-miterlimit="10" stroke-width="0.1"/>
  <g fill="none" stroke="#fff" stroke-linecap="round" stroke-linejoin="round" stroke-miterlimit="10" stroke-width="6">
    <path d="M28.5 45c1.58-2.558 4.904-4.135 8.421-4.004 3.229.12 6.141 1.663 7.579 4.004m-4-13.275c.413-.344 2.246-1.791 4.91-1.636 2.16.126 3.61 1.233 4.09 1.636m-27 0c.413-.344 2.246-1.791 4.91-1.636 2.16.126 3.61 1.233 4.09 1.636"/>
    <path d="M32.076 13.334A23.141 23.141 0 0136 13c12.703 0 23 10.297 23 23S48.703 59 36 59 13 48.703 13 36c0-4.262 1.16-8.253 3.18-11.675"/>
    <path d="M24.812 10.587c.179.179 4.385 4.437 4.385 8.887 0 2.72-2.265 4.924-5.059 4.924s-5.06-2.205-5.06-4.924c0-4.45 4.207-8.708 4.386-8.887a.952.952 0 011.347 0h0z"/>
  </g>
  <path fill="#FCEA2B" d="M36 12c-13.234 0-24 10.766-24 24s10.766 24 24 24 24-10.766 24-24-10.766-24-24-24z"/>
  <path fill="#92D3F5" d="M24.812 10.587c.179.179 4.385 4.437 4.385 8.887 0 2.72-2.265 4.924-5.059 4.924s-5.06-2.205-5.06-4.924c0-4.45 4.207-8.708 4.386-8.887a.952.952 0 011.347 0z"/>
  <g fill="none" stroke="#000" stroke-miterlimit="10" stroke-width="2">
    <path stroke-linecap="round" stroke-linejoin="round" d="M28.5 45c1.58-2.558 4.904-4.135 8.421-4.004 3.229.12 6.141 1.663 7.579 4.004m-4-13.275c.413-.344 2.246-1.791 4.91-1.636 2.16.126 3.61 1.233 4.09 1.636m-27 0c.413-.344 2.246-1.791 4.91-1.636 2.16.126 3.61 1.233 4.09 1.636"/>
    <path stroke-linecap="round" d="M32.076 13.334A23.141 23.141 0 0136 13c12.703 0 23 10.297 23 23S48.703 59 36 59 13 48.703 13 36c0-4.262 1.16-8.253 3.18-11.675"/>
    <path d="M24.812 10.587c.179.179 4.385 4.437 4.385 8.887 0 2.72-2.265 4.924-5.059 4.924s-5.06-2.205-5.06-4.924c0-4.45 4.207-8.708 4.386-8.887a.952.952 0 011.347 0h0z"/>
  </g>
</svg>
