<svg viewBox="0 0 72 72" xmlns="http://www.w3.org/2000/svg">
  <path fill="#B3B3B3" d="M68 4v64H4V4h64m4-4H0v72h72V0z"/>
  <path fill="none" stroke="#00A5FF" stroke-miterlimit="10" stroke-width="0.1" d="M12.923 10.958h46.154c1.062 0 1.923.861 1.923 1.923v46.154a1.923 1.923 0 01-1.923 1.923H12.923A1.923 1.923 0 0111 59.035h0V12.881c0-1.062.861-1.923 1.923-1.923h0z"/>
  <path fill="none" stroke="#00A5FF" stroke-miterlimit="10" stroke-width="0.1" d="M18.254 4h35.492A2.254 2.254 0 0156 6.254v59.492A2.254 2.254 0 0153.746 68H18.254A2.254 2.254 0 0116 65.746V6.254A2.254 2.254 0 0118.254 4z"/>
  <path fill="none" stroke="#00A5FF" stroke-miterlimit="10" stroke-width="0.1" d="M68 18.254v35.492A2.254 2.254 0 0165.746 56H6.254A2.254 2.254 0 014 53.746V18.254A2.254 2.254 0 016.254 16h59.492A2.254 2.254 0 0168 18.254z"/>
  <circle cx="36" cy="36" r="29" fill="none" stroke="#00A5FF" stroke-miterlimit="10" stroke-width="0.1"/>
  <g fill="none" stroke="#fff" stroke-linecap="round" stroke-linejoin="round" stroke-miterlimit="10" stroke-width="6">
    <circle cx="36" cy="36" r="23"/>
    <path d="M26.5 46c1.877-2.55 5.824-4.123 10-3.992 3.834.12 7.293 1.658 9 3.992m-23-22.923c.413.344 2.246 1.792 4.91 1.637 2.16-.126 3.61-1.233 4.09-1.637m9 0c.413.344 2.246 1.792 4.91 1.637 2.16-.126 3.61-1.233 4.09-1.637M30 31a3.001 3.001 0 01-6 0c0-1.655 1.345-3 3-3s3 1.345 3 3m18 0a3.001 3.001 0 01-6 0c0-1.655 1.345-3 3-3s3 1.345 3 3"/>
  </g>
  <path fill="#FCEA2B" d="M36 13.116c-12.682 0-23 10.318-23 23s10.318 23 23 23 23-10.318 23-23-10.318-23-23-23z"/>
  <circle cx="36" cy="36" r="23" fill="none" stroke="#000" stroke-miterlimit="10" stroke-width="2"/>
  <path fill="none" stroke="#000" stroke-linecap="round" stroke-linejoin="round" stroke-miterlimit="10" stroke-width="2" d="M26.5 46c1.877-2.55 5.824-4.123 10-3.992 3.834.12 7.293 1.658 9 3.992m-23-22.923c.413.344 2.246 1.792 4.91 1.637 2.16-.126 3.61-1.233 4.09-1.637m9 0c.413.344 2.246 1.792 4.91 1.637 2.16-.126 3.61-1.233 4.09-1.637"/>
  <path d="M30 31a3.001 3.001 0 01-6 0c0-1.655 1.345-3 3-3s3 1.345 3 3m18 0a3.001 3.001 0 01-6 0c0-1.655 1.345-3 3-3s3 1.345 3 3"/>
</svg>
