<svg viewBox="0 0 72 72" xmlns="http://www.w3.org/2000/svg">
  <path fill="#B3B3B3" d="M68 4v64H4V4h64m4-4H0v72h72V0z"/>
  <path fill="none" stroke="#00A5FF" stroke-miterlimit="10" stroke-width="0.1" d="M12.923 10.958h46.154c1.062 0 1.923.861 1.923 1.923v46.154a1.923 1.923 0 01-1.923 1.923H12.923A1.923 1.923 0 0111 59.035h0V12.881c0-1.062.861-1.923 1.923-1.923h0z"/>
  <path fill="none" stroke="#00A5FF" stroke-miterlimit="10" stroke-width="0.1" d="M18.254 4h35.492A2.254 2.254 0 0156 6.254v59.492A2.254 2.254 0 0153.746 68H18.254A2.254 2.254 0 0116 65.746V6.254A2.254 2.254 0 0118.254 4z"/>
  <path fill="none" stroke="#00A5FF" stroke-miterlimit="10" stroke-width="0.1" d="M68 18.254v35.492A2.254 2.254 0 0165.746 56H6.254A2.254 2.254 0 014 53.746V18.254A2.254 2.254 0 016.254 16h59.492A2.254 2.254 0 0168 18.254z"/>
  <circle cx="36" cy="36" r="29" fill="none" stroke="#00A5FF" stroke-miterlimit="10" stroke-width="0.1"/>
  <g fill="none" stroke="#fff" stroke-linecap="round" stroke-linejoin="round" stroke-miterlimit="10" stroke-width="6">
    <path d="M46.834 56.293A22.899 22.899 0 0136 59c-12.703 0-23-10.297-23-23s10.297-23 23-23 23 10.297 23 23a23.03 23.03 0 01-.789 5.994"/>
    <path d="M40.5 32.725c.413-.344 2.246-1.791 4.91-1.636 2.16.126 3.61 1.233 4.09 1.636m-27 0c.413-.344 2.246-1.791 4.91-1.636 2.16.126 3.61 1.233 4.09 1.636m21.524 22.28a5.027 5.027 0 01-3.47-1.722c-2.927-3.352-2.558-9.327-2.54-9.58a.952.952 0 011.014-.885c.253.017 6.223.459 9.15 3.811h.001a5.067 5.067 0 01-.486 7.138 5.019 5.019 0 01-3.669 1.237zM29.5 45.5c1.284-.638 3.985-1.03 6.842-.998 2.624.03 4.99.414 6.158.998"/>
  </g>
  <circle cx="36" cy="36" r="24" fill="#FCEA2B"/>
  <path fill="#92D3F5" d="M53.024 55.005a5.027 5.027 0 01-3.47-1.722c-2.927-3.352-2.558-9.327-2.54-9.58a.952.952 0 011.014-.885c.253.017 6.223.459 9.15 3.811h.001a5.067 5.067 0 01-.486 7.138 5.019 5.019 0 01-3.669 1.237z"/>
  <g fill="none" stroke="#000" stroke-miterlimit="10" stroke-width="2">
    <path stroke-linecap="round" stroke-linejoin="round" d="M46.834 56.293A22.899 22.899 0 0136 59c-12.703 0-23-10.297-23-23s10.297-23 23-23 23 10.297 23 23a23.03 23.03 0 01-.789 5.994"/>
    <path stroke-linecap="round" stroke-linejoin="round" d="M40.5 32.725c.413-.344 2.246-1.791 4.91-1.636 2.16.126 3.61 1.233 4.09 1.636m-27 0c.413-.344 2.246-1.791 4.91-1.636 2.16.126 3.61 1.233 4.09 1.636"/>
    <path d="M53.024 55.005a5.027 5.027 0 01-3.47-1.722c-2.927-3.352-2.558-9.327-2.54-9.58a.952.952 0 011.014-.885c.253.017 6.223.459 9.15 3.811h.001a5.067 5.067 0 01-.486 7.138 5.019 5.019 0 01-3.669 1.237z"/>
    <path stroke-linecap="round" stroke-linejoin="round" d="M29.5 45.5c1.284-.638 3.985-1.03 6.842-.998 2.624.03 4.99.414 6.158.998"/>
  </g>
</svg>
