<svg viewBox="0 0 72 72" xmlns="http://www.w3.org/2000/svg">
  <path fill="#B3B3B3" d="M68 4v64H4V4h64m4-4H0v72h72V0z"/>
  <path fill="none" stroke="#00A5FF" stroke-miterlimit="10" stroke-width="0.1" d="M12.923 10.958h46.154c1.062 0 1.923.861 1.923 1.923v46.154a1.923 1.923 0 01-1.923 1.923H12.923A1.923 1.923 0 0111 59.035h0V12.881c0-1.062.861-1.923 1.923-1.923h0z"/>
  <path fill="none" stroke="#00A5FF" stroke-miterlimit="10" stroke-width="0.1" d="M18.254 4h35.492A2.254 2.254 0 0156 6.254v59.492A2.254 2.254 0 0153.746 68H18.254A2.254 2.254 0 0116 65.746V6.254A2.254 2.254 0 0118.254 4z"/>
  <path fill="none" stroke="#00A5FF" stroke-miterlimit="10" stroke-width="0.1" d="M68 18.254v35.492A2.254 2.254 0 0165.746 56H6.254A2.254 2.254 0 014 53.746V18.254A2.254 2.254 0 016.254 16h59.492A2.254 2.254 0 0168 18.254z"/>
  <circle cx="36" cy="36" r="29" fill="none" stroke="#00A5FF" stroke-miterlimit="10" stroke-width="0.1"/>
  <g fill="none" stroke="#fff" stroke-linecap="round" stroke-linejoin="round" stroke-miterlimit="10" stroke-width="6">
    <circle cx="36" cy="36" r="23"/>
    <path d="M26.5 48c1.877-3.833 5.824-6.197 10-6 3.834.18 7.293 2.493 9 6m-25.113-6.37a2.8 2.8 0 01-.826-1.994c0-2.479 2.344-4.85 2.443-4.95a.53.53 0 01.75 0c.1.1 2.444 2.472 2.444 4.951h0a2.822 2.822 0 01-2.818 2.818c-.753 0-1.46-.293-1.993-.825zM30 31a3.001 3.001 0 01-6 0c0-1.655 1.345-3 3-3s3 1.345 3 3m18 0a3.001 3.001 0 01-6 0c0-1.655 1.345-3 3-3s3 1.345 3 3"/>
  </g>
  <path fill="#FCEA2B" d="M36.2 13.316c-12.572 0-22.8 10.228-22.8 22.8 0 12.572 10.228 22.8 22.8 22.8 12.572 0 22.8-10.228 22.8-22.8 0-12.572-10.228-22.8-22.8-22.8z"/>
  <path fill="#92D3F5" d="M22.775 33.825c-1.077 1.101-3.115 3.487-3.293 5.916-.11 1.52 1.119 2.943 2.637 3.053a2.858 2.858 0 003.054-2.636c.177-2.43-1.493-5.086-2.398-6.334z"/>
  <circle cx="36" cy="36" r="23" fill="none" stroke="#000" stroke-miterlimit="10" stroke-width="2"/>
  <path fill="none" stroke="#000" stroke-linecap="round" stroke-linejoin="round" stroke-miterlimit="10" stroke-width="2" d="M26.5 48c1.877-3.833 5.824-6.197 10-6 3.834.18 7.293 2.493 9 6"/>
  <path fill="none" stroke="#000" stroke-miterlimit="10" stroke-width="2" d="M20.387 41.63a2.8 2.8 0 01-.826-1.994c0-2.479 2.344-4.85 2.443-4.95a.53.53 0 01.75 0c.1.1 2.444 2.472 2.444 4.951h0a2.822 2.822 0 01-2.818 2.818c-.753 0-1.46-.293-1.993-.825z"/>
  <path d="M30 31a3.001 3.001 0 01-6 0c0-1.655 1.345-3 3-3s3 1.345 3 3m18 0a3.001 3.001 0 01-6 0c0-1.655 1.345-3 3-3s3 1.345 3 3"/>
</svg>
