<svg viewBox="0 0 72 72" xmlns="http://www.w3.org/2000/svg">
  <path fill="#B3B3B3" d="M68 4v64H4V4h64m4-4H0v72h72V0z"/>
  <path fill="none" stroke="#00A5FF" stroke-miterlimit="10" stroke-width="0.1" d="M12.923 10.958h46.154c1.062 0 1.923.861 1.923 1.923v46.154a1.923 1.923 0 01-1.923 1.923H12.923A1.923 1.923 0 0111 59.035h0V12.881c0-1.062.861-1.923 1.923-1.923h0z"/>
  <path fill="none" stroke="#00A5FF" stroke-miterlimit="10" stroke-width="0.1" d="M18.254 4h35.492A2.254 2.254 0 0156 6.254v59.492A2.254 2.254 0 0153.746 68H18.254A2.254 2.254 0 0116 65.746V6.254A2.254 2.254 0 0118.254 4z"/>
  <path fill="none" stroke="#00A5FF" stroke-miterlimit="10" stroke-width="0.1" d="M68 18.254v35.492A2.254 2.254 0 0165.746 56H6.254A2.254 2.254 0 014 53.746V18.254A2.254 2.254 0 016.254 16h59.492A2.254 2.254 0 0168 18.254z"/>
  <circle cx="36" cy="36" r="29" fill="none" stroke="#00A5FF" stroke-miterlimit="10" stroke-width="0.1"/>
  <g fill="none" stroke="#fff" stroke-linecap="round" stroke-linejoin="round" stroke-miterlimit="10" stroke-width="6">
    <circle cx="36" cy="36" r="23"/>
    <path d="M30 30.925a3.001 3.001 0 01-6 0c0-1.655 1.345-3 3-3s3 1.345 3 3m18 0a3.001 3.001 0 01-6 0c0-1.655 1.345-3 3-3s3 1.345 3 3M28 46s-.12-2.904 0-3c1.369-.73 3.965-1 8-1 4 0 6.652.28 8 1 .088.057 0 3 0 3H28zm-4.852-21.75c.487.228 2.628 1.16 5.164.333 2.058-.672 3.177-2.112 3.54-2.624m17 2.291c-.487.228-2.628 1.16-5.164.333-2.058-.672-3.177-2.112-3.54-2.624"/>
  </g>
  <path fill="#FCEA2B" d="M36 13c-12.682 0-23 10.318-23 23s10.318 23 23 23 23-10.318 23-23-10.318-23-23-23z"/>
  <path fill="#FFF" d="M28 46s-.12-2.904 0-3c1.369-.73 3.965-1 8-1 4 0 6.652.28 8 1 .088.057 0 3 0 3H28z"/>
  <circle cx="36" cy="36" r="23" fill="none" stroke="#000" stroke-miterlimit="10" stroke-width="2"/>
  <path d="M30 30.925a3.001 3.001 0 01-6 0c0-1.655 1.345-3 3-3s3 1.345 3 3m18 0a3.001 3.001 0 01-6 0c0-1.655 1.345-3 3-3s3 1.345 3 3"/>
  <path fill="none" stroke="#000" stroke-linecap="round" stroke-linejoin="round" stroke-miterlimit="10" stroke-width="2" d="M28 46s-.12-2.904 0-3c1.369-.73 3.965-1 8-1 4 0 6.652.28 8 1 .088.057 0 3 0 3H28zm-4.852-21.75c.487.228 2.628 1.16 5.164.333 2.058-.672 3.177-2.112 3.54-2.624m17 2.291c-.487.228-2.628 1.16-5.164.333-2.058-.672-3.177-2.112-3.54-2.624"/>
</svg>
