<svg viewBox="0 0 72 72" xmlns="http://www.w3.org/2000/svg">
  <path fill="#b3b3b3" d="M68 4v64H4V4h64m4-4H0v72h72z"/>
  <rect x="11" y="10.958" rx="1.923" width="50" height="50" fill="none" stroke="#00a5ff" stroke-miterlimit="10" stroke-width="0.1"/>
  <rect x="16" y="4" rx="2.254" width="40" height="64" fill="none" stroke="#00a5ff" stroke-miterlimit="10" stroke-width="0.1"/>
  <rect x="4" y="16" rx="2.254" width="64" height="40" fill="none" stroke="#00a5ff" stroke-miterlimit="10" stroke-width="0.1"/>
  <circle cx="36" cy="36" r="29" fill="none" stroke="#00a5ff" stroke-miterlimit="10" stroke-width="0.1"/>
  <g fill="none" stroke="#fff" stroke-linecap="round" stroke-linejoin="round" stroke-miterlimit="10" stroke-width="6">
    <circle cx="36" cy="36" r="23"/>
    <path d="M29.5 43c1.284-.638 3.985-1.03 6.842-.998 2.624.03 4.99.414 6.158.998m5-14l-5 4m0-4l5 4m-18-4l-5 4m0-4l5 4"/>
  </g>
  <path fill="#FCEA2B" d="M36 13c-12.682 0-23 10.318-23 23s10.318 23 23 23 23-10.318 23-23-10.318-23-23-23z"/>
  <g fill="none" stroke="#000" stroke-miterlimit="10" stroke-width="2">
    <circle cx="36" cy="36" r="23"/>
    <path stroke-linecap="round" stroke-linejoin="round" d="M29.5 43c1.284-.638 3.985-1.03 6.842-.998 2.624.03 4.99.414 6.158.998m5-14l-5 4m0-4l5 4m-18-4l-5 4m0-4l5 4"/>
  </g>
</svg>
