<svg viewBox="0 0 72 72" xmlns="http://www.w3.org/2000/svg">
  <path fill="#B3B3B3" d="M68 4v64H4V4h64m4-4H0v72h72V0z"/>
  <path fill="none" stroke="#00A5FF" stroke-miterlimit="10" stroke-width="0.1" d="M12.923 10.958h46.154c1.062 0 1.923.861 1.923 1.923v46.154a1.923 1.923 0 01-1.923 1.923H12.923A1.923 1.923 0 0111 59.035h0V12.881c0-1.062.861-1.923 1.923-1.923h0z"/>
  <path fill="none" stroke="#00A5FF" stroke-miterlimit="10" stroke-width="0.1" d="M18.254 4h35.492A2.254 2.254 0 0156 6.254v59.492A2.254 2.254 0 0153.746 68H18.254A2.254 2.254 0 0116 65.746V6.254A2.254 2.254 0 0118.254 4z"/>
  <path fill="none" stroke="#00A5FF" stroke-miterlimit="10" stroke-width="0.1" d="M68 18.254v35.492A2.254 2.254 0 0165.746 56H6.254A2.254 2.254 0 014 53.746V18.254A2.254 2.254 0 016.254 16h59.492A2.254 2.254 0 0168 18.254z"/>
  <circle cx="36" cy="36" r="29" fill="none" stroke="#00A5FF" stroke-miterlimit="10" stroke-width="0.1"/>
  <g fill="none" stroke="#fff" stroke-linecap="round" stroke-linejoin="round" stroke-miterlimit="10" stroke-width="6">
    <path d="M30 31a3.001 3.001 0 01-6 0c0-1.655 1.345-3 3-3s3 1.345 3 3m18 0a3.001 3.001 0 01-6 0c0-1.655 1.345-3 3-3s3 1.345 3 3M26.5 48c1.877-3.833 5.824-6.197 10-6 3.834.18 7.293 2.493 9 6M23.148 24.25c.487.228 2.628 1.16 5.164.333 2.058-.672 3.177-2.112 3.54-2.624m17 2.291c-.487.228-2.628 1.16-5.164.333-2.058-.672-3.177-2.112-3.54-2.624M9.246 27.724a3.984 3.984 0 01.47-3.034c1.832-3.014 6.434-4.165 6.629-4.213a.755.755 0 01.912.555c.047.195 1.143 4.81-.689 7.825h0a4.015 4.015 0 01-5.51 1.342 3.977 3.977 0 01-1.812-2.475z"/>
    <path d="M21.997 17.745A22.906 22.906 0 0136 12.994c12.706 0 23.006 10.3 23.006 23.006S48.706 59.006 36 59.006 12.994 48.706 12.994 36c0-.396.01-.79.03-1.18"/>
  </g>
  <circle cx="36" cy="36" r="24" fill="#FCEA2B"/>
  <path fill="#92D3F5" d="M9.246 27.724a3.984 3.984 0 01.47-3.034c1.832-3.014 6.434-4.165 6.629-4.213a.755.755 0 01.912.555c.047.195 1.143 4.81-.689 7.825a4.015 4.015 0 01-5.51 1.342 3.977 3.977 0 01-1.812-2.475z"/>
  <path d="M30 31a3.001 3.001 0 01-6 0c0-1.655 1.345-3 3-3s3 1.345 3 3m18 0a3.001 3.001 0 01-6 0c0-1.655 1.345-3 3-3s3 1.345 3 3"/>
  <path fill="none" stroke="#000" stroke-linecap="round" stroke-linejoin="round" stroke-miterlimit="10" stroke-width="2" d="M26.5 48c1.877-3.833 5.824-6.197 10-6 3.834.18 7.293 2.493 9 6M23.148 24.25c.487.228 2.628 1.16 5.164.333 2.058-.672 3.177-2.112 3.54-2.624m17 2.291c-.487.228-2.628 1.16-5.164.333-2.058-.672-3.177-2.112-3.54-2.624"/>
  <path fill="none" stroke="#000" stroke-miterlimit="10" stroke-width="2" d="M9.246 27.724a3.984 3.984 0 01.47-3.034c1.832-3.014 6.434-4.165 6.629-4.213a.755.755 0 01.912.555c.047.195 1.143 4.81-.689 7.825h0a4.015 4.015 0 01-5.51 1.342 3.977 3.977 0 01-1.812-2.475z"/>
  <path fill="none" stroke="#000" stroke-linecap="round" stroke-miterlimit="10" stroke-width="2" d="M21.997 17.745A22.906 22.906 0 0136 12.994c12.706 0 23.006 10.3 23.006 23.006S48.706 59.006 36 59.006 12.994 48.706 12.994 36c0-.396.01-.79.03-1.18"/>
</svg>
