<svg viewBox="0 0 72 72" xmlns="http://www.w3.org/2000/svg">
  <path fill="#b3b3b3" d="M68 4v64H4V4h64m4-4H0v72h72V0z"/>
  <path fill="none" stroke="#00a5ff" stroke-miterlimit="10" stroke-width="0.1" d="M12.923 10.958h46.154A1.923 1.923 0 0161 12.881v46.154a1.923 1.923 0 01-1.923 1.923H12.923A1.923 1.923 0 0111 59.035V12.881a1.923 1.923 0 011.923-1.923z"/>
  <rect x="16" y="4" rx="2.254" ry="2.254" width="40" height="64" fill="none" stroke="#00a5ff" stroke-miterlimit="10" stroke-width="0.1"/>
  <rect x="16" y="4" rx="2.254" ry="2.254" width="40" height="64" transform="rotate(90 36 36)" fill="none" stroke="#00a5ff" stroke-miterlimit="10" stroke-width="0.1"/>
  <circle cx="36" cy="36" r="29" fill="none" stroke="#00a5ff" stroke-miterlimit="10" stroke-width="0.1"/>
  <g fill="none" stroke="#fff" stroke-linecap="round" stroke-linejoin="round" stroke-miterlimit="10" stroke-width="6">
    <path d="M3 56h64M21 16h46M34.358 26.392L40 21l-6-5M23.149 50.111h-.819a.891.891 0 01-.888-.888V28.29a1.902 1.902 0 011.896-1.897h41.485a1.902 1.902 0 011.896 1.897v20.934a.89.89 0 01-.888.889h-.829m-13.031-.002H35.845m-2.096 1.253a4.245 4.245 0 11-8.489 0m37.456-.253a4.245 4.245 0 01-8.489 0"/>
    <rect x="34.358" y="32.245" rx="1.058" ry="1.058" width="6.341" height="10.646"/>
    <rect x="21.402" y="32.245" rx="1.058" ry="1.058" width="6.341" height="10.646"/>
    <rect x="47.196" y="32.324" rx="1.058" ry="1.058" width="6.341" height="10.646"/>
    <rect x="60.379" y="32.324" rx="1.058" ry="1.058" width="6.341" height="10.646"/>
    <path d="M20.384 47.031h47.368"/>
  </g>
  <path fill="#ea5a47" d="M21.526 35.564h45.278v12.025H21.526z"/>
  <rect x="34.358" y="32.235" rx="1.058" ry="1.058" width="6.341" height="10.646" fill="#92d3f5"/>
  <rect x="21.402" y="32.235" rx="1.058" ry="1.058" width="6.341" height="10.646" fill="#92d3f5"/>
  <rect x="47.368" y="32.235" rx="1.058" ry="1.058" width="6.341" height="10.646" fill="#92d3f5"/>
  <rect x="60.379" y="32.235" rx="1.058" ry="1.058" width="6.341" height="10.646" fill="#92d3f5"/>
  <path fill="#d0cfce" d="M33.749 51.111a4.245 4.245 0 01-8.489 0m37.456 0a4.245 4.245 0 01-8.489 0"/>
  <path fill="#3f3f3f" d="M22.196 47.049h43.938v4.063H22.196z"/>
  <g stroke="#000" stroke-linecap="round">
    <path stroke-linejoin="round" stroke-width="2" d="M3 56h64"/>
    <path fill="none" stroke-linejoin="round" stroke-width="2" d="M21 16h46M34.358 26.392L40 21l-6-5"/>
    <path fill="none" stroke-miterlimit="10" stroke-width="2.074" d="M23.149 50.111h-.819a.891.891 0 01-.888-.888V28.29a1.902 1.902 0 011.896-1.897h41.485a1.902 1.902 0 011.896 1.897v20.934a.89.89 0 01-.888.889h-.829m-13.031-.002H35.845m-2.096 1.253a4.245 4.245 0 11-8.489 0m37.456-.253a4.245 4.245 0 01-8.489 0"/>
    <rect x="34.358" y="32.245" rx="1.058" ry="1.058" width="6.341" height="10.646" fill="none" stroke-miterlimit="10" stroke-width="2.074"/>
    <rect x="21.402" y="32.245" rx="1.058" ry="1.058" width="6.341" height="10.646" fill="none" stroke-miterlimit="10" stroke-width="2.074"/>
    <rect x="47.196" y="32.324" rx="1.058" ry="1.058" width="6.341" height="10.646" fill="none" stroke-miterlimit="10" stroke-width="2.074"/>
    <rect x="60.379" y="32.324" rx="1.058" ry="1.058" width="6.341" height="10.646" fill="none" stroke-miterlimit="10" stroke-width="2.074"/>
    <path fill="none" stroke-miterlimit="10" stroke-width="1.97" d="M20.384 47.031h47.368"/>
  </g>
</svg>
