<svg viewBox="0 0 72 72" xmlns="http://www.w3.org/2000/svg">
  <path fill="#b3b3b3" d="M68 4v64H4V4h64m4-4H0v72h72V0z"/>
  <path fill="none" stroke="#00a5ff" stroke-miterlimit="10" stroke-width="0.1" d="M12.923 10.958h46.154A1.923 1.923 0 0161 12.881v46.154a1.923 1.923 0 01-1.923 1.923H12.923A1.923 1.923 0 0111 59.035V12.881a1.923 1.923 0 011.923-1.923z"/>
  <rect x="16" y="4" rx="2.254" width="40" height="64" fill="none" stroke="#00a5ff" stroke-miterlimit="10" stroke-width="0.1"/>
  <rect x="16" y="4" rx="2.254" width="40" height="64" transform="rotate(90 36 36)" fill="none" stroke="#00a5ff" stroke-miterlimit="10" stroke-width="0.1"/>
  <circle cx="36" cy="36" r="29" fill="none" stroke="#00a5ff" stroke-miterlimit="10" stroke-width="0.1"/>
  <g fill="none" stroke="#fff" stroke-linecap="round" stroke-linejoin="round" stroke-miterlimit="10" stroke-width="6">
    <path d="M67 36.5H41.844a1.286 1.286 0 01-.69-2.37l7.26-4.62a12.857 12.857 0 016.902-2.01H67m-51.39 9h9.503a12.857 12.857 0 006.903-2.01l7.259-4.62a1.286 1.286 0 00-.69-2.37H29.11"/>
    <path d="M67 48H8.27a3 3 0 01-1.665-5.496L31.554 25.87a23.377 23.377 0 0112.967-3.926H67"/>
    <path d="M67 53.5H12.652a1.004 1.004 0 01-.503-1.873L18.413 48m48.519-4H18.64a.571.571 0 01-.307-1.054l3.227-2.053A5.714 5.714 0 0124.628 40h42.304"/>
  </g>
  <path fill="#9b9b9a" d="M68 48v5.5H12.652a1.004 1.004 0 01-.503-1.873L18.413 48z"/>
  <path fill="#3f3f3f" d="M68 36.5H41.844a1.286 1.286 0 01-.69-2.37l7.26-4.62a12.857 12.857 0 016.902-2.01H68m-52.39 9h9.503a12.857 12.857 0 006.903-2.01l7.259-4.62a1.286 1.286 0 00-.69-2.37H29.11"/>
  <path fill="#d22f27" d="M67.932 44H18.64a.571.571 0 01-.307-1.054l3.227-2.053A5.714 5.714 0 0124.628 40h43.304"/>
  <g>
    <g fill="none" stroke="#000" stroke-linecap="round" stroke-miterlimit="10" stroke-width="2">
      <path d="M67 36.5H41.844a1.286 1.286 0 01-.69-2.37l7.26-4.62a12.857 12.857 0 016.902-2.01H67m-51.39 9h9.503a12.857 12.857 0 006.903-2.01l7.259-4.62a1.286 1.286 0 00-.69-2.37H29.11"/>
      <path d="M67 48H8.27a3 3 0 01-1.665-5.496L31.554 25.87a23.377 23.377 0 0112.967-3.926H67"/>
      <path d="M67 53.5H12.652a1.004 1.004 0 01-.503-1.873L18.413 48m48.519-4H18.64a.571.571 0 01-.307-1.054l3.227-2.053A5.714 5.714 0 0124.628 40h42.304"/>
    </g>
  </g>
</svg>
