<svg viewBox="0 0 72 72" xmlns="http://www.w3.org/2000/svg">
  <path fill="#b2b2b2" d="M68 4v64H4V4h64m4-4H0v72h72V0z"/>
  <path fill="none" stroke="#00a4ff" stroke-miterlimit="10" stroke-width="0.1" d="M12.923 10.958h46.154A1.923 1.923 0 0161 12.881v46.154a1.923 1.923 0 01-1.923 1.923H12.923A1.923 1.923 0 0111 59.035V12.881a1.923 1.923 0 011.923-1.923z"/>
  <rect x="16" y="4" rx="2.254" width="40" height="64" fill="none" stroke="#00a4ff" stroke-miterlimit="10" stroke-width="0.1"/>
  <rect x="16" y="4" rx="2.254" width="40" height="64" transform="rotate(90 36 36)" fill="none" stroke="#00a4ff" stroke-miterlimit="10" stroke-width="0.1"/>
  <circle cx="36" cy="36" r="29" fill="none" stroke="#00a4ff" stroke-miterlimit="10" stroke-width="0.1"/>
  <g fill="none" stroke="#fff" stroke-linecap="round" stroke-linejoin="round" stroke-miterlimit="10" stroke-width="6">
    <path d="M14.146 29h41.708A1.146 1.146 0 0157 30.146V52h0-44 0V30.146A1.146 1.146 0 0114.146 29zM5 17h62v3H5zm11 2l3 6m6-6l-2 6m20-6l3 6m6-6l-2 6m-31 0h4m23 0h4m-2 0v3m-27-3v3m-5 15h38M16 32v11m38-11v11M16 32h38m-14 1v9m-10-9v9"/>
    <path d="M40 32h14v11H40zm-24 0h14v11H16zm19 0v11m-5-11h5v11h-5zm5 0h5v11h-5zm-5 11v8m10-8v8"/>
  </g>
  <g stroke-linejoin="round">
    <path fill="#fcea2b" stroke="#fcea2b" d="M13.5 28.5h43v24h-43z"/>
    <path fill="none" stroke="#61b2e4" stroke-width="2" d="M14 47.5h42"/>
    <path fill="#d0cfce" stroke="#d0cfce" stroke-linecap="round" stroke-width="2" d="M16.5 32.5h13v10h-13zm24 0h13v10h-13z"/>
    <path fill="#9b9b9a" stroke="#9b9b9a" stroke-linecap="round" d="M30.5 32.5h4v10h-4zm5 0h4v10h-4z"/>
  </g>
  <g stroke="#000" stroke-linecap="round" stroke-linejoin="round">
    <path fill="none" stroke-width="2.032" d="M14.146 29h41.708A1.146 1.146 0 0157 30.146V52h0-44 0V30.146A1.146 1.146 0 0114.146 29z"/>
    <path stroke-width="2" d="M5 17h62v3H5z"/>
    <path fill="none" stroke-width="2" d="M16 19l3 6m6-6l-2 6m20-6l3 6m6-6l-2 6m-31 0h4m23 0h4m-2 0v3m-27-3v3"/>
    <path fill="none" stroke-width="1.988" d="M16 43h38M16 32v11m38-11v11M16 32h38m-14 1v9m-10-9v9"/>
    <path fill="none" stroke-width="2" d="M40 32h14v11H40zm-24 0h14v11H16z"/>
    <path fill="none" stroke-width="1.988" d="M35 32v11"/>
    <path fill="none" stroke-width="2" d="M30 32h5v11h-5z"/>
    <path fill="none" d="M35 32h5v11h-5z"/>
    <path fill="none" stroke-width="2" d="M30 43v8m10-8v8"/>
  </g>
</svg>
