<svg viewBox="0 0 72 72" xmlns="http://www.w3.org/2000/svg">
  <path fill="#b3b3b3" d="M68 4v64H4V4h64m4-4H0v72h72V0z"/>
  <path fill="none" stroke="#00a5ff" stroke-miterlimit="10" stroke-width="0.1" d="M12.923 10.958h46.154A1.923 1.923 0 0161 12.881v46.154a1.923 1.923 0 01-1.923 1.923H12.923A1.923 1.923 0 0111 59.035V12.881a1.923 1.923 0 011.923-1.923z"/>
  <rect x="16" y="4" rx="2.254" width="40" height="64" fill="none" stroke="#00a5ff" stroke-miterlimit="10" stroke-width="0.1"/>
  <rect x="16" y="4" rx="2.254" width="40" height="64" transform="rotate(90 36 36)" fill="none" stroke="#00a5ff" stroke-miterlimit="10" stroke-width="0.1"/>
  <circle cx="36" cy="36" r="29" fill="none" stroke="#00a5ff" stroke-miterlimit="10" stroke-width="0.1"/>
  <g fill="none" stroke="#fff" stroke-linecap="round" stroke-linejoin="round" stroke-miterlimit="10" stroke-width="6">
    <circle cx="16.333" cy="53.25" r="3"/>
    <path d="M10.75 41h5.083v-5.917"/>
    <circle cx="57.417" cy="53.25" r="3"/>
    <circle cx="48.417" cy="53.25" r="3"/>
    <path d="M10.34 51.88H5.86a1 1 0 01-1-.99l-.086-6.277a2.992 2.992 0 01.313-1.37c.264-.53.6-1.201.64-1.254.058-.077.899-2.437 2.333-7.609 1.45-5.23 10.53-5.92 13.61-6a1 1 0 011.02 1v21.5c0 .32-.003.745-.003.745m19.938-.435H26.19V28.31c0-.55.45-1 1-1h39.06c.55 0 1 .45 1 1v21.88c0 .55-.45 1-1 1h-3.11"/>
  </g>
  <path fill="#d0cfce" d="M10.34 52.88H5.86a1 1 0 01-1-.99l-.086-7.277a2.992 2.992 0 01.313-1.37c.264-.53.6-1.201.64-1.254a.95.95 0 00.136-.248c.168-.457.763-2.189 2.197-7.361 1.45-5.23 10.53-5.92 13.61-6a1 1 0 011.02 1v22.5c0 .32-.003.745-.003.745"/>
  <path fill="#3f3f3f" d="M44.625 52.19H26.19V28.31c0-.55.45-1 1-1h39.06c.55 0 1 .45 1 1v21.88c0 .55-.81 1.968-1.36 1.968l-7.75.032"/>
  <circle cx="16.333" cy="53.25" r="3" fill="#d0cfce"/>
  <path fill="#3f3f3f" d="M9.833 41l5.875.02.125-6.895-3.194.068a1 1 0 00-.934.707L9.833 41"/>
  <circle cx="57.417" cy="53.25" r="3" fill="#d0cfce"/>
  <circle cx="48.417" cy="53.25" r="3" fill="#d0cfce"/>
  <g fill="none" stroke="#000" stroke-miterlimit="10" stroke-width="2">
    <circle cx="16.333" cy="53.25" r="3"/>
    <path stroke-linecap="round" stroke-linejoin="round" d="M10.75 41h5.083v-5.917"/>
    <circle cx="57.417" cy="53.25" r="3"/>
    <circle cx="48.417" cy="53.25" r="3"/>
    <path stroke-linecap="round" stroke-linejoin="round" d="M10.34 51.88H5.86a1 1 0 01-1-.99l-.086-6.277a2.992 2.992 0 01.313-1.37c.264-.53.6-1.201.64-1.254.058-.077.899-2.437 2.333-7.609 1.45-5.23 10.53-5.92 13.61-6a1 1 0 011.02 1v21.5c0 .32-.003.745-.003.745m19.938-.435H26.19V28.31c0-.55.45-1 1-1h39.06c.55 0 1 .45 1 1v21.88c0 .55-.45 1-1 1h-3.11"/>
  </g>
</svg>
