<svg viewBox="0 0 72 72" xmlns="http://www.w3.org/2000/svg">
  <path fill="#b3b3b3" d="M68 4v64H4V4h64m4-4H0v72h72z"/>
  <path fill="none" stroke="#00a5ff" stroke-miterlimit="10" stroke-width="0.1" d="M12.9 11h46.2a1.899 1.899 0 011.9 1.9h0V59a1.899 1.899 0 01-1.9 1.9H12.9A1.837 1.837 0 0111 59h0V12.9a1.899 1.899 0 011.9-1.9z"/>
  <path fill="none" stroke="#00a5ff" stroke-miterlimit="10" stroke-width="0.1" d="M18.3 4h35.5A2.243 2.243 0 0156 6.3v59.5a2.326 2.326 0 01-2.3 2.3H18.3a2.414 2.414 0 01-2.3-2.4V6.3A2.263 2.263 0 0118.3 4z"/>
  <path fill="none" stroke="#00a5ff" stroke-miterlimit="10" stroke-width="0.1" d="M68 18.3v35.5a2.326 2.326 0 01-2.3 2.3H6.3A2.414 2.414 0 014 53.7V18.3A2.263 2.263 0 016.3 16h59.5a2.243 2.243 0 012.2 2.3z"/>
  <circle cx="36" cy="36" r="29" fill="none" stroke="#00a5ff" stroke-miterlimit="10" stroke-width="0.1"/>
  <path fill="none" stroke="#fff" stroke-linecap="round" stroke-linejoin="round" stroke-miterlimit="10" stroke-width="6" d="M17.8 23.5l-4.7-4.7m41 4.7l4.7-4.7M36.4 14V8m-15 43V36a14.959 14.959 0 0114.9-15h0a15.089 15.089 0 0114.9 15v15m-30.1 0h30.5a4.801 4.801 0 014.8 4.8h0a4.801 4.801 0 01-4.8 4.8H21.1a4.801 4.801 0 01-4.8-4.8h0a4.935 4.935 0 014.8-4.8z"/>
  <path fill="#ea5a47" d="M21.4 51V36a14.959 14.959 0 0114.9-15 15.089 15.089 0 0114.9 15v15"/>
  <path fill="#d0cfce" d="M21.4 51h30a4.951 4.951 0 015 5 4.951 4.951 0 01-5 5h-30a4.951 4.951 0 01-5-5 4.951 4.951 0 015-5z"/>
  <path fill="#d22f27" d="M51.4 36a14.938 14.938 0 00-14.8-15 14.706 14.706 0 00-4.2.6c9.4 3.8 10.3 23.2 10.4 29.4h8.7V36z"/>
  <g fill="none" stroke="#000" stroke-linecap="round" stroke-linejoin="round" stroke-width="2">
    <path d="M17.8 23.5l-4.7-4.7m41 4.7l4.7-4.7M36.4 14V8m-15 43V36a14.959 14.959 0 0114.9-15h0a15.089 15.089 0 0114.9 15v15m-30.1 0h30.5a4.801 4.801 0 014.8 4.8h0a4.801 4.801 0 01-4.8 4.8H21.1a4.801 4.801 0 01-4.8-4.8h0a4.935 4.935 0 014.8-4.8z"/>
  </g>
</svg>
