<svg viewBox="0 0 72 72" xmlns="http://www.w3.org/2000/svg">
  <path fill="#b3b3b3" d="M68 4v64H4V4h64m4-4H0v72h72V0z"/>
  <path fill="none" stroke="#00a5ff" stroke-miterlimit="10" stroke-width="0.1" d="M12.923 10.958h46.154A1.923 1.923 0 0161 12.881v46.154a1.923 1.923 0 01-1.923 1.923H12.923A1.923 1.923 0 0111 59.035V12.881a1.923 1.923 0 011.923-1.923z"/>
  <rect x="16" y="4" rx="2.254" width="40" height="64" fill="none" stroke="#00a5ff" stroke-miterlimit="10" stroke-width="0.1"/>
  <rect x="16" y="4" rx="2.254" width="40" height="64" transform="rotate(90 36 36)" fill="none" stroke="#00a5ff" stroke-miterlimit="10" stroke-width="0.1"/>
  <circle cx="36" cy="36" r="29" fill="none" stroke="#00a5ff" stroke-miterlimit="10" stroke-width="0.1"/>
  <g fill="none" stroke="#fff" stroke-linecap="round" stroke-linejoin="round" stroke-miterlimit="10" stroke-width="6">
    <path d="M66.987 42.18H5.012A1.015 1.015 0 014 41.168v-7.642c0-.557.456-1.012 1.012-1.012h61.975c.557 0 1.013.455 1.013 1.012v7.642c0 .557-.456 1.012-1.013 1.012z"/>
    <path d="M67 42.18H50.125c-.55 0-1-.45-1-1v-7.666c0-.55.45-1 1-1H67c.55 0 1 .45 1 1v7.666c0 .55-.45 1-1 1zm-56.993 0H4.993A.996.996 0 014 41.187v-7.68c0-.546.447-.993.993-.993h5.014c.546 0 .993.446.993.993v7.68a.996.996 0 01-.993.993z"/>
  </g>
  <path fill="#FFF" d="M66.987 42.18H5.012A1.015 1.015 0 014 41.168v-7.642c0-.557.456-1.012 1.012-1.012h61.975c.557 0 1.013.455 1.013 1.012v7.642c0 .557-.456 1.012-1.013 1.012z"/>
  <path fill="#f4aa41" d="M67 42.18H50.125c-.55 0-1-.45-1-1v-7.666c0-.55.45-1 1-1H67c.55 0 1 .45 1 1v7.666c0 .55-.45 1-1 1z"/>
  <path fill="#9b9b9a" d="M10.007 42.18H4.993A.996.996 0 014 41.187v-7.68c0-.546.447-.993.993-.993h5.014c.546 0 .993.446.993.993v7.68a.996.996 0 01-.993.993z"/>
  <g fill="none" stroke="#000" stroke-linecap="round" stroke-linejoin="round" stroke-miterlimit="10" stroke-width="2">
    <path d="M66.987 42.18H5.012A1.015 1.015 0 014 41.168v-7.642c0-.557.456-1.012 1.012-1.012h61.975c.557 0 1.013.455 1.013 1.012v7.642c0 .557-.456 1.012-1.013 1.012z"/>
    <path d="M67 42.18H50.125c-.55 0-1-.45-1-1v-7.666c0-.55.45-1 1-1H67c.55 0 1 .45 1 1v7.666c0 .55-.45 1-1 1zm-56.993 0H4.993A.996.996 0 014 41.187v-7.68c0-.546.447-.993.993-.993h5.014c.546 0 .993.446.993.993v7.68a.996.996 0 01-.993.993z"/>
  </g>
</svg>
