<svg viewBox="0 0 72 72" xmlns="http://www.w3.org/2000/svg">
  <path fill="#b2b2b2" d="M68 4v64H4V4h64m4-4H0v72h72V0z"/>
  <path fill="none" stroke="#00a4ff" stroke-miterlimit="10" stroke-width="0.1" d="M12.923 10.958h46.154A1.923 1.923 0 0161 12.881v46.154a1.923 1.923 0 01-1.923 1.923H12.923A1.923 1.923 0 0111 59.035V12.881a1.923 1.923 0 011.923-1.923z"/>
  <rect x="16" y="4" rx="2.254" width="40" height="64" fill="none" stroke="#00a4ff" stroke-miterlimit="10" stroke-width="0.1"/>
  <rect x="16" y="4" rx="2.254" width="40" height="64" transform="rotate(90 36 36)" fill="none" stroke="#00a4ff" stroke-miterlimit="10" stroke-width="0.1"/>
  <circle cx="36" cy="36" r="29" fill="none" stroke="#00a4ff" stroke-miterlimit="10" stroke-width="0.1"/>
  <g fill="#61b2e4">
    <path d="M37.8 34.2v3.6h-3.6v-3.6h3.6m.2-.2h-4v4h4v-4z"/>
    <path d="M71.8.2v71.6H.2V.2h71.6M72 0H0v72h72V0z"/>
    <path d="M67.8 4.2v63.6H4.2V4.2h63.6M68 4H4v64h64V4z"/>
  </g>
  <g fill="none" stroke="#fff" stroke-linecap="round" stroke-linejoin="round" stroke-miterlimit="10" stroke-width="6">
    <rect x="30" y="20" rx="1.732" width="4" height="4" transform="rotate(9.671 32 22)"/>
    <rect x="35" y="21" rx="1.732" width="4" height="4" transform="rotate(9.671 37 23)"/>
    <rect x="40" y="22" rx="1.732" width="4" height="4" transform="rotate(9.667 41.998 24.003)"/>
    <rect x="25" y="19" rx="1.732" width="4" height="4" transform="rotate(9.667 26.998 21.002)"/>
    <path d="M12 18l48 10m-25-5v8m1 3h6v11h-6zm-9 0h6v13h-6z"/>
    <path d="M27 30h15v23H27z"/>
  </g>
  <path fill="#3f3f3f" d="M33.429 22.514c.056.261-.474.898-.165.593a1.544 1.544 0 00.43-.945 1.603 1.603 0 00-.807-1.61 1.5 1.5 0 10-1.514 2.59l.064.037-.689-.896.026.078v-.798l-.017.084.385-.662a2.564 2.564 0 00-.64 1.032 2.824 2.824 0 00.034 1.294 1.5 1.5 0 102.893-.797zm8.568 2.912a1.5 1.5 0 000-3 1.5 1.5 0 000 3zm-4.801-1.004a1.5 1.5 0 000-3 1.5 1.5 0 000 3zm-10.969-4.388a1.61 1.61 0 001.567 2.701 1.515 1.515 0 001.048-1.845 2.72 2.72 0 00-1.08-1.438 1.51 1.51 0 00-2.053.538 1.535 1.535 0 00.538 2.052.632.632 0 01-.298-.355l1.047-1.845-.094.025 1.156.15-.08-.053.742 1.295-.003-.097-.439 1.06.07-.067a1.5 1.5 0 10-2.12-2.12z"/>
  <path fill="#fcea2b" stroke="#000" stroke-linejoin="round" stroke-width="2" d="M27 30h15v23H27z"/>
  <path fill="none" stroke="#61b2e4" stroke-linejoin="round" stroke-width="2" d="M28 50h14"/>
  <path fill="#d0cfce" stroke="#d0cfce" stroke-linejoin="round" stroke-width="1.633" d="M27 42h6v4h-6z"/>
  <path fill="#3f3f3f" stroke="#3f3f3f" stroke-linejoin="round" stroke-width="1.472" d="M27 34h6v6.5h-6z"/>
  <path fill="#d0cfce" stroke="#d0cfce" stroke-linejoin="round" stroke-width="2" d="M36 34h6v11h-6z"/>
  <g fill="none" stroke="#000" stroke-width="2">
    <rect x="30" y="20" rx="1.732" width="4" height="4" transform="rotate(9.671 32 22)" stroke-miterlimit="10"/>
    <rect x="35" y="21" rx="1.732" width="4" height="4" transform="rotate(9.671 37 23)" stroke-miterlimit="10"/>
    <rect x="40" y="22" rx="1.732" width="4" height="4" transform="rotate(9.667 41.998 24.003)" stroke-miterlimit="10"/>
    <rect x="25" y="19" rx="1.732" width="4" height="4" transform="rotate(9.667 26.998 21.002)" stroke-miterlimit="10"/>
    <path stroke-miterlimit="10" d="M12 18l48 10m-25-5v8"/>
    <path stroke-linejoin="round" d="M36 34h6v11h-6zm-9 0h6v13h-6z"/>
    <path stroke-linejoin="round" d="M27 30h15v23H27z"/>
  </g>
</svg>
