<svg viewBox="0 0 72 72" xmlns="http://www.w3.org/2000/svg">
  <path fill="#b3b3b3" d="M68 4v64H4V4h64m4-4H0v72h72V0z"/>
  <path fill="none" stroke="#00a5ff" stroke-miterlimit="10" stroke-width="0.1" d="M12.923 10.958h46.154A1.923 1.923 0 0161 12.881v46.154a1.923 1.923 0 01-1.923 1.923H12.923A1.923 1.923 0 0111 59.035V12.881a1.923 1.923 0 011.923-1.923z"/>
  <rect x="16" y="4" rx="2.254" width="40" height="64" fill="none" stroke="#00a5ff" stroke-miterlimit="10" stroke-width="0.1"/>
  <rect x="16" y="4" rx="2.254" width="40" height="64" transform="rotate(90 36 36)" fill="none" stroke="#00a5ff" stroke-miterlimit="10" stroke-width="0.1"/>
  <circle cx="36" cy="36" r="29" fill="none" stroke="#00a5ff" stroke-miterlimit="10" stroke-width="0.1"/>
  <g fill="none" stroke="#fff" stroke-linecap="round" stroke-linejoin="round" stroke-miterlimit="10" stroke-width="6">
    <path d="M60 61H12a1 1 0 01-1-1V12a1 1 0 011-1h48a1 1 0 011 1v48a1 1 0 01-1 1z"/>
    <path d="M47.4 40c-4.536-5.67-11.9-5.684-11.9-5.684S28.136 34.33 23.6 40"/>
    <path d="M39 38.6l5.6 11.2s0 1.4-1.4 1.4-5.6-4.2-5.6-4.2h-2.8 1.4-2.8s-4.2 4.2-5.6 4.2c-1.4 0-1.4-1.4-1.4-1.4L32 38.6"/>
    <path d="M33.4 47l-2.8-2.8v-2.8h9.8v2.8L37.6 47z"/>
    <circle cx="36.2" cy="27" r="4.2"/>
  </g>
  <path fill="#61b2e4" d="M60 61H12a1 1 0 01-1-1V12a1 1 0 011-1h48a1 1 0 011 1v48a1 1 0 01-1 1z"/>
  <path fill="#FFF" d="M40.416 37.653s-1.11-.284-.716.9l-3.618-1.993 1.04-1.18 3.294 2.273zm-9.959 0s1.109-.284.716.9l3.618-1.993-1.04-1.18-3.294 2.273z"/>
  <path fill="none" stroke="#FFF" stroke-linecap="round" stroke-linejoin="round" stroke-miterlimit="10" stroke-width="3" d="M46.2 39.6c-5.3-4.6-10.7-4.233-10.7-4.233S29.9 35 24.6 39.6"/>
  <path fill="#FFF" d="M31 39l2-4 5.889-.03L40 39h-9"/>
  <path fill="#FFF" d="M39 38.6l5.6 11.2s0 1.4-1.4 1.4-5.6-4.2-5.6-4.2h-2.8 1.4-2.8s-4.2 4.2-5.6 4.2c-1.4 0-1.4-1.4-1.4-1.4L32 38.6"/>
  <path fill="#FFF" d="M33.4 47l-2.8-2.8v-2.8h9.8v2.8L37.6 47z"/>
  <circle cx="36.2" cy="27" r="4.2" fill="#FFF"/>
  <g fill="none" stroke="#000" stroke-linecap="round" stroke-linejoin="round" stroke-miterlimit="10" stroke-width="2">
    <path d="M60 61H12a1 1 0 01-1-1V12a1 1 0 011-1h48a1 1 0 011 1v48a1 1 0 01-1 1z"/>
    <path d="M47.4 40c-4.536-5.67-11.9-5.684-11.9-5.684S28.136 34.33 23.6 40"/>
    <path d="M39 38.6l5.6 11.2s0 1.4-1.4 1.4-5.6-4.2-5.6-4.2h-2.8 1.4-2.8s-4.2 4.2-5.6 4.2c-1.4 0-1.4-1.4-1.4-1.4L32 38.6"/>
    <path d="M33.4 47l-2.8-2.8v-2.8h9.8v2.8L37.6 47z"/>
    <circle cx="36.2" cy="27" r="4.2"/>
  </g>
</svg>
