<svg viewBox="0 0 72 72" xmlns="http://www.w3.org/2000/svg">
  <path fill="#B3B3B3" d="M68 4v64H4V4h64m4-4H0v72h72V0z"/>
  <path fill="none" stroke="#00A5FF" stroke-miterlimit="10" stroke-width="0.1" d="M12.923 10.958h46.154c1.062 0 1.923.861 1.923 1.923v46.154a1.923 1.923 0 01-1.923 1.923H12.923A1.923 1.923 0 0111 59.035h0V12.881c0-1.062.861-1.923 1.923-1.923h0z"/>
  <path fill="none" stroke="#00A5FF" stroke-miterlimit="10" stroke-width="0.1" d="M18.254 4h35.492A2.254 2.254 0 0156 6.254v59.492A2.254 2.254 0 0153.746 68H18.254A2.254 2.254 0 0116 65.746V6.254A2.254 2.254 0 0118.254 4z"/>
  <path fill="none" stroke="#00A5FF" stroke-miterlimit="10" stroke-width="0.1" d="M68 18.254v35.492A2.254 2.254 0 0165.746 56H6.254A2.254 2.254 0 014 53.746V18.254A2.254 2.254 0 016.254 16h59.492A2.254 2.254 0 0168 18.254z"/>
  <circle cx="36" cy="36" r="29" fill="none" stroke="#00A5FF" stroke-miterlimit="10" stroke-width="0.1"/>
  <g fill="none" stroke="#fff" stroke-linecap="round" stroke-linejoin="round" stroke-miterlimit="10" stroke-width="6">
    <path d="M50.085 41.732a4.902 4.902 0 01-3.264 1.238h0a4.92 4.92 0 01-4.92-4.92v-3.937 3.936-3.936a4.92 4.92 0 014.92-4.92h0c1.253 0 2.396.467 3.264 1.238M37.66 29.192L33.725 42.97l-3.936-13.778L25.85 42.97l-3.936-13.778"/>
    <path d="M60 61H12a1 1 0 01-1-1V12a1 1 0 011-1h48a1 1 0 011 1v48a1 1 0 01-1 1z"/>
  </g>
  <path fill="none" stroke="#000" stroke-linecap="round" stroke-linejoin="round" stroke-miterlimit="10" stroke-width="2" d="M50.085 41.732a4.902 4.902 0 01-3.264 1.238h0a4.92 4.92 0 01-4.92-4.92v-3.937 3.936-3.936a4.92 4.92 0 014.92-4.92h0c1.253 0 2.396.467 3.264 1.238M37.66 29.192L33.725 42.97l-3.936-13.778L25.85 42.97l-3.936-13.778"/>
  <path fill="#61B2E4" d="M60 61H12a1 1 0 01-1-1V12a1 1 0 011-1h48a1 1 0 011 1v48a1 1 0 01-1 1z"/>
  <path fill="none" stroke="#FFF" stroke-linecap="round" stroke-linejoin="round" stroke-miterlimit="10" stroke-width="2" d="M50.085 41.732a4.902 4.902 0 01-3.264 1.238h0a4.92 4.92 0 01-4.92-4.92v-3.937 3.936-3.936a4.92 4.92 0 014.92-4.92h0c1.253 0 2.396.467 3.264 1.238M37.66 29.192L33.725 42.97l-3.936-13.778L25.85 42.97l-3.936-13.778"/>
  <path fill="none" stroke="#000" stroke-linecap="round" stroke-linejoin="round" stroke-miterlimit="10" stroke-width="2" d="M60 61H12a1 1 0 01-1-1V12a1 1 0 011-1h48a1 1 0 011 1v48a1 1 0 01-1 1z"/>
</svg>
