<svg viewBox="0 0 72 72" xmlns="http://www.w3.org/2000/svg">
  <path fill="#b3b3b3" d="M0 68.635h68.636V0H0zM3.813 3.813h61.01v61.01H3.813z"/>
  <path fill="none" stroke="#00a5ff" stroke-miterlimit="10" stroke-width="0.1" d="M56.317 58.11H12.319a1.833 1.833 0 01-1.833-1.833V12.28a1.833 1.833 0 011.833-1.834h43.998a1.833 1.833 0 011.833 1.834v43.996a1.833 1.833 0 01-1.833 1.834z"/>
  <path fill="none" stroke="#00a5ff" stroke-miterlimit="10" stroke-width="0.1" d="M51.235 64.822H17.4a2.148 2.148 0 01-2.148-2.148V5.962A2.148 2.148 0 0117.4 3.813h33.834a2.148 2.148 0 012.149 2.149v56.712a2.148 2.148 0 01-2.15 2.148z"/>
  <path fill="none" stroke="#00a5ff" stroke-miterlimit="10" stroke-width="0.1" d="M3.813 51.234V17.401a2.148 2.148 0 012.149-2.149h56.712a2.148 2.148 0 012.149 2.149v33.834a2.148 2.148 0 01-2.149 2.148H5.962a2.148 2.148 0 01-2.149-2.149z"/>
  <circle cx="34.318" cy="34.318" r="27.645" fill="none" stroke="#00a5ff" stroke-miterlimit="10" stroke-width="0.1"/>
  <g fill="none" stroke="#fff" stroke-linecap="round" stroke-linejoin="round" stroke-miterlimit="10" stroke-width="6">
    <circle cx="19.161" cy="49.57" r="9.723"/>
    <circle cx="49.666" cy="49.57" r="9.723"/>
    <path d="M19.257 49.57l1.906-22.878h3.623"/>
    <circle cx="32.793" cy="10.581" r="3"/>
    <path d="M25.071 26.787l4.099-2.765a11.818 11.818 0 002.67-2.669l1.811-2.574a3.942 3.942 0 012.955-1.525 3.055 3.055 0 012.574 1.811l4.385 10.01a4.741 4.741 0 01-.095 3.432l-.096.19a5.875 5.875 0 01-2.669 2.383l-5.243 2.288a1.935 1.935 0 00-1.049 2.478l2.479 6.101a2.285 2.285 0 01-.667 2.67 1.73 1.73 0 01-2.384-.763l-4.194-7.817a8.65 8.65 0 01-.858-3.24 3.666 3.666 0 011.62-2.575l4.385-2.764a2.784 2.784 0 001.144-2.86l-1.43-5.72"/>
    <path d="M36.225 48.617l-.954 2.955a2.66 2.66 0 01-2.287 1.811 1.622 1.622 0 01-1.526-1.906l.858-6.387m8.103-9.914l-3.432 10.962"/>
  </g>
  <g fill="#fcea2b">
    <circle cx="32.793" cy="10.581" r="2.86"/>
    <path d="M32.793 19.923l1.906-2.764 3.623.095 6.005 13.441-2.002 3.623-2.383 2.383-2.955 10.677-3.24 6.387-2.289-1.907.858-6.768-3.622-6.673.095-3.146 7.626-4.766-2.669-7.15"/>
  </g>
  <g fill="none" stroke="#000" stroke-width="2">
    <circle cx="19.161" cy="49.57" r="9.723" stroke-miterlimit="10"/>
    <circle cx="49.666" cy="49.57" r="9.723" stroke-miterlimit="10"/>
    <path stroke-linecap="round" stroke-linejoin="round" d="M19.257 49.57l1.906-22.878h3.623"/>
    <circle cx="32.793" cy="10.581" r="3" stroke-miterlimit="10"/>
    <path stroke-linecap="round" stroke-linejoin="round" d="M25.071 26.787l4.099-2.765a11.818 11.818 0 002.67-2.669l1.811-2.574a3.942 3.942 0 012.955-1.525 3.055 3.055 0 012.574 1.811l4.385 10.01a4.741 4.741 0 01-.095 3.432l-.096.19a5.875 5.875 0 01-2.669 2.383l-5.243 2.288a1.935 1.935 0 00-1.049 2.478l2.479 6.101a2.285 2.285 0 01-.667 2.67 1.73 1.73 0 01-2.384-.763l-4.194-7.817a8.65 8.65 0 01-.858-3.24 3.666 3.666 0 011.62-2.575l4.385-2.764a2.784 2.784 0 001.144-2.86l-1.43-5.72"/>
    <path stroke-miterlimit="10" d="M36.225 48.617l-.954 2.955a2.66 2.66 0 01-2.287 1.811 1.622 1.622 0 01-1.526-1.906l.858-6.387m8.103-9.914l-3.432 10.962"/>
  </g>
</svg>
