<svg viewBox="0 0 72 72" xmlns="http://www.w3.org/2000/svg">
  <path fill="#b3b3b3" d="M68 4v64H4V4h64m4-4H0v72h72V0z"/>
  <path fill="none" stroke="#00a5ff" stroke-miterlimit="10" stroke-width="0.1" d="M12.923 10.958h46.154A1.923 1.923 0 0161 12.881v46.154a1.923 1.923 0 01-1.923 1.923H12.923A1.923 1.923 0 0111 59.035V12.881a1.923 1.923 0 011.923-1.923z"/>
  <rect x="16" y="4" rx="2.254" width="40" height="64" fill="none" stroke="#00a5ff" stroke-miterlimit="10" stroke-width="0.1"/>
  <rect x="16" y="4" rx="2.254" width="40" height="64" transform="rotate(90 36 36)" fill="none" stroke="#00a5ff" stroke-miterlimit="10" stroke-width="0.1"/>
  <circle cx="36" cy="36" r="29" fill="none" stroke="#00a5ff" stroke-miterlimit="10" stroke-width="0.1"/>
  <path fill="none" stroke="#fff" stroke-linecap="round" stroke-linejoin="round" stroke-miterlimit="10" stroke-width="6" d="M36.002 60.96h-25l5-39.959h2.57m7.175.001h10.254m.001 39.958h25l-5-39.959h-2.57m-7.176.001H36.002m-13.953 6.66v-6.62c0-7.754 6.286-14.04 14.04-14.04s14.041 6.286 14.041 14.04v6.62"/>
  <path fill="#EA5A47" d="M25.747 21.002h10.254"/>
  <path fill="#FCEA2B" d="M36.002 60.96h25l-5-40.867h-40l-5 40.867h25"/>
  <path fill="#EA5A47" d="M46.256 21.002H36.002"/>
  <path fill="none" stroke="#000" stroke-linecap="round" stroke-linejoin="round" stroke-miterlimit="10" stroke-width="2" d="M36.002 60.96h-25l5-39.959h2.57m7.175.001h10.254m.001 39.958h25l-5-39.959h-2.57m-7.176.001H36.002m-13.953 6.66v-6.62c0-7.754 6.286-14.04 14.04-14.04s14.041 6.286 14.041 14.04v6.62"/>
</svg>
