<svg viewBox="0 0 72 72" xmlns="http://www.w3.org/2000/svg">
  <path fill="#b2b2b2" d="M68 4v64H4V4h64m4-4H0v72h72z"/>
  <path fill="none" stroke="#00a4ff" stroke-miterlimit="10" stroke-width="0.1" d="M12.9 11h46.2a1.899 1.899 0 011.9 1.9h0V59a1.899 1.899 0 01-1.9 1.9H12.9A1.837 1.837 0 0111 59h0V12.9a1.899 1.899 0 011.9-1.9z"/>
  <path fill="none" stroke="#00a4ff" stroke-miterlimit="10" stroke-width="0.1" d="M18.3 4h35.5A2.243 2.243 0 0156 6.3v59.5a2.326 2.326 0 01-2.3 2.3H18.3a2.414 2.414 0 01-2.3-2.4V6.3A2.263 2.263 0 0118.3 4z"/>
  <path fill="none" stroke="#00a4ff" stroke-miterlimit="10" stroke-width="0.1" d="M68 18.3v35.5a2.326 2.326 0 01-2.3 2.3H6.3A2.414 2.414 0 014 53.7V18.3A2.263 2.263 0 016.3 16h59.5a2.243 2.243 0 012.2 2.3z"/>
  <circle cx="36" cy="36" r="29" fill="none" stroke="#00a4ff" stroke-miterlimit="10" stroke-width="0.1"/>
  <g fill="none" stroke="#fff" stroke-linecap="round" stroke-linejoin="round" stroke-miterlimit="10" stroke-width="6">
    <path d="M19.1 33.3a17.65 17.65 0 0135.3-.1v.1m-37.1 1h39A1.752 1.752 0 0158 36v.1a1.752 1.752 0 01-1.7 1.7h-39a1.752 1.752 0 01-1.7-1.7V36a1.627 1.627 0 011.7-1.7zM35 38.4h3.5v2.4H35zm-17.6 3.5h37.7v3.5H17.4zM15 45.5h42.4V49H15z"/>
    <path d="M35 15a2.35 2.35 0 114.7-.1h0"/>
  </g>
  <path fill="#f1b31c" stroke="#f1b31c" stroke-miterlimit="10" d="M36.4 16.8a17.669 17.669 0 00-17.7 17.7H54a17.584 17.584 0 00-17.6-17.7z"/>
  <path fill="#f1b31c" d="M37.5 15.6a1.771 1.771 0 001.7-1.8 1.752 1.752 0 00-1.7-1.7 1.771 1.771 0 00-1.7 1.8 1.685 1.685 0 001.7 1.7zm-.8 26a1.771 1.771 0 001.7-1.8 1.752 1.752 0 00-1.7-1.7 1.771 1.771 0 00-1.7 1.8 1.627 1.627 0 001.7 1.7z"/>
  <path fill="#fff" d="M40.8 23c.7-.1 1.3.5 1.9.8a4.013 4.013 0 011.6 1.3c1 1.6 3.6.1 2.6-1.5a7.809 7.809 0 00-2.7-2.4 6.1 6.1 0 00-3.4-1.2 1.5 1.5 0 000 3z"/>
  <path fill="none" stroke="#6a462f" stroke-miterlimit="10" stroke-width="3" d="M14.5 47.5h42"/>
  <path fill="none" stroke="#6a462f" stroke-miterlimit="10" stroke-width="2.356" d="M17.9 43.7h36.6"/>
  <path fill="none" stroke="#f1b31c" stroke-miterlimit="10" stroke-width="2.356" d="M16.2 36h41.2"/>
  <g fill="none" stroke="#000">
    <path stroke-linecap="round" stroke-linejoin="round" stroke-width="2.356" d="M19.1 33.3a17.65 17.65 0 0135.3-.1v.1"/>
    <path stroke-linejoin="round" stroke-width="2" d="M17.3 34.3h39A1.752 1.752 0 0158 36v.1a1.752 1.752 0 01-1.7 1.7h-39a1.752 1.752 0 01-1.7-1.7V36a1.627 1.627 0 011.7-1.7z"/>
    <path stroke-linecap="square" stroke-miterlimit="10" stroke-width="2" d="M35 38.4h3.5v2.4H35z"/>
    <path stroke-linecap="square" stroke-linejoin="round" stroke-width="2" d="M17.4 41.9h37.7v3.5H17.4zM15 45.5h42.4V49H15z"/>
    <path stroke-linecap="round" stroke-linejoin="round" stroke-width="2" d="M35 15a2.35 2.35 0 114.7-.1h0"/>
  </g>
</svg>
