<svg viewBox="0 0 72 72" xmlns="http://www.w3.org/2000/svg">
  <path fill="#B3B3B3" d="M68 4v64H4V4h64m4-4H0v72h72V0z"/>
  <path fill="none" stroke="#00A5FF" stroke-miterlimit="10" stroke-width="0.1" d="M12.923 10.958h46.154c1.062 0 1.923.861 1.923 1.923v46.154a1.923 1.923 0 01-1.923 1.923H12.923A1.923 1.923 0 0111 59.035h0V12.881c0-1.062.861-1.923 1.923-1.923h0z"/>
  <path fill="none" stroke="#00A5FF" stroke-miterlimit="10" stroke-width="0.1" d="M18.254 4h35.492A2.254 2.254 0 0156 6.254v59.492A2.254 2.254 0 0153.746 68H18.254A2.254 2.254 0 0116 65.746V6.254A2.254 2.254 0 0118.254 4z"/>
  <path fill="none" stroke="#00A5FF" stroke-miterlimit="10" stroke-width="0.1" d="M68 18.254v35.492A2.254 2.254 0 0165.746 56H6.254A2.254 2.254 0 014 53.746V18.254A2.254 2.254 0 016.254 16h59.492A2.254 2.254 0 0168 18.254z"/>
  <circle cx="36" cy="36" r="29" fill="none" stroke="#00A5FF" stroke-miterlimit="10" stroke-width="0.1"/>
  <g fill="none" stroke="#fff" stroke-linecap="round" stroke-linejoin="round" stroke-miterlimit="10" stroke-width="6">
    <path d="M44.388 14.73H27.612a1 1 0 00-.707.292L15.043 26.884a1 1 0 00-.293.707v16.776a1 1 0 00.293.707l11.862 11.862a1 1 0 00.707.293h16.776a1 1 0 00.707-.293l11.862-11.862a1 1 0 00.293-.707V27.591a1 1 0 00-.293-.707L45.095 15.022a1 1 0 00-.707-.293z"/>
    <path d="M39.323 39.5h0a2.5 2.5 0 01-2.5-2.5v-2a2.5 2.5 0 012.5-2.5h0a2.5 2.5 0 012.5 2.5v2a2.5 2.5 0 01-2.5 2.5zm-13.178-5.606c-.205-.797-1.091-1.397-2.153-1.397h0c-1.214 0-2.198.783-2.198 1.75 0 .966.984 1.75 2.198 1.75l-.045.006c1.214 0 2.198.784 2.198 1.75s-.984 1.75-2.198 1.75h0c-1.062 0-1.948-.6-2.153-1.397m7.852-5.606h4m-2 0v7m14.148 0v-7h2.669c.963 0 1.743.78 1.743 1.744h0c0 .962-.78 1.743-1.743 1.743h-2.67"/>
    <path d="M45.941 10.98H26.06a1 1 0 00-.707.292l-14.06 14.059a1 1 0 00-.292.707V45.92a1 1 0 00.293.707l14.059 14.06a1 1 0 00.707.292h19.88a1 1 0 00.707-.293l14.06-14.059A1 1 0 0061 45.92V26.038a1 1 0 00-.293-.707L46.648 11.272a1 1 0 00-.707-.293z"/>
  </g>
  <g fill="none" stroke="#000" stroke-linecap="round" stroke-linejoin="round" stroke-miterlimit="10" stroke-width="2">
    <path d="M44.388 14.73H27.612a1 1 0 00-.707.292L15.043 26.884a1 1 0 00-.293.707v16.776a1 1 0 00.293.707l11.862 11.862a1 1 0 00.707.293h16.776a1 1 0 00.707-.293l11.862-11.862a1 1 0 00.293-.707V27.591a1 1 0 00-.293-.707L45.095 15.022a1 1 0 00-.707-.293z"/>
    <path d="M39.323 39.5h0a2.5 2.5 0 01-2.5-2.5v-2a2.5 2.5 0 012.5-2.5h0a2.5 2.5 0 012.5 2.5v2a2.5 2.5 0 01-2.5 2.5zm-13.178-5.606c-.205-.797-1.091-1.397-2.153-1.397h0c-1.214 0-2.198.783-2.198 1.75 0 .966.984 1.75 2.198 1.75l-.045.006c1.214 0 2.198.784 2.198 1.75s-.984 1.75-2.198 1.75h0c-1.062 0-1.948-.6-2.153-1.397m7.852-5.606h4m-2 0v7m14.148 0v-7h2.669c.963 0 1.743.78 1.743 1.744h0c0 .962-.78 1.743-1.743 1.743h-2.67"/>
  </g>
  <path fill="#D22F27" d="M45.941 10.98H26.06a1 1 0 00-.707.292l-14.06 14.059a1 1 0 00-.292.707V45.92a1 1 0 00.293.707l14.059 14.06a1 1 0 00.707.292h19.88a1 1 0 00.707-.293l14.06-14.059A1 1 0 0061 45.92V26.038a1 1 0 00-.293-.707L46.648 11.272a1 1 0 00-.707-.293z"/>
  <path fill="none" stroke="#FFF" stroke-linecap="round" stroke-linejoin="round" stroke-miterlimit="10" stroke-width="2" d="M44.388 14.73H27.612a1 1 0 00-.707.292L15.043 26.884a1 1 0 00-.293.707v16.776a1 1 0 00.293.707l11.862 11.862a1 1 0 00.707.293h16.776a1 1 0 00.707-.293l11.862-11.862a1 1 0 00.293-.707V27.591a1 1 0 00-.293-.707L45.095 15.022a1 1 0 00-.707-.293z"/>
  <path fill="none" stroke="#FFF" stroke-linecap="round" stroke-linejoin="round" stroke-miterlimit="10" stroke-width="2" d="M39.323 39.5h0a2.5 2.5 0 01-2.5-2.5v-2a2.5 2.5 0 012.5-2.5h0a2.5 2.5 0 012.5 2.5v2a2.5 2.5 0 01-2.5 2.5zm-13.178-5.606c-.205-.797-1.091-1.397-2.153-1.397h0c-1.214 0-2.198.783-2.198 1.75 0 .966.984 1.75 2.198 1.75l-.045.006c1.214 0 2.198.784 2.198 1.75s-.984 1.75-2.198 1.75h0c-1.062 0-1.948-.6-2.153-1.397m7.852-5.606h4m-2 0v7m14.148 0v-7h2.669c.963 0 1.743.78 1.743 1.744h0c0 .962-.78 1.743-1.743 1.743h-2.67"/>
  <path fill="none" stroke="#000" stroke-linecap="round" stroke-linejoin="round" stroke-miterlimit="10" stroke-width="2" d="M45.941 10.98H26.06a1 1 0 00-.707.292l-14.06 14.059a1 1 0 00-.292.707V45.92a1 1 0 00.293.707l14.059 14.06a1 1 0 00.707.292h19.88a1 1 0 00.707-.293l14.06-14.059A1 1 0 0061 45.92V26.038a1 1 0 00-.293-.707L46.648 11.272a1 1 0 00-.707-.293z"/>
</svg>
