<svg viewBox="0 0 72 72" xmlns="http://www.w3.org/2000/svg">
  <path fill="#b3b3b3" d="M68 4v64H4V4h64m4-4H0v72h72V0z"/>
  <path fill="none" stroke="#00a5ff" stroke-miterlimit="10" stroke-width="0.1" d="M12.923 10.958h46.154A1.923 1.923 0 0161 12.881v46.154a1.923 1.923 0 01-1.923 1.923H12.923A1.923 1.923 0 0111 59.035V12.881a1.923 1.923 0 011.923-1.923z"/>
  <rect x="16" y="4" rx="2.254" ry="2.254" width="40" height="64" fill="none" stroke="#00a5ff" stroke-miterlimit="10" stroke-width="0.1"/>
  <rect x="16" y="4" rx="2.254" ry="2.254" width="40" height="64" transform="rotate(90 36 36)" fill="none" stroke="#00a5ff" stroke-miterlimit="10" stroke-width="0.1"/>
  <circle cx="36" cy="36" r="29" fill="none" stroke="#00a5ff" stroke-miterlimit="10" stroke-width="0.1"/>
  <path fill="none" stroke="#fff" stroke-linecap="round" stroke-linejoin="round" stroke-miterlimit="10" stroke-width="6" d="M12.233 17.17h47.702M16 54.941l2.075-5.288h35.85L56 54.941H16zm3.174-8.089h33.652l-1.997-5.091H21.171l-1.997 5.091zm3.025-7.913h27.602l-1.965-5.009H24.164l-1.965 5.009zm3.152-7.831h21.298l-2.063-5.26H27.414l-2.063 5.26zm3.158-8.049h14.982l-1.979-4.377H30.046l-1.537 4.377zm-5.31 31.467l9.692-35.801m15.91 35.801l-9.692-35.801"/>
  <path fill="#b1cc33" d="M11 17.17h50V56H11z"/>
  <path fill="#6a462f" d="M26.564 17.552L16 43.649 11 56h50l-5-12.351-10.564-26.097H26.564z"/>
  <path fill="#a57939" d="M16 54.941l2.075-5.288h35.85L56 54.941H16zm3.174-8.089h33.652l-1.997-5.091H21.171l-1.997 5.091zm3.025-7.913h27.602l-1.965-5.009H24.164l-1.965 5.009zm3.152-7.831h21.298l-2.063-5.26H27.414l-2.063 5.26zm3.158-8.049h14.982l-1.979-4.377H30.046l-1.537 4.377z"/>
  <g fill="none" stroke="#000" stroke-linecap="round" stroke-linejoin="round" stroke-width="2">
    <path d="M12.233 17.17h47.702M16 54.941l2.075-5.288h35.85L56 54.941H16zm3.174-8.089h33.652l-1.997-5.091H21.171l-1.997 5.091zm3.025-7.913h27.602l-1.965-5.009H24.164l-1.965 5.009zm3.152-7.831h21.298l-2.063-5.26H27.414l-2.063 5.26zm3.158-8.049h14.982l-1.979-4.377H30.046l-1.537 4.377zm-5.31 31.467l9.692-35.801m15.91 35.801l-9.692-35.801"/>
  </g>
</svg>
