<svg viewBox="0 0 72 72" xmlns="http://www.w3.org/2000/svg">
  <path fill="#b3b3b3" d="M68 4v64H4V4h64m4-4H0v72h72V0z"/>
  <path fill="none" stroke="#00a5ff" stroke-miterlimit="10" stroke-width="0.1" d="M12.923 10.958h46.154A1.923 1.923 0 0161 12.881v46.154a1.923 1.923 0 01-1.923 1.923H12.923A1.923 1.923 0 0111 59.035V12.881a1.923 1.923 0 011.923-1.923z"/>
  <rect x="16" y="4" rx="2.254" ry="2.254" width="40" height="64" fill="none" stroke="#00a5ff" stroke-miterlimit="10" stroke-width="0.1"/>
  <rect x="16" y="4" rx="2.254" ry="2.254" width="40" height="64" transform="rotate(90 36 36)" fill="none" stroke="#00a5ff" stroke-miterlimit="10" stroke-width="0.1"/>
  <circle cx="36" cy="36" r="29" fill="none" stroke="#00a5ff" stroke-miterlimit="10" stroke-width="0.1"/>
  <g fill="none" stroke="#fff" stroke-linecap="round" stroke-linejoin="round" stroke-miterlimit="10" stroke-width="6">
    <path d="M11.962 54.974l21.153-19.499m26.923 19.499L39.846 35.475m-16.731 4.01V17m26.25 22.485V17"/>
    <rect x="26.385" y="18.483" rx="3.053" ry="3.053" width="19.712" height="9.123"/>
    <path d="M30.986 48.794l-1.717 5.729m4.385-14.696l-1.38 4.604m9.278 4.363l1.717 5.729m-4.384-14.696l1.38 4.604m-28.303-8.956h48.076M23.115 18.483h5.626m-5.626 9.122h5.626m14.567-9.122h5.625m-5.625 9.122h5.625"/>
  </g>
  <path fill="#b1cc33" d="M11 35.474v19.5l21.154-19.5H11zm50 0H39.846L61 54.974"/>
  <path fill="#5c9e31" d="M40.808 35.474H61v6.158H46.865l-6.057-6.158zm-8.654 0H11v6.158h14.808l6.346-6.158z"/>
  <path fill="#d0cfce" d="M11.962 56h48.076L39.846 36.5h-6.731L11.962 56z"/>
  <path fill="#3f3f3f" d="M26.293 40.605h20.444L39.846 36.5h-6.731l-6.822 4.105z"/>
  <path fill="#5c9e31" d="M26.674 19.053h18.773v8.21H26.674z"/>
  <g fill="none" stroke="#000" stroke-linecap="round" stroke-linejoin="round" stroke-width="1.987">
    <path d="M11.962 54.974l21.153-19.499m26.923 19.499L39.846 35.475m-16.731 4.01V17m26.25 22.485V17"/>
    <rect x="26.385" y="18.483" rx="3.053" ry="3.053" width="19.712" height="9.123"/>
    <path d="M30.986 48.794l-1.717 5.729m4.385-14.696l-1.38 4.604m9.278 4.363l1.717 5.729m-4.384-14.696l1.38 4.604m-28.303-8.956h48.076M23.115 18.483h5.626m-5.626 9.122h5.626m14.567-9.122h5.625m-5.625 9.122h5.625"/>
  </g>
</svg>
