<svg viewBox="0 0 72 72" xmlns="http://www.w3.org/2000/svg">
  <path fill="#B3B3B3" d="M68 4v64H4V4h64m4-4H0v72h72V0z"/>
  <path fill="none" stroke="#00A5FF" stroke-miterlimit="10" stroke-width="0.1" d="M12.923 10.958h46.154c1.062 0 1.923.861 1.923 1.923v46.154a1.923 1.923 0 01-1.923 1.923H12.923A1.923 1.923 0 0111 59.035h0V12.881c0-1.062.861-1.923 1.923-1.923h0z"/>
  <path fill="none" stroke="#00A5FF" stroke-miterlimit="10" stroke-width="0.1" d="M18.254 4h35.492A2.254 2.254 0 0156 6.254v59.492A2.254 2.254 0 0153.746 68H18.254A2.254 2.254 0 0116 65.746V6.254A2.254 2.254 0 0118.254 4z"/>
  <path fill="none" stroke="#00A5FF" stroke-miterlimit="10" stroke-width="0.1" d="M68 18.254v35.492A2.254 2.254 0 0165.746 56H6.254A2.254 2.254 0 014 53.746V18.254A2.254 2.254 0 016.254 16h59.492A2.254 2.254 0 0168 18.254z"/>
  <circle cx="36" cy="36" r="29" fill="none" stroke="#00A5FF" stroke-miterlimit="10" stroke-width="0.1"/>
  <g fill="none" stroke="#fff" stroke-linecap="round" stroke-linejoin="round" stroke-miterlimit="10" stroke-width="6">
    <path d="M49.4 32.6l-1.53-1.53m-6.94-6.94L39.4 22.6m.592-2.399l-3 3m14.702 8.701l-3 3M33.79 38.87l2.78 2.29c-3.14 2.66-6.38 5.22-9.02 6.94l-1.89-2.51-1.68-1.26c1.71-2.61 4.21-5.77 6.82-8.85l1.87 2.27.5.62.62.5zM49 30s-.41.39-1.13 1.07c-.9.85-2.3 2.15-3.98 3.67l-3.65-3.44-3-3.18c1.54-1.69 2.84-3.08 3.69-3.99C41.61 23.41 42 23 42 23s4-5 8-1-1 8-1 8z"/>
    <path d="M31.98 54.83l-2.17 3.25c-.27.4-.84.44-1.17.09l-7.45-8.12-8.25-7.56c-.35-.33-.31-.9.09-1.17l3.25-2.17c.26-.17.61-.16.86.03l6.84 5.15 1.68 1.26 1.89 2.51 4.4 5.87c.19.25.2.6.03.86zm27.14-3.7l-5.56 3.01c-.45.25-1.14.09-1.71-.38l-15.28-12.6-2.78-2.29-.62-.5-.5-.62-1.87-2.27-13.02-15.79c-.47-.57-.63-1.26-.38-1.71l3.01-5.56c.38-.69 1.49-.56 2.28.27l14.55 15.43 3 3.18 3.65 3.44 14.96 14.11c.83.79.96 1.9.27 2.28zM45.219 13.156l13.812 13.813m-5.687-8.125L50.688 21.5"/>
  </g>
  <path fill="#D0CFCE" d="M49 30S25 53 22 50s20-27 20-27 4-5 8-1-1 8-1 8z"/>
  <path fill="#9B9B9A" d="M31.98 54.83l-2.17 3.25c-.27.4-.84.44-1.17.09l-7.45-8.12-8.25-7.56c-.35-.33-.31-.9.09-1.17l3.25-2.17c.26-.17.61-.16.86.03l8.52 6.41 6.29 8.38c.19.25.2.6.03.86zm27.14-3.7l-5.56 3.01c-.45.25-1.14.09-1.71-.38L33.79 38.87l-.62-.5-.5-.62-14.89-18.06c-.47-.57-.63-1.26-.38-1.71l3.01-5.56c.38-.69 1.49-.56 2.28.27L40.24 31.3l18.61 17.55c.83.79.96 1.9.27 2.28z"/>
  <g fill="none" stroke="#000" stroke-linecap="round" stroke-linejoin="round" stroke-miterlimit="10">
    <path stroke-width="2" d="M49.4 32.6l-1.53-1.53m-6.94-6.94L39.4 22.6m.592-2.399l-3 3m14.702 8.701l-3 3M33.79 38.87l2.78 2.29c-3.14 2.66-6.38 5.22-9.02 6.94l-1.89-2.51-1.68-1.26c1.71-2.61 4.21-5.77 6.82-8.85l1.87 2.27.5.62.62.5zM49 30s-.41.39-1.13 1.07c-.9.85-2.3 2.15-3.98 3.67l-3.65-3.44-3-3.18c1.54-1.69 2.84-3.08 3.69-3.99C41.61 23.41 42 23 42 23s4-5 8-1-1 8-1 8z"/>
    <path stroke-width="2" d="M31.98 54.83l-2.17 3.25c-.27.4-.84.44-1.17.09l-7.45-8.12-8.25-7.56c-.35-.33-.31-.9.09-1.17l3.25-2.17c.26-.17.61-.16.86.03l6.84 5.15 1.68 1.26 1.89 2.51 4.4 5.87c.19.25.2.6.03.86zm27.14-3.7l-5.56 3.01c-.45.25-1.14.09-1.71-.38l-15.28-12.6-2.78-2.29-.62-.5-.5-.62-1.87-2.27-13.02-15.79c-.47-.57-.63-1.26-.38-1.71l3.01-5.56c.38-.69 1.49-.56 2.28.27l14.55 15.43 3 3.18 3.65 3.44 14.96 14.11c.83.79.96 1.9.27 2.28z"/>
    <path stroke-width="1.798" d="M45.219 13.156l13.812 13.813m-5.687-8.125L50.688 21.5"/>
  </g>
</svg>
