<svg viewBox="0 0 72 72" xmlns="http://www.w3.org/2000/svg">
  <path fill="#b3b3b3" d="M68 4v64H4V4h64m4-4H0v72h72V0z"/>
  <path fill="none" stroke="#00a5ff" stroke-miterlimit="10" stroke-width="0.1" d="M12.923 10.958h46.154A1.923 1.923 0 0161 12.881v46.154a1.923 1.923 0 01-1.923 1.923H12.923A1.923 1.923 0 0111 59.035V12.881a1.923 1.923 0 011.923-1.923z"/>
  <rect x="16" y="4" rx="2.254" width="40" height="64" fill="none" stroke="#00a5ff" stroke-miterlimit="10" stroke-width="0.1"/>
  <rect x="16" y="4" rx="2.254" width="40" height="64" transform="rotate(90 36 36)" fill="none" stroke="#00a5ff" stroke-miterlimit="10" stroke-width="0.1"/>
  <circle cx="36" cy="36" r="29" fill="none" stroke="#00a5ff" stroke-miterlimit="10" stroke-width="0.1"/>
  <g fill="none" stroke="#fff" stroke-linecap="round" stroke-linejoin="round" stroke-miterlimit="10" stroke-width="6">
    <path d="M45.5 26.5l-2.43 2.43M28.93 43.07l-2.41 2.42L26 46M12 14v8m11-10h-9m10.281 12.405c3.633-3.633 3.934-9.413.87-13.4a1.01 1.01 0 00-1.511-.1L11 23.544a1.01 1.01 0 00.074 1.49 9.788 9.788 0 0013.207-.63z"/>
    <path d="M15.728 67.728L4.414 56.414a1 1 0 010-1.414l15.1-15.1a1 1 0 011.415 0l11.314 11.313a1 1 0 010 1.414l-15.1 15.1a1 1 0 01-1.415 0zm35.485-35.485L39.9 20.929a1 1 0 010-1.414L55 4.415a1 1 0 011.415 0l11.314 11.313a1 1 0 010 1.414l-15.1 15.1a1 1 0 01-1.415 0zm.707 6.949L39.192 51.92a1 1 0 01-1.414 0L23.636 37.778a1 1 0 010-1.414l12.728-12.728a1 1 0 011.414 0L51.92 37.778a1 1 0 010 1.414z"/>
    <path d="M36.364 23.636L23.636 36.364a1 1 0 01-1.414 0l-4.243-4.243a1 1 0 010-1.414L30.707 17.98a1 1 0 011.414 0l4.243 4.243a1 1 0 010 1.414zm16.97 21.214l-8.485 8.485a1 1 0 01-1.414 0l-2.121-2.122a1 1 0 010-1.414l8.485-8.485a1 1 0 011.414 0l2.121 2.121a1 1 0 010 1.414z"/>
    <circle cx="12.322" cy="12.322" r="2" transform="rotate(-45.001 12.322 12.323)"/>
  </g>
  <path fill="#d0cfce" d="M24.281 24.405c3.633-3.633 3.934-9.413.87-13.4a1.01 1.01 0 00-1.511-.1L11 23.544a1.01 1.01 0 00.074 1.49 9.788 9.788 0 0013.207-.63z"/>
  <path fill="#3f3f3f" d="M15.728 67.728L4.414 56.414a1 1 0 010-1.414l15.1-15.1a1 1 0 011.415 0l11.314 11.313a1 1 0 010 1.414l-15.1 15.1a1 1 0 01-1.415 0zm35.485-35.485L39.9 20.929a1 1 0 010-1.414L55 4.415a1 1 0 011.415 0l11.314 11.313a1 1 0 010 1.414l-15.1 15.1a1 1 0 01-1.415 0z"/>
  <path fill="#d0cfce" d="M51.92 39.192L39.192 51.92a1 1 0 01-1.414 0L23.636 37.778a1 1 0 010-1.414l12.728-12.728a1 1 0 011.414 0L51.92 37.778a1 1 0 010 1.414z"/>
  <path fill="#9b9b9a" d="M36.364 23.636L23.636 36.364a1 1 0 01-1.414 0l-4.243-4.243a1 1 0 010-1.414L30.707 17.98a1 1 0 011.414 0l4.243 4.243a1 1 0 010 1.414zm16.97 21.214l-8.485 8.485a1 1 0 01-1.414 0l-2.121-2.122a1 1 0 010-1.414l8.485-8.485a1 1 0 011.414 0l2.121 2.121a1 1 0 010 1.414z"/>
  <circle cx="12.322" cy="12.322" r="2" transform="rotate(-45.001 12.322 12.323)" fill="#3f3f3f"/>
  <g fill="none" stroke="#000" stroke-miterlimit="10" stroke-width="2">
    <path d="M45.5 26.5l-2.43 2.43M28.93 43.07l-2.41 2.42L26 46M12 14v8m11-10h-9"/>
    <path stroke-linecap="round" stroke-linejoin="round" d="M24.281 24.405c3.633-3.633 3.934-9.413.87-13.4a1.01 1.01 0 00-1.511-.1L11 23.544a1.01 1.01 0 00.074 1.49 9.788 9.788 0 0013.207-.63zm-8.553 43.323L4.414 56.414a1 1 0 010-1.414l15.1-15.1a1 1 0 011.415 0l11.314 11.313a1 1 0 010 1.414l-15.1 15.1a1 1 0 01-1.415 0zm35.485-35.485L39.9 20.929a1 1 0 010-1.414L55 4.415a1 1 0 011.415 0l11.314 11.313a1 1 0 010 1.414l-15.1 15.1a1 1 0 01-1.415 0zm.707 6.949L39.192 51.92a1 1 0 01-1.414 0L23.636 37.778a1 1 0 010-1.414l12.728-12.728a1 1 0 011.414 0L51.92 37.778a1 1 0 010 1.414z"/>
    <path stroke-linecap="round" stroke-linejoin="round" d="M36.364 23.636L23.636 36.364a1 1 0 01-1.414 0l-4.243-4.243a1 1 0 010-1.414L30.707 17.98a1 1 0 011.414 0l4.243 4.243a1 1 0 010 1.414zm16.97 21.214l-8.485 8.485a1 1 0 01-1.414 0l-2.121-2.122a1 1 0 010-1.414l8.485-8.485a1 1 0 011.414 0l2.121 2.121a1 1 0 010 1.414z"/>
    <circle cx="12.322" cy="12.322" r="2" transform="rotate(-45.001 12.322 12.323)" stroke-linecap="round" stroke-linejoin="round"/>
  </g>
</svg>
