<svg viewBox="0 0 72 72" xmlns="http://www.w3.org/2000/svg">
  <path fill="#b3b3b3" d="M68 4v64H4V4h64m4-4H0v72h72V0z"/>
  <path fill="none" stroke="#00a5ff" stroke-miterlimit="10" stroke-width="0.1" d="M12.923 10.958h46.154A1.923 1.923 0 0161 12.881v46.154a1.923 1.923 0 01-1.923 1.923H12.923A1.923 1.923 0 0111 59.035V12.881a1.923 1.923 0 011.923-1.923z"/>
  <rect x="16" y="4" rx="2.254" width="40" height="64" fill="none" stroke="#00a5ff" stroke-miterlimit="10" stroke-width="0.1"/>
  <rect x="16" y="4" rx="2.254" width="40" height="64" transform="rotate(90 36 36)" fill="none" stroke="#00a5ff" stroke-miterlimit="10" stroke-width="0.1"/>
  <circle cx="36" cy="36" r="29" fill="none" stroke="#00a5ff" stroke-miterlimit="10" stroke-width="0.1"/>
  <g fill="none" stroke="#fff" stroke-linecap="round" stroke-linejoin="round" stroke-miterlimit="10" stroke-width="6">
    <path d="M58.424 38.588c-.468-2.702-2.34-6.215-8.818-6.68-15.689-1.128-15.22-17.475-15.22-17.475h-16.72s-.47 13.247-2.349 17.662a20.204 20.204 0 00-1.41 6.494m20.888-20.136h-2.422m3.426 3.676h-2.422m4.286 3.504h-2.422m4.894 2.933h-2.421M24.097 41.772l5.559-7.792m-1.054 7.792l5.559-7.792m-1.272 7.792l5.559-7.792m-1.092 7.792l5.559-7.792M21.22 41.772h37.224a1.832 1.832 0 011.827 1.827h0a1.832 1.832 0 01-1.827 1.827H14.357a1.833 1.833 0 01-1.827-1.827h0a1.833 1.833 0 011.827-1.827h2.059m12.673 7.416H40.34m16.529-3.762l4.364 3.102-4.116 5.563-2.842-2.343"/>
    <circle cx="22.416" cy="54.709" r="5"/>
    <circle cx="46.669" cy="54.709" r="5"/>
    <path d="M16.486 47.82l.714 1.049m35.717-1.049l-.713 1.049"/>
  </g>
  <path fill="#61b2e4" d="M42.915 32.98a1 1 0 01.817 1.578l-5.814 8.213h20.519a1 1 0 00.979-.798 9.838 9.838 0 00-1.6-7.329c-1.673-2.21-4.41-3.466-8.138-3.734-14.53-1.044-14.308-15.82-14.291-16.45a1 1 0 00-1-1.026H17.665a1 1 0 00-.999.964c-.005.13-.485 13.11-2.27 17.305a21.437 21.437 0 00-1.49 6.886v3.182a1 1 0 001 1h8.302l6.63-9.369a1 1 0 01.817-.422h4.505a1 1 0 01.816 1.579l-5.812 8.213H31l6.631-9.37a1 1 0 01.817-.422z"/>
  <path fill="#b399c8" d="M58.443 46.426H14.357a2.827 2.827 0 010-5.654h44.086a2.827 2.827 0 010 5.654z"/>
  <path fill="#d0cfce" d="M18.11 51.919l-4.546-6.526h42.205l-4.42 6.526-8.434-.048-2.575-1.687H29.418l-2.359 1.735H18.11z"/>
  <path fill="#3f3f3f" d="M57.416 45.393l-4.044 5.891a1.098 1.098 0 00.272 1.255l2.734 2.235 4.855-6.416z"/>
  <path fill="#fcea2b" d="M22.416 60.709a6 6 0 116-6 6.007 6.007 0 01-6 6zm24.253 0a6 6 0 116-6 6.007 6.007 0 01-6 6z"/>
  <g fill="none" stroke="#000" stroke-linecap="round" stroke-linejoin="round" stroke-width="2">
    <path d="M58.424 38.588c-.468-2.702-2.34-6.215-8.818-6.68-15.689-1.128-15.22-17.475-15.22-17.475h-16.72s-.47 13.247-2.349 17.662a20.204 20.204 0 00-1.41 6.494m20.888-20.136h-2.422m3.426 3.676h-2.422m4.286 3.504h-2.422m4.894 2.933h-2.421M24.097 41.772l5.559-7.792m-1.054 7.792l5.559-7.792m-1.272 7.792l5.559-7.792m-1.092 7.792l5.559-7.792M21.22 41.772h37.224a1.832 1.832 0 011.827 1.827h0a1.832 1.832 0 01-1.827 1.827H14.357a1.833 1.833 0 01-1.827-1.827h0a1.833 1.833 0 011.827-1.827h2.059m12.673 7.416H40.34m16.529-3.762l4.364 3.102-4.116 5.563-2.842-2.343"/>
    <circle cx="22.416" cy="54.709" r="5"/>
    <circle cx="46.669" cy="54.709" r="5"/>
    <path d="M16.486 47.82l.714 1.049m35.717-1.049l-.713 1.049"/>
  </g>
</svg>
