<svg viewBox="0 0 72 72" xmlns="http://www.w3.org/2000/svg">
  <path fill="#B3B3B3" d="M68 4v64H4V4h64m4-4H0v72h72V0z"/>
  <path fill="none" stroke="#00A5FF" stroke-miterlimit="10" stroke-width="0.1" d="M12.923 10.958h46.154c1.062 0 1.923.861 1.923 1.923v46.154a1.923 1.923 0 01-1.923 1.923H12.923A1.923 1.923 0 0111 59.035h0V12.881c0-1.062.861-1.923 1.923-1.923h0z"/>
  <path fill="none" stroke="#00A5FF" stroke-miterlimit="10" stroke-width="0.1" d="M18.254 4h35.492A2.254 2.254 0 0156 6.254v59.492A2.254 2.254 0 0153.746 68H18.254A2.254 2.254 0 0116 65.746V6.254A2.254 2.254 0 0118.254 4z"/>
  <path fill="none" stroke="#00A5FF" stroke-miterlimit="10" stroke-width="0.1" d="M68 18.254v35.492A2.254 2.254 0 0165.746 56H6.254A2.254 2.254 0 014 53.746V18.254A2.254 2.254 0 016.254 16h59.492A2.254 2.254 0 0168 18.254z"/>
  <circle cx="36" cy="36" r="29" fill="none" stroke="#00A5FF" stroke-miterlimit="10" stroke-width="0.1"/>
  <g fill="none" stroke="#fff" stroke-linecap="round" stroke-linejoin="round" stroke-miterlimit="10" stroke-width="6">
    <path d="M29.915 14.262l4.864.954M21.903 12.69l4.93.967"/>
    <circle cx="18.825" cy="55.057" r="5"/>
    <circle cx="55.342" cy="55.057" r="5"/>
    <path d="M27.53 17.318l-7.114 30.84-1.591 6.9m8.913-3.001h22.604v.583c0 1.657-1.223 3-2.73 3H30.467c-1.508 0-2.73-1.343-2.73-3v-.583zM29.85 14.25a1 1 0 01-.016.327l-.445 2.035a1 1 0 01-1.19.763l-1.06-.231a1 1 0 01-.762-1.19l.445-2.036c.02-.087.05-.17.088-.246m0 0a1 1 0 011.103-.517l1.058.232a1 1 0 01.78.862m-7.197 25.668l5.084 12.14m13.31-36.193l-.25 1.324a.954.954 0 01-1.112.758l-4.132-.783a.954.954 0 01-.758-1.112l.25-1.323a.954.954 0 011.112-.758l4.132.782a.954.954 0 01.758 1.112zm-19.5-3.951l-.251 1.325a.953.953 0 01-1.11.757l-4.12-.78a.953.953 0 01-.758-1.11l.251-1.326a.953.953 0 011.111-.757l4.12.78a.953.953 0 01.757 1.11z"/>
  </g>
  <circle cx="18.825" cy="55.057" r="5" fill="#D0CFCE"/>
  <circle cx="55.342" cy="55.057" r="5" fill="#D0CFCE"/>
  <path fill="#EA5A47" d="M27.738 52.057h22.604v.583c0 1.657-1.223 3-2.73 3H30.467c-1.508 0-2.73-1.343-2.73-3v-.583z"/>
  <path fill="#D0CFCE" d="M28.198 17.375l-1.058-.231a1 1 0 01-.763-1.19l.445-2.036a1 1 0 011.19-.763l1.059.232a1 1 0 01.763 1.19l-.445 2.035a1 1 0 01-1.19.764z"/>
  <path fill="#EA5A47" d="M41.048 15.864l-.25 1.324a.954.954 0 01-1.112.758l-4.132-.783a.954.954 0 01-.758-1.112l.25-1.323a.954.954 0 011.112-.758l4.132.782a.954.954 0 01.758 1.112zm-19.5-3.951l-.251 1.325a.953.953 0 01-1.11.757l-4.12-.78a.953.953 0 01-.758-1.11l.251-1.326a.953.953 0 011.111-.757l4.12.78a.953.953 0 01.757 1.11z"/>
  <g fill="none" stroke="#000" stroke-miterlimit="10">
    <path stroke-linecap="round" stroke-linejoin="round" stroke-width="2" d="M29.915 14.262l4.864.954M21.903 12.69l4.93.967"/>
    <circle cx="18.825" cy="55.057" r="5" stroke-width="2"/>
    <circle cx="55.342" cy="55.057" r="5" stroke-width="2"/>
    <path stroke-linecap="round" stroke-linejoin="round" stroke-width="2" d="M27.53 17.318l-7.114 30.84-1.591 6.9"/>
    <path stroke-linecap="round" stroke-linejoin="round" stroke-width="1.908" d="M27.738 52.057h22.604v.583c0 1.657-1.223 3-2.73 3H30.467c-1.508 0-2.73-1.343-2.73-3v-.583z"/>
    <path stroke-linecap="round" stroke-linejoin="round" stroke-width="2" d="M29.85 14.25a1 1 0 01-.016.327l-.445 2.035a1 1 0 01-1.19.763l-1.06-.231a1 1 0 01-.762-1.19l.445-2.036c.02-.087.05-.17.088-.246m0 0a1 1 0 011.103-.517l1.058.232a1 1 0 01.78.862m-7.197 25.668l5.084 12.14"/>
    <path stroke-linecap="round" stroke-linejoin="round" stroke-width="1.908" d="M41.048 15.864l-.25 1.324a.954.954 0 01-1.112.758l-4.132-.783a.954.954 0 01-.758-1.112l.25-1.323a.954.954 0 011.112-.758l4.132.782a.954.954 0 01.758 1.112zm-19.5-3.951l-.251 1.325a.953.953 0 01-1.11.757l-4.12-.78a.953.953 0 01-.758-1.11l.251-1.326a.953.953 0 011.111-.757l4.12.78a.953.953 0 01.757 1.11z"/>
  </g>
</svg>
