<svg viewBox="0 0 72 72" xmlns="http://www.w3.org/2000/svg">
  <path fill="#B3B3B3" d="M68 4v64H4V4h64m4-4H0v72h72V0z"/>
  <path fill="none" stroke="#00A5FF" stroke-miterlimit="10" stroke-width="0.1" d="M12.923 10.958h46.154c1.062 0 1.923.861 1.923 1.923h0v46.154a1.923 1.923 0 01-1.923 1.923H12.923A1.923 1.923 0 0111 59.035h0V12.881c0-1.062.861-1.923 1.923-1.923h0z"/>
  <path fill="none" stroke="#00A5FF" stroke-miterlimit="10" stroke-width="0.1" d="M18.254 4h35.492A2.254 2.254 0 0156 6.254v59.492A2.254 2.254 0 0153.746 68H18.254A2.254 2.254 0 0116 65.746V6.254A2.254 2.254 0 0118.254 4z"/>
  <path fill="none" stroke="#00A5FF" stroke-miterlimit="10" stroke-width="0.1" d="M68 18.254v35.492A2.254 2.254 0 0165.746 56H6.254A2.254 2.254 0 014 53.746V18.254A2.254 2.254 0 016.254 16h59.492A2.254 2.254 0 0168 18.254z"/>
  <circle cx="36" cy="36" r="29" fill="none" stroke="#00A5FF" stroke-miterlimit="10" stroke-width="0.1"/>
  <g fill="none" stroke="#fff" stroke-linecap="round" stroke-linejoin="round" stroke-miterlimit="10" stroke-width="6">
    <path d="M47.705 45.684l-23.665-.089m.521.27v3.303m1.911-7.142v3.303m1.941.536v3.303m1.912-7.142v3.303m1.928.536v3.303m1.911-7.142v3.303m1.941.536v3.303m1.912-7.142v3.303m1.915.536v3.303m1.912-7.142v3.303m1.969.536v3.303m1.887-7.142v3.303m5.218-.001a2.402 2.402 0 012.518.56l4.86 4.86a2.402 2.402 0 010 3.397l-1.946 1.946a2.402 2.402 0 01-3.397 0l-4.86-4.86a2.402 2.402 0 01-.604-2.387"/>
    <path d="M57.481 44.237A22.944 22.944 0 0059 36c0-12.703-10.298-23-23-23S13 23.297 13 36c0 12.702 10.298 23 23 23 4.07 0 7.893-1.057 11.21-2.912"/>
    <path d="M30 31a3.001 3.001 0 01-6 0c0-1.655 1.345-3 3-3s3 1.345 3 3m18 0a3.001 3.001 0 01-6 0c0-1.655 1.345-3 3-3s3 1.345 3 3"/>
  </g>
  <circle cx="36" cy="35.643" r="23" fill="#FCEA2B"/>
  <path fill="#9B9B9A" d="M58.297 54.198l-1.947 1.946a2.402 2.402 0 01-3.397 0l-4.86-4.86a2.402 2.402 0 010-3.397l1.946-1.947a2.402 2.402 0 013.397 0l4.86 4.861a2.402 2.402 0 010 3.397z"/>
  <path fill="#D0CFCE" d="M50.355 47.787l-.512.513a.737.737 0 01-1.043 0l-1.615-1.616a.737.737 0 010-1.042l.512-.512a.737.737 0 011.042 0l1.616 1.615a.737.737 0 010 1.042z"/>
  <path fill="none" stroke="#000" stroke-linecap="round" stroke-linejoin="round" stroke-miterlimit="10" stroke-width="2" d="M47.705 45.684l-23.665-.089m.521.27v3.303m1.911-7.142v3.303m1.941.536v3.303m1.912-7.142v3.303m1.928.536v3.303m1.911-7.142v3.303m1.941.536v3.303m1.912-7.142v3.303m1.915.536v3.303m1.912-7.142v3.303m1.969.536v3.303m1.887-7.142v3.303"/>
  <path fill="none" stroke="#000" stroke-linecap="round" stroke-miterlimit="10" stroke-width="2" d="M50.918 45.328a2.402 2.402 0 012.518.56l4.86 4.86a2.402 2.402 0 010 3.397l-1.946 1.946a2.402 2.402 0 01-3.397 0l-4.86-4.86a2.402 2.402 0 01-.604-2.387"/>
  <path fill="none" stroke="#000" stroke-linecap="round" stroke-linejoin="round" stroke-miterlimit="10" stroke-width="2" d="M57.481 44.237A22.944 22.944 0 0059 36c0-12.703-10.298-23-23-23S13 23.297 13 36c0 12.702 10.298 23 23 23 4.07 0 7.893-1.057 11.21-2.912"/>
  <path d="M30 31a3.001 3.001 0 01-6 0c0-1.655 1.345-3 3-3s3 1.345 3 3m18 0a3.001 3.001 0 01-6 0c0-1.655 1.345-3 3-3s3 1.345 3 3"/>
</svg>
