<svg viewBox="0 0 72 72" xmlns="http://www.w3.org/2000/svg">
  <path fill="#b3b3b3" d="M68 4v64H4V4h64m4-4H0v72h72V0z"/>
  <path fill="none" stroke="#00a5ff" stroke-miterlimit="10" stroke-width="0.1" d="M12.923 10.958h46.154A1.923 1.923 0 0161 12.881v46.154a1.923 1.923 0 01-1.923 1.923H12.923A1.923 1.923 0 0111 59.035V12.881a1.923 1.923 0 011.923-1.923z"/>
  <rect x="16" y="4" rx="2.254" width="40" height="64" fill="none" stroke="#00a5ff" stroke-miterlimit="10" stroke-width="0.1"/>
  <rect x="16" y="4" rx="2.254" width="40" height="64" transform="rotate(90 36 36)" fill="none" stroke="#00a5ff" stroke-miterlimit="10" stroke-width="0.1"/>
  <circle cx="36" cy="36" r="29" fill="none" stroke="#00a5ff" stroke-miterlimit="10" stroke-width="0.1"/>
  <path fill="none" stroke="#fff" stroke-linecap="round" stroke-linejoin="round" stroke-miterlimit="10" stroke-width="6" d="M45.527 36.545c5.857 1.475 9.28-7.576.815-9.33L31.5 24.313C32.625 13.438 33.5 6.438 25.437 5c-2.462-.375-5.5 0-4.875 2.5 3.25 14.625-3.125 22.604-4.896 24.455-7.199 7.198-7.199 18.87 0 26.068 3.126 2.935 6.16 2.727 13.771 2.727 1.438 0 20.633 4.731 20.633 4.731 6.875 1.813 8.97-5.516 4.346-7.079l-4.346-1.567M44.703 45.58c5.825 1.532 8.063-7.403.824-9.035m-2.115 18.234c5.827 1.57 7.188-7.596 1.291-9.2m-1.291 9.2l-5.693-1.583m6.984-7.616l-5.028-1.433m5.852-7.602l-4.133-.843"/>
  <path fill="#fcea2b" d="M41.719 53.188l3.434 1.739c3.687 1.219 5.478-6.702-.45-9.348l-1.875-1.257 3.133 1.257c3.528 1.658 7.642-6.237.49-9.695l-2.846-.562 4.99.562c3.107 1.835 3.662-6.083-1.208-8.393L31.5 24.313C32.625 13.438 33.5 6.438 25.437 5c-2.462-.375-5.5 0-4.875 2.5 3.25 14.625-3.125 22.604-4.896 24.455-7.199 7.198-7.199 18.87 0 26.068 3.126 2.935 6.16 2.727 13.771 2.727 1.438 0 19.601 4.48 19.601 4.48 6.875 1.813 10.648-5.572 6.023-7.134l-1.53-1.05"/>
  <g fill="none" stroke="#000" stroke-linecap="round" stroke-linejoin="round" stroke-width="2">
    <path d="M45.527 36.545c5.857 1.475 9.28-7.576.815-9.33L31.5 24.313C32.625 13.438 33.5 6.438 25.437 5c-2.462-.375-5.5 0-4.875 2.5 3.25 14.625-3.125 22.604-4.896 24.455-7.199 7.198-7.199 18.87 0 26.068 3.126 2.935 6.16 2.727 13.771 2.727 1.438 0 20.633 4.731 20.633 4.731 6.875 1.813 8.97-5.516 4.346-7.079l-4.346-1.567M44.703 45.58c5.825 1.532 8.063-7.403.824-9.035m-2.115 18.234c5.827 1.57 7.188-7.596 1.291-9.2"/>
    <path stroke-miterlimit="10" d="M43.412 54.779l-5.693-1.583m6.984-7.616l-5.028-1.433m5.852-7.602l-4.133-.843"/>
  </g>
</svg>
