<svg viewBox="0 0 72 72" xmlns="http://www.w3.org/2000/svg">
  <path fill="#B3B3B3" d="M68 4v64H4V4h64m4-4H0v72h72V0z"/>
  <path fill="none" stroke="#00A5FF" stroke-miterlimit="10" stroke-width="0.1" d="M12.923 10.958h46.154c1.062 0 1.923.861 1.923 1.923v46.154a1.923 1.923 0 01-1.923 1.923H12.923A1.923 1.923 0 0111 59.035V12.881c0-1.062.861-1.923 1.923-1.923z"/>
  <path fill="none" stroke="#00A5FF" stroke-miterlimit="10" stroke-width="0.1" d="M18.254 4h35.492A2.254 2.254 0 0156 6.254v59.492A2.254 2.254 0 0153.746 68H18.254A2.254 2.254 0 0116 65.746V6.254A2.254 2.254 0 0118.254 4z"/>
  <path fill="none" stroke="#00A5FF" stroke-miterlimit="10" stroke-width="0.1" d="M6.254 16h59.492A2.254 2.254 0 0168 18.254v35.492A2.254 2.254 0 0165.746 56H6.254A2.254 2.254 0 014 53.746V18.254A2.254 2.254 0 016.254 16z"/>
  <circle cx="36" cy="36" r="29" fill="none" stroke="#00A5FF" stroke-miterlimit="10" stroke-width="0.1"/>
  <g fill="none" stroke="#fff" stroke-linecap="round" stroke-linejoin="round" stroke-miterlimit="10" stroke-width="6">
    <path d="M44.916 27.11c.56.97 1.38 1.78 2.38 2.34 1.29.89 2.87 1.27 4.43 1.07M48 35a3.001 3.001 0 01-6 0c0-1.655 1.345-3 3-3s3 1.345 3 3M33.108 46.888s5.733-1.069 11.663 2.094M14.496 44.18s3.79-3.84 9.95-8.55c1.21-.93 2.52-1.89 3.91-2.86 2.89-2.04 6.13-4.12 9.62-6.05"/>
    <path d="M28.7 32.532c-.112.08-.232.158-.344.237-1.39.97-2.7 1.93-3.91 2.86l-.304.236A2.992 2.992 0 0027 38a2.996 2.996 0 001.7-5.468zm28.97-3.669c-15.94-3.538-41.948-1.937-41.948-1.937m3.644-6.646s21.583-1.555 34.954 1.983"/>
    <path d="M57.886 28.908C54.896 19.675 46.227 13 36 13c-12.703 0-23 10.297-23 23 0 2.882.53 5.64 1.498 8.181m1.587 3.333C20.063 54.38 27.492 59 36 59c12.702 0 23-10.298 23-23a23.17 23.17 0 00-.289-3.652"/>
  </g>
  <circle cx="36" cy="36" r="24" fill="#FCEA2B"/>
  <path fill="#FFF" d="M37.976 26.72c6.783.246 13.84.843 19.694 2.143l.216.045C54.896 19.675 46.227 13 36 13c-12.703 0-23 10.297-23 23 0 2.882.53 5.64 1.498 8.181l-.002-.002s3.79-3.84 9.95-8.55c1.21-.93 2.52-1.89 3.91-2.86 2.89-2.04 6.13-4.12 9.62-6.05"/>
  <path fill="none" stroke="#000" stroke-linecap="round" stroke-linejoin="round" stroke-miterlimit="10" stroke-width="2" d="M44.916 27.11c.56.97 1.38 1.78 2.38 2.34 1.29.89 2.87 1.27 4.43 1.07"/>
  <path d="M48 35a3.001 3.001 0 01-6 0c0-1.655 1.345-3 3-3s3 1.345 3 3"/>
  <path fill="none" stroke="#000" stroke-linecap="round" stroke-linejoin="round" stroke-miterlimit="10" stroke-width="2" d="M33.108 46.888s5.733-1.069 11.663 2.094M14.496 44.18s3.79-3.84 9.95-8.55c1.21-.93 2.52-1.89 3.91-2.86 2.89-2.04 6.13-4.12 9.62-6.05"/>
  <path d="M28.7 32.532c-.112.08-.232.158-.344.237-1.39.97-2.7 1.93-3.91 2.86l-.304.236A2.992 2.992 0 0027 38a2.996 2.996 0 001.7-5.468z"/>
  <path fill="none" stroke="#000" stroke-linecap="round" stroke-linejoin="round" stroke-miterlimit="10" stroke-width="2" d="M57.67 28.863c-15.94-3.538-41.948-1.937-41.948-1.937m3.644-6.646s21.583-1.555 34.954 1.983"/>
  <path fill="none" stroke="#000" stroke-linecap="round" stroke-linejoin="round" stroke-miterlimit="10" stroke-width="2" d="M57.886 28.908C54.896 19.675 46.227 13 36 13c-12.703 0-23 10.297-23 23 0 2.882.53 5.64 1.498 8.181m1.587 3.333C20.063 54.38 27.492 59 36 59c12.702 0 23-10.298 23-23a23.17 23.17 0 00-.289-3.652"/>
</svg>
