<svg viewBox="0 0 72 72" xmlns="http://www.w3.org/2000/svg">
  <path fill="#B3B3B3" d="M68 4v64H4V4h64m4-4H0v72h72V0z"/>
  <path fill="none" stroke="#00A5FF" stroke-miterlimit="10" stroke-width="0.1" d="M12.923 10.958h46.154c1.062 0 1.923.861 1.923 1.923v46.154a1.923 1.923 0 01-1.923 1.923H12.923A1.923 1.923 0 0111 59.035V12.881c0-1.062.861-1.923 1.923-1.923z"/>
  <path fill="none" stroke="#00A5FF" stroke-miterlimit="10" stroke-width="0.1" d="M18.254 4h35.492A2.254 2.254 0 0156 6.254v59.492A2.254 2.254 0 0153.746 68H18.254A2.254 2.254 0 0116 65.746V6.254A2.254 2.254 0 0118.254 4z"/>
  <path fill="none" stroke="#00A5FF" stroke-miterlimit="10" stroke-width="0.1" d="M6.254 16h59.492A2.254 2.254 0 0168 18.254v35.492A2.254 2.254 0 0165.746 56H6.254A2.254 2.254 0 014 53.746V18.254A2.254 2.254 0 016.254 16z"/>
  <circle cx="36" cy="36" r="29" fill="none" stroke="#00A5FF" stroke-miterlimit="10" stroke-width="0.1"/>
  <g fill="none" stroke="#fff" stroke-linecap="round" stroke-linejoin="round" stroke-miterlimit="10" stroke-width="6">
    <path d="M47.744 38.641c.1-.1.3-.2.5-.3 2-.6 3.9 1.4 3.3 3.4-.1.3-.2.6-.5.8M50.975 27.2c-1.6-2.8-4.8-4.1-7.9-3.4"/>
    <path d="M56.991 26.66C53.376 18.624 45.341 13 36 13c-12.655 0-23 10.245-23 23 0 12.655 10.245 23 23 23 10.646 0 19.585-7.231 22.197-16.974"/>
    <path d="M30 33a3.001 3.001 0 01-6 0c0-1.655 1.345-3 3-3s3 1.345 3 3m18 0a3.001 3.001 0 01-6 0c0-1.655 1.345-3 3-3s3 1.345 3 3m-26.975-5.8c.7-1.4 1.9-2.4 3.4-3 1.4-.7 3-.8 4.5-.4M40 49.3l-.7-.8c-.7-.9-.6-2.2.2-2.9l17-14.4c.9-.7 2.2-.6 2.9.2l.7.8c.7.9.6 2.2-.2 2.9l-17 14.4c-.8.8-2.1.7-2.9-.2zm-10.4 1.4c4.3-2.3 9.1-2.4 12.8 0"/>
    <path d="M40 49.3l-.7-.8c-.7-.9-.6-2.2.2-2.9l17-14.4c.9-.7 2.2-.6 2.9.2l.7.8c.7.9.6 2.2-.2 2.9l-17 14.4c-.8.8-2.1.7-2.9-.2z"/>
  </g>
  <path fill="none" stroke="#000" stroke-linecap="round" stroke-linejoin="round" stroke-miterlimit="10" stroke-width="2" d="M47.744 38.641c.1-.1.3-.2.5-.3 2-.6 3.9 1.4 3.3 3.4-.1.3-.2.6-.5.8"/>
  <circle cx="36" cy="36" r="24" fill="#FCEA2B"/>
  <path fill="#FFF" d="M40 49.2l-.7-.8c-.7-.9-.6-2.2.2-2.9l17-14.4c.9-.7 2.2-.6 2.9.2l.7.8c.7.9.6 2.2-.2 2.9l-17 14.4c-.8.8-2.1.7-2.9-.2z"/>
  <path fill="#EA5A47" d="M39.8 49l-.2-.3c-.6-.7-.5-1.7.2-2.3l8.6-7.3c.7-.6 1.7-.5 2.3.2l.2.3c.6.7.5 1.7-.2 2.3l-8.6 7.3c-.7.6-1.7.5-2.3-.2z"/>
  <path fill="none" stroke="#000" stroke-linecap="round" stroke-linejoin="round" stroke-miterlimit="10" stroke-width="2" d="M50.975 27.2c-1.6-2.8-4.8-4.1-7.9-3.4m13.916 2.86C53.376 18.624 45.341 13 36 13c-12.655 0-23 10.245-23 23 0 12.655 10.245 23 23 23 10.646 0 19.585-7.231 22.197-16.974"/>
  <path d="M30 33a3.001 3.001 0 01-6 0c0-1.655 1.345-3 3-3s3 1.345 3 3m18 0a3.001 3.001 0 01-6 0c0-1.655 1.345-3 3-3s3 1.345 3 3"/>
  <path fill="none" stroke="#000" stroke-linecap="round" stroke-linejoin="round" stroke-miterlimit="10" stroke-width="2" d="M21.025 27.2c.7-1.4 1.9-2.4 3.4-3 1.4-.7 3-.8 4.5-.4"/>
  <path fill="none" stroke="#000" stroke-miterlimit="10" d="M40 49.3l-.7-.8c-.7-.9-.6-2.2.2-2.9l17-14.4c.9-.7 2.2-.6 2.9.2l.7.8c.7.9.6 2.2-.2 2.9l-17 14.4c-.8.8-2.1.7-2.9-.2z"/>
  <path fill="none" stroke="#000" stroke-linecap="round" stroke-linejoin="round" stroke-miterlimit="10" stroke-width="2" d="M29.6 50.7c4.3-2.3 9.1-2.4 12.8 0"/>
  <path fill="none" stroke="#000" stroke-miterlimit="10" stroke-width="2" d="M40 49.3l-.7-.8c-.7-.9-.6-2.2.2-2.9l17-14.4c.9-.7 2.2-.6 2.9.2l.7.8c.7.9.6 2.2-.2 2.9l-17 14.4c-.8.8-2.1.7-2.9-.2z"/>
</svg>
