<svg viewBox="0 0 72 72" xmlns="http://www.w3.org/2000/svg">
  <path fill="#B3B3B3" d="M68 4v64H4V4h64m4-4H0v72h72V0z"/>
  <path fill="none" stroke="#00A5FF" stroke-miterlimit="10" stroke-width="0.1" d="M12.923 10.958h46.154c1.062 0 1.923.861 1.923 1.923h0v46.154a1.923 1.923 0 01-1.923 1.923H12.923A1.923 1.923 0 0111 59.035h0V12.881c0-1.062.861-1.923 1.923-1.923h0z"/>
  <path fill="none" stroke="#00A5FF" stroke-miterlimit="10" stroke-width="0.1" d="M18.254 4h35.492A2.254 2.254 0 0156 6.254v59.492A2.254 2.254 0 0153.746 68H18.254A2.254 2.254 0 0116 65.746V6.254A2.254 2.254 0 0118.254 4z"/>
  <path fill="none" stroke="#00A5FF" stroke-miterlimit="10" stroke-width="0.1" d="M68 18.254v35.492A2.254 2.254 0 0165.746 56H6.254A2.254 2.254 0 014 53.746V18.254A2.254 2.254 0 016.254 16h59.492A2.254 2.254 0 0168 18.254z"/>
  <circle cx="36" cy="36" r="29" fill="none" stroke="#00A5FF" stroke-miterlimit="10" stroke-width="0.1"/>
  <g fill="none" stroke="#fff" stroke-linecap="round" stroke-linejoin="round" stroke-miterlimit="10" stroke-width="6">
    <path d="M21.19 27.2a6.306 6.306 0 013.391-3 6.303 6.303 0 014.53-.42M50.8 27.2a7.191 7.191 0 00-7.909-3.431"/>
    <path d="M50.24 54.07c5.338-4.212 8.764-10.74 8.764-18.07 0-12.7-10.3-23-23-23s-23 10.3-23 23 10.3 23 23 23c.368 0 .733-.009 1.096-.026"/>
    <path d="M25.07 34.8c.621-.698 1.406-1.414 2.452-1.773 1.059-.364 2.116-.364 3.275-.249M46.95 34.8c-.621-.698-1.406-1.414-2.452-1.773-1.059-.364-2.116-.364-3.275-.249M47.89 44.69c0 3.569-3.975 6.406-11.94 6.406-7.967 0-11.99-2.846-11.99-6.406h.094s12.14 3.063 23.68.066z"/>
    <path d="M42.85 55.56c0 .733-.558 1.328-1.246 1.328v0c-.688 0-1.246-.594-1.246-1.328v-4.387m6-2.853V59.8c0 .866-.783 1.568-1.749 1.568v0c-.966 0-1.749-.702-1.749-1.568v-4.703"/>
  </g>
  <circle cx="36" cy="36" r="24" fill="#FCEA2B"/>
  <path fill="#EA5A47" d="M48.16 44.41c0 3.569-3.975 6.406-11.94 6.406-7.967 0-11.99-2.846-11.99-6.406h.094s12.14 3.063 23.68.066l.16-.066z"/>
  <path fill="#92D3F5" d="M43.04 55.78c0 .733-.558 1.328-1.246 1.328s-1.246-.594-1.246-1.328v-4.387l3.261-1.223 2.739-1.63v11.48c0 .866-.783 1.568-1.749 1.568s-1.749-.702-1.749-1.568v-4.703"/>
  <g fill="none" stroke="#000" stroke-linecap="round" stroke-linejoin="round" stroke-miterlimit="10" stroke-width="2">
    <path d="M21.19 27.2a6.306 6.306 0 013.391-3 6.303 6.303 0 014.53-.42M50.8 27.2a7.191 7.191 0 00-7.909-3.431"/>
    <path d="M50.24 54.07c5.338-4.212 8.764-10.74 8.764-18.07 0-12.7-10.3-23-23-23s-23 10.3-23 23 10.3 23 23 23c.368 0 .733-.009 1.096-.026"/>
    <path d="M25.07 34.8c.621-.698 1.406-1.414 2.452-1.773 1.059-.364 2.116-.364 3.275-.249M46.95 34.8c-.621-.698-1.406-1.414-2.452-1.773-1.059-.364-2.116-.364-3.275-.249M47.89 44.69c0 3.569-3.975 6.406-11.94 6.406-7.967 0-11.99-2.846-11.99-6.406h.094s12.14 3.063 23.68.066z"/>
    <path d="M42.85 55.56c0 .733-.558 1.328-1.246 1.328v0c-.688 0-1.246-.594-1.246-1.328v-4.387m6-2.853V59.8c0 .866-.783 1.568-1.749 1.568v0c-.966 0-1.749-.702-1.749-1.568v-4.703"/>
  </g>
</svg>
