<svg viewBox="0 0 72 72" xmlns="http://www.w3.org/2000/svg">
  <path fill="#B3B3B3" d="M68 4v64H4V4h64m4-4H0v72h72V0z"/>
  <path fill="none" stroke="#00A5FF" stroke-miterlimit="10" stroke-width="0.1" d="M12.923 10.958h46.154c1.062 0 1.923.861 1.923 1.923v46.154a1.923 1.923 0 01-1.923 1.923H12.923A1.923 1.923 0 0111 59.035h0V12.881c0-1.062.861-1.923 1.923-1.923h0z"/>
  <path fill="none" stroke="#00A5FF" stroke-miterlimit="10" stroke-width="0.1" d="M18.254 4h35.492A2.254 2.254 0 0156 6.254v59.492A2.254 2.254 0 0153.746 68H18.254A2.254 2.254 0 0116 65.746V6.254A2.254 2.254 0 0118.254 4z"/>
  <path fill="none" stroke="#00A5FF" stroke-miterlimit="10" stroke-width="0.1" d="M68 18.254v35.492A2.254 2.254 0 0165.746 56H6.254A2.254 2.254 0 014 53.746V18.254A2.254 2.254 0 016.254 16h59.492A2.254 2.254 0 0168 18.254z"/>
  <circle cx="36" cy="36" r="29" fill="none" stroke="#00A5FF" stroke-miterlimit="10" stroke-width="0.1"/>
  <g fill="none" stroke="#fff" stroke-linecap="round" stroke-linejoin="round" stroke-miterlimit="10" stroke-width="6">
    <circle cx="36" cy="36" r="23"/>
    <path d="M30 31.925a3.001 3.001 0 01-6 0c0-1.655 1.345-3 3-3s3 1.345 3 3m18 0a3.001 3.001 0 01-6 0c0-1.655 1.345-3 3-3s3 1.345 3 3M40.945 46.7h-9.89c-1.28 0-2.327-1.485-2.327-3.3h0c0-1.815 1.047-3.3 2.327-3.3h9.89c1.28 0 2.328 1.485 2.328 3.3h0c0 1.815-1.048 3.3-2.328 3.3zM23 23.113l7 4m19-4l-7 4M55.295 8.829v4.324"/>
    <circle cx="55.295" cy="15.829" r="1"/>
    <path d="M62.317 16.829l-1.064 7m4.18-7l-1.065 7m-4.333-5.05l7.081-.007M59.57 21.86l7.08-.007"/>
  </g>
  <path fill="#FCEA2B" d="M36 13c-12.682 0-23 10.318-23 23s10.318 23 23 23 23-10.318 23-23-10.318-23-23-23z"/>
  <path fill="#FFF" d="M40.945 46.7h-9.89c-1.28 0-2.327-1.485-2.327-3.3 0-1.815 1.047-3.3 2.327-3.3h9.89c1.28 0 2.328 1.485 2.328 3.3 0 1.815-1.048 3.3-2.328 3.3z"/>
  <circle cx="36" cy="36" r="23" fill="none" stroke="#000" stroke-miterlimit="10" stroke-width="2"/>
  <path d="M30 31.925a3.001 3.001 0 01-6 0c0-1.655 1.345-3 3-3s3 1.345 3 3m18 0a3.001 3.001 0 01-6 0c0-1.655 1.345-3 3-3s3 1.345 3 3"/>
  <path fill="none" stroke="#000" stroke-miterlimit="2" stroke-width="2" d="M40.945 46.7h-9.89c-1.28 0-2.327-1.485-2.327-3.3h0c0-1.815 1.047-3.3 2.327-3.3h9.89c1.28 0 2.328 1.485 2.328 3.3h0c0 1.815-1.048 3.3-2.328 3.3z"/>
  <path fill="none" stroke="#000" stroke-linecap="round" stroke-linejoin="round" stroke-miterlimit="10" stroke-width="2" d="M23 23.113l7 4m19-4l-7 4M55.295 8.829v4.324"/>
  <circle cx="55.295" cy="15.829" r="1"/>
  <path fill="none" stroke="#000" stroke-linecap="round" stroke-linejoin="round" stroke-miterlimit="10" stroke-width="2" d="M62.317 16.829l-1.064 7m4.18-7l-1.065 7m-4.333-5.05l7.081-.007M59.57 21.86l7.08-.007"/>
</svg>
