<svg viewBox="0 0 72 72" xmlns="http://www.w3.org/2000/svg">
  <path fill="#B3B3B3" d="M68 4v64H4V4h64m4-4H0v72h72V0z"/>
  <path fill="none" stroke="#00A5FF" stroke-miterlimit="10" stroke-width="0.1" d="M12.923 10.958h46.154c1.062 0 1.923.861 1.923 1.923v46.154a1.923 1.923 0 01-1.923 1.923H12.923A1.923 1.923 0 0111 59.035h0V12.881c0-1.062.861-1.923 1.923-1.923h0z"/>
  <path fill="none" stroke="#00A5FF" stroke-miterlimit="10" stroke-width="0.1" d="M18.254 4h35.492A2.254 2.254 0 0156 6.254v59.492A2.254 2.254 0 0153.746 68H18.254A2.254 2.254 0 0116 65.746V6.254A2.254 2.254 0 0118.254 4z"/>
  <path fill="none" stroke="#00A5FF" stroke-miterlimit="10" stroke-width="0.1" d="M68 18.254v35.492A2.254 2.254 0 0165.746 56H6.254A2.254 2.254 0 014 53.746V18.254A2.254 2.254 0 016.254 16h59.492A2.254 2.254 0 0168 18.254z"/>
  <circle cx="36" cy="36" r="29" fill="none" stroke="#00A5FF" stroke-miterlimit="10" stroke-width="0.1"/>
  <g fill="none" stroke="#fff" stroke-linecap="round" stroke-linejoin="round" stroke-miterlimit="10" stroke-width="6">
    <circle cx="34.969" cy="20.094" r="3"/>
    <path d="M30 43v-7c0-1.1-.225-2.675-.5-3.5L29 31m13 4l-1 8M5 43c3 0 9 3 15 3s10-3 16-3 11 3 16 3 7-3 15-3m-20.994 7.964C48.045 51.53 50.023 52 52 52c2.744 0 4.585-.904 7.009-1.72m-46.232.607C15.044 51.488 17.523 52 20 52c6 0 10-3 16-3m-9.999 8.959c3.208-.883 6.203-2.084 9.999-2.084 4.406 0 8.273 1.618 11.997 2.478"/>
    <circle cx="14.969" cy="15.094" r="3"/>
    <path d="M17.875 16l2.469 7.11c.361 1.04 1.529 2.108 2.596 2.375l4.12 1.03a28.75 28.75 0 003.934.638l9.012.694c1.096.084 2.63.79 3.408 1.567l.172.172c.777.777 1.708 2.265 2.066 3.305l.766 2.22a62.612 62.612 0 001.447 3.726L50.75 45.5"/>
  </g>
  <path fill="#92D3F5" d="M68 43.334c0-1.916-11.917 3.041-16.917 3.041s-10-3-16-3-10 3-16 3S4 41.417 4 43.25c0 5.313-.27 7.48 1.667 11.167 1.962 3.734 9.958 3.667 13.083 6.917 2.415 2.512 7.125 1.833 10.25 1.833 2.166 0 4.552.083 8.969.083 3.833 0 10.488-1.334 13.28-1.334 2.333 0 5.791-3.386 6.5-4.803 2.003-4.003 6.55-.96 8.25-4.066 2.188-4 2.001-4.234 2.001-9.713z"/>
  <circle cx="14.969" cy="15.094" r="3" fill="#EA5A47"/>
  <g fill="#FCEA2B">
    <path d="M47.417 45s-3.709-7.75-4.48-10.375L41.063 44 36 42.875l-5.125.313-1.875-11-.969-.876c-.613-1.645-6.072-1.854-8.468-3.937-1.743-1.515-3.25-6.844-3.782-9.156l1.25-1.594 3.907 7.219L29.688 27l11.687 1.438 2.875 2.125 5.625 12.25.813 3.062L47.416 45z"/>
    <circle cx="34.969" cy="20.094" r="3"/>
  </g>
  <g fill="none" stroke="#000" stroke-miterlimit="10" stroke-width="2">
    <circle cx="34.969" cy="20.094" r="3"/>
    <path stroke-linecap="round" stroke-linejoin="round" d="M30 43v-7c0-1.1-.225-2.675-.5-3.5L29 31m13 4l-1 8M5 43c3 0 9 3 15 3s10-3 16-3 11 3 16 3 7-3 15-3m-20.994 7.964C48.045 51.53 50.023 52 52 52c2.744 0 4.585-.904 7.009-1.72m-46.232.607C15.044 51.488 17.523 52 20 52c6 0 10-3 16-3m-9.999 8.959c3.208-.883 6.203-2.084 9.999-2.084 4.406 0 8.273 1.618 11.997 2.478"/>
    <circle cx="14.969" cy="15.094" r="3"/>
    <path stroke-linecap="round" stroke-linejoin="round" d="M17.875 16l2.469 7.11c.361 1.04 1.529 2.108 2.596 2.375l4.12 1.03a28.75 28.75 0 003.934.638l9.012.694c1.096.084 2.63.79 3.408 1.567l.172.172c.777.777 1.708 2.265 2.066 3.305l.766 2.22a62.612 62.612 0 001.447 3.726L50.75 45.5"/>
  </g>
</svg>
