<svg viewBox="0 0 72 72" xmlns="http://www.w3.org/2000/svg">
  <path fill="#b3b3b3" d="M0 68.636h68.635V0H0zM3.813 3.813h61.01v61.01H3.813z"/>
  <path fill="none" stroke="#00a5ff" stroke-miterlimit="10" stroke-width="0.1" d="M56.316 58.11H12.32a1.833 1.833 0 01-1.833-1.833V12.28a1.833 1.833 0 011.833-1.834h43.997a1.833 1.833 0 011.833 1.834v43.996a1.833 1.833 0 01-1.833 1.834z"/>
  <path fill="none" stroke="#00a5ff" stroke-miterlimit="10" stroke-width="0.1" d="M51.234 64.823H17.401a2.148 2.148 0 01-2.149-2.15V5.963a2.148 2.148 0 012.149-2.149h33.833a2.148 2.148 0 012.149 2.149v56.712a2.148 2.148 0 01-2.149 2.149z"/>
  <path fill="none" stroke="#00a5ff" stroke-miterlimit="10" stroke-width="0.1" d="M3.813 51.235V17.4a2.149 2.149 0 012.149-2.149h56.712a2.149 2.149 0 012.148 2.15v33.833a2.148 2.148 0 01-2.148 2.148H5.962a2.148 2.148 0 01-2.15-2.148z"/>
  <circle cx="34.318" cy="34.318" r="27.645" fill="none" stroke="#00a5ff" stroke-miterlimit="10" stroke-width="0.1"/>
  <g fill="none" stroke="#fff" stroke-linecap="round" stroke-linejoin="round" stroke-miterlimit="10" stroke-width="6">
    <path d="M4.766 40.99c2.86 0 8.58 2.86 14.3 2.86s9.532-2.86 15.252-2.86 10.486 2.86 15.252 2.86 6.673-2.86 14.3-2.86m-20.02 7.627a19.97 19.97 0 005.72.953c2.574 0 4.386-.858 6.673-1.62m-44.041.572a26.51 26.51 0 006.864 1.048c5.72 0 9.532-2.86 15.252-2.86m-9.533 8.58c3.05-.858 5.91-2.002 9.533-2.002 4.194 0 7.912 1.525 11.44 2.383"/>
    <circle cx="14.299" cy="14.395" r="2.86"/>
    <circle cx="33.364" cy="19.161" r="3"/>
    <path d="M28.598 40.99v-6.672a11.732 11.732 0 00-.477-3.336c-.286-.763-.476-1.43-.476-1.43m12.392 3.813l-.953 7.626M17.063 15.252l2.384 6.769a4.199 4.199 0 002.478 2.288l3.908.953a16.737 16.737 0 003.718.572l8.58.667a6.03 6.03 0 013.24 1.525l.192.191a11.007 11.007 0 012.001 3.146l.763 2.097c.381.953.953 2.574 1.335 3.527l2.764 6.387M37.395 18.436s.636-.168.936.186c.353.417.406 1.748.796 2.39a3.362 3.362 0 001.646 1.417"/>
  </g>
  <g fill="#fcea2b">
    <path d="M45.185 42.897s-3.527-7.435-4.29-9.914l-1.716 8.961-4.862-1.049-4.861.286-1.812-10.485-.953-.859c-.572-1.525-5.815-1.81-8.103-3.717-1.62-1.43-3.05-6.483-3.622-8.77l1.24-1.526 3.717 6.864 8.389 3.05 11.153 1.335 2.765 2.002 5.338 11.63.763 2.955z"/>
    <circle cx="33.364" cy="19.161" r="2.86"/>
  </g>
  <path fill="#92d3f5" d="M64.822 41.277c0-1.811-11.344 2.86-16.11 2.86s-9.532-2.86-15.252-2.86-9.533 2.86-15.252 2.86S3.813 39.466 3.813 41.18c0 5.053-.286 7.15 1.62 10.677s9.533 3.527 12.488 6.578c2.288 2.383 6.769 1.715 9.724 1.715 2.097 0 4.385.096 8.58.096 3.622 0 10.009-1.24 12.678-1.24 2.193 0 5.53-3.24 6.196-4.575 1.907-3.813 6.292-.953 7.817-3.909 2.097-3.813 1.906-4.003 1.906-9.246z"/>
  <circle cx="14.299" cy="14.395" r="2.86" fill="#ea5a47"/>
  <g fill="none" stroke="#000" stroke-width="2">
    <path stroke-linecap="round" stroke-linejoin="round" d="M4.766 40.99c2.86 0 8.58 2.86 14.3 2.86s9.532-2.86 15.252-2.86 10.486 2.86 15.252 2.86 6.673-2.86 14.3-2.86m-20.02 7.627a19.97 19.97 0 005.72.953c2.574 0 4.386-.858 6.673-1.62m-44.041.572a26.51 26.51 0 006.864 1.048c5.72 0 9.532-2.86 15.252-2.86m-9.533 8.58c3.05-.858 5.91-2.002 9.533-2.002 4.194 0 7.912 1.525 11.44 2.383"/>
    <circle cx="14.299" cy="14.395" r="2.86" stroke-miterlimit="10"/>
    <circle cx="33.364" cy="19.161" r="3" stroke-miterlimit="10"/>
    <path stroke-linecap="round" stroke-linejoin="round" d="M28.598 40.99v-6.672a11.732 11.732 0 00-.477-3.336c-.286-.763-.476-1.43-.476-1.43m12.392 3.813l-.953 7.626M17.063 15.252l2.384 6.769a4.199 4.199 0 002.478 2.288l3.908.953a16.737 16.737 0 003.718.572l8.58.667a6.03 6.03 0 013.24 1.525l.192.191a11.007 11.007 0 012.001 3.146l.763 2.097c.381.953.953 2.574 1.335 3.527l2.764 6.387M37.395 18.436s.636-.168.936.186c.353.417.406 1.748.796 2.39a3.362 3.362 0 001.646 1.417"/>
  </g>
</svg>
