<svg viewBox="0 0 72 72" xmlns="http://www.w3.org/2000/svg">
  <path fill="#b3b3b3" d="M0 68.635h68.636V0H0zM3.813 3.813h61.01v61.01H3.813z"/>
  <path fill="none" stroke="#00a5ff" stroke-miterlimit="10" stroke-width="0.1" d="M56.317 58.11H12.32a1.833 1.833 0 01-1.833-1.833V12.28a1.833 1.833 0 011.833-1.834h43.997a1.833 1.833 0 011.833 1.834v43.996a1.833 1.833 0 01-1.833 1.834z"/>
  <path fill="none" stroke="#00a5ff" stroke-miterlimit="10" stroke-width="0.1" d="M51.235 64.822H17.4a2.148 2.148 0 01-2.148-2.148V5.962A2.148 2.148 0 0117.4 3.813h33.834a2.148 2.148 0 012.149 2.149v56.712a2.148 2.148 0 01-2.15 2.148z"/>
  <path fill="none" stroke="#00a5ff" stroke-miterlimit="10" stroke-width="0.1" d="M3.813 51.234V17.401a2.148 2.148 0 012.15-2.149h56.711a2.148 2.148 0 012.149 2.149v33.834a2.148 2.148 0 01-2.149 2.148H5.962a2.148 2.148 0 01-2.148-2.149z"/>
  <circle cx="34.318" cy="34.318" r="27.645" fill="none" stroke="#00a5ff" stroke-miterlimit="10" stroke-width="0.1"/>
  <g fill="none" stroke="#fff" stroke-linecap="round" stroke-linejoin="round" stroke-miterlimit="10" stroke-width="6">
    <circle cx="32.698" cy="49.57" r="3"/>
    <path d="M26.937 39.63l1.469-4.317c.19-1.049-.902-4.15-1.76-4.723l-15.493-7.712a2.286 2.286 0 01-1.143-2.383 1.59 1.59 0 012.192-.667l9.712 3.96c.869.434 7.279 1.996 7.279 1.996 1.048.286 4.84-.713 5.602-1.38 0 0 4.671-4.29 5.148-5.147l4.766-8.103a3.233 3.233 0 012.383-1.621c.763 0 1.144.762.763 1.81 0 0-3.257 8.39-3.725 9.404-.623 1.35-4.452 5.711-5.623 7.67a14.269 14.269 0 00-1.309 3.596 26.687 26.687 0 00-.6 3.662 12.17 12.17 0 00.548 3.598M23.832 57.196V49.57c0-3.241 1.716-5.243 3.813-5.72a16.245 16.245 0 019.533 0c2.097.477 3.813 2.574 3.813 5.72v7.626"/>
    <path d="M27.386 54.646s.658-.009.852-.43c.228-.496-.079-1.793.126-2.516a3.362 3.362 0 011.204-1.807"/>
  </g>
  <g fill="#fcea2b">
    <circle cx="32.698" cy="49.57" r="2.86"/>
    <path d="M22.593 44.9c-1.24 1.906-.953 5.147-.953 10.58 0 1.811.095 2.67 2.288 2.67a41.492 41.492 0 010-8.77c.477-5.72 3.622-5.34 7.435-6.388s7.627 1.811 8.77 3.337.954 11.82.954 11.82c3.05 0 2.192-2.478 2.192-2.478 0 2.478 1.24-9.724-.762-12.202a34.285 34.285 0 00-3.432-3.432l-1.907-1.906.66-8.277s3.683-5.03 5.767-7.59l5.012-12.731h-2.86l-6.672 11.439-5.72 4.766-2.029.27-10.364-2.176-10.486-4.766-.953 2.86 9.532 5.72 7.468 2.889 1.584 4.594s-1.446 2.937-2.253 4.696c-.78 1.7-1.746 2.596-3.271 5.074z"/>
  </g>
  <g fill="none" stroke="#000" stroke-width="2">
    <circle cx="32.698" cy="49.57" r="3" stroke-miterlimit="10"/>
    <path stroke-linecap="round" stroke-linejoin="round" d="M26.937 39.63l1.469-4.317c.19-1.049-.902-4.15-1.76-4.723l-15.493-7.712a2.286 2.286 0 01-1.143-2.383 1.59 1.59 0 012.192-.667l9.712 3.96c.869.434 7.279 1.996 7.279 1.996 1.048.286 4.84-.713 5.602-1.38 0 0 4.671-4.29 5.148-5.147l4.766-8.103a3.233 3.233 0 012.383-1.621c.763 0 1.144.762.763 1.81 0 0-3.257 8.39-3.725 9.404-.623 1.35-4.452 5.711-5.623 7.67a14.269 14.269 0 00-1.309 3.596 26.687 26.687 0 00-.6 3.662 12.17 12.17 0 00.548 3.598M23.832 57.196V49.57c0-3.241 1.716-5.243 3.813-5.72a16.245 16.245 0 019.533 0c2.097.477 3.813 2.574 3.813 5.72v7.626"/>
    <path stroke-linecap="round" stroke-linejoin="round" d="M27.386 54.646s.658-.009.852-.43c.228-.496-.079-1.793.126-2.516a3.362 3.362 0 011.204-1.807"/>
  </g>
</svg>
