<svg viewBox="0 0 72 72" xmlns="http://www.w3.org/2000/svg">
  <path fill="#b3b3b3" d="M68 4v64H4V4h64m4-4H0v72h72V0z"/>
  <path fill="none" stroke="#00a5ff" stroke-miterlimit="10" stroke-width="0.1" d="M12.923 10.958h46.154A1.923 1.923 0 0161 12.881v46.154a1.923 1.923 0 01-1.923 1.923H12.923A1.923 1.923 0 0111 59.035V12.881a1.923 1.923 0 011.923-1.923z"/>
  <rect x="16" y="4" rx="2.254" width="40" height="64" fill="none" stroke="#00a5ff" stroke-miterlimit="10" stroke-width="0.1"/>
  <rect x="16" y="4" rx="2.254" width="40" height="64" transform="rotate(90 36 36)" fill="none" stroke="#00a5ff" stroke-miterlimit="10" stroke-width="0.1"/>
  <circle cx="36" cy="36" r="29" fill="none" stroke="#00a5ff" stroke-miterlimit="10" stroke-width="0.1"/>
  <g fill="none" stroke="#fff" stroke-linecap="round" stroke-linejoin="round" stroke-miterlimit="10" stroke-width="6">
    <path d="M46 38.965c4 0 4-6 4-13s-4-14-14-14-14 7-14 14 0 13 4 13"/>
    <path d="M41.873 29.965a2 2 0 11-2-2 2 2 0 012 2m-8 0a2 2 0 11-2-2 2 2 0 012 2"/>
    <path d="M24.936 30.965c0 9 4.937 14 11 14 5.937 0 11.064-5 11.064-14a12.133 12.133 0 00-1-5c-3-3-7-8-7-8-4 3-7 6-13 7 0 0-1.064 1-1.064 6zm9.148 7a11.5 11.5 0 003.937 0m-24.053 22l2.937-11.305-.937-1.25-4-3-4-6a1.414 1.414 0 012-2l4 4c1 1 2 1 5 2s3.13 3.237 3 5c-.666 8.973-1 12.556-1 12.556"/>
    <path d="M19.991 42.855s-1.023-2.89-2.117-5.89c-.432-1.182-1.906-1.031-1.906-.166v3.69m42.064 19.476L55.095 48.66l.937-1.25 4-3 4-6a1.414 1.414 0 00-2-2l-4 4c-1 1-2 1-5 2s-3.13 3.237-3 5c.667 8.973 1 12.556 1 12.556"/>
    <path d="M52.01 42.855s1.022-2.89 2.116-5.89c.43-1.182 1.906-1.031 1.906-.166v3.69M23 39.965l3-1m20 0l3.444 1"/>
  </g>
  <path fill="#92d3f5" d="M23 38.965s-4 1-4 3l2 2a35.36 35.36 0 011 6c0 2-1 11-1 11h30s-2-15-1-16l3-3c0-2-4-3-4-3"/>
  <g fill="#fcea2b">
    <path d="M25 30.965c0 9 4.936 14 11 14 5.936 0 11.063-5 11.063-14a12.133 12.133 0 00-1-5c-3-3-7-8-7-8-4 3-7 6-13 7 0 0-1.063 1-1.063 6zm-11.032 30l2.937-12.305-.937-1.25-4-3-4-6a1.414 1.414 0 012-2l4 4c1 1 2 1 5 2s3.13 3.237 3 5c-.666 8.973-1 13.556-1 13.556"/>
    <path d="M19.991 42.855s-1.023-2.89-2.117-5.89c-.432-1.182-1.906-1.031-1.906-.166v3.69m42.064 20.476L55.095 48.66l.937-1.25 4-3 4-6a1.414 1.414 0 00-2-2l-4 4c-1 1-2 1-5 2s-3.13 3.237-3 5c.667 8.973 1 13.556 1 13.556"/>
    <path d="M52.01 42.855s1.022-2.89 2.116-5.89c.43-1.182 1.906-1.031 1.906-.166v3.69"/>
  </g>
  <path fill="#f1b31c" d="M46.202 26.054c-2.661-.855-7.366-7.937-7.366-7.937-2.662 3.232-12.737 6.987-12.737 6.987-2.994 2.994-.045 13.858-.045 13.858-4 0-4-6-4-13s4-14 14-14 14 7 14 14 0 13-4 13c1.324-2.252.148-12.908.148-12.908z"/>
  <path fill="none" stroke="#000" stroke-linecap="round" stroke-linejoin="round" stroke-width="2" d="M46 38.965c4 0 4-6 4-13s-4-14-14-14-14 7-14 14 0 13 4 13"/>
  <path d="M41.873 29.965a2 2 0 11-2-2 2 2 0 012 2m-8 0a2 2 0 11-2-2 2 2 0 012 2"/>
  <path fill="none" stroke="#000" stroke-linejoin="round" stroke-width="2" d="M24.936 30.965c0 9 4.937 14 11 14 5.937 0 11.064-5 11.064-14a12.133 12.133 0 00-1-5c-3-3-7-8-7-8-4 3-7 6-13 7 0 0-1.064 1-1.064 6z"/>
  <path fill="none" stroke="#000" stroke-linecap="round" stroke-linejoin="round" stroke-width="2" d="M34.084 37.965a11.5 11.5 0 003.937 0m-24.053 22l2.937-11.305-.937-1.25-4-3-4-6a1.414 1.414 0 012-2l4 4c1 1 2 1 5 2s3.13 3.237 3 5c-.666 8.973-1 12.556-1 12.556"/>
  <path fill="none" stroke="#000" stroke-linecap="round" stroke-linejoin="round" stroke-width="2" d="M19.991 42.855s-1.023-2.89-2.117-5.89c-.432-1.182-1.906-1.031-1.906-.166v3.69m42.064 19.476L55.095 48.66l.937-1.25 4-3 4-6a1.414 1.414 0 00-2-2l-4 4c-1 1-2 1-5 2s-3.13 3.237-3 5c.667 8.973 1 12.556 1 12.556"/>
  <path fill="none" stroke="#000" stroke-linecap="round" stroke-linejoin="round" stroke-width="2" d="M52.01 42.855s1.022-2.89 2.116-5.89c.43-1.182 1.906-1.031 1.906-.166v3.69M23 39.965l3-1m20 0l3.444 1"/>
</svg>
