<svg viewBox="0 0 72 72" xmlns="http://www.w3.org/2000/svg">
  <path fill="#b3b3b3" d="M68 4v64H4V4h64m4-4H0v72h72V0z"/>
  <path fill="none" stroke="#00a5ff" stroke-miterlimit="10" stroke-width="0.1" d="M12.923 10.958h46.154A1.923 1.923 0 0161 12.881v46.154a1.923 1.923 0 01-1.923 1.923H12.923A1.923 1.923 0 0111 59.035V12.881a1.923 1.923 0 011.923-1.923z"/>
  <rect x="16" y="4" rx="2.254" width="40" height="64" fill="none" stroke="#00a5ff" stroke-miterlimit="10" stroke-width="0.1"/>
  <rect x="16" y="4" rx="2.254" width="40" height="64" transform="rotate(90 36 36)" fill="none" stroke="#00a5ff" stroke-miterlimit="10" stroke-width="0.1"/>
  <circle cx="36" cy="36" r="29" fill="none" stroke="#00a5ff" stroke-miterlimit="10" stroke-width="0.1"/>
  <g fill="none" stroke="#fff" stroke-linecap="round" stroke-linejoin="round" stroke-miterlimit="10" stroke-width="6">
    <path d="M35.815 44.728v8.744m-12.079-8.744v8.744m24.158-8.744v8.744"/>
    <circle cx="25.34" cy="29.179" r="2" transform="rotate(-37.022 25.341 29.181)"/>
    <path d="M38.775 19.046l11.518-8.687M26.937 27.975l5.041-3.802"/>
    <circle cx="44.944" cy="29.234" r="2" transform="rotate(-51.655 44.946 29.234)"/>
    <path d="M21.337 10.562l22.038 17.431m-31.357 8.226h47.739v23.849H12.018z"/>
  </g>
  <path fill="#EA5A47" d="M58.757 59.067V37.22H13.019v21.848h45.738z"/>
  <path fill="#a57939" d="M23.9 30.276c.29.385.715.635 1.194.702.483.06.955-.058 1.34-.348v-.002a1.81 1.81 0 00-1.09-3.254c-.38 0-.763.118-1.088.364a1.815 1.815 0 00-.355 2.538zm22.623.264a2.011 2.011 0 00-.329-2.82 2.007 2.007 0 10-2.49 3.148c.423.331.95.49 1.477.42a2.003 2.003 0 001.343-.749z"/>
  <path fill="#D22F27" d="M47.681 54.448l-.057 4.62h11.133v-21.85H47.894l-.08 6.513.08-.003a1 1 0 011 1v8.744a1 1 0 01-1 1l-.213-.024z"/>
  <g fill="none" stroke="#000" stroke-linecap="round" stroke-linejoin="round" stroke-miterlimit="10" stroke-width="2">
    <path d="M35.815 44.728v8.744m-12.079-8.744v8.744m24.158-8.744v8.744"/>
    <circle cx="25.34" cy="29.179" r="2" transform="rotate(-37.022 25.341 29.181)"/>
    <path d="M38.775 19.046l11.518-8.687M26.937 27.975l5.041-3.802"/>
    <circle cx="44.944" cy="29.234" r="2" transform="rotate(-51.655 44.946 29.234)"/>
    <path d="M21.337 10.562l22.038 17.431m-31.357 8.226h47.739v23.849H12.018z"/>
  </g>
</svg>
