<svg viewBox="0 0 72 72" xmlns="http://www.w3.org/2000/svg">
  <path fill="#b3b3b3" d="M68 4v64H4V4h64m4-4H0v72h72V0z"/>
  <path fill="none" stroke="#00a5ff" stroke-miterlimit="10" stroke-width="0.1" d="M12.923 10.958h46.154A1.923 1.923 0 0161 12.881v46.154a1.923 1.923 0 01-1.923 1.923H12.923A1.923 1.923 0 0111 59.035V12.881a1.923 1.923 0 011.923-1.923z"/>
  <rect x="16" y="4" rx="2.254" width="40" height="64" fill="none" stroke="#00a5ff" stroke-miterlimit="10" stroke-width="0.1"/>
  <rect x="16" y="4" rx="2.254" width="40" height="64" transform="rotate(90 36 36)" fill="none" stroke="#00a5ff" stroke-miterlimit="10" stroke-width="0.1"/>
  <circle cx="36" cy="36" r="29" fill="none" stroke="#00a5ff" stroke-miterlimit="10" stroke-width="0.1"/>
  <path fill="none" stroke="#fff" stroke-linecap="round" stroke-linejoin="round" stroke-miterlimit="10" stroke-width="6" d="M43.457 21.323c0-5.058-2.61-9.159-5.832-9.159s-5.832 4.1-5.832 9.159c0 4.698 1.355 8.566 4.257 9.094h0l-.811 28.412a2 2 0 104 0L39.21 30.41h0c2.897-.535 4.247-4.396 4.247-9.088z"/>
  <path fill="#D0CFCE" d="M43.457 21.323c0-5.058-2.61-9.159-5.832-9.159s-5.832 4.1-5.832 9.159c0 4.698 1.355 8.566 4.257 9.094l-.811 28.412a2 2 0 104 0L39.21 30.41c2.897-.535 4.247-4.396 4.247-9.088z"/>
  <path fill="none" stroke="#000" stroke-linecap="round" stroke-linejoin="round" stroke-miterlimit="10" stroke-width="2" d="M43.457 21.323c0-5.058-2.61-9.159-5.832-9.159s-5.832 4.1-5.832 9.159c0 4.698 1.355 8.566 4.257 9.094h0l-.811 28.412a2 2 0 104 0L39.21 30.41h0c2.897-.535 4.247-4.396 4.247-9.088z"/>
</svg>
