<svg viewBox="0 0 72 72" xmlns="http://www.w3.org/2000/svg">
  <path fill="#b3b3b3" d="M68 4v64H4V4h64m4-4H0v72h72V0z"/>
  <path fill="none" stroke="#00a5ff" stroke-miterlimit="10" stroke-width="0.1" d="M12.923 10.958h46.154A1.923 1.923 0 0161 12.881v46.154a1.923 1.923 0 01-1.923 1.923H12.923A1.923 1.923 0 0111 59.035V12.881a1.923 1.923 0 011.923-1.923z"/>
  <rect x="16" y="4" rx="2.254" width="40" height="64" fill="none" stroke="#00a5ff" stroke-miterlimit="10" stroke-width="0.1"/>
  <rect x="16" y="4" rx="2.254" width="40" height="64" transform="rotate(90 36 36)" fill="none" stroke="#00a5ff" stroke-miterlimit="10" stroke-width="0.1"/>
  <circle cx="36" cy="36" r="29" fill="none" stroke="#00a5ff" stroke-miterlimit="10" stroke-width="0.1"/>
  <g fill="none" stroke="#fff" stroke-linecap="round" stroke-linejoin="round" stroke-miterlimit="10" stroke-width="6">
    <circle cx="36.138" cy="35.763" r="25.012"/>
    <path d="M37.315 26.332l2.368-2.189c1.156-1.068 3.023-.169 2.908 1.4l-.234 3.217a1.735 1.735 0 001.468 1.841l3.188.487c1.556.238 2.017 2.258.718 3.147l-2.66 1.822a1.735 1.735 0 00-.524 2.296l1.606 2.795c.784 1.365-.508 2.985-2.013 2.524l-3.082-.944a1.735 1.735 0 00-2.123 1.022l-1.184 2.999c-.578 1.464-2.65 1.464-3.228 0l-1.184-3a1.735 1.735 0 00-2.122-1.021l-3.083.944c-1.505.461-2.796-1.159-2.012-2.524l1.606-2.795a1.735 1.735 0 00-.524-2.296l-2.66-1.822c-1.299-.89-.838-2.91.718-3.147l3.187-.487a1.735 1.735 0 001.469-1.841l-.235-3.216c-.114-1.57 1.753-2.469 2.909-1.4l2.368 2.188c.665.614 1.69.614 2.355 0z"/>
    <ellipse cx="24.191" cy="25.13" rx="0.914" ry="1.827" transform="rotate(-48.417 24.192 25.13)"/>
    <ellipse cx="36.039" cy="19.052" rx="0.914" ry="1.827"/>
    <ellipse cx="48.069" cy="25.24" rx="1.827" ry="0.914" transform="rotate(-45.001 48.069 25.24)"/>
    <ellipse cx="50.808" cy="38.1" rx="0.914" ry="1.827" transform="rotate(-83.633 50.812 38.101)"/>
    <ellipse cx="21.473" cy="37.99" rx="1.827" ry="0.914"/>
    <ellipse cx="29.379" cy="48.704" rx="1.827" ry="0.914" transform="rotate(-60 29.38 48.706)"/>
    <ellipse cx="43.053" cy="48.737" rx="0.914" ry="1.827" transform="rotate(-28.115 43.05 48.739)"/>
  </g>
  <circle cx="36.138" cy="35.763" r="25.012" fill="#5C9E31"/>
  <path fill="#B1CC33" d="M37.315 26.332l2.368-2.189c1.156-1.068 3.023-.169 2.908 1.4l-.234 3.217a1.735 1.735 0 001.468 1.841l3.188.487c1.556.238 2.017 2.258.718 3.147l-2.66 1.822a1.735 1.735 0 00-.524 2.296l1.606 2.795c.784 1.365-.508 2.985-2.013 2.524l-3.082-.944a1.735 1.735 0 00-2.123 1.022l-1.184 2.999c-.578 1.464-2.65 1.464-3.228 0l-1.184-3a1.735 1.735 0 00-2.122-1.021l-3.083.944c-1.505.461-2.796-1.159-2.012-2.524l1.606-2.795a1.735 1.735 0 00-.524-2.296l-2.66-1.822c-1.299-.89-.838-2.91.718-3.147l3.187-.487a1.735 1.735 0 001.469-1.841l-.235-3.216c-.114-1.57 1.753-2.469 2.909-1.4l2.368 2.188c.665.614 1.69.614 2.355 0z"/>
  <circle cx="36.138" cy="35.763" r="25.012" fill="none" stroke="#000" stroke-linecap="round" stroke-linejoin="round" stroke-miterlimit="10" stroke-width="2"/>
  <path fill="none" stroke="#000" stroke-linecap="round" stroke-linejoin="round" stroke-miterlimit="10" stroke-width="2" d="M37.315 26.332l2.368-2.189c1.156-1.068 3.023-.169 2.908 1.4l-.234 3.217a1.735 1.735 0 001.468 1.841l3.188.487c1.556.238 2.017 2.258.718 3.147l-2.66 1.822a1.735 1.735 0 00-.524 2.296l1.606 2.795c.784 1.365-.508 2.985-2.013 2.524l-3.082-.944a1.735 1.735 0 00-2.123 1.022l-1.184 2.999c-.578 1.464-2.65 1.464-3.228 0l-1.184-3a1.735 1.735 0 00-2.122-1.021l-3.083.944c-1.505.461-2.796-1.159-2.012-2.524l1.606-2.795a1.735 1.735 0 00-.524-2.296l-2.66-1.822c-1.299-.89-.838-2.91.718-3.147l3.187-.487a1.735 1.735 0 001.469-1.841l-.235-3.216c-.114-1.57 1.753-2.469 2.909-1.4l2.368 2.188c.665.614 1.69.614 2.355 0z"/>
  <ellipse cx="24.191" cy="25.13" rx="0.914" ry="1.827" transform="rotate(-48.417 24.192 25.13)"/>
  <ellipse cx="36.039" cy="19.052" rx="0.914" ry="1.827"/>
  <ellipse cx="48.069" cy="25.24" rx="1.827" ry="0.914" transform="rotate(-45.001 48.069 25.24)"/>
  <ellipse cx="50.808" cy="38.1" rx="0.914" ry="1.827" transform="rotate(-83.633 50.812 38.101)"/>
  <ellipse cx="21.473" cy="37.99" rx="1.827" ry="0.914"/>
  <ellipse cx="29.379" cy="48.704" rx="1.827" ry="0.914" transform="rotate(-60 29.38 48.706)"/>
  <ellipse cx="43.053" cy="48.737" rx="0.914" ry="1.827" transform="rotate(-28.115 43.05 48.739)"/>
</svg>
