<svg viewBox="0 0 72 72" xmlns="http://www.w3.org/2000/svg">
  <path fill="#b3b3b3" d="M68 4v64H4V4h64m4-4H0v72h72V0z"/>
  <path fill="none" stroke="#00a5ff" stroke-miterlimit="10" stroke-width="0.1" d="M12.923 10.958h46.154A1.923 1.923 0 0161 12.881v46.154a1.923 1.923 0 01-1.923 1.923H12.923A1.923 1.923 0 0111 59.035V12.881a1.923 1.923 0 011.923-1.923z"/>
  <rect x="16" y="4" rx="2.254" width="40" height="64" fill="none" stroke="#00a5ff" stroke-miterlimit="10" stroke-width="0.1"/>
  <rect x="16" y="4" rx="2.254" width="40" height="64" transform="rotate(90 36 36)" fill="none" stroke="#00a5ff" stroke-miterlimit="10" stroke-width="0.1"/>
  <circle cx="36" cy="36" r="29" fill="none" stroke="#00a5ff" stroke-miterlimit="10" stroke-width="0.1"/>
  <g fill="none" stroke="#fff" stroke-linecap="round" stroke-linejoin="round" stroke-miterlimit="10" stroke-width="6">
    <path d="M59.107 36.112l-8.018 4.769A4.993 4.993 0 0056 45a5 5 0 005-5c0-1.58-.748-2.972-1.893-3.888zM42 17a2 2 0 012 2l-3 15a2 2 0 01-2 2h-6a2 2 0 01-2-2l-3-15a2 2 0 012-2h12z"/>
    <path d="M53.496 23.576l-9.205-3.906a2.073 2.073 0 00-.4-.122L41 34c0 .882-.574 1.622-1.367 1.888.201.254.459.467.777.602l3.682 1.563a2 2 0 002.623-1.06L54.557 26.2a2 2 0 00-1.06-2.623z"/>
    <path d="M60.412 32.478l-5.756-5.556a1.926 1.926 0 00-.409-.297l-7.532 10.368a1.98 1.98 0 01-.887.967c-.13.646.057 1.344.567 1.835l1.439 1.39a2 2 0 002.828-.05l9.799-5.828a2 2 0 00-.049-2.829zm-47.519 3.634l8.018 4.769A4.993 4.993 0 0116 45a5 5 0 01-5-5c0-1.58.748-2.972 1.893-3.888zm5.611-12.536l9.205-3.906c.13-.056.266-.095.4-.122L31 34c0 .882.574 1.622 1.367 1.888a1.982 1.982 0 01-.777.602l-3.682 1.563a2 2 0 01-2.623-1.06L17.443 26.2a2 2 0 011.06-2.623z"/>
    <path d="M11.588 32.478l5.756-5.556c.125-.121.263-.216.409-.297l7.532 10.368c.183.432.504.758.887.967a1.992 1.992 0 01-.567 1.835l-1.439 1.39a2 2 0 01-2.828-.05l-9.799-5.828a2 2 0 01.049-2.829z"/>
  </g>
  <g fill="#f4aa41">
    <path d="M59.107 36.112l-8.018 4.769A4.993 4.993 0 0056 45a5 5 0 005-5c0-1.58-.748-2.972-1.893-3.888zM42 17a2 2 0 012 2l-3 15a2 2 0 01-2 2h-6a2 2 0 01-2-2l-3-15a2 2 0 012-2h12z"/>
    <path d="M53.496 23.576l-9.205-3.906a2.073 2.073 0 00-.4-.122L41 34c0 .882-.574 1.622-1.367 1.888.201.254.459.467.777.602l3.682 1.563a2 2 0 002.623-1.06L54.557 26.2a2 2 0 00-1.06-2.623z"/>
    <path d="M60.412 32.478l-5.756-5.556a1.926 1.926 0 00-.409-.297l-7.532 10.368a1.98 1.98 0 01-.887.967c-.13.646.057 1.344.567 1.835l1.439 1.39a2 2 0 002.828-.05l9.799-5.828a2 2 0 00-.049-2.829zm-47.519 3.634l8.018 4.769A4.993 4.993 0 0116 45a5 5 0 01-5-5c0-1.58.748-2.972 1.893-3.888zm5.611-12.536l9.205-3.906c.13-.056.266-.095.4-.122L31 34c0 .882.574 1.622 1.367 1.888a1.982 1.982 0 01-.777.602l-3.682 1.563a2 2 0 01-2.623-1.06L17.443 26.2a2 2 0 011.06-2.623z"/>
    <path d="M11.588 32.478l5.756-5.556c.125-.121.263-.216.409-.297l7.532 10.368c.183.432.504.758.887.967a1.992 1.992 0 01-.567 1.835l-1.439 1.39a2 2 0 01-2.828-.05l-9.799-5.828a2 2 0 01.049-2.829z"/>
  </g>
  <g fill="none" stroke="#000" stroke-linecap="round" stroke-linejoin="round" stroke-miterlimit="10" stroke-width="2">
    <path d="M59.107 36.112l-8.018 4.769A4.993 4.993 0 0056 45a5 5 0 005-5c0-1.58-.748-2.972-1.893-3.888zM42 17a2 2 0 012 2l-3 15a2 2 0 01-2 2h-6a2 2 0 01-2-2l-3-15a2 2 0 012-2h12z"/>
    <path d="M53.496 23.576l-9.205-3.906a2.073 2.073 0 00-.4-.122L41 34c0 .882-.574 1.622-1.367 1.888.201.254.459.467.777.602l3.682 1.563a2 2 0 002.623-1.06L54.557 26.2a2 2 0 00-1.06-2.623z"/>
    <path d="M60.412 32.478l-5.756-5.556a1.926 1.926 0 00-.409-.297l-7.532 10.368a1.98 1.98 0 01-.887.967c-.13.646.057 1.344.567 1.835l1.439 1.39a2 2 0 002.828-.05l9.799-5.828a2 2 0 00-.049-2.829zm-47.519 3.634l8.018 4.769A4.993 4.993 0 0116 45a5 5 0 01-5-5c0-1.58.748-2.972 1.893-3.888zm5.611-12.536l9.205-3.906c.13-.056.266-.095.4-.122L31 34c0 .882.574 1.622 1.367 1.888a1.982 1.982 0 01-.777.602l-3.682 1.563a2 2 0 01-2.623-1.06L17.443 26.2a2 2 0 011.06-2.623z"/>
    <path d="M11.588 32.478l5.756-5.556c.125-.121.263-.216.409-.297l7.532 10.368c.183.432.504.758.887.967a1.992 1.992 0 01-.567 1.835l-1.439 1.39a2 2 0 01-2.828-.05l-9.799-5.828a2 2 0 01.049-2.829z"/>
  </g>
</svg>
