<svg viewBox="0 0 72 72" xmlns="http://www.w3.org/2000/svg">
  <path fill="#b3b3b3" d="M68 4v64H4V4h64m4-4H0v72h72V0z"/>
  <path fill="none" stroke="#00a5ff" stroke-miterlimit="10" stroke-width="0.1" d="M12.923 10.958h46.154A1.923 1.923 0 0161 12.881v46.154a1.923 1.923 0 01-1.923 1.923H12.923A1.923 1.923 0 0111 59.035V12.881a1.923 1.923 0 011.923-1.923z"/>
  <rect x="16" y="4" rx="2.254" width="40" height="64" fill="none" stroke="#00a5ff" stroke-miterlimit="10" stroke-width="0.1"/>
  <rect x="16" y="4" rx="2.254" width="40" height="64" transform="rotate(90 36 36)" fill="none" stroke="#00a5ff" stroke-miterlimit="10" stroke-width="0.1"/>
  <circle cx="36" cy="36" r="29" fill="none" stroke="#00a5ff" stroke-miterlimit="10" stroke-width="0.1"/>
  <path fill="none" stroke="#fff" stroke-linecap="round" stroke-linejoin="round" stroke-miterlimit="10" stroke-width="6" d="M11.93 45.93c-3.904 3.904-3.906 10.236 0 14.141 3.905 3.906 10.239 3.906 14.143.001l34-34c3.904-3.907 3.904-10.238 0-14.142-3.907-3.907-10.238-3.907-14.143-.001l-34 34zm34-34.001c-3.905 3.905-3.905 10.237 0 14.142m-8.5-5.642c-3.905 3.905-3.905 10.237 0 14.142m-8.5-5.642c-3.904 3.906-3.904 10.238 0 14.142m-8.5-5.641c-3.904 3.905-3.904 10.237 0 14.142"/>
  <path fill="#f4aa41" d="M11.93 45.93c-3.904 3.904-3.906 10.236 0 14.141 3.905 3.906 10.239 3.906 14.143.001l34-34c3.904-3.907 3.904-10.238 0-14.142-3.907-3.907-10.238-3.907-14.143-.001l-34 34z"/>
  <path fill="none" stroke="#000" stroke-linecap="round" stroke-linejoin="round" stroke-miterlimit="10" stroke-width="2" d="M11.93 45.93c-3.904 3.904-3.906 10.236 0 14.141 3.905 3.906 10.239 3.906 14.143.001l34-34c3.904-3.907 3.904-10.238 0-14.142-3.907-3.907-10.238-3.907-14.143-.001l-34 34zm34-34.001c-3.905 3.905-3.905 10.237 0 14.142m-8.5-5.642c-3.905 3.905-3.905 10.237 0 14.142m-8.5-5.642c-3.904 3.906-3.904 10.238 0 14.142m-8.5-5.641c-3.904 3.905-3.904 10.237 0 14.142"/>
</svg>
