<svg viewBox="0 0 72 72" xmlns="http://www.w3.org/2000/svg">
  <path fill="#b3b3b3" d="M68 4v64H4V4h64m4-4H0v72h72V0z"/>
  <path fill="none" stroke="#00a5ff" stroke-miterlimit="10" stroke-width="0.1" d="M12.923 10.958h46.154A1.923 1.923 0 0161 12.881v46.154a1.923 1.923 0 01-1.923 1.923H12.923A1.923 1.923 0 0111 59.035V12.881a1.923 1.923 0 011.923-1.923z"/>
  <rect x="16" y="4" rx="2.254" width="40" height="64" fill="none" stroke="#00a5ff" stroke-miterlimit="10" stroke-width="0.1"/>
  <rect x="16" y="4" rx="2.254" width="40" height="64" transform="rotate(90 36 36)" fill="none" stroke="#00a5ff" stroke-miterlimit="10" stroke-width="0.1"/>
  <circle cx="36" cy="36" r="29" fill="none" stroke="#00a5ff" stroke-miterlimit="10" stroke-width="0.1"/>
  <g fill="none" stroke="#fff" stroke-linecap="round" stroke-linejoin="round" stroke-miterlimit="10" stroke-width="6">
    <path d="M43.496 46.96a.947.947 0 00.549.236.868.868 0 00.57-.175m-12.302-9.002a.947.947 0 00.549.236.868.868 0 00.57-.175m-2.742 9.014a.947.947 0 00.55.237.869.869 0 00.57-.175M44.16 26.86a.815.815 0 00.618.29 1.058 1.058 0 00.692-.334m-5.255 11.019a.816.816 0 00.618.29 1.057 1.057 0 00.692-.334m8.473-5.37a.815.815 0 00.618.29 1.057 1.057 0 00.691-.333M21.756 44.065a.946.946 0 00.55.236.868.868 0 00.569-.174"/>
    <path d="M48.842 17.226a2.006 2.006 0 012.814.283 23 23 0 01-35.615 29.113 2.006 2.006 0 01.283-2.814zM25 31c-.2-.677-.718-2.43 0-3 .882-.7 2.447 1.333 5 1m2.523.515c-1.124-3.987-.89-5.118-.424-5.369.795-.428 2.254 1.722 4.02 1.359a3.693 3.693 0 002.245-2.227m10.469 17.847a1.057 1.057 0 00.692-.334"/>
    <path d="M44.24 16.338a4.978 4.978 0 00-9.365 1.973 3.102 3.102 0 00-3.018-.375 3.44 3.44 0 00-1.697 2.033 4.956 4.956 0 00-5.79.342 4.846 4.846 0 00-1.312 5.98 2.803 2.803 0 00-2.752 1.216 3.087 3.087 0 00-.472 2.582 4.974 4.974 0 00-4.87 3.207 5.097 5.097 0 001.826 5.868m2.561-16.301a5.246 5.246 0 00-2.744 1.856 4.813 4.813 0 00-.888 3.18m11.839-11.745a5.246 5.246 0 012.365-2.32 4.812 4.812 0 013.293-.238"/>
  </g>
  <circle cx="20.712" cy="27.692" r="6" fill="#ea5a47"/>
  <path fill="#ea5a47" d="M37.521 16.018a5.955 5.955 0 11-7.872-2.994 6.023 6.023 0 017.872 2.994z"/>
  <path fill="#b1cc33" d="M49.074 17.036a2.961 2.961 0 00-4.897-.776 4.978 4.978 0 00-9.366 1.973 3.102 3.102 0 00-3.018-.374 3.44 3.44 0 00-1.696 2.033 4.956 4.956 0 00-5.791.342 4.846 4.846 0 00-1.311 5.98 2.803 2.803 0 00-2.752 1.216 3.087 3.087 0 00-.473 2.582 4.974 4.974 0 00-4.87 3.206 5.097 5.097 0 001.827 5.869 2.961 2.961 0 00-.776 4.897m9.363 18.565l2.843-1.42"/>
  <path fill="#6a462f" d="M32.523 29.515c-1.406-.472-1.599-4.797-.424-5.369.937-.456 2.205 1.74 4.02 1.359a3.612 3.612 0 002.245-2.227c-.065-.047-3.887 6.891-5.84 6.237z"/>
  <path fill="#6a462f" d="M25 31c-.2-.677-.718-2.43 0-3 .882-.7 2.447 1.333 5 1 1.758-.23 2.396-1.373 3-1 .839.518.644 3.366-1 5a4.458 4.458 0 01-5 1 4.622 4.622 0 01-2-3z"/>
  <path fill="#a57939" d="M48.842 17.226a2.006 2.006 0 012.814.283 23 23 0 01-35.615 29.113 2.006 2.006 0 01.283-2.814z"/>
  <g fill="none" stroke="#000" stroke-linecap="round" stroke-linejoin="round" stroke-width="2">
    <path d="M43.496 46.96a.947.947 0 00.549.236.868.868 0 00.57-.175m-12.302-9.002a.947.947 0 00.549.236.868.868 0 00.57-.175m-2.742 9.014a.947.947 0 00.55.237.869.869 0 00.57-.175M44.16 26.86a.815.815 0 00.618.29 1.058 1.058 0 00.692-.334m-5.255 11.019a.816.816 0 00.618.29 1.057 1.057 0 00.692-.334m8.473-5.37a.815.815 0 00.618.29 1.057 1.057 0 00.691-.333M21.756 44.065a.946.946 0 00.55.236.868.868 0 00.569-.174"/>
    <path d="M48.842 17.226a2.006 2.006 0 012.814.283 23 23 0 01-35.615 29.113 2.006 2.006 0 01.283-2.814zM25 31c-.2-.677-.718-2.43 0-3 .882-.7 2.447 1.333 5 1m2.523.515c-1.124-3.987-.89-5.118-.424-5.369.795-.428 2.254 1.722 4.02 1.359a3.693 3.693 0 002.245-2.227m10.469 17.847a1.057 1.057 0 00.692-.334"/>
    <path d="M44.24 16.338a4.978 4.978 0 00-9.365 1.973 3.102 3.102 0 00-3.018-.375 3.44 3.44 0 00-1.697 2.033 4.956 4.956 0 00-5.79.342 4.846 4.846 0 00-1.312 5.98 2.803 2.803 0 00-2.752 1.216 3.087 3.087 0 00-.472 2.582 4.974 4.974 0 00-4.87 3.207 5.097 5.097 0 001.826 5.868m2.561-16.301a5.246 5.246 0 00-2.744 1.856 4.813 4.813 0 00-.888 3.18m11.839-11.745a5.246 5.246 0 012.365-2.32 4.812 4.812 0 013.293-.238"/>
  </g>
</svg>
