<svg viewBox="0 0 72 72" xmlns="http://www.w3.org/2000/svg">
  <path fill="#b3b3b3" d="M68 4v64H4V4h64m4-4H0v72h72V0z"/>
  <path fill="none" stroke="#00a5ff" stroke-miterlimit="10" stroke-width="0.1" d="M12.923 10.958h46.154A1.923 1.923 0 0161 12.881v46.154a1.923 1.923 0 01-1.923 1.923H12.923A1.923 1.923 0 0111 59.035V12.881a1.923 1.923 0 011.923-1.923z"/>
  <rect x="16" y="4" rx="2.254" width="40" height="64" fill="none" stroke="#00a5ff" stroke-miterlimit="10" stroke-width="0.1"/>
  <rect x="16" y="4" rx="2.254" width="40" height="64" transform="rotate(90 36 36)" fill="none" stroke="#00a5ff" stroke-miterlimit="10" stroke-width="0.1"/>
  <circle cx="36" cy="36" r="29" fill="none" stroke="#00a5ff" stroke-miterlimit="10" stroke-width="0.1"/>
  <g fill="none" stroke="#fff" stroke-linecap="round" stroke-linejoin="round" stroke-miterlimit="10" stroke-width="6">
    <path d="M29 31c2.5 0 4.503-1.414 6.816-3.727C39.27 23.821 42.975 21 48 21c8.284 0 15 6.716 15 15s-6.716 15-15 15H19c-5.523 0-10-4.478-10-10s4.477-10 10-10"/>
    <path d="M26 27h-7c-7.733 0-14 6.267-14 14s6.267 14 14 14h29c10.495 0 19-8.505 19-19s-8.505-19-19-19c-5.693 0-10.79 2.514-14.27 6.48C31.898 25.651 29.066 27 26 27z"/>
    <circle cx="48" cy="36" r="5"/>
  </g>
  <path fill="#FFF" d="M26 27h-7c-7.733 0-14 6.267-14 14s6.267 14 14 14h29c10.495 0 19-8.505 19-19s-8.505-19-19-19c-5.693 0-10.79 2.514-14.27 6.48C31.898 25.651 29.066 27 26 27z"/>
  <path fill="#ea5a47" d="M29 31c2.5 0 4.503-1.414 6.816-3.727C39.27 23.821 42.975 21 48 21c8.284 0 15 6.716 15 15s-6.716 15-15 15H19c-5.523 0-10-4.478-10-10s4.477-10 10-10l.031-.976 10.032-.03L29 31z"/>
  <circle cx="48" cy="36" r="5" fill="#FFF"/>
  <g fill="none" stroke="#000" stroke-linecap="round" stroke-linejoin="round" stroke-miterlimit="10" stroke-width="2">
    <path d="M29 31c2.5 0 4.503-1.414 6.816-3.727C39.27 23.821 42.975 21 48 21c8.284 0 15 6.716 15 15s-6.716 15-15 15H19c-5.523 0-10-4.478-10-10s4.477-10 10-10"/>
    <path d="M26 27h-7c-7.733 0-14 6.267-14 14s6.267 14 14 14h29c10.495 0 19-8.505 19-19s-8.505-19-19-19c-5.693 0-10.79 2.514-14.27 6.48C31.898 25.651 29.066 27 26 27z"/>
    <circle cx="48" cy="36" r="5"/>
  </g>
</svg>
