<svg viewBox="0 0 72 72" xmlns="http://www.w3.org/2000/svg">
  <path fill="#B3B3B3" d="M68 4v64H4V4h64m4-4H0v72h72V0z"/>
  <path fill="none" stroke="#00A5FF" stroke-miterlimit="10" stroke-width="0.1" d="M12.923 10.958h46.154c1.062 0 1.923.861 1.923 1.923v46.154a1.923 1.923 0 01-1.923 1.923H12.923A1.923 1.923 0 0111 59.035V12.881c0-1.062.861-1.923 1.923-1.923z"/>
  <path fill="none" stroke="#00A5FF" stroke-miterlimit="10" stroke-width="0.1" d="M18.254 4h35.492A2.254 2.254 0 0156 6.254v59.492A2.254 2.254 0 0153.746 68H18.254A2.254 2.254 0 0116 65.746V6.254A2.254 2.254 0 0118.254 4z"/>
  <path fill="none" stroke="#00A5FF" stroke-miterlimit="10" stroke-width="0.1" d="M68 18.254v35.492A2.254 2.254 0 0165.746 56H6.254A2.254 2.254 0 014 53.746V18.254A2.254 2.254 0 016.254 16h59.492A2.254 2.254 0 0168 18.254z"/>
  <circle cx="36" cy="36" r="29" fill="none" stroke="#00A5FF" stroke-miterlimit="10" stroke-width="0.1"/>
  <g fill="none" stroke="#fff" stroke-linecap="round" stroke-linejoin="round" stroke-miterlimit="10" stroke-width="6">
    <path d="M36.45 42.118s10.55 3.108.046 5.564c0 0 10.482 2.901.04 4.912M21.02 27.355a6.306 6.306 0 013.365-3.028 6.304 6.304 0 014.527-.459m21.717 3.242a7.19 7.19 0 00-7.937-3.366M23.454 34.379a8.941 8.941 0 018-.067m9.249-.076a8.941 8.941 0 018-.067"/>
    <path d="M45.947 15.294c11.45 5.503 16.27 19.245 10.768 30.694S37.47 62.258 26.02 56.755 9.75 37.51 15.253 26.061a23.1 23.1 0 011.291-2.33m18.412-10.679a22.907 22.907 0 0110.991 2.242M17.384 20.98l-2.821-15m19 9.266l-19-9.266m2.821 15l16.179-5.734m28.383-3.633a4.876 4.876 0 01-.455 1.484 5.279 5.279 0 01-6.908 2.392M66.427 43.35a4.879 4.879 0 01-1.442-.576 5.28 5.28 0 01-1.82-7.081m-1.219 27.275a4.876 4.876 0 00-.455-1.484 5.279 5.279 0 00-6.908-2.392"/>
    <path d="M24.74 55.925a4.876 4.876 0 00-1.158-1.034 5.28 5.28 0 00-7.15 1.527m45.78-30.958a1.5 1.5 0 000-3 1.5 1.5 0 000 3zm0 25a1.5 1.5 0 000-3 1.5 1.5 0 000 3zm-33 16a1.5 1.5 0 000-3 1.5 1.5 0 000 3zm-9-18a1.5 1.5 0 000-3 1.5 1.5 0 000 3zm24 16a1.5 1.5 0 000-3 1.5 1.5 0 000 3zm-5.649-16.48h5.5s5.5 0 5.5-3c0-2.232-1.522-2.803-3.434-2.95"/>
  </g>
  <circle cx="36" cy="36" r="23" fill="#FCEA2B"/>
  <path fill="#F4AA41" d="M15.063 6.447l2 15 16-6z"/>
  <path fill="#E27022" d="M26.984 12.406l6.079 3.04-13.151 4.932"/>
  <path fill="#EA5A47" d="M15.396 10.835l5.225-2.018 2.833 1.762-7.891 3.367z"/>
  <path fill="#D22F27" d="M25.42 12.393l1.143-.447 4 1-6.5 2.786"/>
  <path fill="#EA5A47" d="M24.063 15.732l-7.504 3.215-.163-3.034 9.025-3.52"/>
  <g>
    <g fill="none" stroke="#000" stroke-linecap="round" stroke-linejoin="round" stroke-width="2">
      <path d="M36.45 42.118s10.55 3.108.046 5.564c0 0 10.482 2.901.04 4.912M21.02 27.355a6.306 6.306 0 013.365-3.028 6.304 6.304 0 014.527-.459m21.717 3.242a7.19 7.19 0 00-7.937-3.366M23.454 34.379a8.941 8.941 0 018-.067m9.249-.076a8.941 8.941 0 018-.067"/>
      <path d="M45.947 15.294c11.45 5.503 16.27 19.245 10.768 30.694S37.47 62.258 26.02 56.755 9.75 37.51 15.253 26.061a23.1 23.1 0 011.291-2.33m18.412-10.679a22.907 22.907 0 0110.991 2.242"/>
    </g>
    <path fill="none" stroke="#000" stroke-linecap="round" stroke-linejoin="round" stroke-width="2" d="M17.384 20.98l-2.821-15m19 9.266l-19-9.266m2.821 15l16.179-5.734M61.946 11.613a4.876 4.876 0 01-.455 1.484 5.279 5.279 0 01-6.908 2.392M66.427 43.35a4.879 4.879 0 01-1.442-.576 5.28 5.28 0 01-1.82-7.081m-1.219 27.275a4.876 4.876 0 00-.455-1.484 5.279 5.279 0 00-6.908-2.392M24.74 55.925a4.876 4.876 0 00-1.158-1.034 5.28 5.28 0 00-7.15 1.527"/>
    <path d="M62.212 25.46a1.5 1.5 0 000-3 1.5 1.5 0 000 3zm0 25a1.5 1.5 0 000-3 1.5 1.5 0 000 3zm-33 16a1.5 1.5 0 000-3 1.5 1.5 0 000 3zm-9-18a1.5 1.5 0 000-3 1.5 1.5 0 000 3zm24 16a1.5 1.5 0 000-3 1.5 1.5 0 000 3z"/>
    <path fill="none" stroke="#000" stroke-linecap="round" stroke-linejoin="round" stroke-width="2" d="M38.563 47.98h5.5s5.5 0 5.5-3c0-2.232-1.522-2.803-3.434-2.95"/>
  </g>
  <g>
    <path fill="#8967AA" d="M62.212 25.457a1.5 1.5 0 000-3 1.5 1.5 0 000 3zm-18 39a1.5 1.5 0 000-3 1.5 1.5 0 000 3z"/>
    <path fill="#F4AA41" d="M29.212 66.457a1.5 1.5 0 000-3 1.5 1.5 0 000 3z"/>
    <path fill="#D22F27" d="M20.212 48.457a1.5 1.5 0 000-3 1.5 1.5 0 000 3zm42 2a1.5 1.5 0 000-3 1.5 1.5 0 000 3z"/>
  </g>
</svg>
