<svg viewBox="0 0 72 72" xmlns="http://www.w3.org/2000/svg">
  <path fill="#b3b3b3" d="M68 4v64H4V4h64m4-4H0v72h72V0z"/>
  <path fill="none" stroke="#00a5ff" stroke-miterlimit="10" stroke-width="0.1" d="M12.923 10.958h46.154A1.923 1.923 0 0161 12.881v46.154a1.923 1.923 0 01-1.923 1.923H12.923A1.923 1.923 0 0111 59.035V12.881a1.923 1.923 0 011.923-1.923z"/>
  <rect x="16" y="4" rx="2.254" width="40" height="64" fill="none" stroke="#00a5ff" stroke-miterlimit="10" stroke-width="0.1"/>
  <rect x="16" y="4" rx="2.254" width="40" height="64" transform="rotate(90 36 36)" fill="none" stroke="#00a5ff" stroke-miterlimit="10" stroke-width="0.1"/>
  <circle cx="36" cy="36" r="29" fill="none" stroke="#00a5ff" stroke-miterlimit="10" stroke-width="0.1"/>
  <g fill="none" stroke="#fff" stroke-linecap="round" stroke-linejoin="round" stroke-miterlimit="10" stroke-width="6">
    <path d="M8 36l6 4-3-6m16.144 17.252L24 59h-3m11.85-4.877L31 59h4"/>
    <path d="M58 46h3s-5 10-23 9c0 0-7 0-15-8 0 0 1 7-4 5s-6-5-4-12l25 4"/>
    <path d="M56 59h-4l5-25-18 15"/>
  </g>
  <path fill="#5C9E31" d="M58 46h3s-5 10-23 9c0 0-7 0-15-8 0 0 1 7-4 5s-6-5-4-12l25 4"/>
  <path fill="#B1CC33" d="M39 50l17-15-2 11z"/>
  <g fill="none" stroke="#000" stroke-linecap="round" stroke-linejoin="round" stroke-miterlimit="10" stroke-width="2">
    <path d="M8 36l6 4-3-6m16.144 17.252L24 59h-3m11.85-4.877L31 59h4"/>
    <path d="M58 46h3s-5 10-23 9c0 0-7 0-15-8 0 0 1 7-4 5s-6-5-4-12l25 4"/>
    <path d="M56 59h-4l5-25-18 15"/>
  </g>
</svg>
