<svg viewBox="0 0 72 72" xmlns="http://www.w3.org/2000/svg">
  <path fill="#b3b3b3" d="M68 4v64H4V4h64m4-4H0v72h72z"/>
  <path fill="none" stroke="#00a5ff" stroke-miterlimit="10" stroke-width="0.1" d="M12.923 10.958h46.154A1.923 1.923 0 0161 12.881h0v46.154a1.923 1.923 0 01-1.923 1.923H12.923A1.923 1.923 0 0111 59.035h0V12.881a1.923 1.923 0 011.923-1.923z"/>
  <path fill="none" stroke="#00a5ff" stroke-miterlimit="10" stroke-width="0.1" d="M18.254 4h35.492A2.254 2.254 0 0156 6.254v59.492A2.254 2.254 0 0153.746 68H18.254A2.254 2.254 0 0116 65.746V6.254A2.254 2.254 0 0118.254 4z"/>
  <path fill="none" stroke="#00a5ff" stroke-miterlimit="10" stroke-width="0.1" d="M68 18.254v35.492A2.254 2.254 0 0165.746 56H6.254A2.254 2.254 0 014 53.746V18.254A2.254 2.254 0 016.254 16h59.492A2.254 2.254 0 0168 18.254z"/>
  <circle cx="36" cy="36" r="29" fill="none" stroke="#00a5ff" stroke-miterlimit="10" stroke-width="0.1"/>
  <g fill="none" stroke="#fff" stroke-linecap="round" stroke-linejoin="round" stroke-miterlimit="10" stroke-width="6">
    <path d="M66.688 44.68c.955-4.139.782-24.461-15.856-24.513-5.43-.017-16.085 2.823-21.512 2.97-1.397.038-4.435.048-5.532-.819-.618-.49-.213-2.004-1.843-2.56-1.133-.388-2.542.944-3.38 1.28a23.315 23.315 0 00-8.298 4.968S5.45 28.09 5.453 29.488c.006 2.59 7.273 3.586 7.273 3.586s7.096 1.942 9.116 3.278c3.162 2.09 10.39 10.71 10.142 11.268-.126.28-4.894.333-4.815 2.868.054 1.74 2.766 1.741 2.766 1.741h5.02c.943-.627 1.334-3.173 1.43-4.302.085-1.007-1.576-3.695-.611-3.995 2.478-.77 4.77.4 10.653.615.845.03 0 3.38 0 3.38s-4.673 1.512-4.61 2.868c.067 1.434 2.356 1.434 2.356 1.434h5.634s4.017-7.588 4.712-8.195c2.654-2.317 4.994-1.83 9.117-4.507"/>
    <path d="M55.896 43.044l3.229 3.969c-.629.92-7.115.482-6.003 4.723.135.513 1.536.49 2.067.492 1.058.003 4.23 0 4.23 0M22.55 36.88s2.112 7.22.823 9.108c-.63.92-7.115.483-6.003 4.723.135.514 1.536.49 2.067.493 1.057.003 4.23 0 4.23 0M7.918 27.25l.275 4.787c-.944.379-3.314-2.357-3.314-2.357s2.151-2.827 3.04-2.43z"/>
  </g>
  <path fill="#9b9b9a" d="M66.345 45.676c2.023.097 1.125-25.458-15.513-25.51-5.43-.016-16.085 2.824-21.512 2.971-1.397.038-4.435.048-5.532-.819-.618-.49-.213-2.004-1.843-2.56-1.133-.388-2.542.944-3.38 1.28a23.09 23.09 0 00-8.298 4.968c-1.095 1.003-4.95 2.003-4.814 3.482.185 2.02 7.273 3.586 7.273 3.586s7.096 1.942 9.117 3.278c3.161 2.09 10.39 10.71 10.14 11.268-.125.28-4.893.333-4.814 2.868.055 1.74 2.766 1.741 2.766 1.741h5.02c.944-.627 1.334-3.173 1.43-4.302.085-1.007-1.576-3.695-.611-3.995 2.478-.77 4.77.4 10.653.615.845.03 0 3.38 0 3.38s-4.673 1.512-4.61 2.868c.067 1.434 2.356 1.434 2.356 1.434h5.634s4.017-7.588 4.712-8.195c2.654-2.317 4.994-1.83 9.117-4.507 0 0 .577 6.048 2.709 6.15z"/>
  <path fill="#fff" d="M12.597 27.772c2.95-2.633 12.813-4.289 12.035-5.358-2.488-3.421-5.228-1.764-6.068-1.429-2.245.897-5.874 1.257-8.297 4.968-.812 1.244-5.845 2.414-4.814 3.483 2.469 2.561 8.682 3.136 14.457 3.464a60.57 60.57 0 0113.016 2.354s-4.476-12.666-19.512-5.433c-1.208.581-1.71-1.252-.817-2.05z"/>
  <path fill="#3f3f3f" d="M53.122 51.736l7.505.493s2.737-3.123 2.488-5.771c-.13-1.384-2.417-5.772-2.417-5.772l-4.49 1.564 2.3 4.378-4.036 1.938zm-28.294-.531c-1.061 1.538-7.458-.493-7.458-.493l1.078-3.075 4.657-1.452.685-9.043s3.23 2.614 3.555 3.892c.645 2.539-.818 7.71-2.517 10.171z"/>
  <g>
    <path fill="none" stroke="#000" stroke-linecap="round" stroke-linejoin="round" stroke-width="2" d="M66.688 44.68c.955-4.139.782-24.461-15.856-24.513-5.43-.017-16.085 2.823-21.512 2.97-1.397.038-4.435.048-5.532-.819-.618-.49-.213-2.004-1.843-2.56-1.133-.388-2.542.944-3.38 1.28a23.315 23.315 0 00-8.298 4.968S5.45 28.09 5.453 29.488c.006 2.59 7.273 3.586 7.273 3.586s7.096 1.942 9.116 3.278c3.162 2.09 10.39 10.71 10.142 11.268-.126.28-4.894.333-4.815 2.868.054 1.74 2.766 1.741 2.766 1.741h5.02c.943-.627 1.334-3.173 1.43-4.302.085-1.007-1.576-3.695-.611-3.995 2.478-.77 4.77.4 10.653.615.845.03 0 3.38 0 3.38s-4.673 1.512-4.61 2.868c.067 1.434 2.356 1.434 2.356 1.434h5.634s4.017-7.588 4.712-8.195c2.654-2.317 4.994-1.83 9.117-4.507"/>
    <path fill="none" stroke="#000" stroke-linecap="round" stroke-linejoin="round" stroke-width="2" d="M55.896 43.044l3.229 3.969c-.629.92-7.115.482-6.003 4.723.135.513 1.536.49 2.067.492 1.058.003 4.23 0 4.23 0M22.55 36.88s2.112 7.22.823 9.108c-.63.92-7.115.483-6.003 4.723.135.514 1.536.49 2.067.493 1.057.003 4.23 0 4.23 0"/>
    <path d="M7.918 27.25l.275 4.787c-.944.379-3.314-2.357-3.314-2.357s2.151-2.827 3.04-2.43z"/>
  </g>
</svg>
