<svg viewBox="0 0 72 72" xmlns="http://www.w3.org/2000/svg">
  <path fill="#B3B3B3" d="M68 4v64H4V4h64m4-4H0v72h72V0z"/>
  <path fill="none" stroke="#00A5FF" stroke-miterlimit="10" stroke-width="0.1" d="M12.923 10.958h46.154c1.062 0 1.923.861 1.923 1.923v46.154a1.923 1.923 0 01-1.923 1.923H12.923A1.923 1.923 0 0111 59.035V12.881c0-1.062.861-1.923 1.923-1.923z"/>
  <path fill="none" stroke="#00A5FF" stroke-miterlimit="10" stroke-width="0.1" d="M18.254 4h35.492A2.254 2.254 0 0156 6.254v59.492A2.254 2.254 0 0153.746 68H18.254A2.254 2.254 0 0116 65.746V6.254A2.254 2.254 0 0118.254 4z"/>
  <path fill="none" stroke="#00A5FF" stroke-miterlimit="10" stroke-width="0.1" d="M68 18.254v35.492A2.254 2.254 0 0165.746 56H6.254A2.254 2.254 0 014 53.746V18.254A2.254 2.254 0 016.254 16h59.492A2.254 2.254 0 0168 18.254z"/>
  <circle cx="36" cy="36" r="29" fill="none" stroke="#00A5FF" stroke-miterlimit="10" stroke-width="0.1"/>
  <g fill="none" stroke="#fff" stroke-linecap="round" stroke-linejoin="round" stroke-miterlimit="10" stroke-width="6">
    <path d="M39 38.973c-1.875-1-4.125-1-6 0m9-9a2 2 0 11-4 0 2 2 0 014 0m-8 0a2 2 0 11-4 0 2 2 0 014 0m-5.57 11.632l-15.039-.022c1.694 2.678 4.644 8.943 5.144 10.79m2.015 1.294a11.894 11.894 0 014.048-3.359 11.748 11.748 0 013.307-1.088m1.304.487a10.357 10.357 0 00-6.771 7.525m7.506-6.632a21.016 21.016 0 00-4.293 6.282c-.423.96-.771 2.106-1.043 3.118M46.53 26.554c-.852-3.596-2.504-6.458-2.504-6.458-8 0-10 3.112-16 1.037a18.015 18.015 0 00-2.452 5.41"/>
    <path d="M25.125 33.5c.83 6.739 4.775 11.496 10.837 11.496 6.163 0 9.992-4.74 10.869-11.46M17 60v-3c0-4.994 5.008-9 10-9 6 5 12 5 18 0 4.994 0 10 4.006 10 9v3"/>
    <path d="M53.465 52.373c.5-1.847 3.45-8.112 5.144-10.79l-15.069.022m.555 7.615c1.15.197 2.265.563 3.307 1.088a11.894 11.894 0 014.048 3.36m-1.888 3.564a10.357 10.357 0 00-6.77-7.525M47.392 60c-.272-1.012-.62-2.159-1.043-3.118a21.016 21.016 0 00-4.292-6.281M36 32.706c-.49.913-2.936 2.556-5.89 2.566-2.494.008-5.35-1.146-7.701-4.883-.85-1.336-2.422-5.038-2.422-8.068 1.991 6.75 6.304 3.506 10.636 3.53 1.848.012 3.7.617 5.377 2.846 1.677-2.229 3.529-2.834 5.377-2.845 4.332-.025 8.645 3.22 10.636-3.53 0 3.029-1.572 6.73-2.422 8.067-2.35 3.737-5.207 4.891-7.7 4.883-2.955-.01-5.4-1.653-5.891-2.566z"/>
    <path d="M46 38.096c2.1 0 3.219-3.437 3.701-7.899-.036.06-.076.139-.11.192m-27.182 0c-.034-.053-.074-.132-.11-.192.483 4.462 1.6 7.899 3.701 7.899M49.976 25.83A71.33 71.33 0 0050 24.096c0-6-5-12-14-12s-14 6-14 12c0 .58.01 1.158.024 1.733"/>
  </g>
  <path fill="#F4AA41" d="M26 38.096c-3 0-4-7-4-14 0-6 5-12 14-12s14 6 14 12c0 7-1 14-4 14"/>
  <path fill="#FCEA2B" d="M24.962 30.47c-.101 8.3 4.064 14.526 11 14.526 7.064 0 11.064-6.225 11.064-14.525 0-5.188-3-10.376-3-10.376-8 0-10 3.113-16 1.038a18.159 18.159 0 00-3.064 9.338z"/>
  <path fill="#3F3F3F" d="M35.993 45c-2.752 0-5.288-1.27-7.234-3.41l-15.368-.007c1.694 2.678 4.644 8.943 5.144 10.79h34.93c.499-1.843 3.434-8.078 5.13-10.768l-15.373-.007C41.278 43.733 38.743 45 35.993 45z"/>
  <path fill="#5C9E31" d="M36 32.706c-.49.913-2.936 2.556-5.89 2.566-2.494.008-5.35-1.146-7.701-4.883-.85-1.336-2.422-5.038-2.422-8.068 1.991 6.75 6.304 3.506 10.636 3.53 1.848.012 3.7.617 5.377 2.846 1.677-2.229 3.529-2.834 5.377-2.845 4.332-.025 8.645 3.22 10.636-3.53 0 3.029-1.572 6.73-2.422 8.067-2.35 3.737-5.207 4.891-7.7 4.883-2.955-.01-5.4-1.653-5.891-2.566z"/>
  <path fill="#B1CC33" d="M17 61v-4c0-4.994 5.008-9 10-9 6 5 12 5 18 0 4.994 0 10 4.006 10 9v4"/>
  <path fill="#3F3F3F" d="M47.392 61c-.272-1.012-.62-3.159-1.043-4.118a21.016 21.016 0 00-4.292-6.281H29.942a21.016 21.016 0 00-4.292 6.281c-.423.96-.771 3.106-1.043 4.118"/>
  <g>
    <path fill="none" stroke="#000" stroke-linecap="round" stroke-linejoin="round" stroke-width="2" d="M39 38.973c-1.875-1-4.125-1-6 0"/>
    <path d="M42 29.973a2 2 0 11-4 0 2 2 0 014 0m-8 0a2 2 0 11-4 0 2 2 0 014 0"/>
    <path fill="none" stroke="#000" stroke-linecap="round" stroke-linejoin="round" stroke-width="2" d="M28.43 41.605l-15.039-.022c1.694 2.678 4.644 8.943 5.144 10.79"/>
    <path fill="none" stroke="#000" stroke-linecap="round" stroke-miterlimit="10" stroke-width="2" d="M20.55 53.667a11.894 11.894 0 014.048-3.359 11.748 11.748 0 013.307-1.088m1.304.487a10.357 10.357 0 00-6.771 7.525m7.506-6.632a21.016 21.016 0 00-4.293 6.282c-.423.96-.771 2.106-1.043 3.118"/>
    <path fill="none" stroke="#000" stroke-linecap="round" stroke-linejoin="round" stroke-width="2" d="M46.53 26.554c-.852-3.596-2.504-6.458-2.504-6.458-8 0-10 3.112-16 1.037a18.015 18.015 0 00-2.452 5.41m-.449 6.957c.83 6.739 4.775 11.496 10.837 11.496 6.163 0 9.992-4.74 10.869-11.46M17 60v-3c0-4.994 5.008-9 10-9 6 5 12 5 18 0 4.994 0 10 4.006 10 9v3"/>
    <path fill="none" stroke="#000" stroke-linecap="round" stroke-linejoin="round" stroke-width="2" d="M53.465 52.373c.5-1.847 3.45-8.112 5.144-10.79l-15.069.022"/>
    <path fill="none" stroke="#000" stroke-linecap="round" stroke-miterlimit="10" stroke-width="2" d="M44.095 49.22c1.15.197 2.265.563 3.307 1.088a11.894 11.894 0 014.048 3.36m-1.888 3.564a10.357 10.357 0 00-6.77-7.525M47.392 60c-.272-1.012-.62-2.159-1.043-3.118a21.016 21.016 0 00-4.292-6.281"/>
    <path fill="none" stroke="#000" stroke-linejoin="round" stroke-width="2" d="M36 32.706c-.49.913-2.936 2.556-5.89 2.566-2.494.008-5.35-1.146-7.701-4.883-.85-1.336-2.422-5.038-2.422-8.068 1.991 6.75 6.304 3.506 10.636 3.53 1.848.012 3.7.617 5.377 2.846 1.677-2.229 3.529-2.834 5.377-2.845 4.332-.025 8.645 3.22 10.636-3.53 0 3.029-1.572 6.73-2.422 8.067-2.35 3.737-5.207 4.891-7.7 4.883-2.955-.01-5.4-1.653-5.891-2.566z"/>
    <path fill="none" stroke="#000" stroke-linecap="round" stroke-linejoin="round" stroke-width="2" d="M46 38.096c2.1 0 3.219-3.437 3.701-7.899-.036.06-.076.139-.11.192m-27.182 0c-.034-.053-.074-.132-.11-.192.483 4.462 1.6 7.899 3.701 7.899M49.976 25.83A71.33 71.33 0 0050 24.096c0-6-5-12-14-12s-14 6-14 12c0 .58.01 1.158.024 1.733"/>
  </g>
</svg>
