<svg viewBox="0 0 72 72" xmlns="http://www.w3.org/2000/svg">
  <path fill="#b3b3b3" d="M68 4v64H4V4h64m4-4H0v72h72z"/>
  <rect x="11" y="10.96" rx="1.92" width="50" height="50" fill="none" stroke="#00a5ff" stroke-miterlimit="10" stroke-width="0.1"/>
  <rect x="16" y="4" rx="2.25" width="40" height="64" fill="none" stroke="#00a5ff" stroke-miterlimit="10" stroke-width="0.1"/>
  <rect x="4" y="16" rx="2.25" width="64" height="40" fill="none" stroke="#00a5ff" stroke-miterlimit="10" stroke-width="0.1"/>
  <circle cx="36" cy="36" r="29" fill="none" stroke="#00a5ff" stroke-miterlimit="10" stroke-width="0.1"/>
  <g fill="none" stroke="#fff" stroke-linecap="round" stroke-linejoin="round" stroke-miterlimit="10" stroke-width="6">
    <path d="M55.75 54c.17-2.85.25-5.81.25-8.76C56 31.67 44.69 18.1 24.34 18.1a40.596 40.596 0 00-8.34.86"/>
    <path d="M48.48 54a78.845 78.845 0 00-6-17.81c-13 0-19 3.5-26.43 3.78"/>
  </g>
  <g stroke-miterlimit="10" stroke-width="2">
    <path fill="#d0cfce" stroke="#d0cfce" d="M16 53.86h37.82C54 51 56 48.11 56 45.19c0-13.57-11.31-27.14-31.66-27.14-3 0-5.75 2.14-8.34 2.68z"/>
    <path fill="#fcea2b" stroke="#fcea2b" d="M16 53.89h30.34c-1.63-9-3.77-16.69-3.77-16.69-13.11 0-19.1 4.57-26.57 4.8z"/>
  </g>
  <g fill="none" stroke="#000" stroke-linecap="round" stroke-linejoin="round" stroke-width="2">
    <path d="M55.75 54c.17-2.85.25-5.81.25-8.76C56 31.67 44.69 18.1 24.34 18.1a40.596 40.596 0 00-8.34.86"/>
    <path d="M48.48 54a78.845 78.845 0 00-6-17.81c-13 0-19 3.5-26.43 3.78"/>
  </g>
</svg>
