<svg viewBox="0 0 72 72" xmlns="http://www.w3.org/2000/svg">
  <path fill="#b3b3b3" d="M68 4v64H4V4h64m4-4H0v72h72z"/>
  <path fill="none" stroke="#00a5ff" stroke-miterlimit="10" stroke-width="0.1" d="M12.9 11h46.2a1.899 1.899 0 011.9 1.9V59a1.899 1.899 0 01-1.9 1.9H12.9A1.837 1.837 0 0111 59V12.9a1.899 1.899 0 011.9-1.9z"/>
  <path fill="none" stroke="#00a5ff" stroke-miterlimit="10" stroke-width="0.1" d="M18.3 4h35.5A2.243 2.243 0 0156 6.3v59.5a2.326 2.326 0 01-2.3 2.3H18.3a2.414 2.414 0 01-2.3-2.4V6.3A2.263 2.263 0 0118.3 4z"/>
  <path fill="none" stroke="#00a5ff" stroke-miterlimit="10" stroke-width="0.1" d="M68 18.3v35.5a2.326 2.326 0 01-2.3 2.3H6.3A2.414 2.414 0 014 53.7V18.3A2.263 2.263 0 016.3 16h59.5a2.243 2.243 0 012.2 2.3z"/>
  <circle cx="36" cy="36" r="29" fill="none" stroke="#00a5ff" stroke-miterlimit="10" stroke-width="0.1"/>
  <g fill="none" stroke="#fff" stroke-linecap="round" stroke-linejoin="round" stroke-miterlimit="10" stroke-width="6">
    <path d="M20.6 53.6a12.959 12.959 0 014-3.4 12.814 12.814 0 013.3-1.1m1.3.5a10.493 10.493 0 00-6.8 7.5m29.3-3.3a12.959 12.959 0 00-4-3.4 12.814 12.814 0 00-3.3-1.1m-1.4.6a10.493 10.493 0 016.8 7.5M30 50.6a19.6 19.6 0 00-4.3 6.3 15.1 15.1 0 00-1 3"/>
    <path d="M17 59.9v-3c0-5 5-9 10-9q9 7.5 18 0c5 0 10 4 10 9v3"/>
    <path d="M42.4 50.6a26.636 26.636 0 014.2 6.3 18.77 18.77 0 011.2 3m-16.7-.5l-1-1.9a2.57 2.57 0 002-2H40a2.236 2.236 0 002 2c0 .1-1 1.8-1 1.8m-15.7-30a6.283 6.283 0 003.8-1.1c1.4-1.2 3.1-2.2 5.6-.4a3.946 3.946 0 001.5.6 3.386 3.386 0 001.5-.6c2.5-1.8 4.2-.8 5.6.4a6.485 6.485 0 003.8 1.1l-.1 1.6a6.283 6.283 0 00-3.8 1.1c-1.4 1.2-3.1 2.2-5.6.4a3.946 3.946 0 00-1.5-.6 3.386 3.386 0 00-1.5.6c-2.5 1.8-4.2.8-5.6-.4a6.485 6.485 0 00-3.8-1.1z"/>
    <path d="M26.3 39.1c-4 0-4-6-4-13s4-14 14-14 14 7 14 14 0 13-4 13"/>
    <path d="M42.2 30.1a2 2 0 11-2-2 2.006 2.006 0 012 2m-8 0a2 2 0 11-2-2 2.006 2.006 0 012 2"/>
    <path d="M25.2 31.1c0 9 4.9 14 11 14 5.9 0 11.1-5 11.1-14a12.133 12.133 0 00-1-5c-3-3-7-8-7-8-4 3-7 6-13 7 0 0-1.1 1-1.1 6zm8.1 7a6.671 6.671 0 006 0"/>
  </g>
  <path fill="#f4aa41" d="M26.3 38.1c-3 0-4-7-4-14 0-6 5-12 14-12s14 6 14 12c0 7-1 14-4 14"/>
  <path fill="#fcea2b" d="M25.2 31.1c-.1 8 4.1 14 11 14 7.1 0 11.1-6 11.1-14 0-5-7.7-12.8-7.7-12.8-5.1 2.9-7.4 5.6-13.5 6.9-1.8 2.6-.7 2.7-.9 5.9z"/>
  <path fill="#3f3f3f" d="M17 60.9v-3.8c0-5 5-9 10-9q9 7.5 18 0c5 0 10 4 10 9v3.8z"/>
  <path fill="#ea5a47" d="M47.1 60.9c-1.1-3.5-3-7.9-5.4-9.7H30.8c-2.5 1.8-4.3 6.2-5.5 9.7z"/>
  <path fill="#fcea2b" d="M41.3 61c.5-.9 1-1.9 1.4-2.8a2.628 2.628 0 01-1.5-.7 2.091 2.091 0 01-.7-1.3h-9a1.421 1.421 0 01-.2.6 1.794 1.794 0 01-.5.7 2.628 2.628 0 01-1.5.7c.5.9 1 1.9 1.5 2.8z"/>
  <path fill="#ea5a47" d="M25.3 29.3a6.283 6.283 0 003.8-1.1c1.4-1.2 3.1-2.2 5.6-.4a3.946 3.946 0 001.5.6 3.386 3.386 0 001.5-.6c2.5-1.8 4.2-.8 5.6.4a6.485 6.485 0 003.8 1.1l-.1 1.6a6.283 6.283 0 00-3.8 1.1c-1.4 1.2-3.1 2.2-5.6.4a3.946 3.946 0 00-1.5-.6 3.386 3.386 0 00-1.5.6c-2.5 1.8-4.2.8-5.6-.4a6.485 6.485 0 00-3.8-1.1z"/>
  <path fill="#3f3f3f" d="M29.2 49.6a10.493 10.493 0 00-6.8 7.5M43 49.9a10.493 10.493 0 016.8 7.5"/>
  <g>
    <path fill="none" stroke="#000" stroke-linecap="round" stroke-miterlimit="10" stroke-width="2" d="M20.6 53.6a12.959 12.959 0 014-3.4 12.814 12.814 0 013.3-1.1m1.3.5a10.493 10.493 0 00-6.8 7.5m29.3-3.3a12.959 12.959 0 00-4-3.4 12.814 12.814 0 00-3.3-1.1m-1.4.6a10.493 10.493 0 016.8 7.5M30 50.6a19.6 19.6 0 00-4.3 6.3 15.1 15.1 0 00-1 3"/>
    <path fill="none" stroke="#000" stroke-linecap="round" stroke-linejoin="round" stroke-width="2" d="M17 59.9v-3c0-5 5-9 10-9q9 7.5 18 0c5 0 10 4 10 9v3"/>
    <path fill="none" stroke="#000" stroke-linecap="round" stroke-miterlimit="10" stroke-width="2" d="M42.4 50.6a26.636 26.636 0 014.2 6.3 18.77 18.77 0 011.2 3"/>
    <path fill="none" stroke="#000" stroke-linecap="round" stroke-linejoin="round" stroke-width="2" d="M31.1 59.4l-1-1.9a2.57 2.57 0 002-2H40a2.236 2.236 0 002 2c0 .1-1 1.8-1 1.8"/>
    <path fill="none" stroke="#000" stroke-linejoin="round" stroke-width="2" d="M25.3 29.3a6.283 6.283 0 003.8-1.1c1.4-1.2 3.1-2.2 5.6-.4a3.946 3.946 0 001.5.6 3.386 3.386 0 001.5-.6c2.5-1.8 4.2-.8 5.6.4a6.485 6.485 0 003.8 1.1l-.1 1.6a6.283 6.283 0 00-3.8 1.1c-1.4 1.2-3.1 2.2-5.6.4a3.946 3.946 0 00-1.5-.6 3.386 3.386 0 00-1.5.6c-2.5 1.8-4.2.8-5.6-.4a6.485 6.485 0 00-3.8-1.1z"/>
    <path fill="none" stroke="#000" stroke-linecap="round" stroke-linejoin="round" stroke-width="2" d="M26.3 39.1c-4 0-4-6-4-13s4-14 14-14 14 7 14 14 0 13-4 13"/>
    <path d="M42.2 30.1a2 2 0 11-2-2 2.006 2.006 0 012 2m-8 0a2 2 0 11-2-2 2.006 2.006 0 012 2"/>
    <path fill="none" stroke="#000" stroke-linejoin="round" stroke-width="2" d="M25.2 31.1c0 9 4.9 14 11 14 5.9 0 11.1-5 11.1-14a12.133 12.133 0 00-1-5c-3-3-7-8-7-8-4 3-7 6-13 7 0 0-1.1 1-1.1 6z"/>
    <path fill="none" stroke="#000" stroke-linecap="round" stroke-linejoin="round" stroke-width="2" d="M33.3 38.1a6.671 6.671 0 006 0"/>
  </g>
</svg>
