<svg viewBox="0 0 72 72" xmlns="http://www.w3.org/2000/svg">
  <path fill="#B3B3B3" d="M68 4v64H4V4h64m4-4H0v72h72V0z"/>
  <path fill="none" stroke="#00A5FF" stroke-miterlimit="10" stroke-width="0.1" d="M12.923 10.958h46.154c1.062 0 1.923.861 1.923 1.923v46.154a1.923 1.923 0 01-1.923 1.923H12.923A1.923 1.923 0 0111 59.035V12.881c0-1.062.861-1.923 1.923-1.923z"/>
  <path fill="none" stroke="#00A5FF" stroke-miterlimit="10" stroke-width="0.1" d="M18.254 4h35.492A2.254 2.254 0 0156 6.254v59.492A2.254 2.254 0 0153.746 68H18.254A2.254 2.254 0 0116 65.746V6.254A2.254 2.254 0 0118.254 4z"/>
  <path fill="none" stroke="#00A5FF" stroke-miterlimit="10" stroke-width="0.1" d="M68 18.254v35.492A2.254 2.254 0 0165.746 56H6.254A2.254 2.254 0 014 53.746V18.254A2.254 2.254 0 016.254 16h59.492A2.254 2.254 0 0168 18.254z"/>
  <circle cx="36" cy="36" r="29" fill="none" stroke="#00A5FF" stroke-miterlimit="10" stroke-width="0.1"/>
  <g fill="none" stroke="#fff" stroke-linecap="round" stroke-linejoin="round" stroke-miterlimit="10" stroke-width="6">
    <path d="M54.78 40.776a11.586 11.586 0 00-.873-5.944c-2.405-5.67-3.042-5.642-3.429-12.822a8.132 8.132 0 00-7.405-8.037s-2.6-3-8-3c-6.432 0-12.23 3.466-13.71 8.966-1.5 5.583.345 7.834-1.29 12.034-1.218 3.127-3.018 6.064-2.928 9.437"/>
    <path d="M25.185 33.665C26.153 40.296 30.68 45 35.993 45c5.337 0 9.882-4.746 10.822-11.424m-.527-7.385c-.923-2.519-2.662-4.665-5.215-7.218-2.118 2.117-7.283 4.816-10.916 6.9M39 38.973c-1.875-1-4.125-1-6 0m9-9a2 2 0 11-4 0 2 2 0 014 0m-8 0a2 2 0 11-4 0 2 2 0 014 0"/>
    <path d="M28.773 41.605l-15.382-.022c1.694 2.678 4.644 8.943 5.144 10.79m2.015 1.294a11.894 11.894 0 014.048-3.359 11.748 11.748 0 013.307-1.088m1.304.487a10.357 10.357 0 00-6.771 7.525m7.506-6.632a21.016 21.016 0 00-4.293 6.282c-.423.96-.771 2.106-1.043 3.118M36 32.706c-.49.913-2.936 2.556-5.89 2.566-2.494.008-5.35-1.146-7.701-4.883-.85-1.336-2.422-5.038-2.422-8.068 1.991 6.75 6.304 3.506 10.636 3.53 1.848.012 3.7.617 5.377 2.846 1.677-2.229 3.529-2.834 5.377-2.845 4.332-.025 8.645 3.22 10.636-3.53 0 3.029-1.572 6.73-2.422 8.067-2.35 3.737-5.207 4.891-7.7 4.883-2.955-.01-5.4-1.653-5.891-2.566z"/>
    <path d="M17 60v-3c0-4.994 5.008-9 10-9 6 5 12 5 18 0 4.994 0 10 4.006 10 9v3"/>
    <path d="M53.465 52.373c.5-1.847 3.45-8.112 5.144-10.79l-15.382.022m.868 7.615c1.15.197 2.265.563 3.307 1.088a11.894 11.894 0 014.048 3.36m-1.888 3.564a10.357 10.357 0 00-6.77-7.525M47.392 60c-.272-1.012-.62-2.159-1.043-3.118a21.016 21.016 0 00-4.292-6.281"/>
  </g>
  <path fill="#F4AA41" d="M18.04 47.408a24.053 24.053 0 003.632 2.72 10.464 10.464 0 015.361-2.09c6.21 5.012 12.495 5.012 18.7 0a8.343 8.343 0 014.209 1.513 22.787 22.787 0 002.972-2.33c1.188-.714 3.125-8.282.392-13.025a23.74 23.74 0 01-1.158-2.633c-1.472-3.27-2.023-4.493-2.348-10.524.027-3.693-3.794-6.784-7.475-7.093a1.002 1.002 0 01-.688-.343c-.093-.1-2.409-2.655-7.244-2.655-6.2 0-11.44 3.382-12.743 8.226a18.518 18.518 0 00-.564 6.176 13.317 13.317 0 01-.76 5.961 6.803 6.803 0 01-1.12 2.088c-3.772 4.42-.974 14.302-1.167 14.01z"/>
  <path fill="#FCEA2B" d="M25.185 29.878v.991c0 7.923 4.73 14.131 10.768 14.131s10.769-6.208 10.769-14.13c0-4.82-1.825-7.785-5.422-11.533a65.748 65.748 0 01-9.224 5.978c-2.716 1.569-6.419 3.697-6.891 4.563z"/>
  <path fill="#3F3F3F" d="M35.993 45c-2.752 0-5.288-1.27-7.234-3.41l-15.368-.007c1.694 2.678 4.644 8.943 5.144 10.79h34.93c.499-1.843 3.434-8.078 5.13-10.768l-15.373-.007C41.278 43.733 38.743 45 35.993 45z"/>
  <path fill="#5C9E31" d="M36 32.706c-.49.913-2.936 2.556-5.89 2.566-2.494.008-5.35-1.146-7.701-4.883-.85-1.336-2.422-5.038-2.422-8.068 1.991 6.75 6.304 3.506 10.636 3.53 1.848.012 3.7.617 5.377 2.846 1.677-2.229 3.529-2.834 5.377-2.845 4.332-.025 8.645 3.22 10.636-3.53 0 3.029-1.572 6.73-2.422 8.067-2.35 3.737-5.207 4.891-7.7 4.883-2.955-.01-5.4-1.653-5.891-2.566z"/>
  <path fill="#B1CC33" d="M17 61v-4c0-4.994 5.008-9 10-9 6 5 12 5 18 0 4.994 0 10 4.006 10 9v4"/>
  <path fill="#3F3F3F" d="M47.392 61c-.272-1.012-.62-3.159-1.043-4.118a21.016 21.016 0 00-4.292-6.281H29.942a21.016 21.016 0 00-4.292 6.281c-.423.96-.771 3.106-1.043 4.118"/>
  <g>
    <path fill="none" stroke="#000" stroke-linecap="round" stroke-linejoin="round" stroke-width="2" d="M54.78 40.776a11.586 11.586 0 00-.873-5.944c-2.405-5.67-3.042-5.642-3.429-12.822a8.132 8.132 0 00-7.405-8.037s-2.6-3-8-3c-6.432 0-12.23 3.466-13.71 8.966-1.5 5.583.345 7.834-1.29 12.034-1.218 3.127-3.018 6.064-2.928 9.437"/>
    <path fill="none" stroke="#000" stroke-linejoin="round" stroke-width="2" d="M25.185 33.665C26.153 40.296 30.68 45 35.993 45c5.337 0 9.882-4.746 10.822-11.424"/>
    <path fill="none" stroke="#000" stroke-linecap="round" stroke-linejoin="round" stroke-width="2" d="M46.288 26.191c-.923-2.519-2.662-4.665-5.215-7.218-2.118 2.117-7.283 4.816-10.916 6.9M39 38.973c-1.875-1-4.125-1-6 0"/>
    <path d="M42 29.973a2 2 0 11-4 0 2 2 0 014 0m-8 0a2 2 0 11-4 0 2 2 0 014 0"/>
    <path fill="none" stroke="#000" stroke-linecap="round" stroke-linejoin="round" stroke-width="2" d="M28.773 41.605l-15.382-.022c1.694 2.678 4.644 8.943 5.144 10.79"/>
    <path fill="none" stroke="#000" stroke-linecap="round" stroke-miterlimit="10" stroke-width="2" d="M20.55 53.667a11.894 11.894 0 014.048-3.359 11.748 11.748 0 013.307-1.088m1.304.487a10.357 10.357 0 00-6.771 7.525m7.506-6.632a21.016 21.016 0 00-4.293 6.282c-.423.96-.771 2.106-1.043 3.118"/>
    <path fill="none" stroke="#000" stroke-linejoin="round" stroke-width="2" d="M36 32.706c-.49.913-2.936 2.556-5.89 2.566-2.494.008-5.35-1.146-7.701-4.883-.85-1.336-2.422-5.038-2.422-8.068 1.991 6.75 6.304 3.506 10.636 3.53 1.848.012 3.7.617 5.377 2.846 1.677-2.229 3.529-2.834 5.377-2.845 4.332-.025 8.645 3.22 10.636-3.53 0 3.029-1.572 6.73-2.422 8.067-2.35 3.737-5.207 4.891-7.7 4.883-2.955-.01-5.4-1.653-5.891-2.566z"/>
    <path fill="none" stroke="#000" stroke-linecap="round" stroke-linejoin="round" stroke-width="2" d="M17 60v-3c0-4.994 5.008-9 10-9 6 5 12 5 18 0 4.994 0 10 4.006 10 9v3"/>
    <path fill="none" stroke="#000" stroke-linecap="round" stroke-linejoin="round" stroke-width="2" d="M53.465 52.373c.5-1.847 3.45-8.112 5.144-10.79l-15.382.022"/>
    <path fill="none" stroke="#000" stroke-linecap="round" stroke-miterlimit="10" stroke-width="2" d="M44.095 49.22c1.15.197 2.265.563 3.307 1.088a11.894 11.894 0 014.048 3.36m-1.888 3.564a10.357 10.357 0 00-6.77-7.525M47.392 60c-.272-1.012-.62-2.159-1.043-3.118a21.016 21.016 0 00-4.292-6.281"/>
  </g>
</svg>
