<svg viewBox="0 0 72 72" xmlns="http://www.w3.org/2000/svg">
  <path fill="#b3b3b3" d="M68 4v64H4V4h64m4-4H0v72h72V0z"/>
  <path fill="none" stroke="#00a5ff" stroke-miterlimit="10" stroke-width="0.1" d="M12.923 10.958h46.154A1.923 1.923 0 0161 12.881v46.154a1.923 1.923 0 01-1.923 1.923H12.923A1.923 1.923 0 0111 59.035V12.881a1.923 1.923 0 011.923-1.923z"/>
  <rect x="16" y="4" rx="2.254" width="40" height="64" fill="none" stroke="#00a5ff" stroke-miterlimit="10" stroke-width="0.1"/>
  <rect x="16" y="4" rx="2.254" width="40" height="64" transform="rotate(90 36 36)" fill="none" stroke="#00a5ff" stroke-miterlimit="10" stroke-width="0.1"/>
  <circle cx="36" cy="36" r="29" fill="none" stroke="#00a5ff" stroke-miterlimit="10" stroke-width="0.1"/>
  <path fill="none" stroke="#fff" stroke-linecap="round" stroke-linejoin="round" stroke-miterlimit="10" stroke-width="6" d="M47.005 23.68l-.034-.248c-.638-4.42-3.061-8.253-7.464-9.633-4.603-1.443-10.3.326-12.82 4.572-1.69 2.847-1.544 6.097-1.756 9.276-.139 2.092-.253 4.186-.38 6.28l-.91 15.01c-.031.513-.465 9.063-.55 9.063h26c-.65-10.728-1.223-21.46-1.887-32.173a30.257 30.257 0 00-.199-2.146z"/>
  <path fill="#fff" d="M47.005 23.68l-.034-.248c-.638-4.42-3.061-8.253-7.464-9.633-4.603-1.443-10.3.326-12.82 4.572-1.69 2.847-1.544 6.097-1.756 9.276-.139 2.092-.253 4.186-.38 6.28l-.91 15.01c-.031.513-.465 9.063-.55 9.063h26c-.65-10.728-1.223-21.46-1.887-32.173a30.257 30.257 0 00-.199-2.146z"/>
  <path fill="#d0cfce" d="M47.204 25.827a30.834 30.834 0 00-.199-2.146q-.016-.125-.034-.249c-.638-4.42-3.061-8.253-7.464-9.633a11.462 11.462 0 00-5.43-.304 10.62 10.62 0 011.27.304c4.403 1.38 6.826 5.214 7.464 9.633q.018.124.034.249c.095.712.155 1.429.199 2.146.664 10.713 1.237 21.445 1.888 32.173h4.16c-.65-10.728-1.224-21.46-1.888-32.173z"/>
  <path fill="none" stroke="#000" stroke-linecap="round" stroke-linejoin="round" stroke-width="2" d="M47.005 23.68l-.034-.248c-.638-4.42-3.061-8.253-7.464-9.633-4.603-1.443-10.3.326-12.82 4.572-1.69 2.847-1.544 6.097-1.756 9.276-.139 2.092-.253 4.186-.38 6.28l-.91 15.01c-.031.513-.465 9.063-.55 9.063h26c-.65-10.728-1.223-21.46-1.887-32.173a30.257 30.257 0 00-.199-2.146z"/>
  <g>
    <circle cx="36.611" cy="17.576" r="1.47"/>
    <circle cx="39.731" cy="19.656" r="1.47"/>
    <circle cx="33.492" cy="19.656" r="1.47"/>
  </g>
</svg>
