<svg viewBox="0 0 72 72" xmlns="http://www.w3.org/2000/svg">
  <path fill="#B3B3B3" d="M68 4v64H4V4h64m4-4H0v72h72V0z"/>
  <path fill="none" stroke="#00A5FF" stroke-miterlimit="10" stroke-width="0.1" d="M12.923 10.958h46.154c1.062 0 1.923.861 1.923 1.923v46.154a1.923 1.923 0 01-1.923 1.923H12.923A1.923 1.923 0 0111 59.035h0V12.881c0-1.062.861-1.923 1.923-1.923h0z"/>
  <path fill="none" stroke="#00A5FF" stroke-miterlimit="10" stroke-width="0.1" d="M18.254 4h35.492A2.254 2.254 0 0156 6.254v59.492A2.254 2.254 0 0153.746 68H18.254A2.254 2.254 0 0116 65.746V6.254A2.254 2.254 0 0118.254 4z"/>
  <path fill="none" stroke="#00A5FF" stroke-miterlimit="10" stroke-width="0.1" d="M68 18.254v35.492A2.254 2.254 0 0165.746 56H6.254A2.254 2.254 0 014 53.746V18.254A2.254 2.254 0 016.254 16h59.492A2.254 2.254 0 0168 18.254z"/>
  <circle cx="36" cy="36" r="29" fill="none" stroke="#00A5FF" stroke-miterlimit="10" stroke-width="0.1"/>
  <g fill="none" stroke="#fff" stroke-linecap="round" stroke-linejoin="round" stroke-miterlimit="10" stroke-width="6">
    <circle cx="51.969" cy="15.094" r="3"/>
    <path d="M42 33l-8.084-2.426c-1.054-.315-2.492.117-3.196.962l-7.44 8.928c-.704.845-.83 1.986-.28 2.536s1.637.363 2.414-.414l6.172-6.172c.777-.777 2.201-.976 3.162-.442l5.504 3.056c.96.535 2.648.972 3.748.972h1c1.1 0 2.618-.653 3.375-1.453l.457-.483c.757-.8 1.554-2.266 1.772-3.26L51 33"/>
    <path d="M49.135 38.14l-1.78 9.891c-.196 1.083-.136 2.842.13 3.91l2.03 8.119c.266 1.067-.19 2.165-1.015 2.44s-1.823-.34-2.218-1.366l-3.564-9.268C42.323 50.84 42 49.1 42 48v-7m9-8l1.85-6.168c.632-2.108-.2-4.282-1.85-4.832s-4.786-1.223-6.969-1.496l-.062-.008c-2.183-.273-5.544-.925-7.469-1.45l-3.5-.952M16 56l7-11-2-4 6-13 5-3 2-3m9 8l8 3m1.265.572l1.897.633L52.898 38 51 37.367M37 16l2-8m7 17l-1 2"/>
  </g>
  <path fill="#92D3F5" d="M51.112 33.188l3.05 1.017L52.898 38l-3.05-1.017"/>
  <path fill="#D0CFCE" d="M40 7v1l-2 8s-1 3-3 6-4 4-4 4l-3 2-2 2-5 11 1 2v1l1 1-3 4-3.266 7.688L11 62l-7.041 1L4 9l16-5h16l4 3z"/>
  <g fill="#FCEA2B">
    <circle cx="51.969" cy="15.094" r="3"/>
    <path d="M48 21l4.969 2.375-2.762 13.235-1.072 1.53L47 50l3 12-3 1-5-13V40l-9-5-9 9-2-2 10-12 9.602 2.88S44.626 26.25 46 24c0 0-4.917-.75-11.826-2.91-1.544-.484-3.018-1.559-2.018-3.559"/>
  </g>
  <g fill="none" stroke="#000" stroke-miterlimit="10" stroke-width="2">
    <circle cx="51.969" cy="15.094" r="3"/>
    <path stroke-linecap="round" stroke-linejoin="round" d="M42 33l-8.084-2.426c-1.054-.315-2.492.117-3.196.962l-7.44 8.928c-.704.845-.83 1.986-.28 2.536s1.637.363 2.414-.414l6.172-6.172c.777-.777 2.201-.976 3.162-.442l5.504 3.056c.96.535 2.648.972 3.748.972h1c1.1 0 2.618-.653 3.375-1.453l.457-.483c.757-.8 1.554-2.266 1.772-3.26L51 33"/>
    <path stroke-linecap="round" stroke-linejoin="round" d="M49.135 38.14l-1.78 9.891c-.196 1.083-.136 2.842.13 3.91l2.03 8.119c.266 1.067-.19 2.165-1.015 2.44s-1.823-.34-2.218-1.366l-3.564-9.268C42.323 50.84 42 49.1 42 48v-7m9-8l1.85-6.168c.632-2.108-.2-4.282-1.85-4.832s-4.786-1.223-6.969-1.496l-.062-.008c-2.183-.273-5.544-.925-7.469-1.45l-3.5-.952M16 56l7-11-2-4 6-13 5-3 2-3m9 8l8 3m1.265.572l1.897.633L52.898 38 51 37.367M37 16l2-8m7 17l-1 2"/>
  </g>
</svg>
