<svg viewBox="0 0 72 72" xmlns="http://www.w3.org/2000/svg">
  <path fill="#b3b3b3" d="M0 68.636h68.635V0H0zM3.813 3.813h61.01v61.01H3.813z"/>
  <path fill="none" stroke="#00a5ff" stroke-miterlimit="10" stroke-width="0.1" d="M56.316 58.11H12.32a1.833 1.833 0 01-1.833-1.833V12.28a1.833 1.833 0 011.833-1.834h43.997a1.833 1.833 0 011.834 1.834v43.996a1.833 1.833 0 01-1.834 1.834z"/>
  <path fill="none" stroke="#00a5ff" stroke-miterlimit="10" stroke-width="0.1" d="M51.234 64.823H17.401a2.149 2.149 0 01-2.149-2.15V5.963a2.149 2.149 0 012.149-2.149h33.834a2.149 2.149 0 012.148 2.149v56.712a2.149 2.149 0 01-2.149 2.149z"/>
  <path fill="none" stroke="#00a5ff" stroke-miterlimit="10" stroke-width="0.1" d="M3.813 51.235V17.4a2.148 2.148 0 012.149-2.149h56.712a2.148 2.148 0 012.148 2.15v33.833a2.148 2.148 0 01-2.148 2.148H5.962a2.148 2.148 0 01-2.149-2.148z"/>
  <circle cx="34.318" cy="34.318" r="27.645" fill="none" stroke="#00a5ff" stroke-miterlimit="10" stroke-width="0.1"/>
  <g fill="none" stroke="#fff" stroke-linecap="round" stroke-linejoin="round" stroke-miterlimit="10" stroke-width="6">
    <path d="M19.072 55.011l6.673-10.486-2.086-4.282 5.888-10.959 5.073-3.503-.31-2.661m11.658 7.651l6.469 2.315m.095.191l2.955.953-1.24 3.622-2.954-.953M40.69 14.453l1.217-5.042"/>
    <circle cx="53.39" cy="16.022" r="3"/>
    <path d="M44.41 33.167l-8.274-2.369a3.05 3.05 0 00-3.05.953l-6.145 7.697a2.073 2.073 0 00-.305 2.535c.44.51 1.72.165 2.482-.598l4.825-5.058a2.59 2.59 0 013.05-.381l5.243 2.955a9.264 9.264 0 003.527.953h.954a5.297 5.297 0 003.24-1.43l.477-.477a7.32 7.32 0 001.716-3.145c.19-.954.381-1.716.381-1.716"/>
    <path d="M50.626 37.948l-1.621 9.437a12.166 12.166 0 00.095 3.718l1.907 7.721a1.805 1.805 0 01-.954 2.288 1.782 1.782 0 01-2.097-1.335l-3.432-8.865a12.201 12.201 0 01-.667-3.718v-6.673m8.58-7.435l1.81-5.91c.573-2.002-.19-4.1-1.81-4.576a54.171 54.171 0 00-6.673-1.43h-.096c-2.097-.286-5.242-.858-7.15-1.334a85.442 85.442 0 01-3.335-.954"/>
  </g>
  <g fill="#fcea2b">
    <path d="M49.581 21.647l4.766 2.288-2.669 12.583-1.048 1.43-2.002 11.343 2.86 11.44-2.86.953-4.767-12.392v-9.533l-8.579-4.767-7.184 7.266-2.045-1.704 8.276-10.328L44.92 33.5s2.474-8.53 2.755-8.993a96.026 96.026 0 01-11.25-2.764c-1.43-.477-2.86-1.525-1.906-3.432"/>
    <circle cx="53.39" cy="16.022" r="2.86"/>
  </g>
  <path fill="#d0cfce" stroke="#d0cfce" stroke-linejoin="round" stroke-width="2" d="M42.023 8.3v.954L40.54 15.16l-5.564 1.11-2.697 2.212 1.817 4.254-.653 3.677-2.86 1.906-1.906 1.907-5.182 10.496.817 2.12.647 1.217.387.89-2.52 4.483-3.87 5.793-4.579 5.506-5.586.854-.01-54.633 28.692.033z"/>
  <path fill="#92d3f5" d="M52.532 33.277l2.955.953-1.24 3.622-2.954-.953"/>
  <g fill="none" stroke="#000" stroke-width="2">
    <path stroke-linecap="round" stroke-linejoin="round" d="M19.072 55.011l6.673-10.486-2.086-4.282 5.888-10.959 5.073-3.503-.31-2.661m11.658 7.651l6.469 2.315m.095.191l2.955.953-1.24 3.622-2.954-.953M40.69 14.453l1.217-5.042"/>
    <circle cx="53.39" cy="16.022" r="3" stroke-miterlimit="10"/>
    <path stroke-linecap="round" stroke-linejoin="round" d="M44.41 33.167l-8.274-2.369a3.05 3.05 0 00-3.05.953l-6.145 7.697a2.073 2.073 0 00-.305 2.535c.44.51 1.72.165 2.482-.598l4.825-5.058a2.59 2.59 0 013.05-.381l5.243 2.955a9.264 9.264 0 003.527.953h.954a5.297 5.297 0 003.24-1.43l.477-.477a7.32 7.32 0 001.716-3.145c.19-.954.381-1.716.381-1.716"/>
    <path stroke-linecap="round" stroke-linejoin="round" d="M50.626 37.948l-1.621 9.437a12.166 12.166 0 00.095 3.718l1.907 7.721a1.805 1.805 0 01-.954 2.288 1.782 1.782 0 01-2.097-1.335l-3.432-8.865a12.201 12.201 0 01-.667-3.718v-6.673m8.58-7.435l1.81-5.91c.573-2.002-.19-4.1-1.81-4.576a54.171 54.171 0 00-6.673-1.43h-.096c-2.097-.286-5.242-.858-7.15-1.334a85.442 85.442 0 01-3.335-.954"/>
  </g>
</svg>
