<svg viewBox="0 0 72 72" xmlns="http://www.w3.org/2000/svg">
  <path fill="#b3b3b3" d="M68 4v64H4V4h64m4-4H0v72h72V0z"/>
  <path fill="none" stroke="#00a5ff" stroke-miterlimit="10" stroke-width="0.1" d="M12.923 10.958h46.154A1.923 1.923 0 0161 12.881v46.154a1.923 1.923 0 01-1.923 1.923H12.923A1.923 1.923 0 0111 59.035V12.881a1.923 1.923 0 011.923-1.923z"/>
  <rect x="16" y="4" rx="2.254" width="40" height="64" fill="none" stroke="#00a5ff" stroke-miterlimit="10" stroke-width="0.1"/>
  <rect x="16" y="4" rx="2.254" width="40" height="64" transform="rotate(90 36 36)" fill="none" stroke="#00a5ff" stroke-miterlimit="10" stroke-width="0.1"/>
  <circle cx="36" cy="36" r="29" fill="none" stroke="#00a5ff" stroke-miterlimit="10" stroke-width="0.1"/>
  <g fill="none" stroke="#fff" stroke-linecap="round" stroke-linejoin="round" stroke-miterlimit="10" stroke-width="6">
    <path d="M42.019 28.544a2 2 0 11-2-2 2 2 0 012 2m-8 0a2 2 0 11-2-2 2 2 0 012 2m2 10.002a7.653 7.653 0 01-3.447-.858 1 1 0 01.894-1.789 5.377 5.377 0 005.106 0 1 1 0 11.894 1.79 7.652 7.652 0 01-3.447.857zm14.947-14.441C46.493 10.485 36.02 11.884 36.02 11.884S25.666 10.5 21.15 23.87m5.688-2.332a6.553 6.553 0 006.098 1.536m12.263-1.536a6.553 6.553 0 01-6.098 1.536"/>
    <circle cx="36.019" cy="22.105" r="1.5"/>
    <path d="M25.464 24.691l-11.318-1.617s6.19 9.735 10.367 8.697m11.506-16.039a20.458 20.458 0 01-3.08 5.059m13.635 3.919l11.45-1.636s-6.268 9.849-10.494 8.799M36.019 15.732a20.456 20.456 0 003.08 5.059m12.119 10.197v13.503M18.09 52.064v-9.565h7.085v3.564m-5.151-3.603v-4.743m3.372 4.782v-3.442"/>
    <path d="M54.956 59.905s2-13-10-13c-3.192 2.128-5.926 3.598-9 3.592h.125c-3.073.006-5.808-1.464-9-3.592-12 0-10 13-10 13m9.361-35.403l-.983.23a17.29 17.29 0 00-.779 5.173c0 7.827 5.077 14.173 11.339 14.173s11.338-6.346 11.338-14.173a17.29 17.29 0 00-.779-5.174l-.812-.324"/>
    <path d="M46.574 24.71l11.45-1.636s-6.268 9.849-10.494 8.799m-27.581-1.585v3.169m27.949 26.504C29.4 54.826 27.081 46.905 27.081 46.905s-4.2.204-5.677 1.353c3.116 6.43 5.69 8.64 13.86 11.77"/>
  </g>
  <path fill="#b1cc33" d="M54.956 60.931s2-14.026-10-14.026c-3.192 2.128-5.926 3.598-9 3.592h.125c-3.073.006-5.808-1.464-9-3.592-12 0-10 14.026-10 14.026z"/>
  <path fill="#5c9e31" d="M45.342 46.905a18.013 18.013 0 01-8.937 3.588c13.062.412 12.977 6.395 13.74 10.395h5.113s2.084-13.983-9.916-13.983z"/>
  <path fill="#6a462f" d="M18.09 52.064v-9.565h7.085v3.564"/>
  <path fill="#a57939" d="M48.001 60.958c-18.499-5.135-20.92-14.053-20.92-14.053s-4.2.204-5.677 1.353c3.116 6.43 5.934 9.55 14.104 12.681"/>
  <g fill="#fcea2b">
    <path d="M38.122 20.79a9.395 9.395 0 01-2.18-5.053c-.028 0-.055-.005-.083-.005a8.272 8.272 0 01-1.98 5.059 10.877 10.877 0 01-8.794 4.708 17.4 17.4 0 00-.565 4.406c0 7.827 5.076 14.173 11.338 14.173s11.339-6.346 11.339-14.174a17.345 17.345 0 00-.626-4.61 9.753 9.753 0 01-8.45-4.503z"/>
    <path d="M46.574 24.71l11.45-1.636s-6.268 9.849-10.494 8.799m-22.066-7.182l-11.318-1.617s6.19 9.735 10.367 8.697"/>
  </g>
  <g fill="#f4aa41">
    <path d="M35.86 11.884A15.35 15.35 0 0020.722 24.73c8.826 3.057 13.156-3.939 13.156-3.939a8.272 8.272 0 001.98-5.059h.083a9.397 9.397 0 002.18 5.06s3.413 6.46 12.872 3.93A15.35 15.35 0 0035.86 11.883zm1.616 32.624l-5.195-.645-4.21-2.617-3.413-6.106-.38-2.844-2.351-.418-2.91-2.263v12.553l6.158.33v4.597l1.906-.19c3.17 2.113 5.89 3.574 8.938 3.588 3.048-.014 5.767-1.475 8.937-3.588a9.688 9.688 0 016.554 2.135 12.86 12.86 0 00.661-4.108c0-16.656-.27-14.326-.27-14.326l-2.326 1.425-2.2.266-1.29 4.892-3.603 4.968z"/>
  </g>
  <g>
    <path d="M42.019 28.544a2 2 0 11-2-2 2 2 0 012 2m-8 0a2 2 0 11-2-2 2 2 0 012 2m2 10.002a7.653 7.653 0 01-3.447-.858 1 1 0 01.894-1.789 5.377 5.377 0 005.106 0 1 1 0 11.894 1.79 7.652 7.652 0 01-3.447.857z"/>
    <path fill="none" stroke="#000" stroke-linecap="round" stroke-linejoin="round" stroke-width="2" d="M50.966 24.105C46.493 10.485 36.02 11.884 36.02 11.884S25.666 10.5 21.15 23.87m5.688-2.332a6.553 6.553 0 006.098 1.536m12.263-1.536a6.553 6.553 0 01-6.098 1.536"/>
    <circle cx="36.019" cy="22.105" r="1.5"/>
    <path fill="none" stroke="#000" stroke-linecap="round" stroke-linejoin="round" stroke-width="2" d="M25.464 24.691l-11.318-1.617s6.19 9.735 10.367 8.697m11.506-16.039a20.458 20.458 0 01-3.08 5.059m13.635 3.919l11.45-1.636s-6.268 9.849-10.494 8.799M36.019 15.732a20.456 20.456 0 003.08 5.059m12.119 10.197v13.503M18.09 52.064v-9.565h7.085v3.564m-5.151-3.603v-4.743m3.372 4.782v-3.442"/>
    <path fill="none" stroke="#000" stroke-linecap="round" stroke-linejoin="round" stroke-width="2" d="M54.956 59.905s2-13-10-13c-3.192 2.128-5.926 3.598-9 3.592h.125c-3.073.006-5.808-1.464-9-3.592-12 0-10 13-10 13m9.361-35.403l-.983.23a17.29 17.29 0 00-.779 5.173c0 7.827 5.077 14.173 11.339 14.173s11.338-6.346 11.338-14.173a17.29 17.29 0 00-.779-5.174l-.812-.324"/>
    <path fill="none" stroke="#000" stroke-linecap="round" stroke-linejoin="round" stroke-width="2" d="M46.574 24.71l11.45-1.636s-6.268 9.849-10.494 8.799m-27.581-1.585v3.169m27.949 26.504C29.4 54.826 27.081 46.905 27.081 46.905s-4.2.204-5.677 1.353c3.116 6.43 5.69 8.64 13.86 11.77"/>
  </g>
</svg>
