<svg viewBox="0 0 72 72" xmlns="http://www.w3.org/2000/svg">
  <path fill="#B3B3B3" d="M68 4v64H4V4h64m4-4H0v72h72V0z"/>
  <path fill="none" stroke="#00A5FF" stroke-miterlimit="10" stroke-width="0.1" d="M12.9 11h46.2c1.1 0 1.9.9 1.9 1.9h0V59c0 1.1-.9 1.9-1.9 1.9H12.9c-1 .1-1.9-.8-1.9-1.9h0V12.9c0-1.1.9-1.9 1.9-1.9h0z"/>
  <path fill="none" stroke="#00A5FF" stroke-miterlimit="10" stroke-width="0.1" d="M18.3 4h35.5C55 4 56 5 56 6.3v59.5c0 1.2-1 2.3-2.3 2.3H18.3C17 68 16 67 16 65.7V6.3C16 5 17 4 18.3 4z"/>
  <path fill="none" stroke="#00A5FF" stroke-miterlimit="10" stroke-width="0.1" d="M68 18.3v35.5c0 1.2-1 2.3-2.3 2.3H6.3C5 56 4 55 4 53.7V18.3C4 17 5 16 6.3 16h59.5c1.2 0 2.2 1 2.2 2.3z"/>
  <circle cx="36" cy="36" r="29" fill="none" stroke="#00A5FF" stroke-miterlimit="10" stroke-width="0.1"/>
  <g fill="none" stroke="#fff" stroke-linecap="round" stroke-linejoin="round" stroke-miterlimit="10" stroke-width="6">
    <path d="M55 60v-3c0-5-5-9-10-9-6 5-12 5-18 0-5 0-10 4-10 9v3m23-33.3c1.1 0 2 .9 2 2s-.9 2-2 2-2-.9-2-2 .9-2 2-2zm-.1 9.8c.2.5 0 1.1-.5 1.3-1.1.6-2.3.8-3.5.8s-2.3-.3-3.4-.8c-.5-.2-.7-.8-.5-1.3s.8-.7 1.3-.4c1.7.9 3.4.9 5.1 0 .6-.3 1.2-.1 1.5.4zM32 26.7c1.1 0 2 .9 2 2s-.9 2-2 2-2-.9-2-2 .9-2 2-2zM24.3 29c0 .4 0 1.4-.1 2.4-.2 3.1.4 6.2 1.9 8.9.6 1 1.3 2 2.1 2.7 2.8 2.4 5.6 2.5 7.4 2.5"/>
    <path d="M47.2 28.7v.4c-.3 2.1-2.1 5.8-2.1 5.8s-1.9 3-2.7-1.2c-4.2-1.2-8.6-1.2-13.1 0-.8 4.2-2.7 1.2-2.7 1.2s-1.8-3.7-2.1-5.8v-.4"/>
    <path d="M47.2 29c0 .4.1 1.4.1 2.4.2 3.1-.4 6.2-1.9 8.9-.6 1-1.2 2-2.1 2.7-2.8 2.4-5.5 2.5-7.4 2.5h-.3M24.3 29s-2.2-6.8 2-13.2c3.2-4.9 12.9-2.4 12.9-2.4l3.1-2.4 1.1 3.1 3.4-2.5c.8 2.2.1 3.9-1.2 5.3-1.1 1.2-2.5 2-3.5 2.5-.7.4-1.2.5-1.2.5-5.8 2.2-6.1 1.9-10.6 0 0 0-3.4-2.5-6.2 8.6M42 19.9h.2c1.2.1 3.2 1.5 5 8.7m-1.4-11.5c3 5.8 1.3 11.9 1.3 11.9"/>
  </g>
  <path fill="#92D3F5" d="M55 61v-4c0-5-5-9-10-9-6 5-12 5-18 0-5 0-10 4-10 9v4h38z"/>
  <g fill="#6A462F">
    <path d="M47.3 31.4c.2 3.1-.4 6.2-1.9 8.9-.6 1-1.2 2-2.1 2.7-2.8 2.4-5.5 2.5-7.4 2.5h-.3c-1.9 0-4.6-.1-7.4-2.5-.8-.7-1.5-1.7-2.1-2.7-1.5-2.7-2.1-5.8-1.9-8.9.1-1 .1-2 .1-2.4.3 2.1 2.1 5.8 2.1 5.8s2 3 2.7-1.2c4.5-1.2 8.9-1.2 13.1 0 .8 4.2 2.7 1.2 2.7 1.2s1.8-3.7 2.1-5.8c.2.4.2 1.4.3 2.4zm-1.5-14.3c3 5.8 1.3 11.9 1.3 11.9v-.4c-1.8-7.2-3.8-8.6-5-8.7v-.4c1-.5 2.4-1.4 3.5-2.6l.2.2z"/>
    <path d="M46.9 11.7c.8 2.2.1 3.9-1.2 5.3-1.1 1.2-2.5 2-3.5 2.5-.7.4-1.2.5-1.2.5-5.8 2.2-6.1 1.9-10.6 0 0 0-3.4-2.5-6.2 8.6v.4s-2.2-6.8 2-13.2c3.2-4.9 12.9-2.4 12.9-2.4l3.1-2.4 1.1 3.1 3.6-2.4z"/>
  </g>
  <path fill="#FCEA2B" d="M42.2 20c1.2.1 3.2 1.5 5 8.7v.4c-.3 2.1-2.1 5.8-2.1 5.8s-1.9 3-2.7-1.2c-4.2-1.2-8.6-1.2-13.1 0-.8 4.2-2.7 1.2-2.7 1.2s-1.8-3.7-2.1-5.8v-.4c2.8-11.1 6.2-8.6 6.2-8.6 4.4 1.9 4.8 2.2 10.6 0 0 0 .5-.2 1.2-.5l-.3.4z"/>
  <path fill="none" stroke="#000" stroke-linecap="round" stroke-linejoin="round" stroke-miterlimit="10" stroke-width="2" d="M55 60v-3c0-5-5-9-10-9-6 5-12 5-18 0-5 0-10 4-10 9v3"/>
  <path d="M40 26.7c1.1 0 2 .9 2 2s-.9 2-2 2-2-.9-2-2 .9-2 2-2zm-.1 9.8c.2.5 0 1.1-.5 1.3-1.1.6-2.3.8-3.5.8s-2.3-.3-3.4-.8c-.5-.2-.7-.8-.5-1.3s.8-.7 1.3-.4c1.7.9 3.4.9 5.1 0 .6-.3 1.2-.1 1.5.4zM32 26.7c1.1 0 2 .9 2 2s-.9 2-2 2-2-.9-2-2 .9-2 2-2z"/>
  <path fill="none" stroke="#000" stroke-linecap="round" stroke-linejoin="round" stroke-miterlimit="10" stroke-width="2" d="M24.3 29c0 .4 0 1.4-.1 2.4-.2 3.1.4 6.2 1.9 8.9.6 1 1.3 2 2.1 2.7 2.8 2.4 5.6 2.5 7.4 2.5"/>
  <path fill="none" stroke="#000" stroke-linecap="round" stroke-linejoin="round" stroke-miterlimit="10" stroke-width="2" d="M47.2 28.7v.4c-.3 2.1-2.1 5.8-2.1 5.8s-1.9 3-2.7-1.2c-4.2-1.2-8.6-1.2-13.1 0-.8 4.2-2.7 1.2-2.7 1.2s-1.8-3.7-2.1-5.8v-.4"/>
  <path fill="none" stroke="#000" stroke-linecap="round" stroke-linejoin="round" stroke-miterlimit="10" stroke-width="2" d="M47.2 29c0 .4.1 1.4.1 2.4.2 3.1-.4 6.2-1.9 8.9-.6 1-1.2 2-2.1 2.7-2.8 2.4-5.5 2.5-7.4 2.5h-.3M24.3 29s-2.2-6.8 2-13.2c3.2-4.9 12.9-2.4 12.9-2.4l3.1-2.4 1.1 3.1 3.4-2.5c.8 2.2.1 3.9-1.2 5.3-1.1 1.2-2.5 2-3.5 2.5-.7.4-1.2.5-1.2.5-5.8 2.2-6.1 1.9-10.6 0 0 0-3.4-2.5-6.2 8.6M42 19.9h.2c1.2.1 3.2 1.5 5 8.7m-1.4-11.5c3 5.8 1.3 11.9 1.3 11.9"/>
</svg>
