<svg viewBox="0 0 72 72" xmlns="http://www.w3.org/2000/svg">
  <path fill="#B3B3B3" d="M68 4v64H4V4h64m4-4H0v72h72V0z"/>
  <path fill="none" stroke="#00A5FF" stroke-miterlimit="10" stroke-width="0.1" d="M12.923 10.958h46.154c1.062 0 1.923.861 1.923 1.923v46.154a1.923 1.923 0 01-1.923 1.923H12.923A1.923 1.923 0 0111 59.035h0V12.881c0-1.062.861-1.923 1.923-1.923h0z"/>
  <path fill="none" stroke="#00A5FF" stroke-miterlimit="10" stroke-width="0.1" d="M18.254 4h35.492A2.254 2.254 0 0156 6.254v59.492A2.254 2.254 0 0153.746 68H18.254A2.254 2.254 0 0116 65.746V6.254A2.254 2.254 0 0118.254 4z"/>
  <path fill="none" stroke="#00A5FF" stroke-miterlimit="10" stroke-width="0.1" d="M68 18.254v35.492A2.254 2.254 0 0165.746 56H6.254A2.254 2.254 0 014 53.746V18.254A2.254 2.254 0 016.254 16h59.492A2.254 2.254 0 0168 18.254z"/>
  <circle cx="36" cy="36" r="29" fill="none" stroke="#00A5FF" stroke-miterlimit="10" stroke-width="0.1"/>
  <g fill="none" stroke="#fff" stroke-linecap="round" stroke-linejoin="round" stroke-miterlimit="10" stroke-width="6">
    <path d="M26 39c-4 0-4-6-4-13s4-14 14-14 14 7 14 14 0 13-4 13M17 60v-3c0-4.994 5.008-9 10-9 6 5 12 5 18 0 4.994 0 10 4.006 10 9v3"/>
    <path d="M41.873 30a2 2 0 11-4 0 2 2 0 014 0m-8 0a2 2 0 11-4 0 2 2 0 014 0"/>
    <path d="M24.936 31c0 9 4.937 14 11 14C41.873 45 47 40 47 31c0-3-1-5-1-5-3-3-7-8-7-8-4 3-7 6-13 7 0 0-1.064 1-1.064 6zM33 38c1.938.939 4 1 6 0"/>
  </g>
  <path fill="#92D3F5" d="M17 61v-4c0-4.994 5.008-9 10-9 6 5 12 5 18 0 4.994 0 10 4.006 10 9v4"/>
  <path fill="#F1B31C" d="M26 39c-4 0-4-6-4-13s4-14 14-14 14 7 14 14 0 13-4 13"/>
  <path fill="#FCEA2B" d="M24.936 31c0 9 4.937 14 11 14C41.873 45 47 40 47 31c0-3-1-5-1-5-3-3-7-8-7-8-4 3-7 6-13 7 0 0-1.064 1-1.064 6z"/>
  <path fill="none" stroke="#000" stroke-linecap="round" stroke-linejoin="round" stroke-width="2" d="M26 39c-4 0-4-6-4-13s4-14 14-14 14 7 14 14 0 13-4 13M17 60v-3c0-4.994 5.008-9 10-9 6 5 12 5 18 0 4.994 0 10 4.006 10 9v3"/>
  <path d="M41.873 30a2 2 0 11-4 0 2 2 0 014 0m-8 0a2 2 0 11-4 0 2 2 0 014 0"/>
  <path fill="none" stroke="#000" stroke-linejoin="round" stroke-width="2" d="M24.936 31c0 9 4.937 14 11 14C41.873 45 47 40 47 31c0-3-1-5-1-5-3-3-7-8-7-8-4 3-7 6-13 7 0 0-1.064 1-1.064 6z"/>
  <path fill="none" stroke="#000" stroke-linecap="round" stroke-linejoin="round" stroke-width="2" d="M33 38c1.938.939 4 1 6 0"/>
</svg>
