<svg viewBox="0 0 72 72" xmlns="http://www.w3.org/2000/svg">
  <path fill="#b3b3b3" d="M68 4v64H4V4h64m4-4H0v72h72V0z"/>
  <path fill="none" stroke="#00a5ff" stroke-miterlimit="10" stroke-width="0.1" d="M12.923 10.958h46.154A1.923 1.923 0 0161 12.881v46.154a1.923 1.923 0 01-1.923 1.923H12.923A1.923 1.923 0 0111 59.035V12.881a1.923 1.923 0 011.923-1.923z"/>
  <rect x="16" y="4" rx="2.254" width="40" height="64" fill="none" stroke="#00a5ff" stroke-miterlimit="10" stroke-width="0.1"/>
  <rect x="16" y="4" rx="2.254" width="40" height="64" transform="rotate(90 36 36)" fill="none" stroke="#00a5ff" stroke-miterlimit="10" stroke-width="0.1"/>
  <circle cx="36" cy="36" r="29" fill="none" stroke="#00a5ff" stroke-miterlimit="10" stroke-width="0.1"/>
  <path fill="none" stroke="#fff" stroke-linecap="round" stroke-linejoin="round" stroke-miterlimit="10" stroke-width="6" d="M12.983 55.15h15.533c4.647-3.796 6.78-10.24 5.556-21.582a1.653 1.653 0 00-2.157-1.444 5.79 5.79 0 00-2.94 3.053l.001-10.437a7.355 7.355 0 00-2.8-5.83c-6.598-5.1-15.039.614-15.564 7.15-.836 10.387-2.482 23.688 2.371 29.09zm46.034 0H43.484c-4.647-3.796-6.78-10.24-5.556-21.582a1.653 1.653 0 012.157-1.444 5.79 5.79 0 012.94 3.053l-.001-10.437a7.355 7.355 0 012.8-5.83c6.598-5.1 15.039.614 15.564 7.15.836 10.387 2.482 23.688-2.371 29.09zM43.484 41.882l-.458-6.705m-14.51 6.705l.458-6.705"/>
  <path fill="#ea5a47" d="M33.76 32.43c-1.582-1.583-4.112.585-4.985 2.652l.001-10.437a7.29 7.29 0 00-2.632-5.698c-6.617-5.329-15.465.41-15.732 7.017-.234 5.79-.002 11.589-.002 17.383 0 3.064 1.498 10.538 1.498 10.538s6.357 1.179 9.517 1.32c3.38.15 6.717-.016 8.927-2.193 2.136-2.103 3.203-6.158 3.204-9.393-.034-2.235.203-6.035.204-11.19zm4.28.095c1.582-1.582 4.113.585 4.985 2.652l-.001-10.437a7.29 7.29 0 012.632-5.698c6.617-5.329 15.466.41 15.732 7.018.234 5.79.002 11.588.003 17.383 0 3.063-1.499 10.537-1.499 10.537s-6.356 1.18-9.517 1.32c-3.38.151-6.716-.016-8.927-2.192-2.136-2.104-3.203-6.159-3.203-9.394.034-2.235-.204-6.035-.204-11.19z"/>
  <path fill="none" stroke="#000" stroke-linecap="round" stroke-linejoin="round" stroke-width="2" d="M12.983 55.15h15.533c4.647-3.796 6.78-10.24 5.556-21.582a1.653 1.653 0 00-2.157-1.444 5.79 5.79 0 00-2.94 3.053l.001-10.437a7.355 7.355 0 00-2.8-5.83c-6.598-5.1-15.039.614-15.564 7.15-.836 10.387-2.482 23.688 2.371 29.09zm46.034 0H43.484c-4.647-3.796-6.78-10.24-5.556-21.582a1.653 1.653 0 012.157-1.444 5.79 5.79 0 012.94 3.053l-.001-10.437a7.355 7.355 0 012.8-5.83c6.598-5.1 15.039.614 15.564 7.15.836 10.387 2.482 23.688-2.371 29.09zM43.484 41.882l-.458-6.705m-14.51 6.705l.458-6.705"/>
</svg>
