<svg viewBox="0 0 72 72" xmlns="http://www.w3.org/2000/svg">
  <path fill="#b3b3b3" d="M68 4v64H4V4h64m4-4H0v72h72V0z"/>
  <path fill="none" stroke="#00a5ff" stroke-miterlimit="10" stroke-width="0.1" d="M12.923 10.958h46.154A1.923 1.923 0 0161 12.881v46.154a1.923 1.923 0 01-1.923 1.923H12.923A1.923 1.923 0 0111 59.035V12.881a1.923 1.923 0 011.923-1.923z"/>
  <rect x="16" y="4" rx="2.254" width="40" height="64" fill="none" stroke="#00a5ff" stroke-miterlimit="10" stroke-width="0.1"/>
  <rect x="16" y="4" rx="2.254" width="40" height="64" transform="rotate(90 36 36)" fill="none" stroke="#00a5ff" stroke-miterlimit="10" stroke-width="0.1"/>
  <circle cx="36" cy="36" r="29" fill="none" stroke="#00a5ff" stroke-miterlimit="10" stroke-width="0.1"/>
  <g fill="none" stroke="#fff" stroke-linecap="round" stroke-linejoin="round" stroke-miterlimit="10" stroke-width="6">
    <path d="M43.939 13.218c.984 3.914 2.502 19.078 3.438 22.707.779 3.017 5.008 9.68.827 12.977-1.743 1.374-7.106-1.257-18.01 3.89-2.05.967-7.753 3.692-11.877 3-2.174-.366-2.694-3.919-1.047-5.677 2.55-2.721 7.802-4.449 10.457-6.484 3.656-2.804 5.113-4.407 6.407-7.211.727-1.576.016-13.862-3.31-19.765a1.013 1.013 0 01.724-1.355 54.774 54.774 0 019.274-1.74"/>
    <path d="M47.288 14.468c1.246 3.838 3.785 18.865 4.964 22.422.98 2.958 5.65 9.321 1.7 12.892-1.646 1.489-7.174-.774-17.704 5.097-1.982 1.104-7.487 4.208-11.648 3.795-1.46-.145-2.156-1.475-2.095-3.08m10.14-3.735a11.494 11.494 0 011.974 3.907M36.63 23.39a48.123 48.123 0 016.161-1.788m9.912 18.187a18.116 18.116 0 00-2.681 2.368"/>
    <path d="M22.818 46.922a6.604 6.604 0 013.875 2.441 13.333 13.333 0 011.817 4.204m19.121-14.72a14.598 14.598 0 00-4.28 3.933c-1.632 2.754-.93 6.528-.93 6.528m2.949-27.515c.334-.08.647-.145.927-.191"/>
  </g>
  <path fill="#f4aa41" d="M47.015 13.476c.872 3.703 4.397 18.78 5.237 23.414.556 3.067 6.243 9.29 2.294 12.862-1.647 1.489-8.096-.147-18.627 5.724A32.376 32.376 0 0124.6 58.674a2.647 2.647 0 01-1.83-4.572c2.768-2.5 6.94-5.128 9.45-7.338 3.459-3.044 5.486-5.727 6.329-8.698a4.238 4.238 0 00.118-1.811c-.374-2.393-3.382-14.837-4.231-17.472a1.1 1.1 0 01.63-1.4c1.724-.6 6.861-2.618 8.857-3.33"/>
  <path fill="#f4aa41" d="M43.734 12.21c.62 3.753 3.118 19.034 3.643 23.715.348 3.097 5.602 9.69 1.42 12.987-1.743 1.374-8.067-.693-18.97 4.453a32.374 32.374 0 01-11.51 2.427 2.647 2.647 0 01-1.517-4.686c2.93-2.307 7.27-4.648 9.925-6.683 3.656-2.803 5.859-5.343 6.9-8.25a4.239 4.239 0 00.24-1.8c-.211-2.412-2.372-15.03-3.041-17.717a1.1 1.1 0 01.723-1.355c1.76-.483 7.023-2.149 9.061-2.724"/>
  <path fill="#e27022" d="M29.059 53.32s-5.68-.397-6.478 1.425c-.334.763-.416 2.855.275 3.32 2.36 1.585 11.24-1.739 11.24-1.739l-.785-3.633-1.008-.643zm23.983-13.605l-4.37 4.54-.675 6.735 6.411-.587 1.757-3.833-3.123-6.855z"/>
  <path fill="#e27022" d="M23.16 47.278s-5.672 2.693-6.592 4.457c-.385.739-.608 2.82.05 3.33 2.249 1.742 11.333-.975 11.333-.975l-.538-3.678zm24.815-8.482l-4.666 4.235-1.129 6.673 6.436-.152 2.012-3.705-2.653-7.051z"/>
  <g fill="none" stroke="#000" stroke-width="2">
    <path stroke-linecap="round" stroke-linejoin="round" d="M43.939 13.218c.984 3.914 2.502 19.078 3.438 22.707.779 3.017 5.008 9.68.827 12.977-1.743 1.374-7.106-1.257-18.01 3.89-2.05.967-7.753 3.692-11.877 3-2.174-.366-2.694-3.919-1.047-5.677 2.55-2.721 7.802-4.449 10.457-6.484 3.656-2.804 5.113-4.407 6.407-7.211.727-1.576.016-13.862-3.31-19.765a1.013 1.013 0 01.724-1.355 54.774 54.774 0 019.274-1.74"/>
    <path stroke-linecap="round" stroke-linejoin="round" d="M47.288 14.468c1.246 3.838 3.785 18.865 4.964 22.422.98 2.958 5.65 9.321 1.7 12.892-1.646 1.489-7.174-.774-17.704 5.097-1.982 1.104-7.487 4.208-11.648 3.795-1.46-.145-2.156-1.475-2.095-3.08m10.14-3.735a11.494 11.494 0 011.974 3.907M36.63 23.39a48.123 48.123 0 016.161-1.788"/>
    <path stroke-miterlimit="10" d="M52.703 39.789a18.116 18.116 0 00-2.681 2.368"/>
    <path stroke-linecap="round" stroke-linejoin="round" d="M22.818 46.922a6.604 6.604 0 013.875 2.441 13.333 13.333 0 011.817 4.204"/>
    <path stroke-miterlimit="10" d="M47.631 38.847a14.598 14.598 0 00-4.28 3.933c-1.632 2.754-.93 6.528-.93 6.528"/>
    <path stroke-linecap="round" stroke-linejoin="round" d="M45.37 21.793c.334-.08.647-.145.927-.191"/>
  </g>
</svg>
