<svg viewBox="0 0 72 72" xmlns="http://www.w3.org/2000/svg">
  <path fill="#b3b3b3" d="M68 4v64H4V4h64m4-4H0v72h72V0z"/>
  <path fill="none" stroke="#00a5ff" stroke-miterlimit="10" stroke-width="0.1" d="M12.923 10.958h46.154A1.923 1.923 0 0161 12.881v46.154a1.923 1.923 0 01-1.923 1.923H12.923A1.923 1.923 0 0111 59.035V12.881a1.923 1.923 0 011.923-1.923z"/>
  <rect x="16" y="4" rx="2.254" width="40" height="64" fill="none" stroke="#00a5ff" stroke-miterlimit="10" stroke-width="0.1"/>
  <rect x="16" y="4" rx="2.254" width="40" height="64" transform="rotate(90 36 36)" fill="none" stroke="#00a5ff" stroke-miterlimit="10" stroke-width="0.1"/>
  <circle cx="36" cy="36" r="29" fill="none" stroke="#00a5ff" stroke-miterlimit="10" stroke-width="0.1"/>
  <g fill="none" stroke="#fff" stroke-linecap="round" stroke-linejoin="round" stroke-miterlimit="10" stroke-width="6">
    <path d="M31.887 21.413v2.454m-1.963 0h3.85A12.01 12.01 0 0129.7 28.85"/>
    <path d="M33.587 28.264a5.238 5.238 0 01-1.7-1.452v5.775m2.925-10.439H41.7m-5.72 1.692h4.488v2.01H35.98zm-.61 8.697v-4.922h5.796v4.922m-5.796-2.87h5.796m-5.796 2.049h5.796m-2.937 0v-4.101"/>
    <circle cx="36" cy="27" r="10"/>
    <path d="M55 18a25.4 25.4 0 01-9.289 6.652m-19.422 0A25.4 25.4 0 0117 18"/>
    <path d="M17 5h38v62H17z"/>
  </g>
  <path fill="#d22f27" d="M17 5h38v62H17z"/>
  <circle cx="36" cy="27" r="10" fill="#f1b31c"/>
  <g>
    <g fill="none" stroke="#000">
      <g stroke-linecap="round" stroke-linejoin="round">
        <path d="M31.887 21.413v2.454m-1.963 0h3.85A12.01 12.01 0 0129.7 28.85"/>
        <path d="M33.587 28.264a5.238 5.238 0 01-1.7-1.452v5.775m2.925-10.439H41.7m-5.72 1.692h4.488v2.01H35.98zm-.61 8.697v-4.922h5.796v4.922m-5.796-2.87h5.796m-5.796 2.049h5.796m-2.937 0v-4.101"/>
      </g>
      <g stroke-linecap="round" stroke-miterlimit="10" stroke-width="2">
        <circle cx="36" cy="27" r="10"/>
        <path d="M55 18a25.4 25.4 0 01-9.289 6.652m-19.422 0A25.4 25.4 0 0117 18"/>
      </g>
      <path stroke-linejoin="round" stroke-width="2" d="M17 5h38v62H17z"/>
    </g>
  </g>
</svg>
