<svg viewBox="0 0 72 72" xmlns="http://www.w3.org/2000/svg">
  <path fill="#b3b3b3" d="M68 4v64H4V4h64m4-4H0v72h72V0z"/>
  <path fill="none" stroke="#00a5ff" stroke-miterlimit="10" stroke-width="0.1" d="M12.923 10.958h46.154A1.923 1.923 0 0161 12.881v46.154a1.923 1.923 0 01-1.923 1.923H12.923A1.923 1.923 0 0111 59.035V12.881a1.923 1.923 0 011.923-1.923z"/>
  <rect x="16" y="4" rx="2.254" ry="2.254" width="40" height="64" fill="none" stroke="#00a5ff" stroke-miterlimit="10" stroke-width="0.1"/>
  <rect x="16" y="4" rx="2.254" ry="2.254" width="40" height="64" transform="rotate(90 36 36)" fill="none" stroke="#00a5ff" stroke-miterlimit="10" stroke-width="0.1"/>
  <circle cx="36" cy="36" r="29" fill="none" stroke="#00a5ff" stroke-miterlimit="10" stroke-width="0.1"/>
  <path fill="none" stroke="#fff" stroke-linecap="round" stroke-linejoin="round" stroke-miterlimit="10" stroke-width="6" d="M23.729 15.428V56.32m24.302 0V15.428m-24.302 0l3.237-1.703 2.027 1.836 3.674-1.599 3.083 1.629 3.547-1.541 2.956 1.363 2.999-1.451 2.724 1.398m.055 40.96l-3.524 1.866-2.028-1.837-3.674 1.6-3.083-1.629-3.547 1.54-2.956-1.362-2.999 1.451-2.444-1.515m3.499-28.221h8.327m5.127.002h3.587m-17.041 5.532h7.707m5.747.005h3.587m-17.041 5.509h6.732m6.722.027h3.587m-3.587 6.534h3.587"/>
  <path fill="#d0cfce" d="M48.031 57.253V14.658H23.729v42.595h24.302z"/>
  <path fill="none" stroke="#000" stroke-linecap="round" stroke-linejoin="round" stroke-width="2" d="M23.729 15.428V56.32m24.302 0V15.428m-24.302 0l3.237-1.703 2.027 1.836 3.674-1.599 3.083 1.629 3.547-1.541 2.956 1.363 2.999-1.451 2.724 1.398m.055 40.96l-3.524 1.866-2.028-1.837-3.674 1.6-3.083-1.629-3.547 1.54-2.956-1.362-2.999 1.451-2.444-1.515m3.499-28.221h8.327m5.127.002h3.587m-17.041 5.532h7.707m5.747.005h3.587m-17.041 5.509h6.732m6.722.027h3.587m-3.587 6.534h3.587"/>
</svg>
