<svg viewBox="0 0 72 72" xmlns="http://www.w3.org/2000/svg">
  <path fill="#b3b3b3" d="M68 4v64H4V4h64m4-4H0v72h72V0z"/>
  <path fill="none" stroke="#00a5ff" stroke-miterlimit="10" stroke-width="0.1" d="M12.923 10.958h46.154A1.923 1.923 0 0161 12.881v46.154a1.923 1.923 0 01-1.923 1.923H12.923A1.923 1.923 0 0111 59.035V12.881a1.923 1.923 0 011.923-1.923z"/>
  <rect x="16" y="4" rx="2.254" width="40" height="64" fill="none" stroke="#00a5ff" stroke-miterlimit="10" stroke-width="0.1"/>
  <rect x="16" y="4" rx="2.254" width="40" height="64" transform="rotate(90 36 36)" fill="none" stroke="#00a5ff" stroke-miterlimit="10" stroke-width="0.1"/>
  <circle cx="36" cy="36" r="29" fill="none" stroke="#00a5ff" stroke-miterlimit="10" stroke-width="0.1"/>
  <g fill="none" stroke="#fff" stroke-linecap="round" stroke-linejoin="round" stroke-miterlimit="10" stroke-width="6">
    <path d="M40.701 37.652l2.598 1.5-1 1.732-2.598-1.5 1-1.732m-.365-2.366a1 1 0 00-.867.5l-2 3.464a1 1 0 00.366 1.366l4.33 2.5a1 1 0 001.366-.366l2-3.464a1 1 0 00-.366-1.366l-4.33-2.5a.994.994 0 00-.5-.135zm-9.839-6.019a1.002 1.002 0 11-.497.135.993.993 0 01.497-.135m0-2a3 3 0 102.601 1.5 2.987 2.987 0 00-2.6-1.5zm28 15.001a1 1 0 11-.497.135.992.992 0 01.497-.135m0-2a3 3 0 102.601 1.5 2.987 2.987 0 00-2.6-1.5zm-25.198 7.384l1 1.732-2.598 1.5-1-1.732 2.598-1.5m.365-2.366a.995.995 0 00-.499.134l-4.33 2.5a1 1 0 00-.366 1.366l2 3.464a1 1 0 001.366.366l4.33-2.5a1 1 0 00.366-1.366l-2-3.464a1 1 0 00-.867-.5zM15 38.5v3h-2v-3h2m1-2h-4a1 1 0 00-1 1v5a1 1 0 001 1h4a1 1 0 001-1v-5a1 1 0 00-1-1z"/>
    <path d="M33.5 22v-2a1 1 0 011-1h3a1 1 0 011 1v2h3v-3.8a2.2 2.2 0 00-2.2-2.2h-6.6a2.2 2.2 0 00-2.2 2.2V22zM53 56h7a3 3 0 003-3V25a3 3 0 00-3-3h-7m-34 0h-7a3 3 0 00-3 3v28a3 3 0 003 3h7m21.067-15.25l-1.732-1 2-3.464 3.031 1.75M31.5 32a2 2 0 11-2-3.463m28 12.999a2 2 0 112 3.465m-28.433 2.785l-1.732 1 2 3.464 3.031-1.75"/>
    <path d="M12 39.5v-2h4V41"/>
    <rect x="19" y="20" rx="1" width="4" height="38"/>
    <rect x="49" y="20" rx="1" width="4" height="38"/>
    <path d="M23 22h26m0 34H23"/>
  </g>
  <path d="M40.701 37.652l2.598 1.5-1 1.732-2.598-1.5 1-1.732m-.365-2.366a1 1 0 00-.867.5l-2 3.464a1 1 0 00.366 1.366l4.33 2.5a1 1 0 001.366-.366l2-3.464a1 1 0 00-.366-1.366l-4.33-2.5a.994.994 0 00-.5-.135zm-9.839-6.019a1.002 1.002 0 11-.497.135.993.993 0 01.497-.135m0-2a3 3 0 102.601 1.5 2.987 2.987 0 00-2.6-1.5zm28 15.001a1 1 0 11-.497.135.992.992 0 01.497-.135m0-2a3 3 0 102.601 1.5 2.987 2.987 0 00-2.6-1.5zm-25.198 7.384l1 1.732-2.598 1.5-1-1.732 2.598-1.5m.365-2.366a.995.995 0 00-.499.134l-4.33 2.5a1 1 0 00-.366 1.366l2 3.464a1 1 0 001.366.366l4.33-2.5a1 1 0 00.366-1.366l-2-3.464a1 1 0 00-.867-.5zM15 38.5v3h-2v-3h2m1-2h-4a1 1 0 00-1 1v5a1 1 0 001 1h4a1 1 0 001-1v-5a1 1 0 00-1-1z"/>
  <rect x="9" y="22" rx="3" width="54" height="34" fill="#a57939"/>
  <rect x="19" y="20" rx="1" width="4" height="38" fill="#6a462f"/>
  <rect x="49" y="20" rx="1" width="4" height="38" fill="#6a462f"/>
  <rect x="38" y="36.268" rx="1" width="7" height="6" transform="rotate(30 41.501 39.266)" fill="#e67a94"/>
  <circle cx="30.5" cy="30.268" r="3" fill="#fcea2b"/>
  <circle cx="58.5" cy="43.269" r="3" fill="#61b2e4"/>
  <rect x="29" y="46.268" rx="1" width="7" height="6" transform="rotate(-30 32.5 49.268)" fill="#f4aa41"/>
  <rect x="10.5" y="37" rx="1" width="7" height="6" transform="rotate(90 14 40)" fill="#b1cc33"/>
  <path fill="#a57939" d="M33.5 22v-2a1 1 0 011-1h3a1 1 0 011 1v2h3v-3.8a2.2 2.2 0 00-2.2-2.2h-6.6a2.2 2.2 0 00-2.2 2.2V22z"/>
  <g>
    <g fill="none" stroke="#000" stroke-width="2">
      <path stroke-linejoin="round" d="M33.5 22v-2a1 1 0 011-1h3a1 1 0 011 1v2h3v-3.8a2.2 2.2 0 00-2.2-2.2h-6.6a2.2 2.2 0 00-2.2 2.2V22z"/>
      <path stroke-miterlimit="10" d="M53 56h7a3 3 0 003-3V25a3 3 0 00-3-3h-7m-34 0h-7a3 3 0 00-3 3v28a3 3 0 003 3h7"/>
      <path stroke-linecap="round" stroke-linejoin="round" d="M40.067 40.75l-1.732-1 2-3.464 3.031 1.75"/>
      <path stroke-linecap="round" stroke-miterlimit="10" d="M31.5 32a2 2 0 11-2-3.463m28 12.999a2 2 0 112 3.465"/>
      <path stroke-linecap="round" stroke-linejoin="round" d="M31.067 47.786l-1.732 1 2 3.464 3.031-1.75M12 39.5v-2h4V41"/>
      <rect x="19" y="20" rx="1" width="4" height="38" stroke-miterlimit="10"/>
      <rect x="49" y="20" rx="1" width="4" height="38" stroke-miterlimit="10"/>
      <path stroke-miterlimit="10" d="M23 22h26m0 34H23"/>
    </g>
  </g>
</svg>
