<svg viewBox="0 0 72 72" xmlns="http://www.w3.org/2000/svg">
  <path fill="#b3b3b3" d="M68 4v64H4V4h64m4-4H0v72h72V0z"/>
  <rect x="11" y="10.958" rx="1.923" width="50" height="50" fill="none" stroke="#00a5ff" stroke-miterlimit="10" stroke-width="0.1"/>
  <rect x="16" y="4" rx="2.254" width="40" height="64" fill="none" stroke="#00a5ff" stroke-miterlimit="10" stroke-width="0.1"/>
  <rect x="16" y="4" rx="2.254" width="40" height="64" transform="rotate(90 36 36)" fill="none" stroke="#00a5ff" stroke-miterlimit="10" stroke-width="0.1"/>
  <circle cx="36" cy="36" r="29" fill="none" stroke="#00a5ff" stroke-miterlimit="10" stroke-width="0.1"/>
  <g fill="none" stroke="#fff" stroke-linecap="round" stroke-linejoin="round" stroke-miterlimit="10" stroke-width="6">
    <circle cx="36.283" cy="35.958" r="29"/>
    <circle cx="36.283" cy="35.958" r="19.5"/>
    <circle cx="36.283" cy="35.958" r="13"/>
    <circle cx="36.283" cy="35.958" r="6"/>
  </g>
  <circle cx="36.283" cy="35.958" r="29" fill="#1e50a0"/>
  <path fill="#1e50a0" d="M52.172 11.434a29.285 29.285 0 01-40.46 40.459 29.3 29.3 0 1040.46-40.46z"/>
  <circle cx="36.283" cy="35.958" r="18.5" fill="#fff"/>
  <circle cx="36.283" cy="35.958" r="13" fill="#92d3f5"/>
  <path fill="#61b2e4" d="M43.081 24.067a13.557 13.557 0 01-18.731 18.73 13.564 13.564 0 1018.731-18.73z"/>
  <g stroke="#000" stroke-linecap="round" stroke-linejoin="round" stroke-width="2">
    <circle cx="36.283" cy="35.958" r="29" fill="none"/>
    <circle cx="36.283" cy="35.958" r="19.5" fill="none"/>
    <circle cx="36.283" cy="35.958" r="13" fill="none"/>
    <circle cx="36.283" cy="35.958" r="6"/>
  </g>
</svg>
