<svg viewBox="0 0 72 72" xmlns="http://www.w3.org/2000/svg">
  <path fill="#b3b3b3" d="M68 4.407v64H4v-64h64m4-4H0v72h72v-72z"/>
  <path fill="none" stroke="#00a5ff" stroke-miterlimit="10" stroke-width="0.1" d="M12.923 11.365h46.154A1.923 1.923 0 0161 13.288v46.154a1.923 1.923 0 01-1.923 1.923H12.923A1.923 1.923 0 0111 59.442V13.288a1.923 1.923 0 011.923-1.923z"/>
  <rect x="16" y="4.407" rx="2.254" width="40" height="64" fill="none" stroke="#00a5ff" stroke-miterlimit="10" stroke-width="0.1"/>
  <rect x="16" y="4.407" rx="2.254" width="40" height="64" transform="rotate(90 36 36.407)" fill="none" stroke="#00a5ff" stroke-miterlimit="10" stroke-width="0.1"/>
  <circle cx="36" cy="36.407" r="29" fill="none" stroke="#00a5ff" stroke-miterlimit="10" stroke-width="0.1"/>
  <g fill="none" stroke="#fff" stroke-linecap="round" stroke-linejoin="round" stroke-miterlimit="10" stroke-width="6">
    <path d="M60.982 32.606L38.666 59.773m22.043-30.782A24.603 24.603 0 0036.142 8.417c-13.72 0-24.841 10.88-24.841 24.3 0 0 3.057-1.882 5.11-.289a.715.715 0 00.745.078 11.63 11.63 0 0110.176.063.713.713 0 00.547.06c1.578-.486 9.606-2.708 16.68-.035a.75.75 0 00.616-.04 11.642 11.642 0 0110.144-.05.725.725 0 00.757-.084c2.035-1.592 4.906.186 4.906.186"/>
    <path d="M16.76 32.57C21.225 7.075 36.143 8.417 36.143 8.417s-7.565.734-8.535 24.238l6.78 25.04M44.872 32.64l-7.626 25.713"/>
    <path d="M55.72 32.568C51.256 7.073 36.142 8.417 36.142 8.417s7.76.72 8.73 24.223m-28.111.02L33.5 58.353M55.72 32.69L37.246 58.353M11.301 32.718l20.78 27.055"/>
    <rect x="32.081" y="58.353" rx="1.42" width="6.586" height="6.586"/>
  </g>
  <path fill="#b1cc33" d="M60.709 28.991A24.603 24.603 0 0036.142 8.417c-13.72 0-24.841 10.88-24.841 24.3 0 0 3.057-1.882 5.11-.289a.715.715 0 00.745.078 11.63 11.63 0 0110.176.063.713.713 0 00.547.06c1.578-.486 9.606-2.708 16.68-.035a.75.75 0 00.616-.04 11.642 11.642 0 0110.144-.05.725.725 0 00.757-.084c2.035-1.592 4.906.186 4.906.186"/>
  <path fill="#5c9e31" d="M55.72 32.568C51.256 7.073 36.142 8.417 36.142 8.417s7.76.72 8.73 24.223a10.073 10.073 0 0110.848-.072z"/>
  <path fill="#5c9e31" d="M56.341 31.952c1.658-.05 3.44-.54 5.535.688 0-20.292-21.807-23.19-21.807-23.19s4.885 1.128 9.378 6.709z"/>
  <rect x="32.081" y="58.353" rx="1.42" width="6.586" height="6.586"/>
  <g fill="none" stroke="#000" stroke-linecap="round" stroke-linejoin="round" stroke-width="2">
    <path d="M60.982 32.606L38.666 59.773m22.043-30.782A24.603 24.603 0 0036.142 8.417c-13.72 0-24.841 10.88-24.841 24.3 0 0 3.057-1.882 5.11-.289a.715.715 0 00.745.078 11.63 11.63 0 0110.176.063.713.713 0 00.547.06c1.578-.486 9.606-2.708 16.68-.035a.75.75 0 00.616-.04 11.642 11.642 0 0110.144-.05.725.725 0 00.757-.084c2.035-1.592 4.906.186 4.906.186"/>
    <path d="M16.76 32.57C21.225 7.075 36.143 8.417 36.143 8.417s-7.565.734-8.535 24.238l6.78 25.04M44.872 32.64l-7.626 25.713"/>
    <path d="M55.72 32.568C51.256 7.073 36.142 8.417 36.142 8.417s7.76.72 8.73 24.223m-28.111.02L33.5 58.353M55.72 32.69L37.246 58.353M11.301 32.718l20.78 27.055"/>
    <rect x="32.081" y="58.353" rx="1.42" width="6.586" height="6.586"/>
  </g>
</svg>
