<svg viewBox="0 0 72 72" xmlns="http://www.w3.org/2000/svg">
  <path fill="#b3b3b3" d="M68 4v64H4V4h64m4-4H0v72h72V0z"/>
  <path fill="none" stroke="#00a5ff" stroke-miterlimit="10" stroke-width="0.1" d="M12.92 10.96h46.15a1.923 1.923 0 011.923 1.923v46.15a1.923 1.923 0 01-1.923 1.923H12.92a1.923 1.923 0 01-1.923-1.923v-46.15a1.923 1.923 0 011.923-1.923z"/>
  <rect x="16" y="4" rx="2.254" width="40" height="64" fill="none" stroke="#00a5ff" stroke-miterlimit="10" stroke-width="0.1"/>
  <rect x="16" y="4" rx="2.254" width="40" height="64" transform="rotate(90 36 36)" fill="none" stroke="#00a5ff" stroke-miterlimit="10" stroke-width="0.1"/>
  <circle cx="36" cy="36" r="29" fill="none" stroke="#00a5ff" stroke-miterlimit="10" stroke-width="0.1"/>
  <g fill="none" stroke="#fff" stroke-linecap="round" stroke-linejoin="round" stroke-miterlimit="10" stroke-width="6">
    <path d="M49.18 38.23l-2.374 19.19a2.836 2.836 0 01-2.802 2.504h-16.57a2.836 2.836 0 01-2.805-2.532l-2.179-19.17m28.52-3.382a1.145 1.145 0 001.138-1.153v-.793a4.428 4.428 0 00-4.4-4.456h-23.5a4.428 4.428 0 00-4.4 4.456v.793a1.145 1.145 0 001.138 1.152zM40.73 14.042h-9.552V8.887h9.552z"/>
    <path d="M40.71 11.54A20.7 20.7 0 0156 31.8h-1.01M31.18 11.57A20.7 20.7 0 0016 31.8h1.156"/>
  </g>
  <path fill="#92d3f5" d="M44.01 60.96H27.44a3.857 3.857 0 01-3.816-3.444l-2.695-23.7h29.83l-2.936 23.74a3.864 3.864 0 01-3.811 3.406z"/>
  <path fill="#61b2e4" d="M45.04 33.81l-2.937 23.74a3.864 3.864 0 01-3.811 3.406h5.716a3.864 3.864 0 003.811-3.406l2.936-23.74z"/>
  <path fill="#61b2e4" d="M50.97 35.87H20.95a2.172 2.172 0 01-2.156-2.183v-.792a5.459 5.459 0 015.418-5.486h23.5a5.459 5.459 0 015.418 5.486v.792a2.172 2.172 0 01-2.155 2.183z"/>
  <path fill="#fff" d="M40.73 8.888v5.155h-9.552V8.888z"/>
  <g fill="none" stroke="#000" stroke-linecap="round" stroke-linejoin="round" stroke-width="2">
    <path d="M49.18 38.23l-2.374 19.19a2.836 2.836 0 01-2.802 2.504h-16.57a2.836 2.836 0 01-2.805-2.532l-2.179-19.17m28.52-3.382a1.145 1.145 0 001.138-1.153v-.793a4.428 4.428 0 00-4.4-4.456h-23.5a4.428 4.428 0 00-4.4 4.456v.793a1.145 1.145 0 001.138 1.152zM40.73 14.042h-9.552V8.887h9.552z"/>
    <path d="M40.71 11.54A20.7 20.7 0 0156 31.8h-1.01M31.18 11.57A20.7 20.7 0 0016 31.8h1.156"/>
  </g>
</svg>
