<svg viewBox="0 0 72 72" xmlns="http://www.w3.org/2000/svg">
  <path fill="#b3b3b3" d="M68 4v64H4V4h64m4-4H0v72h72V0z"/>
  <path fill="none" stroke="#00a5ff" stroke-miterlimit="10" stroke-width="0.1" d="M12.923 10.958h46.154A1.923 1.923 0 0161 12.881v46.154a1.923 1.923 0 01-1.923 1.923H12.923A1.923 1.923 0 0111 59.035V12.881a1.923 1.923 0 011.923-1.923z"/>
  <rect x="16" y="4" rx="2.254" width="40" height="64" fill="none" stroke="#00a5ff" stroke-miterlimit="10" stroke-width="0.1"/>
  <rect x="16" y="4" rx="2.254" width="40" height="64" transform="rotate(90 36 36)" fill="none" stroke="#00a5ff" stroke-miterlimit="10" stroke-width="0.1"/>
  <circle cx="36" cy="36" r="29" fill="none" stroke="#00a5ff" stroke-miterlimit="10" stroke-width="0.1"/>
  <g fill="none" stroke="#fff" stroke-linecap="round" stroke-linejoin="round" stroke-miterlimit="10" stroke-width="6">
    <path d="M31.14 25.309a6.83 6.83 0 00-3.164-.418 6.819 6.819 0 00-1.368-2.88l-.097-.088-.096.088a7.196 7.196 0 00-1.369 2.88 6.83 6.83 0 00-3.162.418l-.113.065.055.118a7.168 7.168 0 002.315 2.186 6.841 6.841 0 00-.6 3.135l.026.128.13-.016a7.243 7.243 0 002.815-1.525 7.11 7.11 0 002.779 1.525l.13.015.027-.127a6.806 6.806 0 00-.566-3.135 7.169 7.169 0 002.315-2.186l.056-.118zm-4.629 20.008a15.002 15.002 0 1119.016-18.069m.333 13.061a6.83 6.83 0 013.164-.418 6.819 6.819 0 011.368-2.88l.096-.088.097.088a7.196 7.196 0 011.369 2.88 6.83 6.83 0 013.162.418l.113.065-.055.118a7.168 7.168 0 01-2.315 2.186 6.841 6.841 0 01.6 3.135l-.026.127-.13-.015a7.243 7.243 0 01-2.814-1.525 7.11 7.11 0 01-2.78 1.525l-.13.015-.027-.127a6.806 6.806 0 01.566-3.135 7.169 7.169 0 01-2.316-2.186l-.055-.118z"/>
    <circle cx="46" cy="46" r="15"/>
  </g>
  <circle cx="31.075" cy="31.075" r="15.932" fill="#1e50a0"/>
  <path fill="#92d3f5" d="M31.14 25.309a6.83 6.83 0 00-3.164-.418 6.819 6.819 0 00-1.368-2.88l-.097-.088-.096.088a7.196 7.196 0 00-1.369 2.88 6.83 6.83 0 00-3.162.418l-.113.065.055.118a7.168 7.168 0 002.315 2.186 6.841 6.841 0 00-.6 3.135l.026.128.13-.016a7.243 7.243 0 002.815-1.525 7.11 7.11 0 002.779 1.525l.13.015.027-.127a6.806 6.806 0 00-.566-3.135 7.169 7.169 0 002.315-2.186l.056-.118z"/>
  <circle cx="46" cy="46" r="15" fill="#1e50a0"/>
  <path fill="#92d3f5" d="M45.86 40.309a6.83 6.83 0 013.164-.418 6.819 6.819 0 011.368-2.88l.096-.088.097.088a7.196 7.196 0 011.369 2.88 6.83 6.83 0 013.162.418l.113.065-.055.118a7.168 7.168 0 01-2.315 2.186 6.841 6.841 0 01.6 3.135l-.026.127-.13-.015a7.243 7.243 0 01-2.814-1.525 7.11 7.11 0 01-2.78 1.525l-.13.015-.027-.127a6.806 6.806 0 01.566-3.135 7.169 7.169 0 01-2.316-2.186l-.055-.118z"/>
  <g fill="none" stroke="#000" stroke-linecap="round" stroke-linejoin="round" stroke-width="2">
    <path d="M31.14 25.309a6.83 6.83 0 00-3.164-.418 6.819 6.819 0 00-1.368-2.88l-.097-.088-.096.088a7.196 7.196 0 00-1.369 2.88 6.83 6.83 0 00-3.162.418l-.113.065.055.118a7.168 7.168 0 002.315 2.186 6.841 6.841 0 00-.6 3.135l.026.128.13-.016a7.243 7.243 0 002.815-1.525 7.11 7.11 0 002.779 1.525l.13.015.027-.127a6.806 6.806 0 00-.566-3.135 7.169 7.169 0 002.315-2.186l.056-.118zm-4.629 20.008a15.002 15.002 0 1119.016-18.069m.333 13.061a6.83 6.83 0 013.164-.418 6.819 6.819 0 011.368-2.88l.096-.088.097.088a7.196 7.196 0 011.369 2.88 6.83 6.83 0 013.162.418l.113.065-.055.118a7.168 7.168 0 01-2.315 2.186 6.841 6.841 0 01.6 3.135l-.026.127-.13-.015a7.243 7.243 0 01-2.814-1.525 7.11 7.11 0 01-2.78 1.525l-.13.015-.027-.127a6.806 6.806 0 01.566-3.135 7.169 7.169 0 01-2.316-2.186l-.055-.118z"/>
    <circle cx="46" cy="46" r="15"/>
  </g>
</svg>
