<svg viewBox="0 0 72 72" xmlns="http://www.w3.org/2000/svg">
  <path fill="#b3b3b3" d="M68 4v64H4V4h64m4-4H0v72h72V0z"/>
  <path fill="none" stroke="#00a5ff" stroke-miterlimit="10" stroke-width="0.1" d="M12.923 10.958h46.154A1.923 1.923 0 0161 12.881v46.154a1.923 1.923 0 01-1.923 1.923H12.923A1.923 1.923 0 0111 59.035V12.881a1.923 1.923 0 011.923-1.923z"/>
  <rect x="16" y="4" rx="2.254" ry="2.254" width="40" height="64" fill="none" stroke="#00a5ff" stroke-miterlimit="10" stroke-width="0.1"/>
  <rect x="16" y="4" rx="2.254" ry="2.254" width="40" height="64" transform="rotate(90 36 36)" fill="none" stroke="#00a5ff" stroke-miterlimit="10" stroke-width="0.1"/>
  <circle cx="36" cy="36" r="29" fill="none" stroke="#00a5ff" stroke-miterlimit="10" stroke-width="0.1"/>
  <g fill="none" stroke="#fff" stroke-linecap="round" stroke-linejoin="round" stroke-miterlimit="10" stroke-width="6">
    <ellipse cx="26.669" cy="60.081" rx="3" ry="3.023"/>
    <ellipse cx="45.331" cy="60.081" rx="3" ry="3.023"/>
    <path d="M26.67 49.964a2.485 2.485 0 01-2.5-2.519V11.977a2.5 2.5 0 115 0v35.468a2.485 2.485 0 01-2.5 2.519zm18.66 0a2.485 2.485 0 01-2.5-2.519V11.977a2.5 2.5 0 115 0v35.468a2.485 2.485 0 01-2.5 2.519z"/>
  </g>
  <g fill="#d22f27">
    <ellipse cx="26.669" cy="59.435" rx="3" ry="3.023"/>
    <path d="M26.57 49.964a2.485 2.485 0 01-2.5-2.519V11.977a2.5 2.5 0 115 0v35.468a2.485 2.485 0 01-2.5 2.519z"/>
    <ellipse cx="45.331" cy="59.435" rx="3" ry="3.023"/>
    <path d="M45.23 49.964a2.485 2.485 0 01-2.5-2.519V11.977a2.5 2.5 0 115 0v35.468a2.485 2.485 0 01-2.5 2.519z"/>
  </g>
  <g fill="none" stroke="#000" stroke-linecap="round" stroke-linejoin="round" stroke-width="2">
    <ellipse cx="26.669" cy="60.081" rx="3" ry="3.023"/>
    <ellipse cx="45.331" cy="60.081" rx="3" ry="3.023"/>
    <path d="M26.67 49.964a2.485 2.485 0 01-2.5-2.519V11.977a2.5 2.5 0 115 0v35.468a2.485 2.485 0 01-2.5 2.519zm18.66 0a2.485 2.485 0 01-2.5-2.519V11.977a2.5 2.5 0 115 0v35.468a2.485 2.485 0 01-2.5 2.519z"/>
  </g>
</svg>
