<svg viewBox="0 0 72 72" xmlns="http://www.w3.org/2000/svg">
  <path fill="#b3b3b3" d="M68 4v64H4V4h64m4-4H0v72h72V0z"/>
  <path fill="none" stroke="#00a5ff" stroke-miterlimit="10" stroke-width="0.1" d="M12.923 10.958h46.154A1.923 1.923 0 0161 12.881v46.154a1.923 1.923 0 01-1.923 1.923H12.923A1.923 1.923 0 0111 59.035V12.881a1.923 1.923 0 011.923-1.923z"/>
  <rect x="16" y="4" rx="2.254" width="40" height="64" fill="none" stroke="#00a5ff" stroke-miterlimit="10" stroke-width="0.1"/>
  <rect x="16" y="4" rx="2.254" width="40" height="64" transform="rotate(90 36 36)" fill="none" stroke="#00a5ff" stroke-miterlimit="10" stroke-width="0.1"/>
  <circle cx="36" cy="36" r="29" fill="none" stroke="#00a5ff" stroke-miterlimit="10" stroke-width="0.1"/>
  <g fill="none" stroke="#fff" stroke-linecap="round" stroke-linejoin="round" stroke-miterlimit="10" stroke-width="6">
    <path d="M25 21V9a1 1 0 011-1h20a1 1 0 011 1v12m-11.156 5.188v10h8.312M47 55v9H25v-9"/>
    <path d="M25 17V8h22v9m6.996 14.37h.699c1.1 0 2 .9 2 2v5.153c0 1.1-.9 2-2 2h-.7M48 51H24c-1.1 0-2-.9-2-2V23c0-1.1.9-2 2-2h24c1.1 0 2 .9 2 2v26c0 1.1-.9 2-2 2z"/>
    <path d="M35.844 26.188v10h8.312"/>
  </g>
  <path fill="#9b9b9a" stroke="#9b9b9a" stroke-miterlimit="10" stroke-width="2" d="M53.996 40.523h.699c1.1 0 2-.9 2-2V33.37c0-1.1-.9-2-2-2H50v9.165l3.996-.01z"/>
  <path fill="#9b9b9a" d="M25 21V9a1 1 0 011-1h20a1 1 0 011 1v12"/>
  <path fill="#9b9b9a" stroke="#9b9b9a" stroke-miterlimit="10" stroke-width="2" d="M47 51v12a1 1 0 01-1 1H26a1 1 0 01-1-1V51"/>
  <path fill="#d0cfce" stroke="#d0cfce" stroke-miterlimit="10" stroke-width="2" d="M48 51H24c-1.1 0-2-.9-2-2V23c0-1.1.9-2 2-2h24c1.1 0 2 .9 2 2v26c0 1.1-.9 2-2 2z"/>
  <g fill="none" stroke="#000" stroke-miterlimit="10" stroke-width="2">
    <path d="M25 21V9a1 1 0 011-1h20a1 1 0 011 1v12"/>
    <path stroke-linecap="round" stroke-linejoin="round" d="M35.844 26.188v10h8.312M47 55v9H25v-9m0-38V8h22v9m6.996 14.37h.699c1.1 0 2 .9 2 2v5.153c0 1.1-.9 2-2 2h-.7"/>
    <path stroke-linecap="round" stroke-linejoin="round" d="M48 51H24c-1.1 0-2-.9-2-2V23c0-1.1.9-2 2-2h24c1.1 0 2 .9 2 2v26c0 1.1-.9 2-2 2z"/>
    <path stroke-linecap="round" stroke-linejoin="round" d="M35.844 26.188v10h8.312"/>
  </g>
</svg>
