<svg viewBox="0 0 72 72" xmlns="http://www.w3.org/2000/svg">
  <path fill="#b3b3b3" d="M68 4v64H4V4h64m4-4H0v72h72V0z"/>
  <path fill="none" stroke="#00a5ff" stroke-miterlimit="10" stroke-width="0.1" d="M12.923 10.958h46.154A1.923 1.923 0 0161 12.881v46.154a1.923 1.923 0 01-1.923 1.923H12.923A1.923 1.923 0 0111 59.035V12.881a1.923 1.923 0 011.923-1.923z"/>
  <rect x="16" y="4" rx="2.254" width="40" height="64" fill="none" stroke="#00a5ff" stroke-miterlimit="10" stroke-width="0.1"/>
  <rect x="16" y="4" rx="2.254" width="40" height="64" transform="rotate(90 36 36)" fill="none" stroke="#00a5ff" stroke-miterlimit="10" stroke-width="0.1"/>
  <circle cx="36" cy="36" r="29" fill="none" stroke="#00a5ff" stroke-miterlimit="10" stroke-width="0.1"/>
  <g fill="none" stroke="#fff" stroke-linecap="round" stroke-linejoin="round" stroke-miterlimit="10" stroke-width="6">
    <circle cx="36.821" cy="36.294" r="23"/>
    <path d="M56.366 17.717l1.976-1.53 3.06 3.954-1.832 1.418M32.321 9.727V7h9v2.893"/>
    <circle cx="36.347" cy="16.982" r="1"/>
    <circle cx="36.347" cy="55.024" r="1"/>
    <ellipse cx="49.797" cy="22.553" rx="0.988" ry="1.012" transform="rotate(-45.001 49.797 22.553)"/>
    <ellipse cx="22.898" cy="49.453" rx="0.988" ry="1.012" transform="rotate(-45.001 22.897 49.453)"/>
    <circle cx="55.369" cy="36.003" r="1"/>
    <circle cx="17.326" cy="36.003" r="1"/>
    <path d="M36.84 35.91h-15.4m15.445.015l-10.89 10.89"/>
    <ellipse cx="49.797" cy="49.453" rx="1.012" ry="0.988" transform="rotate(-45.001 49.797 49.454)"/>
    <ellipse cx="22.898" cy="22.553" rx="1.012" ry="0.988" transform="rotate(-45.001 22.897 22.553)"/>
  </g>
  <path fill="#d0cfce" stroke="#d0cfce" stroke-linecap="round" stroke-linejoin="round" stroke-miterlimit="10" stroke-width="2" d="M53.756 19.737l4.586-3.55 3.06 3.954-4.253 3.291"/>
  <path fill="#d0cfce" d="M31.313 7h11.008v6.294H31.313z"/>
  <circle cx="36.821" cy="36.294" r="23" fill="#FFF"/>
  <circle cx="36.821" cy="36.294" r="23" fill="none" stroke="#000" stroke-linecap="round" stroke-linejoin="round" stroke-miterlimit="10" stroke-width="2"/>
  <path fill="none" stroke="#000" stroke-linecap="round" stroke-linejoin="round" stroke-miterlimit="10" stroke-width="2" d="M56.366 17.717l1.976-1.53 3.06 3.954-1.832 1.418M32.321 9.727V7h9v2.893"/>
  <circle cx="36.347" cy="16.982" r="1"/>
  <circle cx="36.347" cy="55.024" r="1"/>
  <ellipse cx="49.797" cy="22.553" rx="0.988" ry="1.012" transform="rotate(-45.001 49.797 22.553)"/>
  <ellipse cx="22.898" cy="49.453" rx="0.988" ry="1.012" transform="rotate(-45.001 22.897 49.453)"/>
  <circle cx="55.369" cy="36.003" r="1"/>
  <circle cx="17.326" cy="36.003" r="1"/>
  <path stroke="#000" stroke-linecap="round" stroke-linejoin="round" stroke-miterlimit="10" stroke-width="2" d="M36.84 35.91h-15.4m15.445.015l-10.89 10.89"/>
  <ellipse cx="49.797" cy="49.453" rx="1.012" ry="0.988" transform="rotate(-45.001 49.797 49.454)"/>
  <ellipse cx="22.898" cy="22.553" rx="1.012" ry="0.988" transform="rotate(-45.001 22.897 22.553)"/>
</svg>
