<svg viewBox="0 0 72 72" xmlns="http://www.w3.org/2000/svg">
  <path fill="#b3b3b3" d="M68 4v64H4V4h64m4-4H0v72h72V0z"/>
  <path fill="none" stroke="#00a5ff" stroke-miterlimit="10" stroke-width="0.1" d="M12.923 10.958h46.154A1.923 1.923 0 0161 12.881v46.154a1.923 1.923 0 01-1.923 1.923H12.923A1.923 1.923 0 0111 59.035V12.881a1.923 1.923 0 011.923-1.923z"/>
  <rect x="16" y="4" rx="2.254" width="40" height="64" fill="none" stroke="#00a5ff" stroke-miterlimit="10" stroke-width="0.1"/>
  <rect x="16" y="4" rx="2.254" width="40" height="64" transform="rotate(90 36 36)" fill="none" stroke="#00a5ff" stroke-miterlimit="10" stroke-width="0.1"/>
  <circle cx="36" cy="36" r="29" fill="none" stroke="#00a5ff" stroke-miterlimit="10" stroke-width="0.1"/>
  <g fill="none" stroke="#fff" stroke-linecap="round" stroke-linejoin="round" stroke-miterlimit="10" stroke-width="6">
    <circle cx="30" cy="35" r="2"/>
    <circle cx="30" cy="41" r="2"/>
    <circle cx="30" cy="47" r="2"/>
    <circle cx="36" cy="35" r="2"/>
    <circle cx="36" cy="41" r="2"/>
    <circle cx="36" cy="47" r="2"/>
    <circle cx="42" cy="35" r="2"/>
    <circle cx="42" cy="41" r="2"/>
    <circle cx="42" cy="47" r="2"/>
    <path d="M26 24v5s-3.5.5-7 4-4 10-4 10v13h42V43.125S56.5 36.5 53 33s-7-4-7-4v-5h-3l-1 3H29.813L29 24h-3z"/>
    <path d="M61.984 16.452c-8-6-44-6-52 0 0 0-4 4-2 10h13v-5c6-4 24-4 30 0v5h13c2-6-2-10-2-10z"/>
  </g>
  <path fill="#ea5a47" d="M62.298 16.452c-8-6-44-6-52 0 0 0-4 4-2 10h13v-5c6-4 24-4 30 0v5h13c2-6-2-10-2-10z"/>
  <path fill="#d22f27" d="M50.97 21.146l13.877-.088-.441 5.038-12.463-.088zm-43.84 0l13.877-.088-.442 5.038-12.463-.088z"/>
  <path fill="#ea5a47" d="M24.875 29.313L19 33l-3.813 8.313-.25 11L15 56h42l-.313-15.438L53 33l-6.063-4L46 27.625l-20.313.938z"/>
  <path fill="#d22f27" d="M26.75 25L26 29v1h20.125l-.844-5.469-2.093-.281-1.5 2.188-11.626.062-1.25-2.063-2.156.157z"/>
  <path fill="#d22f27" d="M39.344 29.844S52.25 34.25 52 55.75c6.375 2.063 5.5-6.5 5.5-6.5l-2.583-13.417-5.75-6.25-9.823.26z"/>
  <circle cx="30" cy="35" r="2"/>
  <circle cx="30" cy="41" r="2"/>
  <circle cx="30" cy="47" r="2"/>
  <circle cx="36" cy="35" r="2"/>
  <circle cx="36" cy="41" r="2"/>
  <circle cx="36" cy="47" r="2"/>
  <circle cx="42" cy="35" r="2"/>
  <circle cx="42" cy="41" r="2"/>
  <circle cx="42" cy="47" r="2"/>
  <path fill="none" stroke="#000" stroke-linecap="round" stroke-linejoin="round" stroke-miterlimit="10" stroke-width="2" d="M26 24v5s-3.5.5-7 4-4 10-4 10v13h42V43.125S56.5 36.5 53 33s-7-4-7-4v-5h-3l-1 3H29.813L29 24h-3z"/>
  <path fill="none" stroke="#000" stroke-linecap="round" stroke-linejoin="round" stroke-miterlimit="10" stroke-width="2" d="M61.984 16.452c-8-6-44-6-52 0 0 0-4 4-2 10h13v-5c6-4 24-4 30 0v5h13c2-6-2-10-2-10z"/>
</svg>
