<svg viewBox="0 0 72 72" xmlns="http://www.w3.org/2000/svg">
  <path fill="#b3b3b3" d="M68 4v64H4V4h64m4-4H0v72h72V0z"/>
  <path fill="none" stroke="#00a5ff" stroke-miterlimit="10" stroke-width="0.1" d="M12.923 10.958h46.154A1.923 1.923 0 0161 12.881v46.154a1.923 1.923 0 01-1.923 1.923H12.923A1.923 1.923 0 0111 59.035V12.881a1.923 1.923 0 011.923-1.923z"/>
  <rect x="16" y="4" rx="2.254" width="40" height="64" fill="none" stroke="#00a5ff" stroke-miterlimit="10" stroke-width="0.1"/>
  <rect x="16" y="4" rx="2.254" width="40" height="64" transform="rotate(90 36 36)" fill="none" stroke="#00a5ff" stroke-miterlimit="10" stroke-width="0.1"/>
  <circle cx="36" cy="36" r="29" fill="none" stroke="#00a5ff" stroke-miterlimit="10" stroke-width="0.1"/>
  <g fill="none" stroke="#fff" stroke-linecap="round" stroke-linejoin="round" stroke-miterlimit="10" stroke-width="6">
    <path d="M51.23 14.778c-15.23 18-18 30.462-18 30.462s-2.768-6.924-5.538-9.693"/>
    <path d="M45 29.077v21.241a.46.46 0 01-.46.46H22.46a.46.46 0 01-.46-.46v-22.08a.46.46 0 01.46-.46h14.391"/>
  </g>
  <path fill="#D0CFCE" stroke="#D0CFCE" stroke-linecap="round" stroke-linejoin="round" stroke-miterlimit="10" stroke-width="2" d="M45 29.077v21.241a.46.46 0 01-.46.46H22.46a.46.46 0 01-.46-.46v-22.08a.46.46 0 01.46-.46H45v1.3z"/>
  <g fill="none" stroke="#000" stroke-linecap="round" stroke-linejoin="round" stroke-miterlimit="10" stroke-width="2">
    <path d="M51.23 14.778c-15.23 18-18 30.462-18 30.462s-2.768-6.924-5.538-9.693"/>
    <path d="M45 29.077v21.241a.46.46 0 01-.46.46H22.46a.46.46 0 01-.46-.46v-22.08a.46.46 0 01.46-.46h14.391"/>
  </g>
</svg>
