<svg viewBox="0 0 72 72" xmlns="http://www.w3.org/2000/svg">
  <path fill="#B3B3B3" d="M68 4v64H4V4h64m4-4H0v72h72V0z"/>
  <path fill="none" stroke="#00A5FF" stroke-miterlimit="10" stroke-width="0.1" d="M12.923 10.958h46.154c1.062 0 1.923.861 1.923 1.923h0v46.154a1.923 1.923 0 01-1.923 1.923H12.923A1.923 1.923 0 0111 59.035h0V12.881c0-1.062.861-1.923 1.923-1.923h0z"/>
  <path fill="none" stroke="#00A5FF" stroke-miterlimit="10" stroke-width="0.1" d="M18.254 4h35.492A2.254 2.254 0 0156 6.254v59.492A2.254 2.254 0 0153.746 68H18.254A2.254 2.254 0 0116 65.746V6.254A2.254 2.254 0 0118.254 4z"/>
  <path fill="none" stroke="#00A5FF" stroke-miterlimit="10" stroke-width="0.1" d="M68 18.254v35.492A2.254 2.254 0 0165.746 56H6.254A2.254 2.254 0 014 53.746V18.254A2.254 2.254 0 016.254 16h59.492A2.254 2.254 0 0168 18.254z"/>
  <circle cx="36" cy="36" r="29" fill="none" stroke="#00A5FF" stroke-miterlimit="10" stroke-width="0.1"/>
  <g fill="none" stroke="#fff" stroke-linecap="round" stroke-linejoin="round" stroke-miterlimit="10" stroke-width="6">
    <path d="M41.63 48.02c-1.123 1.267-3.049 2.078-5.78 2.078-2.712 0-4.64-.802-5.776-2.054m-8.965-20.843a6.306 6.306 0 013.39-3 6.304 6.304 0 014.53-.42m21.69 3.42a7.19 7.19 0 00-7.91-3.43M23.484 34.245s3.932-2.17 8 0m9.25 0s3.932-2.17 8 0"/>
    <circle cx="36" cy="36" r="23"/>
  </g>
  <circle cx="36" cy="36" r="23" fill="#FCEA2B"/>
  <g fill="none" stroke="#000" stroke-linecap="round" stroke-linejoin="round" stroke-miterlimit="10" stroke-width="2">
    <path d="M41.63 48.02c-1.123 1.267-3.049 2.078-5.78 2.078-2.712 0-4.64-.802-5.776-2.054m-8.965-20.843a6.306 6.306 0 013.39-3 6.304 6.304 0 014.53-.42m21.69 3.42a7.19 7.19 0 00-7.91-3.43M23.484 34.245s3.932-2.17 8 0m9.25 0s3.932-2.17 8 0"/>
    <circle cx="36" cy="36" r="23"/>
  </g>
</svg>
