<svg viewBox="0 0 72 72" xmlns="http://www.w3.org/2000/svg">
  <path fill="#b3b3b3" d="M68 4v64H4V4h64m4-4H0v72h72V0z"/>
  <path fill="none" stroke="#00a5ff" stroke-miterlimit="10" stroke-width="0.1" d="M12.92 10.96h46.15a1.923 1.923 0 011.923 1.923v46.15a1.922 1.922 0 01-1.922 1.922h-46.16a1.923 1.923 0 01-1.923-1.923v-46.15a1.923 1.923 0 011.923-1.923z"/>
  <rect x="16" y="4" rx="2.254" ry="2.254" width="40" height="64" fill="none" stroke="#00a5ff" stroke-miterlimit="10" stroke-width="0.1"/>
  <rect x="16" y="4" rx="2.254" ry="2.254" width="40" height="64" transform="rotate(90 36 36)" fill="none" stroke="#00a5ff" stroke-miterlimit="10" stroke-width="0.1"/>
  <circle cx="36" cy="36" r="29" fill="none" stroke="#00a5ff" stroke-miterlimit="10" stroke-width="0.1"/>
  <g fill="none" stroke="#fff" stroke-linecap="round" stroke-linejoin="round" stroke-miterlimit="10" stroke-width="6">
    <circle cx="36.01" cy="39.47" r="8.651"/>
    <path d="M51.42 24.1a5.424 5.424 0 00-5.854 2.113c-2.709 5.178-9.561 4.558-9.561 4.558s-6.852.59-9.561-4.588a5.424 5.424 0 00-5.855-2.112"/>
    <path d="M12 12h48v48H12z"/>
  </g>
  <path fill="#b399c8" d="M12 12h48v47.83H12z"/>
  <g fill="none" stroke="#000">
    <circle cx="36.01" cy="39.47" r="8.651" stroke-miterlimit="10" stroke-width="3"/>
    <path stroke-linecap="round" stroke-linejoin="round" stroke-width="3" d="M51.42 24.1a5.424 5.424 0 00-5.854 2.113c-2.709 5.178-9.561 4.558-9.561 4.558s-6.852.59-9.561-4.588a5.424 5.424 0 00-5.855-2.112"/>
    <path stroke-linecap="round" stroke-linejoin="round" stroke-width="2" d="M12 12h48v48H12z"/>
  </g>
</svg>
