<svg viewBox="0 0 72 72" xmlns="http://www.w3.org/2000/svg">
  <path fill="#b3b3b3" d="M68 4v64H4V4h64m4-4H0v72h72V0z"/>
  <path fill="none" stroke="#00a5ff" stroke-miterlimit="10" stroke-width="0.1" d="M12.92 10.96h46.15a1.923 1.923 0 011.923 1.923v46.15a1.923 1.923 0 01-1.923 1.923H12.92a1.923 1.923 0 01-1.923-1.923v-46.15a1.923 1.923 0 011.923-1.923z"/>
  <rect x="16" y="4" rx="2.254" ry="2.254" width="40" height="64" fill="none" stroke="#00a5ff" stroke-miterlimit="10" stroke-width="0.1"/>
  <rect x="16" y="4" rx="2.254" ry="2.254" width="40" height="64" transform="rotate(90 36 36)" fill="none" stroke="#00a5ff" stroke-miterlimit="10" stroke-width="0.1"/>
  <circle cx="36" cy="36" r="29" fill="none" stroke="#00a5ff" stroke-miterlimit="10" stroke-width="0.1"/>
  <g fill="none" stroke="#fff" stroke-linecap="round" stroke-linejoin="round" stroke-miterlimit="10" stroke-width="6">
    <path d="M12 12h48v48H12z"/>
    <path d="M39.5 44.55a5.591 5.591 0 115.59 5.591 5.592 5.592 0 01-5.59-5.591zm0-2c-1.351 4.101-1.244 3.865-3.324 8.743M28.06 44.89V30.86c-.145-1.558-.626-3.32-2.212-5.754"/>
    <path d="M28.06 30.86c.234-2.264 1.17-6.54 5.72-6.544 4.55-.004 5.505 3.958 5.719 6.544v13.68"/>
  </g>
  <path fill="#b399c8" d="M12 12h48v48H12z"/>
  <g fill="none" stroke="#000">
    <path stroke-linecap="round" stroke-linejoin="round" stroke-width="2" d="M12 12h48v48H12z"/>
    <path stroke-miterlimit="10" stroke-width="3" d="M39.5 44.55a5.591 5.591 0 115.59 5.591 5.592 5.592 0 01-5.59-5.591z"/>
    <path stroke-linecap="round" stroke-linejoin="round" stroke-width="3" d="M39.5 42.55c-1.351 4.101-1.244 3.865-3.324 8.743M28.06 44.89V30.86c-.145-1.558-.626-3.32-2.212-5.754"/>
    <path stroke-linecap="round" stroke-linejoin="round" stroke-width="3" d="M28.06 30.86c.234-2.264 1.17-6.54 5.72-6.544 4.55-.004 5.505 3.958 5.719 6.544v13.68"/>
  </g>
</svg>
