<svg viewBox="0 0 72 72" xmlns="http://www.w3.org/2000/svg">
  <path fill="#b3b3b3" d="M68 4v64H4V4h64m4-4H0v72h72V0z"/>
  <path fill="none" stroke="#00a5ff" stroke-miterlimit="10" stroke-width="0.1" d="M12.923 10.958h46.154A1.923 1.923 0 0161 12.881v46.154a1.923 1.923 0 01-1.923 1.923H12.923A1.923 1.923 0 0111 59.035V12.881a1.923 1.923 0 011.923-1.923z"/>
  <rect x="16" y="4" rx="2.254" width="40" height="64" fill="none" stroke="#00a5ff" stroke-miterlimit="10" stroke-width="0.1"/>
  <rect x="16" y="4" rx="2.254" width="40" height="64" transform="rotate(90 36 36)" fill="none" stroke="#00a5ff" stroke-miterlimit="10" stroke-width="0.1"/>
  <circle cx="36" cy="36" r="29" fill="none" stroke="#00a5ff" stroke-miterlimit="10" stroke-width="0.1"/>
  <g fill="none" stroke="#fff" stroke-linecap="round" stroke-linejoin="round" stroke-miterlimit="10" stroke-width="6">
    <path d="M40.342 46.542h0a1.997 1.997 0 001.883 3.522m9.392-5.023a1.997 1.997 0 00-1.883-3.522h0m1.883 3.522a22.173 22.173 0 00-9.392 5.023m-1.883-3.522a22.172 22.172 0 009.392-5.023"/>
    <path d="M53.674 55.944a1.997 1.997 0 11-3.522 1.884 88.168 88.168 0 01-3.85-10.02l1.175-.628a88.164 88.164 0 016.197 8.764zM28.266 13.117a25.775 25.775 0 016.462 7.565l12.191 22.09A22.404 22.404 0 0142.4 45.19L30.795 22.786a25.773 25.773 0 01-2.705-9.575M29.775 50.064a1.997 1.997 0 001.883-3.522h0m-9.392-5.022h0a1.997 1.997 0 10-1.883 3.521m9.392 5.023a22.173 22.173 0 00-9.392-5.023m1.883-3.521a22.172 22.172 0 009.392 5.022M37.705 19.955a30.83 30.83 0 016.03-6.838m-9.392 22.917L29.6 45.19a22.404 22.404 0 01-4.52-2.417l6.36-11.524M43.91 13.21a25.773 25.773 0 01-2.705 9.576l-.913 1.757"/>
    <path d="M18.326 55.944a1.997 1.997 0 103.522 1.884 88.168 88.168 0 003.85-10.02l-1.175-.628a88.164 88.164 0 00-6.197 8.764z"/>
  </g>
  <path fill="#9b9b9a" d="M29.869 49.888s3.877-.191 1.57-2.935a27.351 27.351 0 01-9.979-5.337s-3.604 1.092-.983 3.249a44.52 44.52 0 019.392 5.023z"/>
  <path fill="#d0cfce" d="M43.91 13.21a25.773 25.773 0 01-2.705 9.576l-11.29 21.817a22.406 22.406 0 01-4.52-2.417l11.877-21.504a25.775 25.775 0 016.462-7.565"/>
  <path fill="#9b9b9a" d="M18.326 55.944a1.997 1.997 0 103.522 1.884 88.168 88.168 0 003.85-10.02l-1.175-.628a88.164 88.164 0 00-6.197 8.764zm33.197-11.079c2.621-2.157-.983-3.249-.983-3.249a27.351 27.351 0 01-9.979 5.337c-2.307 2.744 1.57 2.935 1.57 2.935a44.52 44.52 0 019.392-5.023z"/>
  <path fill="#d0cfce" d="M29.266 14.117a25.775 25.775 0 016.462 7.565l11.877 21.504a22.406 22.406 0 01-4.52 2.417l-11.29-21.817a25.773 25.773 0 01-2.705-9.575"/>
  <path fill="#9b9b9a" d="M53.674 55.944a1.997 1.997 0 11-3.522 1.884 88.168 88.168 0 01-3.85-10.02l1.175-.628a88.164 88.164 0 016.197 8.764z"/>
  <g>
    <g fill="none" stroke="#000" stroke-linecap="round" stroke-linejoin="round" stroke-width="2">
      <path d="M40.342 46.542h0a1.997 1.997 0 001.883 3.522m9.392-5.023a1.997 1.997 0 00-1.883-3.522h0m1.883 3.522a22.173 22.173 0 00-9.392 5.023m-1.883-3.522a22.172 22.172 0 009.392-5.023"/>
      <path d="M53.674 55.944a1.997 1.997 0 11-3.522 1.884 88.168 88.168 0 01-3.85-10.02l1.175-.628a88.164 88.164 0 016.197 8.764zM28.266 13.117a25.775 25.775 0 016.462 7.565l12.191 22.09A22.404 22.404 0 0142.4 45.19L30.795 22.786a25.773 25.773 0 01-2.705-9.575M29.775 50.064a1.997 1.997 0 001.883-3.522h0m-9.392-5.022h0a1.997 1.997 0 10-1.883 3.521m9.392 5.023a22.173 22.173 0 00-9.392-5.023m1.883-3.521a22.172 22.172 0 009.392 5.022M37.705 19.955a30.83 30.83 0 016.03-6.838m-9.392 22.917L29.6 45.19a22.404 22.404 0 01-4.52-2.417l6.36-11.524M43.91 13.21a25.773 25.773 0 01-2.705 9.576l-.913 1.757"/>
      <path d="M18.326 55.944a1.997 1.997 0 103.522 1.884 88.168 88.168 0 003.85-10.02l-1.175-.628a88.164 88.164 0 00-6.197 8.764z"/>
    </g>
  </g>
</svg>
