<svg viewBox="0 0 72 72" xmlns="http://www.w3.org/2000/svg">
  <path fill="#b3b3b3" d="M68 4v64H4V4h64m4-4H0v72h72V0z"/>
  <path fill="none" stroke="#00a5ff" stroke-miterlimit="10" stroke-width="0.1" d="M12.923 10.958h46.154A1.923 1.923 0 0161 12.881v46.154a1.923 1.923 0 01-1.923 1.923H12.923A1.923 1.923 0 0111 59.035V12.881a1.923 1.923 0 011.923-1.923z"/>
  <rect x="16" y="4" rx="2.254" width="40" height="64" fill="none" stroke="#00a5ff" stroke-miterlimit="10" stroke-width="0.1"/>
  <rect x="16" y="4" rx="2.254" width="40" height="64" transform="rotate(90 36 36)" fill="none" stroke="#00a5ff" stroke-miterlimit="10" stroke-width="0.1"/>
  <circle cx="36" cy="36" r="29" fill="none" stroke="#00a5ff" stroke-miterlimit="10" stroke-width="0.1"/>
  <g fill="none" stroke="#fff" stroke-linecap="round" stroke-linejoin="round" stroke-miterlimit="10" stroke-width="6">
    <path d="M32.522 13.005c.698-1.205 1.986-2.024 3.478-2.024 1.492 0 2.78.82 3.478 2.024L60.446 54.94A4 4 0 0161 56.948a4.032 4.032 0 01-4.032 4.033l-41.936.017A4.033 4.033 0 0111 56.966c0-.736.211-1.415.554-2.009l20.968-41.952"/>
    <path d="M37.613 47.27a1.613 1.613 0 01-3.226 0V23.893a1.613 1.613 0 013.226 0v23.379z"/>
    <circle cx="36" cy="54.529" r="1.613"/>
  </g>
  <path fill="#fcea2b" d="M32.522 13.005c.698-1.205 1.986-2.024 3.478-2.024 1.492 0 2.78.82 3.478 2.024L60.446 54.94A4 4 0 0161 56.948a4.032 4.032 0 01-4.032 4.033l-41.936.017A4.033 4.033 0 0111 56.966c0-.736.211-1.415.554-2.009l20.968-41.952"/>
  <path fill="#FFF" d="M37.613 47.27a1.613 1.613 0 01-3.226 0V23.893a1.613 1.613 0 013.226 0v23.379z"/>
  <circle cx="36" cy="54.529" r="1.613" fill="#FFF"/>
  <g fill="none" stroke="#000" stroke-linecap="round" stroke-linejoin="round" stroke-miterlimit="10" stroke-width="2">
    <path d="M32.522 13.005c.698-1.205 1.986-2.024 3.478-2.024 1.492 0 2.78.82 3.478 2.024L60.446 54.94A4 4 0 0161 56.948a4.032 4.032 0 01-4.032 4.033l-41.936.017A4.033 4.033 0 0111 56.966c0-.736.211-1.415.554-2.009l20.968-41.952"/>
    <path d="M37.613 47.27a1.613 1.613 0 01-3.226 0V23.893a1.613 1.613 0 013.226 0v23.379z"/>
    <circle cx="36" cy="54.529" r="1.613"/>
  </g>
</svg>
