<svg viewBox="0 0 72 72" xmlns="http://www.w3.org/2000/svg">
  <path fill="#b3b3b3" d="M68 4v64H4V4h64m4-4H0v72h72V0z"/>
  <path fill="none" stroke="#00a5ff" stroke-miterlimit="10" stroke-width="0.1" d="M12.923 10.958h46.154A1.923 1.923 0 0161 12.881v46.154a1.923 1.923 0 01-1.923 1.923H12.923A1.923 1.923 0 0111 59.035V12.881a1.923 1.923 0 011.923-1.923z"/>
  <rect x="16" y="4" rx="2.254" width="40" height="64" fill="none" stroke="#00a5ff" stroke-miterlimit="10" stroke-width="0.1"/>
  <rect x="16" y="4" rx="2.254" width="40" height="64" transform="rotate(90 36 36)" fill="none" stroke="#00a5ff" stroke-miterlimit="10" stroke-width="0.1"/>
  <circle cx="36" cy="36" r="29" fill="none" stroke="#00a5ff" stroke-miterlimit="10" stroke-width="0.1"/>
  <path fill="none" stroke="#fff" stroke-linecap="round" stroke-linejoin="round" stroke-miterlimit="10" stroke-width="6" d="M44.797 15.175l3.362-2.94a2.12 2.12 0 00-.545-3.533 27.541 27.541 0 00-11.338-2.339 27.541 27.541 0 00-11.337 2.34 2.12 2.12 0 00-.545 3.531l3.66 3.201c-4.847 3.043-9.185 8.356-9.185 14.416 0 10.739 8.561 35.786 8.561 35.786h17.14s8.561-25.047 8.561-35.786a17.096 17.096 0 00-8.334-14.676z"/>
  <path fill="#f4aa41" stroke="#000" stroke-linecap="round" stroke-linejoin="round" stroke-width="2" d="M44.797 15.175l3.362-2.94a2.12 2.12 0 00-.545-3.533 27.541 27.541 0 00-11.338-2.339 27.541 27.541 0 00-11.337 2.34 2.12 2.12 0 00-.545 3.531l3.66 3.201c-4.847 3.043-9.185 8.356-9.185 14.416 0 10.739 8.561 35.786 8.561 35.786h17.14s8.561-25.047 8.561-35.786a17.096 17.096 0 00-8.334-14.676z"/>
  <path fill="none" stroke="#e27022" stroke-linecap="square" stroke-linejoin="round" stroke-width="2" d="M28.053 15.435a30.948 30.948 0 0116.744-.26"/>
  <path fill="none" stroke="#e27022" stroke-linejoin="round" stroke-width="4" d="M25.352 59.201h21.296"/>
  <path fill="none" stroke="#e27022" stroke-linecap="round" stroke-linejoin="round" stroke-width="2" d="M19.645 29.522h32.71m-32.71 4.566h32.176"/>
  <path fill="#e27022" d="M44.797 15.175h-1.142c0 1.093 2.627 8.437 2.627 14.676 0 10.739-8.561 35.786-8.561 35.786h6.849s8.561-25.047 8.561-35.786a17.096 17.096 0 00-8.334-14.676z"/>
  <path fill="#e27022" d="M44.797 8.116c2.455 3.004.466 2.303-1.142 7.06 3.517 2.504 5.206-4.784 5.206-4.784s-1.875-2.846-4.064-2.276z"/>
  <g>
    <path fill="none" stroke="#000" stroke-linecap="round" stroke-linejoin="round" stroke-width="2" d="M44.797 15.175l3.362-2.94a2.12 2.12 0 00-.545-3.533 27.541 27.541 0 00-11.338-2.339 27.541 27.541 0 00-11.337 2.34 2.12 2.12 0 00-.545 3.531l3.66 3.201c-4.847 3.043-9.185 8.356-9.185 14.416 0 10.739 8.561 35.786 8.561 35.786h17.14s8.561-25.047 8.561-35.786a17.096 17.096 0 00-8.334-14.676z"/>
  </g>
</svg>
