<svg viewBox="0 0 72 72" xmlns="http://www.w3.org/2000/svg">
  <path fill="#b3b3b3" d="M68 4v64H4V4h64m4-4H0v72h72V0z"/>
  <path fill="none" stroke="#00a5ff" stroke-miterlimit="10" stroke-width="0.1" d="M12.923 10.958h46.154A1.923 1.923 0 0161 12.881v46.154a1.923 1.923 0 01-1.923 1.923H12.923A1.923 1.923 0 0111 59.035V12.881a1.923 1.923 0 011.923-1.923z"/>
  <rect x="16" y="4" rx="2.254" width="40" height="64" fill="none" stroke="#00a5ff" stroke-miterlimit="10" stroke-width="0.1"/>
  <rect x="16" y="4" rx="2.254" width="40" height="64" transform="rotate(90 36 36)" fill="none" stroke="#00a5ff" stroke-miterlimit="10" stroke-width="0.1"/>
  <circle cx="36" cy="36" r="29" fill="none" stroke="#00a5ff" stroke-miterlimit="10" stroke-width="0.1"/>
  <g fill="none" stroke="#fff" stroke-linecap="round" stroke-linejoin="round" stroke-miterlimit="10" stroke-width="6">
    <circle cx="36" cy="35.958" r="29"/>
    <path d="M56.494 56.518c-5.28-5.252-8.548-12.524-8.548-20.56 0-8.008 3.246-15.258 8.494-20.506m-40.907 0c5.248 5.248 8.494 12.498 8.494 20.506a28.852 28.852 0 01-8.517 20.528"/>
    <path d="M45.946 35.458l2 1 2-1m-23.919 1l-2-1-2 1m3.176 6.874l-1.779-1.356-2.151.61m1.728 6.869l-1.478-1.678-2.23.176m.305 6.694l-.773-2.099-2.143-.64m3.588-34.112l-2.15.615-.798 2.089m6.166 3.043l-2.199.109-1.286 1.854m5.472 4.249l-2.205-.374-1.622 1.539m25.122-2.336l1.78 1.356 2.15-.61m-1.728-6.869l1.478 1.678 2.23-.176m-.18-6.845l.772 2.098 2.143.64m-3.87 34.056l2.15-.615.797-2.09m-6.01-2.778l2.234-.11 1.251-1.854m-5.468-4.304l2.204.374 1.622-1.539"/>
  </g>
  <circle cx="36" cy="35.958" r="29" fill="#FFF"/>
  <path fill="none" stroke="#3f3f3f" stroke-miterlimit="10" stroke-width="3" opacity="0.2" d="M56.494 57.518c-5.28-5.252-8.548-12.524-8.548-20.56 0-8.008 3.246-15.258 8.494-20.506m-40.907 0c5.248 5.248 8.494 12.498 8.494 20.506 0 8.029-3.263 15.296-8.534 20.547"/>
  <path fill="#D0CFCE" d="M50.738 10.998c4.825 5.18 7.782 12.123 7.782 19.76 0 16.016-12.984 29-29 29a28.857 28.857 0 01-14.664-3.984C20.145 61.42 27.653 64.958 36 64.958c16.016 0 29-12.984 29-29 0-10.631-5.73-19.911-14.262-24.96z"/>
  <g fill="none" stroke="#000" stroke-linecap="round" stroke-linejoin="round" stroke-miterlimit="10" stroke-width="2">
    <circle cx="36" cy="35.958" r="29"/>
    <path d="M56.494 56.518c-5.28-5.252-8.548-12.524-8.548-20.56 0-8.008 3.246-15.258 8.494-20.506m-40.907 0c5.248 5.248 8.494 12.498 8.494 20.506a28.852 28.852 0 01-8.517 20.528"/>
    <path d="M45.946 35.458l2 1 2-1m-23.919 1l-2-1-2 1m3.176 6.874l-1.779-1.356-2.151.61m1.728 6.869l-1.478-1.678-2.23.176m.305 6.694l-.773-2.099-2.143-.64m3.588-34.112l-2.15.615-.798 2.089m6.166 3.043l-2.199.109-1.286 1.854m5.472 4.249l-2.205-.374-1.622 1.539m25.122-2.336l1.78 1.356 2.15-.61m-1.728-6.869l1.478 1.678 2.23-.176m-.18-6.845l.772 2.098 2.143.64m-3.87 34.056l2.15-.615.797-2.09m-6.01-2.778l2.234-.11 1.251-1.854m-5.468-4.304l2.204.374 1.622-1.539"/>
  </g>
</svg>
