<svg viewBox="0 0 72 72" xmlns="http://www.w3.org/2000/svg">
  <path fill="#B3B3B3" d="M68 4v64H4V4h64m4-4H0v72h72V0z"/>
  <path fill="none" stroke="#00A5FF" stroke-miterlimit="10" stroke-width="0.1" d="M12.923 10.958h46.154c1.062 0 1.923.861 1.923 1.923v46.154a1.923 1.923 0 01-1.923 1.923H12.923A1.923 1.923 0 0111 59.035h0V12.881c0-1.062.861-1.923 1.923-1.923h0z"/>
  <path fill="none" stroke="#00A5FF" stroke-miterlimit="10" stroke-width="0.1" d="M18.254 4h35.492A2.254 2.254 0 0156 6.254v59.492A2.254 2.254 0 0153.746 68H18.254A2.254 2.254 0 0116 65.746V6.254A2.254 2.254 0 0118.254 4z"/>
  <path fill="none" stroke="#00A5FF" stroke-miterlimit="10" stroke-width="0.1" d="M68 18.254v35.492A2.254 2.254 0 0165.746 56H6.254A2.254 2.254 0 014 53.746V18.254A2.254 2.254 0 016.254 16h59.492A2.254 2.254 0 0168 18.254z"/>
  <circle cx="36" cy="36" r="29" fill="none" stroke="#00A5FF" stroke-miterlimit="10" stroke-width="0.1"/>
  <path fill="none" stroke="#fff" stroke-linecap="round" stroke-linejoin="round" stroke-miterlimit="10" stroke-width="6" d="M16 33h6v4h-6zm10 0h20v4H26zm24 0h6v4h-6zm-28-6h4v28h-4zm24 0h4v28h-4zM20.5 55h7v5h-7zm24 0h7v5h-7zM34 27h4v6h-4zm25.5-6l-4 3-2 3h-35l-2-3-4-3s11.25 2 15 2H46c3.38 0 13.5-2 13.5-2z"/>
  <path fill="#D22F27" d="M16 33h40v4H16z"/>
  <path fill="#EA5A47" d="M22 27h4v28h-4zm24 0h4v28h-4z"/>
  <path fill="#3F3F3F" d="M20.5 55h7v5h-7zm24 0h7v5h-7zM34 27h4v6h-4z"/>
  <path fill="#EA5A47" d="M12.5 21s11.25 2 15 2H46c3.375 0 13.5-2 13.5-2l-4 3-2 3h-35l-2-3-4-3z"/>
  <path fill="none" stroke="#000" stroke-linecap="round" stroke-linejoin="round" stroke-miterlimit="10" stroke-width="2" d="M16 33h6v4h-6zm10 0h20v4H26zm24 0h6v4h-6zm-28-6h4v28h-4zm24 0h4v28h-4zM20.5 55h7v5h-7zm24 0h7v5h-7zM34 27h4v6h-4zm25.5-6l-4 3-2 3h-35l-2-3-4-3s11.25 2 15 2H46c3.38 0 13.5-2 13.5-2z"/>
</svg>
