<svg viewBox="0 0 72 72" xmlns="http://www.w3.org/2000/svg">
  <path fill="#b2b2b2" d="M68 4v64H4V4h64m4-4H0v72h72V0z"/>
  <path fill="none" stroke="#00a4ff" stroke-miterlimit="10" stroke-width="0.1" d="M12.923 10.958h46.154A1.923 1.923 0 0161 12.881v46.154a1.923 1.923 0 01-1.923 1.923H12.923A1.923 1.923 0 0111 59.035V12.881a1.923 1.923 0 011.923-1.923z"/>
  <rect x="16" y="4" rx="2.254" width="40" height="64" fill="none" stroke="#00a4ff" stroke-miterlimit="10" stroke-width="0.1"/>
  <rect x="16" y="4" rx="2.254" width="40" height="64" transform="rotate(90 36 36)" fill="none" stroke="#00a4ff" stroke-miterlimit="10" stroke-width="0.1"/>
  <circle cx="36" cy="36" r="29" fill="none" stroke="#00a4ff" stroke-miterlimit="10" stroke-width="0.1"/>
  <g fill="none" stroke="#fff" stroke-linecap="round" stroke-linejoin="round" stroke-miterlimit="10" stroke-width="6">
    <path d="M64.8 18v6.6h-3.7V18zm-8 .9v5.7h-3.7v-5.7zM47 36.241h18.4M32 44.4s10.4 6.8 12.7 22.2a1.077 1.077 0 001 .8H67m0-26.8H33l-1 3.3h35"/>
    <path d="M65.603 40.6l-18.482-.092a1.47 1.47 0 01-.965-.273l-7.136-7.33 28 .14M46 28.662h18.4"/>
    <path d="M67 33H42v-8h25"/>
  </g>
  <path fill="#92d3f5" d="M39.525 59.514a16.312 16.312 0 003.723-.248 1.549 1.549 0 001.5-1.5 1.53 1.53 0 00-1.5-1.5 7.383 7.383 0 00-4.111.932c-1.694.928-.182 3.52 1.514 2.59a4.509 4.509 0 012.596-.522v-3a16.312 16.312 0 01-3.722.248 1.51 1.51 0 00-1.5 1.5 1.534 1.534 0 001.5 1.5z"/>
  <path fill="#92d3f5" stroke="#92d3f5" stroke-linecap="round" stroke-linejoin="round" stroke-width="2" d="M66.016 55.003s-8.541 2.02-11.44 1.997c-2.665-.02-7.823-1.918-10.487-1.997S36.264 56.9 33.6 57c-2.71.102-7.969-1.908-10.68-1.997-2.616-.087-7.677 1.985-10.294 1.997C10.662 57.009 5 55.003 5 55.003V68l62-.5V55z"/>
  <path fill="#3f3f3f" stroke="#3f3f3f" stroke-miterlimit="10" d="M67.5 43.5v24l-22.187-.186S41.555 47.521 33.5 44.5c-8-3 20 2 34-1z"/>
  <path fill="none" stroke="#d22f27" stroke-miterlimit="10" stroke-width="3" d="M33 42h35"/>
  <path fill="#3f3f3f" stroke="#3f3f3f" stroke-miterlimit="10" stroke-width="2" d="M53.5 19.5h3v5h-3z"/>
  <path fill="#3f3f3f" stroke="#3f3f3f" stroke-miterlimit="10" d="M62 19h3v5h-3z"/>
  <g fill="none" stroke="#000" stroke-linecap="round" stroke-linejoin="round">
    <path stroke-width="2.152" d="M64.8 18v6.6h-3.7V18z"/>
    <path stroke-width="2" d="M56.8 18.9v5.7h-3.7v-5.7z"/>
    <path stroke-width="2.904" d="M47 36.241h18.4"/>
    <path stroke-width="2" d="M32 44.4s10.4 6.8 12.7 22.2a1.077 1.077 0 001 .8H67m0-26.8H33l-1 3.3h35m-1.397-3.3l-18.482-.092a1.47 1.47 0 01-.965-.273l-7.136-7.33 28 .14"/>
    <path stroke-width="3" d="M46 28.662h18.4"/>
    <path stroke-width="2" d="M67 33H42v-8h25"/>
  </g>
</svg>
