<svg viewBox="0 0 72 72" xmlns="http://www.w3.org/2000/svg">
  <path fill="#b3b3b3" d="M68 4v64H4V4h64m4-4H0v72h72V0z"/>
  <path fill="none" stroke="#00a5ff" stroke-miterlimit="10" stroke-width="0.1" d="M12.923 10.958h46.154A1.923 1.923 0 0161 12.881v46.154a1.923 1.923 0 01-1.923 1.923H12.923A1.923 1.923 0 0111 59.035V12.881a1.923 1.923 0 011.923-1.923z"/>
  <rect x="16" y="4" rx="2.254" width="40" height="64" fill="none" stroke="#00a5ff" stroke-miterlimit="10" stroke-width="0.1"/>
  <rect x="16" y="4" rx="2.254" width="40" height="64" transform="rotate(90 36 36)" fill="none" stroke="#00a5ff" stroke-miterlimit="10" stroke-width="0.1"/>
  <circle cx="36" cy="36" r="29" fill="none" stroke="#00a5ff" stroke-miterlimit="10" stroke-width="0.1"/>
  <g fill="none" stroke="#fff" stroke-linecap="round" stroke-linejoin="round" stroke-miterlimit="10" stroke-width="6">
    <path d="M53 22.642v30.476a.66.66 0 01-.66.66H20.66a.66.66 0 01-.66-.66v-31.68a.66.66 0 01.66-.66h20.649"/>
    <path d="M30.66 30.538c-1.85-2.61-6.18-.11-4.32 2.52 3.19 4.51 5.87 9.25 7.91 14.38.84 2.09 4.23 2.65 4.83 0 2.83-12.6 8.21-27.17 20.68-33 2.91-1.36.38-5.67-2.52-4.32-11.43 5.35-17.68 17.36-21.23 29.25a70.837 70.837 0 00-5.35-8.83z"/>
  </g>
  <path fill="#B1CC33" d="M53.189 52.843h-32.61a.67.67 0 01-.679-.66v-31.68a.67.67 0 01.68-.66h32.609a.67.67 0 01.68.66v31.68a.67.67 0 01-.68.66z"/>
  <path fill="#FFF" d="M30.66 30.538c-1.85-2.61-6.18-.11-4.32 2.52 3.19 4.51 5.87 9.25 7.91 14.38.84 2.09 4.23 2.65 4.83 0 2.83-12.6 8.21-27.17 20.68-33 2.91-1.36.38-5.67-2.52-4.32-11.43 5.35-17.68 17.36-21.23 29.25a70.837 70.837 0 00-5.35-8.83z"/>
  <g fill="none" stroke="#000" stroke-linecap="round" stroke-linejoin="round" stroke-miterlimit="10" stroke-width="2">
    <path d="M53 22.642v30.476a.66.66 0 01-.66.66H20.66a.66.66 0 01-.66-.66v-31.68a.66.66 0 01.66-.66h20.649"/>
    <path d="M30.66 30.538c-1.85-2.61-6.18-.11-4.32 2.52 3.19 4.51 5.87 9.25 7.91 14.38.84 2.09 4.23 2.65 4.83 0 2.83-12.6 8.21-27.17 20.68-33 2.91-1.36.38-5.67-2.52-4.32-11.43 5.35-17.68 17.36-21.23 29.25a70.837 70.837 0 00-5.35-8.83z"/>
  </g>
</svg>
