<svg viewBox="0 0 72 72" xmlns="http://www.w3.org/2000/svg">
  <path fill="#B3B3B3" d="M68 4v64H4V4h64m4-4H0v72h72V0z"/>
  <path fill="none" stroke="#00A5FF" stroke-miterlimit="10" stroke-width="0.1" d="M12.923 10.958h46.154c1.062 0 1.923.861 1.923 1.923v46.154a1.923 1.923 0 01-1.923 1.923H12.923A1.923 1.923 0 0111 59.035h0V12.881c0-1.062.861-1.923 1.923-1.923h0z"/>
  <path fill="none" stroke="#00A5FF" stroke-miterlimit="10" stroke-width="0.1" d="M18.254 4h35.492A2.254 2.254 0 0156 6.254v59.492A2.254 2.254 0 0153.746 68H18.254A2.254 2.254 0 0116 65.746V6.254A2.254 2.254 0 0118.254 4z"/>
  <path fill="none" stroke="#00A5FF" stroke-miterlimit="10" stroke-width="0.1" d="M68 18.254v35.492A2.254 2.254 0 0165.746 56H6.254A2.254 2.254 0 014 53.746V18.254A2.254 2.254 0 016.254 16h59.492A2.254 2.254 0 0168 18.254z"/>
  <circle cx="36" cy="36" r="29" fill="none" stroke="#00A5FF" stroke-miterlimit="10" stroke-width="0.1"/>
  <path fill="none" stroke="#fff" stroke-linecap="round" stroke-linejoin="round" stroke-miterlimit="10" stroke-width="6" d="M48.372 36.082l3.243 19.472a7 7 0 01-1.955 6.1l-3.578 3.578-6.534-20.824M27.223 32.2L6.564 25.718l3.578-3.578a7 7 0 016.1-1.955l19.472 3.243m20.428-4.959l-.158-.585a3.05 3.05 0 00-2.119-2.142l-.579-.159a5.142 5.142 0 00-5.24 1.074L19.191 45.465l-6.339-.842L7.6 49.935l9.964 4.3h0l4.117 10.206 5.371-5.428-.747-6.428 28.8-28.795a5.314 5.314 0 001.037-5.321z"/>
  <path fill="#9B9B9A" d="M43.224 23.599L37.7 22.78l-21.3-3.547a8.018 8.018 0 00-6.97 2.234L5.85 25.04a1 1 0 00.408 1.661l20.93 6.568 3.811 1.156m5.152 3.499l2.394 6.663 6.575 20.954a1 1 0 001.661.408l3.578-3.578a8.014 8.014 0 002.235-6.971l-3.549-21.311-.893-5.915-12 9.75z"/>
  <path fill="#D0CFCE" d="M9.341 49.6l8.62 3.716a1 1 0 01.53.544l3.548 8.8L26 58.65l-.69-5.951a1 1 0 01.285-.822l28.8-28.794a4.4 4.4 0 00.782-4.352l-.157-.585a2.04 2.04 0 00-1.42-1.438l-.579-.159a4.224 4.224 0 00-4.265.813L19.9 46.174a1 1 0 01-.838.284l-5.846-.776L9.341 49.6z"/>
  <g fill="none" stroke="#000" stroke-linejoin="round" stroke-width="2">
    <path stroke-linecap="round" d="M48.372 36.082l3.243 19.472a7 7 0 01-1.955 6.1l-3.578 3.578-6.534-20.824M27.223 32.2L6.564 25.718l3.578-3.578a7 7 0 016.1-1.955l19.472 3.243"/>
    <path d="M56.142 18.469l-.158-.585a3.05 3.05 0 00-2.119-2.142l-.579-.159a5.142 5.142 0 00-5.24 1.074L19.191 45.465l-6.339-.842L7.6 49.935l9.964 4.3h0l4.117 10.206 5.371-5.428-.747-6.428 28.8-28.795a5.314 5.314 0 001.037-5.321z"/>
  </g>
</svg>
