<svg viewBox="0 0 72 72" xmlns="http://www.w3.org/2000/svg">
  <path fill="#b3b3b3" d="M68 4v64H4V4h64m4-4H0v72h72V0z"/>
  <path fill="none" stroke="#00a5ff" stroke-miterlimit="10" stroke-width="0.1" d="M12.923 10.958h46.154A1.923 1.923 0 0161 12.881v46.154a1.923 1.923 0 01-1.923 1.923H12.923A1.923 1.923 0 0111 59.035V12.881a1.923 1.923 0 011.923-1.923z"/>
  <rect x="16" y="4" rx="2.254" ry="2.254" width="40" height="64" fill="none" stroke="#00a5ff" stroke-miterlimit="10" stroke-width="0.1"/>
  <rect x="16" y="4" rx="2.254" ry="2.254" width="40" height="64" transform="rotate(90 36 36)" fill="none" stroke="#00a5ff" stroke-miterlimit="10" stroke-width="0.1"/>
  <circle cx="36" cy="36" r="29" fill="none" stroke="#00a5ff" stroke-miterlimit="10" stroke-width="0.1"/>
  <g fill="none" stroke="#fff" stroke-linecap="round" stroke-linejoin="round" stroke-miterlimit="10" stroke-width="6">
    <path d="M35.106 18.815s-.754 16.324-16.128 16.37a.648.648 0 100 1.296h.004s16.324 1.1 16.37 16.474v.147a.648.648 0 001.296 0c.046-15.375 16.37-16.62 16.37-16.62h.005a.648.648 0 100-1.297c-15.375-.045-16.62-16.37-16.62-16.37a.648.648 0 00-1.297 0z"/>
    <path d="M60 60.958H12a.945.945 0 01-1-1v-48a.945.945 0 011-1h48a.945.945 0 011 1v48a.945.945 0 01-1 1z"/>
  </g>
  <path fill="none" stroke="#000" stroke-linecap="round" stroke-linejoin="round" stroke-width="2" d="M35.106 18.815s-.754 16.324-16.128 16.37a.648.648 0 100 1.296h.004s16.324 1.1 16.37 16.474v.147a.648.648 0 001.296 0c.046-15.375 16.37-16.62 16.37-16.62h.005a.648.648 0 100-1.297c-15.375-.045-16.62-16.37-16.62-16.37a.648.648 0 00-1.297 0z"/>
  <path fill="#5c9e31" d="M60 61H12a.945.945 0 01-1-1V12a.945.945 0 011-1h48a.945.945 0 011 1v48a.945.945 0 01-1 1z"/>
  <path fill="#fff" stroke="#fff" stroke-linecap="round" stroke-linejoin="round" stroke-width="2" d="M35.106 18.857s-.754 16.324-16.128 16.37a.648.648 0 100 1.296h.004s16.324 1.1 16.37 16.474v.146a.648.648 0 001.296 0c.046-15.375 16.37-16.62 16.37-16.62h.005a.648.648 0 100-1.296c-15.375-.046-16.62-16.37-16.62-16.37a.648.648 0 00-1.297 0z"/>
  <g>
    <path fill="none" stroke="#000" stroke-linecap="round" stroke-linejoin="round" stroke-width="2" d="M60 60.958H12a.945.945 0 01-1-1v-48a.945.945 0 011-1h48a.945.945 0 011 1v48a.945.945 0 01-1 1z"/>
  </g>
</svg>
