<svg viewBox="0 0 72 72" xmlns="http://www.w3.org/2000/svg">
  <path fill="#b3b3b3" d="M68 4v64H4V4h64m4-4H0v72h72V0z"/>
  <path fill="none" stroke="#00a5ff" stroke-miterlimit="10" stroke-width="0.1" d="M12.923 10.958h46.154A1.923 1.923 0 0161 12.881v46.154a1.923 1.923 0 01-1.923 1.923H12.923A1.923 1.923 0 0111 59.035V12.881a1.923 1.923 0 011.923-1.923z"/>
  <rect x="16" y="4" rx="2.254" width="40" height="64" fill="none" stroke="#00a5ff" stroke-miterlimit="10" stroke-width="0.1"/>
  <rect x="16" y="4" rx="2.254" width="40" height="64" transform="rotate(90 36 36)" fill="none" stroke="#00a5ff" stroke-miterlimit="10" stroke-width="0.1"/>
  <circle cx="36" cy="36" r="29" fill="none" stroke="#00a5ff" stroke-miterlimit="10" stroke-width="0.1"/>
  <g fill="none" stroke="#fff" stroke-linecap="round" stroke-linejoin="round" stroke-miterlimit="10" stroke-width="6">
    <path d="M45.619 62h12.155A3.226 3.226 0 0061 58.774V15.226A3.226 3.226 0 0057.774 12H14.226A3.226 3.226 0 0011 15.226v43.548A3.226 3.226 0 0014.226 62h23.476"/>
    <path d="M45.618 62V42.208h7.125l.792-7.917h-7.917v-4.75c0-3.167 2.375-3.167 3.167-3.167h4.75V19.25c-3.2-.324-15.834-3.166-15.834 10.292v4.75h-6.333v7.917h6.333V62"/>
  </g>
  <path fill="#61B2E4" d="M57 12H15a4 4 0 00-4 4v42a4 4 0 004 4h42a4 4 0 004-4V16a4 4 0 00-4-4z"/>
  <path fill="#FFF" d="M48.5 26.844h4.688v-7.031c-3.126 0-15.626-3.125-15.626 10.156v4.687h-6.25v7.813h6.25V63h7.813V42.469h7.031l.781-7.813h-7.812V29.97c0-3.125 2.344-3.125 3.125-3.125z"/>
  <g fill="none" stroke="#000" stroke-miterlimit="10" stroke-width="2">
    <path d="M45.619 62h12.155A3.226 3.226 0 0061 58.774V15.226A3.226 3.226 0 0057.774 12H14.226A3.226 3.226 0 0011 15.226v43.548A3.226 3.226 0 0014.226 62h23.476"/>
    <path stroke-linecap="round" stroke-linejoin="round" d="M45.618 62V42.208h7.125l.792-7.917h-7.917v-4.75c0-3.167 2.375-3.167 3.167-3.167h4.75V19.25c-3.2-.324-15.834-3.166-15.834 10.292v4.75h-6.333v7.917h6.333V62"/>
  </g>
</svg>
