<svg viewBox="0 0 72 72" xmlns="http://www.w3.org/2000/svg">
  <path fill="#b3b3b3" d="M68 4v64H4V4h64m4-4H0v72h72V0z"/>
  <path fill="none" stroke="#00a5ff" stroke-miterlimit="10" stroke-width="0.1" d="M12.923 10.958h46.154A1.923 1.923 0 0161 12.881v46.154a1.923 1.923 0 01-1.923 1.923H12.923A1.923 1.923 0 0111 59.035V12.881a1.923 1.923 0 011.923-1.923z"/>
  <rect x="16" y="4" rx="2.254" ry="2.254" width="40" height="64" fill="none" stroke="#00a5ff" stroke-miterlimit="10" stroke-width="0.1"/>
  <rect x="16" y="4" rx="2.254" ry="2.254" width="40" height="64" transform="rotate(90 36 36)" fill="none" stroke="#00a5ff" stroke-miterlimit="10" stroke-width="0.1"/>
  <circle cx="36" cy="36" r="29" fill="none" stroke="#00a5ff" stroke-miterlimit="10" stroke-width="0.1"/>
  <g fill="none" stroke="#fff" stroke-linecap="round" stroke-linejoin="round" stroke-miterlimit="10" stroke-width="6">
    <path d="M46.327 15.263v-4.175m-4.154 20.458V18.423m20.741.012v13.111M40.193 19.839l12.308-9.275 12.393 9.275"/>
    <path d="M46.954 31.216v-8.571l5.582-4.311 5.597 4.311v8.571m-22.899 8.356h-5.298l-4.647-5.332m-.246-3.996s-5.785 1.354-7.088 2.287c-1.664 1.192-5.674 7.162-5.674 7.162m3.834 6.297l-2.229 3.37-6.331 3.07a1.42 1.42 0 00-.836 1.742 1.236 1.236 0 001.602.818l6.035-1.85a5.372 5.372 0 002.187-1.392l5.112-5.175"/>
    <path d="M25.267 39.441v2.214l4.16 5.124a6.622 6.622 0 01.756 2.705l.406 9.151c.086 1.78-.824 2.72-1.736 2.72-.97 0-1.72-.912-1.884-2.631l-1.053-8.66L19 44.172a3.216 3.216 0 01-1.113-2.366 5.417 5.417 0 01.765-2.581l3.293-5.947c1.141-2.281 2.256-3.091 3.762-3.091a2.714 2.714 0 012.68 2.767m-.27-6.838a3.266 3.266 0 113.266 3.266"/>
  </g>
  <path fill="#92d3f5" d="M52.501 10.564l-10.328 7.859v13.453h4.78v-9.231l5.583-4.311 5.597 4.311v9.231h4.781V18.435l-10.413-7.871z"/>
  <g fill="#fcea2b">
    <path d="M25.267 39.441v2.214l4.16 5.124a6.622 6.622 0 01.756 2.705l.406 9.151c.086 1.78-.824 2.72-1.736 2.72-.97 0-1.72-.912-1.884-2.631l-1.053-8.66L19 44.172a3.216 3.216 0 01-1.113-2.366 5.417 5.417 0 01.765-2.581l3.293-5.947c1.141-2.281 2.256-3.091 3.762-3.091a2.714 2.714 0 012.68 2.767zm-9.152 6.549l-2.229 3.37-6.331 3.07a1.42 1.42 0 00-.836 1.742 1.236 1.236 0 001.602.818l6.035-1.85a5.372 5.372 0 002.187-1.392l3.287-3.328z"/>
    <circle cx="31.383" cy="26.116" r="3.266"/>
  </g>
  <g fill="none" stroke="#000" stroke-linecap="round" stroke-width="2">
    <path stroke-miterlimit="10" d="M46.327 15.263v-4.175"/>
    <path stroke-linejoin="round" d="M42.173 31.546V18.423m20.741.012v13.111M40.193 19.839l12.308-9.275 12.393 9.275"/>
    <path stroke-linejoin="round" d="M46.954 31.216v-8.571l5.582-4.311 5.597 4.311v8.571m-22.899 8.356h-5.298l-4.647-5.332m-.246-3.996s-5.785 1.354-7.088 2.287c-1.664 1.192-5.674 7.162-5.674 7.162m3.834 6.297l-2.229 3.37-6.331 3.07a1.42 1.42 0 00-.836 1.742 1.236 1.236 0 001.602.818l6.035-1.85a5.372 5.372 0 002.187-1.392l5.112-5.175"/>
    <path stroke-linejoin="round" d="M25.267 39.441v2.214l4.16 5.124a6.622 6.622 0 01.756 2.705l.406 9.151c.086 1.78-.824 2.72-1.736 2.72-.97 0-1.72-.912-1.884-2.631l-1.053-8.66L19 44.172a3.216 3.216 0 01-1.113-2.366 5.417 5.417 0 01.765-2.581l3.293-5.947c1.141-2.281 2.256-3.091 3.762-3.091a2.714 2.714 0 012.68 2.767m-.27-6.838a3.266 3.266 0 113.266 3.266"/>
  </g>
</svg>
