<svg viewBox="0 0 72 72" xmlns="http://www.w3.org/2000/svg">
  <path fill="#b3b3b3" d="M68 4v64H4V4h64m4-4H0v72h72V0z"/>
  <path fill="none" stroke="#00a5ff" stroke-miterlimit="10" stroke-width="0.1" d="M12.923 10.958h46.154A1.923 1.923 0 0161 12.881v46.154a1.923 1.923 0 01-1.923 1.923H12.923A1.923 1.923 0 0111 59.035V12.881a1.923 1.923 0 011.923-1.923z"/>
  <rect x="16" y="4" rx="2.254" ry="2.254" width="40" height="64" fill="none" stroke="#00a5ff" stroke-miterlimit="10" stroke-width="0.1"/>
  <rect x="16" y="4" rx="2.254" ry="2.254" width="40" height="64" transform="rotate(90 36 36)" fill="none" stroke="#00a5ff" stroke-miterlimit="10" stroke-width="0.1"/>
  <circle cx="36" cy="36" r="29" fill="none" stroke="#00a5ff" stroke-miterlimit="10" stroke-width="0.1"/>
  <g fill="none" stroke="#fff" stroke-linecap="round" stroke-linejoin="round" stroke-miterlimit="10" stroke-width="6">
    <path d="M8.406 63.629l13.054-19.24 9.749-7.234 6.263 1.473 5.316-1.473 5.128 6.412 8.347 5.824 6.356 14.388"/>
    <path d="M25.377 41.481l1.654 3.531-1.614 6.284.916 7.313m21.583-15.042l-3.505 6.079 3.116 2.505-1.673 5.173M32.952 23.75a5.637 5.637 0 00-.264 9.528m11.804-22.307a4.386 4.386 0 00-8.658-.997 5.912 5.912 0 00-9.116 1.554 4.549 4.549 0 00-7.7 3.289m37.047 7.211a5.064 5.064 0 00-7.891-4.202m-9.631 15.719a5.65 5.65 0 002.806-3.758 7.812 7.812 0 005.806-3.571m-14.283-5.598a7.823 7.823 0 0114.626-2.247"/>
  </g>
  <circle cx="23.575" cy="14.817" r="4.558" fill="#9b9b9a"/>
  <circle cx="31.9" cy="14.393" r="5.923" fill="#3f3f3f"/>
  <circle cx="36.505" cy="35.688" r="3.724" fill="#9b9b9a"/>
  <circle cx="51" cy="22.028" r="5.064" fill="#9b9b9a"/>
  <circle cx="40.101" cy="10.971" r="4.391" fill="#9b9b9a"/>
  <circle cx="40.571" cy="22.005" r="7.821" fill="#3f3f3f"/>
  <path fill="#9b9b9a" d="M7.948 64.288L21.46 44.389l9.749-7.234 6.263 1.473 5.316-1.473 5.128 6.412 8.347 5.824 6.556 14.897H7.948z"/>
  <path fill="#d0cfce" d="M7.948 64.288L21.46 44.389l3.917-2.908 1.654 3.531-1.614 6.284 1.893 12.992H7.948z"/>
  <path fill="#3f3f3f" d="M62.819 64.288H43.646l3.881-12.137-3.116-2.505 3.505-6.079 8.347 5.824 6.556 14.897z"/>
  <circle cx="35.835" cy="28.595" r="5.643" fill="#9b9b9a"/>
  <g fill="none" stroke="#000" stroke-linecap="round" stroke-linejoin="round" stroke-width="2">
    <path d="M8.406 63.629l13.054-19.24 9.749-7.234 6.263 1.473 5.316-1.473 5.128 6.412 8.347 5.824 6.356 14.388"/>
    <path d="M25.377 41.481l1.654 3.531-1.614 6.284.916 7.313m21.583-15.042l-3.505 6.079 3.116 2.505-1.673 5.173M32.952 23.75a5.637 5.637 0 00-.264 9.528m11.804-22.307a4.386 4.386 0 00-8.658-.997 5.912 5.912 0 00-9.116 1.554 4.549 4.549 0 00-7.7 3.289m37.047 7.211a5.064 5.064 0 00-7.891-4.202m-9.631 15.719a5.65 5.65 0 002.806-3.758 7.812 7.812 0 005.806-3.571m-14.283-5.598a7.823 7.823 0 0114.626-2.247"/>
  </g>
</svg>
