<svg viewBox="0 0 72 72" xmlns="http://www.w3.org/2000/svg">
  <path fill="#b3b3b3" d="M68 4v64H4V4h64m4-4H0v72h72V0z"/>
  <rect x="11" y="10.958" rx="1.923" ry="1.923" width="50" height="50" fill="none" stroke="#00a5ff" stroke-miterlimit="10" stroke-width="0.1"/>
  <rect x="16" y="4" rx="2.254" ry="2.254" width="40" height="64" fill="none" stroke="#00a5ff" stroke-miterlimit="10" stroke-width="0.1"/>
  <rect x="16" y="4" rx="2.254" ry="2.254" width="40" height="64" transform="rotate(90 36 36)" fill="none" stroke="#00a5ff" stroke-miterlimit="10" stroke-width="0.1"/>
  <circle cx="36" cy="36" r="29" fill="none" stroke="#00a5ff" stroke-miterlimit="10" stroke-width="0.1"/>
  <g fill="none" stroke="#fff" stroke-linecap="round" stroke-linejoin="round" stroke-miterlimit="10" stroke-width="6">
    <path d="M49.452 47.493l2.633.161 9.327 8.262M9.08 58.591l3.936-33.229 1.281-6.114 6.404-5.821 5.647 5.475 1.861 6.522m-7.302 8.891l6.873 24.454"/>
    <path d="M21.963 30.046l-2.864-11.883-1.469-1.967m17.021 18.273a2.552 2.552 0 112.552 2.552"/>
    <circle cx="34.743" cy="22.327" r="2.552"/>
    <path d="M49.451 28.081a2.552 2.552 0 11-2.552 2.552M58.864 43.11a4.802 4.802 0 012.554 8.45M48.777 35.928a4.802 4.802 0 015.326 7.967"/>
    <circle cx="44.334" cy="47.187" r="2.552"/>
    <circle cx="32.83" cy="39.743" r="2.552"/>
    <circle cx="45.433" cy="26.877" r="1.278"/>
    <circle cx="42.125" cy="31.038" r="1.278"/>
    <circle cx="38.08" cy="27.414" r="1.278"/>
    <circle cx="29.857" cy="19.738" r="1.278"/>
    <circle cx="33.105" cy="30.459" r="1.278"/>
  </g>
  <circle cx="51.18" cy="40.086" r="4.801" fill="#6a462f"/>
  <circle cx="58.331" cy="47.881" r="4.801" fill="#3f3f3f"/>
  <circle cx="49.451" cy="30.634" r="2.552" fill="#a57939"/>
  <circle cx="26.774" cy="23.151" r="1.278" fill="#3f3f3f"/>
  <circle cx="27.517" cy="30.102" r="1.278" fill="#3f3f3f"/>
  <circle cx="30.796" cy="34.268" r="1.278" fill="#3f3f3f"/>
  <circle cx="37.203" cy="34.469" r="2.552" fill="#6a462f"/>
  <circle cx="34.743" cy="22.327" r="2.552" fill="#a57939"/>
  <circle cx="38.542" cy="42.584" r="2.552" fill="#3f3f3f"/>
  <circle cx="32.83" cy="39.743" r="2.552" fill="#3f3f3f"/>
  <circle cx="43.674" cy="37.124" r="2.552" fill="#3f3f3f"/>
  <path fill="#a57939" d="M27.807 59.185l-6.9-24.87 1.056-4.269-2.864-11.883-1.469-1.967-3.333 3.052-1.281 6.114-4.04 33.823h18.831z"/>
  <path fill="#3f3f3f" d="M27.807 59.185l-6.9-24.87 1.056-4.269-2.864-11.883-1.469-1.967 3.071-2.769 5.647 5.475 5.573 19.237 9.942 8.694 10.222.821 9.327 8.262.99 3.269H27.807z"/>
  <circle cx="44.334" cy="47.187" r="2.552" fill="#3f3f3f"/>
  <g>
    <path fill="none" stroke="#000" stroke-linecap="round" stroke-linejoin="round" stroke-width="2" d="M49.452 47.493l2.633.161 9.327 8.262"/>
    <path fill="none" stroke="#000" stroke-linecap="round" stroke-miterlimit="10" stroke-width="2" d="M9.08 58.591l3.936-33.229 1.281-6.114 6.404-5.821 5.647 5.475 1.861 6.522m-7.302 8.891l6.873 24.454"/>
    <path fill="none" stroke="#000" stroke-linecap="round" stroke-miterlimit="10" stroke-width="2" d="M21.963 30.046l-2.864-11.883-1.469-1.967m17.021 18.273a2.552 2.552 0 112.552 2.552"/>
    <circle cx="34.743" cy="22.327" r="2.552" fill="none" stroke="#000" stroke-linecap="round" stroke-miterlimit="10" stroke-width="2"/>
    <path fill="none" stroke="#000" stroke-linecap="round" stroke-miterlimit="10" stroke-width="2" d="M49.451 28.081a2.552 2.552 0 11-2.552 2.552M58.864 43.11a4.802 4.802 0 012.554 8.45M48.777 35.928a4.802 4.802 0 015.326 7.967"/>
    <circle cx="44.334" cy="47.187" r="2.552" fill="none" stroke="#000" stroke-linecap="round" stroke-miterlimit="10" stroke-width="2"/>
    <circle cx="32.83" cy="39.743" r="2.552" fill="none" stroke="#000" stroke-linecap="round" stroke-miterlimit="10" stroke-width="2"/>
    <circle cx="45.433" cy="26.877" r="1.278"/>
    <circle cx="42.125" cy="31.038" r="1.278"/>
    <circle cx="38.08" cy="27.414" r="1.278"/>
    <circle cx="29.857" cy="19.738" r="1.278"/>
    <circle cx="33.105" cy="30.459" r="1.278"/>
  </g>
</svg>
