<svg viewBox="0 0 72 72" xmlns="http://www.w3.org/2000/svg">
  <path fill="#b3b3b3" d="M68 4v64H4V4h64m4-4H0v72h72V0z"/>
  <rect x="11" y="10.958" rx="1.923" ry="1.923" width="50" height="50" fill="none" stroke="#00a5ff" stroke-miterlimit="10" stroke-width="0.1"/>
  <rect x="16" y="4" rx="2.254" ry="2.254" width="40" height="64" fill="none" stroke="#00a5ff" stroke-miterlimit="10" stroke-width="0.1"/>
  <rect x="16" y="4" rx="2.254" ry="2.254" width="40" height="64" transform="rotate(90 36 36)" fill="none" stroke="#00a5ff" stroke-miterlimit="10" stroke-width="0.1"/>
  <circle cx="36" cy="36" r="29" fill="none" stroke="#00a5ff" stroke-miterlimit="10" stroke-width="0.1"/>
  <path fill="none" stroke="#fff" stroke-linecap="round" stroke-linejoin="round" stroke-miterlimit="10" stroke-width="6" d="M55.185 50.435V25.201m-38.578 0v25.745M16.6 25.201L35.686 8.917l19.506 16.284H16.6zm12.322-10.527v-4.665h-5.931v9.734l5.931-5.069zm1.819 26.536V31.123h10.31v13.074M61.795 56.4c-5.155 0-5.155-3.183-10.31-3.183s-5.154 3.184-10.308 3.184-5.155-3.184-10.309-3.184-5.155 3.184-10.46 3.184-5.155-3.184-10.46-3.184m51.847-4.281c-5.155 0-5.155-3.184-10.31-3.184s-5.154 3.184-10.308 3.184-5.155-3.184-10.309-3.184-5.154 3.184-10.46 3.184-5.155-3.184-10.461-3.184m51.848 18.114c-5.155 0-5.155-3.183-10.31-3.183s-5.154 3.183-10.308 3.183-5.155-3.183-10.309-3.183-5.155 3.183-10.46 3.183-5.155-3.183-10.46-3.183"/>
  <path fill="#a57939" d="M41.051 31.123h-10.31v13.644L41.051 48V31.123z"/>
  <path fill="#61b2e4" d="M9.947 60.05c5.306 0 5.154 3.183 10.46 3.183s5.306-3.184 10.461-3.184 5.154 3.184 10.309 3.184 5.154-3.184 10.309-3.184 5.154 3.184 10.309 3.184v-6.36c-5.155 0-5.155-3.183-10.31-3.183s-5.154 3.184-10.308 3.184-5.155-3.184-10.309-3.184-5.154 3.184-10.46 3.184-5.155-3.184-10.461-3.184z"/>
  <path fill="#92d3f5" d="M9.947 52.441c5.306 0 5.154 3.184 10.46 3.184s5.306-3.184 10.461-3.184 5.154 3.184 10.309 3.184 5.154-3.184 10.309-3.184 5.154 3.184 10.309 3.184v-6.36c-5.155 0-5.155-3.183-10.31-3.183s-5.154 3.184-10.308 3.184-5.155-3.184-10.309-3.184-5.155 3.184-10.46 3.184-5.155-3.184-10.46-3.184z"/>
  <path fill="#92d3f5" d="M9.947 45.417c5.306 0 5.154 3.183 10.46 3.183s5.306-3.183 10.461-3.183S36.022 48.6 41.177 48.6s5.154-3.184 10.309-3.184S56.64 48.6 61.795 48.6v-6.359c-5.155 0-5.155-3.183-10.31-3.183s-5.154 3.183-10.308 3.183-5.155-3.183-10.309-3.183-5.155 3.183-10.46 3.183-5.155-3.183-10.46-3.183z"/>
  <path fill="#ea5a47" d="M16.6 25.201L35.686 8.917l19.506 16.284H16.6zm12.322-10.527v-4.665h-5.931v9.734l5.931-5.069z"/>
  <g fill="none" stroke="#000" stroke-linecap="round" stroke-linejoin="round" stroke-width="2">
    <path d="M55.185 50.435V25.201m-38.578 0v25.745M16.6 25.201L35.686 8.917l19.506 16.284H16.6zm12.322-10.527v-4.665h-5.931v9.734l5.931-5.069zm1.819 26.536V31.123h10.31v13.074M61.795 56.4c-5.155 0-5.155-3.183-10.31-3.183s-5.154 3.184-10.308 3.184-5.155-3.184-10.309-3.184-5.155 3.184-10.46 3.184-5.155-3.184-10.46-3.184m51.847-4.281c-5.155 0-5.155-3.184-10.31-3.184s-5.154 3.184-10.308 3.184-5.155-3.184-10.309-3.184-5.154 3.184-10.46 3.184-5.155-3.184-10.461-3.184m51.848 18.114c-5.155 0-5.155-3.183-10.31-3.183s-5.154 3.183-10.308 3.183-5.155-3.183-10.309-3.183-5.155 3.183-10.46 3.183-5.155-3.183-10.46-3.183"/>
  </g>
</svg>
