<svg viewBox="0 0 72 72" xmlns="http://www.w3.org/2000/svg">
  <path fill="#b3b3b3" d="M68 4v64H4V4h64m4-4H0v72h72V0z"/>
  <path fill="none" stroke="#00a5ff" stroke-miterlimit="10" stroke-width="0.1" d="M12.923 10.958h46.154A1.923 1.923 0 0161 12.881v46.154a1.923 1.923 0 01-1.923 1.923H12.923A1.923 1.923 0 0111 59.035V12.881a1.923 1.923 0 011.923-1.923z"/>
  <rect x="16" y="4" rx="2.254" ry="2.254" width="40" height="64" fill="none" stroke="#00a5ff" stroke-miterlimit="10" stroke-width="0.1"/>
  <rect x="16" y="4" rx="2.254" ry="2.254" width="40" height="64" transform="rotate(90 36 36)" fill="none" stroke="#00a5ff" stroke-miterlimit="10" stroke-width="0.1"/>
  <circle cx="36" cy="36" r="29" fill="none" stroke="#00a5ff" stroke-miterlimit="10" stroke-width="0.1"/>
  <g fill="none" stroke="#fff" stroke-linecap="round" stroke-linejoin="round" stroke-miterlimit="10" stroke-width="6">
    <path d="M18.863 46.357a24.152 24.152 0 01-1.782-32.163m37.717 0a24.152 24.152 0 01-1.782 32.163m-4.778-26.916a15.751 15.751 0 01-1.162 20.976m-22.274 0a15.751 15.751 0 01-1.162-20.976"/>
    <circle cx="35.939" cy="29.281" r="3.15"/>
    <path d="M28.589 55.477h14.7m-11.55-11.864h8.4M35.041 32.3l-9.602 32.26m21 0L36.838 32.3"/>
  </g>
  <circle cx="35.939" cy="29.281" r="3.15" fill="#3f3f3f"/>
  <path fill="#d0cfce" d="M46.439 64.56L36.838 32.3h-1.797l-9.602 32.26"/>
  <g stroke="#000" stroke-width="2">
    <path fill="none" stroke-linecap="round" stroke-miterlimit="10" d="M18.863 46.357a24.152 24.152 0 01-1.782-32.163m37.717 0a24.152 24.152 0 01-1.782 32.163m-4.778-26.916a15.751 15.751 0 01-1.162 20.976m-22.274 0a15.751 15.751 0 01-1.162-20.976"/>
    <circle cx="35.939" cy="29.281" r="3.15" fill="none" stroke-miterlimit="10"/>
    <path stroke-linecap="round" stroke-linejoin="round" d="M28.589 55.477h14.7m-11.55-11.864h8.4"/>
    <path fill="none" stroke-linecap="round" stroke-linejoin="round" d="M35.041 32.3l-9.602 32.26m21 0L36.838 32.3"/>
  </g>
</svg>
