<svg viewBox="0 0 72 72" xmlns="http://www.w3.org/2000/svg">
  <path fill="#b3b3b3" d="M68 4v64H4V4h64m4-4H0v72h72V0z"/>
  <path fill="none" stroke="#00a5ff" stroke-miterlimit="10" stroke-width="0.1" d="M12.923 10.958h46.154A1.923 1.923 0 0161 12.881v46.154a1.923 1.923 0 01-1.923 1.923H12.923A1.923 1.923 0 0111 59.035V12.881a1.923 1.923 0 011.923-1.923z"/>
  <rect x="16" y="4" rx="2.254" ry="2.254" width="40" height="64" fill="none" stroke="#00a5ff" stroke-miterlimit="10" stroke-width="0.1"/>
  <rect x="16" y="4" rx="2.254" ry="2.254" width="40" height="64" transform="rotate(90 36 36)" fill="none" stroke="#00a5ff" stroke-miterlimit="10" stroke-width="0.1"/>
  <circle cx="36" cy="36" r="29" fill="none" stroke="#00a5ff" stroke-miterlimit="10" stroke-width="0.1"/>
  <g fill="none" stroke="#fff" stroke-linecap="round" stroke-linejoin="round" stroke-miterlimit="10" stroke-width="6">
    <path d="M10.704 26.047A2.654 2.654 0 0113.16 24.1h51.38a1.494 1.494 0 011.519 1.942l-5.428 21.916A2.694 2.694 0 0158.15 49.9H7.1a1.516 1.516 0 01-1.543-1.947z"/>
    <path d="M14.81 24.1l8.277 12.866L12.26 49.9m19.354-25.8l8.283 12.942L29.07 49.9m18.492-25.8l8.277 13.016L45.012 49.9"/>
  </g>
  <path fill="#fcea2b" d="M10.704 26.047A2.654 2.654 0 0113.16 24.1h51.38a1.494 1.494 0 011.519 1.942l-5.428 21.916A2.694 2.694 0 0158.15 49.9H7.1a1.516 1.516 0 01-1.543-1.947z"/>
  <path fill="#f1b31c" d="M60.25 48.614l3.494-13.429a193.65 193.65 0 01-24.953 8.955 218.027 218.027 0 01-28.8 5.76H58.55a1.711 1.711 0 001.7-1.286z"/>
  <path d="M18.929 36.928L10.697 24.1h8.402l8.277 12.866L16.549 49.9H8.103l10.826-12.972z"/>
  <path d="M35.74 37.005L27.507 24.1h8.397l8.282 12.942L33.36 49.9h-8.447L35.74 37.005z"/>
  <path d="M51.682 37.079L43.449 24.1h8.402l8.277 13.016L49.302 49.9h-8.447l10.827-12.821z"/>
  <g fill="none" stroke="#000" stroke-linecap="round" stroke-linejoin="round" stroke-width="2">
    <path d="M10.704 26.047A2.654 2.654 0 0113.16 24.1h51.38a1.494 1.494 0 011.519 1.942l-5.428 21.916A2.694 2.694 0 0158.15 49.9H7.1a1.516 1.516 0 01-1.543-1.947z"/>
    <path d="M14.81 24.1l8.277 12.866L12.26 49.9m19.354-25.8l8.283 12.942L29.07 49.9m18.492-25.8l8.277 13.016L45.012 49.9"/>
  </g>
</svg>
