<svg viewBox="0 0 72 72" xmlns="http://www.w3.org/2000/svg">
  <path fill="#b3b3b3" d="M68 4v64H4V4h64m4-4H0v72h72V0z"/>
  <path fill="none" stroke="#00a5ff" stroke-miterlimit="10" stroke-width="0.1" d="M12.923 10.958h46.154A1.923 1.923 0 0161 12.881v46.154a1.923 1.923 0 01-1.923 1.923H12.923A1.923 1.923 0 0111 59.035V12.881a1.923 1.923 0 011.923-1.923z"/>
  <rect x="16" y="4" rx="2.254" ry="2.254" width="40" height="64" fill="none" stroke="#00a5ff" stroke-miterlimit="10" stroke-width="0.1"/>
  <rect x="16" y="4" rx="2.254" ry="2.254" width="40" height="64" transform="rotate(90 36 36)" fill="none" stroke="#00a5ff" stroke-miterlimit="10" stroke-width="0.1"/>
  <circle cx="36" cy="36" r="29" fill="none" stroke="#00a5ff" stroke-miterlimit="10" stroke-width="0.1"/>
  <g fill="none" stroke="#fff" stroke-linecap="round" stroke-linejoin="round" stroke-miterlimit="10" stroke-width="6">
    <path d="M48.237 56.329V15.214H23.389v13.09"/>
    <path d="M45.386 59.75h13.596V10.322H12.884V59.95h6.603l3.902-2.962v-2.787"/>
    <path d="M45.268 36.922H39.97l-4.647-5.332m-.246-3.995s-5.785 1.353-7.088 2.286c-1.665 1.192-5.674 7.162-5.674 7.162m-5.563 14.479a1.236 1.236 0 001.603.817l6.034-1.85a5.371 5.371 0 002.188-1.392l5.112-5.174"/>
    <path d="M26.149 43.34l-2.229 3.372-6.332 3.068a1.42 1.42 0 00-.836 1.742M35.3 36.791v2.214l4.161 5.125a6.623 6.623 0 01.756 2.705l.405 9.151c.087 1.78-.824 2.72-1.735 2.72-.97 0-1.72-.912-1.884-2.632l-1.053-8.66-6.916-5.893a3.216 3.216 0 01-1.113-2.366 5.417 5.417 0 01.765-2.58l3.293-5.947c1.141-2.282 2.256-3.092 3.762-3.092a2.714 2.714 0 012.681 2.767m-.729-6.625a3.266 3.266 0 113.265 3.265"/>
  </g>
  <path fill="#9b9b9a" d="M23.389 53.859v3.129l-3.902 2.962h-6.603V10.322h46.098V59.75H44.726l3.511-3.421V15.214H23.389v28.254"/>
  <g fill="#fcea2b">
    <path d="M35.3 36.791v2.214l4.161 5.125a6.623 6.623 0 01.756 2.705l.405 9.151c.087 1.78-.824 2.72-1.735 2.72-.97 0-1.72-.912-1.884-2.632l-1.053-8.66-6.916-5.893a3.216 3.216 0 01-1.113-2.366 5.417 5.417 0 01.765-2.58l3.293-5.947c1.141-2.282 2.256-3.092 3.762-3.092a2.714 2.714 0 012.681 2.767z"/>
    <path d="M26.149 43.34l-2.229 3.372-6.332 3.068a1.42 1.42 0 00-.836 1.742 1.236 1.236 0 001.603.818l6.034-1.85a5.371 5.371 0 002.188-1.392l5.112-5.175z"/>
    <circle cx="40.958" cy="23.678" r="3.266"/>
  </g>
  <path fill="#f1b31c" d="M16.752 51.522a1.236 1.236 0 001.603.817l6.035-1.85a5.373 5.373 0 002.187-1.392l5.112-5.174-2.109-.187-3.993 4.042a5.372 5.372 0 01-2.187 1.391l-3.753 1.402z"/>
  <g fill="none" stroke="#000" stroke-linecap="round" stroke-linejoin="round" stroke-width="2">
    <path d="M48.237 56.329V15.214H23.389v13.09"/>
    <path d="M45.386 59.75h13.596V10.322H12.884V59.95h6.603l3.902-2.962v-2.787"/>
    <path d="M45.268 36.922H39.97l-4.647-5.332m-.246-3.995s-5.785 1.353-7.088 2.286c-1.665 1.192-5.674 7.162-5.674 7.162m-5.563 14.479a1.236 1.236 0 001.603.817l6.034-1.85a5.371 5.371 0 002.188-1.392l5.112-5.174"/>
    <path d="M26.149 43.34l-2.229 3.372-6.332 3.068a1.42 1.42 0 00-.836 1.742M35.3 36.791v2.214l4.161 5.125a6.623 6.623 0 01.756 2.705l.405 9.151c.087 1.78-.824 2.72-1.735 2.72-.97 0-1.72-.912-1.884-2.632l-1.053-8.66-6.916-5.893a3.216 3.216 0 01-1.113-2.366 5.417 5.417 0 01.765-2.58l3.293-5.947c1.141-2.282 2.256-3.092 3.762-3.092a2.714 2.714 0 012.681 2.767m-.729-6.625a3.266 3.266 0 113.265 3.265"/>
  </g>
</svg>
