<svg viewBox="0 0 72 72" xmlns="http://www.w3.org/2000/svg">
  <path fill="#B3B3B3" d="M68 4v64H4V4h64m4-4H0v72h72V0z"/>
  <path fill="none" stroke="#00A5FF" stroke-miterlimit="10" stroke-width="0.1" d="M12.923 10.958h46.154c1.062 0 1.923.861 1.923 1.923v46.154a1.923 1.923 0 01-1.923 1.923H12.923A1.923 1.923 0 0111 59.035h0V12.881c0-1.062.861-1.923 1.923-1.923h0z"/>
  <path fill="none" stroke="#00A5FF" stroke-miterlimit="10" stroke-width="0.1" d="M18.254 4h35.492A2.254 2.254 0 0156 6.254v59.492A2.254 2.254 0 0153.746 68H18.254A2.254 2.254 0 0116 65.746V6.254A2.254 2.254 0 0118.254 4z"/>
  <path fill="none" stroke="#00A5FF" stroke-miterlimit="10" stroke-width="0.1" d="M68 18.254v35.492A2.254 2.254 0 0165.746 56H6.254A2.254 2.254 0 014 53.746V18.254A2.254 2.254 0 016.254 16h59.492A2.254 2.254 0 0168 18.254z"/>
  <circle cx="36" cy="36" r="29" fill="none" stroke="#00A5FF" stroke-miterlimit="10" stroke-width="0.1"/>
  <g fill="none" stroke="#fff" stroke-linecap="round" stroke-linejoin="round" stroke-miterlimit="10" stroke-width="6">
    <path d="M45.5 25.1h-3.75c0-3.18-2.57-5.75-5.75-5.75s-5.75 2.57-5.75 5.75H26.5c0-5.25 4.25-9.5 9.5-9.5s9.5 4.25 9.5 9.5z"/>
    <path d="M30.25 25.1c0-3.18 2.57-5.75 5.75-5.75s5.75 2.57 5.75 5.75m-30.92 0H61V56H10.83z"/>
    <path d="M38.92 36.76h4.874v6.584H38.92l.042-.042v4.875h-6.583v-4.876"/>
    <path d="M32.336 43.344h-4.792V36.76h4.792l.042-.041v-4.792h6.583v4.792"/>
  </g>
  <path fill="#9B9B9A" d="M45.5 25.1h-3.75c0-3.18-2.57-5.75-5.75-5.75s-5.75 2.57-5.75 5.75H26.5c0-5.25 4.25-9.5 9.5-9.5s9.5 4.25 9.5 9.5z"/>
  <path fill="#D0CFCE" d="M10.83 25.1H61V56H10.83z"/>
  <path fill="#EA5A47" d="M38.92 36.76h4.874v6.584H38.92l.042-.042v4.875h-6.583v-4.876"/>
  <path fill="#EA5A47" d="M32.336 43.344h-4.792V36.76h4.792l.042-.041v-4.792h6.583v4.792"/>
  <g fill="none" stroke="#000" stroke-linecap="round" stroke-linejoin="round" stroke-miterlimit="10" stroke-width="2">
    <path d="M45.5 25.1h-3.75c0-3.18-2.57-5.75-5.75-5.75s-5.75 2.57-5.75 5.75H26.5c0-5.25 4.25-9.5 9.5-9.5s9.5 4.25 9.5 9.5z"/>
    <path d="M30.25 25.1c0-3.18 2.57-5.75 5.75-5.75s5.75 2.57 5.75 5.75m-30.92 0H61V56H10.83z"/>
    <path d="M38.92 36.76h4.874v6.584H38.92l.042-.042v4.875h-6.583v-4.876"/>
    <path d="M32.336 43.344h-4.792V36.76h4.792l.042-.041v-4.792h6.583v4.792"/>
  </g>
</svg>
