<svg viewBox="0 0 72 72" xmlns="http://www.w3.org/2000/svg">
  <path fill="#b3b3b3" d="M68 4v64H4V4h64m4-4H0v72h72V0z"/>
  <path fill="none" stroke="#00a5ff" stroke-miterlimit="10" stroke-width="0.1" d="M12.923 10.958h46.154A1.923 1.923 0 0161 12.881v46.154a1.923 1.923 0 01-1.923 1.923H12.923A1.923 1.923 0 0111 59.035V12.881a1.923 1.923 0 011.923-1.923z"/>
  <rect x="16" y="4" rx="2.254" width="40" height="64" fill="none" stroke="#00a5ff" stroke-miterlimit="10" stroke-width="0.1"/>
  <rect x="16" y="4" rx="2.254" width="40" height="64" transform="rotate(90 36 36)" fill="none" stroke="#00a5ff" stroke-miterlimit="10" stroke-width="0.1"/>
  <circle cx="36" cy="36" r="29" fill="none" stroke="#00a5ff" stroke-miterlimit="10" stroke-width="0.1"/>
  <g fill="none" stroke="#fff" stroke-linecap="round" stroke-linejoin="round" stroke-miterlimit="10" stroke-width="6">
    <path d="M13.47 62.54V9.166c0-.55.45-1 1-1h43.044c.55 0 1 .45 1 1v53.372c0 .55-.45 1-1 1H14.47c-.55 0-1-.45-1-1z"/>
    <circle cx="35.992" cy="59.084" r="2"/>
    <path d="M17.881 13.037H54.04v41.439H17.881z"/>
  </g>
  <path fill="#D0CFCE" d="M13.353 8.12h44.879v55.438H13.353z"/>
  <path fill="#FFF" d="M58.231 25.747L40.604 8.119H19.936l-.022.022 38.317 38.317z"/>
  <path fill="#3F3F3F" d="M17.881 13.037H54.04v41.439H17.881z"/>
  <path fill="#9B9B9A" d="M54.04 42.266V21.555l-8.518-8.518H24.81z"/>
  <path fill="none" stroke="#000" stroke-linecap="round" stroke-linejoin="round" stroke-miterlimit="10" stroke-width="2" d="M13.47 62.54V9.166c0-.55.45-1 1-1h43.044c.55 0 1 .45 1 1v53.372c0 .55-.45 1-1 1H14.47c-.55 0-1-.45-1-1z"/>
  <circle cx="35.992" cy="59.084" r="2"/>
  <path fill="none" stroke="#000" stroke-linecap="round" stroke-linejoin="round" stroke-miterlimit="10" stroke-width="2" d="M17.881 13.037H54.04v41.439H17.881z"/>
</svg>
