<svg viewBox="0 0 72 72" xmlns="http://www.w3.org/2000/svg">
  <path fill="#b3b3b3" d="M68 4v64H4V4h64m4-4H0v72h72V0z"/>
  <path fill="none" stroke="#00a5ff" stroke-miterlimit="10" stroke-width="0.1" d="M12.923 10.958h46.154A1.923 1.923 0 0161 12.881v46.154a1.923 1.923 0 01-1.923 1.923H12.923A1.923 1.923 0 0111 59.035V12.881a1.923 1.923 0 011.923-1.923z"/>
  <rect x="16" y="4" rx="2.254" width="40" height="64" fill="none" stroke="#00a5ff" stroke-miterlimit="10" stroke-width="0.1"/>
  <rect x="16" y="4" rx="2.254" width="40" height="64" transform="rotate(90 36 36)" fill="none" stroke="#00a5ff" stroke-miterlimit="10" stroke-width="0.1"/>
  <circle cx="36" cy="36" r="29" fill="none" stroke="#00a5ff" stroke-miterlimit="10" stroke-width="0.1"/>
  <g fill="none" stroke="#fff" stroke-linecap="round" stroke-linejoin="round" stroke-miterlimit="10" stroke-width="6">
    <circle cx="36" cy="32" r="5"/>
    <path d="M35 38l-2 25h6l-2-25"/>
    <path d="M42.265 50.985C50.239 48.355 56 40.855 56 32c0-11.046-8.954-20-20-20s-20 8.954-20 20c0 8.855 5.761 16.354 13.735 18.985"/>
    <path d="M41.588 45.913C47.102 43.696 51 38.307 51 32c0-8.284-6.716-15-15-15s-15 6.716-15 15c0 6.307 3.898 11.696 9.412 13.913"/>
    <path d="M40.895 40.715A9.992 9.992 0 0046 32c0-5.523-4.477-10-10-10s-10 4.477-10 10c0 3.743 2.06 7 5.105 8.715"/>
  </g>
  <circle cx="36" cy="32" r="5" fill="#3F3F3F"/>
  <path fill="#D0CFCE" d="M34 62h4l-2-25z"/>
  <path fill="#9B9B9A" d="M36 37l2 25h-2.02L36 37"/>
  <g fill="none" stroke="#000" stroke-linecap="round" stroke-linejoin="round" stroke-miterlimit="10" stroke-width="2">
    <circle cx="36" cy="32" r="5"/>
    <path d="M35 38l-2 25h6l-2-25"/>
    <path d="M42.265 50.985C50.239 48.355 56 40.855 56 32c0-11.046-8.954-20-20-20s-20 8.954-20 20c0 8.855 5.761 16.354 13.735 18.985"/>
    <path d="M41.588 45.913C47.102 43.696 51 38.307 51 32c0-8.284-6.716-15-15-15s-15 6.716-15 15c0 6.307 3.898 11.696 9.412 13.913"/>
    <path d="M40.895 40.715A9.992 9.992 0 0046 32c0-5.523-4.477-10-10-10s-10 4.477-10 10c0 3.743 2.06 7 5.105 8.715"/>
  </g>
</svg>
