<svg viewBox="0 0 72 72" xmlns="http://www.w3.org/2000/svg">
  <path fill="#B3B3B3" d="M68 4v64H4V4h64m4-4H0v72h72V0z"/>
  <path fill="none" stroke="#00A5FF" stroke-miterlimit="10" stroke-width="0.1" d="M12.9 11h46.2c1.1 0 1.9.9 1.9 1.9h0V59c0 1.1-.9 1.9-1.9 1.9H12.9c-1 .1-1.9-.8-1.9-1.9h0V12.9c0-1.1.9-1.9 1.9-1.9h0z"/>
  <path fill="none" stroke="#00A5FF" stroke-miterlimit="10" stroke-width="0.1" d="M18.3 4h35.5C55 4 56 5 56 6.3v59.5c0 1.2-1 2.3-2.3 2.3H18.3C17 68 16 67 16 65.7V6.3C16 5 17 4 18.3 4z"/>
  <path fill="none" stroke="#00A5FF" stroke-miterlimit="10" stroke-width="0.1" d="M68 18.3v35.5c0 1.2-1 2.3-2.3 2.3H6.3C5 56 4 55 4 53.7V18.3C4 17 5 16 6.3 16h59.5c1.2 0 2.2 1 2.2 2.3z"/>
  <circle cx="36" cy="36" r="29" fill="none" stroke="#00A5FF" stroke-miterlimit="10" stroke-width="0.1"/>
  <g fill="none" stroke="#fff" stroke-linecap="round" stroke-linejoin="round" stroke-miterlimit="10" stroke-width="6">
    <path d="M4 24h64v24H4z"/>
    <path d="M41 44H9c-.6 0-1-.4-1-1V29c0-.6.4-1 1-1h32c.6 0 1 .4 1 1v14c0 .6-.4 1-1 1zm22 0h-8c-.6 0-1-.4-1-1V29c0-.6.4-1 1-1h8c.6 0 1 .4 1 1v14c0 .6-.4 1-1 1zm-13.7-3.7v-.7c0-.6-.4-1-1-1h-.7c-.6 0-1 .4-1 1v.7c0 .6-.4 1-1 1H45c-.6 0-1 .4-1 1v.7c0 .6.4 1 1 1h6c.6 0 1-.4 1-1v-.7c0-.6-.4-1-1-1h-.7c-.5 0-1-.4-1-1zM51 34h-6c-.6 0-1-.4-1-1v-4c0-.6.4-1 1-1h6c.6 0 1 .4 1 1v4c0 .6-.4 1-1 1z"/>
  </g>
  <path fill="#FFF" d="M4 24h64v24H4z"/>
  <path fill="#D0CFCE" d="M59 24h9v24H32z"/>
  <path fill="none" stroke="#000" stroke-linecap="round" stroke-linejoin="round" stroke-miterlimit="10" stroke-width="2" d="M4 24h64v24H4z"/>
  <path d="M41 44H9c-.6 0-1-.4-1-1V29c0-.6.4-1 1-1h32c.6 0 1 .4 1 1v14c0 .6-.4 1-1 1zm22 0h-8c-.6 0-1-.4-1-1V29c0-.6.4-1 1-1h8c.6 0 1 .4 1 1v14c0 .6-.4 1-1 1zm-13.7-3.7v-.7c0-.6-.4-1-1-1h-.7c-.6 0-1 .4-1 1v.7c0 .6-.4 1-1 1H45c-.6 0-1 .4-1 1v.7c0 .6.4 1 1 1h6c.6 0 1-.4 1-1v-.7c0-.6-.4-1-1-1h-.7c-.5 0-1-.4-1-1zM51 34h-6c-.6 0-1-.4-1-1v-4c0-.6.4-1 1-1h6c.6 0 1 .4 1 1v4c0 .6-.4 1-1 1z"/>
  <g fill="#3F3F3F">
    <path d="M41 44H9c-.6 0-1-.4-1-1V29c0-.6.4-1 1-1h32c.6 0 1 .4 1 1v14c0 .6-.4 1-1 1zm22 0h-8c-.6 0-1-.4-1-1V29c0-.6.4-1 1-1h8c.6 0 1 .4 1 1v14c0 .6-.4 1-1 1zm-13.7-3.7v-.7c0-.6-.4-1-1-1h-.7c-.6 0-1 .4-1 1v.7c0 .6-.4 1-1 1H45c-.6 0-1 .4-1 1v.7c0 .6.4 1 1 1h6c.6 0 1-.4 1-1v-.7c0-.6-.4-1-1-1h-.7c-.5 0-1-.4-1-1zM51 34h-6c-.6 0-1-.4-1-1v-4c0-.6.4-1 1-1h6c.6 0 1 .4 1 1v4c0 .6-.4 1-1 1z"/>
  </g>
</svg>
