<svg viewBox="0 0 72 72" xmlns="http://www.w3.org/2000/svg">
  <path fill="#B3B3B3" d="M68 4v64H4V4h64m4-4H0v72h72V0z"/>
  <path fill="none" stroke="#00A5FF" stroke-miterlimit="10" stroke-width="0.1" d="M12.9 11h46.2c1.1 0 1.9.9 1.9 1.9h0V59c0 1.1-.9 1.9-1.9 1.9H12.9c-1 .1-1.9-.8-1.9-1.9h0V12.9c0-1.1.9-1.9 1.9-1.9h0z"/>
  <path fill="none" stroke="#00A5FF" stroke-miterlimit="10" stroke-width="0.1" d="M18.3 4h35.5C55 4 56 5 56 6.3v59.5c0 1.2-1 2.3-2.3 2.3H18.3C17 68 16 67 16 65.7V6.3C16 5 17 4 18.3 4z"/>
  <path fill="none" stroke="#00A5FF" stroke-miterlimit="10" stroke-width="0.1" d="M68 18.3v35.5c0 1.2-1 2.3-2.3 2.3H6.3C5 56 4 55 4 53.7V18.3C4 17 5 16 6.3 16h59.5c1.2 0 2.2 1 2.2 2.3z"/>
  <circle cx="36" cy="36" r="29" fill="none" stroke="#00A5FF" stroke-miterlimit="10" stroke-width="0.1"/>
  <g fill="none" stroke="#fff" stroke-linecap="round" stroke-linejoin="round" stroke-miterlimit="10" stroke-width="6">
    <ellipse cx="36" cy="36" rx="6" ry="17"/>
    <circle cx="56" cy="56" r="10"/>
    <path d="M42 42l6.9 6.9"/>
    <circle cx="16" cy="56" r="10"/>
    <path d="M30 42l-6.9 6.9"/>
    <circle cx="16" cy="16" r="10"/>
    <path d="M30 30l-6.9-6.9"/>
    <circle cx="56" cy="16" r="10"/>
    <path d="M42 30l6.9-6.9m11.5 28.5l-8.8 8.8m-40-8.8l8.8 8.8m-8.8-40l8.8-8.8m40 8.8l-8.8-8.8"/>
  </g>
  <path fill="#9B9B9A" d="M32.6 50.1c1 1.8 2.1 2.9 3.4 2.9 3.3 0 6-7.6 6-17 0-4.6-.6-8.8-1.7-11.8"/>
  <path fill="#D0CFCE" d="M40.3 24.2C39.2 21 37.7 19 36 19c-3.3 0-6 7.6-6 17 0 5.9 1 11 2.6 14.1"/>
  <circle cx="56" cy="56" r="10" fill="#FFF"/>
  <circle cx="16" cy="56" r="10" fill="#FFF"/>
  <circle cx="16" cy="16" r="10" fill="#FFF"/>
  <circle cx="56" cy="16" r="10" fill="#FFF"/>
  <g fill="none" stroke="#000" stroke-linecap="round" stroke-linejoin="round" stroke-miterlimit="10" stroke-width="2">
    <ellipse cx="36" cy="36" rx="6" ry="17"/>
    <circle cx="56" cy="56" r="10"/>
    <path d="M42 42l6.9 6.9"/>
    <circle cx="16" cy="56" r="10"/>
    <path d="M30 42l-6.9 6.9"/>
    <circle cx="16" cy="16" r="10"/>
    <path d="M30 30l-6.9-6.9"/>
    <circle cx="56" cy="16" r="10"/>
    <path d="M42 30l6.9-6.9m11.5 28.5l-8.8 8.8m-40-8.8l8.8 8.8m-8.8-40l8.8-8.8m40 8.8l-8.8-8.8"/>
  </g>
  <path fill="none" stroke="#9B9B9A" stroke-linecap="round" stroke-linejoin="round" stroke-miterlimit="10" stroke-width="2.1" d="M60.4 51.6l-8.8 8.8m-40-8.8l8.8 8.8m-8.8-40l8.8-8.8m40 8.8l-8.8-8.8"/>
</svg>
