<svg viewBox="0 0 72 72" xmlns="http://www.w3.org/2000/svg">
  <path fill="#b3b3b3" d="M68 4v64H4V4h64m4-4H0v72h72V0z"/>
  <path fill="none" stroke="#00a5ff" stroke-miterlimit="10" stroke-width="0.1" d="M12.923 10.958h46.154A1.923 1.923 0 0161 12.881v46.154a1.923 1.923 0 01-1.923 1.923H12.923A1.923 1.923 0 0111 59.035V12.881a1.923 1.923 0 011.923-1.923z"/>
  <rect x="16" y="4" rx="2.254" width="40" height="64" fill="none" stroke="#00a5ff" stroke-miterlimit="10" stroke-width="0.1"/>
  <rect x="16" y="4" rx="2.254" width="40" height="64" transform="rotate(90 36 36)" fill="none" stroke="#00a5ff" stroke-miterlimit="10" stroke-width="0.1"/>
  <circle cx="36" cy="36" r="29" fill="none" stroke="#00a5ff" stroke-miterlimit="10" stroke-width="0.1"/>
  <g fill="none" stroke="#fff" stroke-linecap="round" stroke-linejoin="round" stroke-miterlimit="10" stroke-width="6">
    <path d="M36 20.763a1.05 1.05 0 01-1.049-1.048v-9.43a1.048 1.048 0 012.097 0v9.43c0 .579-.469 1.048-1.048 1.048z"/>
    <path d="M39.824 15.157h-7.647a1.048 1.048 0 010-2.097h7.647a1.048 1.048 0 010 2.097zM49 41.711L36 30 23 41.711V61h26zM23 36.13l-8-7.207-8 7.207V48h16m26 11h17V46.388l-8.5-7.657-4.643 4.126"/>
    <path d="M41.6 35v-9.624L36 20l-5.6 5.376V35"/>
  </g>
  <path fill="#FFF" d="M49 41.711L36 30 23 41.711V61h26z"/>
  <path fill="#FFF" d="M31.028 42.624l-9.083-8.501-6.945-5.2-8 7.207V48h16m26 11h17V46.388l-9.152-8.026-9.807 8.335M41.6 35v-9.624L36 20l-5.6 5.376V35"/>
  <path fill="#D0CFCE" d="M49 61V42L32 61m-9-13v-7.667L15.333 48M66 59V47L56 59"/>
  <path d="M36 20.763a1.05 1.05 0 01-1.049-1.048v-9.43a1.048 1.048 0 012.097 0v9.43c0 .579-.469 1.048-1.048 1.048z"/>
  <path d="M39.824 15.157h-7.647a1.048 1.048 0 010-2.097h7.647a1.048 1.048 0 010 2.097z"/>
  <path fill="none" stroke="#000" stroke-linecap="round" stroke-linejoin="round" stroke-miterlimit="10" stroke-width="2" d="M49 41.711L36 30 23 41.711V61h26zM23 36.13l-8-7.207-8 7.207V48h16m26 11h17V46.388l-8.5-7.657-4.643 4.126"/>
  <path fill="none" stroke="#000" stroke-linecap="round" stroke-linejoin="round" stroke-miterlimit="10" stroke-width="2" d="M41.6 35v-9.624L36 20l-5.6 5.376V35"/>
</svg>
