<svg viewBox="0 0 72 72" xmlns="http://www.w3.org/2000/svg">
  <path fill="#b3b3b3" d="M68 4v64H4V4h64m4-4H0v72h72V0z"/>
  <path fill="none" stroke="#00a5ff" stroke-miterlimit="10" stroke-width="0.1" d="M12.923 10.958h46.154A1.923 1.923 0 0161 12.881v46.154a1.923 1.923 0 01-1.923 1.923H12.923A1.923 1.923 0 0111 59.035V12.881a1.923 1.923 0 011.923-1.923z"/>
  <rect x="16" y="4" rx="2.254" width="40" height="64" fill="none" stroke="#00a5ff" stroke-miterlimit="10" stroke-width="0.1"/>
  <rect x="16" y="4" rx="2.254" width="40" height="64" transform="rotate(90 36 36)" fill="none" stroke="#00a5ff" stroke-miterlimit="10" stroke-width="0.1"/>
  <circle cx="36" cy="36" r="29" fill="none" stroke="#00a5ff" stroke-miterlimit="10" stroke-width="0.1"/>
  <g fill="none" stroke="#fff" stroke-linecap="round" stroke-linejoin="round" stroke-miterlimit="10" stroke-width="6">
    <circle cx="21" cy="17" r="3"/>
    <path d="M15 30s1-4.311 3-5.311 4-1 6 0S27 30 27 30"/>
    <circle cx="55.992" cy="26.324" r="3"/>
    <path d="M49.992 39.324s1-4.311 3-5.311 4-1 6 0 3 5.31 3 5.31"/>
    <circle cx="29.993" cy="47.008" r="3"/>
    <path d="M23.993 60.008s1-4.311 3-5.311 4-1 6 0 3 5.31 3 5.31m16.559-39.871C48.333 15.159 42.035 12 35 12c-2.77 0-5.424.49-7.883 1.387m12.316 44.186c8.213-1.604 14.862-7.577 17.427-15.402m-44.773-9.183A23.274 23.274 0 0012 35c0 7.974 4.058 15 10.222 19.127"/>
  </g>
  <g fill="#FCEA2B">
    <circle cx="21" cy="17" r="3"/>
    <circle cx="55.992" cy="26.324" r="3"/>
    <circle cx="29.993" cy="47.008" r="3"/>
    <path d="M15.437 27.104l3.081-2.714 4.834-.198 2.969 2.827.684 3.98-12.081-.008zm35.054 9.326l3.082-2.714 4.834-.198 2.968 2.827.685 3.98-12.082-.007zM24.485 57.112l3.081-2.714 4.835-.198 2.968 2.827.684 3.98-12.08-.008z"/>
  </g>
  <g fill="none" stroke="#000" stroke-miterlimit="10" stroke-width="2">
    <circle cx="21" cy="17" r="3"/>
    <path stroke-linecap="round" stroke-linejoin="round" d="M15 30s1-4.311 3-5.311 4-1 6 0S27 30 27 30"/>
    <circle cx="55.992" cy="26.324" r="3"/>
    <path stroke-linecap="round" stroke-linejoin="round" d="M49.992 39.324s1-4.311 3-5.311 4-1 6 0 3 5.31 3 5.31"/>
    <circle cx="29.993" cy="47.008" r="3"/>
    <path stroke-linecap="round" stroke-linejoin="round" d="M23.993 60.008s1-4.311 3-5.311 4-1 6 0 3 5.31 3 5.31m16.559-39.871C48.333 15.159 42.035 12 35 12c-2.77 0-5.424.49-7.883 1.387m12.316 44.186c8.213-1.604 14.862-7.577 17.427-15.402m-44.773-9.183A23.274 23.274 0 0012 35c0 7.974 4.058 15 10.222 19.127"/>
  </g>
</svg>
