<svg viewBox="0 0 72 72" xmlns="http://www.w3.org/2000/svg">
  <path fill="#b3b3b3" d="M68 4v64H4V4h64m4-4H0v72h72V0z"/>
  <path fill="none" stroke="#00a5ff" stroke-miterlimit="10" stroke-width="0.1" d="M12.923 10.958h46.154A1.923 1.923 0 0161 12.881v46.154a1.923 1.923 0 01-1.923 1.923H12.923A1.923 1.923 0 0111 59.035V12.881a1.923 1.923 0 011.923-1.923z"/>
  <rect x="16" y="4" rx="2.254" width="40" height="64" fill="none" stroke="#00a5ff" stroke-miterlimit="10" stroke-width="0.1"/>
  <rect x="16" y="4" rx="2.254" width="40" height="64" transform="rotate(90 36 36)" fill="none" stroke="#00a5ff" stroke-miterlimit="10" stroke-width="0.1"/>
  <circle cx="36" cy="36" r="29" fill="none" stroke="#00a5ff" stroke-miterlimit="10" stroke-width="0.1"/>
  <path fill="none" stroke="#fff" stroke-linecap="round" stroke-linejoin="round" stroke-miterlimit="10" stroke-width="6" d="M31 16v-4h10v4m10 9v31a4 4 0 01-4 4H25a4 4 0 01-4-4V25m-4-9h38v4H17zm24 12.25V55M31 28.25V55"/>
  <path fill="#FFF" d="M51.76 17H20.153v37.65c0 4.06 3.29 5.62 7.35 5.62H44.41c4.06 0 7.35-1.56 7.35-5.62V17zM31 16v-4h10v4"/>
  <path fill="#9b9b9a" d="M51 37v20.621L48.3 60H33z"/>
  <path fill="#FFF" d="M17 16h38v4H17z"/>
  <path fill="none" stroke="#000" stroke-linecap="round" stroke-linejoin="round" stroke-miterlimit="10" stroke-width="2" d="M31 16v-4h10v4m10 9v31a4 4 0 01-4 4H25a4 4 0 01-4-4V25m-4-9h38v4H17zm24 12.25V55M31 28.25V55"/>
</svg>
