<svg viewBox="0 0 72 72" xmlns="http://www.w3.org/2000/svg">
  <path fill="#b3b3b3" d="M68 4v64H4V4h64m4-4H0v72h72V0z"/>
  <path fill="none" stroke="#00a5ff" stroke-miterlimit="10" stroke-width="0.1" d="M12.923 10.958h46.154A1.923 1.923 0 0161 12.881v46.154a1.923 1.923 0 01-1.923 1.923H12.923A1.923 1.923 0 0111 59.035V12.881a1.923 1.923 0 011.923-1.923z"/>
  <rect x="16" y="4" rx="2.254" width="40" height="64" fill="none" stroke="#00a5ff" stroke-miterlimit="10" stroke-width="0.1"/>
  <rect x="16" y="4" rx="2.254" width="40" height="64" transform="rotate(90 36 36)" fill="none" stroke="#00a5ff" stroke-miterlimit="10" stroke-width="0.1"/>
  <circle cx="36" cy="36" r="29" fill="none" stroke="#00a5ff" stroke-miterlimit="10" stroke-width="0.1"/>
  <g fill="none" stroke="#fff" stroke-linecap="round" stroke-linejoin="round" stroke-miterlimit="10" stroke-width="6">
    <path d="M46.375 31v-7.75h-11.25V12h-22.5v50h33.75v-9.833M35.125 12l11.25 11.25M41 30H18m10-6H18m23 12H18m10 6H18m10 6H18m10 6H18"/>
    <path d="M34 49v5h5l24-24-5-5z"/>
  </g>
  <path fill="#FCEA2B" stroke="#FCEA2B" stroke-linecap="round" stroke-linejoin="round" stroke-miterlimit="10" stroke-width="1.8" d="M35.25 12l11.125 11.25V62H13V12z"/>
  <path fill="#F1B31C" stroke="#F1B31C" stroke-linecap="round" stroke-linejoin="round" stroke-miterlimit="10" stroke-width="1.8" d="M15.688 62h-3.063 33.75V36.625L20.937 62z"/>
  <path fill="#FFF" d="M34 49v5h5l24-24-5-5z"/>
  <g fill="none" stroke="#000" stroke-linecap="round" stroke-linejoin="round" stroke-miterlimit="10" stroke-width="2">
    <path d="M46.375 31v-7.75h-11.25V12h-22.5v50h33.75v-9.833M35.125 12l11.25 11.25M41 30H18m10-6H18m23 12H18m10 6H18m10 6H18m10 6H18"/>
    <path d="M34 49v5h5l24-24-5-5z"/>
  </g>
</svg>
