<svg viewBox="0 0 72 72" xmlns="http://www.w3.org/2000/svg">
  <path fill="#b3b3b3" d="M68 4v64H4V4h64m4-4H0v72h72V0z"/>
  <path fill="none" stroke="#00a5ff" stroke-miterlimit="10" stroke-width="0.1" d="M12.923 10.958h46.154A1.923 1.923 0 0161 12.881v46.154a1.923 1.923 0 01-1.923 1.923H12.923A1.923 1.923 0 0111 59.035V12.881a1.923 1.923 0 011.923-1.923z"/>
  <rect x="16" y="4" rx="2.254" width="40" height="64" fill="none" stroke="#00a5ff" stroke-miterlimit="10" stroke-width="0.1"/>
  <rect x="16" y="4" rx="2.254" width="40" height="64" transform="rotate(90 36 36)" fill="none" stroke="#00a5ff" stroke-miterlimit="10" stroke-width="0.1"/>
  <circle cx="36" cy="36" r="29" fill="none" stroke="#00a5ff" stroke-miterlimit="10" stroke-width="0.1"/>
  <g fill="none" stroke="#fff" stroke-linecap="round" stroke-linejoin="round" stroke-miterlimit="10" stroke-width="6">
    <path d="M49.042 27H62c3.3 0 6 2.7 6 6v6c0 3.3-2.7 6-6 6H33c-3.3 0-6-2.7-6-6v-2"/>
    <path d="M49 33h11c1.105 0 2 .737 2 1.647v2.706c0 .91-.895 1.647-2 1.647H35c-1.104 0-2-.738-2-1.647v-.374"/>
    <path d="M22.988 45H10c-3.3 0-6-2.7-6-6v-6c0-3.3 2.7-6 6-6h29c3.3 0 6 2.7 6 6v2"/>
    <path d="M23 39H12c-1.105 0-2-.737-2-1.647v-2.706c0-.91.895-1.647 2-1.647h25c1.104 0 2 .738 2 1.647v.346"/>
  </g>
  <g fill="#D0CFCE">
    <path d="M27 36v5l4 4h31l5-2 1-4v-7l-2-4-4-1H48v6h12l2 1v5l-2 1H35l-2-2v-2h-6z"/>
    <path d="M45 36v-5l-4-4H10l-5 2-1 4v7l2 4 4 1h14v-6H12l-2-1v-5l2-1h25l2 2v2h6z"/>
  </g>
  <g fill="none" stroke="#000" stroke-linecap="round" stroke-linejoin="round" stroke-miterlimit="10" stroke-width="2">
    <path d="M49.042 27H62c3.3 0 6 2.7 6 6v6c0 3.3-2.7 6-6 6H33c-3.3 0-6-2.7-6-6v-2"/>
    <path d="M49 33h11c1.105 0 2 .737 2 1.647v2.706c0 .91-.895 1.647-2 1.647H35c-1.104 0-2-.738-2-1.647v-.374"/>
    <path d="M22.988 45H10c-3.3 0-6-2.7-6-6v-6c0-3.3 2.7-6 6-6h29c3.3 0 6 2.7 6 6v2"/>
    <path d="M23 39H12c-1.105 0-2-.737-2-1.647v-2.706c0-.91.895-1.647 2-1.647h25c1.104 0 2 .738 2 1.647v.346"/>
  </g>
</svg>
