<svg viewBox="0 0 72 72" xmlns="http://www.w3.org/2000/svg">
  <path fill="#B3B3B3" d="M68 4v64H4V4h64m4-4H0v72h72V0z"/>
  <path fill="none" stroke="#00A5FF" stroke-miterlimit="10" stroke-width="0.1" d="M12.923 10.958h46.154c1.062 0 1.923.861 1.923 1.923v46.154a1.923 1.923 0 01-1.923 1.923H12.923A1.923 1.923 0 0111 59.035h0V12.881c0-1.062.861-1.923 1.923-1.923h0z"/>
  <path fill="none" stroke="#00A5FF" stroke-miterlimit="10" stroke-width="0.1" d="M18.254 4h35.492A2.254 2.254 0 0156 6.254v59.492A2.254 2.254 0 0153.746 68H18.254A2.254 2.254 0 0116 65.746V6.254A2.254 2.254 0 0118.254 4z"/>
  <path fill="none" stroke="#00A5FF" stroke-miterlimit="10" stroke-width="0.1" d="M68 18.254v35.492A2.254 2.254 0 0165.746 56H6.254A2.254 2.254 0 014 53.746V18.254A2.254 2.254 0 016.254 16h59.492A2.254 2.254 0 0168 18.254z"/>
  <circle cx="36" cy="36" r="29" fill="none" stroke="#00A5FF" stroke-miterlimit="10" stroke-width="0.1"/>
  <path fill="none" stroke="#fff" stroke-linecap="round" stroke-linejoin="round" stroke-miterlimit="10" stroke-width="6" d="M11 23.845h50M22.462 37.146l-1.231 3.83s4.923.702 6.301 3.45c.094.183.167.376.217.575.926 3.226.866 11.15.866 11.15l3.2 5.106 5.372 2.26 4.839-11.82 1.418 2.075s.984.663 2.156-6.335c.72.48 1.711 1.13 2.123 1.891.985 1.52.28-7.134.28-7.134l-1.172-3.177 5.576-.743-1.923-6.079a40.5 40.5 0 00-5.947-8.732c-3.782-4.707-12.722-8.937-12.722-8.937l-5.653 9.956-3.954 3.774.086 3.94-4.756 1.12 4.924 3.83z"/>
  <path fill="#61B2E4" d="M11 23.845h50v44.156H11z"/>
  <path fill="#92D3F5" d="M26.562 23.482l-4.354 4.774.086 3.94-4.756 1.12 4.923 3.83-1.23 3.83s4.923.702 6.301 3.45c.094.183.167.376.217.575.926 3.226.866 11.15.866 11.15l3.2 5.106 5.372 2.26 4.839-11.82 1.418 2.075s.984.663 2.156-6.335c.72.48 1.711 1.13 2.123 1.891.985 1.52.28-7.134.28-7.134l-1.172-3.177 5.576-.743-1.923-6.079a40.5 40.5 0 00-5.947-8.732l-17.975.019z"/>
  <path fill="#FFF" d="M31.815 14.526l7.903 4.643 4.819 4.294-17.975.019z"/>
  <g fill="none" stroke="#000" stroke-linecap="round" stroke-linejoin="round" stroke-width="2">
    <path d="M11 23.845h50M22.462 37.146l-1.231 3.83s4.923.702 6.301 3.45c.094.183.167.376.217.575.926 3.226.866 11.15.866 11.15l3.2 5.106 5.372 2.26 4.839-11.82 1.418 2.075s.984.663 2.156-6.335c.72.48 1.711 1.13 2.123 1.891.985 1.52.28-7.134.28-7.134l-1.172-3.177 5.576-.743-1.923-6.079a40.5 40.5 0 00-5.947-8.732c-3.782-4.707-12.722-8.937-12.722-8.937l-5.653 9.956-3.954 3.774.086 3.94-4.756 1.12 4.924 3.83z"/>
  </g>
</svg>
