<svg viewBox="0 0 72 72" xmlns="http://www.w3.org/2000/svg">
  <path fill="#B3B3B3" d="M68 4v64H4V4h64m4-4H0v72h72V0z"/>
  <path fill="none" stroke="#00A5FF" stroke-miterlimit="10" stroke-width="0.1" d="M12.923 10.958h46.154c1.062 0 1.923.861 1.923 1.923v46.154a1.923 1.923 0 01-1.923 1.923H12.923A1.923 1.923 0 0111 59.035h0V12.881c0-1.062.861-1.923 1.923-1.923h0z"/>
  <path fill="none" stroke="#00A5FF" stroke-miterlimit="10" stroke-width="0.1" d="M18.254 4h35.492A2.254 2.254 0 0156 6.254v59.492A2.254 2.254 0 0153.746 68H18.254A2.254 2.254 0 0116 65.746V6.254A2.254 2.254 0 0118.254 4z"/>
  <path fill="none" stroke="#00A5FF" stroke-miterlimit="10" stroke-width="0.1" d="M68 18.254v35.492A2.254 2.254 0 0165.746 56H6.254A2.254 2.254 0 014 53.746V18.254A2.254 2.254 0 016.254 16h59.492A2.254 2.254 0 0168 18.254z"/>
  <circle cx="36" cy="36" r="29" fill="none" stroke="#00A5FF" stroke-miterlimit="10" stroke-width="0.1"/>
  <g fill="none" stroke="#fff" stroke-linecap="round" stroke-linejoin="round" stroke-miterlimit="10" stroke-width="6">
    <path d="M45.818 14.307h3.932a3.264 3.264 0 013.265 3.264v40.08a3.264 3.264 0 01-3.265 3.264h-27.5a3.264 3.264 0 01-3.264-3.264v-40.08a3.264 3.264 0 013.264-3.264h3.944"/>
    <path d="M45.82 16.56h2.88v38.93H23.31V16.56h2.88"/>
    <path d="M26.194 13.216h19.624v5.461H26.194zm0 19.767h5.021m-5.021 5.674H42.75m-16.556 3.349h13.58m-13.58 3.349H42.75m-16.556 3.349h13.58M29.413 21.39v1.883h1.884v1.326h-1.884v1.884h-1.326v-1.884h-1.883v-1.326h1.883v-1.884h1.326m0-1h-1.326a1 1 0 00-1 1v.884h-.883a1 1 0 00-1 1v1.326a1 1 0 001 1h.883v.884a1 1 0 001 1h1.326a1 1 0 001-1v-.884h.884a1 1 0 001-1v-1.326a1 1 0 00-1-1h-.884v-.884a1 1 0 00-1-1z"/>
  </g>
  <path fill="#A57939" d="M22.25 14.307h27.5a3.264 3.264 0 013.265 3.264v40.08a3.264 3.264 0 01-3.265 3.264h-27.5a3.264 3.264 0 01-3.264-3.264v-40.08a3.264 3.264 0 013.264-3.264z"/>
  <path fill="#FFF" d="M23.308 16.564h25.395v38.93H23.308z"/>
  <path fill="#9B9B9A" d="M26.194 13.216h19.624v5.461H26.194z"/>
  <path fill="#D22F27" d="M26.204 24.599h1.883v1.884h1.326v-1.884h1.884v-1.326h-1.884v-1.884h-1.326v1.884h-1.883z"/>
  <g>
    <path fill="none" stroke="#000" stroke-linecap="round" stroke-linejoin="round" stroke-width="2" d="M45.818 14.307h3.932a3.264 3.264 0 013.265 3.264v40.08a3.264 3.264 0 01-3.265 3.264h-27.5a3.264 3.264 0 01-3.264-3.264v-40.08a3.264 3.264 0 013.264-3.264h3.944"/>
    <path fill="none" stroke="#000" stroke-linecap="round" stroke-linejoin="round" stroke-width="2" d="M45.82 16.56h2.88v38.93H23.31V16.56h2.88"/>
    <path fill="none" stroke="#000" stroke-linecap="round" stroke-linejoin="round" stroke-width="2" d="M26.194 13.216h19.624v5.461H26.194z"/>
    <path fill="none" stroke="#000" stroke-linecap="round" stroke-linejoin="round" stroke-width="1.5" d="M26.194 32.983h5.021m-5.021 5.674H42.75m-16.556 3.349h13.58m-13.58 3.349H42.75m-16.556 3.349h13.58"/>
    <path d="M29.413 21.39v1.883h1.884v1.326h-1.884v1.884h-1.326v-1.884h-1.883v-1.326h1.883v-1.884h1.326m0-1h-1.326a1 1 0 00-1 1v.884h-.883a1 1 0 00-1 1v1.326a1 1 0 001 1h.883v.884a1 1 0 001 1h1.326a1 1 0 001-1v-.884h.884a1 1 0 001-1v-1.326a1 1 0 00-1-1h-.884v-.884a1 1 0 00-1-1z"/>
  </g>
</svg>
