<svg viewBox="0 0 72 72" xmlns="http://www.w3.org/2000/svg">
  <path fill="#b3b3b3" d="M68 4v64H4V4h64m4-4H0v72h72V0z"/>
  <path fill="none" stroke="#00a5ff" stroke-miterlimit="10" stroke-width="0.1" d="M12.923 10.958h46.154A1.923 1.923 0 0161 12.881v46.154a1.923 1.923 0 01-1.923 1.923H12.923A1.923 1.923 0 0111 59.035V12.881a1.923 1.923 0 011.923-1.923z"/>
  <rect x="16" y="4" rx="2.254" width="40" height="64" fill="none" stroke="#00a5ff" stroke-miterlimit="10" stroke-width="0.1"/>
  <rect x="16" y="4" rx="2.254" width="40" height="64" transform="rotate(90 36 36)" fill="none" stroke="#00a5ff" stroke-miterlimit="10" stroke-width="0.1"/>
  <circle cx="36" cy="36" r="29" fill="none" stroke="#00a5ff" stroke-miterlimit="10" stroke-width="0.1"/>
  <path fill="none" stroke="#fff" stroke-linecap="round" stroke-linejoin="round" stroke-miterlimit="10" stroke-width="6" d="M22.56 44.718c-.578-2.516-2.038-10.502 1.239-15.72a6.68 6.68 0 012.559-2.33c2.445-1.293 7.565-2.995 13.658.752v13.552a70.962 70.962 0 01-7.699.677 3.056 3.056 0 00-2.493 1.32c-1.344 1.963-4.042 5.174-6.316 3.355a2.842 2.842 0 01-.949-1.606zm17.456-17.31v13.564A14.93 14.93 0 0047.776 36s2.644-2.823 4.636-3.338c0 0 3.571-1.785-.79-3.743a32.771 32.771 0 00-11.606-1.51z"/>
  <path fill="#d22f27" d="M22.56 44.718c-.578-2.516-2.038-10.502 1.239-15.72a6.68 6.68 0 012.559-2.33c2.445-1.293 7.565-2.995 13.658.752v13.552a70.962 70.962 0 01-7.699.677 3.056 3.056 0 00-2.493 1.32c-1.344 1.963-4.042 5.174-6.316 3.355a2.842 2.842 0 01-.949-1.606zm17.456-17.31v13.564A14.93 14.93 0 0047.776 36s2.644-2.823 4.636-3.338c0 0 3.571-1.785-.79-3.743a32.771 32.771 0 00-11.606-1.51z"/>
  <path fill="none" stroke="#000" stroke-linecap="round" stroke-linejoin="round" stroke-width="2" d="M22.56 44.718c-.578-2.516-2.038-10.502 1.239-15.72a6.68 6.68 0 012.559-2.33c2.445-1.293 7.565-2.995 13.658.752v13.552a70.962 70.962 0 01-7.699.677 3.056 3.056 0 00-2.493 1.32c-1.344 1.963-4.042 5.174-6.316 3.355a2.842 2.842 0 01-.949-1.606zm17.456-17.31v13.564A14.93 14.93 0 0047.776 36s2.644-2.823 4.636-3.338c0 0 3.571-1.785-.79-3.743a32.771 32.771 0 00-11.606-1.51z"/>
</svg>
