<svg viewBox="0 0 72 72" xmlns="http://www.w3.org/2000/svg">
  <path fill="#b3b3b3" d="M68 4v64H4V4h64m4-4H0v72h72V0z"/>
  <path fill="none" stroke="#00a5ff" stroke-miterlimit="10" stroke-width="0.1" d="M12.923 10.958h46.154A1.923 1.923 0 0161 12.881v46.154a1.923 1.923 0 01-1.923 1.923H12.923A1.923 1.923 0 0111 59.035V12.881a1.923 1.923 0 011.923-1.923z"/>
  <rect x="16" y="4" rx="2.254" width="40" height="64" fill="none" stroke="#00a5ff" stroke-miterlimit="10" stroke-width="0.1"/>
  <rect x="16" y="4" rx="2.254" width="40" height="64" transform="rotate(90 36 36)" fill="none" stroke="#00a5ff" stroke-miterlimit="10" stroke-width="0.1"/>
  <circle cx="36" cy="36" r="29" fill="none" stroke="#00a5ff" stroke-miterlimit="10" stroke-width="0.1"/>
  <path fill="none" stroke="#fff" stroke-linecap="round" stroke-linejoin="round" stroke-miterlimit="10" stroke-width="6" d="M28.707 21.165c.15-.839.256-1.624.44-2.39a5.948 5.948 0 01.562-1.524 1.222 1.222 0 012.108-.163 2.692 2.692 0 01.587 1.103 40.89 40.89 0 01.832 4.978 3.236 3.236 0 01-3.133 3.554c-.624.073-1.256.079-1.92.117-.027.272-.054.566-.086.859a2.96 2.96 0 01-1.532 2.388c-.344.194-.389.376-.32.748a5.888 5.888 0 01-1.5 5.572 7.52 7.52 0 01.35 6.327 1.701 1.701 0 00.265 1.927c1.01 1.307 1.16 2.07 1.261 4.458.477.167.952.348 1.439.492a.603.603 0 00.43-.078A6.17 6.17 0 0135 49.15a.451.451 0 00.405-.03 6 6 0 017.402.061l2.83-1.36a6.333 6.333 0 01.862-5.48c-.21-.36-.42-.686-.593-1.03a4.395 4.395 0 01-.027-3.922.685.685 0 00.004-.582 5.698 5.698 0 01-1.275-5.32 1.183 1.183 0 00-.2-1.014 5.805 5.805 0 01-1.058-4.198 3.866 3.866 0 012.519-3.022 6.798 6.798 0 014.395-.376 4.45 4.45 0 013.225 4.932 2.056 2.056 0 00.49 1.81 4.956 4.956 0 01.996 4.801.848.848 0 00.118.606 5.576 5.576 0 01.385 5.67c-.146.3-.022.45.11.648a4.94 4.94 0 01-.118 5.69 1.53 1.53 0 00-.303 1.658c.858 2.94-.577 5.604-3.35 6.274a3.924 3.924 0 00-1.354.635 6.918 6.918 0 01-7.373.747.968.968 0 00-.719.033 7.444 7.444 0 01-6.86-.014.781.781 0 00-.61.063 6.763 6.763 0 01-6.045.477 3.49 3.49 0 00-2.671-.21 4.796 4.796 0 01-4.712-1.316 2.07 2.07 0 00-.701-.428c-3.144-1.02-4.237-2.86-3.515-6.093a2.285 2.285 0 00-.359-1.989 7.2 7.2 0 01-.846-6.741.912.912 0 00.053-.504 6.149 6.149 0 011.18-5.375 1.072 1.072 0 00.154-.758 5.15 5.15 0 012.145-5.554 1.056 1.056 0 00.47-.864 5.99 5.99 0 011.17-3.228 4.434 4.434 0 012.342-1.538 9.678 9.678 0 001.466-.541 5.742 5.742 0 013.675-.602z"/>
  <path fill="#e67a94" d="M28.707 21.165c.15-.839.256-1.624.44-2.39a5.948 5.948 0 01.562-1.524 1.222 1.222 0 012.108-.163 2.692 2.692 0 01.587 1.103 40.89 40.89 0 01.832 4.978 3.236 3.236 0 01-3.133 3.554c-.624.073-1.256.079-1.92.117-.027.272-.054.566-.086.859a2.96 2.96 0 01-1.532 2.388c-.344.194-.389.376-.32.748a5.888 5.888 0 01-1.5 5.572 7.52 7.52 0 01.35 6.327 1.701 1.701 0 00.265 1.927c1.01 1.307 1.16 2.07 1.261 4.458.477.167.952.348 1.439.492a.603.603 0 00.43-.078A6.17 6.17 0 0135 49.15a.451.451 0 00.405-.03 6 6 0 017.402.061l2.83-1.36a6.333 6.333 0 01.862-5.48c-.21-.36-.42-.686-.593-1.03a4.395 4.395 0 01-.027-3.922.685.685 0 00.004-.582 5.698 5.698 0 01-1.275-5.32 1.183 1.183 0 00-.2-1.014 5.805 5.805 0 01-1.058-4.198 3.866 3.866 0 012.519-3.022 6.798 6.798 0 014.395-.376 4.45 4.45 0 013.225 4.932 2.056 2.056 0 00.49 1.81 4.956 4.956 0 01.996 4.801.848.848 0 00.118.606 5.576 5.576 0 01.385 5.67c-.146.3-.022.45.11.648a4.94 4.94 0 01-.118 5.69 1.53 1.53 0 00-.303 1.658c.858 2.94-.577 5.604-3.35 6.274a3.924 3.924 0 00-1.354.635 6.918 6.918 0 01-7.373.747.968.968 0 00-.719.033 7.444 7.444 0 01-6.86-.014.781.781 0 00-.61.063 6.763 6.763 0 01-6.045.477 3.49 3.49 0 00-2.671-.21 4.796 4.796 0 01-4.712-1.316 2.07 2.07 0 00-.701-.428c-3.144-1.02-4.237-2.86-3.515-6.093a2.285 2.285 0 00-.359-1.989 7.2 7.2 0 01-.846-6.741.912.912 0 00.053-.504 6.149 6.149 0 011.18-5.375 1.072 1.072 0 00.154-.758 5.15 5.15 0 012.145-5.554 1.056 1.056 0 00.47-.864 5.99 5.99 0 011.17-3.228 4.434 4.434 0 012.342-1.538 9.678 9.678 0 001.466-.541 5.742 5.742 0 013.675-.602z"/>
  <path fill="none" stroke="#000" stroke-linecap="round" stroke-linejoin="round" stroke-width="2" d="M28.707 21.165c.15-.839.256-1.624.44-2.39a5.948 5.948 0 01.562-1.524 1.222 1.222 0 012.108-.163 2.692 2.692 0 01.587 1.103 40.89 40.89 0 01.832 4.978 3.236 3.236 0 01-3.133 3.554c-.624.073-1.256.079-1.92.117-.027.272-.054.566-.086.859a2.96 2.96 0 01-1.532 2.388c-.344.194-.389.376-.32.748a5.888 5.888 0 01-1.5 5.572 7.52 7.52 0 01.35 6.327 1.701 1.701 0 00.265 1.927c1.01 1.307 1.16 2.07 1.261 4.458.477.167.952.348 1.439.492a.603.603 0 00.43-.078A6.17 6.17 0 0135 49.15a.451.451 0 00.405-.03 6 6 0 017.402.061l2.83-1.36a6.333 6.333 0 01.862-5.48c-.21-.36-.42-.686-.593-1.03a4.395 4.395 0 01-.027-3.922.685.685 0 00.004-.582 5.698 5.698 0 01-1.275-5.32 1.183 1.183 0 00-.2-1.014 5.805 5.805 0 01-1.058-4.198 3.866 3.866 0 012.519-3.022 6.798 6.798 0 014.395-.376 4.45 4.45 0 013.225 4.932 2.056 2.056 0 00.49 1.81 4.956 4.956 0 01.996 4.801.848.848 0 00.118.606 5.576 5.576 0 01.385 5.67c-.146.3-.022.45.11.648a4.94 4.94 0 01-.118 5.69 1.53 1.53 0 00-.303 1.658c.858 2.94-.577 5.604-3.35 6.274a3.924 3.924 0 00-1.354.635 6.918 6.918 0 01-7.373.747.968.968 0 00-.719.033 7.444 7.444 0 01-6.86-.014.781.781 0 00-.61.063 6.763 6.763 0 01-6.045.477 3.49 3.49 0 00-2.671-.21 4.796 4.796 0 01-4.712-1.316 2.07 2.07 0 00-.701-.428c-3.144-1.02-4.237-2.86-3.515-6.093a2.285 2.285 0 00-.359-1.989 7.2 7.2 0 01-.846-6.741.912.912 0 00.053-.504 6.149 6.149 0 011.18-5.375 1.072 1.072 0 00.154-.758 5.15 5.15 0 012.145-5.554 1.056 1.056 0 00.47-.864 5.99 5.99 0 011.17-3.228 4.434 4.434 0 012.342-1.538 9.678 9.678 0 001.466-.541 5.742 5.742 0 013.675-.602z"/>
</svg>
