<svg viewBox="0 0 72 72" xmlns="http://www.w3.org/2000/svg">
  <path fill="#b3b3b3" d="M68 4v64H4V4h64m4-4H0v72h72V0z"/>
  <path fill="none" stroke="#00a5ff" stroke-miterlimit="10" stroke-width="0.1" d="M12.923 10.958h46.154A1.923 1.923 0 0161 12.881v46.154a1.923 1.923 0 01-1.923 1.923H12.923A1.923 1.923 0 0111 59.035V12.881a1.923 1.923 0 011.923-1.923z"/>
  <rect x="16" y="4" rx="2.254" width="40" height="64" fill="none" stroke="#00a5ff" stroke-miterlimit="10" stroke-width="0.1"/>
  <rect x="16" y="4" rx="2.254" width="40" height="64" transform="rotate(90 36 36)" fill="none" stroke="#00a5ff" stroke-miterlimit="10" stroke-width="0.1"/>
  <circle cx="36" cy="36" r="29" fill="none" stroke="#00a5ff" stroke-miterlimit="10" stroke-width="0.1"/>
  <g fill="none" stroke="#fff" stroke-linecap="round" stroke-linejoin="round" stroke-miterlimit="10" stroke-width="6">
    <path d="M30.325 22.817C34.95 5.275 65.2 11.067 53.888 39.15c-14.592 35.792-31.875 25-28.813 13.323"/>
    <path d="M39.303 31.192c4.439 7 7.397 13.542 1.397 16.25-1.397.574-2.876.413-4.382 1.174-1.534.722-1.82 1.326-3.639 3.284-2.562 2.063-5.77-1.546-3.958-3.687 3.073-3.396 6.448-3.927 4.667-7.208-1.219-2.205-.406-5.282 3.5-4.157m-3.006-9.718c3.975-15.875 24.833-10.258 15.24 11.118m-23.821-11.55l-3.226-3.134 2.672-1.262-4.053-3.937m-8.906 23.728l4.378-1.03-.377 2.932 5.5-1.294m.367-10.19l-4.331-1.209.255 2.945-5.442-1.52"/>
  </g>
  <path fill="#d0cfce" d="M29.307 22.94C33.932 5.399 65.2 10.192 53.912 38.857c-14.592 35.792-32.792 24.677-29.73 13"/>
  <path fill="#9b9b9a" d="M49.888 38.806C53.55 16.93 35.325 21.567 33.882 27.13c3.974-15.875 24.092-9.593 16.006 11.677zm-11.525-7.98c4.439 7 8.337 13.908 2.337 16.616-1.397.574-2.876.413-4.382 1.174-1.534.722-1.82 1.326-3.639 3.284-2.562 2.063-5.77-1.546-3.958-3.687 3.073-3.396 6.448-3.927 4.667-7.208-1.219-2.205.496-5.028 4.402-3.903"/>
  <g fill="none" stroke="#000" stroke-linecap="round" stroke-linejoin="round" stroke-width="2">
    <path d="M30.325 22.817C34.95 5.275 65.2 11.067 53.888 39.15c-14.592 35.792-31.875 25-28.813 13.323"/>
    <path d="M39.303 31.192c4.439 7 7.397 13.542 1.397 16.25-1.397.574-2.876.413-4.382 1.174-1.534.722-1.82 1.326-3.639 3.284-2.562 2.063-5.77-1.546-3.958-3.687 3.073-3.396 6.448-3.927 4.667-7.208-1.219-2.205-.406-5.282 3.5-4.157m-3.006-9.718c3.975-15.875 24.833-10.258 15.24 11.118m-23.821-11.55l-3.226-3.134 2.672-1.262-4.053-3.937m-8.906 23.728l4.378-1.03-.377 2.932 5.5-1.294m.367-10.19l-4.331-1.209.255 2.945-5.442-1.52"/>
  </g>
  <g fill="none" stroke="#d22f27" stroke-linecap="round" stroke-linejoin="round" stroke-width="2">
    <path d="M25.301 26.698l-3.226-3.134 2.672-1.262-4.053-3.937m-8.906 23.728l4.378-1.03-.377 2.932 5.5-1.294m.367-10.19l-4.331-1.209.255 2.945-5.442-1.52"/>
  </g>
</svg>
