<svg viewBox="0 0 72 72" xmlns="http://www.w3.org/2000/svg">
  <path fill="#b3b3b3" d="M68 4v64H4V4h64m4-4H0v72h72V0z"/>
  <rect x="11" y="10.958" rx="1.923" width="50" height="50" fill="none" stroke="#00a5ff" stroke-miterlimit="10" stroke-width="0.1"/>
  <rect x="16" y="4" rx="2.254" width="40" height="64" fill="none" stroke="#00a5ff" stroke-miterlimit="10" stroke-width="0.1"/>
  <rect x="16" y="4" rx="2.254" width="40" height="64" transform="rotate(90 36 36)" fill="none" stroke="#00a5ff" stroke-miterlimit="10" stroke-width="0.1"/>
  <circle cx="36" cy="36" r="29" fill="none" stroke="#00a5ff" stroke-miterlimit="10" stroke-width="0.1"/>
  <g fill="none" stroke="#fff" stroke-linecap="round" stroke-linejoin="round" stroke-miterlimit="10" stroke-width="6">
    <path d="M46.894 34.519H16v5.965h40.286V30.072l-9.392 4.447z"/>
    <path d="M28.315 34.052V32.31a2.119 2.119 0 012.119-2.119h11.419a2.119 2.119 0 012.118 2.119v1.742"/>
    <circle cx="24.34" cy="53.078" r="2.921"/>
    <circle cx="48.172" cy="53.078" r="2.921"/>
    <path d="M45.01 40.652L27.011 51.598m1.688-10.946L45.01 51.988m-17.749 1.09H45.25"/>
  </g>
  <path fill="#92d3f5" d="M46.894 34.519H16v5.965h40.286V30.072l-9.392 4.447z"/>
  <g fill="none" stroke="#000" stroke-width="2">
    <path stroke-linecap="round" stroke-linejoin="round" d="M46.894 34.519H16v5.965h40.286V30.072l-9.392 4.447z"/>
    <path stroke-linecap="round" stroke-linejoin="round" d="M28.315 34.052V32.31a2.119 2.119 0 012.119-2.119h11.419a2.119 2.119 0 012.118 2.119v1.742"/>
    <circle cx="24.34" cy="53.078" r="2.921" stroke-linecap="round" stroke-linejoin="round"/>
    <circle cx="48.172" cy="53.078" r="2.921" stroke-linecap="round" stroke-linejoin="round"/>
    <path stroke-miterlimit="10" d="M45.01 40.652L27.011 51.598m1.688-10.946L45.01 51.988m-17.749 1.09H45.25"/>
  </g>
</svg>
