<svg viewBox="0 0 72 72" xmlns="http://www.w3.org/2000/svg">
  <path fill="#b3b3b3" d="M68 4v64H4V4h64m4-4H0v72h72V0z"/>
  <rect x="11" y="10.958" rx="1.923" width="50" height="50" fill="none" stroke="#00a5ff" stroke-miterlimit="10" stroke-width="0.1"/>
  <rect x="16" y="4" rx="2.254" width="40" height="64" fill="none" stroke="#00a5ff" stroke-miterlimit="10" stroke-width="0.1"/>
  <rect x="16" y="4" rx="2.254" width="40" height="64" transform="rotate(90 36 36)" fill="none" stroke="#00a5ff" stroke-miterlimit="10" stroke-width="0.1"/>
  <circle cx="36" cy="36" r="29" fill="none" stroke="#00a5ff" stroke-miterlimit="10" stroke-width="0.1"/>
  <g fill="none" stroke="#fff" stroke-linecap="round" stroke-linejoin="round" stroke-miterlimit="10" stroke-width="6">
    <path d="M44.275 23.342h4.948a4.071 4.071 0 014.071 4.072v24.605a4.071 4.071 0 01-4.071 4.071H22.255a4.071 4.071 0 01-4.072-4.071V27.414a4.071 4.071 0 014.072-4.072h6.375"/>
    <circle cx="36.062" cy="23.279" r="7.279"/>
    <path d="M38.39 18.944a.622.622 0 00-.834.278l-1.89 3.782a1.146 1.146 0 00-1.014.813 1.182 1.182 0 002.269.659 1.123 1.123 0 00-.14-.922l1.887-3.776a.622.622 0 00-.278-.834z"/>
    <path d="M46.127 24.048a8.14 8.14 0 01.11 1.332c0 5.019-4.59 9.087-10.25 9.087S25.74 30.4 25.74 25.38a8.137 8.137 0 01.141-1.514"/>
  </g>
  <path fill="#92d3f5" stroke="#000" stroke-linecap="round" stroke-linejoin="round" stroke-width="2" d="M43.275 23.342h5.948a4.071 4.071 0 014.071 4.072v24.605a4.071 4.071 0 01-4.071 4.071H22.255a4.071 4.071 0 01-4.072-4.071V27.414a4.071 4.071 0 014.072-4.072h6.375"/>
  <circle cx="36.062" cy="23.279" r="7.279" fill="#fff"/>
  <g>
    <path fill="none" stroke="#000" stroke-linecap="round" stroke-linejoin="round" stroke-width="2" d="M44.275 23.342h4.948a4.071 4.071 0 014.071 4.072v24.605a4.071 4.071 0 01-4.071 4.071H22.255a4.071 4.071 0 01-4.072-4.071V27.414a4.071 4.071 0 014.072-4.072h6.375"/>
    <circle cx="36.062" cy="23.279" r="7.279" fill="none" stroke="#000" stroke-linecap="round" stroke-linejoin="round" stroke-width="2"/>
    <path d="M38.39 18.944a.622.622 0 00-.834.278l-1.89 3.782a1.146 1.146 0 00-1.014.813 1.182 1.182 0 002.269.659 1.123 1.123 0 00-.14-.922l1.887-3.776a.622.622 0 00-.278-.834z"/>
    <path fill="none" stroke="#000" stroke-linecap="round" stroke-linejoin="round" stroke-width="2" d="M46.127 24.048a8.14 8.14 0 01.11 1.332c0 5.019-4.59 9.087-10.25 9.087S25.74 30.4 25.74 25.38a8.137 8.137 0 01.141-1.514"/>
  </g>
</svg>
