<svg viewBox="0 0 72 72" xmlns="http://www.w3.org/2000/svg"><path fill="#B3B3B3" d="M68 4v64H4V4h64m4-4H0v72h72V0z"/><path fill="none" stroke="#00A5FF" stroke-miterlimit="10" stroke-width=".1" d="M12.923 10.958h46.154c1.062 0 1.923.861 1.923 1.923h0v46.154a1.923 1.923 0 01-1.923 1.923H12.923A1.923 1.923 0 0111 59.035h0V12.881c0-1.062.861-1.923 1.923-1.923h0z"/><path fill="none" stroke="#00A5FF" stroke-miterlimit="10" stroke-width=".1" d="M18.254 4h35.492A2.254 2.254 0 0156 6.254v59.492A2.254 2.254 0 0153.746 68H18.254A2.254 2.254 0 0116 65.746V6.254A2.254 2.254 0 0118.254 4z"/><path fill="none" stroke="#00A5FF" stroke-miterlimit="10" stroke-width=".1" d="M68 18.254v35.492A2.254 2.254 0 0165.746 56H6.254A2.254 2.254 0 014 53.746V18.254A2.254 2.254 0 016.254 16h59.492A2.254 2.254 0 0168 18.254z"/><circle cx="36" cy="36" r="29" fill="none" stroke="#00A5FF" stroke-miterlimit="10" stroke-width=".1"/><g stroke-linecap="round" stroke-miterlimit="10" stroke-width="6" stroke="#fff" fill="none" stroke-linejoin="round"><path d="M50.607 41.866c0 1.6-.29 3.11-.87 4.49-12.52 3.04-25.47.33-27.5-.13-.55-1.35-.83-2.82-.83-4.36h.11s14.81 3.59 28.89.07l.2-.07z"/><path d="M49.737 46.356c-1.79 4.27-6.35 7.23-13.7 7.23-7.41 0-12.03-3.03-13.8-7.36 2.03.46 14.98 3.17 27.5.13zm.49-.12l-.49.12m-27.5-.13c-.19-.05-.28-.07-.28-.07M46.554 15.56A22.902 22.902 0 0036 13a22.9 22.9 0 00-11.076 2.837"/><path d="M13.194 32.995A23.215 23.215 0 0013 36c0 12.702 10.297 23 23 23 12.702 0 23-10.298 23-23 0-1.007-.065-2-.19-2.973"/><path d="M25.118 21.237l7.986-1.2-3.905 7.069 3.61 7.224-7.93-1.53-5.755 5.666-.996-8.014-7.167-3.723 7.314-3.424 1.326-7.966zm21.764 0l-7.986-1.2 3.905 7.069-3.61 7.224 7.93-1.53 5.755 5.666.996-8.014 7.167-3.723-7.314-3.424-1.326-7.966z"/></g><circle cx="36" cy="36" r="24" fill="#FCEA2B"/><path fill="#F1B31C" d="M25.042 21.237l7.986-1.2-3.904 7.069 3.61 7.224-7.93-1.53-5.755 5.666-.997-8.014-7.166-3.723 7.314-3.424 1.326-7.966zm21.84 0l-7.986-1.2 3.905 7.069-3.61 7.224 7.93-1.53 5.755 5.666.996-8.014 7.167-3.723-7.314-3.424-1.326-7.966z"/><path fill="#EA5A47" d="M49.737 46.356c-1.79 4.27-6.35 7.23-13.7 7.23-7.41 0-12.03-3.03-13.8-7.36 2.03.46 14.98 3.17 27.5.13z"/><path fill="#FFF" d="M50.607 41.866c0 1.6-.29 3.11-.87 4.49-12.52 3.04-25.47.33-27.5-.13-.55-1.35-.83-2.82-.83-4.36h.11s14.81 3.59 28.89.07l.2-.07z"/><g fill="none" stroke="#000" stroke-linejoin="round" stroke-miterlimit="10" stroke-width="2"><path stroke-linecap="round" d="M50.607 41.866c0 1.6-.29 3.11-.87 4.49-12.52 3.04-25.47.33-27.5-.13-.55-1.35-.83-2.82-.83-4.36h.11s14.81 3.59 28.89.07l.2-.07z"/><path d="M49.737 46.356c-1.79 4.27-6.35 7.23-13.7 7.23-7.41 0-12.03-3.03-13.8-7.36 2.03.46 14.98 3.17 27.5.13zm.49-.12l-.49.12m-27.5-.13c-.19-.05-.28-.07-.28-.07"/><path stroke-linecap="round" d="M46.554 15.56A22.902 22.902 0 0036 13a22.9 22.9 0 00-11.076 2.837m-11.73 17.158A23.215 23.215 0 0013 36c0 12.702 10.297 23 23 23 12.702 0 23-10.298 23-23 0-1.007-.065-2-.19-2.973"/><path stroke-linecap="round" d="M25.118 21.237l7.986-1.2-3.905 7.069 3.61 7.224-7.93-1.53-5.755 5.666-.996-8.014-7.167-3.723 7.314-3.424 1.326-7.966zm21.764 0l-7.986-1.2 3.905 7.069-3.61 7.224 7.93-1.53 5.755 5.666.996-8.014 7.167-3.723-7.314-3.424-1.326-7.966z"/></g></svg>