<svg viewBox="0 0 72 72" xmlns="http://www.w3.org/2000/svg"><path fill="#b3b3b3" d="M68 4v64H4V4h64m4-4H0v72h72V0z"/><path fill="none" stroke="#00a5ff" stroke-miterlimit="10" stroke-width=".1" d="M12.923 10.958h46.154A1.923 1.923 0 0161 12.881v46.154a1.923 1.923 0 01-1.923 1.923H12.923A1.923 1.923 0 0111 59.035V12.881a1.923 1.923 0 011.923-1.923z"/><rect x="16" y="4" rx="2.254" width="40" height="64" fill="none" stroke="#00a5ff" stroke-miterlimit="10" stroke-width=".1"/><rect x="16" y="4" rx="2.254" width="40" height="64" transform="rotate(90 36 36)" fill="none" stroke="#00a5ff" stroke-miterlimit="10" stroke-width=".1"/><circle cx="36" cy="36" r="29" fill="none" stroke="#00a5ff" stroke-miterlimit="10" stroke-width=".1"/><g stroke-linecap="round" stroke-miterlimit="10" stroke-width="6" stroke="#fff" fill="none" stroke-linejoin="round"><circle cx="36" cy="36" r="23"/><path d="M44.152 45.768a20.04 20.04 0 01-17.967-.839M30 31a3 3 0 11-3-3 3.001 3.001 0 013 3m18 0a3 3 0 11-3-3 3.001 3.001 0 013 3"/><path d="M44.542 46.217a3.638 3.638 0 01-1.106-2.576c-.04-3.221 2.966-6.34 3.093-6.472a.69.69 0 01.975-.012c.131.128 3.214 3.171 3.256 6.392h0a3.663 3.663 0 01-6.219 2.668z"/></g><circle cx="36" cy="36" r="23" fill="#fcea2b"/><path fill="#92d3f5" d="M44.542 46.217a3.638 3.638 0 01-1.106-2.576c-.04-3.221 2.966-6.34 3.093-6.472a.69.69 0 01.975-.012c.131.128 3.214 3.171 3.256 6.392a3.663 3.663 0 01-6.219 2.668z"/><g><circle cx="36" cy="36" r="23" fill="none" stroke="#000" stroke-linecap="round" stroke-linejoin="round" stroke-width="2"/><path fill="none" stroke="#000" stroke-linecap="round" stroke-linejoin="round" stroke-width="2" d="M44.152 45.768a20.04 20.04 0 01-17.967-.839"/><path d="M30 31a3 3 0 11-3-3 3.001 3.001 0 013 3m18 0a3 3 0 11-3-3 3.001 3.001 0 013 3"/><path fill="none" stroke="#000" stroke-miterlimit="10" stroke-width="2" d="M44.542 46.217a3.638 3.638 0 01-1.106-2.576c-.04-3.221 2.966-6.34 3.093-6.472a.69.69 0 01.975-.012c.131.128 3.214 3.171 3.256 6.392h0a3.663 3.663 0 01-6.219 2.668z"/></g></svg>