<svg viewBox="0 0 72 72" xmlns="http://www.w3.org/2000/svg"><path fill="#b3b3b3" d="M68 4v64H4V4h64m4-4H0v72h72V0z"/><path fill="none" stroke="#00a5ff" stroke-miterlimit="10" stroke-width=".1" d="M12.923 10.958h46.154A1.923 1.923 0 0161 12.881v46.154a1.923 1.923 0 01-1.923 1.923H12.923A1.923 1.923 0 0111 59.035V12.881a1.923 1.923 0 011.923-1.923z"/><rect x="16" y="4" rx="2.254" width="40" height="64" fill="none" stroke="#00a5ff" stroke-miterlimit="10" stroke-width=".1"/><rect x="16" y="4" rx="2.254" width="40" height="64" transform="rotate(90 36 36)" fill="none" stroke="#00a5ff" stroke-miterlimit="10" stroke-width=".1"/><circle cx="36" cy="36" r="29" fill="none" stroke="#00a5ff" stroke-miterlimit="10" stroke-width=".1"/><g stroke-linecap="round" stroke-miterlimit="10" stroke-width="6" stroke="#fff" fill="none" stroke-linejoin="round"><rect x="23.21" y="27.93" rx="4.644" width="25.579" height="16.709"/><circle cx="29.04" cy="33.058" r="2.046"/><circle cx="36.086" cy="33.058" r="2.046"/><circle cx="43.133" cy="33.058" r="2.046"/><circle cx="29.04" cy="39.684" r="2.046"/><circle cx="36.086" cy="39.684" r="2.046"/><circle cx="43.133" cy="39.684" r="2.046"/></g><rect x="23.21" y="27.93" rx="4.644" width="25.579" height="16.709" fill="#92d3f5"/><circle cx="29.04" cy="33.058" r="2.046" fill="#9b9b9a"/><circle cx="36.086" cy="33.058" r="2.046" fill="#d0cfce"/><circle cx="43.133" cy="33.058" r="2.046" fill="#d0cfce"/><circle cx="29.04" cy="39.684" r="2.046" fill="#d0cfce"/><circle cx="36.086" cy="39.684" r="2.046" fill="#d0cfce"/><circle cx="43.133" cy="39.684" r="2.046" fill="#d0cfce"/><path fill="#d0cfce" d="M27.561 31.185h1.48v3.688h-1.48z"/><path fill="#9b9b9a" d="M36.086 31.185h1.48v3.688h-1.48zm7.047 0h1.48v3.688h-1.48zm0 6.655h1.48v3.688h-1.48zm-7.047 0h1.48v3.688h-1.48zm-7.046 0h1.48v3.688h-1.48z"/><g fill="none" stroke="#000" stroke-linecap="round" stroke-linejoin="round"><rect x="23.21" y="27.93" rx="4.644" width="25.579" height="16.709" stroke-width="2"/><circle cx="29.04" cy="33.058" r="2.046" stroke-width="1.7"/><circle cx="36.086" cy="33.058" r="2.046" stroke-width="1.7"/><circle cx="43.133" cy="33.058" r="2.046" stroke-width="1.7"/><circle cx="29.04" cy="39.684" r="2.046" stroke-width="1.7"/><circle cx="36.086" cy="39.684" r="2.046" stroke-width="1.7"/><circle cx="43.133" cy="39.684" r="2.046" stroke-width="1.7"/></g></svg>