<svg viewBox="0 0 72 72" xmlns="http://www.w3.org/2000/svg"><path fill="#B3B3B3" d="M68 4v64H4V4h64m4-4H0v72h72V0z"/><path fill="none" stroke="#00A5FF" stroke-miterlimit="10" stroke-width=".1" d="M12.923 10.958h46.154c1.062 0 1.923.861 1.923 1.923v46.154a1.923 1.923 0 01-1.923 1.923H12.923A1.923 1.923 0 0111 59.035h0V12.881c0-1.062.861-1.923 1.923-1.923h0z"/><path fill="none" stroke="#00A5FF" stroke-miterlimit="10" stroke-width=".1" d="M18.254 4h35.492A2.254 2.254 0 0156 6.254v59.492A2.254 2.254 0 0153.746 68H18.254A2.254 2.254 0 0116 65.746V6.254A2.254 2.254 0 0118.254 4z"/><path fill="none" stroke="#00A5FF" stroke-miterlimit="10" stroke-width=".1" d="M68 18.254v35.492A2.254 2.254 0 0165.746 56H6.254A2.254 2.254 0 014 53.746V18.254A2.254 2.254 0 016.254 16h59.492A2.254 2.254 0 0168 18.254z"/><circle cx="36" cy="36" r="29" fill="none" stroke="#00A5FF" stroke-miterlimit="10" stroke-width=".1"/><g stroke-linecap="round" stroke-miterlimit="10" stroke-width="6" stroke="#fff" fill="none" stroke-linejoin="round"><path d="M27.706 40.901h6.74v6.74h4.744v-6.74h6.74v-4.744h-6.74v-6.74h-4.744v6.74h-6.74zM18.94 18.694h2.858c.513 0 .929.415.929.928v1.831a.928.928 0 01-.929.929H18.94a.928.928 0 01-.928-.929v-1.831c0-.513.415-.928.928-.928zm32.292 0h2.86c.512 0 .928.415.928.928v1.831a.928.928 0 01-.929.929h-2.859a.928.928 0 01-.928-.929v-1.831c0-.513.416-.928.928-.928z"/><path d="M11 21.335h50v34.388H11zm17.151 0v-2.991c0-1.141.926-2.067 2.067-2.067h11.564c1.141 0 2.067.925 2.067 2.067v2.991"/><path d="M39.19 29.417v6.74h6.74V40.9h-6.74v6.74h-4.744V40.9h-6.74v-4.744h6.74v-6.74h4.744m0-2h-4.744a2 2 0 00-2 2v4.74h-4.74a2 2 0 00-2 2V40.9a2 2 0 002 2h4.74v4.74a2 2 0 002 2h4.744a2 2 0 002-2V42.9h4.74a2 2 0 002-2v-4.744a2 2 0 00-2-2h-4.74v-4.74a2 2 0 00-2-2zm-20.25-8.722h2.858c.513 0 .929.415.929.928v1.831a.928.928 0 01-.929.929H18.94a.928.928 0 01-.928-.929v-1.831c0-.513.415-.928.928-.928zm32.292 0h2.86c.512 0 .928.415.928.928v1.831a.928.928 0 01-.929.929h-2.859a.928.928 0 01-.928-.929v-1.831c0-.513.416-.928.928-.928z"/></g><path fill="#D0CFCE" d="M11 21.306h50v34.388H11z"/><path fill="#D22F27" d="M27.706 40.872h6.74v6.74h4.744v-6.74h6.74v-4.744h-6.74v-6.74h-4.744v6.74h-6.74z"/><g><path fill="none" d="M27.706 40.901h6.74v6.74h4.744v-6.74h6.74v-4.744h-6.74v-6.74h-4.744v6.74h-6.74zM18.94 18.694h2.858c.513 0 .929.415.929.928v1.831a.928.928 0 01-.929.929H18.94a.928.928 0 01-.928-.929v-1.831c0-.513.415-.928.928-.928zm32.292 0h2.86c.512 0 .928.415.928.928v1.831a.928.928 0 01-.929.929h-2.859a.928.928 0 01-.928-.929v-1.831c0-.513.416-.928.928-.928z"/><path fill="none" stroke="#000" stroke-linecap="round" stroke-linejoin="round" stroke-width="2" d="M11 21.335h50v34.388H11zm17.151 0v-2.991c0-1.141.926-2.067 2.067-2.067h11.564c1.141 0 2.067.925 2.067 2.067v2.991"/><path d="M39.19 29.417v6.74h6.74V40.9h-6.74v6.74h-4.744V40.9h-6.74v-4.744h6.74v-6.74h4.744m0-2h-4.744a2 2 0 00-2 2v4.74h-4.74a2 2 0 00-2 2V40.9a2 2 0 002 2h4.74v4.74a2 2 0 002 2h4.744a2 2 0 002-2V42.9h4.74a2 2 0 002-2v-4.744a2 2 0 00-2-2h-4.74v-4.74a2 2 0 00-2-2zm-20.25-8.722h2.858c.513 0 .929.415.929.928v1.831a.928.928 0 01-.929.929H18.94a.928.928 0 01-.928-.929v-1.831c0-.513.415-.928.928-.928zm32.292 0h2.86c.512 0 .928.415.928.928v1.831a.928.928 0 01-.929.929h-2.859a.928.928 0 01-.928-.929v-1.831c0-.513.416-.928.928-.928z"/></g></svg>