<svg viewBox="0 0 72 72" xmlns="http://www.w3.org/2000/svg"><path fill="#b3b3b3" d="M68 4v64H4V4h64m4-4H0v72h72V0z"/><path fill="none" stroke="#00a5ff" stroke-miterlimit="10" stroke-width=".1" d="M12.923 10.958h46.154A1.923 1.923 0 0161 12.881v46.154a1.923 1.923 0 01-1.923 1.923H12.923A1.923 1.923 0 0111 59.035V12.881a1.923 1.923 0 011.923-1.923z"/><rect x="16" y="4" rx="2.254" width="40" height="64" fill="none" stroke="#00a5ff" stroke-miterlimit="10" stroke-width=".1"/><rect x="16" y="4" rx="2.254" width="40" height="64" transform="rotate(90 36 36)" fill="none" stroke="#00a5ff" stroke-miterlimit="10" stroke-width=".1"/><circle cx="36" cy="36" r="29" fill="none" stroke="#00a5ff" stroke-miterlimit="10" stroke-width=".1"/><g stroke-linecap="round" stroke-miterlimit="10" stroke-width="6" stroke="#fff" fill="none" stroke-linejoin="round"><path d="M35.352 16.135H21.614a5.631 5.631 0 00-5.631 5.631V38.29a5.631 5.631 0 005.63 5.631h1.365c3.13.46 3 4.3 3 4.3h5.66s-.13-3.84 3-4.3h.714a5.631 5.631 0 005.631-5.631V21.766a5.631 5.631 0 00-5.63-5.63z"/><path d="M24.018 48.22h9.36v4.777h-9.36zm4.68 4.777v12.032M15.983 36.285h8.035m-8.035-4.107h5.344m-5.344-4.108h8.035m-8.035-4.107h5.344M23.257 16l5.226-5.042 5.902 5.177"/><path d="M24.731 9.867a4.173 4.173 0 008.18 0H56v55.162"/><path d="M40.98 32.178v6.41a5.546 5.546 0 01-5.63 5.461h-.71c-3.13.447-3 4.171-3 4.171h-5.66s.13-3.724-3-4.17h-1.37a5.546 5.546 0 01-5.63-5.461v-6.411z"/></g><path fill="#92d3f5" d="M40.98 32.178v6.41a5.546 5.546 0 01-5.63 5.461h-.71c-3.13.447-3 4.171-3 4.171h-5.66s.13-3.724-3-4.17h-1.37a5.546 5.546 0 01-5.63-5.461v-6.411z"/><path fill="#d0cfce" d="M24.018 48.22h9.36v4.777h-9.36z"/><g fill="none" stroke="#000" stroke-linecap="round" stroke-linejoin="round" stroke-width="2"><path d="M35.352 16.135H21.614a5.631 5.631 0 00-5.631 5.631V38.29a5.631 5.631 0 005.63 5.631h1.365c3.13.46 3 4.3 3 4.3h5.66s-.13-3.84 3-4.3h.714a5.631 5.631 0 005.631-5.631V21.766a5.631 5.631 0 00-5.63-5.63z"/><path d="M24.018 48.22h9.36v4.777h-9.36zm4.68 4.777v12.032M15.983 36.285h8.035m-8.035-4.107h5.344m-5.344-4.108h8.035m-8.035-4.107h5.344M23.257 16l5.226-5.042 5.902 5.177"/><path d="M24.731 9.867a4.173 4.173 0 008.18 0H56v55.162"/><path d="M40.98 32.178v6.41a5.546 5.546 0 01-5.63 5.461h-.71c-3.13.447-3 4.171-3 4.171h-5.66s.13-3.724-3-4.17h-1.37a5.546 5.546 0 01-5.63-5.461v-6.411z"/></g></svg>