<svg viewBox="0 0 72 72" xmlns="http://www.w3.org/2000/svg"><path fill="#b3b3b3" d="M68 4v64H4V4h64m4-4H0v72h72V0z"/><path fill="none" stroke="#00a5ff" stroke-miterlimit="10" stroke-width=".1" d="M12.923 10.958h46.154A1.923 1.923 0 0161 12.881v46.154a1.923 1.923 0 01-1.923 1.923H12.923A1.923 1.923 0 0111 59.035V12.881a1.923 1.923 0 011.923-1.923z"/><rect x="16" y="4" rx="2.254" width="40" height="64" fill="none" stroke="#00a5ff" stroke-miterlimit="10" stroke-width=".1"/><rect x="16" y="4" rx="2.254" width="40" height="64" transform="rotate(90 36 36)" fill="none" stroke="#00a5ff" stroke-miterlimit="10" stroke-width=".1"/><circle cx="36" cy="36" r="29" fill="none" stroke="#00a5ff" stroke-miterlimit="10" stroke-width=".1"/><g stroke-linecap="round" stroke-miterlimit="10" stroke-width="6" stroke="#fff" fill="none" stroke-linejoin="round"><ellipse cx="31.584" cy="51.77" rx="3.729" ry="3.003" transform="rotate(-56.229 31.584 51.77)"/><path d="M30.583 48.93l-.3-2.169s-1.138.02-.587-.784l2.361-.28.34 2.46a3.2 3.2 0 00-1.814.773zm.638-2.777l6.867-13.439"/><ellipse cx="23.568" cy="47.537" rx="3.729" ry="3.003" transform="rotate(-62.651 23.568 47.537)"/><path d="M26.202 46.375l2.043-.785s.532 1.006.971.135l-.8-2.098-2.316.89a3.172 3.172 0 01.102 1.858zm2.138-1.727l8.953-12.761m9.73-12.61s4.32 2.918-.526 5.98l-5.893 3.108M44.32 18.11s-4.762-2.123-4.797 3.61l.481 6.645"/><rect x="37.289" y="27.319" rx="1.736" width="3.471" height="5.679" transform="rotate(30 39.025 30.158)"/></g><ellipse cx="31.584" cy="51.77" rx="3.729" ry="3.003" transform="rotate(-56.229 31.584 51.77)" fill="none" stroke="#000" stroke-miterlimit="10" stroke-width="2"/><path d="M30.583 48.93l-.3-2.169s-1.138.02-.587-.784l2.361-.28.34 2.46a3.2 3.2 0 00-1.814.773z"/><path fill="none" stroke="#000" stroke-linecap="round" stroke-linejoin="round" stroke-width="2" d="M31.221 46.153l6.867-13.439"/><ellipse cx="23.568" cy="47.537" rx="3.729" ry="3.003" transform="rotate(-62.651 23.568 47.537)" fill="none" stroke="#000" stroke-miterlimit="10" stroke-width="2"/><path d="M26.202 46.375l2.043-.785s.532 1.006.971.135l-.8-2.098-2.316.89a3.172 3.172 0 01.102 1.858z"/><path fill="none" stroke="#000" stroke-linecap="round" stroke-linejoin="round" stroke-width="2" d="M28.34 44.648l8.953-12.761m9.73-12.61s4.32 2.918-.526 5.98l-5.893 3.108M44.32 18.11s-4.762-2.123-4.797 3.61l.481 6.645"/><rect x="37.289" y="27.319" rx="1.736" width="3.471" height="5.679" transform="rotate(30 39.025 30.158)"/><g><circle cx="39.02" cy="30.132" r=".613" fill="#fff"/></g></svg>