<svg viewBox="0 0 72 72" xmlns="http://www.w3.org/2000/svg"><path fill="#B3B3B3" d="M68 4v64H4V4h64m4-4H0v72h72V0z"/><path fill="none" stroke="#00A5FF" stroke-miterlimit="10" stroke-width=".1" d="M12.923 10.958h46.154c1.062 0 1.923.861 1.923 1.923v46.154a1.923 1.923 0 01-1.923 1.923H12.923A1.923 1.923 0 0111 59.035h0V12.881c0-1.062.861-1.923 1.923-1.923h0z"/><path fill="none" stroke="#00A5FF" stroke-miterlimit="10" stroke-width=".1" d="M18.254 4h35.492A2.254 2.254 0 0156 6.254v59.492A2.254 2.254 0 0153.746 68H18.254A2.254 2.254 0 0116 65.746V6.254A2.254 2.254 0 0118.254 4z"/><path fill="none" stroke="#00A5FF" stroke-miterlimit="10" stroke-width=".1" d="M68 18.254v35.492A2.254 2.254 0 0165.746 56H6.254A2.254 2.254 0 014 53.746V18.254A2.254 2.254 0 016.254 16h59.492A2.254 2.254 0 0168 18.254z"/><circle cx="36" cy="36" r="29" fill="none" stroke="#00A5FF" stroke-miterlimit="10" stroke-width=".1"/><g stroke-linecap="round" stroke-miterlimit="10" stroke-width="6" stroke="#fff" fill="none" stroke-linejoin="round"><path d="M15.983 60.958v-6.697a8.53 8.53 0 01-.707-1.092c-2.919-5.405-.905-12.154 4.499-15.076a25.972 25.972 0 015.973-2.505 7.807 7.807 0 004.114-2.634 8.414 8.414 0 002.028-4.926s-.093-4.837 2.14-6.977c0 0-5.023-4.93-5.21-8.093"/><path d="M34.401 12.958s3.256 4.465 10.791 8.186c0 0 8.372 6.047 1.767 20.558 0 0-2.976 13.117-21.488 13.489-1.62.02-3.239-.105-4.837-.372v6.14"/><path d="M27.062 46.636a2.679 2.679 0 00-2.384 1.68c-.323.881-.079 1.875 2.189 2.329a8.697 8.697 0 008.63-1.53c.31-.276.658-.505 1.034-.68a11.39 11.39 0 004.135-2.882 1.596 1.596 0 00-.41-2.291 4.166 4.166 0 00-5.19.406s-2.246 2.644-8.004 2.968z"/></g><path fill="#FFA7C0" d="M36.813 15.513a36.108 36.108 0 008.379 5.631s8.372 6.047 1.767 20.559c0 0-2.976 13.116-21.488 13.488-1.62.02-3.239-.105-4.837-.372v6.234h-4.651V54.26a8.53 8.53 0 01-.707-1.092c-2.919-5.405-.905-12.154 4.499-15.076a25.972 25.972 0 015.973-2.505 7.807 7.807 0 004.114-2.634 8.413 8.413 0 002.028-4.926s-.093-4.837 2.14-6.977c0 0-4.44-5.367-5.47-8.448h5.823c.368.394 1.843 2.373 2.43 2.91z"/><path fill="#E67A94" d="M27.062 46.636a2.679 2.679 0 00-2.384 1.68c-.323.881-.079 1.875 2.189 2.329a8.697 8.697 0 008.63-1.53c.31-.276.658-.505 1.034-.68a11.39 11.39 0 004.135-2.882 1.596 1.596 0 00-.41-2.291 4.166 4.166 0 00-5.19.406s-2.246 2.644-8.004 2.968z"/><g fill="none" stroke="#000" stroke-linecap="round" stroke-linejoin="round" stroke-width="2"><path d="M15.983 60.958v-6.697a8.53 8.53 0 01-.707-1.092c-2.919-5.405-.905-12.154 4.499-15.076a25.972 25.972 0 015.973-2.505 7.807 7.807 0 004.114-2.634 8.414 8.414 0 002.028-4.926s-.093-4.837 2.14-6.977c0 0-5.023-4.93-5.21-8.093"/><path d="M34.401 12.958s3.256 4.465 10.791 8.186c0 0 8.372 6.047 1.767 20.558 0 0-2.976 13.117-21.488 13.489-1.62.02-3.239-.105-4.837-.372v6.14"/><path d="M27.062 46.636a2.679 2.679 0 00-2.384 1.68c-.323.881-.079 1.875 2.189 2.329a8.697 8.697 0 008.63-1.53c.31-.276.658-.505 1.034-.68a11.39 11.39 0 004.135-2.882 1.596 1.596 0 00-.41-2.291 4.166 4.166 0 00-5.19.406s-2.246 2.644-8.004 2.968z"/></g></svg>