<svg viewBox="0 0 72 72" xmlns="http://www.w3.org/2000/svg"><path fill="#B3B3B3" d="M68 4v64H4V4h64m4-4H0v72h72V0z"/><path fill="none" stroke="#00A5FF" stroke-miterlimit="10" stroke-width=".1" d="M12.923 10.958h46.154c1.062 0 1.923.861 1.923 1.923v46.154a1.923 1.923 0 01-1.923 1.923H12.923A1.923 1.923 0 0111 59.035h0V12.881c0-1.062.861-1.923 1.923-1.923h0z"/><path fill="none" stroke="#00A5FF" stroke-miterlimit="10" stroke-width=".1" d="M18.254 4h35.492A2.254 2.254 0 0156 6.254v59.492A2.254 2.254 0 0153.746 68H18.254A2.254 2.254 0 0116 65.746V6.254A2.254 2.254 0 0118.254 4z"/><path fill="none" stroke="#00A5FF" stroke-miterlimit="10" stroke-width=".1" d="M68 18.254v35.492A2.254 2.254 0 0165.746 56H6.254A2.254 2.254 0 014 53.746V18.254A2.254 2.254 0 016.254 16h59.492A2.254 2.254 0 0168 18.254z"/><circle cx="36" cy="36" r="29" fill="none" stroke="#00A5FF" stroke-miterlimit="10" stroke-width=".1"/><g stroke-linecap="round" stroke-miterlimit="10" stroke-width="6" stroke="#fff" fill="none" stroke-linejoin="round"><path d="M25.942 31.266a11.86 11.86 0 01-3.3-5.997c-.446-2.251-.284-4.934 2.187-6.594 0 0 10.439-7.388 19.593 0 0 0 11.08 6.825 9.394 24.65 0 0-.16 12.286-12.687 12.447 0 0-6.182 1.525-6.825-8.592.061-.942.06-1.888-.005-2.83a14.336 14.336 0 00-4.977-9.96 59.361 59.361 0 01-3.38-3.124zm9.045-2.193s-3.904 1.592-7.252.435"/><path d="M40.407 43.486s-6.906-.803-9.636-3.814c0 0-3.309-3.739-9.836 0l-6.778 2.337"/><path d="M36.788 33.69a2.59 2.59 0 00-.844 1.44 3.076 3.076 0 00.216 1.914c.338.786.785 2.584-.304 5.44m-21.699-.475l6.778-2.337s5.62-2.248 6.424-5.7c0 0-.322-6.023 2.087-7.308"/></g><g fill="#D22F27"><path d="M25.942 31.266a11.86 11.86 0 01-3.3-5.997c-.446-2.251-.284-4.934 2.187-6.594 0 0 10.439-7.388 19.593 0 0 0 11.08 6.825 9.394 24.65 0 0-.16 12.286-12.687 12.447 0 0-6.182 1.525-6.825-8.592.061-.942.06-1.888-.005-2.83a14.336 14.336 0 00-4.977-9.96 59.361 59.361 0 01-3.38-3.124z"/><path d="M25.942 31.266a11.86 11.86 0 01-3.3-5.997c-.446-2.251-.284-4.934 2.187-6.594 0 0 10.439-7.388 19.593 0 0 0 11.08 6.825 9.394 24.65 0 0-.16 12.286-12.687 12.447 0 0-6.182 1.525-6.825-8.592.061-.942.06-1.888-.005-2.83a14.336 14.336 0 00-4.977-9.96 59.361 59.361 0 01-3.38-3.124z"/></g><g fill="none" stroke="#000" stroke-width="2"><path stroke-miterlimit="10" d="M25.942 31.266a11.86 11.86 0 01-3.3-5.997c-.446-2.251-.284-4.934 2.187-6.594 0 0 10.439-7.388 19.593 0 0 0 11.08 6.825 9.394 24.65 0 0-.16 12.286-12.687 12.447 0 0-6.182 1.525-6.825-8.592.061-.942.06-1.888-.005-2.83a14.336 14.336 0 00-4.977-9.96 59.361 59.361 0 01-3.38-3.124z"/><path stroke-linecap="round" stroke-linejoin="round" d="M34.987 29.073s-3.904 1.592-7.252.435m12.672 13.978s-6.906-.803-9.636-3.814c0 0-3.309-3.739-9.836 0l-6.778 2.337"/><path stroke-linecap="round" stroke-linejoin="round" d="M36.788 33.69a2.59 2.59 0 00-.844 1.44 3.076 3.076 0 00.216 1.914c.338.786.785 2.584-.304 5.44m-21.699-.475l6.778-2.337s5.62-2.248 6.424-5.7c0 0-.322-6.023 2.087-7.308"/></g></svg>