<svg viewBox="0 0 72 72" xmlns="http://www.w3.org/2000/svg"><path fill="#b3b3b3" d="M68 4v64H4V4h64m4-4H0v72h72V0z"/><rect x="11" y="10.958" rx="1.923" width="50" height="50" fill="none" stroke="#00a5ff" stroke-miterlimit="10" stroke-width=".1"/><rect x="16" y="4" rx="2.254" width="40" height="64" fill="none" stroke="#00a5ff" stroke-miterlimit="10" stroke-width=".1"/><rect x="16" y="4" rx="2.254" width="40" height="64" transform="rotate(90 36 36)" fill="none" stroke="#00a5ff" stroke-miterlimit="10" stroke-width=".1"/><circle cx="36" cy="36" r="29" fill="none" stroke="#00a5ff" stroke-miterlimit="10" stroke-width=".1"/><path d="M46.355 25.522a78.453 78.453 0 00-20.71 0 19.993 19.993 0 000-13.463 81.964 81.964 0 0020.71 0 34.84 34.84 0 000 13.463zm3.951 36.014a65.535 65.535 0 00-28.611 0 75.3 75.3 0 000-31.001 68.423 68.423 0 0028.61 0 132.91 132.91 0 000 31.001z" stroke-linecap="round" stroke-miterlimit="10" stroke-width="6" stroke="#fff" fill="none" stroke-linejoin="round"/><path fill="#fff" d="M46.355 25.522a78.453 78.453 0 00-20.71 0 19.993 19.993 0 000-13.463 81.964 81.964 0 0020.71 0 34.84 34.84 0 000 13.463z"/><path fill="#d0cfce" d="M46.355 25.522a4.3 4.3 0 00-4.66 0 28.096 28.096 0 000-13.463 4.463 4.463 0 004.66 0q-.295 6.732 0 13.463z"/><path fill="#fff" d="M50.306 61.536a65.535 65.535 0 00-28.611 0 75.3 75.3 0 000-31.001 68.423 68.423 0 0028.61 0 132.91 132.91 0 000 31.001z"/><path fill="#d0cfce" d="M50.306 61.536q-3.093-3.16-6.44 0a106.836 106.836 0 000-31.001c2.076 2.061 4.226 1.97 6.44 0q-.409 15.5 0 31.001z"/><g fill="none" stroke="#000" stroke-linecap="round" stroke-linejoin="round" stroke-width="2"><path d="M46.355 25.522a78.453 78.453 0 00-20.71 0 19.993 19.993 0 000-13.463 81.964 81.964 0 0020.71 0 34.84 34.84 0 000 13.463zm3.951 36.014a65.535 65.535 0 00-28.611 0 75.3 75.3 0 000-31.001 68.423 68.423 0 0028.61 0 132.91 132.91 0 000 31.001z"/></g></svg>