<svg viewBox="0 0 72 72" xmlns="http://www.w3.org/2000/svg"><path fill="#b3b3b3" d="M68 4v64H4V4h64m4-4H0v72h72V0z"/><rect x="11" y="10.958" rx="1.923" width="50" height="50" fill="none" stroke="#00a5ff" stroke-miterlimit="10" stroke-width=".1"/><rect x="16" y="4" rx="2.254" width="40" height="64" fill="none" stroke="#00a5ff" stroke-miterlimit="10" stroke-width=".1"/><rect x="16" y="4" rx="2.254" width="40" height="64" transform="rotate(90 36 36)" fill="none" stroke="#00a5ff" stroke-miterlimit="10" stroke-width=".1"/><circle cx="36" cy="36" r="29" fill="none" stroke="#00a5ff" stroke-miterlimit="10" stroke-width=".1"/><g stroke-linecap="round" stroke-miterlimit="10" stroke-width="6" stroke="#fff" fill="none" stroke-linejoin="round"><ellipse cx="35.169" cy="26.101" rx="9.587" ry="4.681"/><path d="M25.582 45.118c0 1.766 4.293 3.19 9.585 3.19 5.3 0 8.139-1.033 10.464-2.524M25.582 26.101V45.12m19.177-17.187v-1.836"/><path d="M42.165 29.302s5.349-1.764 7.12-3.205v16.887a20.934 20.934 0 01-7.308 4.514"/><ellipse cx="34.961" cy="26.097" rx="2.251" ry="1.373"/><path d="M34.344 58.026a22.677 22.677 0 01-5.648-44.197m.36 3.665l4.63-4.14a.51.51 0 00-.181-.864l-5.9-1.94a.51.51 0 00-.658.588l1.27 6.08a.51.51 0 00.84.276zm8.6-4.728a22.677 22.677 0 015.648 44.197"/><path d="M42.944 53.298l-4.63 4.14a.51.51 0 00.181.864l5.9 1.94a.51.51 0 00.658-.588l-1.27-6.08a.51.51 0 00-.84-.276z"/></g><ellipse cx="34.961" cy="25.779" rx="2.251" ry="1.373" fill="#fff"/><ellipse cx="35.169" cy="26.101" rx="9.587" ry="4.681" fill="none" stroke="#000" stroke-miterlimit="10" stroke-width="2"/><path fill="none" stroke="#000" stroke-miterlimit="10" stroke-width="2" d="M25.582 45.118c0 1.766 4.293 3.19 9.585 3.19 5.3 0 8.139-1.033 10.464-2.524M25.582 26.101V45.12m19.177-17.187v-1.836"/><path fill="none" stroke="#000" stroke-linecap="round" stroke-linejoin="round" stroke-width="2" d="M42.165 29.302s5.349-1.764 7.12-3.205v16.887a20.934 20.934 0 01-7.308 4.514"/><ellipse cx="34.961" cy="26.097" rx="2.251" ry="1.373" fill="none" stroke="#000" stroke-linecap="round" stroke-linejoin="round" stroke-width="2"/><path fill="none" stroke="#000" stroke-linecap="round" stroke-linejoin="round" stroke-width="2" d="M34.344 58.026a22.677 22.677 0 01-5.648-44.197"/><path d="M29.056 17.494l4.63-4.14a.51.51 0 00-.181-.864l-5.9-1.94a.51.51 0 00-.658.588l1.27 6.08a.51.51 0 00.84.276z"/><path fill="none" stroke="#000" stroke-linecap="round" stroke-linejoin="round" stroke-width="2" d="M37.656 12.766a22.677 22.677 0 015.648 44.197"/><path d="M42.944 53.298l-4.63 4.14a.51.51 0 00.181.864l5.9 1.94a.51.51 0 00.658-.588l-1.27-6.08a.51.51 0 00-.84-.276z"/></svg>