<svg viewBox="0 0 72 72" xmlns="http://www.w3.org/2000/svg"><path fill="#B3B3B3" d="M68 4v64H4V4h64m4-4H0v72h72V0z"/><path fill="none" stroke="#00A5FF" stroke-miterlimit="10" stroke-width=".1" d="M12.923 10.958h46.154c1.062 0 1.923.861 1.923 1.923v46.154a1.923 1.923 0 01-1.923 1.923H12.923A1.923 1.923 0 0111 59.035h0V12.881c0-1.062.861-1.923 1.923-1.923h0z"/><path fill="none" stroke="#00A5FF" stroke-miterlimit="10" stroke-width=".1" d="M18.254 4h35.492A2.254 2.254 0 0156 6.254v59.492A2.254 2.254 0 0153.746 68H18.254A2.254 2.254 0 0116 65.746V6.254A2.254 2.254 0 0118.254 4z"/><path fill="none" stroke="#00A5FF" stroke-miterlimit="10" stroke-width=".1" d="M68 18.254v35.492A2.254 2.254 0 0165.746 56H6.254A2.254 2.254 0 014 53.746V18.254A2.254 2.254 0 016.254 16h59.492A2.254 2.254 0 0168 18.254z"/><circle cx="36" cy="36" r="29" fill="none" stroke="#00A5FF" stroke-miterlimit="10" stroke-width=".1"/><g stroke-linecap="round" stroke-miterlimit="10" stroke-width="6" stroke="#fff" fill="none" stroke-linejoin="round"><path d="M60.204 9.894c-3 7-12.538 11.949-12.5 14.5.042 2.823 1.294 8.539 1.5 11.5.55 6.655.55 13.344 0 20-.144 1.994 4.457 6.341 0 9-1.676 1-6-2-14 0a24.11 24.11 0 01-7.59.29 1.8 1.8 0 01-.516-3.41c2.228-1.037 5.186-1.959 7.106-2.88 2.95-1.417 4.787-2.834 5.825-4.671.119-.215.193-.451.217-.696.852-8.01-2.58-20.217-5.042-25.634a8.078 8.078 0 01-1-4c0-2 1-3 2-5 2.243-4.485 2.847-7.175 3.928-9.432a2.007 2.007 0 011.722-1.001 52.714 52.714 0 0114.656.682"/><path d="M38.278 26.717a2.91 2.91 0 001.165-.801c1.01-1.167.967-3.188-.074-5.099m-7.278-2.738l-3.226-3.133 2.672-1.262-4.053-3.937m-4.63 22.81l3.881-2.272.503 2.913 4.876-2.855m-1.392-7.44l-4.481-.381.8 2.846-5.63-.478"/></g><g fill="#D0CFCE" stroke="#D0CFCE"><path stroke-miterlimit="10" d="M60.204 9.894c-3 7-12.538 11.949-12.5 14.5.042 2.823 1.294 8.539 1.5 11.5.55 6.655.55 13.344 0 20-.144 1.994 4.652 5.67 0 9-1.222.874-6-2-14 0a24.11 24.11 0 01-7.59.29 1.8 1.8 0 01-.516-3.41c2.228-1.037 5.186-1.959 7.106-2.88 2.95-1.417 4.787-2.834 5.825-4.671.119-.215.193-.451.217-.696.852-8.01-2.58-20.217-5.042-25.634a8.078 8.078 0 01-1-4c0-2 1-3 2-5 2.243-4.485 2.847-7.175 3.928-9.432a2.007 2.007 0 011.722-1.001 52.714 52.714 0 0114.656.682l3.694.752z"/><path stroke-linecap="round" stroke-linejoin="round" stroke-width="2" d="M60.204 9.894c-3 7-12.538 11.949-12.5 14.5.042 2.823 1.294 8.539 1.5 11.5.55 6.655.55 13.344 0 20-.144 1.994 4.652 5.67 0 9-1.222.874-6-2-14 0a24.11 24.11 0 01-7.59.29 1.8 1.8 0 01-.516-3.41c2.228-1.037 5.186-1.959 7.106-2.88 2.95-1.417 4.787-2.834 5.825-4.671.119-.215.193-.451.217-.696.852-8.01-2.58-20.217-5.042-25.634a8.078 8.078 0 01-1-4c0-2 1-3 2-5 2.243-4.485 2.847-7.175 3.928-9.432a2.007 2.007 0 011.722-1.001 52.714 52.714 0 0114.656.682l3.694.752z"/></g><g fill="none" stroke="#000" stroke-linecap="round" stroke-linejoin="round" stroke-width="2"><path d="M60.204 9.894c-3 7-12.538 11.949-12.5 14.5.042 2.823 1.294 8.539 1.5 11.5.55 6.655.55 13.344 0 20-.144 1.994 4.457 6.341 0 9-1.676 1-6-2-14 0a24.11 24.11 0 01-7.59.29 1.8 1.8 0 01-.516-3.41c2.228-1.037 5.186-1.959 7.106-2.88 2.95-1.417 4.787-2.834 5.825-4.671.119-.215.193-.451.217-.696.852-8.01-2.58-20.217-5.042-25.634a8.078 8.078 0 01-1-4c0-2 1-3 2-5 2.243-4.485 2.847-7.175 3.928-9.432a2.007 2.007 0 011.722-1.001 52.714 52.714 0 0114.656.682"/><path d="M38.278 26.717a2.91 2.91 0 001.165-.801c1.01-1.167.967-3.188-.074-5.099m-7.278-2.738l-3.226-3.133 2.672-1.262-4.053-3.937m-4.63 22.81l3.881-2.272.503 2.913 4.876-2.855m-1.392-7.44l-4.481-.381.8 2.846-5.63-.478"/></g><path d="M32.091 18.079l-3.226-3.133 2.672-1.262-4.053-3.937m-4.63 22.81l3.881-2.272.503 2.913 4.876-2.855m-1.392-7.44l-4.481-.381.8 2.846-5.63-.478" fill="none" stroke="#D22F27" stroke-linecap="round" stroke-linejoin="round" stroke-width="2"/></svg>