<svg viewBox="0 0 72 72" xmlns="http://www.w3.org/2000/svg"><path fill="#b3b3b3" d="M68 4v64H4V4h64m4-4H0v72h72V0z"/><path fill="none" stroke="#00a5ff" stroke-miterlimit="10" stroke-width=".1" d="M12.923 10.958h46.154A1.923 1.923 0 0161 12.881v46.154a1.923 1.923 0 01-1.923 1.923H12.923A1.923 1.923 0 0111 59.035V12.881a1.923 1.923 0 011.923-1.923z"/><rect x="16" y="4" rx="2.254" width="40" height="64" fill="none" stroke="#00a5ff" stroke-miterlimit="10" stroke-width=".1"/><rect x="16" y="4" rx="2.254" width="40" height="64" transform="rotate(90 36 36)" fill="none" stroke="#00a5ff" stroke-miterlimit="10" stroke-width=".1"/><circle cx="36" cy="36" r="29" fill="none" stroke="#00a5ff" stroke-miterlimit="10" stroke-width=".1"/><g stroke-linecap="round" stroke-miterlimit="10" stroke-width="6" stroke="#fff" fill="none" stroke-linejoin="round"><path d="M21.12 9.747v9.366a8.224 8.224 0 01-1.214 4.308c-2.603 4.24-7.748 16.491 1.784 37.533m29.197 0s12.76-18.873 2.305-37.59a8.246 8.246 0 01-1.05-4.018V9.747m-17.25 31.762v19.445m3.079-19.445v19.445m-.001-17.905a13.04 13.04 0 009.752 1.112m-23.313-.506a13.04 13.04 0 009.813-.096"/><path d="M19.56 24.012s14.316 3.03 33.984 0l1.545 3.362s-7.966 11.74-17.118 14.135h-3.08S23.59 37.59 17.908 27.66zm22.836-3.186l1.983-4.037 2.026 2.152 2.491-5.072m-19.588 7.149l-2.625-3.651 2.853-.773-3.299-4.588m10.536 7.745l.63-4.453-2.886.64.792-5.595"/></g><path fill="#d0cfce" d="M21.12 9.747h31.305l-.284 9.117s11.626 22.307-1.254 41.507H21.69s-10.589-22.864-1.423-38.052c0 0 1.827-2.774.852-12.572z"/><path fill="#92d3f5" d="M19.56 24.012s14.316 3.03 33.984 0l1.545 3.362s-7.966 11.74-17.118 14.135h-3.08S23.59 37.59 17.908 27.66z"/><g fill="none" stroke="#000" stroke-linecap="round" stroke-linejoin="round" stroke-width="2"><path d="M21.12 9.747v9.366a8.224 8.224 0 01-1.214 4.308c-2.603 4.24-7.748 16.491 1.784 37.533m29.197 0s12.76-18.873 2.305-37.59a8.246 8.246 0 01-1.05-4.018V9.747m-17.25 31.762v19.445m3.079-19.445v19.445m-.001-17.905a13.04 13.04 0 009.752 1.112m-23.313-.506a13.04 13.04 0 009.813-.096"/><path d="M19.56 24.012s14.316 3.03 33.984 0l1.545 3.362s-7.966 11.74-17.118 14.135h-3.08S23.59 37.59 17.908 27.66zm22.836-3.186l1.983-4.037 2.026 2.152 2.491-5.072m-19.588 7.149l-2.625-3.651 2.853-.773-3.299-4.588m10.536 7.745l.63-4.453-2.886.64.792-5.595"/></g><g fill="none" stroke="#d22f27" stroke-linecap="round" stroke-linejoin="round" stroke-width="2"><path d="M42.396 20.826l1.983-4.037 2.026 2.152 2.491-5.072m-19.588 7.149l-2.625-3.651 2.853-.773-3.299-4.588m10.536 7.745l.63-4.453-2.886.64.792-5.595"/></g></svg>