<svg viewBox="0 0 72 72" xmlns="http://www.w3.org/2000/svg"><path fill="#b3b3b3" d="M68 4v64H4V4h64m4-4H0v72h72V0z"/><path fill="none" stroke="#00a5ff" stroke-miterlimit="10" stroke-width=".1" d="M12.923 10.958h46.154A1.923 1.923 0 0161 12.881v46.154a1.923 1.923 0 01-1.923 1.923H12.923A1.923 1.923 0 0111 59.035V12.881a1.923 1.923 0 011.923-1.923z"/><rect x="16" y="4" rx="2.254" width="40" height="64" fill="none" stroke="#00a5ff" stroke-miterlimit="10" stroke-width=".1"/><rect x="16" y="4" rx="2.254" width="40" height="64" transform="rotate(90 36 36)" fill="none" stroke="#00a5ff" stroke-miterlimit="10" stroke-width=".1"/><circle cx="36" cy="36" r="29" fill="none" stroke="#00a5ff" stroke-miterlimit="10" stroke-width=".1"/><g stroke-linecap="round" stroke-miterlimit="10" stroke-width="6" stroke="#fff" fill="none" stroke-linejoin="round"><path d="M35.665 44.073l.371-.939 4.365-1.5 3.9 5.521-4.308 3.044-4.328-6.126zm-8.425 2.345l4.492-6.335 4.303 3.051-4.492 6.335zM53.825 25.64l-10.752-7.522 1.455-2.08c.701-1.003 1.796-1.406 2.36-.868l2.855 2.724a8.09 8.09 0 002.006 1.403l3.537 1.749c.698.345.695 1.512-.006 2.515zm-24.754-7.688l-10.914 7.483-1.447-2.111c-.698-1.018-.69-2.195.017-2.536l3.584-1.73a8.161 8.161 0 002.036-1.396l2.905-2.719c.573-.537 1.674-.12 2.372.898z"/><path d="M43.045 18.892L32.885 32.77a3.961 3.961 0 00-.787 2.412l-.365 4.901-4.492 6.335 4.303 3.052 4.492-6.335 4.803-1.66a3.962 3.962 0 002.06-1.48l10.109-13.808m-17.119 2.481l-6.609-9.611"/><path d="M35.494 43.898l4.376 6.161 4.301-3.054-3.77-5.371M19.106 26.053l9.745 14.172a4.034 4.034 0 001.673 1.41"/><rect x="24.127" y="49.423" rx=".8" width="6.791" height="2.291" transform="rotate(-54.232 27.523 50.569)"/><rect x="22.398" y="53.603" rx="1.175" width="3.417" height="3.417" transform="rotate(35.768 24.106 55.311)"/><rect x="40.603" y="50.007" rx=".8" width="6.791" height="2.291" transform="rotate(-123.03 43.998 51.152)"/><rect x="45.476" y="54.344" rx="1.175" width="3.417" height="3.417" transform="rotate(-33.03 47.184 56.052)"/><path d="M39.515 24.604l9.551 7.054M21.51 29.55l10.128-7.063"/></g><path fill="#d0cfce" d="M35.665 44.073l.371-.939 4.365-1.5 3.9 5.521-4.308 3.044-4.328-6.126zm-8.425 2.345l4.492-6.335 4.303 3.051-4.492 6.335z"/><path fill="#92d3f5" d="M53.825 25.64l-10.752-7.522 1.455-2.08c.701-1.003 1.796-1.406 2.36-.868l2.855 2.724a8.09 8.09 0 002.006 1.403l3.537 1.749c.698.345.695 1.512-.006 2.515zm-24.754-7.688l-10.914 7.483-1.447-2.111c-.698-1.018-.69-2.195.017-2.536l3.584-1.73a8.161 8.161 0 002.036-1.396l2.905-2.719c.573-.537 1.674-.12 2.372.898z"/><g><path fill="none" stroke="#000" stroke-linecap="round" stroke-linejoin="round" stroke-width="2" d="M35.665 44.073l.371-.939 4.365-1.5 3.9 5.521-4.308 3.044-4.328-6.126zm-8.425 2.345l4.492-6.335 4.303 3.051-4.492 6.335zM53.825 25.64l-10.752-7.522 1.455-2.08c.701-1.003 1.796-1.406 2.36-.868l2.855 2.724a8.09 8.09 0 002.006 1.403l3.537 1.749c.698.345.695 1.512-.006 2.515zm-24.754-7.688l-10.914 7.483-1.447-2.111c-.698-1.018-.69-2.195.017-2.536l3.584-1.73a8.161 8.161 0 002.036-1.396l2.905-2.719c.573-.537 1.674-.12 2.372.898z"/><path fill="none" stroke="#000" stroke-linecap="round" stroke-linejoin="round" stroke-width="2" d="M43.045 18.892L32.885 32.77a3.961 3.961 0 00-.787 2.412l-.365 4.901-4.492 6.335 4.303 3.052 4.492-6.335 4.803-1.66a3.962 3.962 0 002.06-1.48l10.109-13.808m-17.119 2.481l-6.609-9.611"/><path fill="none" stroke="#000" stroke-linecap="round" stroke-linejoin="round" stroke-width="2" d="M35.494 43.898l4.376 6.161 4.301-3.054-3.77-5.371M19.106 26.053l9.745 14.172a4.034 4.034 0 001.673 1.41"/><rect x="24.127" y="49.423" rx=".8" width="6.791" height="2.291" transform="rotate(-54.232 27.523 50.569)"/><rect x="22.398" y="53.603" rx="1.175" width="3.417" height="3.417" transform="rotate(35.768 24.106 55.311)"/><rect x="40.603" y="50.007" rx=".8" width="6.791" height="2.291" transform="rotate(-123.03 43.998 51.152)"/><rect x="45.476" y="54.344" rx="1.175" width="3.417" height="3.417" transform="rotate(-33.03 47.184 56.052)"/><path fill="none" stroke="#000" stroke-linecap="round" stroke-linejoin="round" stroke-width="2" d="M39.515 24.604l9.551 7.054M21.51 29.55l10.128-7.063"/></g></svg>