<svg viewBox="0 0 72 72" xmlns="http://www.w3.org/2000/svg"><path fill="#B3B3B3" d="M68 4v64H4V4h64m4-4H0v72h72V0z"/><path fill="none" stroke="#00A5FF" stroke-miterlimit="10" stroke-width=".1" d="M12.923 10.958h46.154c1.062 0 1.923.861 1.923 1.923v46.154a1.923 1.923 0 01-1.923 1.923H12.923A1.923 1.923 0 0111 59.035h0V12.881c0-1.062.861-1.923 1.923-1.923h0z"/><path fill="none" stroke="#00A5FF" stroke-miterlimit="10" stroke-width=".1" d="M18.254 4h35.492A2.254 2.254 0 0156 6.254v59.492A2.254 2.254 0 0153.746 68H18.254A2.254 2.254 0 0116 65.746V6.254A2.254 2.254 0 0118.254 4z"/><path fill="none" stroke="#00A5FF" stroke-miterlimit="10" stroke-width=".1" d="M68 18.254v35.492A2.254 2.254 0 0165.746 56H6.254A2.254 2.254 0 014 53.746V18.254A2.254 2.254 0 016.254 16h59.492A2.254 2.254 0 0168 18.254z"/><circle cx="36" cy="36" r="29" fill="none" stroke="#00A5FF" stroke-miterlimit="10" stroke-width=".1"/><g stroke-linecap="round" stroke-miterlimit="10" stroke-width="6" stroke="#fff" fill="none" stroke-linejoin="round"><path d="M25.364 27.2s20.145-.066 21.608 0c.062 1.205.084 1.417.084 2.289-.785.012-18.086.13-21.308.148a18.619 18.619 0 01-.384-2.437zm-13.035-9.839h10.83l2.779 15.09"/><ellipse cx="28.507" cy="43.726" rx="11.468" ry="11.274"/><ellipse cx="28.507" cy="44.082" rx="6.843" ry="6.727"/><ellipse cx="28.507" cy="43.726" rx="2.492" ry="2.45"/><ellipse cx="47.442" cy="51.184" rx="3.882" ry="3.816"/><ellipse cx="47.449" cy="51.139" rx="1.331" ry="1.308"/><path d="M23.633 39.362l2.99 2.762m6.35-2.762l-2.583 2.762m-.298 3.492l3.298 3.175m-6.767-3.175l-2.999 3.175m6.318-16.253l17.055-.087 1.77 11.275h-8.792S39.28 33.7 29.941 32.538zM52.049 45.26h3.414c.401 0 .726.325.726.726v.38c0 .4-.325.725-.726.725H52.05a.725.725 0 01-.725-.725v-.38c0-.4.324-.726.725-.726z"/></g><ellipse cx="28.507" cy="43.726" rx="11.468" ry="11.274" fill="#D0CFCE"/><ellipse cx="28.507" cy="44.082" rx="6.843" ry="6.727" fill="#9B9B9A"/><ellipse cx="28.507" cy="43.726" rx="2.492" ry="2.45" fill="#D0CFCE"/><ellipse cx="47.442" cy="51.184" rx="3.882" ry="3.816" fill="#D0CFCE"/><path fill="#D22F27" d="M29.942 32.538l17.055-.087 1.77 11.275h-8.792S39.28 33.7 29.941 32.538z"/><g><path stroke="#000" stroke-linecap="round" stroke-linejoin="round" stroke-width="2" d="M25.364 27.2s20.145-.066 21.608 0c.062 1.205.084 1.417.084 2.289-.785.012-18.086.13-21.308.148a18.619 18.619 0 01-.384-2.437z"/><path fill="none" stroke="#000" stroke-linecap="round" stroke-linejoin="round" stroke-width="2" d="M12.329 17.361h10.83l2.779 15.09"/><ellipse cx="28.507" cy="43.726" rx="11.468" ry="11.274" fill="none" stroke="#000" stroke-linecap="round" stroke-linejoin="round" stroke-width="2"/><ellipse cx="28.507" cy="44.082" rx="6.843" ry="6.727" fill="none" stroke="#000" stroke-linecap="round" stroke-linejoin="round" stroke-width="2"/><ellipse cx="28.507" cy="43.726" rx="2.492" ry="2.45" fill="none" stroke="#000" stroke-linecap="round" stroke-linejoin="round" stroke-width="2"/><ellipse cx="47.442" cy="51.184" rx="3.882" ry="3.816" fill="none" stroke="#000" stroke-linecap="round" stroke-linejoin="round" stroke-width="2"/><ellipse cx="47.449" cy="51.139" rx="1.331" ry="1.308"/><path fill="none" stroke="#000" stroke-linecap="round" stroke-linejoin="round" stroke-width="2" d="M23.633 39.362l2.99 2.762m6.35-2.762l-2.583 2.762m-.298 3.492l3.298 3.175m-6.767-3.175l-2.999 3.175m6.318-16.253l17.055-.087 1.77 11.275h-8.792S39.28 33.7 29.941 32.538z"/><path d="M52.049 45.26h3.414c.401 0 .726.325.726.726v.38c0 .4-.325.725-.726.725H52.05a.725.725 0 01-.725-.725v-.38c0-.4.324-.726.725-.726z"/></g></svg>