<svg viewBox="0 0 72 72" xmlns="http://www.w3.org/2000/svg"><path fill="#b3b3b3" d="M68 4v64H4V4h64m4-4H0v72h72V0z"/><path fill="none" stroke="#00a5ff" stroke-miterlimit="10" stroke-width=".1" d="M12.923 10.958h46.154A1.923 1.923 0 0161 12.881v46.154a1.923 1.923 0 01-1.923 1.923H12.923A1.923 1.923 0 0111 59.035V12.881a1.923 1.923 0 011.923-1.923z"/><rect x="16" y="4" rx="2.254" width="40" height="64" fill="none" stroke="#00a5ff" stroke-miterlimit="10" stroke-width=".1"/><rect x="16" y="4" rx="2.254" width="40" height="64" transform="rotate(90 36 36)" fill="none" stroke="#00a5ff" stroke-miterlimit="10" stroke-width=".1"/><circle cx="36" cy="36" r="29" fill="none" stroke="#00a5ff" stroke-miterlimit="10" stroke-width=".1"/><g stroke-linecap="round" stroke-miterlimit="10" stroke-width="6" stroke="#fff" fill="none" stroke-linejoin="round"><path d="M32.733 23.097v-9.139a3 3 0 013-3h.34a3 3 0 013 3v9.139m0 10.315v24.546a3 3 0 01-3 3h-.34a3 3 0 01-3-3V33.412m-3.631-9.965h13.797v9.699H29.102zm3.919 4.886h5.889"/><path d="M51.885 67.092H19.95a3 3 0 01-3-3V7.95a3 3 0 013-3h31.935a3 3 0 013 3v56.142a3 3 0 01-3 3zM47.911 18.26h2.648m-2.648-5.629h2.648m-2.637 10.837h2.637m-2.648 4.735h2.648m-2.637 5.209h2.637m-2.648 5.629h2.648m-2.647 5.208h2.647m-2.658 4.735h2.658m-2.667 5.209h2.667m-2.652 4.716h2.652M21.282 18.26h2.648m-2.648-5.629h2.648m-2.637 10.837h2.637m-2.648 4.735h2.648m-2.637 5.209h2.637m-2.648 5.629h2.648m-2.647 5.208h2.647m-2.658 4.735h2.658m-2.667 5.209h2.667m-2.653 4.716h2.653"/></g><path fill="#d0cfce" d="M51.885 5.95H19.95c-1.102 0-2 .897-2 2v56.142c0 1.102.898 2 2 2h31.935c1.102 0 2-.898 2-2V7.95c0-1.103-.898-2-2-2z"/><path fill="#3f3f3f" d="M29.102 23.468v9.678h13.797v-9.678H29.101z"/><path fill="#9b9b9a" d="M39.073 13.958c0-1.103-2.237-3-3.34-3 0 0-2.687.57-2.687 1.673l-.295 10.816 6.625.021-.303-9.51zm-6.34 19.454v24.546c0 1.103 1.048 3 3 3s3.34-1.897 3.34-3V33.412h-6.34z"/><g fill="none" stroke="#000" stroke-linecap="round" stroke-linejoin="round" stroke-miterlimit="10" stroke-width="2"><path d="M32.733 23.097v-9.139a3 3 0 013-3h.34a3 3 0 013 3v9.139m0 10.315v24.546a3 3 0 01-3 3h-.34a3 3 0 01-3-3V33.412m-3.631-9.965h13.797v9.699H29.102zm3.919 4.886h5.889"/><path d="M51.885 67.092H19.95a3 3 0 01-3-3V7.95a3 3 0 013-3h31.935a3 3 0 013 3v56.142a3 3 0 01-3 3zM47.911 18.26h2.648m-2.648-5.629h2.648m-2.637 10.837h2.637m-2.648 4.735h2.648m-2.637 5.209h2.637m-2.648 5.629h2.648m-2.647 5.208h2.647m-2.658 4.735h2.658m-2.667 5.209h2.667m-2.652 4.716h2.652M21.282 18.26h2.648m-2.648-5.629h2.648m-2.637 10.837h2.637m-2.648 4.735h2.648m-2.637 5.209h2.637m-2.648 5.629h2.648m-2.647 5.208h2.647m-2.658 4.735h2.658m-2.667 5.209h2.667m-2.653 4.716h2.653"/></g></svg>