<svg viewBox="0 0 72 72" xmlns="http://www.w3.org/2000/svg"><path fill="#b3b3b3" d="M68 4v64H4V4h64m4-4H0v72h72V0z"/><path fill="none" stroke="#00a5ff" stroke-miterlimit="10" stroke-width=".1" d="M12.923 10.958h46.154A1.923 1.923 0 0161 12.881v46.154a1.923 1.923 0 01-1.923 1.923H12.923A1.923 1.923 0 0111 59.035V12.881a1.923 1.923 0 011.923-1.923z"/><rect x="16" y="4" rx="2.254" width="40" height="64" fill="none" stroke="#00a5ff" stroke-miterlimit="10" stroke-width=".1"/><rect x="16" y="4" rx="2.254" width="40" height="64" transform="rotate(90 36 36)" fill="none" stroke="#00a5ff" stroke-miterlimit="10" stroke-width=".1"/><circle cx="36" cy="36" r="29" fill="none" stroke="#00a5ff" stroke-miterlimit="10" stroke-width=".1"/><g stroke-linecap="round" stroke-miterlimit="10" stroke-width="6" stroke="#fff" fill="none" stroke-linejoin="round"><path d="M47.434 27.214l7.785 4.214M24.028 14.546l10.637 5.757"/><circle cx="22.267" cy="13.569" r="2"/><path d="M12.223 31.777h47.745v28.571H12.223zm4.323 20.46h38.572m-38.572 4h38.572"/><path d="M16.624 36.279h38.595v11.504H16.624z"/><circle cx="22.491" cy="41.985" r="2"/><path d="M12.223 26.946v-3.153h47.744v3.153M38.294 41.697v.667m4-.667v.667m4-.667v.667"/></g><path fill="#d0cfce" d="M13.223 59.348h45.745V32.776H13.223v26.572z"/><path fill="#9B9B9A" d="M18.74 38.284l36.48.177.407-2.182H16.624v11.169l2.082.336.034-9.5z"/><path fill="#d0cfce" d="M59.968 23.793H12.223v2.828l47.744-.015z"/><circle cx="22.268" cy="13.569" r="1" fill="#d0cfce"/><circle cx="22.49" cy="41.984" r="2" fill="#3f3f3f"/><g fill="none" stroke="#000" stroke-linecap="round" stroke-linejoin="round" stroke-miterlimit="10" stroke-width="2"><path d="M47.434 27.214l7.785 4.214M24.028 14.546l10.637 5.757"/><circle cx="22.267" cy="13.569" r="2"/><path d="M12.223 31.777h47.745v28.571H12.223zm4.323 20.46h38.572m-38.572 4h38.572"/><path d="M16.624 36.279h38.595v11.504H16.624z"/><circle cx="22.491" cy="41.985" r="2"/><path d="M12.223 26.946v-3.153h47.744v3.153M38.294 41.697v.667m4-.667v.667m4-.667v.667"/></g></svg>