<svg viewBox="0 0 72 72" xmlns="http://www.w3.org/2000/svg"><path fill="#b3b3b3" d="M68 4v64H4V4h64m4-4H0v72h72V0z"/><path fill="none" stroke="#00a5ff" stroke-miterlimit="10" stroke-width=".1" d="M12.923 10.958h46.154A1.923 1.923 0 0161 12.881v46.154a1.923 1.923 0 01-1.923 1.923H12.923A1.923 1.923 0 0111 59.035V12.881a1.923 1.923 0 011.923-1.923z"/><rect x="16" y="4" rx="2.254" width="40" height="64" fill="none" stroke="#00a5ff" stroke-miterlimit="10" stroke-width=".1"/><rect x="16" y="4" rx="2.254" width="40" height="64" transform="rotate(90 36 36)" fill="none" stroke="#00a5ff" stroke-miterlimit="10" stroke-width=".1"/><circle cx="36" cy="36" r="29" fill="none" stroke="#00a5ff" stroke-miterlimit="10" stroke-width=".1"/><g stroke-linecap="round" stroke-miterlimit="10" stroke-width="6" stroke="#fff" fill="none" stroke-linejoin="round"><circle cx="22" cy="19.849" transform="rotate(-89.45 22 19.848)" clip-rule="evenodd" r="3"/><path d="M26.006 12.122h20.05m7.96 0H60v16H12v-16h6.032"/><path clip-rule="evenodd" d="M22.015 8.688v10.31"/><circle cx="50.001" cy="19.849" transform="rotate(-89.45 50 19.848)" clip-rule="evenodd" r="3"/><path clip-rule="evenodd" d="M50.016 8.688v10.31"/><path d="M34.336 38.092a5.63 5.63 0 015.513-4.494h0c1.554 0 2.96.63 3.98 1.649 1.584 1.584 1.437 4.217-.05 5.893l-9.558 10.78h4.76M23.276 37.398l5.073-3.8V51.92"/><path d="M11.997 28.092v32l31.66-.006 16.34-12.048V28.092"/><path d="M59.746 48.038H43.138v5.48"/></g><path fill="#FFF" d="M12 28.122l-.003 31.97 31.66-.006 16.09-12.048c-.008-.049.253-3.946.253-3.946l-.003-16-47.997.03z"/><path fill="#EA5A47" d="M11.444 28.292l48.553-.2.003-15.97s-6.536-1-5.983-1H50.46l.052 5.773c1.727.456 2.15 3.087 2.15 3.087-.022 2.192-2.678 2.53-2.69 2.527-1.848-.378-2.489-1.282-2.468-2.802.014-1.068.046-1.33.808-2.078.513-.502.634-.608 1.311-.78l-.028-5.726h-27.25l.07 5.726c1.728.456 2.293.853 2.276 2.719-.02 2.193-2.706 3.28-2.719 3.28-2.205-.02-2.992-1.037-2.971-3.242.01-1.068.877-1.864 1.64-2.612.511-.502.698-.822 1.375-.994l-.24-4.877h-3.743c.214 0-6.032 1-6.032 1l-.556 16.17z"/><path fill="#d0cfce" d="M59.997 48.038H43.138s-.899 6.104-.97 5.623v5.425l1.488 1 16.341-12.048z"/><path fill="#9b9b9a" fill-rule="evenodd" clip-rule="evenodd" d="M22.015 8.688v10.31m28.001-10.31v10.31"/><g fill="none" stroke="#000" stroke-linecap="round" stroke-linejoin="round" stroke-miterlimit="10" stroke-width="2"><circle cx="22" cy="19.849" transform="rotate(-89.45 22 19.848)" clip-rule="evenodd" r="3"/><path d="M26.006 12.122h20.05m7.96 0H60v16H12v-16h6.032"/><path clip-rule="evenodd" d="M22.015 8.688v10.31"/><circle cx="50.001" cy="19.849" transform="rotate(-89.45 50 19.848)" clip-rule="evenodd" r="3"/><path clip-rule="evenodd" d="M50.016 8.688v10.31"/><path d="M34.336 38.092a5.63 5.63 0 015.513-4.494h0c1.554 0 2.96.63 3.98 1.649 1.584 1.584 1.437 4.217-.05 5.893l-9.558 10.78h4.76M23.276 37.398l5.073-3.8V51.92"/><path d="M11.997 28.092v32l31.66-.006 16.34-12.048V28.092"/><path d="M59.746 48.038H43.138v5.48"/></g></svg>