<svg viewBox="0 0 72 72" xmlns="http://www.w3.org/2000/svg"><path fill="#b3b3b3" d="M68 4v64H4V4h64m4-4H0v72h72V0z"/><path fill="none" stroke="#00a5ff" stroke-miterlimit="10" stroke-width=".1" d="M12.923 10.958h46.154A1.923 1.923 0 0161 12.881v46.154a1.923 1.923 0 01-1.923 1.923H12.923A1.923 1.923 0 0111 59.035V12.881a1.923 1.923 0 011.923-1.923z"/><rect x="16" y="4" rx="2.254" width="40" height="64" fill="none" stroke="#00a5ff" stroke-miterlimit="10" stroke-width=".1"/><rect x="16" y="4" rx="2.254" width="40" height="64" transform="rotate(90 36 36)" fill="none" stroke="#00a5ff" stroke-miterlimit="10" stroke-width=".1"/><circle cx="36" cy="36" r="29" fill="none" stroke="#00a5ff" stroke-miterlimit="10" stroke-width=".1"/><g stroke-linecap="round" stroke-miterlimit="10" stroke-width="6" stroke="#fff" fill="none" stroke-linejoin="round"><path d="M33.067 11.211a7.89 7.89 0 00-1.036-.52c-4.536-1.751-8.713.768-10.553 5.212l-9.985 23.945"/><path d="M22.74 39.72l7.255-17.353a2.59 2.59 0 00-4.786-1.982l-10.936 26.24a5.318 5.318 0 002.837 6.85 5.217 5.217 0 006.778-2.79l11.863-28.742a10.044 10.044 0 00.552-6.407m.234 11.327l8.77 21.098c1.841 4.444 6.142 7.166 10.586 5.326 4.447-1.969 5.619-6.704 3.778-11.148L49.8 18.147"/><path d="M41.937 26.19l7.14 17.4a2.59 2.59 0 104.786-1.982L43.04 15.32a5.318 5.318 0 00-6.848-2.837 5.217 5.217 0 00-2.82 6.766l.37.89"/></g><g fill="none" stroke="#000" stroke-linecap="round" stroke-linejoin="round" stroke-width="2"><path d="M33.067 11.211a7.89 7.89 0 00-1.036-.52c-4.536-1.751-8.713.768-10.553 5.212l-9.985 23.945"/><path d="M22.74 39.72l7.255-17.353a2.59 2.59 0 00-4.786-1.982l-10.936 26.24a5.318 5.318 0 002.837 6.85 5.217 5.217 0 006.778-2.79l11.863-28.742a10.044 10.044 0 00.552-6.407m.234 11.327l8.77 21.098c1.841 4.444 6.142 7.166 10.586 5.326 4.447-1.969 5.619-6.704 3.778-11.148L49.8 18.147"/><path d="M41.937 26.19l7.14 17.4a2.59 2.59 0 104.786-1.982L43.04 15.32a5.318 5.318 0 00-6.848-2.837 5.217 5.217 0 00-2.82 6.766l.37.89"/></g></svg>