<svg viewBox="0 0 72 72" xmlns="http://www.w3.org/2000/svg"><path fill="#b3b3b3" d="M68 4v64H4V4h64m4-4H0v72h72V0z"/><path fill="none" stroke="#00a5ff" stroke-miterlimit="10" stroke-width=".1" d="M12.923 10.958h46.154A1.923 1.923 0 0161 12.881v46.154a1.923 1.923 0 01-1.923 1.923H12.923A1.923 1.923 0 0111 59.035V12.881a1.923 1.923 0 011.923-1.923z"/><rect x="16" y="4" rx="2.254" width="40" height="64" fill="none" stroke="#00a5ff" stroke-miterlimit="10" stroke-width=".1"/><rect x="16" y="4" rx="2.254" width="40" height="64" transform="rotate(90 36 36)" fill="none" stroke="#00a5ff" stroke-miterlimit="10" stroke-width=".1"/><circle cx="36" cy="36" r="29" fill="none" stroke="#00a5ff" stroke-miterlimit="10" stroke-width=".1"/><g stroke-linecap="round" stroke-miterlimit="10" stroke-width="6" stroke="#fff" fill="none" stroke-linejoin="round"><path d="M45.481 13.955v5.636m-4.761-5.636v5.636m-4.76-5.636v5.636m14.281-5.636v5.636M31.2 13.955v5.636m-4.761-5.636v5.636m-4.76-5.636v5.636m-4.689 9.761h37.797M16.99 39.825h37.797M16.99 50.298h22.125M25.946 24.443v31.106m28.379-38.576h5.635l.037 31.065-16.34 12.048-31.66.006-.037-43.119h5.64"/><path d="M59.746 48.038H43.138v5.48"/></g><path fill="#FFF" d="M60.069 17.015l-5.918-.932H17.21l-5.272.968.036 43.218 31.633-.036 16.498-12.05-.036-31.168z"/><path fill="#d0cfce" d="M56.956 49.038H44.139v4.48a1 1 0 01-1 1 .987.987 0 01-.972-.857v5.425h1.16l13.629-10.048z"/><path fill="#FFF" d="M45.481 13.955v5.636m-4.761-5.636v5.636m-4.76-5.636v5.636m14.281-5.636v5.636M31.2 13.955v5.636m-4.761-5.636v5.636m-4.76-5.636v5.636"/><g fill="none" stroke="#000" stroke-linecap="round" stroke-linejoin="round" stroke-miterlimit="10" stroke-width="2"><path d="M45.481 13.955v5.636m-4.761-5.636v5.636m-4.76-5.636v5.636m14.281-5.636v5.636M31.2 13.955v5.636m-4.761-5.636v5.636m-4.76-5.636v5.636m-4.689 9.761h37.797M16.99 39.825h37.797M16.99 50.298h22.125M25.946 24.443v31.106m28.379-38.576h5.635l.037 31.065-16.34 12.048-31.66.006-.037-43.119h5.64"/><path d="M59.746 48.038H43.138v5.48"/></g></svg>