<svg viewBox="0 0 72 72" xmlns="http://www.w3.org/2000/svg"><path fill="#B3B3B3" d="M68 4v64H4V4h64m4-4H0v72h72V0z"/><path fill="none" stroke="#00A5FF" stroke-miterlimit="10" stroke-width=".1" d="M12.923 10.958h46.154c1.062 0 1.923.861 1.923 1.923h0v46.154a1.923 1.923 0 01-1.923 1.923H12.923A1.923 1.923 0 0111 59.035h0V12.881c0-1.062.861-1.923 1.923-1.923h0z"/><path fill="none" stroke="#00A5FF" stroke-miterlimit="10" stroke-width=".1" d="M18.254 4h35.492A2.254 2.254 0 0156 6.254v59.492A2.254 2.254 0 0153.746 68H18.254A2.254 2.254 0 0116 65.746V6.254A2.254 2.254 0 0118.254 4z"/><path fill="none" stroke="#00A5FF" stroke-miterlimit="10" stroke-width=".1" d="M68 18.254v35.492A2.254 2.254 0 0165.746 56H6.254A2.254 2.254 0 014 53.746V18.254A2.254 2.254 0 016.254 16h59.492A2.254 2.254 0 0168 18.254z"/><circle cx="36" cy="36" r="29" fill="none" stroke="#00A5FF" stroke-miterlimit="10" stroke-width=".1"/><g stroke-linecap="round" stroke-miterlimit="10" stroke-width="6" stroke="#fff" fill="none" stroke-linejoin="round"><path d="M56.002 44.361A22.894 22.894 0 0059 33c0-12.703-10.298-23-23-23-12.703 0-23 10.297-23 23a22.9 22.9 0 003.117 11.57m13.488 10.536c2.024.582 4.162.894 6.373.894 2.133 0 4.198-.29 6.158-.834m3.679-12.939a15.43 15.43 0 01-19.63 0m5.509-11.823a4.726 4.726 0 00-8.638 0m25.888 0a4.726 4.726 0 00-8.638 0M15.832 54.803c-1.797-.878-4.526-2.289-5.957-3.327C6.64 49.13 9.3 46.87 11.04 48.097c2.792 1.973 8.012 4.244 8.012 4.244.44-.898-.39-3.007-.399-3.881-.02-2.236 1.962-2.141 2.675-.92 1.818 3.114 3.636 6.228 4.095 7.566.325.945.266 4.581.266 4.581l1.667.814M9.172 51.063c-3.458-2.176-5.427.386-3.275 2.435 1.093 1.04 4.194 3.185 8.012 4.957"/><path d="M8.74 55.651c-2.246-1.097-4.467.601-1.624 2.755.797.604 4.325 3.078 5.858 3.957 6.075 3.476 8.519 3.065 9.417 3.504.077.037.604.466 1.453 1.133m20.801-6.499l1.667-.814s-.06-3.636.266-4.582c.46-1.337 2.277-4.45 4.095-7.564.713-1.222 2.696-1.317 2.675.919-.008.874-.838 2.983-.4 3.881 0 0 5.22-2.271 8.013-4.244 1.739-1.227 4.4 1.033 1.164 3.38-1.431 1.037-4.16 2.448-5.957 3.326m1.923 3.652c3.818-1.772 6.919-3.917 8.012-4.957 2.152-2.05.183-4.61-3.275-2.435"/><path d="M48.156 67c.849-.667 1.376-1.096 1.453-1.133.898-.439 3.341-.028 9.417-3.504 1.533-.879 5.06-3.353 5.858-3.957 2.843-2.154.622-3.852-1.624-2.755"/></g><g fill="#FCEA2B"><circle cx="36" cy="33" r="24"/><path d="M47.388 67.62c.849-.666 2.144-1.716 2.22-1.753.9-.439 3.343-.028 9.418-3.504 1.533-.879 5.06-3.353 5.858-3.957 2.843-2.154.622-3.851-1.624-2.754 1.221-.8 2.342-1.677 2.843-2.154 2.152-2.05.183-4.61-3.276-2.435l-.702.413c3.236-2.346.575-4.606-1.164-3.379-2.792 1.973-8.012 4.244-8.012 4.244-.44-.898.39-3.007.399-3.881.02-2.236-1.962-2.141-2.675-.92-1.818 3.114-3.636 6.228-4.095 7.566-.325.945-.266 4.581-.266 4.581L43.77 60.93m-15.54-.001l-2.542-1.242s.06-3.636-.266-4.581c-.46-1.338-2.277-4.452-4.095-7.565-.713-1.222-2.696-1.317-2.675.919.008.874.838 2.983.4 3.881 0 0-5.22-2.271-8.013-4.244-1.739-1.227-4.4 1.033-1.164 3.38l-.703-.414c-3.458-2.176-5.427.386-3.275 2.435.501.477 1.622 1.355 2.843 2.154-2.246-1.098-4.467.6-1.624 2.754.797.604 4.325 3.078 5.858 3.957 6.075 3.476 8.519 3.065 9.417 3.504.077.037 1.372 1.087 2.22 1.753"/></g><g fill="none" stroke="#000" stroke-linecap="round" stroke-width="2"><path stroke-linejoin="round" stroke-miterlimit="10" d="M56.002 44.361A22.894 22.894 0 0059 33c0-12.703-10.298-23-23-23-12.703 0-23 10.297-23 23a22.9 22.9 0 003.117 11.57m13.488 10.536c2.024.582 4.162.894 6.373.894 2.133 0 4.198-.29 6.158-.834"/><path stroke-linejoin="round" d="M45.815 42.227a15.43 15.43 0 01-19.63 0"/><path stroke-miterlimit="10" d="M31.694 30.404a4.726 4.726 0 00-8.638 0m25.888 0a4.726 4.726 0 00-8.638 0"/><path stroke-linejoin="round" stroke-miterlimit="10" d="M15.832 54.803c-1.797-.878-4.526-2.289-5.957-3.327C6.64 49.13 9.3 46.87 11.04 48.097c2.792 1.973 8.012 4.244 8.012 4.244.44-.898-.39-3.007-.399-3.881-.02-2.236 1.962-2.141 2.675-.92 1.818 3.114 3.636 6.228 4.095 7.566.325.945.266 4.581.266 4.581l1.667.814M9.172 51.063c-3.458-2.176-5.427.386-3.275 2.435 1.093 1.04 4.194 3.185 8.012 4.957"/><path stroke-linejoin="round" stroke-miterlimit="10" d="M8.74 55.651c-2.246-1.097-4.467.601-1.624 2.755.797.604 4.325 3.078 5.858 3.957 6.075 3.476 8.519 3.065 9.417 3.504.077.037.604.466 1.453 1.133m20.801-6.499l1.667-.814s-.06-3.636.266-4.582c.46-1.337 2.277-4.45 4.095-7.564.713-1.222 2.696-1.317 2.675.919-.008.874-.838 2.983-.4 3.881 0 0 5.22-2.271 8.013-4.244 1.739-1.227 4.4 1.033 1.164 3.38-1.431 1.037-4.16 2.448-5.957 3.326m1.923 3.652c3.818-1.772 6.919-3.917 8.012-4.957 2.152-2.05.183-4.61-3.275-2.435"/><path stroke-linejoin="round" stroke-miterlimit="10" d="M48.156 67c.849-.667 1.376-1.096 1.453-1.133.898-.439 3.341-.028 9.417-3.504 1.533-.879 5.06-3.353 5.858-3.957 2.843-2.154.622-3.852-1.624-2.755"/></g></svg>