<svg viewBox="0 0 72 72" xmlns="http://www.w3.org/2000/svg"><path fill="#B3B3B3" d="M68 4v64H4V4h64m4-4H0v72h72V0z"/><path fill="none" stroke="#00A5FF" stroke-miterlimit="10" stroke-width=".1" d="M12.923 10.958h46.154c1.062 0 1.923.861 1.923 1.923h0v46.154a1.923 1.923 0 01-1.923 1.923H12.923A1.923 1.923 0 0111 59.035h0V12.881c0-1.062.861-1.923 1.923-1.923h0z"/><path fill="none" stroke="#00A5FF" stroke-miterlimit="10" stroke-width=".1" d="M18.254 4h35.492A2.254 2.254 0 0156 6.254v59.492A2.254 2.254 0 0153.746 68H18.254A2.254 2.254 0 0116 65.746V6.254A2.254 2.254 0 0118.254 4z"/><path fill="none" stroke="#00A5FF" stroke-miterlimit="10" stroke-width=".1" d="M68 18.254v35.492A2.254 2.254 0 0165.746 56H6.254A2.254 2.254 0 014 53.746V18.254A2.254 2.254 0 016.254 16h59.492A2.254 2.254 0 0168 18.254z"/><circle cx="36" cy="36" r="29" fill="none" stroke="#00A5FF" stroke-miterlimit="10" stroke-width=".1"/><g stroke-linecap="round" stroke-miterlimit="10" stroke-width="6" stroke="#fff" fill="none" stroke-linejoin="round"><path d="M51.523 52.972C56.118 48.766 59 42.72 59 36c0-12.703-10.298-23-23-23-12.703 0-23 10.297-23 23 0 7.321 3.42 13.844 8.752 18.056m12.201-12.323c-1.43-.22-2.79-.73-4-1.52m12.1 0c-1.37.73-2.81 1.23-4.24 1.47"/><path d="M21.36 23.811a6.046 6.046 0 013.25-2.876 6.043 6.043 0 014.343-.403m21.751 3.279a6.893 6.893 0 00-7.582-3.288m-3.535 40.742c-3.803 3.252-10.35 3.38-12.775-.998 0 0-1.843-2.475-.24-7.234 0 0 .678-2.783 1.02-3.673.288-.746.723-1.253 2.861-1.43 2.543-.21 4.222-1.063 9.783.511 1.49.422 4.103 1.466 3.338 5.033 0 0-.246 2.323-2.392 1.608m5.097 4.133a1.927 1.927 0 00.233-3.847m-5.33 0h5.33m-1.837 3.937c-1.596-.05-3.37.438-5.166 2.026m6.77-2.116l-1.648.09"/><path d="M37.976 56.33a1.928 1.928 0 002.31.194c.787-.494 1.036-1.444.783-2.302-.311-1.054-.602-2.716-2.748-3.432m-3.576.716c2.146 0 2.919 4.464 2.919 4.464.465 1.792-.164 3.505-1.404 3.827-1.24.322-2.623-.869-3.089-2.66 0 0-.572-2.055-1.287-2.77m5.927-15.57a1.927 1.927 0 10-3.854-.002m-.004 8.715l.004-8.715m3.854.002l-.004 8.893M30 28a3.001 3.001 0 01-6 0c0-1.655 1.345-3 3-3s3 1.345 3 3m18 0a3.001 3.001 0 01-6 0c0-1.655 1.345-3 3-3s3 1.345 3 3"/></g><circle cx="36" cy="36" r="23" fill="none" stroke="#FCEA2B" stroke-miterlimit="10" stroke-width="1.8"/><path fill="#FCEA2B" d="M59 36c0-12.703-10.297-23-23-23S13 23.297 13 36c0 9.025 5.2 16.831 12.766 20.598.044 1.552.565 2.985 1.761 4.384 1.361 1.592 4.006 2.369 5.85 2.835 1.83.463 2.55-.306 6.374-3.013 1.206-.853 3.767-.887 5.722-2.146.292-.187 2 .413 2.146 0 .083-.234.34-1.663 0-2.146-.058-.082-.312-.204-.59-.325C54.161 52.28 59 44.707 59 36z"/><path fill="none" stroke="#000" stroke-linecap="round" stroke-linejoin="round" stroke-miterlimit="10" stroke-width="2" d="M51.523 52.972C56.118 48.766 59 42.72 59 36c0-12.703-10.298-23-23-23-12.703 0-23 10.297-23 23 0 7.321 3.42 13.844 8.752 18.056m12.201-12.323c-1.43-.22-2.79-.73-4-1.52m12.1 0c-1.37.73-2.81 1.23-4.24 1.47"/><path fill="none" stroke="#000" stroke-linecap="round" stroke-linejoin="round" stroke-miterlimit="10" stroke-width="2" d="M21.36 23.811a6.046 6.046 0 013.25-2.876 6.043 6.043 0 014.343-.403m21.751 3.279a6.893 6.893 0 00-7.582-3.288m-3.535 40.742c-3.803 3.252-10.35 3.38-12.775-.998 0 0-1.843-2.475-.24-7.234 0 0 .678-2.783 1.02-3.673.288-.746.723-1.253 2.861-1.43 2.543-.21 4.222-1.063 9.783.511 1.49.422 4.103 1.466 3.338 5.033 0 0-.246 2.323-2.392 1.608m5.097 4.133a1.927 1.927 0 00.233-3.847m-5.33 0h5.33m-1.837 3.937c-1.596-.05-3.37.438-5.166 2.026m6.77-2.116l-1.648.09"/><path fill="none" stroke="#000" stroke-linecap="round" stroke-linejoin="round" stroke-miterlimit="10" stroke-width="2" d="M37.976 56.33a1.928 1.928 0 002.31.194c.787-.494 1.036-1.444.783-2.302-.311-1.054-.602-2.716-2.748-3.432m-3.576.716c2.146 0 2.919 4.464 2.919 4.464.465 1.792-.164 3.505-1.404 3.827-1.24.322-2.623-.869-3.089-2.66 0 0-.572-2.055-1.287-2.77m5.927-15.57a1.927 1.927 0 10-3.854-.002m-.004 8.715l.004-8.715m3.854.002l-.004 8.893"/><path d="M30 28a3.001 3.001 0 01-6 0c0-1.655 1.345-3 3-3s3 1.345 3 3m18 0a3.001 3.001 0 01-6 0c0-1.655 1.345-3 3-3s3 1.345 3 3"/></svg>