<svg viewBox="0 0 72 72" xmlns="http://www.w3.org/2000/svg"><path fill="#b3b3b3" d="M68 4v64H4V4h64m4-4H0v72h72V0z"/><path fill="none" stroke="#00a5ff" stroke-miterlimit="10" stroke-width=".1" d="M12.923 10.958h46.154A1.923 1.923 0 0161 12.881v46.154a1.923 1.923 0 01-1.923 1.923H12.923A1.923 1.923 0 0111 59.035V12.881a1.923 1.923 0 011.923-1.923z"/><rect x="16" y="4" rx="2.254" width="40" height="64" fill="none" stroke="#00a5ff" stroke-miterlimit="10" stroke-width=".1"/><rect x="16" y="4" rx="2.254" width="40" height="64" transform="rotate(90 36 36)" fill="none" stroke="#00a5ff" stroke-miterlimit="10" stroke-width=".1"/><circle cx="36" cy="36" r="29" fill="none" stroke="#00a5ff" stroke-miterlimit="10" stroke-width=".1"/><g stroke-linecap="round" stroke-miterlimit="10" stroke-width="6" stroke="#fff" fill="none" stroke-linejoin="round"><path d="M18.63 56.82l9.198-3.526L53.82 27.3l-9.9-9.9-25.993 25.994-3.538 9.208zm28.705-42.833l3.504-3.503 9.9 9.9-3.474 3.473m-38.709 18.91l9.9 9.899"/><path d="M14.398 52.582l-2.49 6.733 6.748-2.506M36.91 25.007l9.512 9.513"/></g><path fill="#3F3F3F" d="M14.594 53.154l3.66 3.66-5.63 2.279z"/><path fill="#f4aa41" d="M18.038 41.876l18.83-18.83 11.313 11.313-18.67 18.67"/><path fill="#a57939" d="M14.413 52.566l3.515-9.171 9.9 9.899-9.172 3.515"/><path fill="#EA5A47" d="M42.92 16.993l7.503-7.502 11.313 11.313-7.438 7.438"/><path fill="#9b9b9a" d="M35.65 24.264l7.682-7.682 11.313 11.313-7.617 7.617"/><g fill="none" stroke="#000" stroke-linecap="round" stroke-linejoin="round" stroke-miterlimit="10" stroke-width="2"><path d="M18.63 56.82l9.198-3.526L53.82 27.3l-9.9-9.9-25.993 25.994-3.538 9.208zm28.705-42.833l3.504-3.503 9.9 9.9-3.474 3.473m-38.709 18.91l9.9 9.899"/><path d="M14.398 52.582l-2.49 6.733 6.748-2.506M36.91 25.007l9.512 9.513"/></g></svg>