<svg viewBox="0 0 72 72" xmlns="http://www.w3.org/2000/svg"><path fill="#b3b3b3" d="M68 4v64H4V4h64m4-4H0v72h72V0z"/><path fill="none" stroke="#00a5ff" stroke-miterlimit="10" stroke-width=".1" d="M12.923 10.958h46.154A1.923 1.923 0 0161 12.881v46.154a1.923 1.923 0 01-1.923 1.923H12.923A1.923 1.923 0 0111 59.035V12.881a1.923 1.923 0 011.923-1.923z"/><rect x="16" y="4" rx="2.254" width="40" height="64" fill="none" stroke="#00a5ff" stroke-miterlimit="10" stroke-width=".1"/><rect x="16" y="4" rx="2.254" width="40" height="64" transform="rotate(90 36 36)" fill="none" stroke="#00a5ff" stroke-miterlimit="10" stroke-width=".1"/><circle cx="36" cy="36" r="29" fill="none" stroke="#00a5ff" stroke-miterlimit="10" stroke-width=".1"/><path d="M17.77 54.11l-2.97 3.12m9.49-2.74l-2.908 3.164-7.794.77.63-7.807 3.217-2.984M59.14 17.23l-2.616-2.523-2.569-2.571s-11.46 7.181-19.01 15.42c-10.33 11.27-14.47 17.31-14.47 17.31l6.543 6.428a217.9 217.9 0 0017.05-14.78c8.133-7.672 15.08-19.28 15.08-19.28zM38.97 40.97l-8.391-8.243" stroke-linecap="round" stroke-miterlimit="10" stroke-width="6" stroke="#fff" fill="none" stroke-linejoin="round"/><path fill="#9b9b9a" d="M59.41 17.58l-2.598-2.541-2.55-2.589s-11.51 7.098-19.12 15.28c-10.41 11.19-14.59 17.2-14.59 17.2l6.497 6.475a217.9 217.9 0 0017.15-14.65c8.188-7.613 15.22-19.18 15.22-19.18z"/><path fill="#3f3f3f" d="M30.74 32.87c-3.746 3.706-7.071 7.812-10.19 12.06l6.466 6.364c4.308-3.05 8.277-6.436 12.05-10.13z"/><path fill="#d0cfce" stroke="#d0cfce" stroke-linecap="round" stroke-linejoin="round" stroke-width="2" d="M27.02 51.29l-5.638 6.36-7.794.77.63-7.807 6.337-5.687"/><g fill="none" stroke="#000" stroke-linecap="round" stroke-linejoin="round" stroke-width="2"><path d="M17.77 54.11l-2.97 3.12m9.49-2.74l-2.908 3.164-7.794.77.63-7.807 3.217-2.984M59.14 17.23l-2.616-2.523-2.569-2.571s-11.46 7.181-19.01 15.42c-10.33 11.27-14.47 17.31-14.47 17.31l6.543 6.428a217.9 217.9 0 0017.05-14.78c8.133-7.672 15.08-19.28 15.08-19.28zM38.97 40.97l-8.391-8.243"/></g></svg>