<svg viewBox="0 0 72 72" xmlns="http://www.w3.org/2000/svg"><path fill="#b3b3b3" d="M68 4v64H4V4h64m4-4H0v72h72V0z"/><path fill="none" stroke="#00a5ff" stroke-miterlimit="10" stroke-width=".1" d="M12.923 10.958h46.154A1.923 1.923 0 0161 12.881v46.154a1.923 1.923 0 01-1.923 1.923H12.923A1.923 1.923 0 0111 59.035V12.881a1.923 1.923 0 011.923-1.923z"/><rect x="16" y="4" rx="2.254" width="40" height="64" fill="none" stroke="#00a5ff" stroke-miterlimit="10" stroke-width=".1"/><rect x="16" y="4" rx="2.254" width="40" height="64" transform="rotate(90 36 36)" fill="none" stroke="#00a5ff" stroke-miterlimit="10" stroke-width=".1"/><circle cx="36" cy="36" r="29" fill="none" stroke="#00a5ff" stroke-miterlimit="10" stroke-width=".1"/><g stroke-linecap="round" stroke-miterlimit="10" stroke-width="6" stroke="#fff" fill="none" stroke-linejoin="round"><path d="M56 31.083c0-11.045-8.954-20-20-20s-20 8.955-20 20v33.875h40V31.083z"/><path d="M51.647 52.965v7.621H20.354v-7.492 1.927-24.416c0-8.641 7.005-15.647 15.646-15.647s15.646 7.006 15.646 15.647V55.02m-27.742-5.565h22.994M31 9a5 5 0 0110 0"/></g><path fill="#D22F27" d="M56 31.083c0-11.045-8.954-20-20-20s-20 8.955-20 20v33.875h40V31.083z"/><path fill="#EA5A47" d="M51.647 52.965v7.621H20.354v-7.492 1.927-24.416c0-8.641 7.005-15.647 15.646-15.647s15.646 7.006 15.646 15.647V55.02"/><g fill="none" stroke="#000" stroke-linecap="round" stroke-linejoin="round" stroke-miterlimit="10" stroke-width="2"><path d="M56 31.083c0-11.045-8.954-20-20-20s-20 8.955-20 20v33.875h40V31.083z"/><path d="M51.647 52.965v7.621H20.354v-7.492 1.927-24.416c0-8.641 7.005-15.647 15.646-15.647s15.646 7.006 15.646 15.647V55.02m-27.742-5.565h22.994M31 9a5 5 0 0110 0"/></g></svg>