<svg viewBox="0 0 72 72" xmlns="http://www.w3.org/2000/svg"><path fill="#b3b3b3" d="M68 4v64H4V4h64m4-4H0v72h72V0z"/><path fill="none" stroke="#00a5ff" stroke-miterlimit="10" stroke-width=".1" d="M12.923 10.958h46.154A1.923 1.923 0 0161 12.881v46.154a1.923 1.923 0 01-1.923 1.923H12.923A1.923 1.923 0 0111 59.035V12.881a1.923 1.923 0 011.923-1.923z"/><rect x="16" y="4" rx="2.254" width="40" height="64" fill="none" stroke="#00a5ff" stroke-miterlimit="10" stroke-width=".1"/><rect x="16" y="4" rx="2.254" width="40" height="64" transform="rotate(90 36 36)" fill="none" stroke="#00a5ff" stroke-miterlimit="10" stroke-width=".1"/><circle cx="36" cy="36" r="29" fill="none" stroke="#00a5ff" stroke-miterlimit="10" stroke-width=".1"/><g stroke-linecap="round" stroke-miterlimit="10" stroke-width="6" stroke="#fff" fill="none" stroke-linejoin="round"><circle cx="36" cy="22.002" r="3"/><path d="M4 22.875h64v5.042H4zm52 8.042v14.979H16v-14.98"/></g><path fill="#3F3F3F" stroke="#3F3F3F" stroke-miterlimit="10" stroke-width="2" d="M56 27.917v17.979H16v-17.98"/><path fill="#F1B31C" stroke="#F1B31C" stroke-miterlimit="10" stroke-width="2" d="M8.793 28.5v8.406"/><circle cx="8.793" cy="36.906" r="2" fill="#F1B31C"/><path fill="#F1B31C" stroke="#F1B31C" stroke-linecap="round" stroke-linejoin="round" stroke-miterlimit="10" stroke-width="1.747" d="M10.793 45.896H7l1.897-8.12h0z"/><path fill="#3F3F3F" d="M4 22.875h64v5.042H4zm52 8.042v14.979H16v-14.98"/><circle cx="36" cy="22.002" r="3"/><path fill="none" stroke="#000" stroke-linecap="round" stroke-linejoin="round" stroke-miterlimit="10" stroke-width="2" d="M4 22.875h64v5.042H4z"/><path fill="none" stroke="#000" stroke-linecap="round" stroke-linejoin="round" stroke-miterlimit="10" stroke-width="1.747" d="M56 30.917v14.979H16v-14.98"/></svg>