<svg viewBox="0 0 72 72" xmlns="http://www.w3.org/2000/svg"><path fill="#b3b3b3" d="M68 4v64H4V4h64m4-4H0v72h72V0z"/><path fill="none" stroke="#00a5ff" stroke-miterlimit="10" stroke-width=".1" d="M12.923 10.958h46.154A1.923 1.923 0 0161 12.881v46.154a1.923 1.923 0 01-1.923 1.923H12.923A1.923 1.923 0 0111 59.035V12.881a1.923 1.923 0 011.923-1.923z"/><rect x="16" y="4" rx="2.254" width="40" height="64" fill="none" stroke="#00a5ff" stroke-miterlimit="10" stroke-width=".1"/><rect x="16" y="4" rx="2.254" width="40" height="64" transform="rotate(90 36 36)" fill="none" stroke="#00a5ff" stroke-miterlimit="10" stroke-width=".1"/><circle cx="36" cy="36" r="29" fill="none" stroke="#00a5ff" stroke-miterlimit="10" stroke-width=".1"/><g stroke-linecap="round" stroke-miterlimit="10" stroke-width="6" stroke="#fff" fill="none" stroke-linejoin="round"><path d="M25.979 35.958L22.064 67.98h32l-3.915-32.02m-16.403-.002h8.644"/><path d="M54.341 22.055v15.907h8.723V16L48.207 8.827s-15.647 6.156-17.78 23.211m-9.518-9.983v15.907h-8.723V16l14.857-7.173s2.407.947 5.462 3.127m1.241 24.004h8.644"/></g><path fill="#F1B31C" stroke="#F1B31C" stroke-miterlimit="10" stroke-width="1.8" d="M30.426 32.038C32.56 14.983 47.52 9.43 47.52 9.43l14.857 7.173.12 20.776h-8.155V22.056L50.15 35.957l2.915 31.021-15 1-15-1 2.915-31.02-5.07-13.904v14.907h-8.723V17l14.857-7.173s2.407-.053 5.462 2.127c0 0 5.12 3.64 5.12 4.046"/><g fill="none" stroke="#000" stroke-linecap="round" stroke-linejoin="round" stroke-miterlimit="10" stroke-width="2"><path d="M25.979 35.958L22.064 67.98h32l-3.915-32.02m-16.403-.002h8.644"/><path d="M54.341 22.055v15.907h8.723V16L48.207 8.827s-15.647 6.156-17.78 23.211m-9.518-9.983v15.907h-8.723V16l14.857-7.173s2.407.947 5.462 3.127m1.241 24.004h8.644"/></g></svg>