<svg viewBox="0 0 72 72" xmlns="http://www.w3.org/2000/svg"><path fill="#b3b3b3" d="M68 4v64H4V4h64m4-4H0v72h72V0z"/><path fill="none" stroke="#00a5ff" stroke-miterlimit="10" stroke-width=".1" d="M12.923 10.958h46.154A1.923 1.923 0 0161 12.881v46.154a1.923 1.923 0 01-1.923 1.923H12.923A1.923 1.923 0 0111 59.035V12.881a1.923 1.923 0 011.923-1.923z"/><rect x="16" y="4" rx="2.254" width="40" height="64" fill="none" stroke="#00a5ff" stroke-miterlimit="10" stroke-width=".1"/><rect x="16" y="4" rx="2.254" width="40" height="64" transform="rotate(90 36 36)" fill="none" stroke="#00a5ff" stroke-miterlimit="10" stroke-width=".1"/><circle cx="36" cy="36" r="29" fill="none" stroke="#00a5ff" stroke-miterlimit="10" stroke-width=".1"/><g stroke-linecap="round" stroke-miterlimit="10" stroke-width="6" stroke="#fff" fill="none" stroke-linejoin="round"><path d="M56.588 17.04l7.79 7.79s-1.83 3.292-7.755 5.417M16.412 17.04l-7.79 7.79s1.83 3.292 7.755 5.417"/><path d="M36.377 60.958h-20S20.285 53.697 20.285 39s-3.908-21.96-3.908-21.96h9.89c0 6.082 5.336 6.603 5.336 6.603l4.774 10.205h.245l4.775-10.205s5.336-.521 5.336-6.603h9.89s-3.91 7.262-3.91 21.96 3.908 21.958 3.908 21.958h-20"/><path d="M43.798 17c0 1.377-3.213 2.494-7.175 2.494S29.447 18.378 29.447 17"/></g><path fill="#8967AA" stroke="#8967AA" stroke-miterlimit="10" stroke-width="2" d="M16.412 17.04l-7.317 8.12s1.357 2.962 7.282 5.087l3.556 1.357"/><path fill="#8967AA" d="M16.412 17.04l-7.79 7.79s1.83 3.292 7.755 5.417"/><path fill="#8967AA" stroke="#8967AA" stroke-miterlimit="10" stroke-width="2" d="M56.588 17.04l7.259 8.16s-1.299 2.922-7.224 5.047l-3.38 1.302"/><path fill="#8967AA" d="M56.588 17.04l7.79 7.79s-1.83 3.292-7.755 5.417"/><path fill="#B399C8" d="M29.447 16c0 1.454 3.213 2.633 7.176 2.633s7.175-1.179 7.175-2.633h2.936l-2.936 13.62-8.155 5.323-8.807-8.998-1.634-9.903L29.447 16z"/><path fill="#8967AA" d="M36.377 60.958h-20S20.285 53.697 20.285 39s-3.908-21.96-3.908-21.96h9.89c0 6.082 5.336 6.603 5.336 6.603l4.774 10.205h.245l4.775-10.205s5.336-.521 5.336-6.603h9.89s-3.91 7.262-3.91 21.96 3.908 21.958 3.908 21.958h-20"/><g fill="none" stroke="#000" stroke-linecap="round" stroke-linejoin="round" stroke-miterlimit="10"><path stroke-width="2.096" d="M56.588 17.04l7.79 7.79s-1.83 3.292-7.755 5.417M16.412 17.04l-7.79 7.79s1.83 3.292 7.755 5.417"/><path stroke-width="2.096" d="M36.377 60.958h-20S20.285 53.697 20.285 39s-3.908-21.96-3.908-21.96h9.89c0 6.082 5.336 6.603 5.336 6.603l4.774 10.205h.245l4.775-10.205s5.336-.521 5.336-6.603h9.89s-3.91 7.262-3.91 21.96 3.908 21.958 3.908 21.958h-20"/><path stroke-width="2" d="M43.798 17c0 1.377-3.213 2.494-7.175 2.494S29.447 18.378 29.447 17"/></g></svg>