<svg viewBox="0 0 72 72" xmlns="http://www.w3.org/2000/svg"><path fill="#b3b3b3" d="M68 4v64H4V4h64m4-4H0v72h72V0z"/><path fill="none" stroke="#00a5ff" stroke-miterlimit="10" stroke-width=".1" d="M12.923 10.958h46.154A1.923 1.923 0 0161 12.881v46.154a1.923 1.923 0 01-1.923 1.923H12.923A1.923 1.923 0 0111 59.035V12.881a1.923 1.923 0 011.923-1.923z"/><rect x="16" y="4" rx="2.254" width="40" height="64" fill="none" stroke="#00a5ff" stroke-miterlimit="10" stroke-width=".1"/><rect x="16" y="4" rx="2.254" width="40" height="64" transform="rotate(90 36 36)" fill="none" stroke="#00a5ff" stroke-miterlimit="10" stroke-width=".1"/><circle cx="36" cy="36" r="29" fill="none" stroke="#00a5ff" stroke-miterlimit="10" stroke-width=".1"/><g stroke-linecap="round" stroke-miterlimit="10" stroke-width="6" stroke="#fff" fill="none" stroke-linejoin="round"><path d="M7.682 50.464A10.082 10.082 0 014 42.664c0-2.79 1.13-12.315 2.959-14.143 0 0 16.438 9.125 29.045 0L48.478 36s6.755.827 11.63 1.256c4.892.43 6.633 4.93 6.633 7.633 0 8.652-13.338 7.223-20.065 6.855l-13.268-.724"/><path d="M11 50.7h16.544V54H11zm26.097-17.315l-2.769 1.911m6.335-.048l-2.77 1.911m6.334-.048l-2.769 1.912"/></g><path fill="#A57939" d="M7.682 50.464A10.082 10.082 0 014 42.664c0-2.79 1.13-12.315 2.959-14.143 0 0 16.438 9.125 29.045 0L48.478 36s6.755.827 11.63 1.256c4.892.43 6.633 4.93 6.633 7.633 0 8.652-13.338 7.223-20.065 6.855l-13.268-.724-20.712-.32-5.014-.236z"/><path fill="#A57939" stroke="#A57939" stroke-miterlimit="10" stroke-width="2" d="M7.682 50.464A10.082 10.082 0 014 42.664c0-2.79 1.13-12.315 2.959-14.143 0 0 16.438 9.125 29.045 0L48.478 36s6.755.827 11.63 1.256c4.892.43 6.633 4.93 6.633 7.633 0 8.652-13.338 7.223-20.065 6.855l-13.268-.724-25.726-.556z"/><path fill="#3F3F3F" d="M11 50.7h16.544V54H11z"/><g fill="none" stroke="#000" stroke-linecap="round" stroke-linejoin="round" stroke-miterlimit="10" stroke-width="2"><path d="M7.682 50.464A10.082 10.082 0 014 42.664c0-2.79 1.13-12.315 2.959-14.143 0 0 16.438 9.125 29.045 0L48.478 36s6.755.827 11.63 1.256c4.892.43 6.633 4.93 6.633 7.633 0 8.652-13.338 7.223-20.065 6.855l-13.268-.724"/><path d="M11 50.7h16.544V54H11zm26.097-17.315l-2.769 1.911m6.335-.048l-2.77 1.911m6.334-.048l-2.769 1.912"/></g></svg>