<svg viewBox="0 0 72 72" xmlns="http://www.w3.org/2000/svg"><path fill="#b3b3b3" d="M68 4v64H4V4h64m4-4H0v72h72V0z"/><path fill="none" stroke="#00a5ff" stroke-miterlimit="10" stroke-width=".1" d="M12.923 10.958h46.154A1.923 1.923 0 0161 12.881v46.154a1.923 1.923 0 01-1.923 1.923H12.923A1.923 1.923 0 0111 59.035V12.881a1.923 1.923 0 011.923-1.923z"/><rect x="16" y="4" rx="2.254" width="40" height="64" fill="none" stroke="#00a5ff" stroke-miterlimit="10" stroke-width=".1"/><rect x="16" y="4" rx="2.254" width="40" height="64" transform="rotate(90 36 36)" fill="none" stroke="#00a5ff" stroke-miterlimit="10" stroke-width=".1"/><circle cx="36" cy="36" r="29" fill="none" stroke="#00a5ff" stroke-miterlimit="10" stroke-width=".1"/><g stroke-linecap="round" stroke-miterlimit="10" stroke-width="6" stroke="#fff" fill="none" stroke-linejoin="round"><path d="M56.227 53.879H19.033a6.02 6.02 0 01-6.01-6.391l1.259-20.417a6.02 6.02 0 016.01-5.65h34.677a6.02 6.02 0 016.01 5.65l1.257 20.417a6.02 6.02 0 01-6.009 6.39z"/><path d="M17.365 30.018c.17-3.175 1.454-5.65 4.215-5.65h32.1c2.761 0 4.046 2.475 4.216 5.65m-44.604-8.261l-2.54-2.54"/></g><path fill="#A57939" d="M56.227 53.879H19.033a6.02 6.02 0 01-6.01-6.391l1.259-20.417a6.02 6.02 0 016.01-5.65h34.677a6.02 6.02 0 016.01 5.65l1.257 20.417a6.02 6.02 0 01-6.009 6.39z"/><g fill="none" stroke="#000" stroke-linecap="round" stroke-linejoin="round" stroke-miterlimit="10"><path stroke-width="2" d="M56.227 53.879H19.033a6.02 6.02 0 01-6.01-6.391l1.259-20.417a6.02 6.02 0 016.01-5.65h34.677a6.02 6.02 0 016.01 5.65l1.257 20.417a6.02 6.02 0 01-6.009 6.39z"/><path stroke-width="1.863" d="M17.365 30.018c.17-3.175 1.454-5.65 4.215-5.65h32.1c2.761 0 4.046 2.475 4.216 5.65"/><path stroke-width="2" d="M13.292 21.757l-2.54-2.54"/></g></svg>