<svg viewBox="0 0 72 72" xmlns="http://www.w3.org/2000/svg"><path fill="#b3b3b3" d="M68 4v64H4V4h64m4-4H0v72h72V0z"/><path fill="none" stroke="#00a5ff" stroke-miterlimit="10" stroke-width=".1" d="M12.923 10.958h46.154A1.923 1.923 0 0161 12.881v46.154a1.923 1.923 0 01-1.923 1.923H12.923A1.923 1.923 0 0111 59.035V12.881a1.923 1.923 0 011.923-1.923z"/><rect x="16" y="4" rx="2.254" width="40" height="64" fill="none" stroke="#00a5ff" stroke-miterlimit="10" stroke-width=".1"/><rect x="16" y="4" rx="2.254" width="40" height="64" transform="rotate(90 36 36)" fill="none" stroke="#00a5ff" stroke-miterlimit="10" stroke-width=".1"/><circle cx="36" cy="36" r="29" fill="none" stroke="#00a5ff" stroke-miterlimit="10" stroke-width=".1"/><g stroke-linecap="round" stroke-miterlimit="10" stroke-width="6" stroke="#fff" fill="none" stroke-linejoin="round"><path d="M10.37 52.98l.673 7.978h7.84l.673-6.234"/><path d="M50.37 52.663c5.015.19 5 8.295 5 8.295H30.373L21.78 49.906H10.37c1.024-3.17 5.467-8.176 6.56-11.846 3.614-12.121-7.725-27.102-7.725-27.102C21.615 1.021 41.648 4 41.648 4s-5.28 8.297-6.279 22.575c-1.016 14.516-.014 18.888 3.286 22.93 3.3 4.04 6.698 2.968 11.714 3.158zM22.278 9.14l3.758 16.173"/></g><path fill="#6A462F" d="M9.37 49.906l.673 11.052 9.845.27 1.194-11.052"/><path fill="#6A462F" d="M10.37 52.98l.673 7.978h7.84l.673-6.234"/><path fill="#A57939" d="M50.37 52.663c5.015.19 5 8.295 5 8.295H30.373L21.78 49.906H10.37c1.024-3.17 5.467-8.176 6.56-11.846 3.614-12.121-7.725-27.102-7.725-27.102C21.615 1.021 41.648 4 41.648 4s-5.28 8.297-6.279 22.575c-1.016 14.516-.014 18.888 3.286 22.93 3.3 4.04 6.698 2.968 11.714 3.158zM22.278 9.14l3.758 16.173"/><g fill="none" stroke="#000" stroke-linecap="round" stroke-linejoin="round" stroke-miterlimit="10" stroke-width="2"><path d="M10.37 52.98l.673 7.978h7.84l.673-6.234"/><path d="M50.37 52.663c5.015.19 5 8.295 5 8.295H30.373L21.78 49.906H10.37c1.024-3.17 5.467-8.176 6.56-11.846 3.614-12.121-7.725-27.102-7.725-27.102C21.615 1.021 41.648 4 41.648 4s-5.28 8.297-6.279 22.575c-1.016 14.516-.014 18.888 3.286 22.93 3.3 4.04 6.698 2.968 11.714 3.158zM22.278 9.14l3.758 16.173"/></g></svg>