<svg viewBox="0 0 72 72" xmlns="http://www.w3.org/2000/svg"><path fill="#B3B3B3" d="M68 4v64H4V4h64m4-4H0v72h72V0z"/><path fill="none" stroke="#00A5FF" stroke-miterlimit="10" stroke-width=".1" d="M12.923 10.958h46.154c1.062 0 1.923.861 1.923 1.923h0v46.154a1.923 1.923 0 01-1.923 1.923H12.923A1.923 1.923 0 0111 59.035h0V12.881c0-1.062.861-1.923 1.923-1.923h0z"/><path fill="none" stroke="#00A5FF" stroke-miterlimit="10" stroke-width=".1" d="M18.254 4h35.492A2.254 2.254 0 0156 6.254v59.492A2.254 2.254 0 0153.746 68H18.254A2.254 2.254 0 0116 65.746V6.254A2.254 2.254 0 0118.254 4z"/><path fill="none" stroke="#00A5FF" stroke-miterlimit="10" stroke-width=".1" d="M68 18.254v35.492A2.254 2.254 0 0165.746 56H6.254A2.254 2.254 0 014 53.746V18.254A2.254 2.254 0 016.254 16h59.492A2.254 2.254 0 0168 18.254z"/><circle cx="36" cy="36" r="29" fill="none" stroke="#00A5FF" stroke-miterlimit="10" stroke-width=".1"/><g stroke-linecap="round" stroke-miterlimit="10" stroke-width="6" stroke="#fff" fill="none" stroke-linejoin="round"><circle cx="40.467" cy="54" r="1.95"/><path d="M41.783 58.045l.622 7.947-7.124-1.185 2.843-7.37"/><path stroke-dasharray="0,6.7346,0,0,0,0" d="M47.61 12.847c1.138 11.194-2.557 14.38 7.968 15.443 10.524 1.063.696 20.041-13.976 20.041s-16.363-10.25-12.19-14.425c4.174-4.174-3.118-6.26-4.31-4.174s-17.902.153-9.934-10.624 31.303-17.454 32.441-6.26z"/></g><circle cx="40.467" cy="54" r="1.95"/><path fill="#F1B31C" d="M37.304 56.926l1.303-3.658 3.798.242.317 4.418z"/><path fill="#F1B31C" d="M41.562 55.217l.843 10.775-7.124-1.185 3.784-9.81"/><circle cx="40.467" cy="54" r="2" fill="#FCEA2B"/><path fill="#F1B31C" d="M41.783 58.045l.622 7.947-7.124-1.185 2.843-7.37"/><g fill="none" stroke="#000" stroke-linecap="round" stroke-linejoin="round"><path stroke-miterlimit="10" stroke-width="2" d="M41.783 58.045l.622 7.947-7.124-1.185 2.843-7.37"/><path stroke-dasharray="0,6.7346,0,0,0,0" stroke-width="4" d="M47.61 12.847c1.138 11.194-2.557 14.38 7.968 15.443 10.524 1.063.696 20.041-13.976 20.041s-16.363-10.25-12.19-14.425c4.174-4.174-3.118-6.26-4.31-4.174s-17.902.153-9.934-10.624 31.303-17.454 32.441-6.26z"/></g><path fill="none" stroke="#D22F27" stroke-dasharray="0,6.7346,0,0,0,0" stroke-linecap="round" stroke-linejoin="round" stroke-width="4" d="M47.61 12.847c1.138 11.194-2.557 14.38 7.968 15.443 10.524 1.063.696 20.041-13.976 20.041s-16.363-10.25-12.19-14.425c4.174-4.174-3.118-6.26-4.31-4.174s-17.902.153-9.934-10.624 31.303-17.454 32.441-6.26z"/></svg>