<svg viewBox="0 0 72 72" xmlns="http://www.w3.org/2000/svg"><path fill="#b3b3b3" d="M68 4v64H4V4h64m4-4H0v72h72V0z"/><path fill="none" stroke="#00a5ff" stroke-miterlimit="10" stroke-width=".1" d="M12.923 10.958h46.154A1.923 1.923 0 0161 12.881v46.154a1.923 1.923 0 01-1.923 1.923H12.923A1.923 1.923 0 0111 59.035V12.881a1.923 1.923 0 011.923-1.923z"/><rect x="16" y="4" rx="2.254" width="40" height="64" fill="none" stroke="#00a5ff" stroke-miterlimit="10" stroke-width=".1"/><rect x="16" y="4" rx="2.254" width="40" height="64" transform="rotate(90 36 36)" fill="none" stroke="#00a5ff" stroke-miterlimit="10" stroke-width=".1"/><circle cx="36" cy="36" r="29" fill="none" stroke="#00a5ff" stroke-miterlimit="10" stroke-width=".1"/><g stroke-linecap="round" stroke-miterlimit="10" stroke-width="6" stroke="#fff" fill="none" stroke-linejoin="round"><path d="M6.427 40.77c-1.693-8.08 2.518-15.016 3.84-14.817 8.096 8.635 25.032 7.974 35.8 6.114.843-.146 1.545-2.101 2.387-2.177 7.873-.709 15.016 1.618 16.621 4.748 3.036 5.916-.53 10.938-36.626 9.27a38.643 38.643 0 01-3.7-1.43"/><path d="M6.427 40.77h13.912v3.417H6.427z"/></g><path fill="#ffa7c0" stroke="#ffa7c0" stroke-miterlimit="10" stroke-width="2" d="M27.294 41.682c.043 1.86 5.834 2.564 8.711 2.49 28.007-.724 30.06-2.312 29.389-8.65-.369-3.478-9.119-6.302-17.115-5.497-.73.074-1.352 1.877-2.082 2.003-10.767 1.86-27.834 2.56-35.93-6.075-1.322-.198-4.887 9.17-3.542 15.351z"/><path fill="#3f3f3f" d="M6.427 40.77h13.912v3.417H6.427z"/><g fill="none" stroke="#000" stroke-linecap="round" stroke-linejoin="round" stroke-width="2"><path d="M6.427 40.77c-1.693-8.08 2.518-15.016 3.84-14.817 8.096 8.635 25.032 7.974 35.8 6.114.843-.146 1.545-2.101 2.387-2.177 7.873-.709 15.016 1.618 16.621 4.748 3.036 5.916-.53 10.938-36.626 9.27a38.643 38.643 0 01-3.7-1.43"/><path d="M6.427 40.77h13.912v3.417H6.427z"/></g></svg>