<svg viewBox="0 0 72 72" xmlns="http://www.w3.org/2000/svg"><path fill="#b3b3b3" d="M68 4v64H4V4h64m4-4H0v72h72V0z"/><path fill="none" stroke="#00a5ff" stroke-miterlimit="10" stroke-width=".1" d="M12.923 10.958h46.154A1.923 1.923 0 0161 12.881v46.154a1.923 1.923 0 01-1.923 1.923H12.923A1.923 1.923 0 0111 59.035V12.881a1.923 1.923 0 011.923-1.923z"/><rect x="16" y="4" rx="2.254" width="40" height="64" fill="none" stroke="#00a5ff" stroke-miterlimit="10" stroke-width=".1"/><rect x="16" y="4" rx="2.254" width="40" height="64" transform="rotate(90 36 36)" fill="none" stroke="#00a5ff" stroke-miterlimit="10" stroke-width=".1"/><circle cx="36" cy="36" r="29" fill="none" stroke="#00a5ff" stroke-miterlimit="10" stroke-width=".1"/><g stroke-linecap="round" stroke-miterlimit="10" stroke-width="6" stroke="#fff" fill="none" stroke-linejoin="round"><path d="M58.532 26.287c-.553-3.29-3.206-3.565-5.06-4.053a1.65 1.65 0 01-1.164-2.075 9.307 9.307 0 00.349-4.987c-.84-2.723-4.504-4.472-5.076-4.017a20.754 20.754 0 01-11.608 4.017 20.754 20.754 0 01-11.608-4.017c-.572-.455-4.236 1.294-5.075 4.017a9.497 9.497 0 00.394 5.134 1.472 1.472 0 01-.978 1.865c-1.856.533-4.715.686-5.292 4.116-1.198 7.114 3.925 8.466 6.665 8.807 7.886.98 23.886.84 31.788 0 2.746-.292 7.863-1.693 6.666-8.807zm-2.476 28.424V37.337M42.8 56.118V38.743m9.419 21.236v-6.014m-2.666 6.342v-6.014m-2.666 6.343v-6.015"/><path d="M22.98 23.431c3.707 1.675 7.57 2.176 12.993 2.176a25.135 25.135 0 007.165-1.088"/></g><path fill="#ea5a47" d="M58.532 26.287c-.763-4.537-5.517-3.34-6.665-4.874 0 0 1.573-3.701.79-6.24-.84-2.724-4.503-4.473-5.075-4.018a20.754 20.754 0 01-11.608 4.017 20.754 20.754 0 01-11.609-4.017c-.572-.454-4.235 1.294-5.075 4.017a8.208 8.208 0 00.107 4.098 2.65 2.65 0 01-1.916 3.208c-1.696.422-3.607 1.074-4.067 3.809-1.197 7.114 3.925 8.466 6.665 8.807 7.887.98 23.886.84 31.788 0 2.746-.292 7.863-1.693 6.666-8.807z"/><path fill="#ea5a47" d="M41.786 35.782s7.049-.412 7.43-.454a33.653 33.653 0 007.826-1.811c.02-.006 0 5.638 0 5.638-.16 6.567-.852 16.53-.852 16.53l-13.39 1.44s-.156-10.784-.23-17.146c-.002-.13-.783-.834-.784-.96z"/><path fill="none" stroke="#ea5a47" stroke-linecap="round" stroke-linejoin="round" stroke-width="2" d="M46.14 61.108v-6.015m2.666 5.686v-6.014m2.666 5.686v-6.014"/><path fill="#d22f27" d="M58.532 26.287c-1.11-4.465-5.517-3.34-6.665-4.874 0 0 1.573-3.701.79-6.24-.84-2.724-4.503-4.473-5.075-4.018a24.642 24.642 0 01-1.442 12.277s1.05 7.163-3.45 12.346c0 0 18.328.511 15.843-9.491zm-1.49 7.23l-5.954 22.642 4.528-.574 1.426-18.01v-4.058z"/><g fill="none" stroke="#000" stroke-width="2"><path stroke-miterlimit="10" d="M58.532 26.287c-.553-3.29-3.206-3.565-5.06-4.053a1.65 1.65 0 01-1.164-2.075 9.307 9.307 0 00.349-4.987c-.84-2.723-4.504-4.472-5.076-4.017a20.754 20.754 0 01-11.608 4.017 20.754 20.754 0 01-11.608-4.017c-.572-.455-4.236 1.294-5.075 4.017a9.497 9.497 0 00.394 5.134 1.472 1.472 0 01-.978 1.865c-1.856.533-4.715.686-5.292 4.116-1.198 7.114 3.925 8.466 6.665 8.807 7.886.98 23.886.84 31.788 0 2.746-.292 7.863-1.693 6.666-8.807z"/><path stroke-linecap="round" stroke-linejoin="round" d="M56.056 54.711V37.337M42.8 56.118V38.743m9.419 21.236v-6.014m-2.666 6.342v-6.014m-2.666 6.343v-6.015"/><path stroke-linecap="round" stroke-miterlimit="10" d="M22.98 23.431c3.707 1.675 7.57 2.176 12.993 2.176a25.135 25.135 0 007.165-1.088"/></g></svg>