<svg viewBox="0 0 72 72" xmlns="http://www.w3.org/2000/svg"><path fill="#b3b3b3" d="M68 4v64H4V4h64m4-4H0v72h72V0z"/><path fill="none" stroke="#00a5ff" stroke-miterlimit="10" stroke-width=".1" d="M12.923 10.958h46.154A1.923 1.923 0 0161 12.881v46.154a1.923 1.923 0 01-1.923 1.923H12.923A1.923 1.923 0 0111 59.035V12.881a1.923 1.923 0 011.923-1.923z"/><rect x="16" y="4" rx="2.254" width="40" height="64" fill="none" stroke="#00a5ff" stroke-miterlimit="10" stroke-width=".1"/><rect x="16" y="4" rx="2.254" width="40" height="64" transform="rotate(90 36 36)" fill="none" stroke="#00a5ff" stroke-miterlimit="10" stroke-width=".1"/><circle cx="36" cy="36" r="29" fill="none" stroke="#00a5ff" stroke-miterlimit="10" stroke-width=".1"/><g stroke-linecap="round" stroke-miterlimit="10" stroke-width="6" stroke="#fff" fill="none" stroke-linejoin="round"><path d="M6 54.963h53.69M37.374 25.742a2.02 2.02 0 014 0M19.79 51v-8.395c0-9.235 8.942-16.79 19.87-16.79"/><path d="M39.087 25.814c10.93 0 19.871 7.556 19.871 16.79V51"/></g><g fill="#92d3f5"><path d="M39.506 26c11.275.005 20.497 7.53 20.493 16.723l-.004 8.358-.001 3.928-41-.018.002-3.928.003-8.357c.004-9.193 9.232-16.71 20.507-16.706"/><path d="M39.506 26c11.275.005 20.497 7.53 20.493 16.723l-.004 8.358-.001 3.928-41-.018.002-3.928.003-8.357c.004-9.193 9.232-16.71 20.507-16.706"/></g><path fill="#61b2e4" d="M48.031 28.11A22.524 22.524 0 0041 26.997s11.135 7.481 7.033 27.002l11.962.005.001-3.657.004-7.78c.003-6.529-4.97-12.154-11.969-14.457"/><g stroke="#000" stroke-linecap="round" stroke-linejoin="round" stroke-width="2"><path fill="none" d="M6 54.963h53.69"/><path d="M37.374 25.742a2.02 2.02 0 014 0"/><g fill="none"><path d="M19.79 51v-8.395c0-9.235 8.942-16.79 19.87-16.79"/><path d="M39.087 25.814c10.93 0 19.871 7.556 19.871 16.79V51"/></g></g></svg>