<svg viewBox="0 0 72 72" xmlns="http://www.w3.org/2000/svg"><path fill="#b3b3b3" d="M68 4v64H4V4h64m4-4H0v72h72V0z"/><path fill="none" stroke="#00a5ff" stroke-miterlimit="10" stroke-width=".1" d="M12.923 10.958h46.154A1.923 1.923 0 0161 12.881v46.154a1.923 1.923 0 01-1.923 1.923H12.923A1.923 1.923 0 0111 59.035V12.881a1.923 1.923 0 011.923-1.923z"/><rect x="16" y="4" rx="2.254" ry="2.254" width="40" height="64" fill="none" stroke="#00a5ff" stroke-miterlimit="10" stroke-width=".1"/><rect x="16" y="4" rx="2.254" ry="2.254" width="40" height="64" transform="rotate(90 36 36)" fill="none" stroke="#00a5ff" stroke-miterlimit="10" stroke-width=".1"/><circle cx="36" cy="36" r="29" fill="none" stroke="#00a5ff" stroke-miterlimit="10" stroke-width=".1"/><path d="M10 54.904c-2.248-1.853-3-8.255-3-11.396 0-2.79 1.13-4.315 2.959-6.144 0 0 2.658-2.132 4.041-1 4.529 3.71 15.658 14.215 27.004 2 0 0 15.996 2.636 20.32 4.546C67 45 65.741 45.03 65.741 47.733c0 8.651-6.084 7.539-12.81 7.171-3.707-.202-38.801.226-42.93 0m36.525-15.102l-5.071 5.938m.915-6.136l3.533 4.136" stroke-linecap="round" stroke-miterlimit="10" stroke-width="6" stroke="#fff" fill="none" stroke-linejoin="round"/><path fill="#ffa7c0" d="M10 54.904c-2.248-1.853-3-8.255-3-11.396 0-2.79 1.13-4.315 2.959-6.144 0 0 2.658-2.132 4.041-1 4.529 3.71 15.658 15.215 27.004 3 0 0 15.577 2.343 20.32 3.546C67 45 65.741 45.03 65.741 47.733c0 8.651-6.084 7.539-12.81 7.171-3.707-.202-38.801.226-42.93 0"/><path d="M10 54.904c-2.248-1.853-3-8.255-3-11.396 0-2.79 1.13-4.315 2.959-6.144 0 0 2.658-2.132 4.041-1 4.529 3.71 15.658 14.215 27.004 2 0 0 15.996 2.636 20.32 4.546C67 45 65.741 45.03 65.741 47.733c0 8.651-6.084 7.539-12.81 7.171-3.707-.202-38.801.226-42.93 0m36.525-15.102l-5.071 5.938m.915-6.136l3.533 4.136" fill="none" stroke="#000" stroke-linecap="round" stroke-linejoin="round" stroke-width="2"/></svg>