<svg viewBox="0 0 72 72" xmlns="http://www.w3.org/2000/svg"><path fill="#B3B3B3" d="M68 4v64H4V4h64m4-4H0v72h72V0z"/><path fill="none" stroke="#00A5FF" stroke-miterlimit="10" stroke-width=".1" d="M12.923 10.958h46.154c1.062 0 1.923.861 1.923 1.923v46.154a1.923 1.923 0 01-1.923 1.923H12.923A1.923 1.923 0 0111 59.035h0V12.881c0-1.062.861-1.923 1.923-1.923h0z"/><path fill="none" stroke="#00A5FF" stroke-miterlimit="10" stroke-width=".1" d="M18.254 4h35.492A2.254 2.254 0 0156 6.254v59.492A2.254 2.254 0 0153.746 68H18.254A2.254 2.254 0 0116 65.746V6.254A2.254 2.254 0 0118.254 4z"/><path fill="none" stroke="#00A5FF" stroke-miterlimit="10" stroke-width=".1" d="M68 18.254v35.492A2.254 2.254 0 0165.746 56H6.254A2.254 2.254 0 014 53.746V18.254A2.254 2.254 0 016.254 16h59.492A2.254 2.254 0 0168 18.254z"/><circle cx="36" cy="36" r="29" fill="none" stroke="#00A5FF" stroke-miterlimit="10" stroke-width=".1"/><g stroke-linecap="round" stroke-miterlimit="10" stroke-width="6" stroke="#fff" fill="none" stroke-linejoin="round"><path d="M61.093 35.274c-12.858 5.591-10.02 6.275-16.19 14.72-5.512 7.545-12.362 7.437-17.88-.1-6.45-8.812-3.815-9.029-16.014-14.65"/><path d="M32.585 54.562s-1.59-19.318-21.576-19.318c-2.002 0-2.817-2.358-2.817-5.099v-1.461c0-1.682.996-1.523 2.225-1.523h51.166c1.229 0 2.225-.16 2.225 1.523v1.575c0 2.685-.753 4.984-2.714 4.984-20.089 0-21.752 19.32-21.752 19.32"/></g><path fill="#61B2E4" d="M8.192 30.206c0-1.682.996-1.522 2.225-1.522h51.166c1.229 0 2.225-.16 2.225 1.522v1.575c0 2.686-.845 2.68-2.714 3.493-12.859 5.591-10.02 6.275-16.19 14.72-5.513 7.545-12.363 7.437-17.88-.1-6.452-8.812-3.816-9.029-16.015-14.65-1.898-.875-2.817-3.881-2.817-6.622v1.584z"/><path fill="#92D3F5" d="M8.192 28.684c0-1.682.996-1.523 2.225-1.523h51.166c1.229 0 2.225 1.363 2.225 3.045v-1.47c0 2.686-.753 6.539-2.714 6.539-20.645 0-18.976 15.693-22.864 20.254h-4.533c-2.702-2.939-2.146-19.993-22.688-20.285-2.002-.028-2.817-.835-2.817-3.576v-2.984z"/><g fill="none" stroke="#000" stroke-miterlimit="10" stroke-width="2"><path d="M61.093 35.274c-12.858 5.591-10.02 6.275-16.19 14.72-5.512 7.545-12.362 7.437-17.88-.1-6.45-8.812-3.815-9.029-16.014-14.65"/><path d="M32.585 54.562s-1.59-19.318-21.576-19.318c-2.002 0-2.817-2.358-2.817-5.099v-1.461c0-1.682.996-1.523 2.225-1.523h51.166c1.229 0 2.225-.16 2.225 1.523v1.575c0 2.685-.753 4.984-2.714 4.984-20.089 0-21.752 19.32-21.752 19.32"/></g></svg>