<svg viewBox="0 0 72 72" xmlns="http://www.w3.org/2000/svg"><path fill="#b3b3b3" d="M68 4v64H4V4h64m4-4H0v72h72V0z"/><path fill="none" stroke="#00a5ff" stroke-miterlimit="10" stroke-width=".1" d="M12.923 10.958h46.154A1.923 1.923 0 0161 12.881v46.154a1.923 1.923 0 01-1.923 1.923H12.923A1.923 1.923 0 0111 59.035V12.881a1.923 1.923 0 011.923-1.923z"/><rect x="16" y="4" rx="2.254" ry="2.254" width="40" height="64" fill="none" stroke="#00a5ff" stroke-miterlimit="10" stroke-width=".1"/><rect x="16" y="4" rx="2.254" ry="2.254" width="40" height="64" transform="rotate(90 36 36)" fill="none" stroke="#00a5ff" stroke-miterlimit="10" stroke-width=".1"/><circle cx="36" cy="36" r="29" fill="none" stroke="#00a5ff" stroke-miterlimit="10" stroke-width=".1"/><g stroke-linecap="round" stroke-miterlimit="10" stroke-width="6" stroke="#fff" fill="none" stroke-linejoin="round"><path d="M36.621 42.671c-2.56 0-3.934.76-3.934 1.829s-2 6.413-2 6.413H16.625V17.958h40v32.955H42.563s-2-5.344-2-6.413-1.374-1.829-3.934-1.829zm-9.577-16.343S26.659 34 18.956 39.795m27-13.467s.385 7.672 8.088 13.467M17 24h39m-22 5c2.004-1.282-.028-3.27 2-4m4 5c-1.682-1.682-.972-4.27-3-5"/><circle cx="36.5" cy="25.5" r=".5"/></g><path fill="#d0cfce" d="M36.621 42.671c-2.56 0-3.934.76-3.934 1.829s-2 6.413-2 6.413H16.625V18.958h40v31.955H42.563s-2-5.344-2-6.413-1.374-1.829-3.934-1.829"/><path fill="#3f3f3f" d="M17 18h39v6H17z"/><path fill="#d0cfce" d="M34 29c2.004-1.282-.028-3.27 2-4m4 5c-1.682-1.682-.972-4.27-3-5"/><circle cx="36.5" cy="25.5" r=".5" fill="#d0cfce"/><g fill="none" stroke="#000" stroke-linecap="round" stroke-linejoin="round"><path stroke-width="2" d="M36.621 42.671c-2.56 0-3.934.76-3.934 1.829s-2 6.413-2 6.413H16.625V17.958h40v32.955H42.563s-2-5.344-2-6.413-1.374-1.829-3.934-1.829zm-9.577-16.343S26.659 34 18.956 39.795m27-13.467s.385 7.672 8.088 13.467M17 24h39"/><path stroke-width="1.6" d="M34 29c2.004-1.282-.028-3.27 2-4m4 5c-1.682-1.682-.972-4.27-3-5"/><circle cx="36.5" cy="25.5" r=".5" stroke-width="1.6"/></g></svg>