<svg viewBox="0 0 72 72" xmlns="http://www.w3.org/2000/svg"><path fill="#b3b3b3" d="M68 4v64H4V4h64m4-4H0v72h72V0z"/><path fill="none" stroke="#00a5ff" stroke-miterlimit="10" stroke-width=".1" d="M12.923 10.958h46.154A1.923 1.923 0 0161 12.881v46.154a1.923 1.923 0 01-1.923 1.923H12.923A1.923 1.923 0 0111 59.035V12.881a1.923 1.923 0 011.923-1.923z"/><rect x="16" y="4" rx="2.254" ry="2.254" width="40" height="64" fill="none" stroke="#00a5ff" stroke-miterlimit="10" stroke-width=".1"/><rect x="16" y="4" rx="2.254" ry="2.254" width="40" height="64" transform="rotate(90 36 36)" fill="none" stroke="#00a5ff" stroke-miterlimit="10" stroke-width=".1"/><circle cx="36" cy="36" r="29" fill="none" stroke="#00a5ff" stroke-miterlimit="10" stroke-width=".1"/><g stroke-linecap="round" stroke-miterlimit="10" stroke-width="6" stroke="#fff" fill="none" stroke-linejoin="round"><path d="M23.114 22.5l3.5 16.5-6.5 14.5c7.447 3.468 11.748 8.946 13.175 15.5h4.65c.561-6.332 5.664-11.282 13.175-15.5l-6.5-14.5 4.05-16.5"/><path d="M45.122 4.5s6.612 18.22 2 21c-3.996 2.408-16.822 2.849-22 0-5.878-3.234 2-21 2-21s-3.431 4.222 2 12c4.194 6.007 9.225 6.447 13 0 4.976-8.5 3-12 3-12z"/></g><path fill="#b399c8" d="M23.114 22.5l3.5 16.5-6.5 14.5c7.447 3.468 11.748 8.946 13.175 15.5h4.65c.561-6.332 5.664-11.282 13.175-15.5l-6.5-14.5 4.05-16.5c-1.55 6-22.55 7-25.55 0z"/><path fill="#8967aa" d="M44.886 4.5s6.612 18.22 2 21c-3.996 2.408-16.822 2.849-22 0-5.877-3.234 2-21 2-21-.289.29-2.04 4.044 2 12 6.15 6.258 8.129 6.87 13 0 5.205-9.105 3.191-11.858 3-12z"/><g fill="none" stroke="#000" stroke-linecap="round" stroke-linejoin="round" stroke-width="2"><path d="M23.114 22.5l3.5 16.5-6.5 14.5c7.447 3.468 11.748 8.946 13.175 15.5h4.65c.561-6.332 5.664-11.282 13.175-15.5l-6.5-14.5 4.05-16.5"/><path d="M45.122 4.5s6.612 18.22 2 21c-3.996 2.408-16.822 2.849-22 0-5.878-3.234 2-21 2-21s-3.431 4.222 2 12c4.194 6.007 9.225 6.447 13 0 4.976-8.5 3-12 3-12z"/></g></svg>