<svg viewBox="0 0 72 72" xmlns="http://www.w3.org/2000/svg"><path fill="#b3b3b3" d="M68 4v64H4V4h64m4-4H0v72h72V0z"/><path fill="none" stroke="#00a5ff" stroke-miterlimit="10" stroke-width=".1" d="M12.923 10.958h46.154A1.923 1.923 0 0161 12.881v46.154a1.923 1.923 0 01-1.923 1.923H12.923A1.923 1.923 0 0111 59.035V12.881a1.923 1.923 0 011.923-1.923z"/><rect x="16" y="4" rx="2.254" width="40" height="64" fill="none" stroke="#00a5ff" stroke-miterlimit="10" stroke-width=".1"/><rect x="16" y="4" rx="2.254" width="40" height="64" transform="rotate(90 36 36)" fill="none" stroke="#00a5ff" stroke-miterlimit="10" stroke-width=".1"/><circle cx="36" cy="36" r="29" fill="none" stroke="#00a5ff" stroke-miterlimit="10" stroke-width=".1"/><g stroke-linecap="round" stroke-miterlimit="10" stroke-width="6" stroke="#fff" fill="none" stroke-linejoin="round"><path d="M52.09 15.49l-.57-4.29M25.79 56.55c16.7-2.905 24.45-11.14 26.67-27.09"/><path d="M47.54 54.03c-8.106 7.212-23.05 9.45-32.43 2.757l-.413-1.901c18.42-2.206 32.78-13.96 35.36-35.55 1.105-.004 4.645-.396 4.645-.396 5.599 15.1 1.754 27.15-7.164 35.08z"/></g><g stroke-linecap="round" stroke-linejoin="round" stroke-miterlimit="10" stroke-width=".75"><path fill="#fcea2b" stroke="#fcea2b" d="M50.46 50.44c-11.2 13.24-28.24 12.54-35.31 6.547l-.413-1.901c12.72-3.783 15.02-2.284 25.01-11.49 5.776-6.855 10.6-16.93 10.32-24.26 6.04-.188 0 0 4.682-.188 3.885 9.76 2.355 22.91-4.282 31.29z"/><path fill="#f1b31c" stroke="#f1b31c" d="M53.21 19.66c4.526-.424 5.228 22.66-1.408 31.04-11.8 11.01-24.25 12.1-36.84 5.362 25.96 5.489 39.47-15.38 38.25-36.4z"/></g><g fill="none" stroke="#000" stroke-linecap="round" stroke-linejoin="round" stroke-miterlimit="10" stroke-width="2"><path d="M52.09 15.49l-.57-4.29M25.79 56.55c16.7-2.905 24.45-11.14 26.67-27.09"/><path d="M47.54 54.03c-8.106 7.212-23.05 9.45-32.43 2.757l-.413-1.901c18.42-2.206 32.78-13.96 35.36-35.55 1.105-.004 4.645-.396 4.645-.396 5.599 15.1 1.754 27.15-7.164 35.08z"/></g></svg>