<svg viewBox="0 0 72 72" xmlns="http://www.w3.org/2000/svg"><path fill="#B3B3B3" d="M68 4v64H4V4h64m4-4H0v72h72V0z"/><path fill="none" stroke="#00A5FF" stroke-miterlimit="10" stroke-width=".1" d="M12.9 11h46.2c1.1 0 1.9.9 1.9 1.9h0V59c0 1.1-.9 1.9-1.9 1.9H12.9c-1 .1-1.9-.8-1.9-1.9h0V12.9c0-1.1.9-1.9 1.9-1.9h0z"/><path fill="none" stroke="#00A5FF" stroke-miterlimit="10" stroke-width=".1" d="M18.3 4h35.5C55 4 56 5 56 6.3v59.5c0 1.2-1 2.3-2.3 2.3H18.3C17 68 16 67 16 65.7V6.3C16 5 17 4 18.3 4z"/><path fill="none" stroke="#00A5FF" stroke-miterlimit="10" stroke-width=".1" d="M68 18.3v35.5c0 1.2-1 2.3-2.3 2.3H6.3C5 56 4 55 4 53.7V18.3C4 17 5 16 6.3 16h59.5c1.2 0 2.2 1 2.2 2.3z"/><circle cx="36" cy="36" r="29" fill="none" stroke="#00A5FF" stroke-miterlimit="10" stroke-width=".1"/><g stroke-linecap="round" stroke-miterlimit="10" stroke-width="6" stroke="#fff" fill="none" stroke-linejoin="round"><path d="M30 36.4V57m4.1-17.6V57m-5.3-27.1c-1.3 2.2-.7 4.9 1.2 6.4"/><path d="M17.515 23.408l5-8.66 31.175 18-5 8.66z"/><path d="M17.515 23.408l5-8.66 31.175 18-5 8.66zM52.7 34.5c1.4.8 1.9 2.7 1.1 4.1s-2.7 1.9-4.1 1.1l3-5.2z"/></g><path fill="#D0CFCE" d="M33.1 58h-3c-.6 0-1-.4-1-1V37c0-.6.4-1 1-1h3c.6 0 1 .4 1 1v20c0 .6-.5 1-1 1z"/><path fill="#9B9B9A" d="M38.4 35.4c1.7-2.9.7-6.5-2.2-8.2s-6.5-.7-8.2 2.2-.7 6.5 2.2 8.2 6.5.7 8.2-2.2"/><path fill="#FFF" d="M17.515 23.408l5-8.66 31.175 18-5 8.66z"/><path fill="#D0CFCE" d="M17.514 23.409l5-8.66 31.175 18-5 8.66z"/><path fill="#9B9B9A" d="M42.1 37.6L22.5 14.8l-5 8.6z"/><path fill="none" stroke="#000" stroke-linecap="round" stroke-linejoin="round" stroke-miterlimit="10" stroke-width="2" d="M30 36.4V57m4.1-17.6V57m-5.3-27.1c-1.3 2.2-.7 4.9 1.2 6.4"/><path fill="none" stroke="#000" stroke-linecap="round" stroke-linejoin="round" stroke-miterlimit="10" stroke-width="2" d="M17.515 23.408l5-8.66 31.175 18-5 8.66z"/><path fill="none" stroke="#000" stroke-linecap="round" stroke-linejoin="round" stroke-miterlimit="10" stroke-width="2" d="M17.515 23.408l5-8.66 31.175 18-5 8.66z"/><path d="M52.7 34.5c1.4.8 1.9 2.7 1.1 4.1s-2.7 1.9-4.1 1.1l3-5.2z"/><g><path fill="#D22F27" d="M54.2 37.1c0 1.7-1.4 3-3 3-.2 0-.4 0-.6-.1l2.9-5c.4.6.7 1.3.7 2.1z"/></g></svg>