<svg viewBox="0 0 72 72" xmlns="http://www.w3.org/2000/svg"><path fill="#b3b3b3" d="M68 4v64H4V4h64m4-4H0v72h72V0z"/><path fill="none" stroke="#00a5ff" stroke-miterlimit="10" stroke-width=".1" d="M12.923 10.958h46.154A1.923 1.923 0 0161 12.881v46.154a1.923 1.923 0 01-1.923 1.923H12.923A1.923 1.923 0 0111 59.035V12.881a1.923 1.923 0 011.923-1.923z"/><rect x="16" y="4" rx="2.254" width="40" height="64" fill="none" stroke="#00a5ff" stroke-miterlimit="10" stroke-width=".1"/><rect x="16" y="4" rx="2.254" width="40" height="64" transform="rotate(90 36 36)" fill="none" stroke="#00a5ff" stroke-miterlimit="10" stroke-width=".1"/><circle cx="36" cy="36" r="29" fill="none" stroke="#00a5ff" stroke-miterlimit="10" stroke-width=".1"/><path d="M34.542 7.036c-8.147 0-14.75 7.496-14.75 16.743v16.388h29.5M26.833 44.5h4v22.095h-4zm14.5 0h4v16.479h-4zM35.25 7.036c8.146 0 14.75 7.496 14.75 16.743v7.388M16 44.5h40v-4.333H16z" stroke-linecap="round" stroke-miterlimit="10" stroke-width="6" stroke="#fff" fill="none" stroke-linejoin="round"/><path fill="#92d3f5" d="M31.388 26.718s9.237-1.82 8.422-9.197c-1.354-12.26-1.468-10.423-1.468-10.423l-5.529 1.01S36 21.702 31.388 26.718z"/><path fill="#92d3f5" d="M34.542 7.036c-8.147 0-14.75 7.496-14.75 16.743v16.388h29.5"/><path fill="#d0cfce" d="M26.833 44.5h4v22.095h-4zm14.5 0h4v16.479h-4z"/><path fill="#61b2e4" d="M34.542 7.563s15.323.549 15.904 13.875c.967 22.145.067 18.919.067 18.919l-9.326-.19s1.438-25.042-6.645-32.605z"/><path fill="#61b2e4" d="M43.333 40.792h11.833v3.083H43.333z"/><path fill="#92d3f5" d="M16.335 40.792h26.998v3.083H16.335z"/><path d="M34.542 7.036c-8.147 0-14.75 7.496-14.75 16.743v16.388h29.5M26.833 44.5h4v22.095h-4zm14.5 0h4v16.479h-4zM35.25 7.036c8.146 0 14.75 7.496 14.75 16.743v7.388M16 44.5h40v-4.333H16z" fill="none" stroke="#000" stroke-linecap="round" stroke-linejoin="round" stroke-miterlimit="10" stroke-width="2"/></svg>