<svg viewBox="0 0 72 72" xmlns="http://www.w3.org/2000/svg"><path fill="#B3B3B3" d="M68 4v64H4V4h64m4-4H0v72h72V0z"/><path fill="none" stroke="#00A5FF" stroke-miterlimit="10" stroke-width=".1" d="M12.923 10.958h46.154c1.062 0 1.923.861 1.923 1.923v46.154a1.923 1.923 0 01-1.923 1.923H12.923A1.923 1.923 0 0111 59.035h0V12.881c0-1.062.861-1.923 1.923-1.923h0z"/><path fill="none" stroke="#00A5FF" stroke-miterlimit="10" stroke-width=".1" d="M18.254 4h35.492A2.254 2.254 0 0156 6.254v59.492A2.254 2.254 0 0153.746 68H18.254A2.254 2.254 0 0116 65.746V6.254A2.254 2.254 0 0118.254 4z"/><path fill="none" stroke="#00A5FF" stroke-miterlimit="10" stroke-width=".1" d="M68 18.254v35.492A2.254 2.254 0 0165.746 56H6.254A2.254 2.254 0 014 53.746V18.254A2.254 2.254 0 016.254 16h59.492A2.254 2.254 0 0168 18.254z"/><circle cx="36" cy="36" r="29" fill="none" stroke="#00A5FF" stroke-miterlimit="10" stroke-width=".1"/><g stroke-linecap="round" stroke-miterlimit="10" stroke-width="6" stroke="#fff" fill="none" stroke-linejoin="round"><path d="M16.564 17.064h37.685l3.125 10.847h2.758v14.086H56.96l-6.572 14.982h-31.16L13.255 42.77h-2.206V26.532h2.206z"/><circle cx="25.388" cy="29.275" r="5.883"/><circle cx="27.41" cy="46.11" r="4.044"/><circle cx="44.322" cy="36.023" r="7.85"/><path d="M25.388 23.392l18.934 4.781m-24.817 1.102s2.252 14.997 3.86 18.444c1.609 3.446 4.045 2.435 4.045 2.435 4.044-.367 20.91-7.384 20.91-7.384M20.75 15.944c0-1.595 1.175-2.888 2.625-2.888S26 14.35 26 15.944m2.625 0c0-1.595 1.175-2.888 2.625-2.888s2.625 1.293 2.625 2.888m2.625 0c0-1.595 1.175-2.888 2.625-2.888s2.625 1.293 2.625 2.888m2.625 0c0-1.595 1.175-2.888 2.625-2.888s2.625 1.293 2.625 2.888"/></g><path fill="#9B9B9A" d="M16.564 17.064h37.685l3.125 10.847h2.758v14.086H56.96l-6.572 14.982h-31.16L13.255 42.77h-2.206V26.532h2.206z"/><circle cx="25.388" cy="29.275" r="5.883" fill="#D0CFCE"/><circle cx="27.41" cy="46.11" r="4.044" fill="#D0CFCE"/><circle cx="44.322" cy="36.023" r="7.85" fill="#D0CFCE"/><path fill="#FFF" d="M20.75 15.944c0-1.595 1.175-2.888 2.625-2.888S26 14.35 26 15.944m2.625 0c0-1.595 1.175-2.888 2.625-2.888s2.625 1.293 2.625 2.888m2.625 0c0-1.595 1.175-2.888 2.625-2.888s2.625 1.293 2.625 2.888m2.625 0c0-1.595 1.175-2.888 2.625-2.888s2.625 1.293 2.625 2.888"/><g fill="none" stroke="#000" stroke-linecap="round" stroke-linejoin="round" stroke-miterlimit="10" stroke-width="2"><path d="M16.564 17.064h37.685l3.125 10.847h2.758v14.086H56.96l-6.572 14.982h-31.16L13.255 42.77h-2.206V26.532h2.206z"/><circle cx="25.388" cy="29.275" r="5.883"/><circle cx="27.41" cy="46.11" r="4.044"/><circle cx="44.322" cy="36.023" r="7.85"/><path d="M25.388 23.392l18.934 4.781m-24.817 1.102s2.252 14.997 3.86 18.444c1.609 3.446 4.045 2.435 4.045 2.435 4.044-.367 20.91-7.384 20.91-7.384M20.75 15.944c0-1.595 1.175-2.888 2.625-2.888S26 14.35 26 15.944m2.625 0c0-1.595 1.175-2.888 2.625-2.888s2.625 1.293 2.625 2.888m2.625 0c0-1.595 1.175-2.888 2.625-2.888s2.625 1.293 2.625 2.888m2.625 0c0-1.595 1.175-2.888 2.625-2.888s2.625 1.293 2.625 2.888"/></g></svg>