<svg viewBox="0 0 72 72" xmlns="http://www.w3.org/2000/svg"><path fill="#B3B3B3" d="M68 4v64H4V4h64m4-4H0v72h72V0z"/><path fill="none" stroke="#00A5FF" stroke-miterlimit="10" stroke-width=".1" d="M12.9 11h46.2c1.1 0 1.9.9 1.9 1.9h0V59c0 1.1-.9 1.9-1.9 1.9H12.9c-1 .1-1.9-.8-1.9-1.9h0V12.9c0-1.1.9-1.9 1.9-1.9h0z"/><path fill="none" stroke="#00A5FF" stroke-miterlimit="10" stroke-width=".1" d="M18.3 4h35.5C55 4 56 5 56 6.3v59.5c0 1.2-1 2.3-2.3 2.3H18.3C17 68 16 67 16 65.7V6.3C16 5 17 4 18.3 4z"/><path fill="none" stroke="#00A5FF" stroke-miterlimit="10" stroke-width=".1" d="M68 18.3v35.5c0 1.2-1 2.3-2.3 2.3H6.3C5 56 4 55 4 53.7V18.3C4 17 5 16 6.3 16h59.5c1.2 0 2.2 1 2.2 2.3z"/><circle cx="36" cy="36" r="29" fill="none" stroke="#00A5FF" stroke-miterlimit="10" stroke-width=".1"/><g stroke-linecap="round" stroke-miterlimit="10" stroke-width="6" stroke="#fff" fill="none" stroke-linejoin="round"><path d="M55.4 33.8c1.2 2.7 2.2 5.2 2.2 5.2l-4.1 1.4s2 9.5-.8 10.9-8.7.8-13.2-.5M15.9 22c1.4-5 4.6-9.3 9.4-11.1C36.5 6.4 47.6 9.7 51 14.7c.7 1 1.1 2 1.4 2.9"/><path d="M15.3 30.1c.5 4.5 2.6 8.9 6.3 12 5.1 4.3 5.3 15.5 5.3 15.5v5.8h17.2s1-6.8 1.1-10.8m14-34.6v15.7H44.7s-8.7-7.5 0-16.2h14.5v.5z"/><path d="M41.6 22H14.5s-2 6.1 0 8.1H42m12.8-12.5v16"/></g><path fill="#FCEA2B" d="M45.1 52.5C45 56.6 44 63.3 44 63.3l-17.2.1.1-5.8s-.2-11.2-5.3-15.5c-10.3-8.6-7.6-26.7 3.7-31.2C36.5 6.4 47.6 9.7 51 14.7s.6 9.2.6 9.2-.8 1.5 1.1 4.6S57.6 39 57.6 39l-4.1 1.4s2 9.5-.8 10.9-8.7.8-13.2-.6"/><path fill="#9B9B9A" d="M59.2 18v15.7H44.7s-8.7-7.5 0-16.2h14.5v.5z"/><path fill="#9B9B9A" d="M44.8 22H14.5s-2 6.1 0 8.1h30.1l.2-8.1z"/><path fill="none" d="M54.5 17.6v16.2m1.4-16.2v16.2m1.5-16.2v16.2"/><path d="M54.8 17.6h4.6v16.5h-4.6z"/><g fill="none" stroke="#000" stroke-miterlimit="10" stroke-width="2"><path stroke-linecap="round" stroke-linejoin="round" d="M55.4 33.8c1.2 2.7 2.2 5.2 2.2 5.2l-4.1 1.4s2 9.5-.8 10.9-8.7.8-13.2-.5M15.9 22c1.4-5 4.6-9.3 9.4-11.1C36.5 6.4 47.6 9.7 51 14.7c.7 1 1.1 2 1.4 2.9"/><path stroke-linecap="round" stroke-linejoin="round" d="M15.3 30.1c.5 4.5 2.6 8.9 6.3 12 5.1 4.3 5.3 15.5 5.3 15.5v5.8h17.2s1-6.8 1.1-10.8m14-34.6v15.7H44.7s-8.7-7.5 0-16.2h14.5v.5z"/><path stroke-linecap="round" stroke-linejoin="round" d="M41.6 22H14.5s-2 6.1 0 8.1H42"/><path d="M54.8 17.6v16"/></g></svg>