<svg viewBox="0 0 72 72" xmlns="http://www.w3.org/2000/svg"><path fill="#b3b3b3" d="M68 4v64H4V4h64m4-4H0v72h72V0z"/><path fill="none" stroke="#00a5ff" stroke-miterlimit="10" stroke-width=".1" d="M12.923 10.958h46.154A1.923 1.923 0 0161 12.881v46.154a1.923 1.923 0 01-1.923 1.923H12.923A1.923 1.923 0 0111 59.035V12.881a1.923 1.923 0 011.923-1.923z"/><rect x="16" y="4" rx="2.254" width="40" height="64" fill="none" stroke="#00a5ff" stroke-miterlimit="10" stroke-width=".1"/><rect x="16" y="4" rx="2.254" width="40" height="64" transform="rotate(90 36 36)" fill="none" stroke="#00a5ff" stroke-miterlimit="10" stroke-width=".1"/><circle cx="36" cy="36" r="29" fill="none" stroke="#00a5ff" stroke-miterlimit="10" stroke-width=".1"/><g stroke-linecap="round" stroke-miterlimit="10" stroke-width="6" stroke="#fff" fill="none" stroke-linejoin="round"><path d="M58.874 31.433c-1.784-9.063-9.333-16.482-18.373-18.332m.001 45.715c9.127-1.79 16.577-9.298 18.373-18.423m-45.755 0c1.783 9.116 9.316 16.61 18.422 18.423m0-45.715c-9.07 1.805-16.604 9.267-18.422 18.332"/><circle cx="36.022" cy="35.919" r="15"/><path d="M31.542 13.101V8.66m8.96 4.441V8.66m-8.96 54.598v-4.442m8.96 4.442v-4.442m18.372-27.383h4.442m-4.442 8.96h4.442m-54.637-8.96h4.441m-4.441 8.96h4.441"/></g><g fill="#9B9B9A"><path d="M36.022 12.932c-12.696 0-22.988 10.291-22.988 22.987s10.292 22.988 22.988 22.988 22.987-10.292 22.987-22.988-10.292-22.987-22.987-22.987zm0 37.951c-8.265 0-14.965-6.7-14.965-14.964s6.7-14.964 14.965-14.964 14.964 6.7 14.964 14.964-6.7 14.964-14.964 14.964z"/><path d="M31.529 7.661h8.982v11.19h-8.982zm0 45.408h8.982v11.19h-8.982zM18.869 31.41v8.983H7.679V31.41zm45.44 0v8.982h-11.19V31.41z"/></g><g fill="none" stroke="#000" stroke-linecap="round" stroke-linejoin="round" stroke-miterlimit="10" stroke-width="2"><path d="M58.874 31.433c-1.784-9.063-9.333-16.482-18.373-18.332m.001 45.715c9.127-1.79 16.577-9.298 18.373-18.423m-45.755 0c1.783 9.116 9.316 16.61 18.422 18.423m0-45.715c-9.07 1.805-16.604 9.267-18.422 18.332"/><circle cx="36.022" cy="35.919" r="15"/><path d="M31.542 13.101V8.66m8.96 4.441V8.66m-8.96 54.598v-4.442m8.96 4.442v-4.442m18.372-27.383h4.442m-4.442 8.96h4.442m-54.637-8.96h4.441m-4.441 8.96h4.441"/></g></svg>