<svg viewBox="0 0 72 72" xmlns="http://www.w3.org/2000/svg"><path fill="#b3b3b3" d="M68 4v64H4V4h64m4-4H0v72h72V0z"/><path fill="none" stroke="#00a5ff" stroke-miterlimit="10" stroke-width=".1" d="M12.923 10.958h46.154A1.923 1.923 0 0161 12.881v46.154a1.923 1.923 0 01-1.923 1.923H12.923A1.923 1.923 0 0111 59.035V12.881a1.923 1.923 0 011.923-1.923z"/><rect x="16" y="4" rx="2.254" width="40" height="64" fill="none" stroke="#00a5ff" stroke-miterlimit="10" stroke-width=".1"/><rect x="16" y="4" rx="2.254" width="40" height="64" transform="rotate(90 36 36)" fill="none" stroke="#00a5ff" stroke-miterlimit="10" stroke-width=".1"/><circle cx="36" cy="36" r="29" fill="none" stroke="#00a5ff" stroke-miterlimit="10" stroke-width=".1"/><g stroke-linecap="round" stroke-miterlimit="10" stroke-width="6" stroke="#fff" fill="none" stroke-linejoin="round"><circle cx="36.024" cy="45.016" r="12"/><circle cx="36.024" cy="45.016" r="7"/><path d="M53.908 63.031H18.01a1 1 0 01-1-1V13.068a1 1 0 011-1h35.9a1 1 0 011 1V62.03a1 1 0 01-1 1z"/><path d="M17 17.009h16v9.95H17zM37 19h7m-7 4h7m-21-2h4"/><circle cx="49" cy="21" r="2"/></g><path fill="#D0CFCE" d="M53.908 63.031H18.01a1 1 0 01-1-1V13.068a1 1 0 011-1h35.9a1 1 0 011 1V62.03a1 1 0 01-1 1z"/><circle cx="36.024" cy="45.016" r="12" fill="#FFF"/><path fill="#92D3F5" d="M24.024 45.016c0 6.627 5.373 12 12 12s12-5.373 12-12"/><path fill="#9B9B9A" d="M17 17.009h16v9.95H17z"/><circle cx="36.024" cy="45.016" r="7" fill="#D0CFCE"/><path fill="#61B2E4" d="M29.024 45.016a7 7 0 1014 0"/><circle cx="36.024" cy="45.016" r="12" fill="none" stroke="#000" stroke-miterlimit="10" stroke-width="2"/><circle cx="36.024" cy="45.016" r="7" fill="none" stroke="#000" stroke-miterlimit="10" stroke-width="2"/><path fill="none" stroke="#000" stroke-linecap="round" stroke-linejoin="round" stroke-miterlimit="10" stroke-width="2" d="M53.908 63.031H18.01a1 1 0 01-1-1V13.068a1 1 0 011-1h35.9a1 1 0 011 1V62.03a1 1 0 01-1 1z"/><path fill="none" stroke="#000" stroke-linecap="round" stroke-linejoin="round" stroke-miterlimit="10" stroke-width="2" d="M17 17.009h16v9.95H17zM37 19h7m-7 4h7m-21-2h4"/><circle cx="49" cy="21" r="2"/></svg>