<svg viewBox="0 0 72 72" xmlns="http://www.w3.org/2000/svg"><path fill="#b3b3b3" d="M68 4v64H4V4h64m4-4H0v72h72V0z"/><path fill="none" stroke="#00a5ff" stroke-miterlimit="10" stroke-width=".1" d="M12.923 10.958h46.154A1.923 1.923 0 0161 12.881v46.154a1.923 1.923 0 01-1.923 1.923H12.923A1.923 1.923 0 0111 59.035V12.881a1.923 1.923 0 011.923-1.923z"/><rect x="16" y="4" rx="2.254" width="40" height="64" fill="none" stroke="#00a5ff" stroke-miterlimit="10" stroke-width=".1"/><rect x="16" y="4" rx="2.254" width="40" height="64" transform="rotate(90 36 36)" fill="none" stroke="#00a5ff" stroke-miterlimit="10" stroke-width=".1"/><circle cx="36" cy="36" r="29" fill="none" stroke="#00a5ff" stroke-miterlimit="10" stroke-width=".1"/><g stroke-linecap="round" stroke-miterlimit="10" stroke-width="6" stroke="#fff" fill="none" stroke-linejoin="round"><path d="M8 22v-6h55v8l4 4v18.904L63 51v5H8V31"/><path d="M29 46h28v4H29zm-5-24h33v4H24zm-6 8v-8H5v9h6.125M14 50h4v-4h-4"/></g><path fill="#5C9E31" d="M8 56h55v-5l4-4.096V28l-4-4v-8H8z"/><path fill="#5C9E31" d="M63 56v-5l4-4.096V28l-4-4v-8h-6.833"/><path fill="#B1CC33" d="M31.333 56H8V16h48.167zM6 22h2v9H6z"/><path fill="#B1CC33" d="M29 46h28v4H29zm-5-24h33v4H24z"/><g fill="none" stroke="#000" stroke-linecap="round" stroke-linejoin="round" stroke-miterlimit="10" stroke-width="2"><path d="M8 22v-6h55v8l4 4v18.904L63 51v5H8V31"/><path d="M29 46h28v4H29zm-5-24h33v4H24zm-6 8v-8H5v9h6.125M14 50h4v-4h-4"/></g></svg>