<svg viewBox="0 0 72 72" xmlns="http://www.w3.org/2000/svg"><path fill="#B3B3B3" d="M68 4v64H4V4h64m4-4H0v72h72V0z"/><path fill="none" stroke="#00A5FF" stroke-miterlimit="10" stroke-width=".1" d="M12.9 11h46.2c1.1 0 1.9.9 1.9 1.9h0V59c0 1.1-.9 1.9-1.9 1.9H12.9c-1 .1-1.9-.8-1.9-1.9h0V12.9c0-1.1.9-1.9 1.9-1.9h0z"/><path fill="none" stroke="#00A5FF" stroke-miterlimit="10" stroke-width=".1" d="M18.3 4h35.5C55 4 56 5 56 6.3v59.5c0 1.2-1 2.3-2.3 2.3H18.3C17 68 16 67 16 65.7V6.3C16 5 17 4 18.3 4z"/><path fill="none" stroke="#00A5FF" stroke-miterlimit="10" stroke-width=".1" d="M68 18.3v35.5c0 1.2-1 2.3-2.3 2.3H6.3C5 56 4 55 4 53.7V18.3C4 17 5 16 6.3 16h59.5c1.2 0 2.2 1 2.2 2.3z"/><circle cx="36" cy="36" r="29" fill="none" stroke="#00A5FF" stroke-miterlimit="10" stroke-width=".1"/><g stroke-linecap="round" stroke-miterlimit="10" stroke-width="6" stroke="#fff" fill="none" stroke-linejoin="round"><path d="M21 32h-5m5 4h-5m5 4h-5m11 1.4v.6h-6V30h6v.6"/><circle cx="41" cy="36" r="15"/><circle cx="41" cy="36" r="4"/></g><path fill="#FFF" d="M21 30h6v12h-6z"/><circle cx="41" cy="36" r="15" fill="#FFF"/><path fill="#D0CFCE" d="M30.4 46.6C33.1 49.3 36.9 51 41 51c8.3 0 15-6.7 15-15 0-3.6-1.3-6.9-3.4-9.5-.3-.4-.7-.8-1.1-1.2"/><path fill="none" stroke="#000" stroke-linecap="round" stroke-linejoin="round" stroke-miterlimit="10" stroke-width="2" d="M21 32h-5m5 4h-5m5 4h-5m11 1.4v.6h-6V30h6v.6"/><circle cx="41" cy="36" r="15" fill="none" stroke="#000" stroke-linecap="round" stroke-linejoin="round" stroke-miterlimit="10" stroke-width="2"/><circle cx="41" cy="36" r="4"/><g fill="#E27022"><path d="M20.005 30.99v2.02h-4.04c-.606 0-1.01-.505-1.01-1.01s.404-1.01 1.01-1.01h4.04zm0 4v2.02h-4.04c-.606 0-1.01-.505-1.01-1.01s.404-1.01 1.01-1.01h4.04zm0 4v2.02h-4.04c-.606 0-1.01-.505-1.01-1.01s.404-1.01 1.01-1.01h4.04z"/></g></svg>