<svg viewBox="0 0 72 72" xmlns="http://www.w3.org/2000/svg"><path fill="#B3B3B3" d="M68 4v64H4V4h64m4-4H0v72h72V0z"/><path fill="none" stroke="#00A5FF" stroke-miterlimit="10" stroke-width=".1" d="M12.923 10.958h46.154c1.062 0 1.923.861 1.923 1.923v46.154a1.923 1.923 0 01-1.923 1.923H12.923A1.923 1.923 0 0111 59.035h0V12.881c0-1.062.861-1.923 1.923-1.923h0z"/><path fill="none" stroke="#00A5FF" stroke-miterlimit="10" stroke-width=".1" d="M18.254 4h35.492A2.254 2.254 0 0156 6.254v59.492A2.254 2.254 0 0153.746 68H18.254A2.254 2.254 0 0116 65.746V6.254A2.254 2.254 0 0118.254 4z"/><path fill="none" stroke="#00A5FF" stroke-miterlimit="10" stroke-width=".1" d="M68 18.254v35.492A2.254 2.254 0 0165.746 56H6.254A2.254 2.254 0 014 53.746V18.254A2.254 2.254 0 016.254 16h59.492A2.254 2.254 0 0168 18.254z"/><circle cx="36" cy="36" r="29" fill="none" stroke="#00A5FF" stroke-miterlimit="10" stroke-width=".1"/><g stroke-linecap="round" stroke-miterlimit="10" stroke-width="6" stroke="#fff" fill="none" stroke-linejoin="round"><path d="M16 28.25V16h40v14.5m0 7.5v18H16V43.75"/><path d="M20 28.25V20h32v14m0 7.5V52H20v-8.25"/><circle cx="18" cy="36" r="8"/><path d="M23.657 30.343L12.343 41.657m0-11.314l11.314 11.314M49 34h10m-15 4h20"/></g><path fill="#9B9B9A" stroke="#9B9B9A" stroke-miterlimit="10" stroke-width="2" d="M52 38v14H20v-8h-4v11.035c0 .533.432.965.965.965h38.07a.965.965 0 00.965-.965V38h-4z"/><path fill="#EA5A47" stroke="#EA5A47" stroke-miterlimit="10" stroke-width="2" d="M17.155 16c-.638 0-1.155.517-1.155 1.155V28h4v-8h32v14h4V17.155c0-.638-.517-1.155-1.155-1.155h-37.69z"/><circle cx="18" cy="36" r="8" fill="#FFF"/><g fill="none" stroke="#000" stroke-linecap="round" stroke-linejoin="round" stroke-miterlimit="10" stroke-width="2"><path d="M16 28.25V16h40v14.5m0 7.5v18H16V43.75"/><path d="M20 28.25V20h32v14m0 7.5V52H20v-8.25"/><circle cx="18" cy="36" r="8"/><path d="M23.657 30.343L12.343 41.657m0-11.314l11.314 11.314M49 34h10m-15 4h20"/></g></svg>