<svg viewBox="0 0 72 72" xmlns="http://www.w3.org/2000/svg"><path fill="#B3B3B3" d="M68 4v64H4V4h64m4-4H0v72h72V0z"/><path fill="none" stroke="#00A5FF" stroke-miterlimit="10" stroke-width=".1" d="M12.923 10.958h46.154c1.062 0 1.923.861 1.923 1.923v46.154a1.923 1.923 0 01-1.923 1.923H12.923A1.923 1.923 0 0111 59.035h0V12.881c0-1.062.861-1.923 1.923-1.923h0z"/><path fill="none" stroke="#00A5FF" stroke-miterlimit="10" stroke-width=".1" d="M18.254 4h35.492A2.254 2.254 0 0156 6.254v59.492A2.254 2.254 0 0153.746 68H18.254A2.254 2.254 0 0116 65.746V6.254A2.254 2.254 0 0118.254 4z"/><path fill="none" stroke="#00A5FF" stroke-miterlimit="10" stroke-width=".1" d="M68 18.254v35.492A2.254 2.254 0 0165.746 56H6.254A2.254 2.254 0 014 53.746V18.254A2.254 2.254 0 016.254 16h59.492A2.254 2.254 0 0168 18.254z"/><circle cx="36" cy="36" r="29" fill="none" stroke="#00A5FF" stroke-miterlimit="10" stroke-width=".1"/><g stroke-linecap="round" stroke-miterlimit="10" stroke-width="6" stroke="#fff" fill="none" stroke-linejoin="round"><path d="M17 50h38v10H17zm17.14-17l-9.28 10H22V33zM50 33v10h-2.86l-9.28-10zM27 16h18v10H27zm27 17H37.86L36 31l-1.86 2H18l4-3 2-4h24l2 4zm5.5 17h-47l4-3 2-4h6.36L23 45h26l-1.86-2h6.36l2 4zM49 16H23l4-3 2-4h14l2 4z"/><path d="M41.5 60h-11v-7h11z"/><path d="M34.063 60v-7h4v7M49 45H23l1.86-2 9.28-10L36 31l1.86 2 9.28 10zM25 57h-2v-4m10-30h-2v-4m10 4h-2v-4m10 38h-2v-4"/><path d="M34 42h-2v-2m8 2h-2v-2"/></g><path fill="#FFF" d="M17 50h38v10H17zm5-17h28v10H22zm5-17h18v10H27z"/><path fill="#3F3F3F" d="M54 33H18l4-3 2-4h24l2 4zm5.5 17h-47l4-3 2-4h35l2 4zM49 16H23l4-3 2-4h14l2 4z"/><path fill="#A57939" d="M41.5 60h-11v-7h11z"/><path fill="none" stroke="#92D3F5" stroke-linecap="round" stroke-linejoin="round" stroke-miterlimit="10" stroke-width="2" d="M23 53h2v4h-2zm8-34h2v4h-2zm8 0h2v4h-2zm8 34h2v4h-2z"/><path fill="#D0CFCE" d="M36 31L23 45h26z"/><path fill="none" stroke="#92D3F5" stroke-linecap="round" stroke-linejoin="round" stroke-miterlimit="10" stroke-width="2" d="M32 40h2v2h-2zm6 0h2v2h-2z"/><g fill="none" stroke="#000" stroke-linecap="round" stroke-linejoin="round" stroke-miterlimit="10" stroke-width="2"><path d="M17 50h38v10H17zm17.14-17l-9.28 10H22V33zM50 33v10h-2.86l-9.28-10zM27 16h18v10H27zm27 17H37.86L36 31l-1.86 2H18l4-3 2-4h24l2 4zm5.5 17h-47l4-3 2-4h6.36L23 45h26l-1.86-2h6.36l2 4zM49 16H23l4-3 2-4h14l2 4z"/><path d="M41.5 60h-11v-7h11z"/><path d="M34.063 60v-7h4v7M49 45H23l1.86-2 9.28-10L36 31l1.86 2 9.28 10zM25 57h-2v-4m10-30h-2v-4m10 4h-2v-4m10 38h-2v-4"/><path d="M34 42h-2v-2m8 2h-2v-2"/></g></svg>