<svg viewBox="0 0 72 72" xmlns="http://www.w3.org/2000/svg"><path fill="#b3b3b3" d="M68 4v64H4V4h64m4-4H0v72h72V0z"/><path fill="none" stroke="#00a5ff" stroke-miterlimit="10" stroke-width=".1" d="M12.923 10.958h46.154A1.923 1.923 0 0161 12.881v46.154a1.923 1.923 0 01-1.923 1.923H12.923A1.923 1.923 0 0111 59.035V12.881a1.923 1.923 0 011.923-1.923z"/><rect x="16" y="4" rx="2.254" width="40" height="64" fill="none" stroke="#00a5ff" stroke-miterlimit="10" stroke-width=".1"/><rect x="16" y="4" rx="2.254" width="40" height="64" transform="rotate(90 36 36)" fill="none" stroke="#00a5ff" stroke-miterlimit="10" stroke-width=".1"/><circle cx="36" cy="36" r="29" fill="none" stroke="#00a5ff" stroke-miterlimit="10" stroke-width=".1"/><g stroke-linecap="round" stroke-miterlimit="10" stroke-width="6" stroke="#fff" fill="none" stroke-linejoin="round"><path d="M8.5 19h55v35h-55z"/><path d="M29.5 44h13v10h-13zM36 54V44M16 29h-2v-5m10 25h-2v-5m-6 5h-2v-5m10-5h-2v-5m-6 5h-2v-5m10-5h-2v-5m19 15h-2v-5m-6 5h-2v-5m10-5h-2v-5m-6 5h-2v-5m27 25h-2v-5m-6 5h-2v-5m10-5h-2v-5m-6 5h-2v-5m10-5h-2v-5m-6 5h-2v-5"/></g><path fill="#D0CFCE" d="M8.5 19h55v35h-55z"/><path fill="#92D3F5" d="M29.5 44h13v10h-13z"/><path fill="none" stroke="#92D3F5" stroke-linecap="round" stroke-linejoin="round" stroke-miterlimit="10" stroke-width="2" d="M22 44h2v5h-2zm-8 0h2v5h-2zm8-10h2v5h-2zm-8 0h2v5h-2zm8-10h2v5h-2zm-8 0h2v5h-2zm25 10h2v5h-2zm-8 0h2v5h-2zm8-10h2v5h-2zm-8 0h2v5h-2zm25 20h2v5h-2zm-8 0h2v5h-2zm8-10h2v5h-2zm-8 0h2v5h-2zm8-10h2v5h-2zm-8 0h2v5h-2z"/><g fill="none" stroke="#000" stroke-linecap="round" stroke-linejoin="round" stroke-miterlimit="10" stroke-width="2"><path d="M8.5 19h55v35h-55z"/><path d="M29.5 44h13v10h-13zM36 54V44M16 29h-2v-5m10 25h-2v-5m-6 5h-2v-5m10-5h-2v-5m-6 5h-2v-5m10-5h-2v-5m19 15h-2v-5m-6 5h-2v-5m10-5h-2v-5m-6 5h-2v-5m27 25h-2v-5m-6 5h-2v-5m10-5h-2v-5m-6 5h-2v-5m10-5h-2v-5m-6 5h-2v-5"/></g></svg>