<svg viewBox="0 0 72 72" xmlns="http://www.w3.org/2000/svg"><path fill="#b3b3b3" d="M68 4v64H4V4h64m4-4H0v72h72V0z"/><path fill="none" stroke="#00a5ff" stroke-miterlimit="10" stroke-width=".1" d="M12.923 10.958h46.154A1.923 1.923 0 0161 12.881v46.154a1.923 1.923 0 01-1.923 1.923H12.923A1.923 1.923 0 0111 59.035V12.881a1.923 1.923 0 011.923-1.923z"/><rect x="16" y="4" rx="2.254" width="40" height="64" fill="none" stroke="#00a5ff" stroke-miterlimit="10" stroke-width=".1"/><rect x="16" y="4" rx="2.254" width="40" height="64" transform="rotate(90 36 36)" fill="none" stroke="#00a5ff" stroke-miterlimit="10" stroke-width=".1"/><circle cx="36" cy="36" r="29" fill="none" stroke="#00a5ff" stroke-miterlimit="10" stroke-width=".1"/><g stroke-linecap="round" stroke-miterlimit="10" stroke-width="6" stroke="#fff" fill="none" stroke-linejoin="round"><path d="M22.5 10h27v52h-27z"/><path d="M27 52h10v10H27zm5 10V52m4-26.175l-4.87-6.244-.156-.232A2.863 2.863 0 1136 16.621a2.863 2.863 0 114.888 2.936L36 25.825zM37 36h-2v-5m-6 5h-2v-5m18 5h-2v-5m-6 16h-2v-5m-6 5h-2v-5m18 5h-2v-5m2 16h-2v-5"/></g><path fill="#FFA7C0" d="M22.5 10h27v52h-27z"/><path fill="#92D3F5" d="M27 52h10v10H27z"/><path fill="none" stroke="#92D3F5" stroke-linecap="round" stroke-linejoin="round" stroke-miterlimit="10" stroke-width="2" d="M35 42h2v5h-2zm8 0h2v5h-2zm0 11h2v5h-2zM27 42h2v5h-2zm8-11h2v5h-2zm8 0h2v5h-2zm-16 0h2v5h-2z"/><path fill="#EA5A47" d="M36 25.825l-4.87-6.244-.156-.232A2.863 2.863 0 1136 16.621a2.863 2.863 0 114.888 2.936L36 25.825z"/><g fill="none" stroke="#000" stroke-linecap="round" stroke-linejoin="round" stroke-width="2"><path stroke-miterlimit="10" d="M22.5 10h27v52h-27z"/><path stroke-miterlimit="10" d="M27 52h10v10H27zm5 10V52"/><path d="M36 25.825l-4.87-6.244-.156-.232A2.863 2.863 0 1136 16.621a2.863 2.863 0 114.888 2.936L36 25.825z"/><path stroke-miterlimit="10" d="M37 36h-2v-5m-6 5h-2v-5m18 5h-2v-5m-6 16h-2v-5m-6 5h-2v-5m18 5h-2v-5m2 16h-2v-5"/></g></svg>