<svg viewBox="0 0 72 72" xmlns="http://www.w3.org/2000/svg"><path fill="#B3B3B3" d="M68 4v64H4V4h64m4-4H0v72h72V0z"/><path fill="none" stroke="#00A5FF" stroke-miterlimit="10" stroke-width=".1" d="M12.923 10.958h46.154c1.062 0 1.923.861 1.923 1.923h0v46.154a1.923 1.923 0 01-1.923 1.923H12.923A1.923 1.923 0 0111 59.035h0V12.881c0-1.062.861-1.923 1.923-1.923h0z"/><path fill="none" stroke="#00A5FF" stroke-miterlimit="10" stroke-width=".1" d="M18.254 4h35.492A2.254 2.254 0 0156 6.254v59.492A2.254 2.254 0 0153.746 68H18.254A2.254 2.254 0 0116 65.746V6.254A2.254 2.254 0 0118.254 4z"/><path fill="none" stroke="#00A5FF" stroke-miterlimit="10" stroke-width=".1" d="M68 18.254v35.492A2.254 2.254 0 0165.746 56H6.254A2.254 2.254 0 014 53.746V18.254A2.254 2.254 0 016.254 16h59.492A2.254 2.254 0 0168 18.254z"/><circle cx="36" cy="36" r="29" fill="none" stroke="#00A5FF" stroke-miterlimit="10" stroke-width=".1"/><g stroke-linecap="round" stroke-miterlimit="10" stroke-width="6" stroke="#fff" fill="none" stroke-linejoin="round"><path d="M12.5 12h27v48h-27zm27 13h19v35h-19z"/><path d="M19.5 50h13v10h-13zM26 60V50m28-15h-2v-5m2 15h-2v-5m2 15h-2v-5m-6-15h-2v-5M27 45h-2v-5m10 5h-2v-5m-14 5h-2v-5m29 5h-2v-5m2 15h-2v-5M18 18h16v2H18zm0 6h16v2H18zm7 2h2v7h-2z"/></g><path fill="#D0CFCE" d="M12.5 12h27v48h-27zm27 13h19v35h-19z"/><path fill="#92D3F5" stroke="#92D3F5" stroke-linecap="round" stroke-linejoin="round" stroke-miterlimit="10" stroke-width="2" d="M17 40h2v5h-2zm8 0h2v5h-2zm8 0h2v5h-2zm11-10h2v5h-2zm8 0h2v5h-2zm-8 10h2v5h-2zm8 0h2v5h-2zm-8 10h2v5h-2zm8 0h2v5h-2z"/><path fill="#92D3F5" d="M19.5 50h13v10h-13z"/><g stroke="#000" stroke-linecap="round" stroke-linejoin="round" stroke-miterlimit="10" stroke-width="2"><path fill="none" d="M12.5 12h27v48h-27zm27 13h19v35h-19z"/><path fill="none" d="M19.5 50h13v10h-13zM26 60V50m28-15h-2v-5m2 15h-2v-5m2 15h-2v-5m-6-15h-2v-5M27 45h-2v-5m10 5h-2v-5m-14 5h-2v-5m29 5h-2v-5m2 15h-2v-5"/><path d="M18 18h16v2H18zm0 6h16v2H18zm7 2h2v7h-2z"/></g></svg>