<svg viewBox="0 0 72 72" xmlns="http://www.w3.org/2000/svg"><path fill="#b3b3b3" d="M68 4v64H4V4h64m4-4H0v72h72V0z"/><path fill="none" stroke="#00a5ff" stroke-miterlimit="10" stroke-width=".1" d="M12.923 10.958h46.154A1.923 1.923 0 0161 12.881v46.154a1.923 1.923 0 01-1.923 1.923H12.923A1.923 1.923 0 0111 59.035V12.881a1.923 1.923 0 011.923-1.923z"/><rect x="16" y="4" rx="2.254" width="40" height="64" fill="none" stroke="#00a5ff" stroke-miterlimit="10" stroke-width=".1"/><rect x="16" y="4" rx="2.254" width="40" height="64" transform="rotate(90 36 36)" fill="none" stroke="#00a5ff" stroke-miterlimit="10" stroke-width=".1"/><circle cx="36" cy="36" r="29" fill="none" stroke="#00a5ff" stroke-miterlimit="10" stroke-width=".1"/><g stroke-linecap="round" stroke-miterlimit="10" stroke-width="6" stroke="#fff" fill="none" stroke-linejoin="round"><path d="M8.5 18h55v35h-55z"/><path d="M27.5 40h17v13h-17zM36 53V40"/><circle cx="36" cy="28.5" r="6.5"/><path d="M36 29v-4m0 4l2-1M22 48h-2v-5m-5 5h-2v-5m9-5h-2v-5m-5 5h-2v-5m9-5h-2v-5m-5 5h-2v-5m46 25h-2v-5m-5 5h-2v-5m9-5h-2v-5m-5 5h-2v-5m9-5h-2v-5m-5 5h-2v-5"/></g><path fill="#D0CFCE" d="M8.5 18h55v35h-55z"/><path fill="#A57939" d="M27.5 40h17v13h-17z"/><circle cx="36" cy="28.5" r="6.5" fill="#FFF"/><path fill="none" stroke="#92D3F5" stroke-linecap="round" stroke-linejoin="round" stroke-miterlimit="10" stroke-width="2" d="M20 43h2v5h-2zm-7 0h2v5h-2zm7-10h2v5h-2zm-7 0h2v5h-2zm7-10h2v5h-2zm-7 0h2v5h-2zm44 20h2v5h-2zm-7 0h2v5h-2zm7-10h2v5h-2zm-7 0h2v5h-2zm7-10h2v5h-2zm-7 0h2v5h-2z"/><g fill="none" stroke="#000" stroke-linecap="round" stroke-linejoin="round" stroke-width="2"><path stroke-miterlimit="10" d="M8.5 18h55v35h-55z"/><path stroke-miterlimit="10" d="M27.5 40h17v13h-17zM36 53V40"/><circle cx="36" cy="28.5" r="6.5"/><path d="M36 29v-4m0 4l2-1"/><path stroke-miterlimit="10" d="M22 48h-2v-5m-5 5h-2v-5m9-5h-2v-5m-5 5h-2v-5m9-5h-2v-5m-5 5h-2v-5m46 25h-2v-5m-5 5h-2v-5m9-5h-2v-5m-5 5h-2v-5m9-5h-2v-5m-5 5h-2v-5"/></g></svg>