<svg viewBox="0 0 72 72" xmlns="http://www.w3.org/2000/svg"><path fill="#B3B3B3" d="M68 4v64H4V4h64m4-4H0v72h72V0z"/><path fill="none" stroke="#00A5FF" stroke-miterlimit="10" stroke-width=".1" d="M12.923 10.958h46.154c1.062 0 1.923.861 1.923 1.923v46.154a1.923 1.923 0 01-1.923 1.923H12.923A1.923 1.923 0 0111 59.035h0V12.881c0-1.062.861-1.923 1.923-1.923h0z"/><path fill="none" stroke="#00A5FF" stroke-miterlimit="10" stroke-width=".1" d="M18.254 4h35.492A2.254 2.254 0 0156 6.254v59.492A2.254 2.254 0 0153.746 68H18.254A2.254 2.254 0 0116 65.746V6.254A2.254 2.254 0 0118.254 4z"/><path fill="none" stroke="#00A5FF" stroke-miterlimit="10" stroke-width=".1" d="M68 18.254v35.492A2.254 2.254 0 0165.746 56H6.254A2.254 2.254 0 014 53.746V18.254A2.254 2.254 0 016.254 16h59.492A2.254 2.254 0 0168 18.254z"/><circle cx="36" cy="36" r="29" fill="none" stroke="#00A5FF" stroke-miterlimit="10" stroke-width=".1"/><g stroke-linecap="round" stroke-miterlimit="10" stroke-width="6" stroke="#fff" fill="none" stroke-linejoin="round"><path d="M16 26h40v34H16zm-2-4h44v4H14z"/><path d="M19.5 26h3v34h-3m5.433-34h3v34h-3m22.134 0h-3V26h3M52.5 60h-3V26h3M36 12l-17 9.75h34zm-4.5 38h9v10h-9zM36 60V50"/><circle cx="36" cy="35" r="5"/><path d="M36.948 34.262c-.098-.38-.52-.666-1.027-.666h0c-.579 0-1.048.373-1.048.834 0 .461.47.835 1.048.835l-.021.003c.579 0 1.048.374 1.048.835 0 .46-.469.835-1.048.835h0c-.507 0-.93-.287-1.027-.667m1.038-2.675V32.8m0 4.933v-.795"/></g><path fill="#9B9B9A" d="M16 26h40v34H16z"/><path fill="#D0CFCE" d="M14 22h44v4H14z"/><path fill="#FFF" d="M19.5 26h2.052v34H19.5m5.433-34h2.038v34h-2.038m22.134 0h-2.05V26h2.05M52.5 60h-2.018V26H52.5"/><path fill="#D0CFCE" d="M36 12L19 22h34z"/><path fill="#92D3F5" d="M31.5 50h9v10h-9z"/><circle cx="36" cy="35" r="5" fill="#FCEA2B"/><path fill="none" stroke="#F4AA41" stroke-linecap="round" stroke-linejoin="round" stroke-miterlimit="10" d="M36.948 34.262c-.098-.38-.52-.666-1.027-.666h0c-.579 0-1.048.373-1.048.834 0 .461.47.835 1.048.835l-.021.003c.579 0 1.048.374 1.048.835 0 .46-.469.835-1.048.835h0c-.507 0-.93-.287-1.027-.667m1.038-2.675V32.8m0 4.933v-.795"/><g fill="none" stroke="#000" stroke-miterlimit="10"><path stroke-linecap="round" stroke-linejoin="round" stroke-width="2" d="M16 26h40v34H16zm-2-4h44v4H14z"/><path stroke-linecap="round" stroke-linejoin="round" stroke-width="2" d="M19.5 26h3v34h-3m5.433-34h3v34h-3m22.134 0h-3V26h3M52.5 60h-3V26h3M36 12l-17 9.75h34zm-4.5 38h9v10h-9zM36 60V50"/><circle cx="36" cy="35" r="5" stroke-width="2"/><path stroke-linecap="round" stroke-linejoin="round" d="M36.948 34.262c-.098-.38-.52-.666-1.027-.666h0c-.579 0-1.048.373-1.048.834 0 .461.47.835 1.048.835l-.021.003c.579 0 1.048.374 1.048.835 0 .46-.469.835-1.048.835h0c-.507 0-.93-.287-1.027-.667m1.038-2.675V32.8m0 4.933v-.795"/></g></svg>