<svg viewBox="0 0 72 72" xmlns="http://www.w3.org/2000/svg"><path fill="#b3b3b3" d="M68 4v64H4V4h64m4-4H0v72h72V0z"/><path fill="none" stroke="#00a5ff" stroke-miterlimit="10" stroke-width=".1" d="M12.923 10.958h46.154A1.923 1.923 0 0161 12.881v46.154a1.923 1.923 0 01-1.923 1.923H12.923A1.923 1.923 0 0111 59.035V12.881a1.923 1.923 0 011.923-1.923z"/><rect x="16" y="4" rx="2.254" width="40" height="64" fill="none" stroke="#00a5ff" stroke-miterlimit="10" stroke-width=".1"/><rect x="16" y="4" rx="2.254" width="40" height="64" transform="rotate(90 36 36)" fill="none" stroke="#00a5ff" stroke-miterlimit="10" stroke-width=".1"/><circle cx="36" cy="36" r="29" fill="none" stroke="#00a5ff" stroke-miterlimit="10" stroke-width=".1"/><g stroke-linecap="round" stroke-miterlimit="10" stroke-width="6" stroke="#fff" fill="none" stroke-linejoin="round"><circle cx="26.969" cy="13.094" r="3"/><path d="M42 36l5.854 8.361a11.025 11.025 0 002.869 2.656l6.721 3.966a2.363 2.363 0 011.223 2.517 1.69 1.69 0 01-2.35.74l-8.467-3.48a14.104 14.104 0 01-3.345-2.089L37 42"/><path d="M30.848 31.36l.576 1.32a3.731 3.731 0 01-.498 3.007l-4.852 7.625A8.323 8.323 0 0024.973 47l-.196 14a1.849 1.849 0 001.685 2 2.175 2.175 0 001.954-1.985l1.342-11.03a6.789 6.789 0 011.656-3.4l3.172-3.17a53.68 53.68 0 012.95-2.695l2.928-2.44A4.864 4.864 0 0042 35h0a9.309 9.309 0 00-.958-3.756L36 22m0 0c-2-4-4.36-4.233-6.031-3.583a3.859 3.859 0 00-2.369 3.834"/><path d="M30.938 22l-1.42 5.077A2.776 2.776 0 0127 29h-7"/></g><g fill="#fcea2b"><circle cx="26.969" cy="13.094" r="3"/><path d="M26.665 22.585s.304 3.708 3.304 9.042A80.486 80.486 0 0031 33.335L25 45l-.25 18h3.424L30 48l6-6 6-5v-4l-6-11"/><path d="M42 36l7 10 10.167 6-1 3L46 50l-9-8m-1-20c-2-4-4.36-4.233-6.031-3.583A4.108 4.108 0 0028 24"/></g><g fill="none" stroke="#000" stroke-width="2"><circle cx="26.969" cy="13.094" r="3" stroke-miterlimit="10"/><path stroke-linecap="round" stroke-linejoin="round" d="M42 36l5.854 8.361a11.025 11.025 0 002.869 2.656l6.721 3.966a2.363 2.363 0 011.223 2.517 1.69 1.69 0 01-2.35.74l-8.467-3.48a14.104 14.104 0 01-3.345-2.089L37 42"/><path stroke-linecap="round" stroke-linejoin="round" d="M30.848 31.36l.576 1.32a3.731 3.731 0 01-.498 3.007l-4.852 7.625A8.323 8.323 0 0024.973 47l-.196 14a1.849 1.849 0 001.685 2 2.175 2.175 0 001.954-1.985l1.342-11.03a6.789 6.789 0 011.656-3.4l3.172-3.17a53.68 53.68 0 012.95-2.695l2.928-2.44A4.864 4.864 0 0042 35h0a9.309 9.309 0 00-.958-3.756L36 22m0 0c-2-4-4.36-4.233-6.031-3.583a3.859 3.859 0 00-2.369 3.834"/><path stroke-linecap="round" stroke-linejoin="round" d="M30.938 22l-1.42 5.077A2.776 2.776 0 0127 29h-7"/></g></svg>