<svg viewBox="0 0 72 72" xmlns="http://www.w3.org/2000/svg"><path fill="#b3b3b3" d="M68 4v64H4V4h64m4-4H0v72h72V0z"/><path fill="none" stroke="#00a5ff" stroke-miterlimit="10" stroke-width=".1" d="M12.923 10.958h46.154A1.923 1.923 0 0161 12.881v46.154a1.923 1.923 0 01-1.923 1.923H12.923A1.923 1.923 0 0111 59.035V12.881a1.923 1.923 0 011.923-1.923z"/><rect x="16" y="4" rx="2.254" width="40" height="64" fill="none" stroke="#00a5ff" stroke-miterlimit="10" stroke-width=".1"/><rect x="16" y="4" rx="2.254" width="40" height="64" transform="rotate(90 36 36)" fill="none" stroke="#00a5ff" stroke-miterlimit="10" stroke-width=".1"/><circle cx="36" cy="36" r="29" fill="none" stroke="#00a5ff" stroke-miterlimit="10" stroke-width=".1"/><g stroke-linecap="round" stroke-miterlimit="10" stroke-width="6" stroke="#fff" fill="none" stroke-linejoin="round"><circle cx="46.996" cy="14.109" r="3"/><path d="M44.027 13.016l-3-8h2l4 6m3 2l2-3 2 2-4-4-3 3"/><path d="M54.027 12.016l-1-4h-3m.5 17.82l.813 1.794c1.139 2.41-.813 3.402.131 7.352l.195 1.066c.199 1.081.51 2.855.69 3.94l1.342 8.055c.18 1.085.544 2.847.805 3.915l1.748 7.115c.262 1.069-.265 1.943-1.173 1.943a2.667 2.667 0 01-2.242-1.911l-2.218-7.178c-.326-1.052-.828-2.78-1.118-3.841l-1.947-7.14c-.29-1.062-.75-1.93-1.026-1.93s-.558.898-.627 1.996L44.754 59.02a2.003 2.003 0 01-1.777 1.996 1.886 1.886 0 01-1.676-2l-.248-19a25.114 25.114 0 01.33-3.968l1.197-3.862c.195-1.082-.696-3.22-.29-4.606l.597-1.744"/><path d="M41.694 33.016l-3.054-4.362a2.94 2.94 0 01.06-3.234l2.121-2.809a4.546 4.546 0 013.206-1.595h6a3.555 3.555 0 012.895 1.789l1.21 2.422c.493.984 1.152 2.606.589 3.55l-3.277 4.239"/><circle cx="25.915" cy="14.109" r="3"/><path d="M22.946 13.016l-3-8h2l4 6"/><path d="M28.946 13.016l2-3 2 2-4-4-3 3"/><path d="M32.946 12.016l-1-4h-3m.5 17.82l.813 1.794c1.139 2.41-.813 3.402.131 7.352l.196 1.067c.198 1.08.509 2.854.69 3.94l1.34 8.054a65.14 65.14 0 00.807 3.915l1.748 7.116c.261 1.068-.266 1.942-1.174 1.942a2.667 2.667 0 01-2.241-1.911l-2.22-7.178c-.324-1.051-.826-2.78-1.116-3.84l-1.948-7.141c-.29-1.062-.75-1.93-1.026-1.93s-.558.898-.627 1.996L23.673 59.02a2.003 2.003 0 01-1.777 1.996 1.886 1.886 0 01-1.676-2l-.248-19a25.114 25.114 0 01.33-3.968l1.197-3.861c.195-1.083-.697-3.22-.29-4.606l.597-1.745"/><path d="M20.613 33.016l-3.054-4.362a2.94 2.94 0 01.06-3.234l2.121-2.809a4.546 4.546 0 013.206-1.595h6a3.555 3.555 0 012.894 1.789l1.211 2.422c.493.984 1.152 2.606.589 3.55l-3.277 4.239"/></g><path fill="#9b9b9a" d="M44.027 13.016l-3-8h2l4 6m3 2l2-3 2 2-4-4-3 3m-24.081 2l-3-8h2l4 6"/><path fill="#9b9b9a" d="M28.946 13.016l2-3 2 2-4-4-3 3"/><path d="M32.946 12.016l-1-4h-3m25.081 4l-1-4h-3"/><g fill="#fcea2b"><path d="M51.11 27.016l-.581 6 1.582 5 2 12 2.7 11h-3.3l-3.4-11-3-11h-1l-1.4 22h-3.3l-.3-23 2-6-1-5s.582-1.78-.418.22l.418 1.78v3l-3-3v-5l3-2 1-1h7l2 1 1 2 1.825 3.954-2.825 3.046h-1"/><circle cx="46.996" cy="14.109" r="3"/><path d="M30.03 27.016l-.583 6 1.583 5 2 12 2.7 11h-3.3l-3.4-11-3-11h-1l-1.4 22h-3.3l-.3-23 2-6-1-5s.582-1.78-.418.22l.418 1.78v3l-3-3v-5l3-2 1-1h7l2 1 1 2 1.825 3.954-2.825 3.046h-1"/><circle cx="25.915" cy="14.109" r="3"/></g><g fill="none" stroke="#000"><circle cx="46.996" cy="14.109" r="3" stroke-miterlimit="10" stroke-width="2"/><path stroke-linecap="round" stroke-linejoin="round" stroke-width="1.6" d="M44.027 13.016l-3-8h2l4 6m3 2l2-3 2 2-4-4-3 3"/><path stroke-linecap="round" stroke-linejoin="round" stroke-width="1.6" d="M54.027 12.016l-1-4h-3"/><path stroke-linecap="round" stroke-linejoin="round" stroke-width="2" d="M50.527 25.836l.813 1.794c1.139 2.41-.813 3.402.131 7.352l.195 1.066c.199 1.081.51 2.855.69 3.94l1.342 8.055c.18 1.085.544 2.847.805 3.915l1.748 7.115c.262 1.069-.265 1.943-1.173 1.943a2.667 2.667 0 01-2.242-1.911l-2.218-7.178c-.326-1.052-.828-2.78-1.118-3.841l-1.947-7.14c-.29-1.062-.75-1.93-1.026-1.93s-.558.898-.627 1.996L44.754 59.02a2.003 2.003 0 01-1.777 1.996 1.886 1.886 0 01-1.676-2l-.248-19a25.114 25.114 0 01.33-3.968l1.197-3.862c.195-1.082-.696-3.22-.29-4.606l.597-1.744"/><path stroke-linecap="round" stroke-linejoin="round" stroke-width="2" d="M41.694 33.016l-3.054-4.362a2.94 2.94 0 01.06-3.234l2.121-2.809a4.546 4.546 0 013.206-1.595h6a3.555 3.555 0 012.895 1.789l1.21 2.422c.493.984 1.152 2.606.589 3.55l-3.277 4.239"/><circle cx="25.915" cy="14.109" r="3" stroke-miterlimit="10" stroke-width="2"/><path stroke-linecap="round" stroke-linejoin="round" stroke-width="1.6" d="M22.946 13.016l-3-8h2l4 6"/><path stroke-linecap="round" stroke-linejoin="round" stroke-width="1.6" d="M28.946 13.016l2-3 2 2-4-4-3 3"/><path stroke-linecap="round" stroke-linejoin="round" stroke-width="1.6" d="M32.946 12.016l-1-4h-3"/><path stroke-linecap="round" stroke-linejoin="round" stroke-width="2" d="M29.446 25.836l.813 1.794c1.139 2.41-.813 3.402.131 7.352l.196 1.067c.198 1.08.509 2.854.69 3.94l1.34 8.054a65.14 65.14 0 00.807 3.915l1.748 7.116c.261 1.068-.266 1.942-1.174 1.942a2.667 2.667 0 01-2.241-1.911l-2.22-7.178c-.324-1.051-.826-2.78-1.116-3.84l-1.948-7.141c-.29-1.062-.75-1.93-1.026-1.93s-.558.898-.627 1.996L23.673 59.02a2.003 2.003 0 01-1.777 1.996 1.886 1.886 0 01-1.676-2l-.248-19a25.114 25.114 0 01.33-3.968l1.197-3.861c.195-1.083-.697-3.22-.29-4.606l.597-1.745"/><path stroke-linecap="round" stroke-linejoin="round" stroke-width="2" d="M20.613 33.016l-3.054-4.362a2.94 2.94 0 01.06-3.234l2.121-2.809a4.546 4.546 0 013.206-1.595h6a3.555 3.555 0 012.894 1.789l1.211 2.422c.493.984 1.152 2.606.589 3.55l-3.277 4.239"/></g></svg>