<svg viewBox="0 0 72 72" xmlns="http://www.w3.org/2000/svg"><path fill="#b3b3b3" d="M0 68.635h68.636V0H0zM3.813 3.813h61.01v61.01H3.813z"/><path fill="none" stroke="#00a5ff" stroke-miterlimit="10" stroke-width=".1" d="M56.317 58.11H12.319a1.833 1.833 0 01-1.833-1.833V12.28a1.833 1.833 0 011.833-1.834h43.998a1.833 1.833 0 011.833 1.834v43.996a1.833 1.833 0 01-1.833 1.834z"/><path fill="none" stroke="#00a5ff" stroke-miterlimit="10" stroke-width=".1" d="M51.235 64.822H17.4a2.148 2.148 0 01-2.148-2.148V5.962A2.148 2.148 0 0117.4 3.813h33.834a2.148 2.148 0 012.149 2.149v56.712a2.148 2.148 0 01-2.15 2.148z"/><path fill="none" stroke="#00a5ff" stroke-miterlimit="10" stroke-width=".1" d="M3.813 51.234V17.401a2.148 2.148 0 012.149-2.149h56.712a2.148 2.148 0 012.149 2.149v33.834a2.148 2.148 0 01-2.149 2.148H5.962a2.148 2.148 0 01-2.149-2.149z"/><circle cx="34.318" cy="34.318" r="27.645" fill="none" stroke="#00a5ff" stroke-miterlimit="10" stroke-width=".1"/><g stroke-linecap="round" stroke-miterlimit="10" stroke-width="6" stroke="#fff" fill="none" stroke-linejoin="round"><circle cx="32.709" cy="11.465" r="2.86"/><path d="M32.648 20.229l.027 8.128-2.363 10.58"/><path d="M36.117 35.85c-.857 2.132-2.352 3.617-2.888 4.555-.62 1.085-2.406 6.397-2.406 6.397s-1.78 10.194-2.073 10.96c-.29.755-.868 2.26-2.057 2.038-.903-.168-1.165-1.176-1.227-2.127-.063-.947.71-11.047.71-11.047l1.776-12.957s1.362-10.05 1.905-12.562a6.323 6.323 0 011.257-3.075 2.508 2.508 0 011.85-.777 2.602 2.602 0 011.807.821 7.295 7.295 0 011.056 3.518c.328 2.688.77 13.066.29 14.256z"/><path d="M32.345 42.505a83.2 83.2 0 003.224 8.715 44.18 44.18 0 005.066 6.82c.554.577 1.592.967 2.072.613a1.92 1.92 0 00.31-2.076c-.776-2.005-3.774-6.629-4.557-8.257-.888-1.845-2.891-11.323-2.891-11.323"/></g><g fill="#fcea2b"><circle cx="32.709" cy="11.465" r="2.86"/><path d="M31.646 17.303l3.729.44.953 10.326-.495 10.151 1.52 7.224 5.072 9.863.476 3.363-3.763-1.613-5.21-9.862-.613-1.748-.97-.989-2.117 5.697-1.301 6.896-1.75 2.98-1.716-1.76.819-10.475 1.027-9.422.689-5.027s1.071-7.079 1.434-10.514a39.785 39.785 0 012.216-5.53z"/></g><g fill="none" stroke="#000" stroke-width="2"><circle cx="32.709" cy="11.465" r="2.86" stroke-miterlimit="10"/><path stroke-linecap="round" stroke-linejoin="round" d="M32.648 20.229l.027 8.128-2.363 10.58"/><path stroke-linecap="round" stroke-linejoin="round" d="M36.117 35.85c-.857 2.132-2.352 3.617-2.888 4.555-.62 1.085-2.406 6.397-2.406 6.397s-1.78 10.194-2.073 10.96c-.29.755-.868 2.26-2.057 2.038-.903-.168-1.165-1.176-1.227-2.127-.063-.947.71-11.047.71-11.047l1.776-12.957s1.362-10.05 1.905-12.562a6.323 6.323 0 011.257-3.075 2.508 2.508 0 011.85-.777 2.602 2.602 0 011.807.821 7.295 7.295 0 011.056 3.518c.328 2.688.77 13.066.29 14.256z"/><path stroke-linecap="round" stroke-linejoin="round" d="M32.345 42.505a83.2 83.2 0 003.224 8.715 44.18 44.18 0 005.066 6.82c.554.577 1.592.967 2.072.613a1.92 1.92 0 00.31-2.076c-.776-2.005-3.774-6.629-4.557-8.257-.888-1.845-2.891-11.323-2.891-11.323"/></g></svg>