<svg viewBox="0 0 72 72" xmlns="http://www.w3.org/2000/svg"><path fill="#b3b3b3" d="M0 68.635h68.636V0H0zM3.813 3.813h61.01v61.01H3.813z"/><path fill="none" stroke="#00a5ff" stroke-miterlimit="10" stroke-width=".1" d="M56.316 58.11H12.32a1.833 1.833 0 01-1.833-1.833V12.28a1.833 1.833 0 011.833-1.834h43.997a1.833 1.833 0 011.834 1.834v43.996a1.833 1.833 0 01-1.834 1.834z"/><path fill="none" stroke="#00a5ff" stroke-miterlimit="10" stroke-width=".1" d="M51.235 64.822H17.4a2.148 2.148 0 01-2.149-2.148V5.962a2.148 2.148 0 012.15-2.149h33.833a2.148 2.148 0 012.148 2.149v56.712a2.148 2.148 0 01-2.148 2.148z"/><path fill="none" stroke="#00a5ff" stroke-miterlimit="10" stroke-width=".1" d="M3.813 51.234V17.401a2.148 2.148 0 012.149-2.149h56.712a2.148 2.148 0 012.149 2.149v33.834a2.148 2.148 0 01-2.15 2.148H5.963a2.148 2.148 0 01-2.149-2.149z"/><circle cx="34.318" cy="34.318" r="27.645" fill="none" stroke="#00a5ff" stroke-miterlimit="10" stroke-width=".1"/><g stroke-linecap="round" stroke-miterlimit="10" stroke-width="6" stroke="#fff" fill="none" stroke-linejoin="round"><circle cx="32.709" cy="11.465" r="2.86"/><path d="M32.648 20.229l.026 8.128-2.363 10.58"/><path d="M36.116 35.85c-.857 2.132-2.352 3.617-2.889 4.555-.62 1.085-2.406 6.397-2.406 6.397s-1.78 10.194-2.072 10.96c-.29.755-.868 2.26-2.058 2.038-.902-.168-1.164-1.176-1.226-2.127-.063-.947.71-11.047.71-11.047l1.776-12.957s1.362-10.05 1.905-12.562a6.325 6.325 0 011.257-3.075 2.508 2.508 0 011.849-.776 2.602 2.602 0 011.808.82 7.295 7.295 0 011.055 3.518c.329 2.688.77 13.066.291 14.256z"/><path d="M32.344 42.505a83.208 83.208 0 003.224 8.715 44.18 44.18 0 005.066 6.821c.554.576 1.592.967 2.072.612a1.92 1.92 0 00.311-2.075c-.777-2.006-3.775-6.63-4.557-8.258-.889-1.845-2.892-11.323-2.892-11.323m.759-27.263s.57-.329.952-.064c.45.31.846 1.582 1.39 2.1a3.363 3.363 0 001.958.94"/></g><g fill="#fcea2b"><circle cx="32.709" cy="11.465" r="2.86"/><path d="M31.646 17.303l3.729.44.953 10.326-.495 10.151 1.52 7.224 5.072 9.863.475 3.363-3.762-1.613-5.212-9.862-.612-1.748-.97-.989-2.117 5.697-1.301 6.896-1.75 2.98-1.715-1.76.818-10.476 1.027-9.422.69-5.026s1.07-7.08 1.434-10.515a39.783 39.783 0 012.216-5.53z"/></g><g fill="none" stroke="#000" stroke-width="2"><circle cx="32.709" cy="11.465" r="2.86" stroke-miterlimit="10"/><path stroke-linecap="round" stroke-linejoin="round" d="M32.648 20.229l.026 8.128-2.363 10.58"/><path stroke-linecap="round" stroke-linejoin="round" d="M36.116 35.85c-.857 2.132-2.352 3.617-2.889 4.555-.62 1.085-2.406 6.397-2.406 6.397s-1.78 10.194-2.072 10.96c-.29.755-.868 2.26-2.058 2.038-.902-.168-1.164-1.176-1.226-2.127-.063-.947.71-11.047.71-11.047l1.776-12.957s1.362-10.05 1.905-12.562a6.325 6.325 0 011.257-3.075 2.508 2.508 0 011.849-.776 2.602 2.602 0 011.808.82 7.295 7.295 0 011.055 3.518c.329 2.688.77 13.066.291 14.256z"/><path stroke-linecap="round" stroke-linejoin="round" d="M32.344 42.505a83.208 83.208 0 003.224 8.715 44.18 44.18 0 005.066 6.821c.554.576 1.592.967 2.072.612a1.92 1.92 0 00.311-2.075c-.777-2.006-3.775-6.63-4.557-8.258-.889-1.845-2.892-11.323-2.892-11.323m.759-27.263s.57-.329.952-.064c.45.31.846 1.582 1.39 2.1a3.363 3.363 0 001.958.94"/></g></svg>