<svg viewBox="0 0 72 72" xmlns="http://www.w3.org/2000/svg"><path fill="#b3b3b3" d="M68 4v64H4V4h64m4-4H0v72h72V0z"/><path fill="none" stroke="#00a5ff" stroke-miterlimit="10" stroke-width=".1" d="M12.923 10.958h46.154A1.923 1.923 0 0161 12.881v46.154a1.923 1.923 0 01-1.923 1.923H12.923A1.923 1.923 0 0111 59.035V12.881a1.923 1.923 0 011.923-1.923z"/><rect x="16" y="4" rx="2.254" width="40" height="64" fill="none" stroke="#00a5ff" stroke-miterlimit="10" stroke-width=".1"/><rect x="16" y="4" rx="2.254" width="40" height="64" transform="rotate(90 36 36)" fill="none" stroke="#00a5ff" stroke-miterlimit="10" stroke-width=".1"/><circle cx="36" cy="36" r="29" fill="none" stroke="#00a5ff" stroke-miterlimit="10" stroke-width=".1"/><g stroke-linecap="round" stroke-miterlimit="10" stroke-width="6" stroke="#fff" fill="none" stroke-linejoin="round"><circle cx="35.969" cy="8.094" r="3"/><path d="M31 24l-4.054 41.01c-.107 1.094.574 1.99 1.516 1.99s1.95-.868 2.238-1.93l5.486-20.115c.29-1.061 1.043-2.667 1.674-3.567l2.2-3.14c.63-.9 1.103-2.537 1.05-3.636l-.492-10.119"/><path d="M40.135 38.14l1.82 11.526c.171 1.087.78 2.745 1.35 3.685l4.824 7.94c.57.94.363 2.16-.462 2.709-.825.55-2.034.276-2.688-.61l-5.268-7.135c-.653-.886-1.515-2.448-1.914-3.473l-2.203-5.653m5.331-17.548l-.633-10.546C40.16 16.839 38.252 15 36.052 15H36c-2.2 0-4.2 1.83-4.446 4.017L31 23.98"/><path d="M36.167 20l.055 6.25c.01 1.1-.197 2.874-.457 3.942L32.92 41.834"/></g><g fill="#FCEA2B"><path d="M31 24l-4.25 43h3.424l6.539-23.975 4.494-6.415-.589-12.117"/><path d="M40.135 38.14l2.132 13.502L49.167 63l-3 2-7.644-10.355-2.93-7.516m5.332-17.548l-.633-10.546C40.16 16.839 38.252 15 36.052 15H36c-2.2 0-4.2 1.83-4.446 4.017L31 23.98"/><circle cx="35.969" cy="8.094" r="3"/></g><g fill="none" stroke="#000" stroke-miterlimit="10" stroke-width="2"><circle cx="35.969" cy="8.094" r="3"/><path stroke-linecap="round" stroke-linejoin="round" d="M31 24l-4.054 41.01c-.107 1.094.574 1.99 1.516 1.99s1.95-.868 2.238-1.93l5.486-20.115c.29-1.061 1.043-2.667 1.674-3.567l2.2-3.14c.63-.9 1.103-2.537 1.05-3.636l-.492-10.119"/><path stroke-linecap="round" stroke-linejoin="round" d="M40.135 38.14l1.82 11.526c.171 1.087.78 2.745 1.35 3.685l4.824 7.94c.57.94.363 2.16-.462 2.709-.825.55-2.034.276-2.688-.61l-5.268-7.135c-.653-.886-1.515-2.448-1.914-3.473l-2.203-5.653m5.331-17.548l-.633-10.546C40.16 16.839 38.252 15 36.052 15H36c-2.2 0-4.2 1.83-4.446 4.017L31 23.98"/><path stroke-linecap="round" stroke-linejoin="round" d="M36.167 20l.055 6.25c.01 1.1-.197 2.874-.457 3.942L32.92 41.834"/></g></svg>