<svg viewBox="0 0 72 72" xmlns="http://www.w3.org/2000/svg"><path fill="#b3b3b3" d="M68 4v64H4V4h64m4-4H0v72h72V0z"/><path fill="none" stroke="#00a5ff" stroke-miterlimit="10" stroke-width=".1" d="M12.923 10.958h46.154A1.923 1.923 0 0161 12.881v46.154a1.923 1.923 0 01-1.923 1.923H12.923A1.923 1.923 0 0111 59.035V12.881a1.923 1.923 0 011.923-1.923z"/><rect x="16" y="4" rx="2.254" width="40" height="64" fill="none" stroke="#00a5ff" stroke-miterlimit="10" stroke-width=".1"/><rect x="16" y="4" rx="2.254" width="40" height="64" transform="rotate(90 36 36)" fill="none" stroke="#00a5ff" stroke-miterlimit="10" stroke-width=".1"/><circle cx="36" cy="36" r="29" fill="none" stroke="#00a5ff" stroke-miterlimit="10" stroke-width=".1"/><g stroke-linecap="round" stroke-miterlimit="10" stroke-width="6" stroke="#fff" fill="none" stroke-linejoin="round"><path d="M29 52h4m13 0s17 2 19 0v-1s3-3 1-4-5 0-5 0-2.917-1.333-6.458-4.667c0 0-1.542-1.333-3.542.667 0 0-2-3-8-3s-24 1-24 1-6-1 0-3 11-2 12 0c0 0-2.667-8.417-17.333-5.208C13.667 32.792 1 36 8 48c0 0 2 4 8 4"/><path d="M23 47s-4.812 4-3.406 5S23 55 23 55h4l-3.032-3S26 51 27 49s0-3.24 0-3.24M40 47s-4.812 4-3.406 5S40 55 40 55h4l-3.032-3S43 51 44 49s0-3.24 0-3.24"/></g><g stroke-linecap="round" stroke-linejoin="round" stroke-miterlimit="10" stroke-width="2"><path fill="#5C9E31" stroke="#5C9E31" d="M46 52s17 2 19 0v-1s3-3 1-4-5 0-5 0-2.917-1.333-6.458-4.667c0 0-1.542-1.333-3.542.667 0 0-2-3-8-3s-24 1-24 1-6-1 0-3 11-2 12 0c0 0-2.667-8.417-17.333-5.208C13.667 32.792 1 36 8 48c0 0 2 4 8 4h30z"/><path fill="#B1CC33" stroke="#B1CC33" d="M23 47s-4.812 4-3.406 5S23 55 23 55h4l-3.032-3S26 51 27 49s0-3.24 0-3.24M40 47s-4.812 4-3.406 5S40 55 40 55h4l-3.032-3S43 51 44 49s0-3.24 0-3.24"/></g><g fill="none" stroke="#000" stroke-linecap="round" stroke-linejoin="round" stroke-miterlimit="10" stroke-width="2"><path d="M29 52h4m13 0s17 2 19 0v-1s3-3 1-4-5 0-5 0-2.917-1.333-6.458-4.667c0 0-1.542-1.333-3.542.667 0 0-2-3-8-3s-24 1-24 1-6-1 0-3 11-2 12 0c0 0-2.667-8.417-17.333-5.208C13.667 32.792 1 36 8 48c0 0 2 4 8 4"/><path d="M23 47s-4.812 4-3.406 5S23 55 23 55h4l-3.032-3S26 51 27 49s0-3.24 0-3.24M40 47s-4.812 4-3.406 5S40 55 40 55h4l-3.032-3S43 51 44 49s0-3.24 0-3.24"/></g></svg>