<svg viewBox="0 0 72 72" xmlns="http://www.w3.org/2000/svg"><path fill="#b3b3b3" d="M68 4v64H4V4h64m4-4H0v72h72V0z"/><path fill="none" stroke="#00a5ff" stroke-miterlimit="10" stroke-width=".1" d="M12.923 10.958h46.154A1.923 1.923 0 0161 12.881v46.154a1.923 1.923 0 01-1.923 1.923H12.923A1.923 1.923 0 0111 59.035V12.881a1.923 1.923 0 011.923-1.923z"/><rect x="16" y="4" rx="2.254" width="40" height="64" fill="none" stroke="#00a5ff" stroke-miterlimit="10" stroke-width=".1"/><rect x="16" y="4" rx="2.254" width="40" height="64" transform="rotate(90 36 36)" fill="none" stroke="#00a5ff" stroke-miterlimit="10" stroke-width=".1"/><circle cx="36" cy="36" r="29" fill="none" stroke="#00a5ff" stroke-miterlimit="10" stroke-width=".1"/><path d="M39.917 46.5s7.882-1.5 13.982 0S68 46 68 46s-7.667.667-15.333-3.667S39 40.833 32.5 40.417c-6.5-.417-14.167-4.584-17.833-7C11 31 8.583 31.25 8.583 31.25S8 32 6 33s-5 2 1 4 8.833 4.833 8.833 4.833m5.554 3.193s5.716 1.807 10.613 1.39M19 43l-3 7m0-2h-1m2 0l1 1m18.547-2.494l-.468 6.865m-.661-1.641l-.928.374m1.855-.748l1.258.447" stroke-linecap="round" stroke-miterlimit="10" stroke-width="6" stroke="#fff" fill="none" stroke-linejoin="round"/><path fill="#B1CC33" d="M39.917 47.358S47.799 45 53.899 46.5 68 46 68 46s-7.667.667-15.333-3.667S39 40.833 32.5 40.417c-6.5-.417-14.167-4.584-17.833-7C11 31 8.583 31.25 8.583 31.25S8 32 6 33s-5 2 1 4 8.833 5.833 8.833 5.833 6 6.025 24.084 4.525z"/><path d="M39.917 46.5s7.882-1.5 13.982 0S68 46 68 46s-7.667.667-15.333-3.667S39 40.833 32.5 40.417c-6.5-.417-14.167-4.584-17.833-7C11 31 8.583 31.25 8.583 31.25S8 32 6 33s-5 2 1 4 8.833 4.833 8.833 4.833m5.554 3.193s5.716 1.807 10.613 1.39M19 43l-3 7m0-2h-1m2 0l1 1m18.547-2.494l-.468 6.865m-.661-1.641l-.928.374m1.855-.748l1.258.447" fill="none" stroke="#000" stroke-linecap="round" stroke-linejoin="round" stroke-miterlimit="10" stroke-width="2"/></svg>