<svg viewBox="0 0 72 72" xmlns="http://www.w3.org/2000/svg"><path fill="#b3b3b3" d="M68 4v64H4V4h64m4-4H0v72h72V0z"/><path fill="none" stroke="#00a5ff" stroke-miterlimit="10" stroke-width=".1" d="M12.923 10.958h46.154A1.923 1.923 0 0161 12.881v46.154a1.923 1.923 0 01-1.923 1.923H12.923A1.923 1.923 0 0111 59.035V12.881a1.923 1.923 0 011.923-1.923z"/><rect x="16" y="4" rx="2.254" width="40" height="64" fill="none" stroke="#00a5ff" stroke-miterlimit="10" stroke-width=".1"/><rect x="16" y="4" rx="2.254" width="40" height="64" transform="rotate(90 36 36)" fill="none" stroke="#00a5ff" stroke-miterlimit="10" stroke-width=".1"/><circle cx="36" cy="36" r="29" fill="none" stroke="#00a5ff" stroke-miterlimit="10" stroke-width=".1"/><g stroke-linecap="round" stroke-miterlimit="10" stroke-width="6" stroke="#fff" fill="none" stroke-linejoin="round"><path d="M16.5 16h39v39h-39z"/><path d="M16.5 23h39v4h-39zm6 24h5v8h-5zM36 31l-2 3.5 2 3.5 2-3.5z"/><circle cx="25" cy="34.5" r="2.5"/><circle cx="46.5" cy="34.5" r="2.5"/></g><path fill="#3F3F3F" d="M16.5 16h39v39h-39z"/><path fill="#F1B31C" d="M16.5 23h39v4h-39z"/><path fill="#9B9B9A" d="M22.5 47h5v8h-5z"/><path fill="#F1B31C" d="M36 31l-2 3.5 2 3.5 2-3.5z"/><circle cx="25" cy="34.5" r="2.5" fill="#F1B31C"/><circle cx="46.5" cy="34.5" r="2.5" fill="#F1B31C"/><g fill="none" stroke="#000" stroke-linecap="round" stroke-linejoin="round" stroke-miterlimit="10" stroke-width="2"><path d="M16.5 16h39v39h-39z"/><path d="M16.5 23h39v4h-39zm6 24h5v8h-5zM36 31l-2 3.5 2 3.5 2-3.5z"/><circle cx="25" cy="34.5" r="2.5"/><circle cx="46.5" cy="34.5" r="2.5"/></g></svg>