<svg viewBox="0 0 72 72" xmlns="http://www.w3.org/2000/svg"><path fill="#b3b3b3" d="M68 4v64H4V4h64m4-4H0v72h72V0z"/><path fill="none" stroke="#00a5ff" stroke-miterlimit="10" stroke-width=".1" d="M12.923 10.958h46.154A1.923 1.923 0 0161 12.881v46.154a1.923 1.923 0 01-1.923 1.923H12.923A1.923 1.923 0 0111 59.035V12.881a1.923 1.923 0 011.923-1.923z"/><rect x="16" y="4" rx="2.254" width="40" height="64" fill="none" stroke="#00a5ff" stroke-miterlimit="10" stroke-width=".1"/><rect x="16" y="4" rx="2.254" width="40" height="64" transform="rotate(90 36 36)" fill="none" stroke="#00a5ff" stroke-miterlimit="10" stroke-width=".1"/><circle cx="36" cy="36" r="29" fill="none" stroke="#00a5ff" stroke-miterlimit="10" stroke-width=".1"/><g stroke-linecap="round" stroke-miterlimit="10" stroke-width="6" stroke="#fff" fill="none" stroke-linejoin="round"><path d="M36 28.36l16 14.196V65H20V42.556L36 28.36M36 26a.93.93 0 00-.62.237L18.329 41.365a.984.984 0 00-.328.737v23.925a.96.96 0 00.947.973h34.106a.96.96 0 00.947-.973V42.102a.984.984 0 00-.328-.737L36.619 26.237A.93.93 0 0036 26h0z"/><path d="M43 29v-8.508l-6.382-5.27a.974.974 0 00-1.236 0L29 20.491V29m7-15V6m-3.5 4h7M41 57.943c0-3.85-3.348-6.126-4.565-6.825a.86.86 0 00-.87 0c-1.217.7-4.565 2.974-4.565 6.825v7.09c0 .534.41.967.914.967h8.172c.505 0 .914-.433.914-.968v-7.089z"/><circle cx="36" cy="42" r="5"/></g><path fill="#D0CFCE" d="M44 36V20.492l-7.294-5.27a1.238 1.238 0 00-1.412 0L28 20.491V36"/><path fill="#FFF" d="M18.947 66L19 42.102l17.045-15.117 16.963 15.128L53 66z"/><path fill="#A57939" d="M41 57.943c0-3.85-3.348-6.126-4.565-6.825a.86.86 0 00-.87 0c-1.217.7-4.565 2.974-4.565 6.825v7.09c0 .534.41.967.914.967h8.172c.505 0 .914-.433.914-.968v-7.089z"/><circle cx="36" cy="42" r="5" fill="#92D3F5"/><path d="M36 28.36l16 14.196V65H20V42.556L36 28.36M36 26a.93.93 0 00-.62.237L18.329 41.365a.984.984 0 00-.328.737v23.925a.96.96 0 00.947.973h34.106a.96.96 0 00.947-.973V42.102a.984.984 0 00-.328-.737L36.619 26.237A.93.93 0 0036 26z"/><path fill="none" stroke="#000" stroke-linecap="round" stroke-linejoin="round" stroke-miterlimit="10" stroke-width="2" d="M43 29v-8.508l-6.382-5.27a.974.974 0 00-1.236 0L29 20.491V29"/><path fill="none" stroke="#000" stroke-linecap="round" stroke-miterlimit="10" stroke-width="2" d="M36 14V6m-3.5 4h7M41 57.943c0-3.85-3.348-6.126-4.565-6.825a.86.86 0 00-.87 0c-1.217.7-4.565 2.974-4.565 6.825v7.09c0 .534.41.967.914.967h8.172c.505 0 .914-.433.914-.968v-7.089z"/><circle cx="36" cy="42" r="5" fill="none" stroke="#000" stroke-miterlimit="10" stroke-width="2"/></svg>