<svg viewBox="0 0 72 72" xmlns="http://www.w3.org/2000/svg"><path fill="#b3b3b3" d="M68 4v64H4V4h64m4-4H0v72h72V0z"/><path fill="none" stroke="#00a5ff" stroke-miterlimit="10" stroke-width=".1" d="M12.92 10.96h46.15a1.923 1.923 0 011.923 1.923v46.15a1.922 1.922 0 01-1.922 1.922h-46.16a1.922 1.922 0 01-1.922-1.922v-46.15a1.923 1.923 0 011.923-1.923z"/><rect x="16" y="4" rx="2.254" ry="2.254" width="40" height="64" fill="none" stroke="#00a5ff" stroke-miterlimit="10" stroke-width=".1"/><rect x="16" y="4" rx="2.254" ry="2.254" width="40" height="64" transform="rotate(90 36 36)" fill="none" stroke="#00a5ff" stroke-miterlimit="10" stroke-width=".1"/><circle cx="36" cy="36" r="29" fill="none" stroke="#00a5ff" stroke-miterlimit="10" stroke-width=".1"/><g stroke-linecap="round" stroke-miterlimit="10" stroke-width="6" stroke="#fff" fill="none" stroke-linejoin="round"><path d="M22.86 21.4s3.659 6.388 13.14 6.32c9.481.068 13.14-6.32 13.14-6.32m0 29.2S45.481 44.212 36 44.28c-9.481-.068-13.14 6.32-13.14 6.32m17.46-6.44V27.85m-10 17v-17"/><path d="M12 12h48v48H12z"/></g><path fill="#b399c8" d="M12 12h48v48H12z"/><g fill="none" stroke="#000" stroke-linecap="round"><path stroke-miterlimit="10" stroke-width="3" d="M22.86 21.4s3.659 6.388 13.14 6.32c9.481.068 13.14-6.32 13.14-6.32m0 29.2S45.481 44.212 36 44.28c-9.481-.068-13.14 6.32-13.14 6.32"/><path stroke-linejoin="round" stroke-width="3" d="M40.32 44.16V27.85m-10 17v-17"/><path stroke-linejoin="round" stroke-width="2" d="M12 12h48v48H12z"/></g></svg>