<svg viewBox="0 0 72 72" xmlns="http://www.w3.org/2000/svg"><path fill="#b3b3b3" d="M68 4v64H4V4h64m4-4H0v72h72V0z"/><path fill="none" stroke="#00a5ff" stroke-miterlimit="10" stroke-width=".1" d="M12.92 10.96h46.15a1.923 1.923 0 011.923 1.923v46.15a1.922 1.922 0 01-1.922 1.922h-46.16a1.923 1.923 0 01-1.923-1.923v-46.15a1.923 1.923 0 011.923-1.923z"/><rect x="16" y="4" rx="2.254" ry="2.254" width="40" height="64" fill="none" stroke="#00a5ff" stroke-miterlimit="10" stroke-width=".1"/><rect x="16" y="4" rx="2.254" ry="2.254" width="40" height="64" transform="rotate(90 36 36)" fill="none" stroke="#00a5ff" stroke-miterlimit="10" stroke-width=".1"/><circle cx="36" cy="36" r="29" fill="none" stroke="#00a5ff" stroke-miterlimit="10" stroke-width=".1"/><g stroke-linecap="round" stroke-miterlimit="10" stroke-width="6" stroke="#fff" fill="none" stroke-linejoin="round"><path d="M12 12h48v48H12z"/><path d="M52.05 41.23s-.077-3.854-3.211-3.802c0 0-3.21-.022-3.21 3.622s-3.211 3.622-3.211 3.622c-3.133.05-3.21-3.763-3.21-3.763 0-3.683-3.21-3.66-3.21-3.66-3.134-.052-3.211 3.75-3.211 3.75 0 3.669-3.211 3.647-3.211 3.647-3.134.05-3.211-3.776-3.211-3.776 0-3.695-3.209-3.673-3.209-3.673-3.135-.05-3.211 3.802-3.211 3.802M52.05 31.36s-.077-3.854-3.211-3.802c0 0-3.21-.022-3.21 3.622s-3.211 3.622-3.211 3.622c-3.133.05-3.21-3.763-3.21-3.763 0-3.683-3.21-3.66-3.21-3.66-3.134-.052-3.211 3.75-3.211 3.75 0 3.669-3.211 3.647-3.211 3.647-3.134.05-3.211-3.776-3.211-3.776 0-3.695-3.209-3.673-3.209-3.673-3.135-.05-3.211 3.802-3.211 3.802"/></g><path fill="#b399c8" d="M12 12h48v47.83H12z"/><g fill="none" stroke="#000" stroke-linecap="round"><path stroke-linejoin="round" stroke-width="2" d="M12 12h48v48H12z"/><path stroke-miterlimit="10" stroke-width="3" d="M52.05 41.23s-.077-3.854-3.211-3.802c0 0-3.21-.022-3.21 3.622s-3.211 3.622-3.211 3.622c-3.133.05-3.21-3.763-3.21-3.763 0-3.683-3.21-3.66-3.21-3.66-3.134-.052-3.211 3.75-3.211 3.75 0 3.669-3.211 3.647-3.211 3.647-3.134.05-3.211-3.776-3.211-3.776 0-3.695-3.209-3.673-3.209-3.673-3.135-.05-3.211 3.802-3.211 3.802M52.05 31.36s-.077-3.854-3.211-3.802c0 0-3.21-.022-3.21 3.622s-3.211 3.622-3.211 3.622c-3.133.05-3.21-3.763-3.21-3.763 0-3.683-3.21-3.66-3.21-3.66-3.134-.052-3.211 3.75-3.211 3.75 0 3.669-3.211 3.647-3.211 3.647-3.134.05-3.211-3.776-3.211-3.776 0-3.695-3.209-3.673-3.209-3.673-3.135-.05-3.211 3.802-3.211 3.802"/></g></svg>