<svg viewBox="0 0 72 72" xmlns="http://www.w3.org/2000/svg"><path fill="#B3B3B3" d="M68 4v64H4V4h64m4-4H0v72h72V0z"/><path fill="none" stroke="#00A5FF" stroke-miterlimit="10" stroke-width=".1" d="M12.923 10.958h46.154c1.062 0 1.923.861 1.923 1.923h0v46.154a1.923 1.923 0 01-1.923 1.923H12.923A1.923 1.923 0 0111 59.035h0V12.881c0-1.062.861-1.923 1.923-1.923h0z"/><path fill="none" stroke="#00A5FF" stroke-miterlimit="10" stroke-width=".1" d="M18.254 4h35.492A2.254 2.254 0 0156 6.254v59.492A2.254 2.254 0 0153.746 68H18.254A2.254 2.254 0 0116 65.746V6.254A2.254 2.254 0 0118.254 4z"/><path fill="none" stroke="#00A5FF" stroke-miterlimit="10" stroke-width=".1" d="M68 18.254v35.492A2.254 2.254 0 0165.746 56H6.254A2.254 2.254 0 014 53.746V18.254A2.254 2.254 0 016.254 16h59.492A2.254 2.254 0 0168 18.254z"/><circle cx="36" cy="36" r="29" fill="none" stroke="#00A5FF" stroke-miterlimit="10" stroke-width=".1"/><g stroke-linecap="round" stroke-miterlimit="10" stroke-width="6" stroke="#fff" fill="none" stroke-linejoin="round"><circle cx="35.887" cy="36.056" r="23"/><path d="M45.702 44.862c-6.574 3.525-14.045 3.658-19.63 0m-7.189-14.398s-.953 8.55 6.86 7.918c2.62-.212 7.817-.65 7.867-8.342.005-.698-.007-1.6-.81-2.63-1.065-1.367-3.572-1.971-9.945-1.422 0 0-3.446-.1-3.972 4.476z"/><path d="M18.953 29.93l-.433-3.37 3.833-.528m30.388 4.432s.953 8.55-6.86 7.918c-2.62-.212-7.817-.65-7.868-8.342-.004-.698.008-1.6.811-2.63 1.065-1.367 3.572-1.971 9.945-1.422 0 0 3.446-.1 3.972 4.476zm-21.236-4.048s4.124 2.534 8.657 0m-6.626 4.902s2.202-3.751 4.536 0"/><path d="M52.664 29.933l.433-3.371-3.833-.528m-15.309 3.993s1.795-3.75 3.699 0"/></g><circle cx="36" cy="36" r="23" fill="#FCEA2B"/><path fill="#3F3F3F" d="M45.331 38.564c3.963 0 7.178-2.862 7.178-6.389 0-1.765.448-3.53-.852-4.685s-4.345-1.704-6.326-1.704c-2.357 0-5.143.143-6.451 1.704-.894 1.065-.727 3.253-.727 4.685 0 3.527 3.212 6.389 7.178 6.389zm-19.593 0c3.963 0 7.179-2.862 7.179-6.389 0-1.765.447-3.53-.852-4.685s-4.345-1.704-6.327-1.704c-2.356 0-5.142.143-6.451 1.704-.893 1.065-.727 3.253-.727 4.685 0 3.527 3.213 6.389 7.178 6.389z"/><g fill="none" stroke="#000" stroke-linecap="round" stroke-linejoin="round" stroke-miterlimit="10" stroke-width="2"><circle cx="35.887" cy="36.056" r="23"/><path d="M45.702 44.862c-6.574 3.525-14.045 3.658-19.63 0m-7.189-14.398s-.953 8.55 6.86 7.918c2.62-.212 7.817-.65 7.867-8.342.005-.698-.007-1.6-.81-2.63-1.065-1.367-3.572-1.971-9.945-1.422 0 0-3.446-.1-3.972 4.476z"/><path d="M18.953 29.93l-.433-3.37 3.833-.528m30.388 4.432s.953 8.55-6.86 7.918c-2.62-.212-7.817-.65-7.868-8.342-.004-.698.008-1.6.811-2.63 1.065-1.367 3.572-1.971 9.945-1.422 0 0 3.446-.1 3.972 4.476zm-21.236-4.048s4.124 2.534 8.657 0m-6.626 4.902s2.202-3.751 4.536 0"/><path d="M52.664 29.933l.433-3.371-3.833-.528m-15.309 3.993s1.795-3.75 3.699 0"/></g></svg>