<svg viewBox="0 0 72 72" xmlns="http://www.w3.org/2000/svg"><path fill="#B3B3B3" d="M68 4v64H4V4h64m4-4H0v72h72V0z"/><path fill="none" stroke="#00A5FF" stroke-miterlimit="10" stroke-width=".1" d="M12.923 10.958h46.154c1.062 0 1.923.861 1.923 1.923h0v46.154a1.923 1.923 0 01-1.923 1.923H12.923A1.923 1.923 0 0111 59.035h0V12.881c0-1.062.861-1.923 1.923-1.923h0z"/><path fill="none" stroke="#00A5FF" stroke-miterlimit="10" stroke-width=".1" d="M18.254 4h35.492A2.254 2.254 0 0156 6.254v59.492A2.254 2.254 0 0153.746 68H18.254A2.254 2.254 0 0116 65.746V6.254A2.254 2.254 0 0118.254 4z"/><path fill="none" stroke="#00A5FF" stroke-miterlimit="10" stroke-width=".1" d="M68 18.254v35.492A2.254 2.254 0 0165.746 56H6.254A2.254 2.254 0 014 53.746V18.254A2.254 2.254 0 016.254 16h59.492A2.254 2.254 0 0168 18.254z"/><circle cx="36" cy="36" r="29" fill="none" stroke="#00A5FF" stroke-miterlimit="10" stroke-width=".1"/><g stroke-linecap="round" stroke-miterlimit="10" stroke-width="6" stroke="#fff" fill="none" stroke-linejoin="round"><circle cx="36" cy="36" r="23"/><path d="M19.074 30.407s-.953 8.551 6.86 7.919c2.62-.212 7.817-.65 7.868-8.343.004-.698-.008-1.599-.811-2.63-1.065-1.367-3.572-1.97-9.945-1.422 0 0-3.446-.099-3.972 4.476z"/><path d="M19.145 29.874l-.433-3.371 3.833-.528m30.387 4.432s.953 8.551-6.86 7.919c-2.62-.212-7.817-.65-7.867-8.343-.005-.698.008-1.599.81-2.63 1.065-1.367 3.572-1.97 9.945-1.422 0 0 3.446-.099 3.972 4.476zM31.696 26.36s4.124 2.533 8.657 0m-6.551 4.901s2.128-3.75 4.383 0"/><path d="M52.855 29.877l.433-3.372-3.833-.527M34.146 29.97s1.796-3.75 3.7 0m-5.703 17.404c-.282 1.724-.434 5.488 3.857 4.64v-4.37M30 31a3.001 3.001 0 01-6 0c0-1.655 1.345-3 3-3s3 1.345 3 3m18 0a3.001 3.001 0 01-6 0c0-1.655 1.345-3 3-3s3 1.345 3 3m-8.143 16.374c.282 1.724.434 5.488-3.857 4.64v-4.37m9.815-2.838c-6.574 3.524-14.046 3.657-19.63 0"/></g><circle cx="36" cy="36" r="23" fill="#FCEA2B"/><path fill="#FFF" d="M32.143 47.374c-.282 1.724-.434 5.488 3.857 4.64v-4.37m3.857-.27c.282 1.724.434 5.488-3.857 4.64v-4.37"/><circle cx="36" cy="36" r="23" fill="none" stroke="#000" stroke-linecap="round" stroke-linejoin="round" stroke-miterlimit="10" stroke-width="2"/><path fill="none" stroke="#000" stroke-linecap="round" stroke-linejoin="round" stroke-miterlimit="10" stroke-width="2" d="M19.074 30.407s-.953 8.551 6.86 7.919c2.62-.212 7.817-.65 7.868-8.343.004-.698-.008-1.599-.811-2.63-1.065-1.367-3.572-1.97-9.945-1.422 0 0-3.446-.099-3.972 4.476z"/><path fill="none" stroke="#000" stroke-linecap="round" stroke-linejoin="round" stroke-miterlimit="10" stroke-width="2" d="M19.145 29.874l-.433-3.371 3.833-.528m30.387 4.432s.953 8.551-6.86 7.919c-2.62-.212-7.817-.65-7.867-8.343-.005-.698.008-1.599.81-2.63 1.065-1.367 3.572-1.97 9.945-1.422 0 0 3.446-.099 3.972 4.476zM31.696 26.36s4.124 2.533 8.657 0m-6.551 4.901s2.128-3.75 4.383 0"/><path fill="none" stroke="#000" stroke-linecap="round" stroke-linejoin="round" stroke-miterlimit="10" stroke-width="2" d="M52.855 29.877l.433-3.372-3.833-.527M34.146 29.97s1.796-3.75 3.7 0"/><path fill="none" stroke="#000" stroke-miterlimit="10" stroke-width="2" d="M32.143 47.374c-.282 1.724-.434 5.488 3.857 4.64v-4.37"/><path d="M30 31a3.001 3.001 0 01-6 0c0-1.655 1.345-3 3-3s3 1.345 3 3m18 0a3.001 3.001 0 01-6 0c0-1.655 1.345-3 3-3s3 1.345 3 3"/><path fill="none" stroke="#000" stroke-miterlimit="10" stroke-width="2" d="M39.857 47.374c.282 1.724.434 5.488-3.857 4.64v-4.37"/><path fill="none" stroke="#000" stroke-linecap="round" stroke-linejoin="round" stroke-miterlimit="10" stroke-width="2" d="M45.815 44.806c-6.574 3.524-14.046 3.657-19.63 0"/></svg>