<svg viewBox="0 0 72 72" xmlns="http://www.w3.org/2000/svg"><path fill="#b3b3b3" d="M68 4v64H4V4h64m4-4H0v72h72V0z"/><rect x="11" y="10.958" rx="1.923" ry="1.923" width="50" height="50" fill="none" stroke="#00a5ff" stroke-miterlimit="10" stroke-width=".1"/><rect x="16" y="4" rx="2.254" ry="2.254" width="40" height="64" fill="none" stroke="#00a5ff" stroke-miterlimit="10" stroke-width=".1"/><rect x="16" y="4" rx="2.254" ry="2.254" width="40" height="64" transform="rotate(90 36 36)" fill="none" stroke="#00a5ff" stroke-miterlimit="10" stroke-width=".1"/><circle cx="36" cy="36" r="29" fill="none" stroke="#00a5ff" stroke-miterlimit="10" stroke-width=".1"/><g stroke-linecap="round" stroke-miterlimit="10" stroke-width="6" stroke="#fff" fill="none" stroke-linejoin="round"><path d="M29.247 43.098l-7.27 6.7a14.216 14.216 0 01-3.3 2.1l-6.85 2.84a2.208 2.208 0 01-2.708-1.051 2.364 2.364 0 011.278-2.809l7.466-4.152 4.2-6.336"/><path d="M38.289 22.968a3.922 3.922 0 00-2.4-3.8c-1.6-.6-4-.4-6 3.6l-5.1 9.2a8.61 8.61 0 00-1 3.8h0a5.068 5.068 0 001.5 3.3l8.77 8.3a6.478 6.478 0 011.7 3.4l1.3 10.34c.2 1.1.803 2 2 2a1.831 1.831 0 001.7-2l-.2-13.34a9.254 9.254 0 00-1-3.7l-4.57-7.27a6.963 6.963 0 01-.883-4.043"/><path d="M45.229 31.088l-5.02-.99a4.763 4.763 0 01-3.25-2.069l-2.63-4.931m17.46-.03l-2.059 6.547c-.538 1.786.427 3.465 2.56 4.247 0 0 3.656 1.236 4.504 1.514 1.234.405 2.65 2.963 2.65 2.963"/><path d="M44.761 27.77a847.638 847.638 0 003.427-6.2 4.193 4.193 0 014.098-2.662c2.9 0 4.413 3.615 4.413 8.563 0 2.627-.97 3.485-2.26 3.485a3.66 3.66 0 01-1.83-.632m-.171 6.474l4.57 7.6a9.254 9.254 0 011 3.7l.2 13.01a1.831 1.831 0 01-1.7 2c-1.153 0-1.8-.9-2-2l-1.3-10.01a6.478 6.478 0 00-1.7-3.4L44 40.59c-1.409-1.367-2.404-3.342-1.746-7.031m5.183 10.286l-6.828 6.931m.081-9.9l-1.132 2.862m-6.079 11.7l-4.404 1.94a2.245 2.245 0 01-2.96-1.03 2.407 2.407 0 011.134-2.81l5.369-3.157m4.267-35.748a3.543 3.543 0 113.544 3.544m14.236-3.544a3.543 3.543 0 113.544 3.544"/></g><g fill="#fcea2b"><path d="M27.265 44.925l-5.288 4.873a14.216 14.216 0 01-3.3 2.1l-6.85 2.84a2.208 2.208 0 01-2.708-1.051 2.364 2.364 0 011.278-2.809l7.466-4.152 4.467-6.737zm11.024-21.957a3.922 3.922 0 00-2.4-3.8c-1.6-.6-4-.4-6 3.6l-5.1 9.2a8.61 8.61 0 00-1 3.8 5.068 5.068 0 001.5 3.3l8.77 8.3a6.478 6.478 0 011.7 3.4l1.3 10.34c.2 1.1.803 2 2 2a1.831 1.831 0 001.7-2l-.2-13.34a9.254 9.254 0 00-1-3.7l-4.57-7.27a6.963 6.963 0 01-.883-4.043zm14.149 13.83l4.57 7.6a9.254 9.254 0 011 3.7l.2 13.01a1.831 1.831 0 01-1.7 2c-1.153 0-1.8-.9-2-2l-1.3-10.01a6.478 6.478 0 00-1.7-3.4L44 40.59c-1.409-1.367-2.404-3.342-1.746-7.031l2.508-5.79a847.638 847.638 0 003.427-6.2 4.193 4.193 0 014.098-2.662c2.9 0 4.413 3.615 4.413 8.563 0 2.627-.966 3.485-2.293 3.485a3.746 3.746 0 01-1.798-.635z"/><circle cx="40.429" cy="14.633" r="3.543"/><circle cx="58.209" cy="14.633" r="3.543"/></g><path d="M33.479 55.438l-4.404 1.94a2.245 2.245 0 01-2.96-1.03 2.407 2.407 0 011.134-2.81l5.369-3.157zm6.08-11.7l1.131-2.862 4.795 4.95-4.877 4.95a14.71 14.71 0 00-1.05-7.038z" fill="#f1b31c"/><g fill="none" stroke="#000" stroke-linecap="round" stroke-linejoin="round" stroke-width="2"><path d="M29.247 43.098l-7.27 6.7a14.216 14.216 0 01-3.3 2.1l-6.85 2.84a2.208 2.208 0 01-2.708-1.051 2.364 2.364 0 011.278-2.809l7.466-4.152 4.2-6.336"/><path d="M38.289 22.968a3.922 3.922 0 00-2.4-3.8c-1.6-.6-4-.4-6 3.6l-5.1 9.2a8.61 8.61 0 00-1 3.8h0a5.068 5.068 0 001.5 3.3l8.77 8.3a6.478 6.478 0 011.7 3.4l1.3 10.34c.2 1.1.803 2 2 2a1.831 1.831 0 001.7-2l-.2-13.34a9.254 9.254 0 00-1-3.7l-4.57-7.27a6.963 6.963 0 01-.883-4.043"/><path d="M45.229 31.088l-5.02-.99a4.763 4.763 0 01-3.25-2.069l-2.63-4.931m17.46-.03l-2.059 6.547c-.538 1.786.427 3.465 2.56 4.247 0 0 3.656 1.236 4.504 1.514 1.234.405 2.65 2.963 2.65 2.963"/><path d="M44.761 27.77a847.638 847.638 0 003.427-6.2 4.193 4.193 0 014.098-2.662c2.9 0 4.413 3.615 4.413 8.563 0 2.627-.97 3.485-2.26 3.485a3.66 3.66 0 01-1.83-.632m-.171 6.474l4.57 7.6a9.254 9.254 0 011 3.7l.2 13.01a1.831 1.831 0 01-1.7 2c-1.153 0-1.8-.9-2-2l-1.3-10.01a6.478 6.478 0 00-1.7-3.4L44 40.59c-1.409-1.367-2.404-3.342-1.746-7.031m5.183 10.286l-6.828 6.931m.081-9.9l-1.132 2.862m-6.079 11.7l-4.404 1.94a2.245 2.245 0 01-2.96-1.03 2.407 2.407 0 011.134-2.81l5.369-3.157m4.267-35.748a3.543 3.543 0 113.544 3.544m14.236-3.544a3.543 3.543 0 113.544 3.544"/></g></svg>