<svg viewBox="0 0 72 72" xmlns="http://www.w3.org/2000/svg"><path fill="#b3b3b3" d="M68 4v64H4V4h64m4-4H0v72h72V0z"/><rect x="11" y="10.958" rx="1.923" ry="1.923" width="50" height="50" fill="none" stroke="#00a5ff" stroke-miterlimit="10" stroke-width=".1"/><rect x="16" y="4" rx="2.254" ry="2.254" width="40" height="64" fill="none" stroke="#00a5ff" stroke-miterlimit="10" stroke-width=".1"/><rect x="16" y="4" rx="2.254" ry="2.254" width="40" height="64" transform="rotate(90 36 36)" fill="none" stroke="#00a5ff" stroke-miterlimit="10" stroke-width=".1"/><circle cx="36" cy="36" r="29" fill="none" stroke="#00a5ff" stroke-miterlimit="10" stroke-width=".1"/><g stroke-linecap="round" stroke-miterlimit="10" stroke-width="6" stroke="#fff" fill="none" stroke-linejoin="round"><path d="M38.678 29.079l-4.651-1.012M27.741 38.49l-1.233 6.236a8.604 8.604 0 01-1.192 3.066l-2.682 5.688a2.03 2.03 0 01-2.436.834c-.72-.363-.829-1.494-.387-2.418l2.614-6.949.506-4.098"/><path d="M28.542 33.555l5.558.96a2.343 2.343 0 011.872 1.873l1.87 8.96a1.724 1.724 0 01-1.03 2.267 2.082 2.082 0 01-2.27-1.502l-2.39-7.82-5.17-.511c-4.472-.402-6.063-1.671-5.186-6.156.154-.791 2.562-11.038 2.562-11.038a13.847 13.847 0 013.629-.998c1.47 0 3.163 1.123 2.717 3.768-.173 1.023-1.176 6.417-1.176 6.417"/><path d="M52.788 45.107H41.915v5.621H30.481v5.621H19.242v4.844m-2.446-29.89s1.448-6.025 1.806-7.38a2.31 2.31 0 011.428-1.666l4.327-1.669m3.907-7.182a3.402 3.402 0 113.401 3.401"/></g><path fill="#9b9b9a" d="M53.118 45.107H41.915v5.621H30.481v5.621H19.242v5.504h33.876V45.107z"/><g fill="#fcea2b"><path d="M28.542 33.555l5.558.96a2.343 2.343 0 011.872 1.873l1.87 8.96a1.724 1.724 0 01-1.03 2.267 2.082 2.082 0 01-2.27-1.502l-2.39-7.82-5.17-.511c-4.472-.402-6.063-1.671-5.186-6.156.154-.791 2.562-11.038 2.562-11.038a13.847 13.847 0 013.629-.998c1.47 0 3.163 1.123 2.717 3.768-.173 1.023-1.176 6.417-1.176 6.417z"/><path d="M27.056 40.94l-.548 3.786a8.604 8.604 0 01-1.192 3.066l-2.682 5.688a2.03 2.03 0 01-2.436.834c-.72-.363-.829-1.494-.387-2.418l2.614-6.949.506-4.427z"/><circle cx="31.665" cy="13.406" r="3.402"/></g><g fill="none" stroke="#000" stroke-linecap="round" stroke-linejoin="round" stroke-width="2"><path d="M38.678 29.079l-4.651-1.012M27.741 38.49l-1.233 6.236a8.604 8.604 0 01-1.192 3.066l-2.682 5.688a2.03 2.03 0 01-2.436.834c-.72-.363-.829-1.494-.387-2.418l2.614-6.949.506-4.098"/><path d="M28.542 33.555l5.558.96a2.343 2.343 0 011.872 1.873l1.87 8.96a1.724 1.724 0 01-1.03 2.267 2.082 2.082 0 01-2.27-1.502l-2.39-7.82-5.17-.511c-4.472-.402-6.063-1.671-5.186-6.156.154-.791 2.562-11.038 2.562-11.038a13.847 13.847 0 013.629-.998c1.47 0 3.163 1.123 2.717 3.768-.173 1.023-1.176 6.417-1.176 6.417"/><path d="M52.788 45.107H41.915v5.621H30.481v5.621H19.242v4.844m-2.446-29.89s1.448-6.025 1.806-7.38a2.31 2.31 0 011.428-1.666l4.327-1.669m3.907-7.182a3.402 3.402 0 113.401 3.401"/></g></svg>