<svg viewBox="0 0 72 72" xmlns="http://www.w3.org/2000/svg"><path fill="#b3b3b3" d="M68 4v64H4V4h64m4-4H0v72h72V0z"/><path fill="none" stroke="#00a5ff" stroke-miterlimit="10" stroke-width=".1" d="M12.923 10.958h46.154A1.923 1.923 0 0161 12.881v46.154a1.923 1.923 0 01-1.923 1.923H12.923A1.923 1.923 0 0111 59.035V12.881a1.923 1.923 0 011.923-1.923z"/><rect x="16" y="4" rx="2.254" ry="2.254" width="40" height="64" fill="none" stroke="#00a5ff" stroke-miterlimit="10" stroke-width=".1"/><rect x="16" y="4" rx="2.254" ry="2.254" width="40" height="64" transform="rotate(90 36 36)" fill="none" stroke="#00a5ff" stroke-miterlimit="10" stroke-width=".1"/><circle cx="36" cy="36" r="29" fill="none" stroke="#00a5ff" stroke-miterlimit="10" stroke-width=".1"/><path d="M35.867 16.379c-7.717 0-15.637 1.827-19.97 4.806v16.314c0 12.523 11.982 18.615 18.345 22.406a3.022 3.022 0 003.25 0c6.633-3.994 19.021-9.41 19.021-22.406V21.185c-4.468-2.979-12.253-4.806-20.646-4.806zm8.161 22.16l.948 2.166a.733.733 0 01-.406 1.083l-2.234 1.015a2.054 2.054 0 00-1.151 1.016l-.88 2.301a.884.884 0 01-1.084.474l-2.301-1.015a2.779 2.779 0 00-1.49 0l-2.166.948a.853.853 0 01-1.083-.406l-1.015-2.234a2.921 2.921 0 00-1.083-1.15l-2.166-.88a.809.809 0 01-.542-1.084l1.016-2.301a1.756 1.756 0 00-.136-1.422l-.88-2.234a.926.926 0 01.474-1.15l2.235-1.016a2.095 2.095 0 001.15-1.016l.88-2.301a.723.723 0 011.016-.406l2.301 1.015a2.071 2.071 0 001.557-.067l2.166-.948a.816.816 0 011.084.406l1.015 2.302c.203.406.474 1.015.947 1.15l2.302.813a.859.859 0 01.541 1.083l-1.015 2.301a2.065 2.065 0 000 1.557z" stroke-linecap="round" stroke-miterlimit="10" stroke-width="6" stroke="#fff" fill="none" stroke-linejoin="round"/><path fill="#5c9e31" d="M35.867 16.379c-7.717 0-15.637 1.827-19.97 4.806v16.314c0 12.523 11.982 18.615 18.345 22.406a3.022 3.022 0 003.25 0c6.633-3.994 19.021-9.41 19.021-22.406V21.185c-4.468-2.979-12.253-4.806-20.646-4.806zm8.161 22.16l.948 2.166a.733.733 0 01-.406 1.083l-2.234 1.015a2.054 2.054 0 00-1.151 1.016l-.88 2.301a.884.884 0 01-1.084.474l-2.301-1.015a2.779 2.779 0 00-1.49 0l-2.166.948a.853.853 0 01-1.083-.406l-1.015-2.234a2.921 2.921 0 00-1.083-1.15l-2.166-.88a.809.809 0 01-.542-1.084l1.016-2.301a1.756 1.756 0 00-.136-1.422l-.88-2.234a.926.926 0 01.474-1.15l2.235-1.016a2.095 2.095 0 001.15-1.016l.88-2.301a.723.723 0 011.016-.406l2.301 1.015a2.071 2.071 0 001.557-.067l2.166-.948a.816.816 0 011.084.406l1.015 2.302c.203.406.474 1.015.947 1.15l2.302.813a.859.859 0 01.541 1.083l-1.015 2.301a2.065 2.065 0 000 1.557z"/><path fill="#b1cc33" d="M35.867 16.379c-.641 0-1.283.017-1.925.042 4.767.172 13.627 2.135 17.57 4.764v16.314c0 12.758-10.933 18.21-17.646 22.184l.376.222a3.022 3.022 0 003.25 0c6.633-3.994 19.02-9.41 19.02-22.406V21.185c-4.467-2.979-12.252-4.806-20.645-4.806z"/><g><path fill="none" stroke="#000" stroke-width="2" d="M35.867 16.379c-7.717 0-15.637 1.827-19.97 4.806v16.314c0 12.523 11.982 18.615 18.345 22.406a3.022 3.022 0 003.25 0c6.633-3.994 19.021-9.41 19.021-22.406V21.185c-4.468-2.979-12.253-4.806-20.646-4.806zm8.161 22.16l.948 2.166a.733.733 0 01-.406 1.083l-2.234 1.015a2.054 2.054 0 00-1.151 1.016l-.88 2.301a.884.884 0 01-1.084.474l-2.301-1.015a2.779 2.779 0 00-1.49 0l-2.166.948a.853.853 0 01-1.083-.406l-1.015-2.234a2.921 2.921 0 00-1.083-1.15l-2.166-.88a.809.809 0 01-.542-1.084l1.016-2.301a1.756 1.756 0 00-.136-1.422l-.88-2.234a.926.926 0 01.474-1.15l2.235-1.016a2.095 2.095 0 001.15-1.016l.88-2.301a.723.723 0 011.016-.406l2.301 1.015a2.071 2.071 0 001.557-.067l2.166-.948a.816.816 0 011.084.406l1.015 2.302c.203.406.474 1.015.947 1.15l2.302.813a.859.859 0 01.541 1.083l-1.015 2.301a2.065 2.065 0 000 1.557z"/></g></svg>