<svg viewBox="0 0 72 72" xmlns="http://www.w3.org/2000/svg"><path fill="#b3b3b3" d="M68 4v64H4V4h64m4-4H0v72h72V0z"/><path fill="none" stroke="#00a5ff" stroke-miterlimit="10" stroke-width=".1" d="M12.923 10.958h46.154A1.923 1.923 0 0161 12.881v46.154a1.923 1.923 0 01-1.923 1.923H12.923A1.923 1.923 0 0111 59.035V12.881a1.923 1.923 0 011.923-1.923z"/><rect x="16" y="4" rx="2.254" ry="2.254" width="40" height="64" fill="none" stroke="#00a5ff" stroke-miterlimit="10" stroke-width=".1"/><rect x="16" y="4" rx="2.254" ry="2.254" width="40" height="64" transform="rotate(90 36 36)" fill="none" stroke="#00a5ff" stroke-miterlimit="10" stroke-width=".1"/><circle cx="36" cy="36" r="29" fill="none" stroke="#00a5ff" stroke-miterlimit="10" stroke-width=".1"/><path d="M13.046 61.432V45.399M8.831 64.852h54.036m0-3.42H8.831m11.16-28.129h-7.53l-3.63 7.476h54.036l-3.629-7.476h-30.41m29.824 28.129V45.399m-32.2 9.715V52.33m-3.918 2.784V52.33m-4.178-6.318h12.273v15.42H18.356zM27.917 9.34a13.416 13.416 0 016.933-2.148c4.542 0 8.438 3.937 14.334 3.937.869 0 1.304-.39 2.181-.39.728 0 1.018.52 1.018 1.438v13.605c0 .717-.783 1.531-3.081 1.531-6.91 0-10.806-3.908-14.815-3.908a11.739 11.739 0 00-6.649 2.219v-4.267m-3.259-14.01v33.432m11.348 4.091h6.467v12.562h-6.467zm11.086 0h6.467v12.562h-6.467z" stroke-linecap="round" stroke-miterlimit="10" stroke-width="6" stroke="#fff" fill="none" stroke-linejoin="round"/><path fill="#92d3f5" d="M13.046 40.779h45.606v20.653H13.046z"/><path fill="#a57939" d="M18.355 46.012h12.273v15.42H18.355z"/><path fill="#fff" d="M35.927 44.87h6.467v12.562h-6.467zm11.086 0h6.467v12.562h-6.467z"/><path fill="#d0cfce" d="M27.917 18.74a13.522 13.522 0 016.933-1.817c4.542 0 8.438 6.247 14.334 6.247.869 0 1.304-.392 2.181-.392.728 0 1.018.52 1.018 1.439v1.565c0 .717-.783 1.531-3.081 1.531-6.91 0-10.806-3.908-14.815-3.908a11.739 11.739 0 00-6.649 2.219v-4.267zM8.831 61.432h54.036v3.419H8.831z"/><g fill="none" stroke="#000" stroke-linecap="round" stroke-width="2"><path stroke-linejoin="round" d="M13.046 61.432V45.399M8.831 64.852h54.036m0-3.42H8.831m11.16-28.129h-7.53l-3.63 7.476h54.036l-3.629-7.476h-30.41m29.824 28.129V45.399m-32.2 9.715V52.33m-3.918 2.784V52.33m-4.178-6.318h12.273v15.42H18.356zM27.917 9.34a13.416 13.416 0 016.933-2.148c4.542 0 8.438 3.937 14.334 3.937.869 0 1.304-.39 2.181-.39.728 0 1.018.52 1.018 1.438v13.605c0 .717-.783 1.531-3.081 1.531-6.91 0-10.806-3.908-14.815-3.908a11.739 11.739 0 00-6.649 2.219v-4.267"/><path stroke-miterlimit="10" d="M24.579 7.347v33.432"/><path stroke-linejoin="round" d="M35.927 44.87h6.467v12.562h-6.467zm11.086 0h6.467v12.562h-6.467z"/></g></svg>