<svg viewBox="0 0 72 72" xmlns="http://www.w3.org/2000/svg"><path fill="#b3b3b3" d="M68 4v64H4V4h64m4-4H0v72h72V0z"/><path fill="none" stroke="#00a5ff" stroke-miterlimit="10" stroke-width=".1" d="M12.923 10.958h46.154A1.923 1.923 0 0161 12.881v46.154a1.923 1.923 0 01-1.923 1.923H12.923A1.923 1.923 0 0111 59.035V12.881a1.923 1.923 0 011.923-1.923z"/><rect x="16" y="4" rx="2.254" ry="2.254" width="40" height="64" fill="none" stroke="#00a5ff" stroke-miterlimit="10" stroke-width=".1"/><rect x="16" y="4" rx="2.254" ry="2.254" width="40" height="64" transform="rotate(90 36 36)" fill="none" stroke="#00a5ff" stroke-miterlimit="10" stroke-width=".1"/><circle cx="36" cy="36" r="29" fill="none" stroke="#00a5ff" stroke-miterlimit="10" stroke-width=".1"/><g stroke-linecap="round" stroke-miterlimit="10" stroke-width="6" stroke="#fff" fill="none" stroke-linejoin="round"><path d="M27.31 10.34a13.416 13.416 0 016.933-2.147c4.542 0 8.438 3.937 14.334 3.937.87 0 1.304-.391 2.182-.391.727 0 1.017.52 1.017 1.438v13.605c0 .717-.783 1.531-3.081 1.531-6.91 0-10.806-3.908-14.815-3.908a11.739 11.739 0 00-6.649 2.219v-4.267m-3.259-14.01v30.686m39.353 26.819H8.314m3-3.513h49.011M11.784 43.15h48.071v3.512H11.784zM58.95 62.339H12.689m1-3.512H57.95M17.383 46.663h5.429v12.164h-5.429zm15.722 0h5.429v12.164h-5.429zm15.722 0h5.429v12.164h-5.429z"/><path d="M55.161 43.15L35.82 33.04 16.478 43.15h38.683z"/></g><path fill="#3f3f3f" d="M18.703 46.663h34.234v12.164H18.703z"/><path fill="#d0cfce" d="M27.31 19.74a13.522 13.522 0 016.933-1.817c4.542 0 8.438 6.247 14.334 6.247.87 0 1.304-.392 2.182-.392.727 0 1.017.52 1.017 1.439v1.565c0 .717-.783 1.531-3.081 1.531-6.91 0-10.806-3.908-14.815-3.908a11.739 11.739 0 00-6.649 2.219v-4.267zM10.314 62.339h51.01v3.512h-51.01zm2.375-3.512h46.262v3.512H12.689z"/><path fill="#9b9b9a" d="M46.15 41.118l-10.33-5.055-10.331 5.055H46.15z"/><path fill="#d0cfce" d="M11.784 43.15h48.071v3.512H11.784z"/><path fill="#fff" d="M17.383 46.663h5.429v12.164h-5.429zm15.722 0h5.429v12.164h-5.429zm15.722 0h5.429v12.164h-5.429z"/><g fill="none" stroke="#000" stroke-linecap="round" stroke-width="2"><path stroke-linejoin="round" d="M27.31 10.34a13.416 13.416 0 016.933-2.147c4.542 0 8.438 3.937 14.334 3.937.87 0 1.304-.391 2.182-.391.727 0 1.017.52 1.017 1.438v13.605c0 .717-.783 1.531-3.081 1.531-6.91 0-10.806-3.908-14.815-3.908a11.739 11.739 0 00-6.649 2.219v-4.267"/><path stroke-miterlimit="10" d="M23.972 8.347v30.686"/><path stroke-linejoin="round" d="M63.325 65.852H8.314m3-3.513h49.011M11.784 43.15h48.071v3.512H11.784zM58.95 62.339H12.689m1-3.512H57.95M17.383 46.663h5.429v12.164h-5.429zm15.722 0h5.429v12.164h-5.429zm15.722 0h5.429v12.164h-5.429zm6.334-3.513L35.82 33.04 16.478 43.15h38.683z"/></g></svg>