<svg viewBox="0 0 72 72" xmlns="http://www.w3.org/2000/svg"><path fill="#b3b3b3" d="M68 4v64H4V4h64m4-4H0v72h72V0z"/><path fill="none" stroke="#00a5ff" stroke-miterlimit="10" stroke-width=".1" d="M12.923 10.958h46.154A1.923 1.923 0 0161 12.881v46.154a1.923 1.923 0 01-1.923 1.923H12.923A1.923 1.923 0 0111 59.035V12.881a1.923 1.923 0 011.923-1.923z"/><rect x="16" y="4" rx="2.254" ry="2.254" width="40" height="64" fill="none" stroke="#00a5ff" stroke-miterlimit="10" stroke-width=".1"/><rect x="16" y="4" rx="2.254" ry="2.254" width="40" height="64" transform="rotate(90 36 36)" fill="none" stroke="#00a5ff" stroke-miterlimit="10" stroke-width=".1"/><circle cx="36" cy="36" r="29" fill="none" stroke="#00a5ff" stroke-miterlimit="10" stroke-width=".1"/><g stroke-linecap="round" stroke-miterlimit="10" stroke-width="6" stroke="#fff" fill="none" stroke-linejoin="round"><path d="M24.283 51.188h-7.58a2.14 2.14 0 00-2.122 2.121h0a2.14 2.14 0 002.122 2.122h7.58m0-14.851h-7.58a2.14 2.14 0 00-2.122 2.12h0a2.14 2.14 0 002.122 2.122h7.58m.064 15.109h7.394a11.701 11.701 0 000-23.402h-7.394z"/><path d="M42.735 52.473l3.986-1.093v-6.365l-3.986-1.028m13.194 6.815h-9.208v-5.208h9.208m-2.261-28.383V12.51a.617.617 0 00-.653-.653h-34.81a.617.617 0 00-.654.653v16.327a.617.617 0 00.654.653h34.81a.617.617 0 00.653-.653v-4.375H57v-7.25z"/><path d="M21.441 15.157h5.584v11.096h-5.584z"/></g><path fill="#fff" d="M53.668 17.211V12.51a.617.617 0 00-.653-.653h-34.81a.617.617 0 00-.654.653v16.327a.617.617 0 00.654.653h34.81a.617.617 0 00.653-.653v-4.375H57v-7.25z"/><path fill="#9b9b9a" d="M43.285 52.73L47 52v-7l-3.715-1.142z"/><path fill="#fcea2b" d="M24.926 51.188a.607.607 0 01-.643.643h-7.58a1.479 1.479 0 000 2.957h7.58a.607.607 0 01.643.643m0-14.851a.607.607 0 01-.643.642h-7.58a1.479 1.479 0 000 2.958h7.58a.607.607 0 01.643.642"/><path fill="#9b9b9a" d="M24.99 44.8a152.946 152.946 0 0118.01.065c-2-4.865-5-7.694-11.323-7.694H24.99z"/><path fill="#d0cfce" d="M56.572 45.594a.607.607 0 01-.643.643h-8.565v3.922h8.565a.607.607 0 01.643.643z"/><path fill="#b1cc33" d="M21.767 25.927h4.931V15.484h-4.93z"/><g fill="none" stroke="#000" stroke-linecap="round" stroke-width="2"><path stroke-miterlimit="10" d="M24.283 51.188h-7.58a2.14 2.14 0 00-2.122 2.121h0a2.14 2.14 0 002.122 2.122h7.58m0-14.851h-7.58a2.14 2.14 0 00-2.122 2.12h0a2.14 2.14 0 002.122 2.122h7.58"/><path stroke-linejoin="round" d="M24.347 59.931h7.394a11.701 11.701 0 000-23.402h-7.394z"/><path stroke-linejoin="round" d="M42.735 52.473l3.986-1.093v-6.365l-3.986-1.028m13.194 6.815h-9.208v-5.208h9.208m-2.261-28.383V12.51a.617.617 0 00-.653-.653h-34.81a.617.617 0 00-.654.653v16.327a.617.617 0 00.654.653h34.81a.617.617 0 00.653-.653v-4.375H57v-7.25z"/><path stroke-linejoin="round" d="M21.441 15.157h5.584v11.096h-5.584z"/></g></svg>