<svg viewBox="0 0 72 72" xmlns="http://www.w3.org/2000/svg"><path fill="#b3b3b3" d="M68 4v64H4V4h64m4-4H0v72h72V0z"/><path fill="none" stroke="#00a5ff" stroke-miterlimit="10" stroke-width=".1" d="M12.923 10.958h46.154A1.923 1.923 0 0161 12.881v46.154a1.923 1.923 0 01-1.923 1.923H12.923A1.923 1.923 0 0111 59.035V12.881a1.923 1.923 0 011.923-1.923z"/><rect x="16" y="4" rx="2.254" ry="2.254" width="40" height="64" fill="none" stroke="#00a5ff" stroke-miterlimit="10" stroke-width=".1"/><rect x="16" y="4" rx="2.254" ry="2.254" width="40" height="64" transform="rotate(90 36 36)" fill="none" stroke="#00a5ff" stroke-miterlimit="10" stroke-width=".1"/><circle cx="36" cy="36" r="29" fill="none" stroke="#00a5ff" stroke-miterlimit="10" stroke-width=".1"/><g stroke-linecap="round" stroke-miterlimit="10" stroke-width="6" stroke="#fff" fill="none" stroke-linejoin="round"><path d="M8.244 62.609l13.053-19.24 9.749-7.234 6.263 1.473 5.316-1.473 5.128 6.411 8.347 5.825 6.356 14.388"/><path d="M25.214 40.46l1.654 3.532-1.614 6.284.916 7.313m21.583-15.043l-3.504 6.08 3.115 2.505-1.578 4.934M32.251 22.279a5.643 5.643 0 108.947 6.69 7.787 7.787 0 002.752.507M40.738 8.137a4.86 4.86 0 00-4.325 2.665 6.57 6.57 0 00-10.83 3.644 5.058 5.058 0 00-7.94 4.162m26.307-4.774a7.821 7.821 0 017.822 7.821m-.014-.409a4.883 4.883 0 016.19 4.7"/><circle cx="64.01" cy="11.748" r="1.48"/><circle cx="58.679" cy="18.6" r="1.48"/><circle cx="46.448" cy="18.6" r="1.48"/><circle cx="64.34" cy="26.451" r="1.48"/><circle cx="58.679" cy="32.963" r="1.48"/><circle cx="64.01" cy="40.145" r="1.48"/><circle cx="58.679" cy="45.996" r="1.48"/><circle cx="64.01" cy="52.518" r="1.48"/><circle cx="57.359" cy="60.359" r="1.48"/><circle cx="52.916" cy="11.748" r="1.48"/><circle cx="41.514" cy="11.748" r="1.48"/><circle cx="52.916" cy="26.451" r="1.48"/><circle cx="47.448" cy="32.963" r="1.48"/><circle cx="52.916" cy="40.145" r="1.48"/><circle cx="52.256" cy="52.518" r="1.48"/><circle cx="48.108" cy="60.359" r="1.48"/><circle cx="41.514" cy="40.145" r="1.48"/></g><path fill="#9b9b9a" d="M7.785 63.268l13.512-19.899 9.749-7.234 6.263 1.473 5.316-1.473 5.128 6.411 8.347 5.825 6.556 14.897H7.785z"/><circle cx="22.706" cy="18.608" r="5.064" fill="#3f3f3f"/><circle cx="40.738" cy="13.016" r="4.879" fill="#9b9b9a"/><circle cx="53.07" cy="25.946" r="4.879" fill="#9b9b9a"/><circle cx="32.039" cy="15.709" r="6.581" fill="#9b9b9a"/><circle cx="43.951" cy="21.655" r="7.821" fill="#9b9b9a"/><circle cx="36.245" cy="26.265" r="5.643" fill="#3f3f3f"/><path fill="#d0cfce" d="M62.656 63.268H43.483l3.881-12.137-3.115-2.505 3.504-6.08 8.347 5.825 6.556 14.897z"/><g><path fill="none" stroke="#000" stroke-linecap="round" stroke-miterlimit="10" stroke-width="2" d="M8.244 62.609l13.053-19.24 9.749-7.234 6.263 1.473 5.316-1.473 5.128 6.411 8.347 5.825 6.356 14.388"/><path fill="none" stroke="#000" stroke-linecap="round" stroke-linejoin="round" stroke-width="2" d="M25.214 40.46l1.654 3.532-1.614 6.284.916 7.313m21.583-15.043l-3.504 6.08 3.115 2.505-1.578 4.934M32.251 22.279a5.643 5.643 0 108.947 6.69 7.787 7.787 0 002.752.507M40.738 8.137a4.86 4.86 0 00-4.325 2.665 6.57 6.57 0 00-10.83 3.644 5.058 5.058 0 00-7.94 4.162m26.307-4.774a7.821 7.821 0 017.822 7.821m-.014-.409a4.883 4.883 0 016.19 4.7"/><circle cx="64.01" cy="11.748" r="1.48"/><circle cx="58.679" cy="18.6" r="1.48"/><circle cx="46.448" cy="18.6" r="1.48"/><circle cx="64.34" cy="26.451" r="1.48"/><circle cx="58.679" cy="32.963" r="1.48"/><circle cx="64.01" cy="40.145" r="1.48"/><circle cx="58.679" cy="45.996" r="1.48"/><circle cx="64.01" cy="52.518" r="1.48"/><circle cx="57.359" cy="60.359" r="1.48"/><circle cx="52.916" cy="11.748" r="1.48"/><circle cx="41.514" cy="11.748" r="1.48"/><circle cx="52.916" cy="26.451" r="1.48"/><circle cx="47.448" cy="32.963" r="1.48"/><circle cx="52.916" cy="40.145" r="1.48"/><circle cx="52.256" cy="52.518" r="1.48"/><circle cx="48.108" cy="60.359" r="1.48"/><circle cx="41.514" cy="40.145" r="1.48"/></g></svg>