<svg viewBox="0 0 72 72" xmlns="http://www.w3.org/2000/svg"><path fill="#b3b3b3" d="M68 4v64H4V4h64m4-4H0v72h72V0z"/><path fill="none" stroke="#00a5ff" stroke-miterlimit="10" stroke-width=".1" d="M12.923 10.958h46.154A1.923 1.923 0 0161 12.881v46.154a1.923 1.923 0 01-1.923 1.923H12.923A1.923 1.923 0 0111 59.035V12.881a1.923 1.923 0 011.923-1.923z"/><rect x="16" y="4" rx="2.254" ry="2.254" width="40" height="64" fill="none" stroke="#00a5ff" stroke-miterlimit="10" stroke-width=".1"/><rect x="16" y="4" rx="2.254" ry="2.254" width="40" height="64" transform="rotate(90 36 36)" fill="none" stroke="#00a5ff" stroke-miterlimit="10" stroke-width=".1"/><circle cx="36" cy="36" r="29" fill="none" stroke="#00a5ff" stroke-miterlimit="10" stroke-width=".1"/><path d="M47.822 40.572v22.014a.89.89 0 01-.932.86h-9.536a1.544 1.544 0 01-1.291-.86l-5.64-15.704h-.541l.66 15.703a.89.89 0 01-.933.861h-4.876a.829.829 0 01-.86-.86V40.572a.829.829 0 01.86-.86h9.537a1.66 1.66 0 011.362.86l5.39 15.918h.462l-.33-15.918a.829.829 0 01.86-.86h4.876a.89.89 0 01.932.86zm1.331-8.223v1.992l-13.305-7.649-13.306 7.649v-1.992L35.848 8.288l13.305 24.061z" stroke-linecap="round" stroke-miterlimit="10" stroke-width="6" stroke="#fff" fill="none" stroke-linejoin="round"/><path fill="#ea5a47" d="M49.153 32.349v1.992l-13.305-7.649-13.306 7.649v-1.992L35.848 8.288l13.305 24.061z"/><path fill="#d22f27" d="M22.542 32.349l13.166-11.202 13.445 11.202v1.992l-13.305-7.649-13.306 7.649v-1.992z"/><path fill="#9b9b9a" d="M47.822 40.572v22.014a.89.89 0 01-.932.86h-9.536a1.544 1.544 0 01-1.291-.86L30.54 46.882v15.704a.89.89 0 01-.932.86h-4.876a.829.829 0 01-.86-.86V40.572a.829.829 0 01.86-.86h9.537a1.66 1.66 0 011.362.86l5.522 15.918V40.573a.829.829 0 01.86-.86h4.876a.89.89 0 01.932.86z"/><g fill="none" stroke="#000" stroke-linecap="round" stroke-width="2"><path d="M47.822 40.572v22.014a.89.89 0 01-.932.86h-9.536a1.544 1.544 0 01-1.291-.86l-5.64-15.704h-.541l.66 15.703a.89.89 0 01-.933.861h-4.876a.829.829 0 01-.86-.86V40.572a.829.829 0 01.86-.86h9.537a1.66 1.66 0 011.362.86l5.39 15.918h.462l-.33-15.918a.829.829 0 01.86-.86h4.876a.89.89 0 01.932.86zm1.331-8.223v1.992l-13.305-7.649-13.306 7.649v-1.992L35.848 8.288l13.305 24.061z"/></g></svg>