<svg viewBox="0 0 72 72" xmlns="http://www.w3.org/2000/svg"><path fill="#b3b3b3" d="M68 4v64H4V4h64m4-4H0v72h72V0z"/><path fill="none" stroke="#00a5ff" stroke-miterlimit="10" stroke-width=".1" d="M12.923 10.958h46.154A1.923 1.923 0 0161 12.881v46.154a1.923 1.923 0 01-1.923 1.923H12.923A1.923 1.923 0 0111 59.035V12.881a1.923 1.923 0 011.923-1.923z"/><rect x="16" y="4" rx="2.254" ry="2.254" width="40" height="64" fill="none" stroke="#00a5ff" stroke-miterlimit="10" stroke-width=".1"/><rect x="16" y="4" rx="2.254" ry="2.254" width="40" height="64" transform="rotate(90 36 36)" fill="none" stroke="#00a5ff" stroke-miterlimit="10" stroke-width=".1"/><circle cx="36" cy="36" r="29" fill="none" stroke="#00a5ff" stroke-miterlimit="10" stroke-width=".1"/><g stroke-linecap="round" stroke-miterlimit="10" stroke-width="6" stroke="#fff" fill="none" stroke-linejoin="round"><path d="M59 59.958H13a1.002 1.002 0 01-1-1v-46a1.002 1.002 0 011-1h46a1.002 1.002 0 011 1v46a.945.945 0 01-1 1z"/><path d="M26.598 32.796a1.183 1.183 0 01.807.718 1.02 1.02 0 101.991-.442 3.305 3.305 0 00-2.798-2.386zm-1.318 6.078a1.57 1.57 0 01-1.218-.91 1.02 1.02 0 10-1.935.644 3.65 3.65 0 003.153 2.333z"/><path d="M25.895 34.774a1.006 1.006 0 00-.096-.004c-.946 0-1.58-.549-1.58-1.06 0-.41.411-.84 1.06-.996v-2.062a3.254 3.254 0 00-3.1 3.057 3.32 3.32 0 003.421 3.097c.031.002.063.004.096.004.945 0 1.58.55 1.58 1.061a1.056 1.056 0 01-.678.865v2.131a3.186 3.186 0 002.719-2.996 3.32 3.32 0 00-3.422-3.097zM45.97 38.866a1.554 1.554 0 01-1.162-.902 1.02 1.02 0 10-1.935.645 3.646 3.646 0 003.097 2.328zm1.318-6.093a1.21 1.21 0 01.863.741 1.02 1.02 0 101.991-.442 3.318 3.318 0 00-2.854-2.398z"/><path d="M46.641 34.774a1.006 1.006 0 00-.095-.004c-.946 0-1.581-.549-1.581-1.06 0-.4.388-.817 1.005-.984v-2.07a3.245 3.245 0 00-3.045 3.053 3.32 3.32 0 003.42 3.097 1.5 1.5 0 00.096.004c.946 0 1.582.549 1.582 1.06a1.08 1.08 0 01-.735.888v2.123a3.198 3.198 0 002.775-3.01 3.32 3.32 0 00-3.422-3.097z"/><g><path d="M35.533 38.817a1.993 1.993 0 01-1.358-1.882V34.54a1.993 1.993 0 011.358-1.882v-2.09a4.033 4.033 0 00-3.398 3.972v2.394a4.033 4.033 0 003.398 3.972zm1.318-8.244v2.098a1.994 1.994 0 011.319 1.87v2.393a1.994 1.994 0 01-1.319 1.87v2.098a4.035 4.035 0 003.359-3.967V34.54a4.035 4.035 0 00-3.359-3.968z"/></g></g><path fill="#fcea2b" d="M59 59.628H13a1.002 1.002 0 01-1-1v-46a1.002 1.002 0 011-1h46a1.002 1.002 0 011 1v46a.945.945 0 01-1 1z"/><path fill="none" stroke="#000" stroke-miterlimit="10" stroke-width="2" d="M59 59.958H13a1.002 1.002 0 01-1-1v-46a1.002 1.002 0 011-1h46a1.002 1.002 0 011 1v46a.945.945 0 01-1 1z"/><path d="M26.598 32.796a1.183 1.183 0 01.807.718 1.02 1.02 0 101.991-.442 3.305 3.305 0 00-2.798-2.386zm-1.318 6.078a1.57 1.57 0 01-1.218-.91 1.02 1.02 0 10-1.935.644 3.65 3.65 0 003.153 2.333z"/><path d="M25.895 34.774a1.006 1.006 0 00-.096-.004c-.946 0-1.58-.549-1.58-1.06 0-.41.411-.84 1.06-.996v-2.062a3.254 3.254 0 00-3.1 3.057 3.32 3.32 0 003.421 3.097c.031.002.063.004.096.004.945 0 1.58.55 1.58 1.061a1.056 1.056 0 01-.678.865v2.131a3.186 3.186 0 002.719-2.996 3.32 3.32 0 00-3.422-3.097zM45.97 38.866a1.554 1.554 0 01-1.162-.902 1.02 1.02 0 10-1.935.645 3.646 3.646 0 003.097 2.328zm1.318-6.093a1.21 1.21 0 01.863.741 1.02 1.02 0 101.991-.442 3.318 3.318 0 00-2.854-2.398z"/><path d="M46.641 34.774a1.006 1.006 0 00-.095-.004c-.946 0-1.581-.549-1.581-1.06 0-.4.388-.817 1.005-.984v-2.07a3.245 3.245 0 00-3.045 3.053 3.32 3.32 0 003.42 3.097 1.5 1.5 0 00.096.004c.946 0 1.582.549 1.582 1.06a1.08 1.08 0 01-.735.888v2.123a3.198 3.198 0 002.775-3.01 3.32 3.32 0 00-3.422-3.097z"/><g><path d="M35.533 38.817a1.993 1.993 0 01-1.358-1.882V34.54a1.993 1.993 0 011.358-1.882v-2.09a4.033 4.033 0 00-3.398 3.972v2.394a4.033 4.033 0 003.398 3.972zm1.318-8.244v2.098a1.994 1.994 0 011.319 1.87v2.393a1.994 1.994 0 01-1.319 1.87v2.098a4.035 4.035 0 003.359-3.967V34.54a4.035 4.035 0 00-3.359-3.968z"/></g></svg>