<svg viewBox="0 0 72 72" xmlns="http://www.w3.org/2000/svg"><path fill="#b3b3b3" d="M68 4v64H4V4h64m4-4H0v72h72V0z"/><path fill="none" stroke="#00a5ff" stroke-miterlimit="10" stroke-width=".1" d="M12.923 10.958h46.154A1.923 1.923 0 0161 12.881v46.154a1.923 1.923 0 01-1.923 1.923H12.923A1.923 1.923 0 0111 59.035V12.881a1.923 1.923 0 011.923-1.923z"/><rect x="16" y="4" rx="2.254" ry="2.254" width="40" height="64" fill="none" stroke="#00a5ff" stroke-miterlimit="10" stroke-width=".1"/><rect x="16" y="4" rx="2.254" ry="2.254" width="40" height="64" transform="rotate(90 36 36)" fill="none" stroke="#00a5ff" stroke-miterlimit="10" stroke-width=".1"/><circle cx="36" cy="36" r="29" fill="none" stroke="#00a5ff" stroke-miterlimit="10" stroke-width=".1"/><g stroke-linecap="round" stroke-miterlimit="10" stroke-width="6" stroke="#fff" fill="none" stroke-linejoin="round"><path d="M58.695 60.08h-46a1.002 1.002 0 01-1-1v-46a1.002 1.002 0 011-1h46a1.002 1.002 0 011 1v46a.945.945 0 01-1 1z"/><path d="M38.795 41.68a1 1 0 01-1-1v-9.4a1 1 0 012 0v9.4a1 1 0 01-1 1zm7.225-1.644l-3.715-4.411 3.204-3.689A1 1 0 0044 30.624l-2.913 3.352v3.308l3.403 4.041a1 1 0 001.53-1.29zm-16.461-.451a2.363 2.363 0 01-1.754-2.305v-2.7a2.362 2.362 0 011.754-2.304v-2.032a4.333 4.333 0 00-3.754 4.336v2.7a4.333 4.333 0 003.754 4.337zm1.292-9.341v2.032a2.362 2.362 0 011.754 2.304v2.7a2.363 2.363 0 01-1.754 2.305v2.032a4.333 4.333 0 003.754-4.337v-2.7a4.333 4.333 0 00-3.754-4.336z"/></g><path fill="#b1cc33" d="M58.695 60.08h-46a1.002 1.002 0 01-1-1v-46a1.002 1.002 0 011-1h46a1.002 1.002 0 011 1v46a.945.945 0 01-1 1z"/><path fill="none" stroke="#000" stroke-miterlimit="10" stroke-width="2" d="M58.695 60.08h-46a1.002 1.002 0 01-1-1v-46a1.002 1.002 0 011-1h46a1.002 1.002 0 011 1v46a.945.945 0 01-1 1z"/><path d="M38.795 41.68a1 1 0 01-1-1v-9.4a1 1 0 012 0v9.4a1 1 0 01-1 1zm7.225-1.644l-3.715-4.411 3.204-3.689A1 1 0 0044 30.624l-2.913 3.352v3.308l3.403 4.041a1 1 0 001.53-1.29zm-16.461-.451a2.363 2.363 0 01-1.754-2.305v-2.7a2.362 2.362 0 011.754-2.304v-2.032a4.333 4.333 0 00-3.754 4.336v2.7a4.333 4.333 0 003.754 4.337zm1.292-9.341v2.032a2.362 2.362 0 011.754 2.304v2.7a2.363 2.363 0 01-1.754 2.305v2.032a4.333 4.333 0 003.754-4.337v-2.7a4.333 4.333 0 00-3.754-4.336z"/></svg>