<svg viewBox="0 0 72 72" xmlns="http://www.w3.org/2000/svg"><path fill="#b3b3b3" d="M68 4v64H4V4h64m4-4H0v72h72V0z"/><path fill="none" stroke="#00a5ff" stroke-miterlimit="10" stroke-width=".1" d="M12.923 10.958h46.154A1.923 1.923 0 0161 12.881v46.154a1.923 1.923 0 01-1.923 1.923H12.923A1.923 1.923 0 0111 59.035V12.881a1.923 1.923 0 011.923-1.923z"/><rect x="16" y="4" rx="2.254" ry="2.254" width="40" height="64" fill="none" stroke="#00a5ff" stroke-miterlimit="10" stroke-width=".1"/><rect x="16" y="4" rx="2.254" ry="2.254" width="40" height="64" transform="rotate(90 36 36)" fill="none" stroke="#00a5ff" stroke-miterlimit="10" stroke-width=".1"/><circle cx="36" cy="36" r="29" fill="none" stroke="#00a5ff" stroke-miterlimit="10" stroke-width=".1"/><path d="M10.99 27.047a2.654 2.654 0 012.456-1.947h51.38a1.494 1.494 0 011.52 1.942l-5.429 21.916a2.694 2.694 0 01-2.48 1.942H7.386a1.516 1.516 0 01-1.543-1.947zm27.68-1.946L31.951 50.9m22.05-25.799L47.281 50.9M23.01 25.101L16.29 50.9" stroke-linecap="round" stroke-miterlimit="10" stroke-width="6" stroke="#fff" fill="none" stroke-linejoin="round"/><path fill="#fcea2b" d="M11.602 27.036a2.734 2.734 0 012.504-1.935h50.72a1.472 1.472 0 011.496 1.935L60.61 48.964a2.734 2.734 0 01-2.504 1.936H7.386a1.472 1.472 0 01-1.496-1.935z"/><path fill="#f1b31c" d="M60.444 49.614l3.495-13.429a193.65 193.65 0 01-24.953 8.955 218.027 218.027 0 01-28.8 5.76h48.558a1.711 1.711 0 001.7-1.286z"/><path d="M34.006 25.1h9.6l-6.72 25.8h-9.6l6.72-25.8zm15.661 0h9.6l-6.72 25.8h-9.6l6.72-25.8zm-31.321 0h9.6l-6.72 25.8h-9.6l6.72-25.8z"/><path fill="none" d="M11.602 27.036a2.734 2.734 0 012.504-1.935h50.72a1.472 1.472 0 011.496 1.935L60.61 48.964a2.734 2.734 0 01-2.504 1.936H7.386a1.472 1.472 0 01-1.496-1.935z"/><g fill="none" stroke="#000" stroke-linecap="round" stroke-linejoin="round" stroke-width="2"><path d="M10.99 27.047a2.654 2.654 0 012.456-1.947h51.38a1.494 1.494 0 011.52 1.942l-5.429 21.916a2.694 2.694 0 01-2.48 1.942H7.386a1.516 1.516 0 01-1.543-1.947zm27.68-1.946L31.951 50.9m22.05-25.799L47.281 50.9M23.01 25.101L16.29 50.9"/></g></svg>