<svg viewBox="0 0 72 72" xmlns="http://www.w3.org/2000/svg"><path fill="#b3b3b3" d="M68 4v64H4V4h64m4-4H0v72h72V0z"/><path fill="none" stroke="#00a5ff" stroke-miterlimit="10" stroke-width=".1" d="M12.923 10.958h46.154A1.923 1.923 0 0161 12.881v46.154a1.923 1.923 0 01-1.923 1.923H12.923A1.923 1.923 0 0111 59.035V12.881a1.923 1.923 0 011.923-1.923z"/><rect x="16" y="4" rx="2.254" ry="2.254" width="40" height="64" fill="none" stroke="#00a5ff" stroke-miterlimit="10" stroke-width=".1"/><rect x="16" y="4" rx="2.254" ry="2.254" width="40" height="64" transform="rotate(90 36 36)" fill="none" stroke="#00a5ff" stroke-miterlimit="10" stroke-width=".1"/><circle cx="36" cy="36" r="29" fill="none" stroke="#00a5ff" stroke-miterlimit="10" stroke-width=".1"/><g stroke-linecap="round" stroke-miterlimit="10" stroke-width="6" stroke="#fff" fill="none" stroke-linejoin="round"><path d="M36.545 62.294a3.463 3.463 0 01-2.817-1.935C20.99 40.723 20.769 29.58 20.766 29.114c0-9.32 7.134-16.896 15.904-16.896s15.903 7.577 15.903 16.892c.007.444.007 11.304-12.812 30.95-.122.207-1.377 2.233-3.216 2.233z"/><path d="M36.67 35.913a7.083 7.083 0 117.083-7.082 7.09 7.09 0 01-7.083 7.082z"/></g><path fill="#d22f27" d="M52.573 29.11c0-9.315-7.133-16.892-15.903-16.892s-15.904 7.577-15.904 16.896c.003.465.224 11.609 12.962 31.245a3.463 3.463 0 002.817 1.934c1.84 0 3.094-2.026 3.216-2.232C52.58 40.413 52.58 29.553 52.573 29.11zM36.67 35.913a7.083 7.083 0 117.083-7.082 7.09 7.09 0 01-7.083 7.082z"/><path fill="#ea5a47" d="M52.573 29.11c0-9.315-7.133-16.892-15.903-16.892a14.96 14.96 0 00-3.865.525c8.395.45 15.1 7.823 15.1 16.85.006.443.006 11.303-12.813 30.95a5.854 5.854 0 01-.586.797 2.855 2.855 0 002.04.954c1.839 0 3.093-2.027 3.215-2.233C52.58 40.413 52.58 29.553 52.573 29.11z"/><g fill="none" stroke="#000" stroke-linecap="round" stroke-linejoin="round" stroke-width="2"><path d="M36.545 62.294a3.463 3.463 0 01-2.817-1.935C20.99 40.723 20.769 29.58 20.766 29.114c0-9.32 7.134-16.896 15.904-16.896s15.903 7.577 15.903 16.892c.007.444.007 11.304-12.812 30.95-.122.207-1.377 2.233-3.216 2.233z"/><path d="M36.67 35.913a7.083 7.083 0 117.083-7.082 7.09 7.09 0 01-7.083 7.082z"/></g></svg>