<svg viewBox="0 0 72 72" xmlns="http://www.w3.org/2000/svg"><path fill="#B3B3B3" d="M68 4v64H4V4h64m4-4H0v72h72V0z"/><path fill="none" stroke="#00A5FF" stroke-miterlimit="10" stroke-width=".1" d="M12.923 10.958h46.154c1.062 0 1.923.861 1.923 1.923v46.154a1.923 1.923 0 01-1.923 1.923H12.923A1.923 1.923 0 0111 59.035h0V12.881c0-1.062.861-1.923 1.923-1.923h0z"/><path fill="none" stroke="#00A5FF" stroke-miterlimit="10" stroke-width=".1" d="M18.254 4h35.492A2.254 2.254 0 0156 6.254v59.492A2.254 2.254 0 0153.746 68H18.254A2.254 2.254 0 0116 65.746V6.254A2.254 2.254 0 0118.254 4z"/><path fill="none" stroke="#00A5FF" stroke-miterlimit="10" stroke-width=".1" d="M68 18.254v35.492A2.254 2.254 0 0165.746 56H6.254A2.254 2.254 0 014 53.746V18.254A2.254 2.254 0 016.254 16h59.492A2.254 2.254 0 0168 18.254z"/><circle cx="36" cy="36" r="29" fill="none" stroke="#00A5FF" stroke-miterlimit="10" stroke-width=".1"/><g stroke-linecap="round" stroke-miterlimit="10" stroke-width="6" stroke="#fff" fill="none" stroke-linejoin="round"><path d="M34 46.88h6.16m-6.73 6.88c4.276 2.802 9.57-.533 10.33-3.682l1.083-.96s-4.713 3.604-7.967-1.05c.215 4.007-1.562 5.151-3.376 5.74m21.606-20.086S41.2 39.6 41.854 40.347c13.306 12.103 14.35-4.94 13.252-6.625zM62 54.16l-9.36-5.2m5.2 10.4l-9.36-5.2"/><path d="M13.292 48.032a23.845 23.845 0 01-1.732-8.952L15.2 6.32l10.98 10.715a23.858 23.858 0 019.3-1.875h1.04c3.299 0 6.441.668 9.301 1.875L56.8 6.32l3.64 32.76c0 3.165-.614 6.186-1.732 8.952m-35.883 11.35A23.806 23.806 0 0035.48 63h1.04c4.646 0 8.984-1.324 12.655-3.618"/><path d="M16.894 33.722s12.866 6.918 13.252 6.625c-12.845 12.737-14.549-3.86-13.252-6.625zM10 54.16l9.36-5.2m-5.2 10.4l9.36-5.2"/><circle cx="23.52" cy="38.56" r="2.08"/><circle cx="48.48" cy="38.56" r="2.08"/></g><path fill="#F4AA41" d="M58.666 48.945c-3.598 9.117-12.632 15.042-23.208 15.042-9.117 0-19.256-5.735-22.853-14.851l-.127-.313c-1.141-2.86-.957-6.36-.957-9.633l3.667-32.37L25.416 16.9a24.164 24.164 0 019.51-1.94h1.064c3.373 0 6.588.691 9.51 1.94L56.728 5.82l3.723 33.875a24.9 24.9 0 01-1.77 9.257"/><path fill="#E27022" d="M35.458 63.987c10.61.342 20.354-5.89 23.952-15.008l.11-.23c1.142-2.86.959-6.897.959-10.17l-3.75-31.76"/><path fill="#EA5A47" d="M33.43 53.78c4.276 2.801 9.57-.534 10.33-3.683l1.083-.96s-4.713 3.604-7.967-1.05c.215 4.007-1.562 5.151-3.376 5.74"/><path fill="#FFF" d="M55.106 33.74S41.2 39.62 41.854 40.367c13.306 12.103 14.35-4.94 13.252-6.625zm-38.212 0s12.866 6.92 13.252 6.626c-12.845 12.737-14.549-3.86-13.252-6.625z"/><path fill="none" stroke="#000" stroke-linecap="round" stroke-linejoin="round" stroke-miterlimit="10" stroke-width="2" d="M34 46.88h6.16m-6.73 6.88c4.276 2.802 9.57-.533 10.33-3.682l1.083-.96s-4.713 3.604-7.967-1.05c.215 4.007-1.562 5.151-3.376 5.74m21.606-20.086S41.2 39.6 41.854 40.347c13.306 12.103 14.35-4.94 13.252-6.625zM62 54.16l-9.36-5.2m5.2 10.4l-9.36-5.2"/><path fill="none" stroke="#000" stroke-linecap="round" stroke-linejoin="round" stroke-miterlimit="10" stroke-width="2" d="M13.292 48.032a23.845 23.845 0 01-1.732-8.952L15.2 6.32l10.98 10.715a23.858 23.858 0 019.3-1.875h1.04c3.299 0 6.441.668 9.301 1.875L56.8 6.32l3.64 32.76c0 3.165-.614 6.186-1.732 8.952m-35.883 11.35A23.806 23.806 0 0035.48 63h1.04c4.646 0 8.984-1.324 12.655-3.618"/><path fill="none" stroke="#000" stroke-linecap="round" stroke-linejoin="round" stroke-miterlimit="10" stroke-width="2" d="M16.894 33.722s12.866 6.918 13.252 6.625c-12.845 12.737-14.549-3.86-13.252-6.625zM10 54.16l9.36-5.2m-5.2 10.4l9.36-5.2"/><circle cx="23.52" cy="38.56" r="2.08"/><circle cx="48.48" cy="38.56" r="2.08"/></svg>