<svg viewBox="0 0 72 72" xmlns="http://www.w3.org/2000/svg"><path fill="#B3B3B3" d="M68 4v64H4V4h64m4-4H0v72h72V0z"/><path fill="none" stroke="#00A5FF" stroke-miterlimit="10" stroke-width=".1" d="M12.923 10.958h46.154c1.062 0 1.923.861 1.923 1.923v46.154a1.923 1.923 0 01-1.923 1.923H12.923A1.923 1.923 0 0111 59.035h0V12.881c0-1.062.861-1.923 1.923-1.923h0z"/><path fill="none" stroke="#00A5FF" stroke-miterlimit="10" stroke-width=".1" d="M18.254 4h35.492A2.254 2.254 0 0156 6.254v59.492A2.254 2.254 0 0153.746 68H18.254A2.254 2.254 0 0116 65.746V6.254A2.254 2.254 0 0118.254 4z"/><path fill="none" stroke="#00A5FF" stroke-miterlimit="10" stroke-width=".1" d="M68 18.254v35.492A2.254 2.254 0 0165.746 56H6.254A2.254 2.254 0 014 53.746V18.254A2.254 2.254 0 016.254 16h59.492A2.254 2.254 0 0168 18.254z"/><circle cx="36" cy="36" r="29" fill="none" stroke="#00A5FF" stroke-miterlimit="10" stroke-width=".1"/><g stroke-linecap="round" stroke-miterlimit="10" stroke-width="6" stroke="#fff" fill="none" stroke-linejoin="round"><path d="M62 54.16l-9.36-5.2m5.2 10.4l-9.36-5.2m-35.188-6.128a23.845 23.845 0 01-1.732-8.952L15.2 6.32l10.98 10.715a23.858 23.858 0 019.3-1.875h1.04c3.299 0 6.442.668 9.3 1.875L56.8 6.32l3.64 32.76c0 3.165-.614 6.186-1.732 8.952m-35.883 11.35A23.806 23.806 0 0035.48 63h1.04c4.646 0 8.985-1.324 12.655-3.618M10 54.16l9.36-5.2m-5.2 10.4l9.36-5.2m31.72-15.23c-3.12-4.16-9.36-4.16-11.44 0m-27.04 0c3.12-4.16 9.36-4.16 11.44 0"/><path d="M35.648 47.684s10.945 3.323 0 5.786c0 0 10.876 3.108 0 5.109"/></g><path fill="#F4AA41" d="M58.666 48.832c-3.598 9.117-12.632 15.155-23.208 15.155-9.117 0-19.256-5.848-22.853-14.965l-.126-.312c-1.142-2.86-.958-6.36-.958-9.633l3.667-32.371 10.228 10.08a24.164 24.164 0 019.51-1.939h1.064c3.373 0 6.588.691 9.51 1.939l11.228-11.08 3.723 33.876a24.9 24.9 0 01-1.77 9.256"/><path fill="#E27022" d="M35.458 63.987c10.61.342 20.354-6.004 23.952-15.121l.11-.231c1.142-2.86.959-6.896.959-10.169l-3.75-32.76"/><g fill="none" stroke="#000" stroke-linecap="round" stroke-linejoin="round" stroke-miterlimit="10" stroke-width="2"><path d="M62 54.16l-9.36-5.2m5.2 10.4l-9.36-5.2m-35.188-6.128a23.845 23.845 0 01-1.732-8.952L15.2 6.32l10.98 10.715a23.858 23.858 0 019.3-1.875h1.04c3.299 0 6.442.668 9.3 1.875L56.8 6.32l3.64 32.76c0 3.165-.614 6.186-1.732 8.952m-35.883 11.35A23.806 23.806 0 0035.48 63h1.04c4.646 0 8.985-1.324 12.655-3.618M10 54.16l9.36-5.2m-5.2 10.4l9.36-5.2m31.72-15.23c-3.12-4.16-9.36-4.16-11.44 0m-27.04 0c3.12-4.16 9.36-4.16 11.44 0"/><path d="M35.648 47.684s10.945 3.323 0 5.786c0 0 10.876 3.108 0 5.109"/></g></svg>