<svg viewBox="0 0 72 72" xmlns="http://www.w3.org/2000/svg"><path fill="#B3B3B3" d="M68 4v64H4V4h64m4-4H0v72h72V0z"/><path fill="none" stroke="#00A5FF" stroke-miterlimit="10" stroke-width=".1" d="M12.923 10.958h46.154c1.062 0 1.923.861 1.923 1.923h0v46.154a1.923 1.923 0 01-1.923 1.923H12.923A1.923 1.923 0 0111 59.035h0V12.881c0-1.062.861-1.923 1.923-1.923h0z"/><path fill="none" stroke="#00A5FF" stroke-miterlimit="10" stroke-width=".1" d="M18.254 4h35.492A2.254 2.254 0 0156 6.254v59.492A2.254 2.254 0 0153.746 68H18.254A2.254 2.254 0 0116 65.746V6.254A2.254 2.254 0 0118.254 4z"/><path fill="none" stroke="#00A5FF" stroke-miterlimit="10" stroke-width=".1" d="M68 18.254v35.492A2.254 2.254 0 0165.746 56H6.254A2.254 2.254 0 014 53.746V18.254A2.254 2.254 0 016.254 16h59.492A2.254 2.254 0 0168 18.254z"/><circle cx="36" cy="36" r="29" fill="none" stroke="#00A5FF" stroke-miterlimit="10" stroke-width=".1"/><g stroke-linecap="round" stroke-miterlimit="10" stroke-width="6" stroke="#fff" fill="none" stroke-linejoin="round"><path d="M55.106 33.485s-9.276-9.277-13.252 6.625c10.602 7.951 13.252-6.625 13.252-6.625zM62 53.923l-9.36-5.199m5.2 10.399l-9.36-5.2"/><path d="M13.292 47.795a23.845 23.845 0 01-1.732-8.952l3.64-32.76 10.98 10.715a23.858 23.858 0 019.3-1.874h1.04c3.299 0 6.442.668 9.3 1.874L56.8 6.084l3.64 32.76c0 3.164-.614 6.186-1.732 8.951m-31.704 13.66A23.867 23.867 0 0035.48 63h1.04c4.647 0 8.985-1.324 12.655-3.618"/><path d="M16.894 33.485s9.276-9.277 13.252 6.625c-10.602 7.951-13.252-6.625-13.252-6.625zM10 53.923l8.72-4.844m-2.71 9.012l-1.85 1.03"/><circle cx="23.52" cy="36.243" r="2.08"/><circle cx="48.48" cy="36.243" r="2.08"/><path d="M24.827 59.473a5.489 5.489 0 01-3.907 1.617 5.49 5.49 0 01-3.908-1.618 5.48 5.48 0 01-1.616-3.906c0-4.86 4.593-9.508 4.789-9.703a1.04 1.04 0 011.47 0c.196.195 4.79 4.843 4.789 9.703h0a5.481 5.481 0 01-1.617 3.907zM20.92 48.152c-1.2 1.42-3.444 4.473-3.444 7.414a3.414 3.414 0 001.007 2.435c.65.65 1.515 1.01 2.437 1.01 1.841 0 3.446-1.605 3.444-3.445h0c0-2.941-2.245-5.993-3.444-7.414zm19.24 3.928L36 46.88m-4.16 5.2l4.16-5.2m-4.16 0h8.32"/></g><path fill="#F4AA41" d="M58.666 48.832c-3.598 9.117-12.632 15.155-23.208 15.155-9.117 0-19.256-5.848-22.853-14.965l-.126-.312c-1.142-2.86-.958-6.36-.958-9.633l3.667-32.371 10.228 10.08a24.164 24.164 0 019.51-1.939h1.064c3.373 0 6.588.691 9.51 1.939l11.228-11.08 3.723 33.876a24.9 24.9 0 01-1.77 9.256"/><path fill="#E27022" d="M35.458 63.987c10.61.342 20.354-6.004 23.952-15.121l.11-.231c1.142-2.86.959-6.896.959-10.169l-3.75-32.76"/><path fill="#FFF" d="M55.106 33.527s-9.276-9.277-13.252 6.625c10.602 7.951 13.252-6.625 13.252-6.625zm-38.212 0s9.276-9.277 13.252 6.625c-10.602 7.951-13.252-6.625-13.252-6.625z"/><path fill="#92D3F5" d="M20.92 48.194c-1.2 1.42-3.444 4.473-3.444 7.414a3.414 3.414 0 001.007 2.435c.65.65 1.515 1.01 2.437 1.01 1.841 0 3.446-1.605 3.444-3.445 0-2.941-2.245-5.993-3.444-7.414z"/><path fill="none" stroke="#000" stroke-linecap="round" stroke-linejoin="round" stroke-miterlimit="10" stroke-width="2" d="M55.106 33.485s-9.276-9.277-13.252 6.625c10.602 7.951 13.252-6.625 13.252-6.625zM62 53.923l-9.36-5.199m5.2 10.399l-9.36-5.2"/><path fill="none" stroke="#000" stroke-linecap="round" stroke-linejoin="round" stroke-miterlimit="10" stroke-width="2" d="M13.292 47.795a23.845 23.845 0 01-1.732-8.952l3.64-32.76 10.98 10.715a23.858 23.858 0 019.3-1.874h1.04c3.299 0 6.442.668 9.3 1.874L56.8 6.084l3.64 32.76c0 3.164-.614 6.186-1.732 8.951m-31.704 13.66A23.867 23.867 0 0035.48 63h1.04c4.647 0 8.985-1.324 12.655-3.618"/><path fill="none" stroke="#000" stroke-linecap="round" stroke-linejoin="round" stroke-miterlimit="10" stroke-width="2" d="M16.894 33.485s9.276-9.277 13.252 6.625c-10.602 7.951-13.252-6.625-13.252-6.625zM10 53.923l8.72-4.844m-2.71 9.012l-1.85 1.03"/><circle cx="23.52" cy="36.243" r="2.08"/><circle cx="48.48" cy="36.243" r="2.08"/><path d="M24.827 59.473a5.489 5.489 0 01-3.907 1.617 5.49 5.49 0 01-3.908-1.618 5.48 5.48 0 01-1.616-3.906c0-4.86 4.593-9.508 4.789-9.703a1.04 1.04 0 011.47 0c.196.195 4.79 4.843 4.789 9.703a5.481 5.481 0 01-1.617 3.907zM20.92 48.152c-1.2 1.42-3.444 4.473-3.444 7.414a3.414 3.414 0 001.007 2.435c.65.65 1.515 1.01 2.437 1.01 1.841 0 3.446-1.605 3.444-3.445 0-2.941-2.245-5.993-3.444-7.414z"/><path fill="none" stroke="#000" stroke-linecap="round" stroke-linejoin="round" stroke-miterlimit="10" stroke-width="2" d="M40.16 52.08L36 46.88m-4.16 5.2l4.16-5.2m-4.16 0h8.32"/></svg>