<svg viewBox="0 0 72 72" xmlns="http://www.w3.org/2000/svg"><path fill="#B3B3B3" d="M68 4v64H4V4h64m4-4H0v72h72V0z"/><path fill="none" stroke="#00A5FF" stroke-miterlimit="10" stroke-width=".1" d="M12.923 10.958h46.154c1.062 0 1.923.861 1.923 1.923v46.154a1.923 1.923 0 01-1.923 1.923H12.923A1.923 1.923 0 0111 59.035h0V12.881c0-1.062.861-1.923 1.923-1.923h0z"/><path fill="none" stroke="#00A5FF" stroke-miterlimit="10" stroke-width=".1" d="M18.254 4h35.492A2.254 2.254 0 0156 6.254v59.492A2.254 2.254 0 0153.746 68H18.254A2.254 2.254 0 0116 65.746V6.254A2.254 2.254 0 0118.254 4z"/><path fill="none" stroke="#00A5FF" stroke-miterlimit="10" stroke-width=".1" d="M68 18.254v35.492A2.254 2.254 0 0165.746 56H6.254A2.254 2.254 0 014 53.746V18.254A2.254 2.254 0 016.254 16h59.492A2.254 2.254 0 0168 18.254z"/><circle cx="36" cy="36" r="29" fill="none" stroke="#00A5FF" stroke-miterlimit="10" stroke-width=".1"/><g stroke-linecap="round" stroke-miterlimit="10" stroke-width="6" stroke="#fff" fill="none" stroke-linejoin="round"><path d="M61.65 54.45l-4.04-2.25m-.06 7.38l-3.21-1.78M12.92 46.48s-.01-.01 0-.01c-.67-2.19-1.03-4.5-1.03-6.9l3.59-32.32 10.83 10.57a23.55 23.55 0 019.18-1.85h1.02c3.26 0 6.36.66 9.18 1.85L56.52 7.25l3.59 32.32c0 2.59-.41 5.07-1.19 7.4M24.7 60.56c3.23 1.67 6.9 2.61 10.79 2.61h1.02c3.75 0 7.28-.87 10.43-2.42M14.1 52.36l-3.75 2.09m6.9 3.57l-2.8 1.56"/><ellipse cx="36" cy="51.719" rx="6.452" ry="7.751"/><ellipse cx="24.456" cy="34.194" rx="7.751" ry="6.452" transform="rotate(-70.494 24.456 34.194)"/><ellipse cx="46.84" cy="34.195" rx="6.452" ry="7.751" transform="rotate(-19.507 46.839 34.196)"/><path d="M15.295 65h9.034s1.374-13.369 0-15.81c-.998-1.774-2.547-5.271-6.852-5.138-1.558.048-6.011 1.347-4.71 5.251 1.813 5.44 3.422 4.505 4.293 6.178C18.204 57.68 15.295 65 15.295 65zm41.029 0H47.29s-1.374-13.369 0-15.81c.998-1.774 2.548-5.271 6.853-5.138 1.557.048 6.01 1.347 4.71 5.251-1.814 5.44-3.423 4.505-4.294 6.178C53.415 57.68 56.324 65 56.324 65z"/></g><path fill="#F4AA41" d="M58.363 49.283c-3.55 8.995-12.463 14.81-22.898 14.81-8.995 0-18.998-5.628-22.548-14.623l-.124-.308c-1.127-2.822-.931-6.275-.931-9.504l3.617-31.925 10.079 9.932a23.842 23.842 0 019.383-1.913h1.05c3.327 0 6.499.681 9.382 1.913L56.452 6.733l3.672 33.423c0 3.229-.62 6.312-1.747 9.133"/><path fill="#E27022" d="M35.465 64.093c10.468.338 20.083-5.782 23.632-14.777l.11-.228c1.126-2.821.931-6.804.931-10.033L56.452 6.733"/><ellipse cx="36" cy="51.719" rx="6.452" ry="7.751" fill="#EA5A47"/><ellipse cx="24.456" cy="34.194" rx="7.751" ry="6.452" transform="rotate(-70.494 24.456 34.194)" fill="#FFF"/><ellipse cx="46.84" cy="34.195" rx="6.452" ry="7.751" transform="rotate(-19.507 46.839 34.196)" fill="#FFF"/><path fill="#F4AA41" d="M15.295 65h9.034s1.374-13.369 0-15.81c-.998-1.774-2.547-5.271-6.852-5.138-1.558.048-6.011 1.347-4.71 5.251 1.813 5.44 3.422 4.505 4.293 6.178C18.204 57.68 15.295 65 15.295 65zm41.029 0H47.29s-1.374-13.369 0-15.81c.998-1.774 2.548-5.271 6.853-5.138 1.557.048 6.01 1.347 4.71 5.251-1.814 5.44-3.423 4.505-4.294 6.178C53.415 57.68 56.324 65 56.324 65z"/><g fill="none" stroke="#000" stroke-linecap="round" stroke-linejoin="round" stroke-miterlimit="10" stroke-width="2"><path d="M61.65 54.45l-4.04-2.25m-.06 7.38l-3.21-1.78M12.92 46.48s-.01-.01 0-.01c-.67-2.19-1.03-4.5-1.03-6.9l3.59-32.32 10.83 10.57a23.55 23.55 0 019.18-1.85h1.02c3.26 0 6.36.66 9.18 1.85L56.52 7.25l3.59 32.32c0 2.59-.41 5.07-1.19 7.4M24.7 60.56c3.23 1.67 6.9 2.61 10.79 2.61h1.02c3.75 0 7.28-.87 10.43-2.42M14.1 52.36l-3.75 2.09m6.9 3.57l-2.8 1.56"/><ellipse cx="36" cy="51.719" rx="6.452" ry="7.751"/><ellipse cx="24.456" cy="34.194" rx="7.751" ry="6.452" transform="rotate(-70.494 24.456 34.194)"/><ellipse cx="46.84" cy="34.195" rx="6.452" ry="7.751" transform="rotate(-19.507 46.839 34.196)"/><path d="M15.295 65h9.034s1.374-13.369 0-15.81c-.998-1.774-2.547-5.271-6.852-5.138-1.558.048-6.011 1.347-4.71 5.251 1.813 5.44 3.422 4.505 4.293 6.178C18.204 57.68 15.295 65 15.295 65zm41.029 0H47.29s-1.374-13.369 0-15.81c.998-1.774 2.548-5.271 6.853-5.138 1.557.048 6.01 1.347 4.71 5.251-1.814 5.44-3.423 4.505-4.294 6.178C53.415 57.68 56.324 65 56.324 65z"/></g></svg>