<svg viewBox="0 0 72 72" xmlns="http://www.w3.org/2000/svg"><path fill="#b3b3b3" d="M68 4v64H4V4h64m4-4H0v72h72V0z"/><path fill="none" stroke="#00a5ff" stroke-miterlimit="10" stroke-width=".1" d="M12.923 10.958h46.154A1.923 1.923 0 0161 12.881v46.154a1.923 1.923 0 01-1.923 1.923H12.923A1.923 1.923 0 0111 59.035V12.881a1.923 1.923 0 011.923-1.923z"/><rect x="16" y="4" rx="2.254" width="40" height="64" fill="none" stroke="#00a5ff" stroke-miterlimit="10" stroke-width=".1"/><rect x="16" y="4" rx="2.254" width="40" height="64" transform="rotate(90 36 36)" fill="none" stroke="#00a5ff" stroke-miterlimit="10" stroke-width=".1"/><circle cx="36" cy="36" r="29" fill="none" stroke="#00a5ff" stroke-miterlimit="10" stroke-width=".1"/><g stroke-linecap="round" stroke-miterlimit="10" stroke-width="6" stroke="#fff" fill="none" stroke-linejoin="round"><path d="M67 28v31a2 2 0 01-2 2H7a2 2 0 01-2-2V28a2 2 0 012-2l33.996-5.439m17.023-2.51C63.063 18.561 67 22.822 67 28"/><path d="M5 40h1a5 5 0 005-4.999 5 5 0 1110 0 5 5 0 0010 0 5 5 0 1110 0 5 5 0 0010 0 5 5 0 1110 0A5 5 0 0066 40h1M5 48h62M5 52h62"/><circle cx="49.5" cy="18" r="5"/><path d="M49.5 16c0-5.523 4.477-10 10-10"/></g><path fill="#FFF" d="M58 17.057l-17.751 2.728-1.327 1.208L7 26a2 2 0 00-2 2v12h1a5 5 0 005-4.999 5 5 0 1110 0 5 5 0 0010 0 5 5 0 1110 0 5 5 0 0010 0 5 5 0 1110 0A5 5 0 0066 40h1V28c0-4.711-3.26-8.663-7.647-9.722-.434-.104-.88-1.124-1.334-1.17"/><circle cx="49.5" cy="18" r="5" fill="#ea5a47"/><path fill="#fcea2b" d="M67 39v20a2 2 0 01-2 2H7a2 2 0 01-2-2V39"/><path fill="#fcea2b" d="M67 40h-1a5 5 0 01-5-5 5 5 0 00-10 0 5 5 0 01-10 0 5 5 0 00-10 0 5 5 0 01-10 0 5 5 0 00-10 0 5 5 0 01-5 5H5"/><g fill="none" stroke="#000" stroke-linecap="round" stroke-linejoin="round" stroke-miterlimit="10" stroke-width="2"><path d="M67 28v31a2 2 0 01-2 2H7a2 2 0 01-2-2V28a2 2 0 012-2l33.996-5.439m17.023-2.51C63.063 18.561 67 22.822 67 28"/><path d="M5 40h1a5 5 0 005-4.999 5 5 0 1110 0 5 5 0 0010 0 5 5 0 1110 0 5 5 0 0010 0 5 5 0 1110 0A5 5 0 0066 40h1M5 48h62M5 52h62"/><circle cx="49.5" cy="18" r="5"/><path d="M49.5 16c0-5.523 4.477-10 10-10"/></g></svg>