<svg viewBox="0 0 72 72" xmlns="http://www.w3.org/2000/svg"><path fill="#b3b3b3" d="M68 4v64H4V4h64m4-4H0v72h72V0z"/><path fill="none" stroke="#00a5ff" stroke-miterlimit="10" stroke-width=".1" d="M12.923 10.958h46.154A1.923 1.923 0 0161 12.881v46.154a1.923 1.923 0 01-1.923 1.923H12.923A1.923 1.923 0 0111 59.035V12.881a1.923 1.923 0 011.923-1.923z"/><rect x="16" y="4" rx="2.254" width="40" height="64" fill="none" stroke="#00a5ff" stroke-miterlimit="10" stroke-width=".1"/><rect x="16" y="4" rx="2.254" width="40" height="64" transform="rotate(90 36 36)" fill="none" stroke="#00a5ff" stroke-miterlimit="10" stroke-width=".1"/><circle cx="36" cy="36" r="29" fill="none" stroke="#00a5ff" stroke-miterlimit="10" stroke-width=".1"/><g stroke-linecap="round" stroke-miterlimit="10" stroke-width="6" stroke="#fff" fill="none" stroke-linejoin="round"><circle cx="36" cy="12" r="3"/><path d="M36 10.75a5 5 0 015-5M11.251 45.536a5 5 0 007.07 0 5.002 5.002 0 017.073 0 5 5 0 007.07 0 5.002 5.002 0 017.072 0 5 5 0 007.07 0 5.002 5.002 0 017.073 0 5 5 0 007.07 0A5 5 0 0167 44.877V41a5 5 0 00-5-5H10a5 5 0 00-5 5v3.877a5 5 0 016.251.66z"/><path d="M5 44.877V60a2 2 0 002 2h58a2 2 0 002-2V44.877"/><path d="M11.251 45.536a5 5 0 007.07 0 5.002 5.002 0 017.073 0 5 5 0 007.07 0 5.002 5.002 0 017.072 0 5 5 0 007.07 0 5.002 5.002 0 017.073 0 5 5 0 007.07 0A5 5 0 0167 44.877V41a5 5 0 00-5-5H10a5 5 0 00-5 5v3.877a5 5 0 016.251.66zM60 21.924V32M12 21.924V32m0-10.076a5 5 0 016.321.612 5.002 5.002 0 007.073 0 5 5 0 017.07 0 5.002 5.002 0 007.072 0 5 5 0 017.07 0 5.002 5.002 0 007.073 0A5 5 0 0160 21.924V20a5 5 0 00-5-5H17a5 5 0 00-5 5v1.924z"/></g><path fill="#fcea2b" d="M11 37c0 1.105 50 2.104 50 1v-7h-1V20a5 5 0 00-5-5H17a5 5 0 00-5 5v11h-1v6z"/><path fill="#FFF" d="M12 21.924a5 5 0 016.321.612 5.002 5.002 0 007.073 0 5 5 0 017.07 0 5.002 5.002 0 007.072 0 5 5 0 017.07 0 5.002 5.002 0 007.073 0A5 5 0 0160 21.924V20a5 5 0 00-5-5H17a5 5 0 00-5 5v1.924z"/><path fill="#fcea2b" d="M5 60a2 2 0 002 2h58a2 2 0 002-2V41a5 5 0 00-5-5H10a5 5 0 00-5 5v19z"/><circle cx="36" cy="12" r="3" fill="#ea5a47"/><path fill="#FFF" d="M11.251 45.536a5 5 0 007.07 0 5.002 5.002 0 017.073 0 5 5 0 007.07 0 5.002 5.002 0 017.072 0 5 5 0 007.07 0 5.002 5.002 0 017.073 0 5 5 0 007.07 0A5 5 0 0167 44.877V41a5 5 0 00-5-5H10a5 5 0 00-5 5v3.877a5 5 0 016.251.66z"/><g fill="none" stroke="#000" stroke-linecap="round" stroke-linejoin="round" stroke-miterlimit="10" stroke-width="2"><circle cx="36" cy="12" r="3"/><path d="M36 10.75a5 5 0 015-5M11.251 45.536a5 5 0 007.07 0 5.002 5.002 0 017.073 0 5 5 0 007.07 0 5.002 5.002 0 017.072 0 5 5 0 007.07 0 5.002 5.002 0 017.073 0 5 5 0 007.07 0A5 5 0 0167 44.877V41a5 5 0 00-5-5H10a5 5 0 00-5 5v3.877a5 5 0 016.251.66z"/><path d="M5 44.877V60a2 2 0 002 2h58a2 2 0 002-2V44.877"/><path d="M11.251 45.536a5 5 0 007.07 0 5.002 5.002 0 017.073 0 5 5 0 007.07 0 5.002 5.002 0 017.072 0 5 5 0 007.07 0 5.002 5.002 0 017.073 0 5 5 0 007.07 0A5 5 0 0167 44.877V41a5 5 0 00-5-5H10a5 5 0 00-5 5v3.877a5 5 0 016.251.66zM60 21.924V32M12 21.924V32m0-10.076a5 5 0 016.321.612 5.002 5.002 0 007.073 0 5 5 0 017.07 0 5.002 5.002 0 007.072 0 5 5 0 017.07 0 5.002 5.002 0 007.073 0A5 5 0 0160 21.924V20a5 5 0 00-5-5H17a5 5 0 00-5 5v1.924z"/></g></svg>