<svg viewBox="0 0 72 72" xmlns="http://www.w3.org/2000/svg"><path fill="#b3b3b3" d="M68 4v64H4V4h64m4-4H0v72h72z"/><rect x="11" y="10.96" rx="1.92" width="50" height="50" fill="none" stroke="#00a5ff" stroke-miterlimit="10" stroke-width=".1"/><rect x="16" y="4" rx="2.25" width="40" height="64" fill="none" stroke="#00a5ff" stroke-miterlimit="10" stroke-width=".1"/><rect x="4" y="16" rx="2.25" width="64" height="40" fill="none" stroke="#00a5ff" stroke-miterlimit="10" stroke-width=".1"/><circle cx="36" cy="36" r="29" fill="none" stroke="#00a5ff" stroke-miterlimit="10" stroke-width=".1"/><path d="M56 51c-1.12-6.83-3.55-13.82-7.47-18.85a28.384 28.384 0 00-2.31-2.59c-8-7.83-18.82-7.71-19.63-7.69h-.17a29.999 29.999 0 00-10.1 1.81" stroke-linecap="round" stroke-miterlimit="10" stroke-width="6" stroke="#fff" fill="none" stroke-linejoin="round"/><path fill="#fcea2b" stroke="#fcea2b" stroke-miterlimit="10" stroke-width="2" d="M16.9 51h37.19a28.31 28.31 0 00-6.46-18.7A27.08 27.08 0 0031 22.85a26.5 26.5 0 00-14 1.9z"/><path fill="none" stroke="#000" stroke-linecap="round" stroke-linejoin="round" stroke-width="2" d="M56 51c-1.12-6.83-3.55-13.82-7.47-18.85a28.384 28.384 0 00-2.31-2.59c-8-7.83-18.82-7.71-19.63-7.69h-.17a29.999 29.999 0 00-10.1 1.81"/></svg>