<svg viewBox="0 0 72 72" xmlns="http://www.w3.org/2000/svg"><path fill="#B3B3B3" d="M68 4v64H4V4h64m4-4H0v72h72V0z"/><path fill="none" stroke="#00A5FF" stroke-miterlimit="10" stroke-width=".1" d="M12.923 10.958h46.154c1.062 0 1.923.861 1.923 1.923v46.154a1.923 1.923 0 01-1.923 1.923H12.923A1.923 1.923 0 0111 59.035h0V12.881c0-1.062.861-1.923 1.923-1.923h0z"/><path fill="none" stroke="#00A5FF" stroke-miterlimit="10" stroke-width=".1" d="M18.254 4h35.492A2.254 2.254 0 0156 6.254v59.492A2.254 2.254 0 0153.746 68H18.254A2.254 2.254 0 0116 65.746V6.254A2.254 2.254 0 0118.254 4z"/><path fill="none" stroke="#00A5FF" stroke-miterlimit="10" stroke-width=".1" d="M68 18.254v35.492A2.254 2.254 0 0165.746 56H6.254A2.254 2.254 0 014 53.746V18.254A2.254 2.254 0 016.254 16h59.492A2.254 2.254 0 0168 18.254z"/><circle cx="36" cy="36" r="29" fill="none" stroke="#00A5FF" stroke-miterlimit="10" stroke-width=".1"/><g stroke-linecap="round" stroke-miterlimit="10" stroke-width="6" stroke="#fff" fill="none" stroke-linejoin="round"><path d="M65.086 55.5H6.877A2.877 2.877 0 014 52.623V17.248A2.248 2.248 0 016.248 15h59.446A2.306 2.306 0 0168 17.306v35.28a2.914 2.914 0 01-2.914 2.914zM5 16l15 16m47-16L52 32"/><path d="M47.064 33.552A5.885 5.885 0 0036 30.755a5.885 5.885 0 00-11.064 2.797c0 1.398.49 2.68 1.304 3.69l-.002.002L36 49.342l9.761-12.098-.002-.002a5.858 5.858 0 001.305-3.69z"/></g><path fill="#FFF" d="M65.086 55.5H6.877A2.877 2.877 0 014 52.623V17.248A2.248 2.248 0 016.248 15h59.446A2.306 2.306 0 0168 17.306v35.28a2.914 2.914 0 01-2.914 2.914z"/><path fill="#EA5A47" d="M47.064 33.552A5.885 5.885 0 0036 30.755a5.885 5.885 0 00-11.064 2.797c0 1.398.49 2.68 1.304 3.69l-.002.002L36 49.342l9.761-12.098-.002-.002a5.858 5.858 0 001.305-3.69z"/><g fill="none" stroke="#000" stroke-miterlimit="10" stroke-width="2"><path stroke-linecap="round" stroke-linejoin="round" d="M65.086 55.5H6.877A2.877 2.877 0 014 52.623V17.248A2.248 2.248 0 016.248 15h59.446A2.306 2.306 0 0168 17.306v35.28a2.914 2.914 0 01-2.914 2.914z"/><path stroke-linecap="round" d="M5 16l15 16m47-16L52 32"/><path stroke-linejoin="round" d="M47.064 33.552A5.885 5.885 0 0036 30.755a5.885 5.885 0 00-11.064 2.797c0 1.398.49 2.68 1.304 3.69l-.002.002L36 49.342l9.761-12.098-.002-.002a5.858 5.858 0 001.305-3.69z"/></g></svg>