<svg viewBox="0 0 72 72" xmlns="http://www.w3.org/2000/svg"><path fill="#B3B3B3" d="M68 4v64H4V4h64m4-4H0v72h72V0z"/><path fill="none" stroke="#00A5FF" stroke-miterlimit="10" stroke-width=".1" d="M12.923 10.958h46.154c1.062 0 1.923.861 1.923 1.923v46.154a1.923 1.923 0 01-1.923 1.923H12.923A1.923 1.923 0 0111 59.035h0V12.881c0-1.062.861-1.923 1.923-1.923h0z"/><path fill="none" stroke="#00A5FF" stroke-miterlimit="10" stroke-width=".1" d="M18.254 4h35.492A2.254 2.254 0 0156 6.254v59.492A2.254 2.254 0 0153.746 68H18.254A2.254 2.254 0 0116 65.746V6.254A2.254 2.254 0 0118.254 4z"/><path fill="none" stroke="#00A5FF" stroke-miterlimit="10" stroke-width=".1" d="M68 18.254v35.492A2.254 2.254 0 0165.746 56H6.254A2.254 2.254 0 014 53.746V18.254A2.254 2.254 0 016.254 16h59.492A2.254 2.254 0 0168 18.254z"/><circle cx="36" cy="36" r="29" fill="none" stroke="#00A5FF" stroke-miterlimit="10" stroke-width=".1"/><g stroke-linecap="round" stroke-miterlimit="10" stroke-width="6" stroke="#fff" fill="none" stroke-linejoin="round"><path d="M41.46 19.54l5.429-5.43 11 11-5.367 5.367"/><circle cx="31.769" cy="40.404" r="23"/><path d="M55.757 16.243l8.486-8.486"/></g><path fill="#9B9B9A" d="M39.11 21.888l7.778-7.778 11 11-7.778 7.778z"/><path fill="#3F3F3F" d="M46.034 22.212l4.478-4.478 7.377 7.377-5.367 5.367z"/><circle cx="31.769" cy="40.404" r="23" fill="#9B9B9A"/><path fill="#3F3F3F" d="M19.633 55.737c12.703 0 23-10.297 23-23a22.904 22.904 0 00-5.21-14.576C47.286 20.754 54.56 29.73 54.56 40.404c0 12.702-10.297 23-23 23-7.17 0-13.572-3.282-17.79-8.424 1.873.492 3.837.757 5.864.757z"/><g fill="none" stroke="#000" stroke-linecap="round" stroke-linejoin="round" stroke-miterlimit="10" stroke-width="2"><path d="M41.46 19.54l5.429-5.43 11 11-5.367 5.367"/><circle cx="31.769" cy="40.404" r="23"/><path d="M55.757 16.243l8.486-8.486"/></g></svg>