<svg viewBox="0 0 72 72" xmlns="http://www.w3.org/2000/svg"><path fill="#B3B3B3" d="M68 4v64H4V4h64m4-4H0v72h72V0z"/><path fill="none" stroke="#00A5FF" stroke-miterlimit="10" stroke-width=".1" d="M12.923 10.958h46.154c1.062 0 1.923.861 1.923 1.923v46.154a1.923 1.923 0 01-1.923 1.923H12.923A1.923 1.923 0 0111 59.035h0V12.881c0-1.062.861-1.923 1.923-1.923h0z"/><path fill="none" stroke="#00A5FF" stroke-miterlimit="10" stroke-width=".1" d="M18.254 4h35.492A2.254 2.254 0 0156 6.254v59.492A2.254 2.254 0 0153.746 68H18.254A2.254 2.254 0 0116 65.746V6.254A2.254 2.254 0 0118.254 4z"/><path fill="none" stroke="#00A5FF" stroke-miterlimit="10" stroke-width=".1" d="M68 18.254v35.492A2.254 2.254 0 0165.746 56H6.254A2.254 2.254 0 014 53.746V18.254A2.254 2.254 0 016.254 16h59.492A2.254 2.254 0 0168 18.254z"/><circle cx="36" cy="36" r="29" fill="none" stroke="#00A5FF" stroke-miterlimit="10" stroke-width=".1"/><g stroke-linecap="round" stroke-miterlimit="10" stroke-width="6" stroke="#fff" fill="none" stroke-linejoin="round"><path d="M31.54 58.56c1.442.286 2.93.44 4.455.44 12.68 0 23-10.32 23-23s-10.32-23-23-23-23 10.32-23 23a22.87 22.87 0 004.187 13.21"/><circle cx="26.79" cy="36" r="2"/><circle cx="36" cy="36" r="2"/><circle cx="45.21" cy="36" r="2"/><circle cx="-4.026" cy="64.73" r="2.5" transform="scale(-1 1) rotate(10.539)"/><circle cx="-13.58" cy="57.88" r="4.981" transform="scale(-1 1) rotate(10.539)"/></g><g fill="#fff"><path d="M17.09 50.75A23.87 23.87 0 0112.002 36c0-13.23 10.77-24 24-24s24 10.77 24 24-10.77 24-24 24c-1.955 0-3.855-.24-5.676-.684-5.919-1.48-10.33-4.34-13.24-8.567z"/><circle cx="23.48" cy="54.97" r="5"/><circle cx="-15.8" cy="62.94" r="2.5" transform="scale(-1 1)"/></g><path fill="none" stroke="#000" stroke-linecap="round" stroke-miterlimit="10" stroke-width="2" d="M31.54 58.56c1.442.286 2.93.44 4.455.44 12.68 0 23-10.32 23-23s-10.32-23-23-23-23 10.32-23 23a22.87 22.87 0 004.187 13.21"/><circle cx="26.79" cy="36" r="2"/><circle cx="36" cy="36" r="2"/><circle cx="45.21" cy="36" r="2"/><circle cx="-4.026" cy="64.73" r="2.5" transform="scale(-1 1) rotate(10.539)" fill="none" stroke="#000" stroke-miterlimit="10" stroke-width="2"/><circle cx="-13.58" cy="57.88" r="4.981" transform="scale(-1 1) rotate(10.539)" fill="none" stroke="#000" stroke-miterlimit="10" stroke-width="2"/></svg>