<svg viewBox="0 0 72 72" xmlns="http://www.w3.org/2000/svg"><path fill="#B3B3B3" d="M68 4v64H4V4h64m4-4H0v72h72V0z"/><path fill="none" stroke="#00A5FF" stroke-miterlimit="10" stroke-width=".1" d="M12.923 10.958h46.154c1.062 0 1.923.861 1.923 1.923v46.154a1.923 1.923 0 01-1.923 1.923H12.923A1.923 1.923 0 0111 59.035h0V12.881c0-1.062.861-1.923 1.923-1.923h0z"/><path fill="none" stroke="#00A5FF" stroke-miterlimit="10" stroke-width=".1" d="M18.254 4h35.492A2.254 2.254 0 0156 6.254v59.492A2.254 2.254 0 0153.746 68H18.254A2.254 2.254 0 0116 65.746V6.254A2.254 2.254 0 0118.254 4z"/><path fill="none" stroke="#00A5FF" stroke-miterlimit="10" stroke-width=".1" d="M68 18.254v35.492A2.254 2.254 0 0165.746 56H6.254A2.254 2.254 0 014 53.746V18.254A2.254 2.254 0 016.254 16h59.492A2.254 2.254 0 0168 18.254z"/><circle cx="36" cy="36" r="29" fill="none" stroke="#00A5FF" stroke-miterlimit="10" stroke-width=".1"/><path d="M5 42.273l14.352 6.108c0 .024-.003.047-.003.07.001 6.654 5.396 12.047 12.05 12.046 4.818-.001 8.962-2.837 10.889-6.923a7.986 7.986 0 004.37 1.297 8.032 8.032 0 007.876-6.475c.317.025.634.048.957.048 6.654-.002 12.047-5.397 12.045-12.05s-5.396-12.047-12.05-12.045c-.39 0-.774.022-1.154.058a8.034 8.034 0 00-11.53-4.696c-1.604-4.77-6.103-8.209-11.414-8.208-6.653.002-12.046 5.397-12.045 12.05 0 .55.05 1.089.122 1.62L5 31.327m0-5.83l9-4s-1-5 4-8m-13 34l9 4s-1 5 4 8" stroke-linecap="round" stroke-miterlimit="10" stroke-width="6" stroke="#fff" fill="none" stroke-linejoin="round"/><path fill="#61B2E4" d="M55.023 24.349c-.39 0-.775.022-1.155.058a8.034 8.034 0 00-11.529-4.697c-1.605-4.769-6.104-8.208-11.414-8.207-6.654.002-12.047 5.397-12.045 12.05 0 .55.05 1.088.121 1.62L4 31.496v11l14.889 5.884c0 .024-.004.047-.004.07.002 6.655 5.397 12.047 12.05 12.046 4.818-.001 8.962-2.837 10.889-6.923a7.986 7.986 0 004.37 1.297 8.032 8.032 0 007.877-6.475c.316.025.634.048.957.048 6.654-.002 12.046-5.397 12.045-12.05s-5.397-12.047-12.05-12.045z"/><path fill="#92D3F5" d="M55.486 24.349c-.39 0-.774.022-1.154.058a8.034 8.034 0 00-11.53-4.697c-1.604-4.769-6.103-8.208-11.414-8.207-6.653.002-12.046 5.397-12.045 12.05 0 .55.05 1.088.122 1.62l-3.978 1.692a12.093 12.093 0 015.852 6.846 8.034 8.034 0 0111.529 4.697c.38-.037.765-.06 1.155-.06 6.653 0 12.048 5.392 12.05 12.046 0 1.532-.297 2.992-.818 4.34.457.082.922.137 1.403.137a8.032 8.032 0 007.876-6.475c.317.025.634.048.958.048 6.653-.002 12.046-5.397 12.044-12.05s-5.396-12.047-12.05-12.045z"/><path d="M5 42.273l14.352 6.108c0 .024-.003.047-.003.07.001 6.654 5.396 12.047 12.05 12.046 4.818-.001 8.962-2.837 10.889-6.923a7.986 7.986 0 004.37 1.297 8.032 8.032 0 007.876-6.475c.317.025.634.048.957.048 6.654-.002 12.047-5.397 12.045-12.05s-5.396-12.047-12.05-12.045c-.39 0-.774.022-1.154.058a8.034 8.034 0 00-11.53-4.696c-1.604-4.77-6.103-8.209-11.414-8.208-6.653.002-12.046 5.397-12.045 12.05 0 .55.05 1.089.122 1.62L5 31.327m0-5.83l9-4s-1-5 4-8m-13 34l9 4s-1 5 4 8" fill="none" stroke="#000" stroke-linecap="round" stroke-linejoin="round" stroke-miterlimit="10" stroke-width="2"/></svg>