<svg viewBox="0 0 72 72" xmlns="http://www.w3.org/2000/svg"><path fill="#B3B3B3" d="M68 4v64H4V4h64m4-4H0v72h72V0z"/><path fill="none" stroke="#00A5FF" stroke-miterlimit="10" stroke-width=".1" d="M12.923 10.958h46.154c1.062 0 1.923.861 1.923 1.923h0v46.154a1.923 1.923 0 01-1.923 1.923H12.923A1.923 1.923 0 0111 59.035h0V12.881c0-1.062.861-1.923 1.923-1.923h0z"/><path fill="none" stroke="#00A5FF" stroke-miterlimit="10" stroke-width=".1" d="M18.254 4h35.492A2.254 2.254 0 0156 6.254v59.492A2.254 2.254 0 0153.746 68H18.254A2.254 2.254 0 0116 65.746V6.254A2.254 2.254 0 0118.254 4z"/><path fill="none" stroke="#00A5FF" stroke-miterlimit="10" stroke-width=".1" d="M68 18.254v35.492A2.254 2.254 0 0165.746 56H6.254A2.254 2.254 0 014 53.746V18.254A2.254 2.254 0 016.254 16h59.492A2.254 2.254 0 0168 18.254z"/><circle cx="36" cy="36" r="29" fill="none" stroke="#00A5FF" stroke-miterlimit="10" stroke-width=".1"/><g stroke-linecap="round" stroke-miterlimit="10" stroke-width="6" stroke="#fff" fill="none" stroke-linejoin="round"><ellipse cx="36" cy="36" rx="32.5" ry="13.5"/><path d="M36 32.5c13.52 0 25.107 3.303 30.005 8 1.605-1.54 2.495-3.228 2.495-5 0-7.18-14.55-13-32.5-13s-32.5 5.82-32.5 13c0 1.772.89 3.46 2.495 5 4.898-4.697 16.486-8 30.005-8z"/></g><ellipse cx="36" cy="36" rx="32.5" ry="13.5" fill="#3F3F3F"/><path fill="#9B9B9A" d="M36 32.5c13.52 0 25.107 3.303 30.005 8 1.605-1.54 2.495-3.228 2.495-5 0-7.18-14.55-13-32.5-13s-32.5 5.82-32.5 13c0 1.772.89 3.46 2.495 5 4.898-4.697 16.486-8 30.005-8z"/><g fill="none" stroke="#000" stroke-miterlimit="10" stroke-width="2"><ellipse cx="36" cy="36" rx="32.5" ry="13.5"/><path d="M36 32.5c13.52 0 25.107 3.303 30.005 8 1.605-1.54 2.495-3.228 2.495-5 0-7.18-14.55-13-32.5-13s-32.5 5.82-32.5 13c0 1.772.89 3.46 2.495 5 4.898-4.697 16.486-8 30.005-8z"/></g></svg>