<svg viewBox="0 0 72 72" xmlns="http://www.w3.org/2000/svg"><path fill="#b3b3b3" d="M68 4v64H4V4h64m4-4H0v72h72V0z"/><path fill="none" stroke="#00a5ff" stroke-miterlimit="10" stroke-width=".1" d="M12.923 10.958h46.154A1.923 1.923 0 0161 12.881v46.154a1.923 1.923 0 01-1.923 1.923H12.923A1.923 1.923 0 0111 59.035V12.881a1.923 1.923 0 011.923-1.923z"/><rect x="16" y="4" rx="2.254" width="40" height="64" fill="none" stroke="#00a5ff" stroke-miterlimit="10" stroke-width=".1"/><rect x="16" y="4" rx="2.254" width="40" height="64" transform="rotate(90 36 36)" fill="none" stroke="#00a5ff" stroke-miterlimit="10" stroke-width=".1"/><circle cx="36" cy="36" r="29" fill="none" stroke="#00a5ff" stroke-miterlimit="10" stroke-width=".1"/><g stroke-linecap="round" stroke-miterlimit="10" stroke-width="6" stroke="#fff" fill="none" stroke-linejoin="round"><path d="M26.84 7.481V4.972h17.306v2.509m0 57.176v2.393H26.84v-2.393"/><rect x="19.125" y="9.871" rx="11" width="32.737" height="52.264"/><path d="M31.34 31.689h8.307v8.934H31.34zm0 10.85h8.307v8.934H31.34zm0-21.699h8.307v8.934H31.34z"/></g><rect x="19.125" y="9.871" rx="11" width="32.737" height="52.264" fill="#ea5a47"/><path d="M46.414 10.743l-6.186-.872c7.652 1.92 6.678 13.537 6.786 15.785 1.757 36.601-12.681 36.636-13.41 36.678L43.012 62h.06A9.113 9.113 0 0052 52.987V19.473s-.615-5.82-5.586-8.73zM33.604 62.41l-.05.001.05-.001z" fill="#d22f27"/><rect x="29.35" y="18.332" rx="2" width="12.286" height="35.618" fill="#fff"/><path fill="#3f3f3f" d="M26.84 8.018V4.972h17.306v3.046m0 56.166v2.866H26.84v-2.866"/><g fill="none" stroke="#000" stroke-linecap="round" stroke-linejoin="round"><path stroke-width="2" d="M26.84 7.481V4.972h17.306v2.509m0 57.176v2.393H26.84v-2.393"/><rect x="19.125" y="9.871" rx="11" width="32.737" height="52.264" stroke-width="2"/><path d="M31.34 31.689h8.307v8.934H31.34zm0 10.85h8.307v8.934H31.34zm0-21.699h8.307v8.934H31.34z" stroke-width="1.5"/></g></svg>