<svg viewBox="0 0 72 72" xmlns="http://www.w3.org/2000/svg"><path fill="#B3B3B3" d="M68 4v64H4V4h64m4-4H0v72h72V0z"/><path fill="none" stroke="#00A5FF" stroke-miterlimit="10" stroke-width=".1" d="M12.923 10.958h46.154c1.062 0 1.923.861 1.923 1.923v46.154a1.923 1.923 0 01-1.923 1.923H12.923A1.923 1.923 0 0111 59.035h0V12.881c0-1.062.861-1.923 1.923-1.923h0z"/><path fill="none" stroke="#00A5FF" stroke-miterlimit="10" stroke-width=".1" d="M18.254 4h35.492A2.254 2.254 0 0156 6.254v59.492A2.254 2.254 0 0153.746 68H18.254A2.254 2.254 0 0116 65.746V6.254A2.254 2.254 0 0118.254 4z"/><path fill="none" stroke="#00A5FF" stroke-miterlimit="10" stroke-width=".1" d="M68 18.254v35.492A2.254 2.254 0 0165.746 56H6.254A2.254 2.254 0 014 53.746V18.254A2.254 2.254 0 016.254 16h59.492A2.254 2.254 0 0168 18.254z"/><circle cx="36" cy="36" r="29" fill="none" stroke="#00A5FF" stroke-miterlimit="10" stroke-width=".1"/><g stroke-linecap="round" stroke-miterlimit="10" stroke-width="6" stroke="#fff" fill="none" stroke-linejoin="round"><path d="M29.579 36.171l21.877-21.877s1.492-.85 4.61 2.268 2.616 4.958 2.616 4.958L36.805 43.397"/><path d="M19.743 39.09c3.905-3.905 10.237-3.905 14.142 0 3.905 3.906 3.905 10.238 0 14.143l-4.073 4.073L15.67 43.164l4.073-4.073zm-6.545 7.191l-3.863.991m9.766 5.923l-3.928 3.831m11.069 2.444l-1.099 3.666"/></g><path fill="none" stroke="#FCEA2B" stroke-linecap="round" stroke-linejoin="round" stroke-miterlimit="10" stroke-width="2" d="M13.198 46.281l-3.863.991m9.766 5.923l-3.928 3.831m11.069 2.444l-1.099 3.666"/><path fill="#D0CFCE" d="M56.487 17c-1.958-1.958-3.994-3.47-5.03-2.706L29.578 36.17c1.278.545 2.872 1.509 3.885 2.522 1.012 1.012 2.805 3.792 3.35 5.071l21.898-22.456c-.042-.464-.217-2.3-2.225-4.308z"/><path fill="#D0CFCE" d="M20.45 38.215l-4.78 4.949 14.142 14.142 5.141-5.332c1.7-1.699 1.547-3.797 1.547-6.201s-.915-4.982-2.615-6.682c-3.51-3.51-9.925-4.386-13.435-.876z"/><path fill="#9B9B9A" d="M35.814 39.837c.446.633.7 3.22 1 3.927l21.898-22.456c-.019-.205-.106-2.136-.647-2.735-.311-.344-1.03.73-1.314.327L35.814 39.837z"/><path fill="#9B9B9A" d="M27.41 54.904l2.402 2.402 4.799-4.881c1.7-1.7 2.389-4.545 2.389-6.949 0-.799-.393-2.873-.886-3.455-.505-.598-1.117.299-1.52-.39-.193-.33.551 2.335-.59 5.75-1.14 3.416-6.594 7.523-6.594 7.523z"/><g fill="none" stroke="#000" stroke-linecap="round" stroke-linejoin="round" stroke-miterlimit="10" stroke-width="2"><path d="M29.579 36.171l21.877-21.877s1.492-.85 4.61 2.268 2.616 4.958 2.616 4.958L36.805 43.397"/><path d="M19.743 39.09c3.905-3.905 10.237-3.905 14.142 0 3.905 3.906 3.905 10.238 0 14.143l-4.073 4.073L15.67 43.164l4.073-4.073zm-6.545 7.191l-3.863.991m9.766 5.923l-3.928 3.831m11.069 2.444l-1.099 3.666"/></g><path d="M13.198 46.281l-3.863.991m9.766 5.923l-3.928 3.831m11.069 2.444l-1.099 3.666" fill="none" stroke="#FCEA2B" stroke-linecap="round" stroke-linejoin="round" stroke-miterlimit="10" stroke-width="2.1"/></svg>