<svg viewBox="0 0 72 72" xmlns="http://www.w3.org/2000/svg"><path fill="#b3b3b3" d="M68 4v64H4V4h64m4-4H0v72h72V0z"/><path fill="none" stroke="#00a5ff" stroke-miterlimit="10" stroke-width=".1" d="M12.923 10.958h46.154A1.923 1.923 0 0161 12.881v46.154a1.923 1.923 0 01-1.923 1.923H12.923A1.923 1.923 0 0111 59.035V12.881a1.923 1.923 0 011.923-1.923z"/><rect x="16" y="4" rx="2.254" ry="2.254" width="40" height="64" fill="none" stroke="#00a5ff" stroke-miterlimit="10" stroke-width=".1"/><rect x="16" y="4" rx="2.254" ry="2.254" width="40" height="64" transform="rotate(90 36 36)" fill="none" stroke="#00a5ff" stroke-miterlimit="10" stroke-width=".1"/><circle cx="36" cy="36" r="29" fill="none" stroke="#00a5ff" stroke-miterlimit="10" stroke-width=".1"/><path d="M6.5 34.5s4 2.5 4.35 4.181C12.3 43.045 17.723 56 37.687 56 61.064 56 64.5 35.5 64.5 35.5s-20.85 1.01-27.806 1c-6.429-.01-25.694-1-25.694-1zm1 0V32m-1.671-1.5s0-11.7 1.671-13.37S9.171 30.5 9.171 30.5z" stroke-linecap="round" stroke-miterlimit="10" stroke-width="6" stroke="#fff" fill="none" stroke-linejoin="round"/><path fill="#a57939" d="M6.5 34.5s4 2.5 4.35 4.181C12.3 43.045 17.723 56 37.687 56 61.064 56 64.5 35.5 64.5 35.5H11z"/><path fill="#6a462f" d="M50.21 37.005S49.5 51.5 44.5 54.5s18-2 20-19z"/><path fill="#ea5a47" d="M5.89 30s0-11.266 1.61-12.875S9.11 30 9.11 30z"/><path fill="#f1b31c" d="M6.695 30.5s0-5.633.805-6.438.805 6.438.805 6.438z"/><path fill="#fcea2b" d="M7.129 30s0-1.6.371-1.971S7.871 30 7.871 30z"/><g fill="none" stroke="#000" stroke-linecap="round" stroke-linejoin="round"><path stroke-width="2" d="M6.5 34.5s4 2.5 4.35 4.181C12.3 43.045 17.723 56 37.687 56 61.064 56 64.5 35.5 64.5 35.5s-20.85 1.01-27.806 1c-6.429-.01-25.694-1-25.694-1z"/><path d="M7.5 34.5V32m-1.671-1.5s0-11.7 1.671-13.37S9.171 30.5 9.171 30.5z"/></g></svg>