<svg viewBox="0 0 72 72" xmlns="http://www.w3.org/2000/svg"><path fill="#b3b3b3" d="M68 4v64H4V4h64m4-4H0v72h72V0z"/><path fill="none" stroke="#00a5ff" stroke-miterlimit="10" stroke-width=".1" d="M12.923 10.958h46.154A1.923 1.923 0 0161 12.881v46.154a1.923 1.923 0 01-1.923 1.923H12.923A1.923 1.923 0 0111 59.035V12.881a1.923 1.923 0 011.923-1.923z"/><rect x="16" y="4" rx="2.254" width="40" height="64" fill="none" stroke="#00a5ff" stroke-miterlimit="10" stroke-width=".1"/><rect x="16" y="4" rx="2.254" width="40" height="64" transform="rotate(90 36 36)" fill="none" stroke="#00a5ff" stroke-miterlimit="10" stroke-width=".1"/><circle cx="36" cy="36" r="29" fill="none" stroke="#00a5ff" stroke-miterlimit="10" stroke-width=".1"/><g stroke-linecap="round" stroke-miterlimit="10" stroke-width="6" stroke="#fff" fill="none" stroke-linejoin="round"><path d="M20.382 26.398l-6.288-10.464-3.078-1.04 1.13 10.144M44.245 39.37l-18.14-16.75-2.57-.11 9.535 15.018"/><circle cx="32.453" cy="44.192" transform="rotate(-71.324 32.455 44.195)" r="2"/><circle cx="37.772" cy="45.77" transform="rotate(-71.324 37.775 45.773)" r="2"/><path d="M43.26 34.33l11.434 3.285a10.836 10.836 0 013.955 2.093c2.86 2.385 7.653 6.845 4.274 7.425-4.643.798-27.549-6.019-34.245-8.128-6.695-2.109-13.907-6.09-18.41-9.464-3.94-2.953 2.244-1.917 2.244-1.917s7.116 1.048 10.042 1.8l2.941.755"/></g><path fill="#d0cfce" d="M43.137 33.535L55 37.66a10.794 10.794 0 013.315 1.854c2.806 2.31 8.067 7.07 4.57 7.67-4.644.798-27.55-6.019-34.245-8.128-6.696-2.109-13.908-6.09-18.41-9.464-3.941-2.952 2.243-1.917 2.243-1.917s7.116 1.048 10.041 1.8l3.277.083"/><path fill="#9b9b9a" d="M22.938 29.423L14.69 16.11l-4.345-1.645 1.374 13.492M43.792 39.95L26.105 22.62l-2.57-.11 9.908 15.605"/><path fill="none" stroke="#000" stroke-linecap="round" stroke-linejoin="round" stroke-miterlimit="10" stroke-width="1.56" d="M20.382 26.398l-6.288-10.464-3.078-1.04 1.13 10.144M44.245 39.37l-18.14-16.75-2.57-.11 9.535 15.018"/><circle cx="32.453" cy="44.192" transform="rotate(-71.324 32.455 44.195)" r="2"/><circle cx="37.772" cy="45.77" transform="rotate(-71.324 37.775 45.773)" r="2"/><path fill="none" stroke="#000" stroke-linecap="round" stroke-linejoin="round" stroke-miterlimit="10" stroke-width="1.56" d="M43.26 34.33l11.434 3.285a10.836 10.836 0 013.955 2.093c2.86 2.385 7.653 6.845 4.274 7.425-4.643.798-27.549-6.019-34.245-8.128-6.695-2.109-13.907-6.09-18.41-9.464-3.94-2.953 2.244-1.917 2.244-1.917s7.116 1.048 10.042 1.8l2.941.755"/></svg>