<svg viewBox="0 0 72 72" xmlns="http://www.w3.org/2000/svg"><path fill="#B3B3B3" d="M68 4v64H4V4h64m4-4H0v72h72V0z"/><path fill="none" stroke="#00A5FF" stroke-miterlimit="10" stroke-width=".1" d="M12.923 10.958h46.154c1.062 0 1.923.861 1.923 1.923v46.154a1.923 1.923 0 01-1.923 1.923H12.923A1.923 1.923 0 0111 59.035h0V12.881c0-1.062.861-1.923 1.923-1.923h0z"/><path fill="none" stroke="#00A5FF" stroke-miterlimit="10" stroke-width=".1" d="M18.254 4h35.492A2.254 2.254 0 0156 6.254v59.492A2.254 2.254 0 0153.746 68H18.254A2.254 2.254 0 0116 65.746V6.254A2.254 2.254 0 0118.254 4z"/><path fill="none" stroke="#00A5FF" stroke-miterlimit="10" stroke-width=".1" d="M68 18.254v35.492A2.254 2.254 0 0165.746 56H6.254A2.254 2.254 0 014 53.746V18.254A2.254 2.254 0 016.254 16h59.492A2.254 2.254 0 0168 18.254z"/><circle cx="36" cy="36" r="29" fill="none" stroke="#00A5FF" stroke-miterlimit="10" stroke-width=".1"/><g stroke-linecap="round" stroke-miterlimit="10" stroke-width="6" stroke="#fff" fill="none" stroke-linejoin="round"><circle cx="36" cy="36" r="23"/><path d="M31.78 31.463A4.464 4.464 0 1127.317 27c2.463 0 4.463 2 4.463 4.463"/><path d="M29.317 31.925a2 2 0 11-4.001-.001 2 2 0 014.001.001m20.463-.462A4.464 4.464 0 1145.317 27c2.462 0 4.463 2 4.463 4.463"/><path d="M47.317 31.925a2 2 0 11-4.001-.001 2 2 0 014.001.001M22.855 31c0-2.462 2-4.463 4.462-4.463s4.463 2 4.463 4.463"/><path d="M40.855 31c0-2.462 2-4.463 4.462-4.463s4.463 2 4.463 4.463M29 43c1.284-.638 3.985-1.03 6.842-.998 2.624.03 4.99.414 6.158.998"/></g><path fill="#FCEA2B" d="M36 13.2c-12.572 0-22.8 10.228-22.8 22.8 0 12.572 10.228 22.8 22.8 22.8 12.572 0 22.8-10.228 22.8-22.8 0-12.572-10.228-22.8-22.8-22.8z"/><path fill="#FFF" d="M31.58 31.346a4.464 4.464 0 11-4.463-4.463 4.467 4.467 0 014.463 4.464m18-.001a4.464 4.464 0 11-4.463-4.463 4.467 4.467 0 014.463 4.464"/><circle cx="36" cy="36" r="23" fill="none" stroke="#000" stroke-miterlimit="10" stroke-width="2"/><path fill="none" stroke="#000" stroke-miterlimit="10" stroke-width="2" d="M31.78 31.463A4.464 4.464 0 1127.317 27c2.463 0 4.463 2 4.463 4.463"/><path d="M29.317 31.925a2 2 0 11-4.001-.001 2 2 0 014.001.001"/><path fill="none" stroke="#000" stroke-miterlimit="10" stroke-width="2" d="M49.78 31.463A4.464 4.464 0 1145.317 27c2.462 0 4.463 2 4.463 4.463"/><path d="M47.317 31.925a2 2 0 11-4.001-.001 2 2 0 014.001.001M22.855 31c0-2.462 2-4.463 4.462-4.463s4.463 2 4.463 4.463"/><path d="M40.855 31c0-2.462 2-4.463 4.462-4.463s4.463 2 4.463 4.463"/><path fill="none" stroke="#000" stroke-linecap="round" stroke-linejoin="round" stroke-miterlimit="10" stroke-width="2" d="M29 43c1.284-.638 3.985-1.03 6.842-.998 2.624.03 4.99.414 6.158.998"/></svg>