<svg viewBox="0 0 72 72" xmlns="http://www.w3.org/2000/svg"><path fill="#B3B3B3" d="M68 4v64H4V4h64m4-4H0v72h72V0z"/><path fill="none" stroke="#00A5FF" stroke-miterlimit="10" stroke-width=".1" d="M12.923 10.958h46.154c1.062 0 1.923.861 1.923 1.923h0v46.154a1.923 1.923 0 01-1.923 1.923H12.923A1.923 1.923 0 0111 59.035h0V12.881c0-1.062.861-1.923 1.923-1.923h0z"/><path fill="none" stroke="#00A5FF" stroke-miterlimit="10" stroke-width=".1" d="M18.254 4h35.492A2.254 2.254 0 0156 6.254v59.492A2.254 2.254 0 0153.746 68H18.254A2.254 2.254 0 0116 65.746V6.254A2.254 2.254 0 0118.254 4z"/><path fill="none" stroke="#00A5FF" stroke-miterlimit="10" stroke-width=".1" d="M6.254 56A2.254 2.254 0 014 53.746V18.254A2.254 2.254 0 016.254 16h59.492A2.254 2.254 0 0168 18.254v35.492A2.254 2.254 0 0165.746 56"/><circle cx="36" cy="36" r="29" fill="none" stroke="#00A5FF" stroke-miterlimit="10" stroke-width=".1"/><g stroke-linecap="round" stroke-miterlimit="10" stroke-width="6" stroke="#fff" fill="none" stroke-linejoin="round"><path d="M52 52.38c.877-1.631 1-5.38 1-7.38 0-4-4-11-4-11m-5 2s3 6.728 3 10c0 3.065-1 8-1 10m-26-3.6c-.877-1.631-1-5.4-1-7.4 0-4 4-11 4-11m5 2s-3 6.728-3 10c0 3.065 1 8 1 10M40.5 32.82c.413-.344 2.246-1.792 4.909-1.636 2.161.126 3.61 1.233 4.091 1.636m-27 0c.413-.344 2.246-1.792 4.909-1.636 2.161.126 3.61 1.233 4.091 1.636"/><circle cx="36" cy="36" r="23"/><circle cx="36" cy="46.6" r="4.759"/></g><path d="M52 52.38c.877-1.631 1-5.38 1-7.38 0-4-4-11-4-11m-5 2s3 6.728 3 10c0 3.065-1 8-1 10m-26-3.6c-.877-1.631-1-5.4-1-7.4 0-4 4-11 4-11m5 2s-3 6.728-3 10c0 3.065 1 8 1 10" fill="none" stroke="#000" stroke-linecap="round" stroke-linejoin="round" stroke-miterlimit="10" stroke-width="2"/><path fill="#FCEA2B" d="M36.2 13.32c-12.57 0-22.8 10.23-22.8 22.8s10.23 22.8 22.8 22.8S59 48.69 59 36.12s-10.23-22.8-22.8-22.8z"/><path fill-rule="evenodd" d="M35.93 51.58c-2.461 0-4.742-2.368-4.742-4.987s2.444-4.66 4.905-4.66 4.701 2.205 4.701 4.823c0 2.619-2.403 4.823-4.864 4.823z"/><path fill="#fff" d="M31.37 45.29c2.025 1.288 7.318 1.288 9.26 0L36 41.285z"/><path fill="#92d3f5" d="M29.7 32.02c-5.762 9.541-3.86 14.27-3.696 23.98 0 1.803-5.146-2.412-6-4-2.17-5.92-.399-13.81 2.5-19.18 2.887-1.622 6.992-2.084 7.196-.803zm12.6.38c5.762 9.541 3.86 14.27 3.696 23.98 0 1.803 5.146-2.412 6-4 2.17-5.92.399-13.81-2.5-19.18-2.887-1.622-6.992-2.084-7.196-.803z"/><g fill="none" stroke="#000" stroke-miterlimit="10" stroke-width="2"><path stroke-linecap="round" stroke-linejoin="round" d="M40.5 32.82c.413-.344 2.246-1.792 4.909-1.636 2.161.126 3.61 1.233 4.091 1.636m-27 0c.413-.344 2.246-1.792 4.909-1.636 2.161.126 3.61 1.233 4.091 1.636"/><circle cx="36" cy="36" r="23"/><circle cx="36" cy="46.6" r="4.759" stroke-linecap="round" stroke-linejoin="round"/></g></svg>