<svg viewBox="0 0 72 72" xmlns="http://www.w3.org/2000/svg"><path fill="#B3B3B3" d="M68 4v64H4V4h64m4-4H0v72h72V0z"/><path fill="none" stroke="#00A5FF" stroke-miterlimit="10" stroke-width=".1" d="M12.923 10.958h46.154c1.062 0 1.923.861 1.923 1.923v46.154a1.923 1.923 0 01-1.923 1.923H12.923A1.923 1.923 0 0111 59.035h0V12.881c0-1.062.861-1.923 1.923-1.923h0z"/><path fill="none" stroke="#00A5FF" stroke-miterlimit="10" stroke-width=".1" d="M18.254 4h35.492A2.254 2.254 0 0156 6.254v59.492A2.254 2.254 0 0153.746 68H18.254A2.254 2.254 0 0116 65.746V6.254A2.254 2.254 0 0118.254 4z"/><path fill="none" stroke="#00A5FF" stroke-miterlimit="10" stroke-width=".1" d="M68 18.254v35.492A2.254 2.254 0 0165.746 56H6.254A2.254 2.254 0 014 53.746V18.254A2.254 2.254 0 016.254 16h59.492A2.254 2.254 0 0168 18.254z"/><circle cx="36" cy="36" r="29" fill="none" stroke="#00A5FF" stroke-miterlimit="10" stroke-width=".1"/><g stroke-linecap="round" stroke-miterlimit="10" stroke-width="6" stroke="#fff" fill="none" stroke-linejoin="round"><circle cx="36" cy="36" r="23"/><path d="M22 25c1-1 4-7 10-2m19 2c-1-1-4-7-10-2m-9.22 8.463A4.464 4.464 0 1127.317 27c2.463 0 4.463 2 4.463 4.463"/><path d="M29.317 31.925a2 2 0 11-4.001-.001 2 2 0 014.001.001m20.463-.462A4.464 4.464 0 1145.317 27c2.462 0 4.463 2 4.463 4.463"/><path d="M47.317 31.925a2 2 0 11-4.001-.001 2 2 0 014.001.001M28 46c.27-.356 3.31-4.218 8.421-4.004C41.026 42.19 43.65 45.537 44 46H28z"/></g><path fill="#FCEA2B" d="M36 13.2c-12.572 0-22.8 10.228-22.8 22.8 0 12.572 10.228 22.8 22.8 22.8 12.572 0 22.8-10.228 22.8-22.8 0-12.572-10.228-22.8-22.8-22.8z"/><path fill="#FFF" d="M31.58 31.346a4.464 4.464 0 11-4.463-4.463 4.467 4.467 0 014.463 4.464m18-.001a4.464 4.464 0 11-4.463-4.463 4.467 4.467 0 014.463 4.464M27.8 45.884c.27-.356 3.31-4.218 8.42-4.004 4.606.193 7.23 3.541 7.58 4.004h-16z"/><circle cx="36" cy="36" r="23" fill="none" stroke="#000" stroke-miterlimit="10" stroke-width="2"/><path fill="none" stroke="#000" stroke-linecap="round" stroke-linejoin="round" stroke-miterlimit="10" stroke-width="2" d="M22 25c1-1 4-7 10-2m19 2c-1-1-4-7-10-2"/><path fill="none" stroke="#000" stroke-miterlimit="10" stroke-width="2" d="M31.78 31.463A4.464 4.464 0 1127.317 27c2.463 0 4.463 2 4.463 4.463"/><path d="M29.317 31.925a2 2 0 11-4.001-.001 2 2 0 014.001.001"/><path fill="none" stroke="#000" stroke-miterlimit="10" stroke-width="2" d="M49.78 31.463A4.464 4.464 0 1145.317 27c2.462 0 4.463 2 4.463 4.463"/><path d="M47.317 31.925a2 2 0 11-4.001-.001 2 2 0 014.001.001"/><path fill="none" stroke="#000" stroke-linecap="round" stroke-linejoin="round" stroke-miterlimit="10" stroke-width="2" d="M28 46c.27-.356 3.31-4.218 8.421-4.004C41.026 42.19 43.65 45.537 44 46H28z"/></svg>