<svg viewBox="0 0 72 72" xmlns="http://www.w3.org/2000/svg"><path fill="#B3B3B3" d="M68 4v64H4V4h64m4-4H0v72h72V0z"/><path fill="none" stroke="#00A5FF" stroke-miterlimit="10" stroke-width=".1" d="M12.923 10.958h46.154c1.062 0 1.923.861 1.923 1.923h0v46.154a1.923 1.923 0 01-1.923 1.923H12.923A1.923 1.923 0 0111 59.035h0V12.881c0-1.062.861-1.923 1.923-1.923h0z"/><path fill="none" stroke="#00A5FF" stroke-miterlimit="10" stroke-width=".1" d="M18.254 4h35.492A2.254 2.254 0 0156 6.254v59.492A2.254 2.254 0 0153.746 68H18.254A2.254 2.254 0 0116 65.746V6.254A2.254 2.254 0 0118.254 4z"/><path fill="none" stroke="#00A5FF" stroke-miterlimit="10" stroke-width=".1" d="M68 18.254v35.492A2.254 2.254 0 0165.746 56H6.254A2.254 2.254 0 014 53.746V18.254A2.254 2.254 0 016.254 16h59.492A2.254 2.254 0 0168 18.254z"/><circle cx="36" cy="36" r="29" fill="none" stroke="#00A5FF" stroke-miterlimit="10" stroke-width=".1"/><g stroke-linecap="round" stroke-miterlimit="10" stroke-width="6" stroke="#fff" fill="none" stroke-linejoin="round"><path d="M18 39.884l2-2m0 6l4-4m30 0l-2-2m0 6l-4-4M29.56 32.43a2.557 2.557 0 11-2.556-2.556 2.558 2.558 0 012.556 2.556m18 0a2.557 2.557 0 11-2.556-2.556 2.558 2.558 0 012.556 2.556"/><circle cx="36" cy="36" r="23"/><path d="M33.5 32.43c0 3.59-2.914 6.5-6.5 6.5s-6.5-2.91-6.5-6.5c0-3.586 2.914-6.5 6.5-6.5s6.5 2.914 6.5 6.5m18 0c0 3.59-2.914 6.5-6.5 6.5s-6.5-2.91-6.5-6.5c0-3.586 2.914-6.5 6.5-6.5s6.5 2.914 6.5 6.5m-29.81-9.99c.352-.406 1.928-2.129 4.582-2.405 2.153-.223 3.761.637 4.301.957m10.857-.022c.464-.272 2.509-1.4 5.111-.81 2.111.478 3.359 1.808 3.768 2.284M42.5 46.5c-1.284.638-11.832.584-13 0"/></g><path d="M18 39.884l2-2m0 6l4-4m30 0l-2-2m0 6l-4-4" fill="none" stroke="#000" stroke-linecap="round" stroke-linejoin="round" stroke-miterlimit="10" stroke-width="2"/><path fill="#FCEA2B" d="M36 13c-12.68 0-23 10.32-23 23s10.32 23 23 23 23-10.32 23-23-10.32-23-23-23z"/><path fill="#FFF" d="M33.5 32.31c0 3.59-2.914 6.5-6.5 6.5s-6.5-2.91-6.5-6.5c0-3.586 2.914-6.5 6.5-6.5s6.5 2.914 6.5 6.5m18 0c0 3.59-2.914 6.5-6.5 6.5s-6.5-2.91-6.5-6.5c0-3.586 2.914-6.5 6.5-6.5s6.5 2.914 6.5 6.5"/><path fill="none" stroke="#EA5A47" stroke-linecap="round" stroke-linejoin="round" stroke-miterlimit="10" stroke-width="2" d="M18 42.553l2-2m0 6l4-4m30 0l-2-2m0 6l-4-4"/><path d="M29.56 32.43a2.557 2.557 0 11-2.556-2.556 2.558 2.558 0 012.556 2.556m18 0a2.557 2.557 0 11-2.556-2.556 2.558 2.558 0 012.556 2.556"/><circle cx="36" cy="36" r="23" fill="none" stroke="#000" stroke-miterlimit="10" stroke-width="2"/><path fill="none" stroke="#000" stroke-miterlimit="10" stroke-width="2" d="M33.5 32.43c0 3.59-2.914 6.5-6.5 6.5s-6.5-2.91-6.5-6.5c0-3.586 2.914-6.5 6.5-6.5s6.5 2.914 6.5 6.5m18 0c0 3.59-2.914 6.5-6.5 6.5s-6.5-2.91-6.5-6.5c0-3.586 2.914-6.5 6.5-6.5s6.5 2.914 6.5 6.5"/><path fill="none" stroke="#000" stroke-linecap="round" stroke-linejoin="round" stroke-miterlimit="10" stroke-width="2" d="M21.69 22.44c.352-.406 1.928-2.129 4.582-2.405 2.153-.223 3.761.637 4.301.957m10.857-.022c.464-.272 2.509-1.4 5.111-.81 2.111.478 3.359 1.808 3.768 2.284M42.5 46.5c-1.284.638-11.832.584-13 0"/></svg>