<svg viewBox="0 0 72 72" xmlns="http://www.w3.org/2000/svg"><path fill="#B3B3B3" d="M68 4v64H4V4h64m4-4H0v72h72V0z"/><path fill="none" stroke="#00A5FF" stroke-miterlimit="10" stroke-width=".1" d="M12.923 10.958h46.154c1.062 0 1.923.861 1.923 1.923v46.154a1.923 1.923 0 01-1.923 1.923H12.923A1.923 1.923 0 0111 59.035h0V12.881c0-1.062.861-1.923 1.923-1.923h0z"/><path fill="none" stroke="#00A5FF" stroke-miterlimit="10" stroke-width=".1" d="M18.254 4h35.492A2.254 2.254 0 0156 6.254v59.492A2.254 2.254 0 0153.746 68H18.254A2.254 2.254 0 0116 65.746V6.254A2.254 2.254 0 0118.254 4z"/><path fill="none" stroke="#00A5FF" stroke-miterlimit="10" stroke-width=".1" d="M68 18.254v35.492A2.254 2.254 0 0165.746 56H6.254A2.254 2.254 0 014 53.746V18.254A2.254 2.254 0 016.254 16h59.492A2.254 2.254 0 0168 18.254z"/><circle cx="36" cy="36" r="29" fill="none" stroke="#00A5FF" stroke-miterlimit="10" stroke-width=".1"/><g stroke-linecap="round" stroke-miterlimit="10" stroke-width="6" stroke="#fff" fill="none" stroke-linejoin="round"><path d="M17.925 52.975l-6.625-.017s-1.063 0-1.063-1.25-.062-3.562-.062-3.562.683-9.48 2.625-10.625c1.625-.959 46.544-.704 53.136-.578a.98.98 0 01.95.813c.237 1.335.68 4.097.726 6.327.063 3.063-.125 8-.125 8l-4.764.795m-12.382.183l-20.166-.054"/><path d="M11.3 40.5l-4.563.313L5.3 44.124"/><circle cx="56.48" cy="53.292" r="3"/><circle cx="23.98" cy="53.292" r="3"/><path d="M45.55 43.028l18.125.16.04-.007M13.278 46.31s4.024-.949 7.71-3.498l19.5.172"/><path d="M17.925 52.975l-6.625-.017s-1.063 0-1.063-1.25-.062-3.562-.062-3.562.683-9.48 2.625-10.625c1.625-.959 46.544-.704 53.136-.578a.98.98 0 01.95.813c.237 1.335.68 4.097.726 6.327.063 3.063-.125 8-.125 8"/><path d="M40.487 40.318h5.063v12.667h-5.063zM11.16 50.656h2.577l1.073-1.361"/></g><path fill="#EA5A47" d="M17.925 53.975L11.3 52.958s-1.063 0-1.063-1.25-.062-3.562-.062-3.562.683-9.48 2.625-10.625c1.625-.959 46.544-.704 53.136-.578a.98.98 0 01.95.813c.237 1.335.68 4.097.726 6.327.063 3.063-.125 8-.125 8l-4.764 1.795"/><path fill="#3F3F3F" d="M13.133 38.083s-2.312 3.167-2.125 9.042c0 0 3.917 1.458 9.98-4.313l42.937 1.313s2.229-1.23 2.333-6.292c0 0-45.875-2.166-53.125.25z"/><path fill="none" d="M50.341 53.061l-20.166-.054"/><circle cx="56.48" cy="53.292" r="3" fill="#D0CFCE"/><circle cx="23.98" cy="53.292" r="3" fill="#D0CFCE"/><path fill="#3F3F3F" d="M40.487 40.318h5.063v12.667h-5.063z"/><path fill="#FCEA2B" d="M11.16 50.656h2.577l1.073-2.312h-2.88c-.426 0-.77.399-.77.891v1.421z"/><g fill="none" stroke="#000" stroke-linecap="round" stroke-linejoin="round" stroke-miterlimit="10" stroke-width="2"><path d="M17.925 52.975l-6.625-.017s-1.063 0-1.063-1.25-.062-3.562-.062-3.562.683-9.48 2.625-10.625c1.625-.959 46.544-.704 53.136-.578a.98.98 0 01.95.813c.237 1.335.68 4.097.726 6.327.063 3.063-.125 8-.125 8l-4.764.795m-12.382.183l-20.166-.054"/><path d="M11.3 40.5l-4.563.313L5.3 44.124"/><circle cx="56.48" cy="53.292" r="3"/><circle cx="23.98" cy="53.292" r="3"/><path d="M45.55 43.028l18.125.16.04-.007M13.278 46.31s4.024-.949 7.71-3.498l19.5.172"/><path d="M17.925 52.975l-6.625-.017s-1.063 0-1.063-1.25-.062-3.562-.062-3.562.683-9.48 2.625-10.625c1.625-.959 46.544-.704 53.136-.578a.98.98 0 01.95.813c.237 1.335.68 4.097.726 6.327.063 3.063-.125 8-.125 8"/><path d="M40.487 40.318h5.063v12.667h-5.063zM11.16 50.656h2.577l1.073-1.361"/></g></svg>