<svg viewBox="0 0 72 72" xmlns="http://www.w3.org/2000/svg"><path fill="#b3b3b3" d="M68 4v64H4V4h64m4-4H0v72h72V0z"/><path fill="none" stroke="#00a5ff" stroke-miterlimit="10" stroke-width=".1" d="M12.923 10.958h46.154A1.923 1.923 0 0161 12.881v46.154a1.923 1.923 0 01-1.923 1.923H12.923A1.923 1.923 0 0111 59.035V12.881a1.923 1.923 0 011.923-1.923z"/><rect x="16" y="4" rx="2.254" width="40" height="64" fill="none" stroke="#00a5ff" stroke-miterlimit="10" stroke-width=".1"/><rect x="16" y="4" rx="2.254" width="40" height="64" transform="rotate(90 36 36)" fill="none" stroke="#00a5ff" stroke-miterlimit="10" stroke-width=".1"/><circle cx="36" cy="36" r="29" fill="none" stroke="#00a5ff" stroke-miterlimit="10" stroke-width=".1"/><g stroke-linecap="round" stroke-miterlimit="10" stroke-width="6" stroke="#fff" fill="none" stroke-linejoin="round"><path d="M5.633 46.563h0c0-.58.47-1.05 1.05-1.05h4.196c.58 0 1.049.47 1.049 1.05h0c0 .58-.47 1.05-1.05 1.05H6.683c-.58 0-1.05-.47-1.05-1.05zm55.439 0h0c0-.58.47-1.05 1.05-1.05h4.196c.58 0 1.05.47 1.05 1.05h0c0 .58-.47 1.05-1.05 1.05H62.12c-.58 0-1.049-.47-1.049-1.05z"/><path d="M65.22 46.563H7.796v-23.51a2.664 2.664 0 012.664-2.664h52.095a2.664 2.664 0 012.664 2.664v23.51z"/><path d="M10.029 50.71H8.834c-.573 0-1.037-.305-1.037-.682v-2.782c0-.377.464-.683 1.037-.683h55.349c.572 0 1.036.306 1.036.683v2.782c0 .377-.464.683-1.036.683h-.866M14.988 40.17H7.831V26.53h7.157c.573 0 1.037.464 1.037 1.037v11.566c0 .573-.464 1.037-1.037 1.037zm16.387 0h-6.12a1.037 1.037 0 01-1.037-1.037V27.567c0-.573.464-1.037 1.037-1.037h6.12c.573 0 1.037.464 1.037 1.037v11.566c0 .573-.464 1.037-1.037 1.037zm33.81 0H58.03a1.037 1.037 0 01-1.037-1.037V27.567c0-.573.464-1.037 1.037-1.037h7.156v13.64zm-17.423 0h-6.12a1.037 1.037 0 01-1.037-1.037V27.567c0-.573.464-1.037 1.037-1.037h6.12c.572 0 1.036.464 1.036 1.037v11.566c0 .573-.464 1.037-1.036 1.037zm-.964 10.301h-20.58"/><circle cx="18.082" cy="51.563" r="5"/><circle cx="55.609" cy="51.563" r="5"/></g><path fill="#3f3f3f" d="M11.029 51.469H8.834c-.573 0-1.037-.362-1.037-.808v-3.29c0-.446.464-.808 1.037-.808h55.349c.572 0 1.036.362 1.036.808v3.29c0 .446-.464.808-1.036.808h-.866"/><path fill="#FFF" d="M65.22 33.172H7.796V22.251c0-1.028.834-1.862 1.862-1.862h53.699c1.028 0 1.862.834 1.862 1.862v10.921z"/><path fill="#ea5a47" d="M7.797 30.915H65.22v13.588a2.06 2.06 0 01-2.06 2.06H9.858a2.06 2.06 0 01-2.06-2.06V30.915z"/><path fill="#92d3f5" d="M14.988 40.17H7.831V26.53h7.157c.573 0 1.037.464 1.037 1.037v11.566c0 .573-.464 1.037-1.037 1.037zm16.387 0h-6.12a1.037 1.037 0 01-1.037-1.037V27.567c0-.573.464-1.037 1.037-1.037h6.12c.573 0 1.037.464 1.037 1.037v11.566c0 .573-.464 1.037-1.037 1.037zm33.81 0H58.03a1.037 1.037 0 01-1.037-1.037V27.567c0-.573.464-1.037 1.037-1.037h7.156v13.64zm-17.423 0h-6.12a1.037 1.037 0 01-1.037-1.037V27.567c0-.573.464-1.037 1.037-1.037h6.12c.572 0 1.036.464 1.036 1.037v11.566c0 .573-.464 1.037-1.036 1.037z"/><path fill="#3f3f3f" d="M46.798 50.471h-20.58"/><circle cx="18.082" cy="51.563" r="5" fill="#d0cfce"/><circle cx="55.609" cy="51.563" r="5" fill="#d0cfce"/><path d="M5.633 46.563c0-.58.47-1.05 1.05-1.05h4.196a1.05 1.05 0 010 2.098H6.682a1.048 1.048 0 01-1.05-1.048zm55.439 0c0-.58.47-1.05 1.05-1.05h4.196a1.05 1.05 0 110 2.098H62.12a1.047 1.047 0 01-1.049-1.048z"/><path fill="none" stroke="#000" stroke-linecap="round" stroke-linejoin="round" stroke-miterlimit="10" stroke-width="2.087" d="M65.22 46.563H7.796v-23.51a2.664 2.664 0 012.664-2.664h52.095a2.664 2.664 0 012.664 2.664v23.51z"/><path fill="none" stroke="#000" stroke-linecap="round" stroke-linejoin="round" stroke-miterlimit="10" stroke-width="1.623" d="M10.029 50.71H8.834c-.573 0-1.037-.305-1.037-.682v-2.782c0-.377.464-.683 1.037-.683h55.349c.572 0 1.036.306 1.036.683v2.782c0 .377-.464.683-1.036.683h-.866"/><path fill="none" stroke="#000" stroke-linecap="round" stroke-linejoin="round" stroke-miterlimit="10" stroke-width="2" d="M14.988 40.17H7.831V26.53h7.157c.573 0 1.037.464 1.037 1.037v11.566c0 .573-.464 1.037-1.037 1.037zm16.387 0h-6.12a1.037 1.037 0 01-1.037-1.037V27.567c0-.573.464-1.037 1.037-1.037h6.12c.573 0 1.037.464 1.037 1.037v11.566c0 .573-.464 1.037-1.037 1.037zm33.81 0H58.03a1.037 1.037 0 01-1.037-1.037V27.567c0-.573.464-1.037 1.037-1.037h7.156v13.64zm-17.423 0h-6.12a1.037 1.037 0 01-1.037-1.037V27.567c0-.573.464-1.037 1.037-1.037h6.12c.572 0 1.036.464 1.036 1.037v11.566c0 .573-.464 1.037-1.036 1.037zm-.964 10.301h-20.58"/><circle cx="18.082" cy="51.563" r="5" fill="none" stroke="#000" stroke-linecap="round" stroke-linejoin="round" stroke-miterlimit="10" stroke-width="2"/><circle cx="55.609" cy="51.563" r="5" fill="none" stroke="#000" stroke-linecap="round" stroke-linejoin="round" stroke-miterlimit="10" stroke-width="2"/></svg>