<svg viewBox="0 0 72 72" xmlns="http://www.w3.org/2000/svg"><path fill="#b3b3b3" d="M68 4v64H4V4h64m4-4H0v72h72V0z"/><path fill="none" stroke="#00a5ff" stroke-miterlimit="10" stroke-width=".1" d="M12.923 10.958h46.154A1.923 1.923 0 0161 12.881v46.154a1.923 1.923 0 01-1.923 1.923H12.923A1.923 1.923 0 0111 59.035V12.881a1.923 1.923 0 011.923-1.923z"/><rect x="16" y="4" rx="2.254" ry="2.254" width="40" height="64" fill="none" stroke="#00a5ff" stroke-miterlimit="10" stroke-width=".1"/><rect x="16" y="4" rx="2.254" ry="2.254" width="40" height="64" transform="rotate(90 36 36)" fill="none" stroke="#00a5ff" stroke-miterlimit="10" stroke-width=".1"/><circle cx="36" cy="36" r="29" fill="none" stroke="#00a5ff" stroke-miterlimit="10" stroke-width=".1"/><g stroke-linecap="round" stroke-miterlimit="10" stroke-width="6" stroke="#fff" fill="none" stroke-linejoin="round"><path d="M24.83 14h22.34a7.23 7.23 0 017.23 7.23V47.5a1.5 1.5 0 01-1.5 1.5H19.1a1.5 1.5 0 01-1.5-1.5V21.23A7.23 7.23 0 0124.83 14z"/><path d="M51 23v8.8H21M21 44h8v-4m14 4h8v-4"/></g><circle cx="36" cy="36" r="29" fill="#3f3f3f"/><path fill="#d0cfce" d="M24.83 14h22.34a7.23 7.23 0 017.23 7.23V47.5a1.5 1.5 0 01-1.5 1.5H19.1a1.5 1.5 0 01-1.5-1.5V21.23A7.23 7.23 0 0124.83 14z"/><path fill="#fcea2b" d="M42 39h9v5h-9zm-22 0h9v5h-9z"/><path fill="none" stroke="#ea5a47" stroke-linecap="round" stroke-linejoin="round" stroke-width="2" d="M51 35H21"/><path fill="none" stroke="#fff" stroke-linecap="round" stroke-miterlimit="10" stroke-width="4" d="M17 60.811L21 54m34 6.811L51 54"/><path fill="#3f3f3f" d="M20 22h31v10H20z"/><g fill="none" stroke="#000" stroke-linecap="round" stroke-linejoin="round" stroke-width="2"><path d="M24.83 14h22.34a7.23 7.23 0 017.23 7.23V47.5a1.5 1.5 0 01-1.5 1.5H19.1a1.5 1.5 0 01-1.5-1.5V21.23A7.23 7.23 0 0124.83 14z"/><path d="M51 23v8.8H21M21 44h8v-4m14 4h8v-4"/></g></svg>