<svg viewBox="0 0 72 72" xmlns="http://www.w3.org/2000/svg"><path fill="#B3B3B3" d="M68 4v64H4V4h64m4-4H0v72h72V0z"/><path fill="none" stroke="#00A5FF" stroke-miterlimit="10" stroke-width=".1" d="M12.9 11h46.2c1.1 0 1.9.9 1.9 1.9h0V59c0 1.1-.9 1.9-1.9 1.9H12.9c-1 .1-1.9-.8-1.9-1.9h0V12.9c0-1.1.9-1.9 1.9-1.9h0z"/><path fill="none" stroke="#00A5FF" stroke-miterlimit="10" stroke-width=".1" d="M18.3 4h35.5C55 4 56 5 56 6.3v59.5c0 1.2-1 2.3-2.3 2.3H18.3C17 68 16 67 16 65.7V6.3C16 5 17 4 18.3 4z"/><path fill="none" stroke="#00A5FF" stroke-miterlimit="10" stroke-width=".1" d="M68 18.3v35.5c0 1.2-1 2.3-2.3 2.3H6.3C5 56 4 55 4 53.7V18.3C4 17 5 16 6.3 16h59.5c1.2 0 2.2 1 2.2 2.3z"/><circle cx="36" cy="36" r="29" fill="none" stroke="#00A5FF" stroke-miterlimit="10" stroke-width=".1"/><g stroke-linecap="round" stroke-miterlimit="10" stroke-width="6" stroke="#fff" fill="none" stroke-linejoin="round"><path d="M15.1 47.5s14.4-2.1 49.4-1"/><circle cx="42.2" cy="54" r="2"/><circle cx="55.3" cy="54" r="2"/><path d="M4.4 56h63.1M52.6 26.7s-13.7-1-23.8 5.6S12.6 44 12.6 44s-1.8 1.8-1.9 3.9c-.2 3 6.9 3.9 6.9 3.9L33 52.9h35.5s-.2-26.2 0-26.2H52.6z"/><path d="M27.8 38.1l3 3.1h33.7"/></g><path fill="none" stroke="#000" stroke-linecap="round" stroke-linejoin="round" stroke-miterlimit="10" stroke-width="2" d="M15.1 47.5s14.4-2.1 49.4-1"/><path fill="#D0CFCE" d="M52.6 26.7s-13.7-1-23.8 5.6S12.6 44 12.6 44s-1.8 1.8-1.9 3.9c-.2 3 6.9 3.9 6.9 3.9L33 52.9h35.5s-.2-26.2 0-26.2H52.6z"/><path fill="#3F3F3F" d="M27.8 38.1l3 3h34.7v-7c0-.6-.4-1-1-1h-19s-8.6-.2-18.1 4.1"/><path fill="none" stroke="#EA5A47" stroke-linecap="round" stroke-linejoin="round" stroke-miterlimit="10" stroke-width="2" d="M15.1 47.5s14.4-2.1 49.4-1"/><circle cx="42.2" cy="54" r="2"/><circle cx="55.3" cy="54" r="2"/><path fill="none" stroke="#000" stroke-linecap="round" stroke-linejoin="round" stroke-miterlimit="10" stroke-width="2" d="M4.4 56h63.1M52.6 26.7s-13.7-1-23.8 5.6S12.6 44 12.6 44s-1.8 1.8-1.9 3.9c-.2 3 6.9 3.9 6.9 3.9L33 52.9h35.5s-.2-26.2 0-26.2H52.6z"/><path fill="none" stroke="#000" stroke-linecap="round" stroke-linejoin="round" stroke-miterlimit="10" stroke-width="2" d="M27.8 38.1l3 3.1h33.7"/></svg>