<svg viewBox="0 0 72 72" xmlns="http://www.w3.org/2000/svg"><path fill="#b3b3b3" d="M68 4v64H4V4h64m4-4H0v72h72V0z"/><path fill="none" stroke="#00a5ff" stroke-miterlimit="10" stroke-width=".1" d="M12.923 10.958h46.154A1.923 1.923 0 0161 12.881v46.154a1.923 1.923 0 01-1.923 1.923H12.923A1.923 1.923 0 0111 59.035V12.881a1.923 1.923 0 011.923-1.923z"/><rect x="16" y="4" rx="2.254" ry="2.254" width="40" height="64" fill="none" stroke="#00a5ff" stroke-miterlimit="10" stroke-width=".1"/><rect x="16" y="4" rx="2.254" ry="2.254" width="40" height="64" transform="rotate(90 36 36)" fill="none" stroke="#00a5ff" stroke-miterlimit="10" stroke-width=".1"/><circle cx="36" cy="36" r="29" fill="none" stroke="#00a5ff" stroke-miterlimit="10" stroke-width=".1"/><g stroke-linecap="round" stroke-miterlimit="10" stroke-width="6" stroke="#fff" fill="none" stroke-linejoin="round"><rect x="16" y="48.958" rx="2.621" ry="2.621" width="40" height="8"/><rect x="18" y="56.958" rx="2" ry="2" width="6" height="4"/><rect x="48" y="56.958" rx="2" ry="2" width="6" height="4"/><path d="M16 25.958h-3m0-3v6m43-3h3m0-3v6m-14.844-15h3.614a7.252 7.252 0 017.23 7.23v26.27a1.504 1.504 0 01-1.5 1.5h-35a1.504 1.504 0 01-1.5-1.5v-26.27a7.252 7.252 0 017.23-7.23h2.614"/><path d="M51 21.958v11.8H21m0 11.2h6v-2m18 2h6v-2m-19-1h9m-9 3h9m-14.156-31v-.479a2.528 2.528 0 012.521-2.52h12.27a2.528 2.528 0 012.52 2.52v.48"/></g><rect x="27.689" y="10.958" rx="2.47" ry="2.47" width="16.946" height="4.941" fill="#fcea2b"/><path fill="#fcea2b" d="M24.23 13.958h23.54a7.23 7.23 0 017.23 7.23v26.27a1.5 1.5 0 01-1.5 1.5h-35a1.5 1.5 0 01-1.5-1.5v-26.27a7.23 7.23 0 017.23-7.23z"/><path fill="#f4aa41" d="M17 38.958h38v10H17z"/><path fill="#92d3f5" d="M20 20.958h31v13H20z"/><path fill="#fff" d="M20 41.958h7v3h-7zm24 0h7v3h-7z"/><rect x="16" y="48.958" rx="2.621" ry="2.621" width="40" height="8" fill="#3f3f3f"/><rect x="30.044" y="13.217" rx="1.433" ry="1.433" width="10.911" height="2.866" fill="#3f3f3f"/><g><rect x="16" y="48.958" rx="2.621" ry="2.621" width="40" height="8" fill="none" stroke="#000" stroke-linecap="round" stroke-linejoin="round" stroke-width="2"/><rect x="18" y="56.958" rx="2" ry="2" width="6" height="4"/><rect x="48" y="56.958" rx="2" ry="2" width="6" height="4"/><path fill="none" stroke="#000" stroke-linecap="round" stroke-linejoin="round" stroke-width="2" d="M16 25.958h-3m0-3v6m43-3h3m0-3v6m-14.844-15h3.614a7.252 7.252 0 017.23 7.23v26.27a1.504 1.504 0 01-1.5 1.5h-35a1.504 1.504 0 01-1.5-1.5v-26.27a7.252 7.252 0 017.23-7.23h2.614"/><path fill="none" stroke="#000" stroke-linecap="round" stroke-linejoin="round" stroke-width="2" d="M51 21.958v11.8H21m0 11.2h6v-2m18 2h6v-2"/><path fill="none" stroke="#000" stroke-linecap="round" stroke-miterlimit="10" stroke-width="2" d="M32 41.958h9m-9 3h9"/><path fill="none" stroke="#000" stroke-linecap="round" stroke-linejoin="round" stroke-width="2" d="M26.844 13.958v-.479a2.528 2.528 0 012.521-2.52h12.27a2.528 2.528 0 012.52 2.52v.48"/></g></svg>