<svg viewBox="0 0 72 72" xmlns="http://www.w3.org/2000/svg"><path fill="#b3b3b3" d="M68 4v64H4V4h64m4-4H0v72h72V0z"/><path fill="none" stroke="#00a5ff" stroke-miterlimit="10" stroke-width=".1" d="M12.923 10.958h46.154A1.923 1.923 0 0161 12.881v46.154a1.923 1.923 0 01-1.923 1.923H12.923A1.923 1.923 0 0111 59.035V12.881a1.923 1.923 0 011.923-1.923z"/><rect x="16" y="4" rx="2.254" ry="2.254" width="40" height="64" fill="none" stroke="#00a5ff" stroke-miterlimit="10" stroke-width=".1"/><rect x="16" y="4" rx="2.254" ry="2.254" width="40" height="64" transform="rotate(90 36 36)" fill="none" stroke="#00a5ff" stroke-miterlimit="10" stroke-width=".1"/><circle cx="36" cy="36" r="29" fill="none" stroke="#00a5ff" stroke-miterlimit="10" stroke-width=".1"/><g stroke-linecap="round" stroke-miterlimit="10" stroke-width="6" stroke="#fff" fill="none" stroke-linejoin="round"><path d="M25 48L12 61m48 0L47 48m-34 9.936l46.333.264M17 53.936l38.333.264M21 49.936l30.333.264M47 19v8.8H26M26 40h4v-4m13 4h4v-4"/><rect x="21.6" y="11" rx="3.056" ry="3.056" width="28.8" height="33.6"/></g><rect x="21.6" y="11" rx="3.056" ry="3.056" width="28.8" height="33.6" fill="#d0cfce"/><path fill="#3f3f3f" d="M25 18h22v10H25z"/><path fill="#fcea2b" d="M25 35h5v5h-5zm17 0h5v5h-5z"/><g fill="none" stroke="#000" stroke-linecap="round" stroke-width="2"><path stroke-miterlimit="10" d="M25 48L12 61m48 0L47 48m-34 9.936l46.333.264M17 53.936l38.333.264M21 49.936l30.333.264"/><path stroke-linejoin="round" d="M47 19v8.8H26M26 40h4v-4m13 4h4v-4"/><rect x="21.6" y="11" rx="3.056" ry="3.056" width="28.8" height="33.6" stroke-linejoin="round"/></g></svg>