<svg viewBox="0 0 72 72" xmlns="http://www.w3.org/2000/svg"><path fill="#b3b3b3" d="M68 4v64H4V4h64m4-4H0v72h72V0z"/><path fill="none" stroke="#00a5ff" stroke-miterlimit="10" stroke-width=".1" d="M12.923 10.958h46.154A1.923 1.923 0 0161 12.881v46.154a1.923 1.923 0 01-1.923 1.923H12.923A1.923 1.923 0 0111 59.035V12.881a1.923 1.923 0 011.923-1.923z"/><rect x="16" y="4" rx="2.254" ry="2.254" width="40" height="64" fill="none" stroke="#00a5ff" stroke-miterlimit="10" stroke-width=".1"/><rect x="16" y="4" rx="2.254" ry="2.254" width="40" height="64" transform="rotate(90 36 36)" fill="none" stroke="#00a5ff" stroke-miterlimit="10" stroke-width=".1"/><circle cx="36" cy="36" r="29" fill="none" stroke="#00a5ff" stroke-miterlimit="10" stroke-width=".1"/><g stroke-linecap="round" stroke-miterlimit="10" stroke-width="6" stroke="#fff" fill="none" stroke-linejoin="round"><path d="M68.331 56h-57l6.235-4h50.765v4zm-37-18h14v-8.357m5 8.357h14v-8.357m-36 .357l-7 7h-10"/><path d="M68.197 49H18.769c-6.29 0-11.438-4.474-11.438-9.943h0C7.331 33.59 21.057 20 27.347 20h40.985v28.883a.127.127 0 01-.135.117z"/></g><path fill="#d0cfce" d="M68.197 49H18.769c-6.29 0-11.438-4.474-11.438-9.943C7.331 33.59 21.057 20 27.347 20h40.985v28.883a.127.127 0 01-.135.117z"/><path fill="#92d3f5" d="M30.331 38l10.589-9h4.411v9h-15m19 0l10.589-9h4.411v9h-15m-38.999-1s5-7 10-8a22.795 22.795 0 018 0l-7.57 7.782z"/><path fill="none" stroke="#ea5a47" stroke-linecap="round" stroke-linejoin="round" stroke-width="2" d="M64.332 43h-52"/><path fill="#3f3f3f" d="M68.331 56h-57l6.235-4h50.765v4z"/><g fill="none" stroke="#000" stroke-linecap="round" stroke-linejoin="round" stroke-width="2"><path d="M68.331 56h-57l6.235-4h50.765v4zm-37-18h14v-8.357m5 8.357h14v-8.357m-36 .357l-7 7h-10"/><path d="M68.197 49H18.769c-6.29 0-11.438-4.474-11.438-9.943h0C7.331 33.59 21.057 20 27.347 20h40.985v28.883a.127.127 0 01-.135.117z"/></g></svg>