<svg viewBox="0 0 72 72" xmlns="http://www.w3.org/2000/svg"><path fill="#b3b3b3" d="M68 4v64H4V4h64m4-4H0v72h72V0z"/><path fill="none" stroke="#00a5ff" stroke-miterlimit="10" stroke-width=".1" d="M12.923 10.958h46.154A1.923 1.923 0 0161 12.881v46.154a1.923 1.923 0 01-1.923 1.923H12.923A1.923 1.923 0 0111 59.035V12.881a1.923 1.923 0 011.923-1.923z"/><rect x="16" y="4" rx="2.254" width="40" height="64" fill="none" stroke="#00a5ff" stroke-miterlimit="10" stroke-width=".1"/><rect x="16" y="4" rx="2.254" width="40" height="64" transform="rotate(90 36 36)" fill="none" stroke="#00a5ff" stroke-miterlimit="10" stroke-width=".1"/><circle cx="36" cy="36" r="29" fill="none" stroke="#00a5ff" stroke-miterlimit="10" stroke-width=".1"/><g stroke-linecap="round" stroke-miterlimit="10" stroke-width="6" stroke="#fff" fill="none" stroke-linejoin="round"><path d="M54.875 34.917V18.792h4.806v16.125"/><circle cx="57.934" cy="66.021" r="2"/><path d="M7.438 61.536H3.78v-9.625h11.031M35.078 22.5h-18a1 1 0 00-1 1v10a1 1 0 001 1h18a1 1 0 001-1v-10a1 1 0 00-1-1z"/><path d="M31.745 25.5H20.41a1 1 0 00-1 1v4a1 1 0 001 1h11.334a1 1 0 001-1v-4a1 1 0 00-1-1zM3.781 9.167H68.25v9.625H3.781z"/><path d="M14.813 51.911H10.78v-33.12h4.806v33.12h-.774"/><circle cx="44.872" cy="66.021" r="2"/><path d="M6.094 68.019H68m-12.719-29.25s-13.687-1-23.75 5.625-16.25 11.625-16.25 11.625-1.767 1.782-1.875 3.875c-.156 3.031 6.875 3.937 6.875 3.937L35.7 64.92c.346.024.692.036 1.039.036h32.48s-.188-26.187 0-26.187H55.28z"/><path d="M30.406 50.144l3.032 3.031h31.718"/></g><path fill="#d0cfce" d="M53.775 42.583V18.792h7.006v23.791M34.438 62.519H3.78v-11.59h31.031"/><path fill="#3f3f3f" d="M35.078 22.5h-18a1 1 0 00-1 1v10a1 1 0 001 1h18a1 1 0 001-1v-10a1 1 0 00-1-1z"/><path fill="#9b9b9a" d="M31.745 25.5H20.41a1 1 0 00-1 1v4a1 1 0 001 1h11.334a1 1 0 001-1v-4a1 1 0 00-1-1z"/><path fill="#d0cfce" d="M3.781 9.167H68.25v9.625H3.781z"/><path fill="#d0cfce" d="M14.813 51.911H10.78v-33.12h4.806v33.12h-.774m40.469-13.142s-13.687-1-23.75 5.625-16.25 11.625-16.25 11.625-1.767 1.782-1.875 3.875c-.156 3.031 6.875 3.937 6.875 3.937L35.7 64.92c.346.024.692.036 1.039.036h32.48s-.188-26.187 0-26.187H55.28z"/><path fill="#3f3f3f" d="M30.406 50.144l3.032 3.031h32.718v-6.969a1 1 0 00-1-1h-17s-8.562-.25-18.125 4.125"/><path fill="none" stroke="#ea5a47" stroke-linecap="round" stroke-linejoin="round" stroke-miterlimit="10" stroke-width="2" d="M17.781 59.519s12.375-2.125 47.375-1"/><path fill="none" stroke="#000" stroke-linecap="round" stroke-linejoin="round" stroke-miterlimit="10" stroke-width="2" d="M54.875 34.917V18.792h4.806v16.125"/><circle cx="57.934" cy="66.021" r="2"/><path fill="none" stroke="#000" stroke-linecap="round" stroke-linejoin="round" stroke-miterlimit="10" stroke-width="2" d="M7.438 61.536H3.78v-9.625h11.031M35.078 22.5h-18a1 1 0 00-1 1v10a1 1 0 001 1h18a1 1 0 001-1v-10a1 1 0 00-1-1z"/><path fill="none" stroke="#000" stroke-linecap="round" stroke-linejoin="round" stroke-miterlimit="10" stroke-width="2" d="M31.745 25.5H20.41a1 1 0 00-1 1v4a1 1 0 001 1h11.334a1 1 0 001-1v-4a1 1 0 00-1-1zM3.781 9.167H68.25v9.625H3.781z"/><path fill="none" stroke="#000" stroke-linecap="round" stroke-linejoin="round" stroke-miterlimit="10" stroke-width="2.077" d="M14.813 51.911H10.78v-33.12h4.806v33.12h-.774"/><circle cx="44.872" cy="66.021" r="2"/><path fill="none" stroke="#000" stroke-linecap="round" stroke-linejoin="round" stroke-miterlimit="10" stroke-width="2" d="M6.094 68.019H68m-12.719-29.25s-13.687-1-23.75 5.625-16.25 11.625-16.25 11.625-1.767 1.782-1.875 3.875c-.156 3.031 6.875 3.937 6.875 3.937L35.7 64.92c.346.024.692.036 1.039.036h32.48s-.188-26.187 0-26.187H55.28z"/><path fill="none" stroke="#000" stroke-linecap="round" stroke-linejoin="round" stroke-miterlimit="10" stroke-width="2" d="M30.406 50.144l3.032 3.031h31.718"/></svg>