<svg viewBox="0 0 72 72" xmlns="http://www.w3.org/2000/svg"><path fill="#b3b3b3" d="M68 4v64H4V4h64m4-4H0v72h72V0z"/><path fill="none" stroke="#00a5ff" stroke-miterlimit="10" stroke-width=".1" d="M12.923 10.958h46.154A1.923 1.923 0 0161 12.881v46.154a1.923 1.923 0 01-1.923 1.923H12.923A1.923 1.923 0 0111 59.035V12.881a1.923 1.923 0 011.923-1.923z"/><rect x="16" y="4" rx="2.254" ry="2.254" width="40" height="64" fill="none" stroke="#00a5ff" stroke-miterlimit="10" stroke-width=".1"/><rect x="16" y="4" rx="2.254" ry="2.254" width="40" height="64" transform="rotate(90 36 36)" fill="none" stroke="#00a5ff" stroke-miterlimit="10" stroke-width=".1"/><circle cx="36" cy="36" r="29" fill="none" stroke="#00a5ff" stroke-miterlimit="10" stroke-width=".1"/><g stroke-linecap="round" stroke-miterlimit="10" stroke-width="6" stroke="#fff" fill="none" stroke-linejoin="round"><path d="M24.095 37.443h24.661l-2.878-8.591M32 42.161h9m-9 2.632h9m-20 0h4v-2.632m22 2.632h4v-2.632"/><rect x="18" y="52.49" rx="1.755" ry="1.755" width="6" height="3.51"/><rect x="48" y="52.49" rx="1.755" ry="1.755" width="6" height="3.51"/><rect x="52.478" y="35.502" rx="1.637" ry="1.637" width="4.965" height="3.274"/><rect x="14.504" y="35.686" rx="1.637" ry="1.637" width="4.965" height="3.274"/><path d="M19.598 38.337l2.05-6.963c1.128-3.83 4.819-6.964 8.202-6.964H36m16.402 13.927l-2.05-6.963c-1.129-3.83-4.819-6.964-8.202-6.964H36m.262 28.08H19.913a2.946 2.946 0 01-2.926-2.947v-7.038c0-1.596.89-4.075 2.492-4.075"/><path d="M35.685 52.49h16.35a2.946 2.946 0 002.926-2.947v-7.038c0-1.596-.89-4.075-2.493-4.075"/></g><path fill="#ea5a47" d="M22.647 27.358l4.808-2.504 17.533-.042 5.222 4.049 2.612 9.184 2.031 1.753-.456 12.356-37.013.377v-13.48l1.03-.54 4.233-11.153z"/><path fill="#92d3f5" d="M23.192 37.462l25.564-.019-2.91-9.288H26.314l-3.122 9.307z"/><path fill="#fcea2b" d="M19.978 41.33h5v3.51h-5zm26 0h5v3.51h-5z"/><rect x="17.641" y="47.844" rx="2.118" ry="2.118" width="37.242" height="4.236" fill="#3f3f3f"/><g><path fill="none" stroke="#000" stroke-linecap="round" stroke-linejoin="round" stroke-width="2" d="M24.095 37.443h24.661l-2.878-8.591"/><path fill="none" stroke="#000" stroke-linecap="round" stroke-miterlimit="10" stroke-width="2" d="M32 42.161h9m-9 2.632h9"/><path fill="none" stroke="#000" stroke-linecap="round" stroke-linejoin="round" stroke-width="2" d="M21 44.793h4v-2.632m22 2.632h4v-2.632"/><rect x="18" y="52.49" rx="1.755" ry="1.755" width="6" height="3.51"/><rect x="48" y="52.49" rx="1.755" ry="1.755" width="6" height="3.51"/><rect x="52.478" y="35.502" rx="1.637" ry="1.637" width="4.965" height="3.274"/><rect x="14.504" y="35.686" rx="1.637" ry="1.637" width="4.965" height="3.274"/><path fill="none" stroke="#000" stroke-linecap="round" stroke-linejoin="round" stroke-width="2" d="M19.598 38.337l2.05-6.963c1.128-3.83 4.819-6.964 8.202-6.964H36m16.402 13.927l-2.05-6.963c-1.129-3.83-4.819-6.964-8.202-6.964H36m.262 28.08H19.913a2.946 2.946 0 01-2.926-2.947v-7.038c0-1.596.89-4.075 2.492-4.075"/><path fill="none" stroke="#000" stroke-linecap="round" stroke-linejoin="round" stroke-width="2" d="M35.685 52.49h16.35a2.946 2.946 0 002.926-2.947v-7.038c0-1.596-.89-4.075-2.493-4.075"/></g></svg>