<svg viewBox="0 0 72 72" xmlns="http://www.w3.org/2000/svg"><path fill="#B3B3B3" d="M68 4v64H4V4h64m4-4H0v72h72V0z"/><path fill="none" stroke="#00A5FF" stroke-miterlimit="10" stroke-width=".1" d="M12.9 11h46.2c1.1 0 1.9.9 1.9 1.9h0V59c0 1.1-.9 1.9-1.9 1.9H12.9c-1 .1-1.9-.8-1.9-1.9h0V12.9c0-1.1.9-1.9 1.9-1.9h0z"/><path fill="none" stroke="#00A5FF" stroke-miterlimit="10" stroke-width=".1" d="M18.3 4h35.5C55 4 56 5 56 6.3v59.5c0 1.2-1 2.3-2.3 2.3H18.3C17 68 16 67 16 65.7V6.3C16 5 17 4 18.3 4z"/><path fill="none" stroke="#00A5FF" stroke-miterlimit="10" stroke-width=".1" d="M68 18.3v35.5c0 1.2-1 2.3-2.3 2.3H6.3C5 56 4 55 4 53.7V18.3C4 17 5 16 6.3 16h59.5c1.2 0 2.2 1 2.2 2.3z"/><circle cx="36" cy="36" r="29" fill="none" stroke="#00A5FF" stroke-miterlimit="10" stroke-width=".1"/><g stroke-linecap="round" stroke-miterlimit="10" stroke-width="6" stroke="#fff" fill="none" stroke-linejoin="round"><path d="M68 45v3.8H4V42h22.5l1.2 2.5c.2.3.5.5.9.5H68zm-54 3.8h4V68h-4zm40 0h4V68h-4zM68 41H26l.5 1s-1-.2-2.4-.5c-.1 0-.2 0-.3-.1-1.1-.3-2.5-.6-4-1.1-.3-.1-.5-.2-.8-.3-.2-.1-.3-.1-.5-.2-.4-.1-.8-.3-1.2-.5h-.1c-.4-.1-.7-.3-1.1-.4-.4-.2-.8-.3-1.2-.5-.2-.1-.4-.2-.6-.2-.1 0-.1-.1-.2-.1-.6-.3-1.1-.5-1.5-.8-.7-.5-1.2-.9-1.4-1.3-.3-.7-.4-1.3-.3-1.8v-.3c0-.1.1-.2.1-.3s.1-.2.1-.3.1-.2.1-.3.1-.2.2-.3c.1-.1.1-.2.2-.2l.1-.1h0C13.2 29.8 19.3 24 26 21c9-4 42-3 42-3v23z"/><path d="M11 36s-.8-.8-.2-2.5c-.2.7-.3 1.6.2 2.5z"/><path d="M10.9 33.3c0 .1-.1.2-.1.3 0-.1 0-.2.1-.3zm7.5 6.6c-.5-.2-.9-.3-1.4-.5.5.1.9.3 1.4.5zm-1.4-.5c-.3-.1-.7-.2-1-.4-5-2-5-3-5-3 .5 1 3.2 2.3 6 3.4zM11 33c.2-.4.4-.6.4-.6-.2.2-.3.4-.4.6zm12.8 8.4c-1-.2-2.4-.6-4-1.1 1.5.5 2.9.8 4 1.1zM68 40.2V45H28.6c-.4 0-.7-.3-.9-.7l-1.2-3-.5-1.1h42zM34 23v7H19"/><path d="M34 23v7H19m40-7v7H38"/></g><path fill="#3F3F3F" d="M68 45v3.8H4V42h22.5l1.2 2.5c.2.3.5.5.9.5H68zm-54 3.8h4V68h-4zm40 0h4V68h-4z"/><path fill="#D0CFCE" d="M68 41H26l.5 1s-1-.2-2.4-.5c-.1 0-.2 0-.3-.1-1.1-.3-2.5-.6-4-1.1-.3-.1-.5-.2-.8-.3-.2-.1-.3-.1-.5-.2-.4-.1-.8-.3-1.2-.5h-.1c-.4-.1-.7-.3-1.1-.4-.4-.2-.8-.3-1.2-.5-.2-.1-.4-.2-.6-.2-.1 0-.1-.1-.2-.1-.6-.3-1.1-.5-1.5-.8-.7-.5-1.2-.9-1.4-1.3-.3-.7-.4-1.3-.3-1.8v-.3c0-.1.1-.2.1-.3s.1-.2.1-.3.1-.2.1-.3.1-.2.2-.3c.1-.1.1-.2.2-.2l.1-.1C13.2 29.8 19.3 24 26 21c9-4 42-3 42-3v23z"/><path fill="#D0CFCE" d="M11 36s-.8-.8-.2-2.5c-.2.7-.3 1.6.2 2.5z"/><path fill="#D0CFCE" d="M10.9 33.3c0 .1-.1.2-.1.3 0-.1 0-.2.1-.3zm7.5 6.6c-.5-.2-.9-.3-1.4-.5.5.1.9.3 1.4.5zm-1.4-.5c-.3-.1-.7-.2-1-.4-5-2-5-3-5-3 .5 1 3.2 2.3 6 3.4z"/><path fill="#61B2E4" d="M11 33c.2-.4.4-.6.4-.6-.2.2-.3.4-.4.6zm12.8 8.4c-1-.2-2.4-.6-4-1.1 1.5.5 2.9.8 4 1.1z"/><path fill="#92D3F5" d="M68 40.2V45H28.6c-.4 0-.7-.3-.9-.7l-1.2-3-.5-1.1h42z"/><path fill="#3F3F3F" d="M59 30l-21.9.1v-7c0-.5.4-1 .9-1 7-.5 14.6-.6 21 0V30z"/><path fill="#D0CFCE" d="M34 23v7H19"/><path fill="#3F3F3F" d="M33.9 23.1v-1S30 23 27 24c0 0-6.9 2.8-8.9 5.8h1.3l-.4.2h15v-7l-.1.1zM59 23v7H38"/><g fill="none" stroke="#000" stroke-linecap="round" stroke-linejoin="round" stroke-miterlimit="10" stroke-width="2"><path d="M68 45v3.8H4V42h22.5l1.2 2.5c.2.3.5.5.9.5H68zm-54 3.8h4V68h-4zm40 0h4V68h-4zM68 41H26l.5 1s-1-.2-2.4-.5c-.1 0-.2 0-.3-.1-1.1-.3-2.5-.6-4-1.1-.3-.1-.5-.2-.8-.3-.2-.1-.3-.1-.5-.2-.4-.1-.8-.3-1.2-.5h-.1c-.4-.1-.7-.3-1.1-.4-.4-.2-.8-.3-1.2-.5-.2-.1-.4-.2-.6-.2-.1 0-.1-.1-.2-.1-.6-.3-1.1-.5-1.5-.8-.7-.5-1.2-.9-1.4-1.3-.3-.7-.4-1.3-.3-1.8v-.3c0-.1.1-.2.1-.3s.1-.2.1-.3.1-.2.1-.3.1-.2.2-.3c.1-.1.1-.2.2-.2l.1-.1h0C13.2 29.8 19.3 24 26 21c9-4 42-3 42-3v23z"/><path d="M11 36s-.8-.8-.2-2.5c-.2.7-.3 1.6.2 2.5z"/><path d="M10.9 33.3c0 .1-.1.2-.1.3 0-.1 0-.2.1-.3zm7.5 6.6c-.5-.2-.9-.3-1.4-.5.5.1.9.3 1.4.5zm-1.4-.5c-.3-.1-.7-.2-1-.4-5-2-5-3-5-3 .5 1 3.2 2.3 6 3.4zM11 33c.2-.4.4-.6.4-.6-.2.2-.3.4-.4.6zm12.8 8.4c-1-.2-2.4-.6-4-1.1 1.5.5 2.9.8 4 1.1zM68 40.2V45H28.6c-.4 0-.7-.3-.9-.7l-1.2-3-.5-1.1h42zM34 23v7H19"/><path d="M34 23v7H19m40-7v7H38"/></g></svg>