<svg viewBox="0 0 72 72" xmlns="http://www.w3.org/2000/svg"><path fill="#B3B3B3" d="M68 4v64H4V4h64m4-4H0v72h72V0z"/><path fill="none" stroke="#00A5FF" stroke-miterlimit="10" stroke-width=".1" d="M12.923 10.958h46.154c1.062 0 1.923.861 1.923 1.923v46.154a1.923 1.923 0 01-1.923 1.923H12.923A1.923 1.923 0 0111 59.035h0V12.881c0-1.062.861-1.923 1.923-1.923h0z"/><path fill="none" stroke="#00A5FF" stroke-miterlimit="10" stroke-width=".1" d="M18.254 4h35.492A2.254 2.254 0 0156 6.254v59.492A2.254 2.254 0 0153.746 68H18.254A2.254 2.254 0 0116 65.746V6.254A2.254 2.254 0 0118.254 4z"/><path fill="none" stroke="#00A5FF" stroke-miterlimit="10" stroke-width=".1" d="M68 18.254v35.492A2.254 2.254 0 0165.746 56H6.254A2.254 2.254 0 014 53.746V18.254A2.254 2.254 0 016.254 16h59.492A2.254 2.254 0 0168 18.254z"/><circle cx="36" cy="36" r="29" fill="none" stroke="#00A5FF" stroke-miterlimit="10" stroke-width=".1"/><g stroke-linecap="round" stroke-miterlimit="10" stroke-width="6" stroke="#fff" fill="none" stroke-linejoin="round"><path d="M12.956 41.13v-5.94m3.915 13.6v6.092a1.14 1.14 0 01-1.139 1.139h-1.636c-.63 0-1.14-.51-1.14-1.14V49.2m3.915-14.01v5.94m-3.915-14.807v-2.18c0-.629.51-1.139 1.14-1.139h1.636c.63 0 1.14.51 1.14 1.14v2.09m39.625 15.433V35.19m3.915 14.01v5.681c0 .63-.51 1.14-1.14 1.14h-1.636a1.14 1.14 0 01-1.139-1.14V49.2m3.915-14.01v5.586M56.497 27.12v-2.976c0-.63.51-1.14 1.14-1.14h1.636c.629 0 1.14.51 1.14 1.14v2.888m-52.292.635h56.757v7.124H8.121z"/><path d="M8.121 27.667h11.351v7.124H8.121zm11.352 0h11.351v7.124H19.473z"/><path d="M30.779 27.667H42.13v7.124H30.779zm11.351 0h11.351v7.124H42.13zm11.352 0h11.351v7.124H53.482zm-45.361 14h56.757v7.124H8.121z"/><path d="M8.121 41.667h11.351v7.124H8.121zm11.352 0h11.351v7.124H19.473z"/><path d="M30.779 41.667H42.13v7.124H30.779zm11.351 0h11.351v7.124H42.13zm18.282 0h4.421v7.123H53.482v-7.123h6.93"/></g><path fill="#FFF" d="M15.732 56.02h-1.636c-.63 0-1.14-.51-1.14-1.139V24.145c0-.63.51-1.14 1.14-1.14h1.636c.63 0 1.14.51 1.14 1.14v30.738a1.14 1.14 0 01-1.14 1.139zm43.541 0h-1.637a1.14 1.14 0 01-1.139-1.139V24.145c0-.63.51-1.14 1.14-1.14h1.636c.629 0 1.14.51 1.14 1.14v30.738a1.14 1.14 0 01-1.14 1.139z"/><path fill="#FFF" d="M8.121 27.667h56.757v7.124H8.121z"/><path fill="#EA5A47" d="M8.121 27.667h11.351v7.124H8.121z"/><path fill="#FFF" d="M19.473 27.667h11.351v7.124H19.473z"/><path fill="#EA5A47" d="M30.779 27.667H42.13v7.124H30.779z"/><path fill="#FFF" d="M42.13 27.667h11.351v7.124H42.13z"/><path fill="#EA5A47" d="M53.482 27.667h11.351v7.124H53.482z"/><path fill="#FFF" d="M8.121 41.667h56.757v7.124H8.121z"/><path fill="#EA5A47" d="M8.121 41.667h11.351v7.124H8.121z"/><path fill="#FFF" d="M19.473 41.667h11.351v7.124H19.473z"/><path fill="#EA5A47" d="M30.779 41.667H42.13v7.124H30.779z"/><path fill="#FFF" d="M42.13 41.667h11.351v7.124H42.13z"/><path fill="#EA5A47" d="M53.482 41.667h11.351v7.124H53.482z"/><g fill="none" stroke="#000" stroke-linecap="round" stroke-linejoin="round" stroke-miterlimit="10" stroke-width="2"><path d="M12.956 41.13v-5.94m3.915 13.6v6.092a1.14 1.14 0 01-1.139 1.139h-1.636c-.63 0-1.14-.51-1.14-1.14V49.2m3.915-14.01v5.94m-3.915-14.807v-2.18c0-.629.51-1.139 1.14-1.139h1.636c.63 0 1.14.51 1.14 1.14v2.09m39.625 15.433V35.19m3.915 14.01v5.681c0 .63-.51 1.14-1.14 1.14h-1.636a1.14 1.14 0 01-1.139-1.14V49.2m3.915-14.01v5.586M56.497 27.12v-2.976c0-.63.51-1.14 1.14-1.14h1.636c.629 0 1.14.51 1.14 1.14v2.888m-52.292.635h56.757v7.124H8.121z"/><path d="M8.121 27.667h11.351v7.124H8.121zm11.352 0h11.351v7.124H19.473z"/><path d="M30.779 27.667H42.13v7.124H30.779zm11.351 0h11.351v7.124H42.13zm11.352 0h11.351v7.124H53.482zm-45.361 14h56.757v7.124H8.121z"/><path d="M8.121 41.667h11.351v7.124H8.121zm11.352 0h11.351v7.124H19.473z"/><path d="M30.779 41.667H42.13v7.124H30.779zm11.351 0h11.351v7.124H42.13zm18.282 0h4.421v7.123H53.482v-7.123h6.93"/></g></svg>