<svg viewBox="0 0 72 72" xmlns="http://www.w3.org/2000/svg"><path fill="#b3b3b3" d="M68 4v64H4V4h64m4-4H0v72h72V0z"/><path fill="none" stroke="#00a5ff" stroke-miterlimit="10" stroke-width=".1" d="M12.923 10.958h46.154A1.923 1.923 0 0161 12.881v46.154a1.923 1.923 0 01-1.923 1.923H12.923A1.923 1.923 0 0111 59.035V12.881a1.923 1.923 0 011.923-1.923z"/><rect x="16" y="4" rx="2.254" width="40" height="64" fill="none" stroke="#00a5ff" stroke-miterlimit="10" stroke-width=".1"/><rect x="16" y="4" rx="2.254" width="40" height="64" transform="rotate(90 36 36)" fill="none" stroke="#00a5ff" stroke-miterlimit="10" stroke-width=".1"/><circle cx="36" cy="36" r="29" fill="none" stroke="#00a5ff" stroke-miterlimit="10" stroke-width=".1"/><g stroke-linecap="round" stroke-miterlimit="10" stroke-width="6" stroke="#fff" fill="none" stroke-linejoin="round"><path d="M54.09 46.91h-36c-3.85 0-7-3.15-7-7v-8c0-3.85 3.15-7 7-7h36c3.85 0 7 3.15 7 7v8c0 3.85-3.15 7-7 7z"/><circle cx="21.618" cy="35.91" r="5"/><circle cx="35.618" cy="35.91" r="5"/><circle cx="50.618" cy="35.91" r="5"/><path d="M53.91 46.91h-36c-3.85 0-7-3.15-7-7v-8c0-3.85 3.15-7 7-7h36c3.85 0 7 3.15 7 7v8c0 3.85-3.15 7-7 7z"/><circle cx="21.438" cy="35.91" r="5"/><circle cx="35.438" cy="35.91" r="5"/><circle cx="50.438" cy="35.91" r="5"/></g><path fill="#d0cfce" d="M54.09 46.91h-36c-3.85 0-7-3.15-7-7v-8c0-3.85 3.15-7 7-7h36c3.85 0 7 3.15 7 7v8c0 3.85-3.15 7-7 7z"/><circle cx="21.618" cy="35.91" r="5" fill="#b1cc33"/><circle cx="35.618" cy="35.91" r="5" fill="#f4aa41"/><circle cx="50.618" cy="35.91" r="5" fill="#ea5a47"/><g fill="none" stroke="#000" stroke-miterlimit="10"><path d="M54.09 46.91h-36c-3.85 0-7-3.15-7-7v-8c0-3.85 3.15-7 7-7h36c3.85 0 7 3.15 7 7v8c0 3.85-3.15 7-7 7z"/><circle cx="21.618" cy="35.91" r="5"/><circle cx="35.618" cy="35.91" r="5"/><circle cx="50.618" cy="35.91" r="5"/><path stroke-linecap="round" stroke-linejoin="round" stroke-width="2" d="M53.91 46.91h-36c-3.85 0-7-3.15-7-7v-8c0-3.85 3.15-7 7-7h36c3.85 0 7 3.15 7 7v8c0 3.85-3.15 7-7 7z"/><circle cx="21.438" cy="35.91" r="5" stroke-linecap="round" stroke-linejoin="round" stroke-width="2"/><circle cx="35.438" cy="35.91" r="5" stroke-linecap="round" stroke-linejoin="round" stroke-width="2"/><circle cx="50.438" cy="35.91" r="5" stroke-linecap="round" stroke-linejoin="round" stroke-width="2"/></g></svg>