<svg viewBox="0 0 72 72" xmlns="http://www.w3.org/2000/svg"><path fill="#b3b3b3" d="M68 4v64H4V4zm4-4H0v72h72z"/><path fill="none" stroke="#00a5ff" stroke-miterlimit="10" stroke-width=".1" d="M12.9 11h46.2a1.899 1.899 0 011.9 1.9h0V59a1.899 1.899 0 01-1.9 1.9H12.9A1.837 1.837 0 0111 59h0V12.9a1.899 1.899 0 011.9-1.9z"/><path fill="none" stroke="#00a5ff" stroke-miterlimit="10" stroke-width=".1" d="M18.3 4h35.5A2.243 2.243 0 0156 6.3v59.5a2.326 2.326 0 01-2.3 2.3H18.3a2.414 2.414 0 01-2.3-2.4V6.3A2.263 2.263 0 0118.3 4z"/><path fill="none" stroke="#00a5ff" stroke-miterlimit="10" stroke-width=".1" d="M68 18.3v35.5a2.326 2.326 0 01-2.3 2.3H6.3A2.414 2.414 0 014 53.7V18.3A2.263 2.263 0 016.3 16h59.5a2.243 2.243 0 012.2 2.3z"/><circle cx="36" cy="36" r="29" fill="none" stroke="#00a5ff" stroke-miterlimit="10" stroke-width=".1"/><g stroke-linecap="round" stroke-miterlimit="10" stroke-width="6" stroke="#fff" fill="none" stroke-linejoin="round"><path d="M31 45a.945.945 0 00-1 1 9.2 9.2 0 11-9.2-9.2h0l.2-2h-.2A11.2 11.2 0 1032 46a.945.945 0 00-1-1zm21.8-10.2a12.271 12.271 0 00-3.9.7l.9 1.8a10.473 10.473 0 013-.5 9.2 9.2 0 11-9.1 9.7l-2-.1a11.155 11.155 0 1011.1-11.6z"/><path d="M48 38.2l-.9-1.8a11.093 11.093 0 00-5.3 7.9l2 .1a9.375 9.375 0 014.2-6.2zM23 22h4m15 3.7h6M21.1 46l1.7-21.4M36 45L23 30m22 0l8 16M23 30h21m2-1.6L36 45m0 0l17 1"/></g><path d="M31 45a.945.945 0 00-1 1 9.2 9.2 0 11-9.2-9.2l.2-2h-.2A11.2 11.2 0 1032 46a.945.945 0 00-1-1zm21.8-10.2a12.271 12.271 0 00-3.9.7l.9 1.8a10.473 10.473 0 013-.5 9.2 9.2 0 11-9.1 9.7l-2-.1a11.155 11.155 0 1011.1-11.6z"/><path d="M48 38.2l-.9-1.8a11.093 11.093 0 00-5.3 7.9l2 .1a9.375 9.375 0 014.2-6.2z"/><path fill="none" stroke="#000" stroke-linecap="round" stroke-linejoin="round" stroke-width="2" d="M23 22h4m15 3.7h6M21.1 46l1.7-21.4M36 45L23 30m22 0l8 16M23 30h21m2-1.6L36 45m0 0l17 1"/><g fill="none" stroke="#ea5a47" stroke-linecap="round" stroke-linejoin="round" stroke-width="2.1"><path d="M21.1 46l1.7-21.4M36 45L23 30m22 0l8 16M23 30h21m2-1.6L36 45m0 0l17 1"/></g></svg>