<svg viewBox="0 0 72 72" xmlns="http://www.w3.org/2000/svg"><path fill="#b3b3b3" d="M68 4v64H4V4h64m4-4H0v72h72V0z"/><path fill="none" stroke="#00a5ff" stroke-miterlimit="10" stroke-width=".1" d="M12.923 10.958h46.154A1.923 1.923 0 0161 12.881v46.154a1.923 1.923 0 01-1.923 1.923H12.923A1.923 1.923 0 0111 59.035V12.881a1.923 1.923 0 011.923-1.923z"/><rect x="16" y="4" rx="2.254" ry="2.254" width="40" height="64" fill="none" stroke="#00a5ff" stroke-miterlimit="10" stroke-width=".1"/><rect x="16" y="4" rx="2.254" ry="2.254" width="40" height="64" transform="rotate(90 36 36)" fill="none" stroke="#00a5ff" stroke-miterlimit="10" stroke-width=".1"/><circle cx="36" cy="36" r="29" fill="none" stroke="#00a5ff" stroke-miterlimit="10" stroke-width=".1"/><path d="M50 16.67H23.78m0 13.11H50M23.78 42.89H50M23.78 56H50M38.445 15.485h4.37M23.78 16.67c1.406 1.343 1.76 3.696 1.76 6.376 0 2.937-.124 5.482-1.76 6.734m0 0c1.406 1.343 1.76 3.696 1.76 6.376 0 2.937-.124 5.482-1.76 6.734m0 0c1.406 1.343 1.76 3.696 1.76 6.376 0 2.937-.124 5.482-1.76 6.734M50 16.67c-1.406 1.343-1.76 3.696-1.76 6.376 0 2.937.124 5.482 1.76 6.734m0 0c-1.406 1.343-1.76 3.696-1.76 6.376 0 2.937.124 5.482 1.76 6.734m0 0c-1.406 1.343-1.76 3.696-1.76 6.376 0 2.937.124 5.482 1.76 6.734" stroke-linecap="round" stroke-miterlimit="10" stroke-width="6" stroke="#fff" fill="none" stroke-linejoin="round"/><path fill="#d0cfce" d="M25 17h24v39H25z"/><path fill="none" stroke="#3f3f3f" stroke-miterlimit="10" d="M42.39 16.67c-1.405 1.343-1.76 3.696-1.76 6.376 0 2.937.125 5.482 1.76 6.734m0 0c-1.405 1.343-1.76 3.696-1.76 6.376 0 2.937.125 5.482 1.76 6.734m0 0c-1.405 1.343-1.76 3.696-1.76 6.376 0 2.937.125 5.482 1.76 6.734"/><path fill="#3f3f3f" d="M41.002 17h8.118v39h-8.118z"/><g fill="none" stroke="#000" stroke-linecap="round" stroke-miterlimit="10" stroke-width="2"><path d="M50 16.67H23.78m0 13.11H50M23.78 42.89H50M23.78 56H50M38.445 15.485h4.37M23.78 16.67c1.406 1.343 1.76 3.696 1.76 6.376 0 2.937-.124 5.482-1.76 6.734m0 0c1.406 1.343 1.76 3.696 1.76 6.376 0 2.937-.124 5.482-1.76 6.734m0 0c1.406 1.343 1.76 3.696 1.76 6.376 0 2.937-.124 5.482-1.76 6.734M50 16.67c-1.406 1.343-1.76 3.696-1.76 6.376 0 2.937.124 5.482 1.76 6.734m0 0c-1.406 1.343-1.76 3.696-1.76 6.376 0 2.937.124 5.482 1.76 6.734m0 0c-1.406 1.343-1.76 3.696-1.76 6.376 0 2.937.124 5.482 1.76 6.734"/></g></svg>