<svg viewBox="0 0 72 72" xmlns="http://www.w3.org/2000/svg"><path fill="#b3b3b3" d="M68 3.882v64H4v-64h64m4-4H0v72h72v-72z"/><path fill="none" stroke="#00a5ff" stroke-miterlimit="10" stroke-width=".1" d="M12.923 10.84h46.154A1.923 1.923 0 0161 12.765v46.154a1.923 1.923 0 01-1.923 1.923H12.923A1.923 1.923 0 0111 58.918V12.764a1.923 1.923 0 011.923-1.923z"/><rect x="16" y="3.882" rx="2.254" width="40" height="64" fill="none" stroke="#00a5ff" stroke-miterlimit="10" stroke-width=".1"/><rect x="16" y="3.882" rx="2.254" width="40" height="64" transform="rotate(90 36 35.882)" fill="none" stroke="#00a5ff" stroke-miterlimit="10" stroke-width=".1"/><circle cx="36" cy="35.882" r="29" fill="none" stroke="#00a5ff" stroke-miterlimit="10" stroke-width=".1"/><g stroke-linecap="round" stroke-miterlimit="10" stroke-width="6" stroke="#fff" fill="none" stroke-linejoin="round"><path d="M23.718 37h3.87l.801-7.425"/><path d="M64.22 44.563H19L17.402 41.6A11.702 11.702 0 0116 36.046v-.765a13.877 13.877 0 01.6-4.481L19 22c0-1.471 1.529-4 3-4l39.556.39a2.664 2.664 0 012.664 2.663zm-18.422 3.908h-20.58"/><circle cx="17.082" cy="49.563" r="5"/><circle cx="54.609" cy="49.563" r="5"/><path d="M43 19v25m1-9h20.219M44 38h20.22v5.514H43V38h1zm17-1l1-5M20.3 19s-1.163 18.51 9.292 25.563M25.642 37v2.785"/><path d="M60.072 44.563h0a1.05 1.05 0 011.05-1.05h4.196a1.05 1.05 0 011.05 1.05h0a1.05 1.05 0 01-1.05 1.05H61.12a1.05 1.05 0 01-1.049-1.05zM18 42.532c-2.482-1.901-4.851.369-5 .468"/></g><path fill="#6a462f" d="M20.3 19s-1.163 18.51 9.292 25.563H19S11.903 37.408 20.3 19zM44 38h20.22v5.514H43V38h1z"/><circle cx="17.082" cy="49.563" r="5" fill="#d0cfce"/><circle cx="54.609" cy="49.563" r="5" fill="#d0cfce"/><g><path fill="none" stroke="#000" stroke-linecap="round" stroke-linejoin="round" stroke-width="2" d="M23.718 37h3.87l.801-7.425"/><path fill="none" stroke="#000" stroke-linecap="round" stroke-linejoin="round" stroke-width="2.087" d="M64.22 44.563H19L17.402 41.6A11.702 11.702 0 0116 36.046v-.765a13.877 13.877 0 01.6-4.481L19 22c0-1.471 1.529-4 3-4l39.556.39a2.664 2.664 0 012.664 2.663z"/><path fill="none" stroke="#000" stroke-linecap="round" stroke-linejoin="round" stroke-width="2" d="M45.798 48.471h-20.58"/><circle cx="17.082" cy="49.563" r="5" fill="none" stroke="#000" stroke-linecap="round" stroke-linejoin="round" stroke-width="2"/><circle cx="54.609" cy="49.563" r="5" fill="none" stroke="#000" stroke-linecap="round" stroke-linejoin="round" stroke-width="2"/><path fill="none" stroke="#000" stroke-linecap="round" stroke-linejoin="round" stroke-width="2.087" d="M43 19v25m1-9h20.219M44 38h20.22v5.514H43V38h1zm17-1l1-5"/><path fill="none" stroke="#000" stroke-linecap="round" stroke-linejoin="round" stroke-width="2" d="M20.3 19s-1.163 18.51 9.292 25.563M25.642 37v2.785"/><path d="M60.072 44.563a1.05 1.05 0 011.05-1.05h4.196a1.05 1.05 0 011.05 1.05 1.05 1.05 0 01-1.05 1.05H61.12a1.05 1.05 0 01-1.049-1.05z"/><path fill="none" stroke="#000" stroke-linecap="round" stroke-linejoin="round" stroke-width="2" d="M18 42.532c-2.482-1.901-4.851.369-5 .468"/></g></svg>