<svg viewBox="0 0 72 72" xmlns="http://www.w3.org/2000/svg"><path fill="#b3b3b3" d="M68 4.407v64H4v-64h64m4-4H0v72h72v-72z"/><path fill="none" stroke="#00a5ff" stroke-miterlimit="10" stroke-width=".1" d="M12.923 11.365h46.154A1.923 1.923 0 0161 13.288v46.154a1.923 1.923 0 01-1.923 1.923H12.923A1.923 1.923 0 0111 59.442V13.288a1.923 1.923 0 011.923-1.923z"/><rect x="16" y="4.407" rx="2.254" width="40" height="64" fill="none" stroke="#00a5ff" stroke-miterlimit="10" stroke-width=".1"/><rect x="16" y="4.407" rx="2.254" width="40" height="64" transform="rotate(90 36 36.407)" fill="none" stroke="#00a5ff" stroke-miterlimit="10" stroke-width=".1"/><circle cx="36" cy="36.407" r="29" fill="none" stroke="#00a5ff" stroke-miterlimit="10" stroke-width=".1"/><g stroke-linecap="round" stroke-miterlimit="10" stroke-width="6" stroke="#fff" fill="none" stroke-linejoin="round"><path d="M23.697 45.72a10.944 10.944 0 011.681 6.192l10.81.146v-.146a12.484 12.484 0 1124.968 0c1.783-10.7-3.567-19.618-3.567-19.618"/><path d="M41.306 33.553c-7.8 2.828-8.709 12.14-8.709 12.14l-4.079.012"/><circle cx="48.196" cy="50.8" r="6.291"/><path d="M25.378 51.912a12.505 12.505 0 00-8.344-11.724m36.547-10.716a3.513 3.513 0 01-1 .073H35.404a1.003 1.003 0 00-1 1v2.008a1.003 1.003 0 001 1H56.59a1.003 1.003 0 001-1V11.368a1.003 1.003 0 00-1-1h-2.01a1.003 1.003 0 00-1 1v18.104z"/><path d="M21.275 42.528l9.344-21.984 3.786.037 2.896.029m-2.897-2.129v2.1"/><circle cx="15.176" cy="50.799" r="6.291" transform="rotate(-1.335 15.175 50.796)"/></g><path fill="#a57939" d="M53.581 29.472a3.513 3.513 0 01-1 .073H35.404a1.003 1.003 0 00-1 1v2.008a1.003 1.003 0 001 1H56.59a1.003 1.003 0 001-1V11.368a1.003 1.003 0 00-1-1h-2.01a1.003 1.003 0 00-1 1v18.104z"/><path fill="#ea5a47" d="M41.306 33.553c-7.8 2.828-8.553 11.156-8.553 11.156l-9.29.148a14.883 14.883 0 011.915 7.055l10.81.146v-.146a12.484 12.484 0 1124.967 0c1.784-10.7-3.566-19.618-3.566-19.618"/><circle cx="48.196" cy="50.8" r="6.291" fill="#d0cfce"/><circle cx="15.176" cy="50.8" r="6.291" fill="#d0cfce"/><g fill="none" stroke="#000" stroke-width="2"><path stroke-linecap="round" stroke-linejoin="round" d="M23.697 45.72a10.944 10.944 0 011.681 6.192l10.81.146v-.146a12.484 12.484 0 1124.968 0c1.783-10.7-3.567-19.618-3.567-19.618"/><path stroke-linecap="round" stroke-linejoin="round" d="M41.306 33.553c-7.8 2.828-8.709 12.14-8.709 12.14l-4.079.012"/><circle cx="48.196" cy="50.8" r="6.291" stroke-miterlimit="10"/><path stroke-linecap="round" stroke-linejoin="round" d="M25.378 51.912a12.505 12.505 0 00-8.344-11.724m36.547-10.716a3.513 3.513 0 01-1 .073H35.404a1.003 1.003 0 00-1 1v2.008a1.003 1.003 0 001 1H56.59a1.003 1.003 0 001-1V11.368a1.003 1.003 0 00-1-1h-2.01a1.003 1.003 0 00-1 1v18.104z"/><path stroke-linecap="round" stroke-linejoin="round" d="M21.275 42.528l9.344-21.984 3.786.037 2.896.029m-2.897-2.129v2.1"/><circle cx="15.176" cy="50.799" r="6.291" transform="rotate(-1.335 15.175 50.796)" stroke-miterlimit="10"/></g></svg>