<svg viewBox="0 0 72 72" xmlns="http://www.w3.org/2000/svg"><path fill="#b3b3b3" d="M68 4.407v64H4v-64h64m4-4H0v72h72v-72z"/><path fill="none" stroke="#00a5ff" stroke-miterlimit="10" stroke-width=".1" d="M12.923 11.365h46.154A1.923 1.923 0 0161 13.288v46.154a1.923 1.923 0 01-1.923 1.923H12.923A1.923 1.923 0 0111 59.442V13.288a1.923 1.923 0 011.923-1.923z"/><rect x="16" y="4.407" rx="2.254" width="40" height="64" fill="none" stroke="#00a5ff" stroke-miterlimit="10" stroke-width=".1"/><rect x="16" y="4.407" rx="2.254" width="40" height="64" transform="rotate(90 36 36.407)" fill="none" stroke="#00a5ff" stroke-miterlimit="10" stroke-width=".1"/><circle cx="36" cy="36.407" r="29" fill="none" stroke="#00a5ff" stroke-miterlimit="10" stroke-width=".1"/><g stroke-linecap="round" stroke-miterlimit="10" stroke-width="6" stroke="#fff" fill="none" stroke-linejoin="round"><path d="M19.247 45.289h-5.306m37.818-33.541l-3.017 13.815M30.35 27.308l-5.745-.983a4.795 4.795 0 00-4.867 3.41s-4.208 9.749-2.332 17.25"/><circle cx="40.893" cy="38.817" r="14.962"/><circle cx="22.52" cy="50.13" r="3.897"/><path d="M17.182 43.032l3.032 3.201"/></g><path fill="#ea5a47" d="M50.33 11.03c.904-.145 1.451.616 1.216 1.69l-3.529 16.16a2.098 2.098 0 01-2.395 1.6l-21.133-3.8a1.09 1.09 0 01-.715-1.913l.073-.091a3.804 3.804 0 013.227-1.237l15.662 2.553a2.256 2.256 0 002.486-1.611l2.953-11.156a3.097 3.097 0 012.155-2.196z"/><circle cx="40.893" cy="38.817" r="14.962" fill="#d0cfce"/><circle cx="22.52" cy="50.13" r="3.897" fill="#d0cfce"/><g fill="none" stroke="#000" stroke-linecap="round" stroke-linejoin="round"><path stroke-width="2" d="M19.247 45.289h-5.306m37.818-33.541l-3.017 13.815M30.35 27.308l-5.745-.983a4.795 4.795 0 00-4.867 3.41s-4.208 9.749-2.332 17.25"/><circle cx="40.893" cy="38.817" r="14.962" stroke-width="2"/><circle cx="22.52" cy="50.13" r="3.897" stroke-width="1.6"/><path stroke-width="2" d="M17.182 43.032l3.032 3.201"/></g></svg>