<svg viewBox="0 0 72 72" xmlns="http://www.w3.org/2000/svg"><path fill="#b3b3b3" d="M68 4v64H4V4h64m4-4H0v72h72V0z"/><path fill="none" stroke="#00a5ff" stroke-miterlimit="10" stroke-width=".1" d="M12.923 10.958h46.154A1.923 1.923 0 0161 12.881v46.154a1.923 1.923 0 01-1.923 1.923H12.923A1.923 1.923 0 0111 59.035V12.881a1.923 1.923 0 011.923-1.923z"/><rect x="16" y="4" rx="2.254" width="40" height="64" fill="none" stroke="#00a5ff" stroke-miterlimit="10" stroke-width=".1"/><rect x="16" y="4" rx="2.254" width="40" height="64" transform="rotate(90 36 36)" fill="none" stroke="#00a5ff" stroke-miterlimit="10" stroke-width=".1"/><circle cx="36" cy="36" r="29" fill="none" stroke="#00a5ff" stroke-miterlimit="10" stroke-width=".1"/><g stroke-linecap="round" stroke-miterlimit="10" stroke-width="6" stroke="#fff" fill="none" stroke-linejoin="round"><circle cx="36.093" cy="58.842" r="3"/><path d="M35.987 49.373a2.5 2.5 0 01-2.5-2.5v-35.21a2.5 2.5 0 115 0v35.21a2.5 2.5 0 01-2.5 2.5z"/></g><g fill="#FFF"><circle cx="36.093" cy="58.842" r="3"/><path d="M35.987 49.373a2.5 2.5 0 01-2.5-2.5v-35.21a2.5 2.5 0 115 0v35.21a2.5 2.5 0 01-2.5 2.5z"/></g><g fill="none" stroke="#000" stroke-linecap="round" stroke-linejoin="round" stroke-miterlimit="10" stroke-width="2"><circle cx="36.093" cy="58.842" r="3"/><path d="M35.987 49.373a2.5 2.5 0 01-2.5-2.5v-35.21a2.5 2.5 0 115 0v35.21a2.5 2.5 0 01-2.5 2.5z"/></g></svg>