<svg viewBox="0 0 72 72" xmlns="http://www.w3.org/2000/svg"><path fill="#B3B3B3" d="M68 4v64H4V4h64m4-4H0v72h72V0z"/><path fill="none" stroke="#00A5FF" stroke-miterlimit="10" stroke-width=".1" d="M12.923 10.958h46.154c1.062 0 1.923.861 1.923 1.923v46.154a1.923 1.923 0 01-1.923 1.923H12.923A1.923 1.923 0 0111 59.035V12.881c0-1.062.861-1.923 1.923-1.923z"/><path fill="none" stroke="#00A5FF" stroke-miterlimit="10" stroke-width=".1" d="M18.254 4h35.492A2.254 2.254 0 0156 6.254v59.492A2.254 2.254 0 0153.746 68H18.254A2.254 2.254 0 0116 65.746V6.254A2.254 2.254 0 0118.254 4z"/><path fill="none" stroke="#00A5FF" stroke-miterlimit="10" stroke-width=".1" d="M6.254 16h59.492A2.254 2.254 0 0168 18.254v35.492A2.254 2.254 0 0165.746 56H6.254A2.254 2.254 0 014 53.746V18.254A2.254 2.254 0 016.254 16z"/><circle cx="36" cy="36" r="29" fill="none" stroke="#00A5FF" stroke-miterlimit="10" stroke-width=".1"/><g stroke-linecap="round" stroke-miterlimit="10" stroke-width="6" stroke="#fff" fill="none" stroke-linejoin="round"><path d="M27.267 22.366a6.306 6.306 0 01-2.25 3.93 6.304 6.304 0 01-4.156 1.85m23.872-5.78a6.306 6.306 0 002.25 3.93 6.304 6.304 0 004.156 1.85"/><circle cx="36.003" cy="36" r="23"/><path d="M30.043 46.019c1.283-.82 3.87-1.038 5.957-1.038s4.674.218 5.957 1.038m-13.288-3.181c1.832 1.67 1.832 4.235 0 5.986m14.661-5.986c-1.831 1.67-1.831 4.235 0 5.986M30 33a3.001 3.001 0 01-6 0c0-1.655 1.345-3 3-3s3 1.345 3 3m18 0a3.001 3.001 0 01-6 0c0-1.655 1.345-3 3-3s3 1.345 3 3"/></g><circle cx="36.003" cy="36" r="23" fill="#B1CC33"/><path fill="none" stroke="#000" stroke-linecap="round" stroke-linejoin="round" stroke-miterlimit="10" stroke-width="2" d="M27.267 22.366a6.306 6.306 0 01-2.25 3.93 6.304 6.304 0 01-4.156 1.85m23.872-5.78a6.306 6.306 0 002.25 3.93 6.304 6.304 0 004.156 1.85"/><circle cx="36.003" cy="36" r="23" fill="none" stroke="#000" stroke-linecap="round" stroke-linejoin="round" stroke-miterlimit="10" stroke-width="2"/><path fill="none" stroke="#000" stroke-linecap="round" stroke-linejoin="round" stroke-miterlimit="10" stroke-width="2" d="M30.043 46.019c1.283-.82 3.87-1.038 5.957-1.038s4.674.218 5.957 1.038m-13.288-3.181c1.832 1.67 1.832 4.235 0 5.986m14.661-5.986c-1.831 1.67-1.831 4.235 0 5.986"/><path d="M30 33a3.001 3.001 0 01-6 0c0-1.655 1.345-3 3-3s3 1.345 3 3m18 0a3.001 3.001 0 01-6 0c0-1.655 1.345-3 3-3s3 1.345 3 3"/></svg>