<svg viewBox="0 0 72 72" xmlns="http://www.w3.org/2000/svg"><path fill="#B3B3B3" d="M68 4v64H4V4h64m4-4H0v72h72V0z"/><path fill="none" stroke="#00A5FF" stroke-miterlimit="10" stroke-width=".1" d="M12.923 10.958h46.154c1.062 0 1.923.861 1.923 1.923v46.154a1.923 1.923 0 01-1.923 1.923H12.923A1.923 1.923 0 0111 59.035V12.881c0-1.062.861-1.923 1.923-1.923z"/><path fill="none" stroke="#00A5FF" stroke-miterlimit="10" stroke-width=".1" d="M18.254 4h35.492A2.254 2.254 0 0156 6.254v59.492A2.254 2.254 0 0153.746 68H18.254A2.254 2.254 0 0116 65.746V6.254A2.254 2.254 0 0118.254 4z"/><path fill="none" stroke="#00A5FF" stroke-miterlimit="10" stroke-width=".1" d="M6.254 16h59.492A2.254 2.254 0 0168 18.254v35.492A2.254 2.254 0 0165.746 56H6.254A2.254 2.254 0 014 53.746V18.254A2.254 2.254 0 016.254 16z"/><circle cx="36" cy="36" r="29" fill="none" stroke="#00A5FF" stroke-miterlimit="10" stroke-width=".1"/><g stroke-linecap="round" stroke-miterlimit="10" stroke-width="6" stroke="#fff" fill="none" stroke-linejoin="round"><circle cx="36" cy="36" r="23"/><path d="M21.264 27.629a7.173 7.173 0 014.47-2.607 7.077 7.077 0 014.339.765M41 27.077a7.174 7.174 0 004.91 1.637A7.078 7.078 0 0050 27.077M24 41c-.256-.205-.48 8 5 8 5 0 4-8 9-5.6"/><path d="M49 41s-.89 6.145-5 6.4c-3.769.233-5.162-6.118-9-4M30 33a3.001 3.001 0 01-6 0c0-1.655 1.345-3 3-3s3 1.345 3 3m18-2a3.001 3.001 0 01-6 0c0-1.655 1.345-3 3-3s3 1.345 3 3"/></g><circle cx="36" cy="36" r="23" fill="#FCEA2B"/><circle cx="36" cy="36" r="23" fill="none" stroke="#000" stroke-miterlimit="10" stroke-width="2"/><path fill="none" stroke="#000" stroke-linecap="round" stroke-linejoin="round" stroke-width="2" d="M21.264 27.629a7.173 7.173 0 014.47-2.607 7.077 7.077 0 014.339.765M41 27.077a7.174 7.174 0 004.91 1.637A7.078 7.078 0 0050 27.077M24 41c-.256-.205-.48 8 5 8 5 0 4-8 9-5.6"/><path fill="none" stroke="#000" stroke-linecap="round" stroke-linejoin="round" stroke-width="2" d="M49 41s-.89 6.145-5 6.4c-3.769.233-5.162-6.118-9-4"/><path d="M30 33a3.001 3.001 0 01-6 0c0-1.655 1.345-3 3-3s3 1.345 3 3m18-2a3.001 3.001 0 01-6 0c0-1.655 1.345-3 3-3s3 1.345 3 3"/></svg>