<svg viewBox="0 0 72 72" xmlns="http://www.w3.org/2000/svg"><path fill="#B3B3B3" d="M68 4v64H4V4h64m4-4H0v72h72V0z"/><path fill="none" stroke="#00A5FF" stroke-miterlimit="10" stroke-width=".1" d="M12.923 10.958h46.154c1.062 0 1.923.861 1.923 1.923v46.154a1.923 1.923 0 01-1.923 1.923H12.923A1.923 1.923 0 0111 59.035V12.881c0-1.062.861-1.923 1.923-1.923z"/><path fill="none" stroke="#00A5FF" stroke-miterlimit="10" stroke-width=".1" d="M18.254 4h35.492A2.254 2.254 0 0156 6.254v59.492A2.254 2.254 0 0153.746 68H18.254A2.254 2.254 0 0116 65.746V6.254A2.254 2.254 0 0118.254 4z"/><path fill="none" stroke="#00A5FF" stroke-miterlimit="10" stroke-width=".1" d="M6.254 16h59.492A2.254 2.254 0 0168 18.254v35.492A2.254 2.254 0 0165.746 56H6.254A2.254 2.254 0 014 53.746V18.254A2.254 2.254 0 016.254 16z"/><circle cx="36" cy="36" r="29" fill="none" stroke="#00A5FF" stroke-miterlimit="10" stroke-width=".1"/><g stroke-linecap="round" stroke-miterlimit="10" stroke-width="6" stroke="#fff" fill="none" stroke-linejoin="round"><path d="M43.82 57.64a23.111 23.111 0 01-14.64.335M50.91 18.49a22.993 22.993 0 017.55 12.55m-44.9-.12a23.27 23.27 0 01.549-2.004M11.65 36.29a13.23 13.23 0 00-1.089 5.535 36.25 36.25 0 003.224 13.74c.274.576.717.575.99 0A36.31 36.31 0 0018 41.815v0c0-4.313-1.67-7.822-3.72-7.822-.993-.003-1.926.811-2.629 2.29zm43 0a13.23 13.23 0 00-1.089 5.535 36.25 36.25 0 003.224 13.74c.274.576.717.575.99 0A36.31 36.31 0 0061 41.815v0c0-4.313-1.67-7.822-3.72-7.822-.993-.003-1.926.811-2.629 2.29zM21.36 52.22a5.43 5.43 0 00-.796 2.943 15.311 15.311 0 002.356 7.308.4.4 0 00.724 0 15.323 15.323 0 002.358-7.309c0-2.294-1.22-4.16-2.72-4.16a2.35 2.35 0 00-1.922 1.218zm26 0a5.43 5.43 0 00-.796 2.943 15.311 15.311 0 002.356 7.308.4.4 0 00.724 0 15.323 15.323 0 002.358-7.309c0-2.294-1.22-4.16-2.72-4.16a2.35 2.35 0 00-1.922 1.218zm-2.86-2.95h-17a4.012 4.012 0 01-4-4 4.012 4.012 0 014-4h17a4.012 4.012 0 014 4 4.012 4.012 0 01-4 4zM28 41.77v7m5-7v7m5-7v7m5-7v7"/><path d="M48.34 16.8c.795-.166 1.522-.884 1.665-2.799.299-3.989-9-4-9-4s-3 0-9-3-12 7-12 7-3 6-5 5-5 2-3 6c0 0 1 7 6 2s3-8 10-7 11 0 11-2 5-4 7-2a2.604 2.604 0 002.335.8M30 31a3.001 3.001 0 01-6 0c0-1.655 1.345-3 3-3s3 1.345 3 3m18 0a3.001 3.001 0 01-6 0c0-1.655 1.345-3 3-3s3 1.345 3 3"/></g><path fill="#92D3F5" d="M36 12c-13.25 0-24 10.75-24 24s10.75 24 24 24 24-10.75 24-24c-.015-13.25-10.75-23.99-24-24z"/><path fill="#fff" d="M11.65 36.29a13.23 13.23 0 00-1.089 5.535 36.25 36.25 0 003.224 13.74c.274.576.717.575.99 0A36.31 36.31 0 0018 41.815c0-4.313-1.67-7.822-3.72-7.822-.993-.003-1.926.811-2.629 2.29zm43 0a13.23 13.23 0 00-1.089 5.535 36.25 36.25 0 003.224 13.74c.274.576.717.575.99 0A36.31 36.31 0 0061 41.815c0-4.313-1.67-7.822-3.72-7.822-.993-.003-1.926.811-2.629 2.29zM21.36 52.22a5.43 5.43 0 00-.796 2.943 15.311 15.311 0 002.356 7.308.4.4 0 00.724 0 15.323 15.323 0 002.358-7.309c0-2.294-1.22-4.16-2.72-4.16a2.35 2.35 0 00-1.922 1.218zm26 0a5.43 5.43 0 00-.796 2.943 15.311 15.311 0 002.356 7.308.4.4 0 00.724 0 15.323 15.323 0 002.358-7.309c0-2.294-1.22-4.16-2.72-4.16a2.35 2.35 0 00-1.922 1.218zm-2.86-2.95h-17a4.012 4.012 0 01-4-4 4.012 4.012 0 014-4h17a4.012 4.012 0 014 4 4.012 4.012 0 01-4 4zm3.84-32.47c.795-.166 1.522-.884 1.665-2.799.299-3.989-9-4-9-4s-3 0-9-3-12 7-12 7-3 6-5 5-5 2-3 6c0 0 1 7 6 2s3-8 10-7 11 0 11-2 5-4 7-2a2.604 2.604 0 002.335.8"/><g><path fill="none" stroke="#000" stroke-linecap="round" stroke-miterlimit="10" stroke-width="2" d="M43.82 57.64a23.111 23.111 0 01-14.64.335M50.91 18.49a22.993 22.993 0 017.55 12.55m-44.9-.12a23.27 23.27 0 01.549-2.004"/><path fill="none" stroke="#000" stroke-miterlimit="10" stroke-width="2" d="M11.65 36.29a13.23 13.23 0 00-1.089 5.535 36.25 36.25 0 003.224 13.74c.274.576.717.575.99 0A36.31 36.31 0 0018 41.815v0c0-4.313-1.67-7.822-3.72-7.822-.993-.003-1.926.811-2.629 2.29zm43 0a13.23 13.23 0 00-1.089 5.535 36.25 36.25 0 003.224 13.74c.274.576.717.575.99 0A36.31 36.31 0 0061 41.815v0c0-4.313-1.67-7.822-3.72-7.822-.993-.003-1.926.811-2.629 2.29zM21.36 52.22a5.43 5.43 0 00-.796 2.943 15.311 15.311 0 002.356 7.308.4.4 0 00.724 0 15.323 15.323 0 002.358-7.309c0-2.294-1.22-4.16-2.72-4.16a2.35 2.35 0 00-1.922 1.218zm26 0a5.43 5.43 0 00-.796 2.943 15.311 15.311 0 002.356 7.308.4.4 0 00.724 0 15.323 15.323 0 002.358-7.309c0-2.294-1.22-4.16-2.72-4.16a2.35 2.35 0 00-1.922 1.218z"/><path fill="none" stroke="#000" stroke-miterlimit="2" stroke-width="2" d="M44.5 49.27h-17a4.012 4.012 0 01-4-4 4.012 4.012 0 014-4h17a4.012 4.012 0 014 4 4.012 4.012 0 01-4 4z"/><path fill="none" stroke="#000" stroke-linecap="round" stroke-linejoin="round" stroke-width="2" d="M28 41.77v7m5-7v7m5-7v7m5-7v7"/><path fill="none" stroke="#000" stroke-miterlimit="10" stroke-width="2" d="M48.34 16.8c.795-.166 1.522-.884 1.665-2.799.299-3.989-9-4-9-4s-3 0-9-3-12 7-12 7-3 6-5 5-5 2-3 6c0 0 1 7 6 2s3-8 10-7 11 0 11-2 5-4 7-2a2.604 2.604 0 002.335.8"/><path d="M30 31a3.001 3.001 0 01-6 0c0-1.655 1.345-3 3-3s3 1.345 3 3m18 0a3.001 3.001 0 01-6 0c0-1.655 1.345-3 3-3s3 1.345 3 3"/></g></svg>