<svg viewBox="0 0 72 72" xmlns="http://www.w3.org/2000/svg"><path fill="#b3b3b3" d="M0 68.635h68.635V0H0zM3.813 3.813h61.01v61.01H3.813z"/><path fill="none" stroke="#00a5ff" stroke-miterlimit="10" stroke-width=".1" d="M56.316 58.11H12.32a1.833 1.833 0 01-1.833-1.833V12.28a1.833 1.833 0 011.833-1.834h43.997a1.833 1.833 0 011.834 1.834v43.996a1.833 1.833 0 01-1.834 1.834z"/><path fill="none" stroke="#00a5ff" stroke-miterlimit="10" stroke-width=".1" d="M51.234 64.822H17.401a2.148 2.148 0 01-2.149-2.148V5.962a2.148 2.148 0 012.149-2.149h33.834a2.148 2.148 0 012.148 2.149v56.712a2.148 2.148 0 01-2.149 2.148z"/><path fill="none" stroke="#00a5ff" stroke-miterlimit="10" stroke-width=".1" d="M3.813 51.234V17.401a2.148 2.148 0 012.149-2.149h56.712a2.148 2.148 0 012.148 2.149v33.834a2.148 2.148 0 01-2.148 2.148H5.962a2.148 2.148 0 01-2.149-2.149z"/><circle cx="34.318" cy="34.318" r="27.645" fill="none" stroke="#00a5ff" stroke-miterlimit="10" stroke-width=".1"/><g stroke-linecap="round" stroke-miterlimit="10" stroke-width="6" stroke="#fff" fill="none" stroke-linejoin="round"><path d="M15.997 29.551a1.006 1.006 0 01-.916.954h-1.832a1.006 1.006 0 01-.917-.954V14.3a1.006 1.006 0 01.916-.953h1.833a1.006 1.006 0 01.916.953zm40.306 0a1.006 1.006 0 01-.916.954h-1.832a1.006 1.006 0 01-.916-.954V14.3a1.006 1.006 0 01.916-.953h1.832a1.006 1.006 0 01.916.953zm-16.489-8.58c3.664 0 12.825.954 12.825.954m-36.643 0a99.932 99.932 0 0112.826-.953"/><circle cx="34.318" cy="17.114" r="3"/><path d="M19.661 21.925l1.924 5.91c.458 1.525 1.557 1.62 2.473.381l1.374-2.001a5.202 5.202 0 014.306-2.002l1.832.286a26.484 26.484 0 005.496 0l1.832-.286a4.855 4.855 0 014.306 2.002l1.374 2.002c.916 1.239 2.015 1.143 2.473-.382l1.924-5.91"/><path d="M28.821 28.598s.183 1.049.459 2.383a26.307 26.307 0 01.457 4.29 2.198 2.198 0 01-.515 1.68 14.936 14.936 0 01-2.476 1.595 2.709 2.709 0 00-1.096 2.531l1.43 12.182a1.985 1.985 0 001.741 2.031c1.008 0 1.55-.69 1.55-1.739 0 0 .005-7.836.092-8.824a3.806 3.806 0 01.607-1.83 2.184 2.184 0 011.087-.746 7.34 7.34 0 011.97-.262 7.725 7.725 0 012.02.262 2.193 2.193 0 011.086.746 3.816 3.816 0 01.607 1.83c.087.988.091 8.824.091 8.824 0 1.049.543 1.739 1.55 1.739a1.986 1.986 0 001.742-2.03l1.43-12.182a2.709 2.709 0 00-1.095-2.532 14.976 14.976 0 01-2.477-1.595 2.198 2.198 0 01-.516-1.68 26.218 26.218 0 01.459-4.29c.274-1.335.457-2.383.457-2.383"/></g><g fill="#fcea2b"><ellipse cx="34.318" cy="17.254" rx="2.748" ry="2.86"/><path d="M34.284 24.338l.017 17.675s-2.68.258-3.13.921c-1.242 1.835-1.02 12.137-1.02 12.137l-2.829-.442-1.813-14.952 4.301-3.254s-1.332-5.15-1.769-7.308c-.236-1.165-1.132-1.245-1.48-.928-.444.405-1.674 3.097-3.348 3.097s-2.604-.483-3.07-1.258c-1.21-2.032-2.883-8.71-2.883-8.71l2.325-.484 1.86 7.066 1.303.87 2.883-3.58 3.255-1.356z"/><path d="M34.185 24.338l.016 17.675s2.654.258 3.103.921c1.242 1.835 1.02 12.137 1.02 12.137l2.828-.442 1.814-14.952-4.301-3.253s1.332-5.152 1.769-7.31c.236-1.164 1.132-1.244 1.48-.927.444.405 1.673 3.097 3.348 3.097s2.604-.483 3.07-1.258c1.209-2.032 2.883-8.71 2.883-8.71l-2.325-.484-1.86 7.066-1.303.87-2.884-3.58-3.254-1.356z"/></g><path d="M15.997 29.551a1.006 1.006 0 01-.916.954h-1.832a1.006 1.006 0 01-.917-.954V14.3a1.006 1.006 0 01.916-.953h1.833a1.006 1.006 0 01.916.953zm40.306 0a1.006 1.006 0 01-.916.954h-1.832a1.006 1.006 0 01-.916-.954V14.3a1.006 1.006 0 01.916-.953h1.832a1.006 1.006 0 01.916.953z" fill="#9b9b9a"/><g fill="none" stroke="#000"><path stroke-linecap="round" stroke-linejoin="round" stroke-width="2.04" d="M15.997 29.551a1.006 1.006 0 01-.916.954h-1.832a1.006 1.006 0 01-.917-.954V14.3a1.006 1.006 0 01.916-.953h1.833a1.006 1.006 0 01.916.953zm40.306 0a1.006 1.006 0 01-.916.954h-1.832a1.006 1.006 0 01-.916-.954V14.3a1.006 1.006 0 01.916-.953h1.832a1.006 1.006 0 01.916.953z"/><path stroke-linecap="round" stroke-linejoin="round" stroke-width="2.05" d="M39.814 20.971c3.664 0 12.825.954 12.825.954"/><path stroke-linecap="round" stroke-linejoin="round" stroke-width="2.03" d="M15.996 21.925a99.932 99.932 0 0112.826-.953"/><circle cx="34.318" cy="17.114" r="3" stroke-miterlimit="10" stroke-width="2.04"/><path stroke-linecap="round" stroke-linejoin="round" stroke-width="2.04" d="M19.661 21.925l1.924 5.91c.458 1.525 1.557 1.62 2.473.381l1.374-2.001a5.202 5.202 0 014.306-2.002l1.832.286a26.484 26.484 0 005.496 0l1.832-.286a4.855 4.855 0 014.306 2.002l1.374 2.002c.916 1.239 2.015 1.143 2.473-.382l1.924-5.91"/><path stroke-linecap="round" stroke-linejoin="round" stroke-width="2" d="M28.821 28.598s.183 1.049.459 2.383a26.307 26.307 0 01.457 4.29 2.198 2.198 0 01-.515 1.68 14.936 14.936 0 01-2.476 1.595 2.709 2.709 0 00-1.096 2.531l1.43 12.182a1.985 1.985 0 001.741 2.031c1.008 0 1.55-.69 1.55-1.739 0 0 .005-7.836.092-8.824a3.806 3.806 0 01.607-1.83 2.184 2.184 0 011.087-.746 7.34 7.34 0 011.97-.262 7.725 7.725 0 012.02.262 2.193 2.193 0 011.086.746 3.816 3.816 0 01.607 1.83c.087.988.091 8.824.091 8.824 0 1.049.543 1.739 1.55 1.739a1.986 1.986 0 001.742-2.03l1.43-12.182a2.709 2.709 0 00-1.095-2.532 14.976 14.976 0 01-2.477-1.595 2.198 2.198 0 01-.516-1.68 26.218 26.218 0 01.459-4.29c.274-1.335.457-2.383.457-2.383"/></g></svg>