<svg viewBox="0 0 72 72" xmlns="http://www.w3.org/2000/svg"><path fill="#b3b3b3" d="M0 68.635h68.636V0H0zM3.813 3.813h61.01v61.01H3.813z"/><path fill="none" stroke="#00a5ff" stroke-miterlimit="10" stroke-width=".1" d="M56.317 58.11H12.319a1.833 1.833 0 01-1.833-1.833V12.28a1.833 1.833 0 011.833-1.834h43.998a1.833 1.833 0 011.833 1.834v43.996a1.833 1.833 0 01-1.833 1.834z"/><path fill="none" stroke="#00a5ff" stroke-miterlimit="10" stroke-width=".1" d="M51.235 64.822H17.4a2.148 2.148 0 01-2.148-2.148V5.962A2.148 2.148 0 0117.4 3.813h33.834a2.148 2.148 0 012.149 2.149v56.712a2.148 2.148 0 01-2.15 2.148z"/><path fill="none" stroke="#00a5ff" stroke-miterlimit="10" stroke-width=".1" d="M3.813 51.234V17.401a2.148 2.148 0 012.149-2.149h56.712a2.148 2.148 0 012.149 2.149v33.834a2.148 2.148 0 01-2.149 2.148H5.962a2.148 2.148 0 01-2.149-2.149z"/><circle cx="34.318" cy="34.318" r="27.645" fill="none" stroke="#00a5ff" stroke-miterlimit="10" stroke-width=".1"/><g stroke-linecap="round" stroke-miterlimit="10" stroke-width="6" stroke="#fff" fill="none" stroke-linejoin="round"><path d="M11.44 45.757l-5.72-7.34 25.738-.286"/><path d="M4.767 44.804c2.86 0 8.58 2.86 14.299 2.86s9.533-2.86 15.252-2.86 10.486 2.86 15.253 2.86 6.673-2.86 14.299-2.86"/><path d="M23.832 46.71s2.955-2.097 3.813-2.86a8.313 8.313 0 014.767-1.907l12.392-10.485m9.533 15.252l8.58-8.865-20.973.286"/><circle cx="33.365" cy="21.925" r="3"/><path d="M44.804 31.458c-3.813-.953-10.581-3.05-14.299-3.813-4.766-.953-9.533 10.486-9.533 10.486m7.626-.001l3.814-6.672"/></g><g fill="#fcea2b"><circle cx="33.505" cy="21.785" r="3"/><path d="M44.804 31.458c-3.813-.953-10.581-3.05-14.299-3.813-4.766-.953-9.533 10.486-9.533 10.486h7.626l4.29-7.436 9.724 2.097"/></g><path fill="#d0cfce" d="M55.29 45.757l7.626-7.912-20.972-.667H31.458L5.72 38.417l5.72 7.34 5.72 2.097 8.388-1.334 8.77-1.716 6.864 1.144 8.388 1.716z"/><path fill="#92d3f5" d="M64.823 44.804c-7.626 0-10.486 2.86-15.253 2.86s-9.532-2.86-15.252-2.86-9.533 2.86-15.252 2.86-12.393-2.86-15.253-2.86V56.91c0 1.335 1.335 7.912 6.673 7.912h48.712c5.53 0 5.625-5.529 5.625-10.01z"/><path fill="#a57939" d="M23.832 46.71s2.955-2.097 3.813-2.86a8.313 8.313 0 014.766-1.907l12.393-10.485.763-.667s.858 1.525.572 2.097-5.815 4.957-5.815 4.957l-6.006 5.338.286 2.002-8.865 1.24z"/><g fill="none" stroke="#000" stroke-linecap="round" stroke-linejoin="round" stroke-width="2"><path d="M11.44 45.757l-5.72-7.34 25.738-.286"/><path d="M4.767 44.804c2.86 0 8.58 2.86 14.299 2.86s9.533-2.86 15.252-2.86 10.486 2.86 15.253 2.86 6.673-2.86 14.299-2.86"/><path d="M23.832 46.71s2.955-2.097 3.813-2.86a8.313 8.313 0 014.767-1.907l12.392-10.485m9.533 15.252l8.58-8.865-20.973.286"/><circle cx="33.365" cy="21.925" r="3"/><path d="M44.804 31.458c-3.813-.953-10.581-3.05-14.299-3.813-4.766-.953-9.533 10.486-9.533 10.486m7.626-.001l3.814-6.672"/></g></svg>