<svg viewBox="0 0 72 72" xmlns="http://www.w3.org/2000/svg"><path fill="#b3b3b3" d="M68 4v64H4V4h64m4-4H0v72h72V0z"/><path fill="none" stroke="#00a5ff" stroke-miterlimit="10" stroke-width=".1" d="M12.923 10.958h46.154A1.923 1.923 0 0161 12.881v46.154a1.923 1.923 0 01-1.923 1.923H12.923A1.923 1.923 0 0111 59.035V12.881a1.923 1.923 0 011.923-1.923z"/><rect x="16" y="4" rx="2.254" ry="2.254" width="40" height="64" fill="none" stroke="#00a5ff" stroke-miterlimit="10" stroke-width=".1"/><rect x="16" y="4" rx="2.254" ry="2.254" width="40" height="64" transform="rotate(90 36 36)" fill="none" stroke="#00a5ff" stroke-miterlimit="10" stroke-width=".1"/><circle cx="36" cy="36" r="29" fill="none" stroke="#00a5ff" stroke-miterlimit="10" stroke-width=".1"/><g stroke-linecap="round" stroke-miterlimit="10" stroke-width="6" stroke="#fff" fill="none" stroke-linejoin="round"><circle cx="33.4" cy="17.1" r="3"/><path d="M25.3 34.1l4.3-2.9a12.399 12.399 0 002.8-2.8l1.9-2.7a4.135 4.135 0 013.1-1.6 3.205 3.205 0 012.7 1.9l4.6 10.5a4.974 4.974 0 01-.1 3.6l-.1.2a6.163 6.163 0 01-2.8 2.5l-5.5 2.4a2.03 2.03 0 00-1.1 2.6l2.6 6.4A2.397 2.397 0 0137 57a1.815 1.815 0 01-2.5-.8L30.1 48a9.073 9.073 0 01-.9-3.4 3.846 3.846 0 011.7-2.7l4.6-2.9a2.92 2.92 0 001.2-3l-1.5-6"/><circle cx="19.1" cy="58" r="10.2"/><circle cx="51.1" cy="58" r="10.2"/><path d="M19.2 58l2-24H25m12 23l-1 3.1a2.791 2.791 0 01-2.4 1.9 1.702 1.702 0 01-1.6-2l.9-6.7m8.5-10.4l-3.6 11.5M5 29.46l10.362-7.265a3.262 3.262 0 013.33-.08L25 26.095m19-2.524l10.309-6.504a2.326 2.326 0 012.957.482L67 29.46"/></g><path fill="#d0cfce" d="M40 26.095L56 16l12 13.46V69H4V29.46l14-8.412 10 6.73 12-1.683z"/><circle cx="19.1" cy="57" r="10.2" fill="#fff"/><circle cx="51.1" cy="57" r="10.2" fill="#fff"/><g fill="#fcea2b"><circle cx="33.4" cy="16.1" r="3"/><path d="M33.4 26.9l2-2.9 3.8.1 6.3 14.1-2.1 3.8-2.5 2.5-3.1 11.2-3.4 6.7-2.4-2 .9-7.1-3.8-7 .1-3.3 8-5-2.8-7.5"/></g><g fill="none" stroke="#000" stroke-width="2"><circle cx="33.4" cy="17.1" r="3" stroke-miterlimit="10"/><path stroke-linecap="round" stroke-linejoin="round" d="M25.3 34.1l4.3-2.9a12.399 12.399 0 002.8-2.8l1.9-2.7a4.135 4.135 0 013.1-1.6 3.205 3.205 0 012.7 1.9l4.6 10.5a4.974 4.974 0 01-.1 3.6l-.1.2a6.163 6.163 0 01-2.8 2.5l-5.5 2.4a2.03 2.03 0 00-1.1 2.6l2.6 6.4A2.397 2.397 0 0137 57a1.815 1.815 0 01-2.5-.8L30.1 48a9.073 9.073 0 01-.9-3.4 3.846 3.846 0 011.7-2.7l4.6-2.9a2.92 2.92 0 001.2-3l-1.5-6"/><circle cx="19.1" cy="58" r="10.2" stroke-miterlimit="10"/><circle cx="51.1" cy="58" r="10.2" stroke-miterlimit="10"/><path stroke-linecap="round" stroke-linejoin="round" d="M19.2 58l2-24H25"/><path stroke-miterlimit="10" d="M37 57l-1 3.1a2.791 2.791 0 01-2.4 1.9 1.702 1.702 0 01-1.6-2l.9-6.7m8.5-10.4l-3.6 11.5"/><path stroke-linecap="round" stroke-miterlimit="10" d="M5 29.46l10.362-7.265a3.262 3.262 0 013.33-.08L25 26.095m19-2.524l10.309-6.504a2.326 2.326 0 012.957.482L67 29.46"/></g></svg>