<svg viewBox="0 0 72 72" xmlns="http://www.w3.org/2000/svg"><path fill="#b3b3b3" d="M0 68.636h68.635V0H0zM3.813 3.813h61.01v61.01H3.813z"/><path fill="none" stroke="#00a5ff" stroke-miterlimit="10" stroke-width=".1" d="M56.316 58.11H12.32a1.833 1.833 0 01-1.833-1.833V12.28a1.833 1.833 0 011.833-1.834h43.997a1.833 1.833 0 011.833 1.834v43.996a1.833 1.833 0 01-1.833 1.834z"/><path fill="none" stroke="#00a5ff" stroke-miterlimit="10" stroke-width=".1" d="M51.234 64.823H17.401a2.148 2.148 0 01-2.149-2.15V5.963a2.148 2.148 0 012.149-2.149h33.833a2.148 2.148 0 012.149 2.149v56.712a2.148 2.148 0 01-2.149 2.149z"/><path fill="none" stroke="#00a5ff" stroke-miterlimit="10" stroke-width=".1" d="M3.813 51.235V17.4a2.149 2.149 0 012.149-2.149h56.712a2.149 2.149 0 012.148 2.15v33.833a2.148 2.148 0 01-2.148 2.148H5.962a2.148 2.148 0 01-2.15-2.148z"/><circle cx="34.318" cy="34.318" r="27.645" fill="none" stroke="#00a5ff" stroke-miterlimit="10" stroke-width=".1"/><g stroke-linecap="round" stroke-miterlimit="10" stroke-width="6" stroke="#fff" fill="none" stroke-linejoin="round"><circle cx="11.963" cy="20.358" r="2.86"/><circle cx="35.795" cy="12.733" r="3"/><path d="M35.89 37.423a90.555 90.555 0 01-5.922 6.864 2.968 2.968 0 01-1.263.696l-9.783 2.64a1.698 1.698 0 01-2.097-1.144 2.278 2.278 0 011.525-2.097s5.589-2.552 8.552-4.41a5.887 5.887 0 002.221-2.541 25.069 25.069 0 002.14-6.264c.283-2.277-1.075-6.735-1.075-6.735"/><path d="M33.478 40.913s.074 1.687.05 3.522a11.907 11.907 0 01-2.06 6.538l-3.3 4.848a1.778 1.778 0 00.382 2.478 2.372 2.372 0 002.764-.476s3.796-4.72 5.649-7.3a7.894 7.894 0 001.28-2.827l1.094-4.719a20.544 20.544 0 00.465-4.204c.067-1.515.145-3.468.141-4.777 0-.601.43-6.921.43-7.146m-27.552-9.446l6.96 3.05a6.367 6.367 0 003.526.19l2.098-.667a23.358 23.358 0 013.717-.762l10.486-.667a12.448 12.448 0 013.718.476l15.348 5.052M31.949 11.075s-.547-.366-.946-.128c-.469.279-.951 1.52-1.53 2a3.362 3.362 0 01-2.017.805"/></g><g fill="#fcea2b"><circle cx="35.795" cy="12.733" r="2.86"/><path d="M35.51 19.215l-13.92 1.049-7.244-.953s-1.335.667.476 1.906a15.922 15.922 0 007.054 2.383c3.337 0 6.594-.772 7.354.963a14.344 14.344 0 001.058 3.185l.842 1.354-.715 5.309-2.317 5.186-11.369 5.452.381 2.86 12.726-2.953 3.861-4.006-.116 1.46-.268 3.136a13.268 13.268 0 01-2.098 6.106l-3.458 5.315 2.544 1.796 6.99-8.287a3.614 3.614 0 00.76-1.522l1.808-7.88a3.925 3.925 0 00.084-.53l.61-6.893s.641-5.615 1.335-10.353c.838-1.924 4.583-.079 7.824.874 1.812.477 4.29 1.526 7.15 2.098 2.098.476 2.67-1.812 2.67-1.812l-17.446-6.1z"/></g><circle cx="11.963" cy="20.359" r="2.86" fill="#ea5a47"/><g fill="none" stroke="#000" stroke-width="2"><circle cx="11.963" cy="20.358" r="2.86" stroke-miterlimit="10"/><circle cx="35.795" cy="12.733" r="3" stroke-miterlimit="10"/><path stroke-linecap="round" stroke-linejoin="round" d="M35.89 37.423a90.555 90.555 0 01-5.922 6.864 2.968 2.968 0 01-1.263.696l-9.783 2.64a1.698 1.698 0 01-2.097-1.144 2.278 2.278 0 011.525-2.097s5.589-2.552 8.552-4.41a5.887 5.887 0 002.221-2.541 25.069 25.069 0 002.14-6.264c.283-2.277-1.075-6.735-1.075-6.735"/><path stroke-linecap="round" stroke-linejoin="round" d="M33.478 40.913s.074 1.687.05 3.522a11.907 11.907 0 01-2.06 6.538l-3.3 4.848a1.778 1.778 0 00.382 2.478 2.372 2.372 0 002.764-.476s3.796-4.72 5.649-7.3a7.894 7.894 0 001.28-2.827l1.094-4.719a20.544 20.544 0 00.465-4.204c.067-1.515.145-3.468.141-4.777 0-.601.43-6.921.43-7.146m-27.552-9.446l6.96 3.05a6.367 6.367 0 003.526.19l2.098-.667a23.358 23.358 0 013.717-.762l10.486-.667a12.448 12.448 0 013.718.476l15.348 5.052M31.949 11.075s-.547-.366-.946-.128c-.469.279-.951 1.52-1.53 2a3.362 3.362 0 01-2.017.805"/></g></svg>