<svg viewBox="0 0 72 72" xmlns="http://www.w3.org/2000/svg"><path fill="#b3b3b3" d="M68 4v64H4V4h64m4-4H0v72h72V0z"/><path fill="none" stroke="#00a5ff" stroke-miterlimit="10" stroke-width=".1" d="M12.923 10.958h46.154A1.923 1.923 0 0161 12.881v46.154a1.923 1.923 0 01-1.923 1.923H12.923A1.923 1.923 0 0111 59.035V12.881a1.923 1.923 0 011.923-1.923z"/><rect x="16" y="4" rx="2.254" width="40" height="64" fill="none" stroke="#00a5ff" stroke-miterlimit="10" stroke-width=".1"/><rect x="16" y="4" rx="2.254" width="40" height="64" transform="rotate(90 36 36)" fill="none" stroke="#00a5ff" stroke-miterlimit="10" stroke-width=".1"/><circle cx="36" cy="36" r="29" fill="none" stroke="#00a5ff" stroke-miterlimit="10" stroke-width=".1"/><path d="M35 35s5.888-1.552 7.129-8.44M24.67 16.302c-4.015 5.373.728 7.243.728 7.243S31.088 20.771 41 25c8.815 3.76 7.84 3.784 7.84 3.784-1.595 8.858-9.646 8.424-9.646 8.424s-3.716-2.871-8.255-2.588c-4.539.283-6.703-10.268-6.703-10.268s-7.164-5.355-4.309-9.921M41.658 41.5s10.349-3.832 9.897-10.559c0 0 4.823 4.41.706 10.76 0 0-4.95 4.277-9.77 1.875l-.833-2.075zM41 53s9.833.667 12.417-7.667C53.417 45.333 52 48 43 48l-2 5zm-7 2s-5-1-5-4c0-2.813 7.91.527 8.899 2.604A.93.93 0 0138 54c0 2-1 6-7 7s3-6 3-6z" stroke-linecap="round" stroke-miterlimit="10" stroke-width="6" stroke="#fff" fill="none" stroke-linejoin="round"/><path fill="#F4AA41" d="M39 38a28.116 28.116 0 013.5 10.061s2.032 3.025 4.708 1.112c2.676-1.913 7-3.726 7-3.726 1.77-8.734.353-14.92-5.335-17.69L39 38z"/><path fill="#F4AA41" stroke="#F4AA41" stroke-miterlimit="10" d="M24.237 24.352s2.163 10.55 6.702 10.268c4.539-.283 8.255 2.588 8.255 2.588s8.05.434 9.647-8.423c0 0 .974-.025-7.84-3.785-9.914-4.229-15.603-1.455-15.603-1.455l-1.161.807z"/><path fill="#E27022" d="M36 34.563S43 30 42 26l7 3s-2 7-9 8l-4-2.438z"/><path fill="#F4AA41" d="M34 55s-5-1-5-4c0-2.813 7.91.527 8.899 2.604A.93.93 0 0138 54c0 2-1 6-7 7s3-6 3-6z"/><path fill="#E27022" d="M41 53s9.833.667 12.417-7.667C53.417 45.333 52 48 43 48l-2 5z"/><path fill="#F4AA41" d="M41.658 41.5s10.349-3.832 9.897-10.559c0 0 4.823 4.41.706 10.76 0 0-4.95 4.277-9.77 1.875l-.833-2.075z"/><path d="M35 35s5.888-1.552 7.129-8.44M24.67 16.302c-4.015 5.373.728 7.243.728 7.243S31.088 20.771 41 25c8.815 3.76 7.84 3.784 7.84 3.784-1.595 8.858-9.646 8.424-9.646 8.424s-3.716-2.871-8.255-2.588c-4.539.283-6.703-10.268-6.703-10.268s-7.164-5.355-4.309-9.921M41.658 41.5s10.349-3.832 9.897-10.559c0 0 4.823 4.41.706 10.76 0 0-4.95 4.277-9.77 1.875l-.833-2.075zM41 53s9.833.667 12.417-7.667C53.417 45.333 52 48 43 48l-2 5zm-7 2s-5-1-5-4c0-2.813 7.91.527 8.899 2.604A.93.93 0 0138 54c0 2-1 6-7 7s3-6 3-6z" fill="none" stroke="#000" stroke-linecap="round" stroke-linejoin="round" stroke-miterlimit="10" stroke-width="2"/></svg>