<svg viewBox="0 0 72 72" xmlns="http://www.w3.org/2000/svg"><path fill="#b3b3b3" d="M68 4v64H4V4h64m4-4H0v72h72V0z"/><path fill="none" stroke="#00a5ff" stroke-miterlimit="10" stroke-width=".1" d="M12.923 10.958h46.154A1.923 1.923 0 0161 12.881v46.154a1.923 1.923 0 01-1.923 1.923H12.923A1.923 1.923 0 0111 59.035V12.881a1.923 1.923 0 011.923-1.923z"/><rect x="16" y="4" rx="2.254" width="40" height="64" fill="none" stroke="#00a5ff" stroke-miterlimit="10" stroke-width=".1"/><rect x="16" y="4" rx="2.254" width="40" height="64" transform="rotate(90 36 36)" fill="none" stroke="#00a5ff" stroke-miterlimit="10" stroke-width=".1"/><circle cx="36" cy="36" r="29" fill="none" stroke="#00a5ff" stroke-miterlimit="10" stroke-width=".1"/><g stroke-linecap="round" stroke-miterlimit="10" stroke-width="6" stroke="#fff" fill="none" stroke-linejoin="round"><path d="M51.098 45.98h-30.04c-5.512 0-9.98-4.469-9.98-9.98v0c0-5.512 4.468-9.98 9.98-9.98h30.04c5.512 0 9.98 4.468 9.98 9.98v0c0 5.511-4.468 9.98-9.98 9.98z"/><circle cx="20.923" cy="36" r="10.001"/><path d="M27.521 28.446c4.09 3.713 4.395 10.038.682 14.127s-10.038 4.394-14.127.681"/></g><path fill="#d0cfce" d="M51.098 45.98h-30.04c-5.512 0-9.98-4.469-9.98-9.98 0-5.512 4.468-9.98 9.98-9.98h30.04c5.512 0 9.98 4.468 9.98 9.98 0 5.511-4.468 9.98-9.98 9.98z"/><circle cx="20.923" cy="36" r="10.001" fill="#ea5a47"/><path fill="#ea5a47" d="M27.521 28.446c4.09 3.713 4.395 10.038.682 14.127s-10.038 4.394-14.127.681"/><g fill="none" stroke="#000" stroke-linecap="round" stroke-linejoin="round" stroke-miterlimit="10" stroke-width="2"><path d="M51.098 45.98h-30.04c-5.512 0-9.98-4.469-9.98-9.98v0c0-5.512 4.468-9.98 9.98-9.98h30.04c5.512 0 9.98 4.468 9.98 9.98v0c0 5.511-4.468 9.98-9.98 9.98z"/><circle cx="20.923" cy="36" r="10.001"/><path d="M27.521 28.446c4.09 3.713 4.395 10.038.682 14.127s-10.038 4.394-14.127.681"/></g></svg>