<svg viewBox="0 0 72 72" xmlns="http://www.w3.org/2000/svg"><path fill="#b3b3b3" d="M68 4v64H4V4h64m4-4H0v72h72V0z"/><path fill="none" stroke="#00a5ff" stroke-miterlimit="10" stroke-width=".1" d="M12.923 10.958h46.154A1.923 1.923 0 0161 12.881v46.154a1.923 1.923 0 01-1.923 1.923H12.923A1.923 1.923 0 0111 59.035V12.881a1.923 1.923 0 011.923-1.923z"/><rect x="16" y="4" rx="2.254" width="40" height="64" fill="none" stroke="#00a5ff" stroke-miterlimit="10" stroke-width=".1"/><rect x="16" y="4" rx="2.254" width="40" height="64" transform="rotate(90 36 36)" fill="none" stroke="#00a5ff" stroke-miterlimit="10" stroke-width=".1"/><circle cx="36" cy="36" r="29" fill="none" stroke="#00a5ff" stroke-miterlimit="10" stroke-width=".1"/><path d="M8.042 29h56m-56-3v8m56-8v8m-28-8v8m-14-8v6m28-6v6M8.008 45.905h0a1.916 1.916 0 01-1.915-1.915v-3.17c0-1.057.858-1.915 1.915-1.915h0c1.059 0 1.916.858 1.916 1.916v3.169a1.916 1.916 0 01-1.915 1.915zm53.825-5.293a2.151 2.151 0 012.107-1.717h0c.594 0 1.131.24 1.52.63.606.605.55 1.61-.018 2.251l-3.652 4.119h4.3m-30.97-5.483l1.939-1.451v7" stroke-linecap="round" stroke-miterlimit="10" stroke-width="6" stroke="#fff" fill="none" stroke-linejoin="round"/><path d="M8.042 29h56m-56-3v8m56-8v8m-28-8v8m-14-8v6m28-6v6M8.008 45.905h0a1.916 1.916 0 01-1.915-1.915v-3.17c0-1.057.858-1.915 1.915-1.915h0c1.059 0 1.916.858 1.916 1.916v3.169a1.916 1.916 0 01-1.915 1.915zm53.825-5.293a2.151 2.151 0 012.107-1.717h0c.594 0 1.131.24 1.52.63.606.605.55 1.61-.018 2.251l-3.652 4.119h4.3m-30.97-5.483l1.939-1.451v7" fill="none" stroke="#000" stroke-linecap="round" stroke-linejoin="round" stroke-miterlimit="10" stroke-width="2"/></svg>