<svg viewBox="0 0 72 72" xmlns="http://www.w3.org/2000/svg"><path fill="#b3b3b3" d="M68 4v64H4V4h64m4-4H0v72h72V0z"/><path fill="none" stroke="#00a5ff" stroke-miterlimit="10" stroke-width=".1" d="M12.923 10.958h46.154A1.923 1.923 0 0161 12.881v46.154a1.923 1.923 0 01-1.923 1.923H12.923A1.923 1.923 0 0111 59.035V12.881a1.923 1.923 0 011.923-1.923z"/><rect x="16" y="4" rx="2.254" width="40" height="64" fill="none" stroke="#00a5ff" stroke-miterlimit="10" stroke-width=".1"/><rect x="16" y="4" rx="2.254" width="40" height="64" transform="rotate(90 36 36)" fill="none" stroke="#00a5ff" stroke-miterlimit="10" stroke-width=".1"/><circle cx="36" cy="36" r="29" fill="none" stroke="#00a5ff" stroke-miterlimit="10" stroke-width=".1"/><g stroke-linecap="round" stroke-miterlimit="10" stroke-width="6" stroke="#fff" fill="none" stroke-linejoin="round"><path d="M12.013 16.02c0 7.5 5 13.75 5 13.75s5-6.25 5-13.75"/><circle cx="17.013" cy="16.019" r="5"/><path d="M50.013 44.02c0 7.5 5 13.75 5 13.75s5-6.25 5-13.75"/><circle cx="55.013" cy="44.019" r="5"/><path d="M17 33s16 0 17 14 16 14 21 14M31.971 21.741l12.058 10.518m-.482-7.055l.482 7.055m-7.055.481l7.055-.481"/></g><path fill="#61B2E4" d="M12.013 16.02c0 7.5 5 13.75 5 13.75s5-6.25 5-13.75"/><circle cx="17.013" cy="16.019" r="5" fill="#92D3F5"/><path fill="#D22F27" d="M50.013 44.02c0 7.5 5 13.75 5 13.75s5-6.25 5-13.75"/><circle cx="55.013" cy="44.019" r="5" fill="#EA5A47"/><g fill="none" stroke="#000" stroke-miterlimit="10" stroke-width="2"><path stroke-linecap="round" stroke-linejoin="round" d="M12.013 16.02c0 7.5 5 13.75 5 13.75s5-6.25 5-13.75"/><circle cx="17.013" cy="16.019" r="5"/><path stroke-linecap="round" stroke-linejoin="round" d="M50.013 44.02c0 7.5 5 13.75 5 13.75s5-6.25 5-13.75"/><circle cx="55.013" cy="44.019" r="5"/><path stroke-linecap="round" stroke-linejoin="round" d="M17 33s16 0 17 14 16 14 21 14M31.971 21.741l12.058 10.518m-.482-7.055l.482 7.055m-7.055.481l7.055-.481"/></g></svg>