<svg viewBox="0 0 72 72" xmlns="http://www.w3.org/2000/svg"><path fill="#B3B3B3" d="M68 4v64H4V4h64m4-4H0v72h72V0z"/><path fill="none" stroke="#00A5FF" stroke-miterlimit="10" stroke-width=".1" d="M12.923 10.958h46.154c1.062 0 1.923.861 1.923 1.923v46.154a1.923 1.923 0 01-1.923 1.923H12.923A1.923 1.923 0 0111 59.035h0V12.881c0-1.062.861-1.923 1.923-1.923h0z"/><path fill="none" stroke="#00A5FF" stroke-miterlimit="10" stroke-width=".1" d="M18.254 4h35.492A2.254 2.254 0 0156 6.254v59.492A2.254 2.254 0 0153.746 68H18.254A2.254 2.254 0 0116 65.746V6.254A2.254 2.254 0 0118.254 4z"/><path fill="none" stroke="#00A5FF" stroke-miterlimit="10" stroke-width=".1" d="M68 18.254v35.492A2.254 2.254 0 0165.746 56H6.254A2.254 2.254 0 014 53.746V18.254A2.254 2.254 0 016.254 16h59.492A2.254 2.254 0 0168 18.254z"/><circle cx="36" cy="36" r="29" fill="none" stroke="#00A5FF" stroke-miterlimit="10" stroke-width=".1"/><g stroke-linecap="round" stroke-miterlimit="10" stroke-width="6" stroke="#fff" fill="none" stroke-linejoin="round"><path d="M36 10.98s-20.254 5.128-25 5.085c0 0-.917 38.893 24.667 44.914m0 .001C61.25 54.957 61 16.15 61 16.15c-4.746.044-25-5.085-25-5.085"/><path d="M26.644 32.83l9.165 14.01 14.704-24.265-5.103 2.492-9.57 15.791-5.964-9.118z"/></g><path fill="#D0CFCE" d="M35.67 60.98C10.08 54.96 11 16.06 11 16.06c4.75.05 25-5.08 25-5.08v.09s20.25 5.12 25 5.08c0 0 .25 38.81-25.33 44.83z"/><path fill="#9B9B9A" d="M46.556 13.587S53 44 36 60c0 0 16-1 22-25s0-19 0-19l-11.444-2.413"/><path fill="#61B2E4" d="M26.644 32.83l9.165 14.01 14.704-24.265-5.103 2.492-9.57 15.791-5.964-9.118z"/><g fill="none" stroke="#000" stroke-linecap="round" stroke-linejoin="round" stroke-miterlimit="10" stroke-width="2"><path d="M36 10.98s-20.254 5.128-25 5.085c0 0-.917 38.893 24.667 44.914m0 .001C61.25 54.957 61 16.15 61 16.15c-4.746.044-25-5.085-25-5.085"/><path d="M26.644 32.83l9.165 14.01 14.704-24.265-5.103 2.492-9.57 15.791-5.964-9.118z"/></g></svg>