<svg viewBox="0 0 72 72" xmlns="http://www.w3.org/2000/svg"><path fill="#b3b3b3" d="M68 4v64H4V4h64m4-4H0v72h72V0z"/><path fill="none" stroke="#00a5ff" stroke-miterlimit="10" stroke-width=".1" d="M12.923 10.958h46.154A1.923 1.923 0 0161 12.881v46.154a1.923 1.923 0 01-1.923 1.923H12.923A1.923 1.923 0 0111 59.035V12.881a1.923 1.923 0 011.923-1.923z"/><rect x="16" y="4" rx="2.254" width="40" height="64" fill="none" stroke="#00a5ff" stroke-miterlimit="10" stroke-width=".1"/><rect x="16" y="4" rx="2.254" width="40" height="64" transform="rotate(90 36 36)" fill="none" stroke="#00a5ff" stroke-miterlimit="10" stroke-width=".1"/><circle cx="36" cy="36" r="29" fill="none" stroke="#00a5ff" stroke-miterlimit="10" stroke-width=".1"/><g stroke-linecap="round" stroke-miterlimit="10" stroke-width="6" stroke="#fff" fill="none" stroke-linejoin="round"><path d="M15.042 14.976a4 4 0 00-4 4V30.76l-.002 4.531c0 .28.328.434.543.253l5.026-4.39a1 1 0 01.644-.234h30.956a4 4 0 004-4v-7.944a4 4 0 00-4-4H15.042zM60.51 60.544a.33.33 0 00.542-.252l-.002-4.27h.001V44.076a4 4 0 00-4-4H24.103a4 4 0 00-4 4v7.944a4 4 0 004 4h30.858a1 1 0 01.644.235l4.905 4.288z"/><circle cx="31.997" cy="48.059" r="2"/><circle cx="40.008" cy="48.059" r="2"/><circle cx="48.02" cy="48.059" r="2"/></g><path fill="#D0CFCE" d="M15.042 14.976a4 4 0 00-4 4V30.76l-.002 4.531c0 .28.328.434.543.253l5.026-4.39a1 1 0 01.644-.234h30.956a4 4 0 004-4v-7.944a4 4 0 00-4-4H15.042z"/><path fill="#9B9B9A" d="M60.51 60.544a.33.33 0 00.542-.252l-.002-4.27h.001V44.076a4 4 0 00-4-4H24.103a4 4 0 00-4 4v7.944a4 4 0 004 4h30.858a1 1 0 01.644.235l4.905 4.288z"/><path fill="none" stroke="#000" stroke-miterlimit="10" stroke-width="2" d="M15.042 14.976a4 4 0 00-4 4V30.76l-.002 4.531c0 .28.328.434.543.253l5.026-4.39a1 1 0 01.644-.234h30.956a4 4 0 004-4v-7.944a4 4 0 00-4-4H15.042zM60.51 60.544a.33.33 0 00.542-.252l-.002-4.27h.001V44.076a4 4 0 00-4-4H24.103a4 4 0 00-4 4v7.944a4 4 0 004 4h30.858a1 1 0 01.644.235l4.905 4.288z"/><circle cx="31.997" cy="48.059" r="2"/><circle cx="40.008" cy="48.059" r="2"/><circle cx="48.02" cy="48.059" r="2"/></svg>