<svg viewBox="0 0 72 72" xmlns="http://www.w3.org/2000/svg"><path fill="#B3B3B3" d="M68 4v64H4V4h64m4-4H0v72h72V0z"/><path fill="none" stroke="#00A5FF" stroke-miterlimit="10" stroke-width=".1" d="M12.923 10.958h46.154c1.062 0 1.923.861 1.923 1.923h0v46.154a1.923 1.923 0 01-1.923 1.923H12.923A1.923 1.923 0 0111 59.035h0V12.881c0-1.062.861-1.923 1.923-1.923h0z"/><path fill="none" stroke="#00A5FF" stroke-miterlimit="10" stroke-width=".1" d="M18.254 4h35.492A2.254 2.254 0 0156 6.254v59.492A2.254 2.254 0 0153.746 68H18.254A2.254 2.254 0 0116 65.746V6.254A2.254 2.254 0 0118.254 4z"/><path fill="none" stroke="#00A5FF" stroke-miterlimit="10" stroke-width=".1" d="M68 18.254v35.492A2.254 2.254 0 0165.746 56H6.254A2.254 2.254 0 014 53.746V18.254A2.254 2.254 0 016.254 16h59.492A2.254 2.254 0 0168 18.254z"/><circle cx="36" cy="36" r="29" fill="none" stroke="#00A5FF" stroke-miterlimit="10" stroke-width=".1"/><g stroke-linecap="round" stroke-miterlimit="10" stroke-width="6" stroke="#fff" fill="none" stroke-linejoin="round"><path d="M58.37 30.524c-5.651-5.651-13.458-9.146-22.081-9.146-8.637 0-16.455 3.506-22.108 9.172l-3.813-3.763c6.624-6.65 15.792-10.767 25.92-10.767 10.103 0 19.25 4.095 25.87 10.716l-3.788 3.788z"/><path d="M21.916 38.286a20.453 20.453 0 0114.638-6.142 20.449 20.449 0 0114.373 5.876l3.784-3.792a25.788 25.788 0 00-18.157-7.44 25.793 25.793 0 00-18.425 7.71l3.787 3.788z"/><path d="M43.352 45.596a9.77 9.77 0 00-6.798-2.74 9.774 9.774 0 00-7.062 3.005l-3.814-3.814a15.114 15.114 0 0110.876-4.6 15.11 15.11 0 0110.61 4.332l-3.812 3.817z"/><circle cx="36.289" cy="52.605" r="2.672"/></g><g fill="#9B9B9A"><path d="M58.37 30.524c-5.651-5.651-13.458-9.146-22.081-9.146-8.637 0-16.455 3.506-22.108 9.172l-3.813-3.763c6.624-6.65 15.792-10.767 25.92-10.767 10.103 0 19.25 4.095 25.87 10.716l-3.788 3.788z"/><path d="M21.916 38.286a20.453 20.453 0 0114.638-6.142 20.449 20.449 0 0114.373 5.876l3.784-3.792a25.788 25.788 0 00-18.157-7.44 25.793 25.793 0 00-18.425 7.71l3.787 3.788z"/><path d="M43.352 45.596a9.77 9.77 0 00-6.798-2.74 9.774 9.774 0 00-7.062 3.005l-3.814-3.814a15.114 15.114 0 0110.876-4.6 15.11 15.11 0 0110.61 4.332l-3.812 3.817z"/><circle cx="36.289" cy="52.605" r="2.672"/></g><g fill="none" stroke="#000" stroke-linecap="round" stroke-linejoin="round" stroke-miterlimit="10" stroke-width="2"><path d="M58.37 30.524c-5.651-5.651-13.458-9.146-22.081-9.146-8.637 0-16.455 3.506-22.108 9.172l-3.813-3.763c6.624-6.65 15.792-10.767 25.92-10.767 10.103 0 19.25 4.095 25.87 10.716l-3.788 3.788z"/><path d="M21.916 38.286a20.453 20.453 0 0114.638-6.142 20.449 20.449 0 0114.373 5.876l3.784-3.792a25.788 25.788 0 00-18.157-7.44 25.793 25.793 0 00-18.425 7.71l3.787 3.788z"/><path d="M43.352 45.596a9.77 9.77 0 00-6.798-2.74 9.774 9.774 0 00-7.062 3.005l-3.814-3.814a15.114 15.114 0 0110.876-4.6 15.11 15.11 0 0110.61 4.332l-3.812 3.817z"/><circle cx="36.289" cy="52.605" r="2.672"/></g></svg>