<svg viewBox="0 0 72 72" xmlns="http://www.w3.org/2000/svg"><path fill="#b3b3b3" d="M68 4v64H4V4h64m4-4H0v72h72V0z"/><path fill="none" stroke="#00a5ff" stroke-miterlimit="10" stroke-width=".1" d="M12.923 10.958h46.154A1.923 1.923 0 0161 12.881v46.154a1.923 1.923 0 01-1.923 1.923H12.923A1.923 1.923 0 0111 59.035V12.881a1.923 1.923 0 011.923-1.923z"/><rect x="16" y="4" rx="2.254" width="40" height="64" fill="none" stroke="#00a5ff" stroke-miterlimit="10" stroke-width=".1"/><rect x="16" y="4" rx="2.254" width="40" height="64" transform="rotate(90 36 36)" fill="none" stroke="#00a5ff" stroke-miterlimit="10" stroke-width=".1"/><circle cx="36" cy="36" r="29" fill="none" stroke="#00a5ff" stroke-miterlimit="10" stroke-width=".1"/><g stroke-linecap="round" stroke-miterlimit="10" stroke-width="6" stroke="#fff" fill="none" stroke-linejoin="round"><path d="M54.557 28.084v30.684c0 .55-.45 1-1 1H13.168c-.55 0-1-.45-1-1V18.379a1 1 0 011-1h31.023"/><path d="M38.053 37.749l21.46-21.461a1 1 0 000-1.415l-2.335-2.335a1 1 0 00-1.414 0l-21.462 21.46-2.625 6.387 6.376-2.636-3.75-3.75"/></g><path fill="#FFF" d="M12.854 16.577h42.498v42.246H12.854z"/><path fill="#F4AA41" d="M32.775 39.406l4.719-1.782-2.937-2.937z"/><path fill="#A57939" d="M56.61 11.679l3.785 3.784-22.013 22.013-3.785-3.784z"/><g fill="none" stroke="#000" stroke-linecap="round" stroke-linejoin="round" stroke-miterlimit="10" stroke-width="2"><path d="M54.557 28.084v30.684c0 .55-.45 1-1 1H13.168c-.55 0-1-.45-1-1V18.379a1 1 0 011-1h31.023"/><path d="M38.053 37.749l21.46-21.461a1 1 0 000-1.415l-2.335-2.335a1 1 0 00-1.414 0l-21.462 21.46-2.625 6.387 6.376-2.636-3.75-3.75"/></g></svg>