<svg viewBox="0 0 72 72" xmlns="http://www.w3.org/2000/svg"><path fill="#b3b3b3" d="M68 4v64H4V4h64m4-4H0v72h72V0z"/><path fill="none" stroke="#00a5ff" stroke-miterlimit="10" stroke-width=".1" d="M12.923 10.958h46.154A1.923 1.923 0 0161 12.881v46.154a1.923 1.923 0 01-1.923 1.923H12.923A1.923 1.923 0 0111 59.035V12.881a1.923 1.923 0 011.923-1.923z"/><rect x="16" y="4" rx="2.254" width="40" height="64" fill="none" stroke="#00a5ff" stroke-miterlimit="10" stroke-width=".1"/><rect x="16" y="4" rx="2.254" width="40" height="64" transform="rotate(90 36 36)" fill="none" stroke="#00a5ff" stroke-miterlimit="10" stroke-width=".1"/><circle cx="36" cy="36" r="29" fill="none" stroke="#00a5ff" stroke-miterlimit="10" stroke-width=".1"/><g stroke-linecap="round" stroke-miterlimit="10" stroke-width="6" stroke="#fff" fill="none" stroke-linejoin="round"><path d="M41.99 59.95h11.992c.55 0 1-.45 1-1V34.014m-37.924-.001V58.95c0 .55.45 1 1 1h12.135"/><path d="M8.492 35.595L36.017 7.977l27.58 27.37M41.815 59.933V41.627h-11.59v18.306"/></g><path fill="#D0CFCE" d="M17.129 59.738L16.06 34.74l.021-6.944L36.15 8.11l19.832 19.81-.004 15.438-.94 8.66-.115 7.72-13.136-.576.029-17.535h-11.59l-.076 17.535z"/><g fill="none" stroke="#000" stroke-linecap="round" stroke-linejoin="round" stroke-miterlimit="10" stroke-width="2"><path d="M41.99 59.95h11.992c.55 0 1-.45 1-1V34.014m-37.924-.001V58.95c0 .55.45 1 1 1h12.135"/><path d="M8.492 35.595L36.017 7.977l27.58 27.37M41.815 59.933V41.627h-11.59v18.306"/></g></svg>