<svg viewBox="0 0 72 72" xmlns="http://www.w3.org/2000/svg"><path fill="#b3b3b3" d="M68 4v64H4V4h64m4-4H0v72h72V0z"/><path fill="none" stroke="#00a5ff" stroke-miterlimit="10" stroke-width=".1" d="M12.92 10.96h46.15a1.923 1.923 0 011.923 1.923v46.15a1.923 1.923 0 01-1.923 1.923H12.92a1.923 1.923 0 01-1.923-1.923v-46.15a1.923 1.923 0 011.923-1.923z"/><rect x="16" y="4" rx="2.254" width="40" height="64" fill="none" stroke="#00a5ff" stroke-miterlimit="10" stroke-width=".1"/><rect x="16" y="4" rx="2.254" width="40" height="64" transform="rotate(90 36 36)" fill="none" stroke="#00a5ff" stroke-miterlimit="10" stroke-width=".1"/><circle cx="36" cy="36" r="29" fill="none" stroke="#00a5ff" stroke-miterlimit="10" stroke-width=".1"/><g stroke-linecap="round" stroke-miterlimit="10" stroke-width="6" stroke="#fff" fill="none" stroke-linejoin="round"><circle cx="36" cy="36" r="26.68"/><path d="M20.66 30.58l5.421 5.421 5.424-5.424"/><path d="M25.13 31.65c0-6.003 4.869-10.87 10.87-10.87 5.999 0 10.87 4.865 10.87 10.87v8.693-8.693 8.693c0 6.003-4.869 10.87-10.87 10.87a10.876 10.876 0 01-9.739-6.034" clip-rule="evenodd"/></g><circle cx="36" cy="36" r="26.68" fill="#fff" fill-rule="evenodd"/><g fill="none" stroke="#000" stroke-linecap="round" stroke-linejoin="round"><circle cx="36" cy="36" r="26.68" stroke-width="4.74"/><path stroke-miterlimit="7" stroke-width="7" d="M20.66 30.58l5.421 5.421 5.424-5.424"/><path stroke-miterlimit="7" stroke-width="7" d="M25.13 31.65c0-6.003 4.869-10.87 10.87-10.87 5.999 0 10.87 4.865 10.87 10.87v8.693-8.693 8.693c0 6.003-4.869 10.87-10.87 10.87a10.876 10.876 0 01-9.739-6.034" clip-rule="evenodd"/></g></svg>