<svg viewBox="0 0 72 72" xmlns="http://www.w3.org/2000/svg"><path fill="#b3b3b3" d="M68 4v64H4V4h64m4-4H0v72h72V0z"/><path fill="none" stroke="#00a5ff" stroke-miterlimit="10" stroke-width=".1" d="M12.92 10.96h46.15a1.923 1.923 0 011.923 1.923v46.15a1.923 1.923 0 01-1.923 1.923H12.92a1.923 1.923 0 01-1.923-1.923v-46.15a1.923 1.923 0 011.923-1.923z"/><rect x="16" y="4" rx="2.254" width="40" height="64" fill="none" stroke="#00a5ff" stroke-miterlimit="10" stroke-width=".1"/><rect x="16" y="4" rx="2.254" width="40" height="64" transform="rotate(90 36 36)" fill="none" stroke="#00a5ff" stroke-miterlimit="10" stroke-width=".1"/><circle cx="36" cy="36" r="29" fill="none" stroke="#00a5ff" stroke-miterlimit="10" stroke-width=".1"/><g stroke-linecap="round" stroke-miterlimit="10" stroke-width="6" stroke="#fff" fill="none" stroke-linejoin="round"><circle cx="36" cy="36" r="26.68"/><path d="M54.49 54.46L18.03 18l.458-.458"/><path d="M42.88 27.334c-.649-2.525-3.452-4.42-6.812-4.42-3.841 0-6.955 2.477-6.955 5.536 0 3.057 3.025 6.211 6.885 7.547 3.86 1.334 6.964 4.208 6.885 7.546-.074 3.058-3.113 5.537-6.954 5.537-3.36 0-6.164-1.899-6.812-4.424m6.884-21.737V17.64m0 36.719V49.08" clip-rule="evenodd" stroke-width="18.984"/></g><circle cx="36" cy="36" r="26.68" fill="#fff" fill-rule="evenodd"/><g stroke-linejoin="round" fill="none" stroke="#000"><circle cx="36" cy="36" r="26.68" stroke-linecap="round" stroke-width="4.74"/><path stroke-width="4.74" d="M54.49 54.46L18.03 18l.458-.458"/><path stroke-width="6.328" d="M42.88 27.334c-.649-2.525-3.452-4.42-6.812-4.42-3.841 0-6.955 2.477-6.955 5.536 0 3.057 3.025 6.211 6.885 7.547 3.86 1.334 6.964 4.208 6.885 7.546-.074 3.058-3.113 5.537-6.954 5.537-3.36 0-6.164-1.899-6.812-4.424m6.884-21.737V17.64m0 36.719V49.08" stroke-linecap="round" stroke-miterlimit="10" clip-rule="evenodd"/></g></svg>