<svg fill="none" viewBox="0 0 72 72" xmlns="http://www.w3.org/2000/svg"><path fill="#B3B3B3" d="M68 4v64H4V4h64m4-4H0v72h72V0z"/><path stroke="#00A5FF" stroke-miterlimit="10" stroke-width=".1" d="M12.923 10.958h46.154c1.062 0 1.923.861 1.923 1.923v46.154a1.923 1.923 0 01-1.923 1.923H12.923A1.923 1.923 0 0111 59.035h0V12.881c0-1.062.861-1.923 1.923-1.923h0z"/><path stroke="#00A5FF" stroke-miterlimit="10" stroke-width=".1" d="M18.254 4h35.492A2.254 2.254 0 0156 6.254v59.492A2.254 2.254 0 0153.746 68H18.254A2.254 2.254 0 0116 65.746V6.254A2.254 2.254 0 0118.254 4z"/><path stroke="#00A5FF" stroke-miterlimit="10" stroke-width=".1" d="M68 18.254v35.492A2.254 2.254 0 0165.746 56H6.254A2.254 2.254 0 014 53.746V18.254A2.254 2.254 0 016.254 16h59.492A2.254 2.254 0 0168 18.254z"/><circle cx="36" cy="36" r="29" stroke="#00A5FF" stroke-miterlimit="10" stroke-width=".1"/><path d="M53.537 45.624c-7.807 5.525-18.688 4.792-25.68-2.2-6.434-6.435-7.567-16.165-3.398-23.76C19.34 23.286 16 29.253 16 36c0 11.046 8.954 20 20 20 7.557 0 14.135-4.191 17.537-10.376z" clip-rule="evenodd" stroke-linecap="round" stroke-miterlimit="10" stroke-width="6" stroke="#fff" stroke-linejoin="round"/><path stroke="#000" stroke-linejoin="round" stroke-miterlimit="10" stroke-width="2" d="M53.537 45.624c-7.807 5.525-18.688 4.792-25.68-2.2-6.434-6.435-7.567-16.165-3.398-23.76C19.34 23.286 16 29.253 16 36c0 11.046 8.954 20 20 20 7.557 0 14.135-4.191 17.537-10.376z" clip-rule="evenodd"/></svg>