<svg viewBox="0 0 72 72" xmlns="http://www.w3.org/2000/svg"><path fill="#b3b3b3" d="M68 4v64H4V4h64m4-4H0v72h72V0z"/><path fill="none" stroke="#00a5ff" stroke-miterlimit="10" stroke-width=".1" d="M12.923 10.958h46.154A1.923 1.923 0 0161 12.881v46.154a1.923 1.923 0 01-1.923 1.923H12.923A1.923 1.923 0 0111 59.035V12.881a1.923 1.923 0 011.923-1.923z"/><rect x="16" y="4" rx="2.254" width="40" height="64" fill="none" stroke="#00a5ff" stroke-miterlimit="10" stroke-width=".1"/><rect x="16" y="4" rx="2.254" width="40" height="64" transform="rotate(90 36 36)" fill="none" stroke="#00a5ff" stroke-miterlimit="10" stroke-width=".1"/><circle cx="36" cy="36" r="29" fill="none" stroke="#00a5ff" stroke-miterlimit="10" stroke-width=".1"/><path d="M33.545 15.252L11.32 53.748c-1.09 1.89.273 4.252 2.455 4.252h44.452c2.182 0 3.546-2.362 2.455-4.252L38.455 15.252c-1.091-1.89-3.819-1.89-4.91 0z" stroke-linecap="round" stroke-miterlimit="10" stroke-width="6" stroke="#fff" fill="none" stroke-linejoin="round"/><path fill="#fff" d="M35 14h1v43H11l-1-1z"/><path fill="#3F3F3F" d="M37 14h-1v43h25l1-1z"/><g><path fill="none" stroke="#000" stroke-miterlimit="10" stroke-width="2" d="M33.545 15.252L11.32 53.748c-1.09 1.89.273 4.252 2.455 4.252h44.452c2.182 0 3.546-2.362 2.455-4.252L38.455 15.252c-1.091-1.89-3.819-1.89-4.91 0z"/></g></svg>