<svg viewBox="0 0 72 72" xmlns="http://www.w3.org/2000/svg"><path fill="#b3b3b3" d="M68 4v64H4V4h64m4-4H0v72h72V0z"/><path fill="none" stroke="#00a5ff" stroke-miterlimit="10" stroke-width=".1" d="M12.923 10.958h46.154A1.923 1.923 0 0161 12.881v46.154a1.923 1.923 0 01-1.923 1.923H12.923A1.923 1.923 0 0111 59.035V12.881a1.923 1.923 0 011.923-1.923z"/><rect x="16" y="4" rx="2.254" width="40" height="64" fill="none" stroke="#00a5ff" stroke-miterlimit="10" stroke-width=".1"/><rect x="16" y="4" rx="2.254" width="40" height="64" transform="rotate(90 36 36)" fill="none" stroke="#00a5ff" stroke-miterlimit="10" stroke-width=".1"/><circle cx="36" cy="36" r="29" fill="none" stroke="#00a5ff" stroke-miterlimit="10" stroke-width=".1"/><path d="M7.577 37a2.001 2.001 0 010-2l13.346-23.115c.357-.619 1.017-1 1.732-1h26.69c.715 0 1.375.381 1.732 1L64.423 35a2.001 2.001 0 010 2L51.077 60.115c-.357.619-1.017 1-1.732 1h-26.69a1.999 1.999 0 01-1.732-1L7.577 37z" stroke-linecap="round" stroke-miterlimit="10" stroke-width="6" stroke="#fff" fill="none" stroke-linejoin="round"/><path stroke="#000" stroke-width="2" d="M7.577 37a2.001 2.001 0 010-2l13.346-23.115c.357-.619 1.017-1 1.732-1h26.69c.715 0 1.375.381 1.732 1L64.423 35a2.001 2.001 0 010 2L51.077 60.115c-.357.619-1.017 1-1.732 1h-26.69a1.999 1.999 0 01-1.732-1L7.577 37z"/></svg>