<svg viewBox="0 0 72 72" xmlns="http://www.w3.org/2000/svg"><path fill="#b3b3b3" d="M68 4v64H4V4h64m4-4H0v72h72V0z"/><path fill="none" stroke="#00a5ff" stroke-miterlimit="10" stroke-width=".1" d="M12.923 10.958h46.154A1.923 1.923 0 0161 12.881v46.154a1.923 1.923 0 01-1.923 1.923H12.923A1.923 1.923 0 0111 59.035V12.881a1.923 1.923 0 011.923-1.923z"/><rect x="16" y="4" rx="2.254" width="40" height="64" fill="none" stroke="#00a5ff" stroke-miterlimit="10" stroke-width=".1"/><rect x="16" y="4" rx="2.254" width="40" height="64" transform="rotate(90 36 36)" fill="none" stroke="#00a5ff" stroke-miterlimit="10" stroke-width=".1"/><circle cx="36" cy="36" r="29" fill="none" stroke="#00a5ff" stroke-miterlimit="10" stroke-width=".1"/><path d="M15.177 16.259c.203-.49.592-.879 1.082-1.082l18.976-7.86a1.998 1.998 0 011.53 0l18.976 7.86c.49.203.879.592 1.082 1.082l7.86 18.976c.203.49.203 1.04 0 1.53l-7.86 18.976c-.203.49-.592.879-1.082 1.082l-18.976 7.86c-.49.203-1.04.203-1.53 0l-18.976-7.86a1.999 1.999 0 01-1.082-1.082l-7.86-18.976a1.998 1.998 0 010-1.53l7.86-18.976z" stroke-linecap="round" stroke-miterlimit="10" stroke-width="6" stroke="#fff" fill="none" stroke-linejoin="round"/><path stroke="#000" stroke-width="2" d="M15.177 16.259c.203-.49.592-.879 1.082-1.082l18.976-7.86a1.998 1.998 0 011.53 0l18.976 7.86c.49.203.879.592 1.082 1.082l7.86 18.976c.203.49.203 1.04 0 1.53l-7.86 18.976c-.203.49-.592.879-1.082 1.082l-18.976 7.86c-.49.203-1.04.203-1.53 0l-18.976-7.86a1.999 1.999 0 01-1.082-1.082l-7.86-18.976a1.998 1.998 0 010-1.53l7.86-18.976z"/></svg>