<svg viewBox="0 0 72 72" xmlns="http://www.w3.org/2000/svg"><path fill="#b3b3b3" d="M68 4v64H4V4h64m4-4H0v72h72V0z"/><path fill="none" stroke="#00a5ff" stroke-miterlimit="10" stroke-width=".1" d="M12.923 10.958h46.154A1.923 1.923 0 0161 12.881v46.154a1.923 1.923 0 01-1.923 1.923H12.923A1.923 1.923 0 0111 59.035V12.881a1.923 1.923 0 011.923-1.923z"/><rect x="16" y="4" rx="2.254" width="40" height="64" fill="none" stroke="#00a5ff" stroke-miterlimit="10" stroke-width=".1"/><rect x="16" y="4" rx="2.254" width="40" height="64" transform="rotate(90 36 36)" fill="none" stroke="#00a5ff" stroke-miterlimit="10" stroke-width=".1"/><circle cx="36" cy="36" r="29" fill="none" stroke="#00a5ff" stroke-miterlimit="10" stroke-width=".1"/><path d="M20.771 30.421l-3.709 4.1c.683-7.708 5.642-14.356 12.963-17.014a19.282 19.282 0 016.6-1.167c5.482 0 10.76 2.375 14.477 6.516l.61.68 3.857-3.608-.61-.68C50.253 14.006 43.572 11 36.629 11c-2.848 0-5.66.496-8.356 1.476-9.208 3.343-15.56 11.828-16.433 21.583l-3.29-3.638-3.344 3.117 9.455 10.45 9.453-10.45-3.342-3.117zM67 38.347l-9.455-10.45-9.453 10.45 3.342 3.117 3.693-4.082c-.65 7.75-5.62 14.442-12.973 17.112a19.291 19.291 0 01-6.6 1.166c-5.482 0-10.76-2.375-14.477-6.516l-.61-.68-3.856 3.608.61.68C21.925 57.993 28.607 61 35.55 61c2.848 0 5.659-.497 8.355-1.475 9.249-3.357 15.62-11.902 16.447-21.712l3.303 3.65L67 38.348z" stroke-linecap="round" stroke-miterlimit="10" stroke-width="6" stroke="#fff" fill="none" stroke-linejoin="round"/><path d="M20.771 30.421l-3.709 4.1c.683-7.708 5.642-14.356 12.963-17.014a19.282 19.282 0 016.6-1.167c5.482 0 10.76 2.375 14.477 6.516l.61.68 3.857-3.608-.61-.68C50.253 14.006 43.572 11 36.629 11c-2.848 0-5.66.496-8.356 1.476-9.208 3.343-15.56 11.828-16.433 21.583l-3.29-3.638-3.344 3.117 9.455 10.45 9.453-10.45-3.342-3.117zM67 38.347l-9.455-10.45-9.453 10.45 3.342 3.117 3.693-4.082c-.65 7.75-5.62 14.442-12.973 17.112a19.291 19.291 0 01-6.6 1.166c-5.482 0-10.76-2.375-14.477-6.516l-.61-.68-3.856 3.608.61.68C21.925 57.993 28.607 61 35.55 61c2.848 0 5.659-.497 8.355-1.475 9.249-3.357 15.62-11.902 16.447-21.712l3.303 3.65L67 38.348z" fill="#3F3F3F"/><path d="M20.771 30.421l-3.709 4.1c.683-7.708 5.642-14.356 12.963-17.014a19.282 19.282 0 016.6-1.167c5.482 0 10.76 2.375 14.477 6.516l.61.68 3.857-3.608-.61-.68C50.253 14.006 43.572 11 36.629 11c-2.848 0-5.66.496-8.356 1.476-9.208 3.343-15.56 11.828-16.433 21.583l-3.29-3.638-3.344 3.117 9.455 10.45 9.453-10.45-3.342-3.117zM67 38.347l-9.455-10.45-9.453 10.45 3.342 3.117 3.693-4.082c-.65 7.75-5.62 14.442-12.973 17.112a19.291 19.291 0 01-6.6 1.166c-5.482 0-10.76-2.375-14.477-6.516l-.61-.68-3.856 3.608.61.68C21.925 57.993 28.607 61 35.55 61c2.848 0 5.659-.497 8.355-1.475 9.249-3.357 15.62-11.902 16.447-21.712l3.303 3.65L67 38.348z" fill="none" stroke="#000" stroke-linecap="round" stroke-linejoin="round" stroke-miterlimit="10" stroke-width="2"/></svg>