<svg viewBox="0 0 72 72" xmlns="http://www.w3.org/2000/svg"><path fill="#b3b3b3" d="M68 4v64H4V4h64m4-4H0v72h72V0z"/><path fill="none" stroke="#00a5ff" stroke-miterlimit="10" stroke-width=".1" d="M12.923 10.958h46.154A1.923 1.923 0 0161 12.881v46.154a1.923 1.923 0 01-1.923 1.923H12.923A1.923 1.923 0 0111 59.035V12.881a1.923 1.923 0 011.923-1.923z"/><rect x="16" y="4" rx="2.254" ry="2.254" width="40" height="64" fill="none" stroke="#00a5ff" stroke-miterlimit="10" stroke-width=".1"/><rect x="16" y="4" rx="2.254" ry="2.254" width="40" height="64" transform="rotate(90 36 36)" fill="none" stroke="#00a5ff" stroke-miterlimit="10" stroke-width=".1"/><circle cx="36" cy="36" r="29" fill="none" stroke="#00a5ff" stroke-miterlimit="10" stroke-width=".1"/><path d="M56.25 31.81H28.41v8.433l-12.66-11.5 12.66-11.5v8.433h27.84zM28.52 44.7h-5.714v10h5.714m-5.71-5h4.286M33 54.75v-10l7.143 10v-10m4.917-.07h4.383a2.08 2.08 0 012.08 2.08v5.841a2.08 2.08 0 01-2.08 2.08H45.06v-10z" stroke-linecap="round" stroke-miterlimit="10" stroke-width="6" stroke="#fff" fill="none" stroke-linejoin="round"/><path fill="#3f3f3f" d="M56.25 31.81v-6.134H28.41v-8.433l-12.66 11.5 12.66 11.5V31.81z"/><path d="M56.25 31.81H28.41v8.433l-12.66-11.5 12.66-11.5v8.433h27.84zM28.52 44.7h-5.714v10h5.714m-5.71-5h4.286M33 54.75v-10l7.143 10v-10m4.917-.07h4.383a2.08 2.08 0 012.08 2.08v5.841a2.08 2.08 0 01-2.08 2.08H45.06v-10z" fill="none" stroke="#000" stroke-linecap="round" stroke-linejoin="round" stroke-width="2"/></svg>