<svg viewBox="0 0 72 72" xmlns="http://www.w3.org/2000/svg"><path fill="#b3b3b3" d="M68 4v64H4V4h64m4-4H0v72h72V0z"/><path fill="none" stroke="#00a5ff" stroke-miterlimit="10" stroke-width=".1" d="M12.923 10.958h46.154A1.923 1.923 0 0161 12.881v46.154a1.923 1.923 0 01-1.923 1.923H12.923A1.923 1.923 0 0111 59.035V12.881a1.923 1.923 0 011.923-1.923z"/><rect x="16" y="4" rx="2.254" ry="2.254" width="40" height="64" fill="none" stroke="#00a5ff" stroke-miterlimit="10" stroke-width=".1"/><rect x="16" y="4" rx="2.254" ry="2.254" width="40" height="64" transform="rotate(90 36 36)" fill="none" stroke="#00a5ff" stroke-miterlimit="10" stroke-width=".1"/><circle cx="36" cy="36" r="29" fill="none" stroke="#00a5ff" stroke-miterlimit="10" stroke-width=".1"/><g stroke-linecap="round" stroke-miterlimit="10" stroke-width="6" stroke="#fff" fill="none" stroke-linejoin="round"><path d="M56.25 31.99H28.41v8.067l-12.66-11 12.66-11v8.066h27.84v5.867M34.99 53.94l-4.1-10-4.09 10m1.36-2.4h5.47m15.01-7.16v9.56m0-3.36l5.47-6.2m-2.84 3.21l3.28 6.35m-9.79-.9c-.624.554-1.43.86-2.264.859v0a3.412 3.412 0 01-3.414-3.413v-2.731a3.414 3.414 0 013.413-3.413v0a3.4 3.4 0 012.264.859M21.43 49.1h-3.645v-4.761h3.645a2.38 2.38 0 012.381 2.38v0A2.38 2.38 0 0121.43 49.1v0"/><path d="M21.43 53.86h-3.645v-4.761h3.645a2.382 2.382 0 012.38 2.38v0a2.38 2.38 0 01-2.38 2.381v0"/></g><path fill="#3f3f3f" d="M56.25 26.12v5.867H28.41v8.067l-12.66-11 12.84-11.02-.181 8.089 27.84-.003"/><g fill="none" stroke="#000" stroke-linecap="round" stroke-linejoin="round" stroke-width="2"><path d="M56.25 31.99H28.41v8.067l-12.66-11 12.66-11v8.066h27.84v5.867M34.99 53.94l-4.1-10-4.09 10m1.36-2.4h5.47m15.01-7.16v9.56m0-3.36l5.47-6.2m-2.84 3.21l3.28 6.35m-9.79-.9c-.624.554-1.43.86-2.264.859v0a3.412 3.412 0 01-3.414-3.413v-2.731a3.414 3.414 0 013.413-3.413v0a3.4 3.4 0 012.264.859M21.43 49.1h-3.645v-4.761h3.645a2.38 2.38 0 012.381 2.38v0A2.38 2.38 0 0121.43 49.1v0"/><path d="M21.43 53.86h-3.645v-4.761h3.645a2.382 2.382 0 012.38 2.38v0a2.38 2.38 0 01-2.38 2.381v0"/></g></svg>