<svg viewBox="0 0 72 72" xmlns="http://www.w3.org/2000/svg"><path fill="#b3b3b3" d="M68 4v64H4V4h64m4-4H0v72h72V0z"/><path fill="none" stroke="#00a5ff" stroke-miterlimit="10" stroke-width=".1" d="M12.923 10.958h46.154A1.923 1.923 0 0161 12.881v46.154a1.923 1.923 0 01-1.923 1.923H12.923A1.923 1.923 0 0111 59.035V12.881a1.923 1.923 0 011.923-1.923z"/><rect x="16" y="4" rx="2.254" width="40" height="64" fill="none" stroke="#00a5ff" stroke-miterlimit="10" stroke-width=".1"/><rect x="16" y="4" rx="2.254" width="40" height="64" transform="rotate(90 36 36)" fill="none" stroke="#00a5ff" stroke-miterlimit="10" stroke-width=".1"/><circle cx="36" cy="36" r="29" fill="none" stroke="#00a5ff" stroke-miterlimit="10" stroke-width=".1"/><path d="M51.765 50.263l-4.035-3.71-8.668 9.208V16.238l8.669 9.207 4.034-3.709L36.001 5 20.236 21.736l4.033 3.71 8.665-9.202v39.51l-8.665-9.2-4.033 3.709 15.767 16.736z" stroke-linecap="round" stroke-miterlimit="10" stroke-width="6" stroke="#fff" fill="none" stroke-linejoin="round"/><path fill="#3F3F3F" d="M51.765 50.263l-4.035-3.71-8.668 9.208V16.238l8.669 9.207 4.034-3.709L36.001 5 20.236 21.736l4.033 3.71 8.665-9.202v39.51l-8.665-9.2-4.033 3.709 15.767 16.736z"/><path fill="none" stroke="#000" stroke-linecap="round" stroke-linejoin="round" stroke-miterlimit="10" stroke-width="2" d="M51.765 50.263l-4.035-3.71-8.668 9.208V16.238l8.669 9.207 4.034-3.709L36.001 5 20.236 21.736l4.033 3.71 8.665-9.202v39.51l-8.665-9.2-4.033 3.709 15.767 16.736z"/></svg>