<svg viewBox="0 0 72 72" xmlns="http://www.w3.org/2000/svg"><path fill="#b3b3b3" d="M68 4v64H4V4h64m4-4H0v72h72V0z"/><path fill="none" stroke="#00a5ff" stroke-miterlimit="10" stroke-width=".1" d="M12.923 10.958h46.154A1.923 1.923 0 0161 12.881v46.154a1.923 1.923 0 01-1.923 1.923H12.923A1.923 1.923 0 0111 59.035V12.881a1.923 1.923 0 011.923-1.923z"/><rect x="16" y="4" rx="2.254" width="40" height="64" fill="none" stroke="#00a5ff" stroke-miterlimit="10" stroke-width=".1"/><rect x="16" y="4" rx="2.254" width="40" height="64" transform="rotate(90 36 36)" fill="none" stroke="#00a5ff" stroke-miterlimit="10" stroke-width=".1"/><circle cx="36" cy="36" r="29" fill="none" stroke="#00a5ff" stroke-miterlimit="10" stroke-width=".1"/><g stroke-linecap="round" stroke-miterlimit="10" stroke-width="6" stroke="#fff" fill="none" stroke-linejoin="round"><circle cx="36" cy="35.907" r="23"/><path d="M43.425 46.16a8.895 8.895 0 01-5.922 2.247h0a8.929 8.929 0 01-8.929-8.93v-7.142 7.143-7.143a8.929 8.929 0 018.929-8.929h0a8.9 8.9 0 015.923 2.248"/></g><circle cx="36" cy="36.166" r="23" fill="#D0CFCE"/><g fill="none" stroke="#000" stroke-linecap="round" stroke-linejoin="round" stroke-miterlimit="10" stroke-width="2"><circle cx="36" cy="35.907" r="23"/><path d="M43.425 46.16a8.895 8.895 0 01-5.922 2.247h0a8.929 8.929 0 01-8.929-8.93v-7.142 7.143-7.143a8.929 8.929 0 018.929-8.929h0a8.9 8.9 0 015.923 2.248"/></g></svg>