<svg viewBox="0 0 72 72" xmlns="http://www.w3.org/2000/svg"><path fill="#b3b3b3" d="M68 4v64H4V4h64m4-4H0v72h72V0z"/><path fill="none" stroke="#00a5ff" stroke-miterlimit="10" stroke-width=".1" d="M12.923 10.958h46.154A1.923 1.923 0 0161 12.881v46.154a1.923 1.923 0 01-1.923 1.923H12.923A1.923 1.923 0 0111 59.035V12.881a1.923 1.923 0 011.923-1.923z"/><rect x="16" y="4" rx="2.254" ry="2.254" width="40" height="64" fill="none" stroke="#00a5ff" stroke-miterlimit="10" stroke-width=".1"/><rect x="16" y="4" rx="2.254" ry="2.254" width="40" height="64" transform="rotate(90 36 36)" fill="none" stroke="#00a5ff" stroke-miterlimit="10" stroke-width=".1"/><circle cx="36" cy="36" r="29" fill="none" stroke="#00a5ff" stroke-miterlimit="10" stroke-width=".1"/><g stroke-linecap="round" stroke-miterlimit="10" stroke-width="6" stroke="#fff" fill="none" stroke-linejoin="round"><path d="M42.976 39.075l5.886 9.295a.494.494 0 01-.696.674l-8.907-6.048a.495.495 0 00-.764.316l-2.008 10.529a.495.495 0 01-.972 0l-2.01-10.529a.495.495 0 00-.764-.316l-8.905 6.048a.495.495 0 01-.696-.674l5.884-9.295a.495.495 0 00-.33-.751l-10.145-1.836a.495.495 0 010-.974l10.146-1.838a.495.495 0 00.33-.751L23.14 23.63a.495.495 0 01.696-.674l8.905 6.048a.495.495 0 00.764-.316l2.01-10.529a.495.495 0 01.972 0l2.008 10.529a.495.495 0 00.764.316l8.907-6.048a.494.494 0 01.696.674l-5.886 9.295a.494.494 0 00.33.751l10.146 1.838a.495.495 0 010 .974l-10.146 1.836a.494.494 0 00-.33.751z"/><path d="M60 60.958H12a.945.945 0 01-1-1v-48a.945.945 0 011-1h48a.945.945 0 011 1v48a.945.945 0 01-1 1z"/></g><path fill="none" stroke="#000" stroke-miterlimit="10" stroke-width="2" d="M42.976 39.075l5.886 9.295a.494.494 0 01-.696.674l-8.907-6.048a.495.495 0 00-.764.316l-2.008 10.529a.495.495 0 01-.972 0l-2.01-10.529a.495.495 0 00-.764-.316l-8.905 6.048a.495.495 0 01-.696-.674l5.884-9.295a.495.495 0 00-.33-.751l-10.145-1.836a.495.495 0 010-.974l10.146-1.838a.495.495 0 00.33-.751L23.14 23.63a.495.495 0 01.696-.674l8.905 6.048a.495.495 0 00.764-.316l2.01-10.529a.495.495 0 01.972 0l2.008 10.529a.495.495 0 00.764.316l8.907-6.048a.494.494 0 01.696.674l-5.886 9.295a.494.494 0 00.33.751l10.146 1.838a.495.495 0 010 .974l-10.146 1.836a.494.494 0 00-.33.751z"/><path fill="#f4aa41" d="M60 60.958H12a.945.945 0 01-1-1v-48a.945.945 0 011-1h48a.945.945 0 011 1v48a.945.945 0 01-1 1z"/><path fill="#fff" stroke="#fff" stroke-miterlimit="10" stroke-width="2" d="M42.976 39.034l5.886 9.294a.494.494 0 01-.696.674l-8.907-6.048a.495.495 0 00-.764.317l-2.008 10.528a.495.495 0 01-.972 0l-2.01-10.528a.495.495 0 00-.764-.317l-8.905 6.048a.495.495 0 01-.696-.674l5.884-9.294a.495.495 0 00-.33-.752L18.55 36.446a.495.495 0 010-.973l10.146-1.839a.495.495 0 00.33-.75l-5.885-9.296a.495.495 0 01.696-.674l8.905 6.048a.495.495 0 00.764-.316l2.01-10.529a.495.495 0 01.972 0l2.008 10.529a.495.495 0 00.764.316l8.907-6.047a.494.494 0 01.696.673l-5.886 9.295a.494.494 0 00.33.751l10.146 1.839a.495.495 0 010 .973l-10.146 1.836a.494.494 0 00-.33.752z"/><g><path fill="none" stroke="#000" stroke-linecap="round" stroke-linejoin="round" stroke-width="2" d="M60 60.958H12a.945.945 0 01-1-1v-48a.945.945 0 011-1h48a.945.945 0 011 1v48a.945.945 0 01-1 1z"/></g></svg>