<svg viewBox="0 0 72 72" xmlns="http://www.w3.org/2000/svg"><path fill="#b3b3b3" d="M68 4v64H4V4h64m4-4H0v72h72V0z"/><path fill="none" stroke="#00a5ff" stroke-miterlimit="10" stroke-width=".1" d="M12.923 10.958h46.154A1.923 1.923 0 0161 12.881v46.154a1.923 1.923 0 01-1.923 1.923H12.923A1.923 1.923 0 0111 59.035V12.881a1.923 1.923 0 011.923-1.923z"/><rect x="16" y="4" rx="2.254" width="40" height="64" fill="none" stroke="#00a5ff" stroke-miterlimit="10" stroke-width=".1"/><rect x="16" y="4" rx="2.254" width="40" height="64" transform="rotate(90 36 36)" fill="none" stroke="#00a5ff" stroke-miterlimit="10" stroke-width=".1"/><circle cx="36" cy="36" r="29" fill="none" stroke="#00a5ff" stroke-miterlimit="10" stroke-width=".1"/><path d="M47.588 12.274c3.1 0 6.2 1.176 8.552 3.528h0c4.703 4.703 4.703 12.4 0 17.104l-23.62 23.62a12.057 12.057 0 01-8.552 3.527c-3.1 0-6.2-1.176-8.552-3.528h0c-4.703-4.703-4.703-12.4 0-17.104l23.62-23.62a12.057 12.057 0 018.552-3.527m0-2c-3.774 0-7.314 1.461-9.966 4.114l-23.62 23.62c-5.495 5.494-5.495 14.436 0 19.931 2.653 2.653 6.192 4.114 9.966 4.114 3.774 0 7.314-1.461 9.966-4.114l23.62-23.62c5.495-5.494 5.495-14.436 0-19.931-2.653-2.653-6.192-4.114-9.966-4.114h0zM28.563 30.406l12.859 12.86" stroke-linecap="round" stroke-miterlimit="10" stroke-width="6" stroke="#fff" fill="none" stroke-linejoin="round"/><path fill="#D22F27" d="M44.33 44.71L32.52 56.52c-4.53 4.54-11.85 4.7-16.58.49 8.96.08 8.4.65 24.87-15.82l3.52 3.52z"/><path fill="#EA5A47" d="M40.81 41.19C24.34 57.66 24.9 57.09 15.94 57.01a12.06 12.06 0 01-4.05-9.04c0-3.1 1.18-6.2 3.53-8.55l11.81-11.81 13.58 13.58z"/><path fill="#92D3F5" d="M56.85 15.1a12.992 12.992 0 00-9.26-3.83c-3.51 0-6.8 1.36-9.26 3.83L25.81 27.61l18.52 18.52 12.51-12.52c2.47-2.46 3.83-5.75 3.83-9.26 0-3.5-1.36-6.79-3.82-9.25zm-.71 17.8L44.33 44.71l-3.52-3.52 1.31-1.31c15.72-15.72 8.77-25.05 6.21-27.59 2.85.18 5.65 1.35 7.81 3.51a12.06 12.06 0 013.53 8.55c0 3.1-1.18 6.2-3.53 8.55z"/><path fill="#92D3F5" d="M57.55 14.39c-2.65-2.66-6.19-4.12-9.96-4.12-3.78 0-7.32 1.46-9.97 4.12L24.4 27.61l1.41 1.42 17.1 17.1 1.42 1.41 13.22-13.22c2.66-2.66 4.12-6.2 4.12-9.97s-1.46-7.31-4.12-9.96zM44.33 44.71l-3.52-3.52-13.58-13.58L39.04 15.8a12.06 12.06 0 018.55-3.53c.25 0 .49.01.74.02 2.85.18 5.65 1.35 7.81 3.51a12.06 12.06 0 013.53 8.55c0 3.1-1.18 6.2-3.53 8.55L44.33 44.71z"/><path fill="#61B2E4" d="M59.67 24.35c0 3.1-1.18 6.2-3.53 8.55L44.33 44.71l-3.52-3.52 1.31-1.31c15.72-15.72 8.77-25.05 6.21-27.59 2.85.18 5.65 1.35 7.81 3.51a12.06 12.06 0 013.53 8.55z"/><path fill="none" d="M27.228 27.613l-.57-.579"/><path fill="#61B2E4" d="M44.017 37.92l4.106 4.107-4.641 4.641-4.107-4.106z"/><path d="M47.588 12.274c3.1 0 6.2 1.176 8.552 3.528 4.703 4.703 4.703 12.4 0 17.104l-23.62 23.62a12.057 12.057 0 01-8.552 3.527c-3.1 0-6.2-1.176-8.552-3.528-4.703-4.703-4.703-12.4 0-17.104l23.62-23.62a12.057 12.057 0 018.552-3.527m0-2c-3.774 0-7.314 1.461-9.966 4.114l-23.62 23.62c-5.495 5.494-5.495 14.436 0 19.931 2.653 2.653 6.192 4.114 9.966 4.114 3.774 0 7.314-1.461 9.966-4.114l23.62-23.62c5.495-5.494 5.495-14.436 0-19.931-2.653-2.653-6.192-4.114-9.966-4.114z"/><path fill="none" stroke="#000" stroke-linecap="round" stroke-miterlimit="10" stroke-width="2" d="M28.563 30.406l12.859 12.86"/></svg>