<svg viewBox="0 0 72 72" xmlns="http://www.w3.org/2000/svg"><path fill="#b3b3b3" d="M68 4v64H4V4h64m4-4H0v72h72V0z"/><path fill="none" stroke="#00a5ff" stroke-miterlimit="10" stroke-width=".1" d="M12.92 10.96h46.15a1.923 1.923 0 011.923 1.923v46.15a1.923 1.923 0 01-1.923 1.923H12.92a1.923 1.923 0 01-1.923-1.923v-46.15a1.923 1.923 0 011.923-1.923z"/><rect x="16" y="4" rx="2.254" width="40" height="64" fill="none" stroke="#00a5ff" stroke-miterlimit="10" stroke-width=".1"/><rect x="16" y="4" rx="2.254" width="40" height="64" transform="rotate(90 36 36)" fill="none" stroke="#00a5ff" stroke-miterlimit="10" stroke-width=".1"/><circle cx="36" cy="36" r="29" fill="none" stroke="#00a5ff" stroke-miterlimit="10" stroke-width=".1"/><g stroke-linecap="round" stroke-miterlimit="10" stroke-width="6" stroke="#fff" fill="none" stroke-linejoin="round"><path d="M33.25 20.94c1.554.236 2.192-.152 2.773-.58m-7.873 4.32c1.554.236 2.192-.152 2.773-.58m-7.713 5.29c1.554.236 2.192-.152 2.773-.58m2.727-.01c1.554.236 2.192-.152 2.773-.58M19.81 34.05c1.554.236 2.192-.152 2.773-.58m3.047.24c1.554.236 2.192-.152 2.773-.58M15.55 41.42c1.554.236 2.192-.152 2.773-.58m1.477-2.96c1.554.236 2.192-.152 2.773-.58M40.86 20.34c1.145 1.077 1.891 1.12 2.611 1.098M40.54 24.33c1.145 1.077 1.891 1.12 2.611 1.098m-7.571.432c1.145 1.077 1.891 1.12 2.611 1.098m-.931 3.462c1.145 1.077 1.891 1.12 2.611 1.098m-7.751.412c1.145 1.077 1.891 1.12 2.611 1.098M32.82 36.46c1.145 1.077 1.891 1.12 2.611 1.098m-8.001.062c1.145 1.077 1.891 1.12 2.611 1.098M26.62 41.67c1.145 1.077 1.891 1.12 2.611 1.098m-7.981-.308c1.145 1.077 1.891 1.12 2.611 1.098M17.83 45.31c1.145 1.077 1.891 1.12 2.611 1.098"/><path d="M15.18 46.36c2.177 2.331 4.22 2.526 4.347 2.538 11.82 1.074 27.92-16.01 26.88-28.63-.184-1.538-.99-2.714-2.387-3.445"/><path d="M53.26 55.35a26.109 26.109 0 01-6.296 4.644c-.753.392-1.527.753-2.312 1.073a26.243 26.243 0 01-9.784 1.899 25.93 25.93 0 01-18.39-7.616c-10.16-10.16-4.489-20.96 5.666-31.12 7.42-7.428 15.19-12.45 22.79-10.65.538.127 3.531-1.687 3.003-4.498-.025-.131 1.098-.228 2.761.303 1.805.576 2.682 1.57 3.53 2.933-2.569.903-2.981 4.066-2.748 4.32l1.776 1.927c1.147 1.245 2.219 2.672 3.137 4.024 6.853 10.11 5.831 23.8-3.137 32.76z"/></g><path d="M33.25 20.94c1.554.236 2.192-.152 2.773-.58m-7.873 4.32c1.554.236 2.192-.152 2.773-.58m-7.713 5.29c1.554.236 2.192-.152 2.773-.58m2.727-.01c1.554.236 2.192-.152 2.773-.58M19.81 34.05c1.554.236 2.192-.152 2.773-.58m3.047.24c1.554.236 2.192-.152 2.773-.58M15.55 41.42c1.554.236 2.192-.152 2.773-.58m1.477-2.96c1.554.236 2.192-.152 2.773-.58M40.86 20.34c1.145 1.077 1.891 1.12 2.611 1.098M40.54 24.33c1.145 1.077 1.891 1.12 2.611 1.098m-7.571.432c1.145 1.077 1.891 1.12 2.611 1.098m-.931 3.462c1.145 1.077 1.891 1.12 2.611 1.098m-7.751.412c1.145 1.077 1.891 1.12 2.611 1.098M32.82 36.46c1.145 1.077 1.891 1.12 2.611 1.098m-8.001.062c1.145 1.077 1.891 1.12 2.611 1.098M26.62 41.67c1.145 1.077 1.891 1.12 2.611 1.098m-7.981-.308c1.145 1.077 1.891 1.12 2.611 1.098M17.83 45.31c1.145 1.077 1.891 1.12 2.611 1.098" fill="none" stroke="#000" stroke-linecap="round" stroke-linejoin="round" stroke-width="2"/><path fill="#d22f27" d="M53.04 55.43a26.109 26.109 0 01-6.296 4.644c-.753.392-1.527.753-2.312 1.073a26.243 26.243 0 01-9.784 1.899 25.93 25.93 0 01-18.39-7.616c-10.16-10.16-4.489-20.96 5.666-31.12 5.843-5.849 15.28-12.16 22.65-10.69 2.565.511 1.553-5.314 6.422-3.788 4.996 1.566.148 4.589.79 6.896.336 1.206-.01.756 1.255 1.913 1.374 1.256 2.25 2.477 3.169 3.829 6.852 10.11 5.8 24-3.169 32.95z"/><path fill="#fff" stroke="#fff" stroke-linecap="round" stroke-linejoin="round" stroke-miterlimit="10" stroke-width="2" d="M24.63 46.88c-7.894 2.624-10.18-.423-9.963-2.803-.675-12.27 25.7-32.68 30.43-26.27 3.626 2.767-.208 13.82-8.298 21.91-3.995 3.272-8.052 5.376-12.17 7.16z"/><path opacity=".25" d="M54.03 55.89c-5.078 5.078-11.73 7.616-18.39 7.616-2.645-.003 32.21-14.29 13.28-47.76 2.573-5.308 2.418-4.034 3.388-5.059.99-1.046.86 1.118.67 1.446-.684 1.18-1.388 5.042-.912 5.427 13.72 11.1 10.3 30 1.967 38.33z"/><path fill="none" d="M-3.442 26.9v1.087c0 .03-.021.07 0 .09s.064-.013.09 0c.039.02.053.072.091.091.027.014.06 0 .09 0h.091c.03 0 .07-.021.09 0s-.02.07 0 .09.064-.013.091 0c.039.02.053.072.091.091.125.063.081-.11.181.09.014.028-.013.064 0 .091.02.039.072.053.09.091.014.027-.02.07 0 .09s.07-.02.091 0c.043.043-.042.139 0 .182.022.021.07-.022.09 0 .122.12-.15.09.091.09"/><path fill="none" stroke="#d22f27" stroke-linecap="round" stroke-linejoin="round" stroke-width="2" d="M33.25 20.94c1.554.236 2.192-.152 2.773-.58"/><path opacity=".25" d="M33.2 21.94s.796-.52 1.219-.734c.512-.26 1.206-.236 1.59-.663.264-.294.336-1.135.336-1.135s.294.13.396.248c.153.176.27.405.287.637.017.22-.084.523-.178.64-.216.27-.52.448-.817.615a3.6 3.6 0 01-.894.351c-.327.08-.668.102-1.005.106-.304.005-.6-.01-.934-.065z"/><path fill="none" stroke="#d22f27" stroke-linecap="round" stroke-linejoin="round" stroke-width="2" d="M28.15 24.68c1.554.236 2.192-.152 2.773-.58"/><path opacity=".25" d="M28.09 25.68s.796-.52 1.219-.734c.512-.26 1.206-.236 1.59-.663.264-.294.336-1.135.336-1.135s.294.13.396.248c.153.176.27.405.287.637.017.22-.084.523-.178.64-.216.27-.52.448-.817.615a3.6 3.6 0 01-.894.351c-.327.08-.668.102-1.005.106-.304.004-.6-.01-.934-.065z"/><path fill="none" stroke="#d22f27" stroke-linecap="round" stroke-linejoin="round" stroke-width="2" d="M23.21 29.39c1.554.236 2.192-.152 2.773-.58"/><path opacity=".25" d="M23.15 30.39s.796-.52 1.219-.734c.512-.26 1.206-.236 1.59-.663.264-.294.336-1.135.336-1.135s.294.13.396.248c.153.176.27.405.287.637.017.22-.084.523-.178.64-.216.27-.52.448-.817.615a3.6 3.6 0 01-.894.351c-.327.08-.668.102-1.005.106-.304.005-.6-.01-.934-.065z"/><path fill="none" stroke="#d22f27" stroke-linecap="round" stroke-linejoin="round" stroke-width="2" d="M28.71 28.8c1.554.236 2.192-.152 2.773-.58"/><path opacity=".25" d="M28.65 29.8s.796-.52 1.219-.734c.512-.26 1.206-.236 1.59-.663.264-.294.336-1.135.336-1.135s.294.13.396.248c.153.176.27.405.287.637.017.22-.084.523-.178.64-.216.27-.52.448-.817.615a3.6 3.6 0 01-.894.351c-.327.08-.668.102-1.005.106-.304.005-.6-.01-.934-.065z"/><path fill="none" stroke="#d22f27" stroke-linecap="round" stroke-linejoin="round" stroke-width="2" d="M19.81 34.05c1.554.236 2.192-.152 2.773-.58"/><path opacity=".25" d="M19.76 35.06s.796-.52 1.219-.734c.512-.26 1.206-.236 1.59-.663.264-.294.336-1.135.336-1.135s.294.13.396.248c.153.176.27.405.287.637.017.22-.084.523-.178.64-.216.27-.52.448-.817.615a3.6 3.6 0 01-.894.351c-.327.08-.668.102-1.005.106-.304.005-.6-.01-.934-.065z"/><path fill="none" stroke="#d22f27" stroke-linecap="round" stroke-linejoin="round" stroke-width="2" d="M25.63 33.71c1.554.236 2.192-.152 2.773-.58"/><path opacity=".25" d="M25.58 34.72s.796-.52 1.219-.734c.512-.26 1.206-.236 1.59-.663.264-.294.336-1.135.336-1.135s.294.13.396.248c.153.176.27.405.287.637.017.22-.084.523-.178.64-.216.27-.52.448-.817.615a3.6 3.6 0 01-.894.351c-.327.08-.668.102-1.005.106-.304.005-.6-.01-.934-.065z"/><path fill="none" stroke="#d22f27" stroke-linecap="round" stroke-linejoin="round" stroke-width="2" d="M15.55 41.42c1.554.236 2.192-.152 2.773-.58"/><path opacity=".25" d="M15.5 42.42s.796-.52 1.219-.734c.512-.26 1.206-.236 1.59-.663.264-.294.336-1.135.336-1.135s.294.13.396.248c.153.176.27.405.287.637.017.22-.084.523-.178.64-.216.27-.52.448-.817.615a3.6 3.6 0 01-.894.351c-.327.08-.668.102-1.005.106-.304.005-.6-.01-.934-.065z"/><path fill="none" stroke="#d22f27" stroke-linecap="round" stroke-linejoin="round" stroke-width="2" d="M19.8 37.88c1.554.236 2.192-.152 2.773-.58"/><path opacity=".25" d="M19.75 38.88s.796-.52 1.219-.734c.512-.26 1.206-.236 1.59-.663.264-.294.336-1.135.336-1.135s.294.13.396.248c.153.176.27.405.287.637.017.22-.084.523-.178.64-.216.27-.52.448-.817.615a3.6 3.6 0 01-.894.351c-.327.08-.668.102-1.005.106-.304.005-.6-.01-.934-.065z"/><path fill="none" stroke="#d22f27" stroke-linecap="round" stroke-linejoin="round" stroke-width="2" d="M40.86 20.34c1.145 1.077 1.891 1.12 2.611 1.098"/><path opacity=".25" d="M40.24 21.13s.95.024 1.42.088c.569.077 1.127.491 1.685.357.384-.092.92-.744.92-.744s.169.275.186.43c.027.231-.008.486-.125.687-.111.191-.366.383-.51.426-.331.099-.682.073-1.022.041a3.583 3.583 0 01-.935-.218 4.464 4.464 0 01-.887-.483 5.185 5.185 0 01-.732-.584z"/><path fill="none" stroke="#d22f27" stroke-linecap="round" stroke-linejoin="round" stroke-width="2" d="M40.54 24.33c1.145 1.077 1.891 1.12 2.611 1.098"/><path opacity=".25" d="M39.92 25.12s.95.024 1.42.088c.569.077 1.127.491 1.685.357.384-.092.92-.744.92-.744s.169.275.186.43c.027.231-.008.486-.125.687-.111.191-.366.383-.51.426-.331.099-.682.073-1.022.041a3.583 3.583 0 01-.935-.218 4.464 4.464 0 01-.887-.483 5.185 5.185 0 01-.732-.584z"/><path fill="none" stroke="#d22f27" stroke-linecap="round" stroke-linejoin="round" stroke-width="2" d="M35.58 25.86c1.145 1.077 1.891 1.12 2.611 1.098"/><path opacity=".25" d="M34.97 26.66s.95.024 1.42.088c.569.077 1.127.491 1.685.357.384-.092.92-.744.92-.744s.169.275.186.43c.027.231-.008.486-.125.687-.111.191-.366.383-.51.426-.331.099-.682.073-1.022.041a3.583 3.583 0 01-.935-.218 4.464 4.464 0 01-.887-.483 5.185 5.185 0 01-.732-.584z"/><path fill="none" stroke="#d22f27" stroke-linecap="round" stroke-linejoin="round" stroke-width="2" d="M37.26 30.42c1.145 1.077 1.891 1.12 2.611 1.098"/><path opacity=".25" d="M36.64 31.21s.95.024 1.42.088c.569.077 1.127.491 1.685.357.384-.092.92-.744.92-.744s.169.275.186.43c.027.231-.008.486-.125.687-.111.191-.366.383-.51.426-.331.099-.682.073-1.022.041a3.583 3.583 0 01-.935-.218 4.464 4.464 0 01-.887-.483 5.185 5.185 0 01-.732-.584z"/><path fill="none" stroke="#d22f27" stroke-linecap="round" stroke-linejoin="round" stroke-width="2" d="M32.12 31.93c1.145 1.077 1.891 1.12 2.611 1.098"/><path opacity=".25" d="M31.5 32.73s.95.024 1.42.088c.569.077 1.127.491 1.685.357.384-.092.92-.744.92-.744s.169.275.186.43c.027.231-.008.486-.125.687-.111.191-.366.383-.51.426-.331.099-.682.073-1.022.041a3.583 3.583 0 01-.935-.218 4.464 4.464 0 01-.887-.483 5.185 5.185 0 01-.732-.584z"/><path fill="none" stroke="#d22f27" stroke-linecap="round" stroke-linejoin="round" stroke-width="2" d="M32.82 36.46c1.145 1.077 1.891 1.12 2.611 1.098"/><path opacity=".25" d="M32.2 37.25s.95.024 1.42.088c.569.077 1.127.491 1.685.357.384-.092.92-.744.92-.744s.169.275.186.43c.027.231-.008.486-.125.687-.111.191-.366.383-.51.426-.331.099-.682.073-1.022.041a3.583 3.583 0 01-.935-.218 4.464 4.464 0 01-.887-.483 5.185 5.185 0 01-.732-.584z"/><path fill="none" stroke="#d22f27" stroke-linecap="round" stroke-linejoin="round" stroke-width="2" d="M27.43 37.62c1.145 1.077 1.891 1.12 2.611 1.098"/><path opacity=".25" d="M26.81 38.41s.95.024 1.42.088c.569.077 1.127.491 1.685.357.384-.092.92-.744.92-.744s.168.275.186.43c.027.231-.008.486-.125.687-.111.191-.367.383-.51.426-.331.099-.683.073-1.022.041a3.583 3.583 0 01-.935-.218 4.464 4.464 0 01-.887-.483 5.185 5.185 0 01-.732-.584z"/><path fill="none" stroke="#d22f27" stroke-linecap="round" stroke-linejoin="round" stroke-width="2" d="M26.62 41.67c1.145 1.077 1.891 1.12 2.611 1.098"/><path opacity=".25" d="M26 42.46s.95.024 1.42.088c.569.077 1.127.491 1.685.357.384-.092.92-.744.92-.744s.169.275.186.43c.027.231-.008.486-.125.687-.111.191-.366.383-.51.426-.331.099-.683.073-1.022.041a3.583 3.583 0 01-.935-.218 4.464 4.464 0 01-.887-.483A5.185 5.185 0 0126 42.46z"/><path fill="none" stroke="#d22f27" stroke-linecap="round" stroke-linejoin="round" stroke-width="2" d="M21.25 42.46c1.145 1.077 1.891 1.12 2.611 1.098"/><path opacity=".25" d="M20.63 43.25s.95.024 1.42.088c.569.077 1.127.491 1.685.357.384-.092.92-.744.92-.744s.168.275.186.43c.027.231-.008.486-.125.687-.111.191-.367.383-.51.426-.331.099-.683.073-1.022.041a3.583 3.583 0 01-.935-.218 4.464 4.464 0 01-.887-.483 5.185 5.185 0 01-.732-.584z"/><path fill="none" stroke="#d22f27" stroke-linecap="round" stroke-linejoin="round" stroke-width="2" d="M17.83 45.31c1.145 1.077 1.891 1.12 2.611 1.098"/><path opacity=".25" d="M17.21 46.11s.95.024 1.42.088c.569.077 1.127.491 1.685.357.384-.092.92-.744.92-.744s.169.275.186.43c.027.231-.008.486-.125.687-.111.191-.366.383-.51.426-.331.099-.683.073-1.022.041a3.583 3.583 0 01-.935-.218 4.464 4.464 0 01-.887-.483 5.185 5.185 0 01-.732-.584z"/><g fill="none" stroke="#000" stroke-linecap="round" stroke-width="2"><path d="M15.18 46.36c2.177 2.331 4.22 2.526 4.347 2.538 11.82 1.074 27.92-16.01 26.88-28.63-.184-1.538-.99-2.714-2.387-3.445"/><path stroke-linejoin="round" stroke-miterlimit="10" d="M53.26 55.35a26.109 26.109 0 01-6.296 4.644c-.753.392-1.527.753-2.312 1.073a26.243 26.243 0 01-9.784 1.899 25.93 25.93 0 01-18.39-7.616c-10.16-10.16-4.489-20.96 5.666-31.12 7.42-7.428 15.19-12.45 22.79-10.65.538.127 3.531-1.687 3.003-4.498-.025-.131 1.098-.228 2.761.303 1.805.576 2.682 1.57 3.53 2.933-2.569.903-2.981 4.066-2.748 4.32l1.776 1.927c1.147 1.245 2.219 2.672 3.137 4.024 6.853 10.11 5.831 23.8-3.137 32.76z"/></g></svg>