<svg viewBox="0 0 72 72" xmlns="http://www.w3.org/2000/svg"><path fill="#b3b3b3" d="M68 4v64H4V4h64m4-4H0v72h72V0z"/><path fill="none" stroke="#00a5ff" stroke-miterlimit="10" stroke-width=".1" d="M12.923 10.958h46.154A1.923 1.923 0 0161 12.881v46.154a1.923 1.923 0 01-1.923 1.923H12.923A1.923 1.923 0 0111 59.035V12.881a1.923 1.923 0 011.923-1.923z"/><rect x="16" y="4" rx="2.254" width="40" height="64" fill="none" stroke="#00a5ff" stroke-miterlimit="10" stroke-width=".1"/><rect x="16" y="4" rx="2.254" width="40" height="64" transform="rotate(90 36 36)" fill="none" stroke="#00a5ff" stroke-miterlimit="10" stroke-width=".1"/><circle cx="36" cy="36" r="29" fill="none" stroke="#00a5ff" stroke-miterlimit="10" stroke-width=".1"/><g stroke-linecap="round" stroke-miterlimit="10" stroke-width="6" stroke="#fff" fill="none" stroke-linejoin="round"><path d="M27 45.001a3.002 3.002 0 01-3.001 3.001 3 3 0 00-3 3M39.002 33c0 1.656-1.344 3-3.002 3a3.001 3.001 0 00-3 3m0 0a2.999 2.999 0 01-3 3c-1.657 0-3 1.345-3 3.001m18.002-18.003a3 3 0 01-3 3.001 3 3 0 00-3 3.001m12-12.002a3 3 0 01-3 3c-1.656 0-3 1.345-3 3"/><path d="M20.535 58.535a5 5 0 01-7.072-7.07l38.002-38a5 5 0 017.072 7.07l-38.002 38z"/><path d="M50.05 14.879l-1.413-1.414a4.998 4.998 0 00-7.07 0l-28.102 28.1a5.001 5.001 0 00-.002 7.07l1.416 1.416m7.071 7.07l1.413 1.414a4.998 4.998 0 007.07 0l28.104-28.1a5.003 5.003 0 000-7.07l-1.414-1.416"/></g><path fill="#f4aa41" d="M48.637 13.465a4.998 4.998 0 00-7.07 0l-28.102 28.1a5.001 5.001 0 00-.002 7.07l9.9 9.9a4.998 4.998 0 007.07 0l28.104-28.1a5.003 5.003 0 000-7.07l-9.9-9.9z"/><path fill="#ea5a47" d="M20.535 58.535a5 5 0 01-7.072-7.07l38.002-38a5 5 0 017.072 7.07l-38.002 38z"/><g fill="none" stroke="#000" stroke-linecap="round" stroke-linejoin="round" stroke-miterlimit="10" stroke-width="2"><path d="M27 45.001a3.002 3.002 0 01-3.001 3.001 3 3 0 00-3 3M39.002 33c0 1.656-1.344 3-3.002 3a3.001 3.001 0 00-3 3m0 0a2.999 2.999 0 01-3 3c-1.657 0-3 1.345-3 3.001m18.002-18.003a3 3 0 01-3 3.001 3 3 0 00-3 3.001m12-12.002a3 3 0 01-3 3c-1.656 0-3 1.345-3 3"/><path d="M20.535 58.535a5 5 0 01-7.072-7.07l38.002-38a5 5 0 017.072 7.07l-38.002 38z"/><path d="M50.05 14.879l-1.413-1.414a4.998 4.998 0 00-7.07 0l-28.102 28.1a5.001 5.001 0 00-.002 7.07l1.416 1.416m7.071 7.07l1.413 1.414a4.998 4.998 0 007.07 0l28.104-28.1a5.003 5.003 0 000-7.07l-1.414-1.416"/></g></svg>