<svg viewBox="0 0 72 72" xmlns="http://www.w3.org/2000/svg"><path fill="#b3b3b3" d="M68 4v64H4V4h64m4-4H0v72h72V0z"/><path fill="none" stroke="#00a5ff" stroke-miterlimit="10" stroke-width=".1" d="M12.923 10.958h46.154A1.923 1.923 0 0161 12.881v46.154a1.923 1.923 0 01-1.923 1.923H12.923A1.923 1.923 0 0111 59.035V12.881a1.923 1.923 0 011.923-1.923z"/><rect x="16" y="4" rx="2.254" width="40" height="64" fill="none" stroke="#00a5ff" stroke-miterlimit="10" stroke-width=".1"/><rect x="16" y="4" rx="2.254" width="40" height="64" transform="rotate(90 36 36)" fill="none" stroke="#00a5ff" stroke-miterlimit="10" stroke-width=".1"/><circle cx="36" cy="36" r="29" fill="none" stroke="#00a5ff" stroke-miterlimit="10" stroke-width=".1"/><g stroke-linecap="round" stroke-miterlimit="10" stroke-width="6" stroke="#fff" fill="none" stroke-linejoin="round"><path d="M52.264 19.737c.476.478.916.978 1.341 1.486l2.9-5.729c-11.324-11.325-29.687-11.325-41.01 0l2.9 5.729c.425-.508.865-1.008 1.341-1.486 8.984-8.983 23.544-8.983 32.528 0z"/><path d="M53.605 21.223a23.038 23.038 0 00-1.341-1.486c-8.984-8.983-23.544-8.983-32.528 0-.476.478-.916.978-1.342 1.486L36 56l17.605-34.777z"/><circle cx="31" cy="24" r="5"/><circle cx="44" cy="24" r="3"/><circle cx="37" cy="36" r="3"/></g><path fill="#f4aa41" d="M52.264 19.737c.476.478.916.978 1.341 1.486l2.9-5.729c-11.324-11.325-29.687-11.325-41.01 0l2.9 5.729c.425-.508.865-1.008 1.341-1.486 8.984-8.983 23.544-8.983 32.528 0z"/><path fill="#fcea2b" d="M53.605 21.223a23.038 23.038 0 00-1.341-1.486c-8.984-8.983-23.544-8.983-32.528 0-.476.478-.916.978-1.342 1.486L36 56l17.605-34.777z"/><circle cx="31" cy="24" r="5" fill="#ea5a47"/><circle cx="44" cy="24" r="3" fill="#ea5a47"/><circle cx="37" cy="36" r="3" fill="#ea5a47"/><g fill="none" stroke="#000" stroke-linecap="round" stroke-linejoin="round" stroke-miterlimit="10" stroke-width="2"><path d="M52.264 19.737c.476.478.916.978 1.341 1.486l2.9-5.729c-11.324-11.325-29.687-11.325-41.01 0l2.9 5.729c.425-.508.865-1.008 1.341-1.486 8.984-8.983 23.544-8.983 32.528 0z"/><path d="M53.605 21.223a23.038 23.038 0 00-1.341-1.486c-8.984-8.983-23.544-8.983-32.528 0-.476.478-.916.978-1.342 1.486L36 56l17.605-34.777z"/><circle cx="31" cy="24" r="5"/><circle cx="44" cy="24" r="3"/><circle cx="37" cy="36" r="3"/></g></svg>