<svg viewBox="0 0 72 72" xmlns="http://www.w3.org/2000/svg"><path fill="#b3b3b3" d="M68 4v64H4V4h64m4-4H0v72h72V0z"/><path fill="none" stroke="#00a5ff" stroke-miterlimit="10" stroke-width=".1" d="M12.923 10.958h46.154A1.923 1.923 0 0161 12.881v46.154a1.923 1.923 0 01-1.923 1.923H12.923A1.923 1.923 0 0111 59.035V12.881a1.923 1.923 0 011.923-1.923z"/><rect x="16" y="4" rx="2.254" width="40" height="64" fill="none" stroke="#00a5ff" stroke-miterlimit="10" stroke-width=".1"/><rect x="16" y="4" rx="2.254" width="40" height="64" transform="rotate(90 36 36)" fill="none" stroke="#00a5ff" stroke-miterlimit="10" stroke-width=".1"/><circle cx="36" cy="36" r="29" fill="none" stroke="#00a5ff" stroke-miterlimit="10" stroke-width=".1"/><path d="M7 36c0 16.017 12.983 29 29 29s29-12.983 29-29H7zm0-10.859l7 7M29.043 7.846a4.953 4.953 0 001.42 3.084 5 5 0 010 7.07 5 5 0 000 7.07 5 5 0 010 0 5 5 0 010-7.07 5 5 0 000-7.07 4.953 4.953 0 01-1.42-3.084m5.527-.81c-.1 1.398.362 2.826 1.43 3.894A5 5 0 0136 18a5 5 0 000 7.07 5 5 0 010 0A5 5 0 0136 18a5 5 0 000-7.07c-1.068-1.068-1.53-2.496-1.43-3.894m5.44.247a4.969 4.969 0 001.454 3.647 5 5 0 010 7.07 5 5 0 000 7.07 5 5 0 010 0 5 5 0 010-7.07 5 5 0 000-7.07 4.969 4.969 0 01-1.453-3.647" stroke-linecap="round" stroke-miterlimit="10" stroke-width="6" stroke="#fff" fill="none" stroke-linejoin="round"/><path fill="#FFF" d="M7 36c0 16.017 12.983 29 29 29s29-12.983 29-29H7z"/><path fill="#d0cfce" d="M49 36c0 16.016-4 29-13 29 16.017 0 29-12.984 29-29H49z"/><path d="M7 36c0 16.017 12.983 29 29 29s29-12.983 29-29H7zm0-10.859l7 7M29.043 7.846a4.953 4.953 0 001.42 3.084 5 5 0 010 7.07 5 5 0 000 7.07 5 5 0 010 0 5 5 0 010-7.07 5 5 0 000-7.07 4.953 4.953 0 01-1.42-3.084m5.527-.81c-.1 1.398.362 2.826 1.43 3.894A5 5 0 0136 18a5 5 0 000 7.07 5 5 0 010 0A5 5 0 0136 18a5 5 0 000-7.07c-1.068-1.068-1.53-2.496-1.43-3.894m5.44.247a4.969 4.969 0 001.454 3.647 5 5 0 010 7.07 5 5 0 000 7.07 5 5 0 010 0 5 5 0 010-7.07 5 5 0 000-7.07 4.969 4.969 0 01-1.453-3.647" fill="none" stroke="#000" stroke-linecap="round" stroke-linejoin="round" stroke-miterlimit="10" stroke-width="2"/></svg>