<svg viewBox="0 0 72 72" xmlns="http://www.w3.org/2000/svg"><path fill="#b3b3b3" d="M68 4v64H4V4h64m4-4H0v72h72V0z"/><path fill="none" stroke="#00a5ff" stroke-miterlimit="10" stroke-width=".1" d="M12.923 10.958h46.154A1.923 1.923 0 0161 12.881v46.154a1.923 1.923 0 01-1.923 1.923H12.923A1.923 1.923 0 0111 59.035V12.881a1.923 1.923 0 011.923-1.923z"/><rect x="16" y="4" rx="2.254" width="40" height="64" fill="none" stroke="#00a5ff" stroke-miterlimit="10" stroke-width=".1"/><rect x="16" y="4" rx="2.254" width="40" height="64" transform="rotate(90 36 36)" fill="none" stroke="#00a5ff" stroke-miterlimit="10" stroke-width=".1"/><circle cx="36" cy="36" r="29" fill="none" stroke="#00a5ff" stroke-miterlimit="10" stroke-width=".1"/><path d="M56.237 30.064c-.237-.516-3.762-8.689-6.496-13.069C46 11 42.148 8 36 8c-6.147 0-10 3-13.74 8.995-2.735 4.381-6.26 12.553-6.497 13.069A22.895 22.895 0 0013 41c0 12.702 10.297 23 23 23s23-10.298 23-23c0-3.959-1.001-7.684-2.763-10.936z" stroke-linecap="round" stroke-miterlimit="10" stroke-width="6" stroke="#fff" fill="none" stroke-linejoin="round"/><path fill="#FFF" d="M56.237 30.064c-.237-.516-3.762-8.689-6.496-13.069C46 11 42.148 8 36 8c-6.147 0-10 3-13.74 8.995-2.735 4.381-6.26 12.553-6.497 13.069A22.895 22.895 0 0013 41c0 12.702 10.297 23 23 23s23-10.298 23-23c0-3.959-1.001-7.684-2.763-10.936z"/><path fill="#d0cfce" d="M56.237 30.064c-.237-.516-6.262-12.65-6.496-13.069-2.074-3.162-3.491-4.996-6.647-7.202 1.786 6.027 3.92 13.249 4.06 13.748 1.758 5.48 2.762 11.728 2.762 18.358 0 7.08-1.137 13.705-3.114 19.408C54.059 57.438 59 49.797 59 41c0-3.959-1.001-7.684-2.763-10.936z"/><path fill="none" stroke="#000" stroke-linecap="round" stroke-linejoin="round" stroke-miterlimit="10" stroke-width="2" d="M56.237 30.064c-.237-.516-3.762-8.689-6.496-13.069C46 11 42.148 8 36 8c-6.147 0-10 3-13.74 8.995-2.735 4.381-6.26 12.553-6.497 13.069A22.895 22.895 0 0013 41c0 12.702 10.297 23 23 23s23-10.298 23-23c0-3.959-1.001-7.684-2.763-10.936z"/></svg>