<svg viewBox="0 0 72 72" xmlns="http://www.w3.org/2000/svg"><path fill="#b3b3b3" d="M68 4v64H4V4h64m4-4H0v72h72V0z"/><path fill="none" stroke="#00a5ff" stroke-miterlimit="10" stroke-width=".1" d="M12.923 10.958h46.154A1.923 1.923 0 0161 12.881v46.154a1.923 1.923 0 01-1.923 1.923H12.923A1.923 1.923 0 0111 59.035V12.881a1.923 1.923 0 011.923-1.923z"/><rect x="16" y="4" rx="2.254" width="40" height="64" fill="none" stroke="#00a5ff" stroke-miterlimit="10" stroke-width=".1"/><rect x="16" y="4" rx="2.254" width="40" height="64" transform="rotate(90 36 36)" fill="none" stroke="#00a5ff" stroke-miterlimit="10" stroke-width=".1"/><circle cx="36" cy="36" r="29" fill="none" stroke="#00a5ff" stroke-miterlimit="10" stroke-width=".1"/><g stroke-linecap="round" stroke-miterlimit="10" stroke-width="6" stroke="#fff" fill="none" stroke-linejoin="round"><path d="M18.313 38.465q-.143.112-.28.23a3.047 3.047 0 00-1.076 3.464q.041.14.093.284c1.486 4.16 5.365 6.76 9.364 8.2a27.976 27.976 0 009.455 1.577 25.53 25.53 0 0013.441-3.484 12.557 12.557 0 005.37-6.249 3.087 3.087 0 00-.597-3.421"/><ellipse cx="35.865" cy="26.68" rx="7.719" ry="1.544"/><path d="M54.777 32.06q-.041-.14-.093-.283c-1.486-4.16-5.365-6.76-9.364-8.2A27.975 27.975 0 0035.865 22a25.53 25.53 0 00-13.44 3.484 12.557 12.557 0 00-5.371 6.249 3.22 3.22 0 001.239 4.008 14.09 14.09 0 004.43 2.138 43.306 43.306 0 0013.142 1.77 41.128 41.128 0 0014.06-2.084 11.979 11.979 0 003.776-2.04 3.047 3.047 0 001.076-3.464z"/><circle cx="27.008" cy="31.805" r=".571"/><circle cx="32.722" cy="31.805" r=".571"/><circle cx="24.722" cy="28.376" r=".571"/><circle cx="31.579" cy="35.233" r=".571"/><circle cx="21.293" cy="31.805" r=".571"/><circle cx="38.436" cy="34.091" r=".571"/><circle cx="38.436" cy="30.662" r=".571"/><circle cx="41.865" cy="36.376" r=".571"/><circle cx="44.151" cy="30.662" r=".571"/><circle cx="46.437" cy="32.948" r=".571"/><circle cx="47.58" cy="27.233" r=".571"/><circle cx="49.865" cy="30.662" r=".571"/><path d="M22.048 42.932a4.308 4.308 0 005.292-.573 2.678 2.678 0 001.739 1.968 2.97 2.97 0 002.26-.345 4.279 4.279 0 003.941 3.09 4.184 4.184 0 004.268-3.119 2.42 2.42 0 002.475.787 2.665 2.665 0 001.782-1.4 4.294 4.294 0 004.984.71"/><circle cx="26.579" cy="35.233" r=".571"/></g><path fill="#6a462f" d="M53.634 32.06q-.041-.14-.093-.283c-1.486-4.16-5.365-6.76-9.364-8.2A27.975 27.975 0 0034.722 22c-.626 0-1.256.022-1.887.06a27.384 27.384 0 017.914 1.517c3.999 1.44 7.878 4.04 9.364 8.2q.051.144.092.284a3.047 3.047 0 01-1.076 3.463 11.978 11.978 0 01-3.776 2.04 38.861 38.861 0 01-12.324 2.062q.848.022 1.693.022a41.128 41.128 0 0014.06-2.083 11.977 11.977 0 003.776-2.04 3.047 3.047 0 001.076-3.464z"/><path fill="#a57939" d="M16.958 41.755q.041.161.093.327c1.49 4.8 5.378 7.8 9.387 9.462a24.745 24.745 0 009.479 1.819 23.039 23.039 0 0013.474-4.02 13.96 13.96 0 005.252-6.822 6.093 6.093 0 00.324-2.578 3.797 3.797 0 00-1.434-2.435 13.437 13.437 0 00-4.441-2.467A38.118 38.118 0 0035.917 33a36.283 36.283 0 00-14.095 2.404 15.078 15.078 0 00-2.36 1.213 8.706 8.706 0 00-1.425 1.142 3.834 3.834 0 00-1.08 3.996z"/><path fill="#b1cc33" d="M16.358 34.406a2.979 2.979 0 00.62 2.852 2.57 2.57 0 002.244.867 5.044 5.044 0 001.985 5.246 4.33 4.33 0 005.584-.662 2.945 2.945 0 001.829 2.216 2.965 2.965 0 002.385-.396 4.553 4.553 0 004.149 3.477 4.488 4.488 0 004.51-3.533 2.446 2.446 0 002.609.881 2.872 2.872 0 001.884-1.585 4.298 4.298 0 005.255.788 5.127 5.127 0 002.307-5.471c.898.327 1.523-.335 2.281-1.086.663-.657-.943-3.12-1-4"/><path fill="#a57939" d="M54.777 32.06q-.041-.14-.093-.283c-1.486-4.16-5.365-6.76-9.364-8.2A27.975 27.975 0 0035.865 22a25.53 25.53 0 00-13.44 3.484 12.557 12.557 0 00-5.371 6.249 3.22 3.22 0 001.239 4.008 14.09 14.09 0 004.43 2.138 43.306 43.306 0 0013.142 1.77 41.128 41.128 0 0014.06-2.084 11.979 11.979 0 003.776-2.04 3.047 3.047 0 001.076-3.464z"/><ellipse cx="35.865" cy="26.68" rx="7.719" ry="1.544" fill="#6a462f"/><g><path fill="none" stroke="#000" stroke-linecap="round" stroke-linejoin="round" stroke-width="2" d="M18.313 38.465q-.143.112-.28.23a3.047 3.047 0 00-1.076 3.464q.041.14.093.284c1.486 4.16 5.365 6.76 9.364 8.2a27.976 27.976 0 009.455 1.577 25.53 25.53 0 0013.441-3.484 12.557 12.557 0 005.37-6.249 3.087 3.087 0 00-.597-3.421"/><ellipse cx="35.865" cy="26.68" rx="7.719" ry="1.544" fill="none" stroke="#000" stroke-miterlimit="10" stroke-width="2"/><path fill="none" stroke="#000" stroke-miterlimit="10" stroke-width="2" d="M54.777 32.06q-.041-.14-.093-.283c-1.486-4.16-5.365-6.76-9.364-8.2A27.975 27.975 0 0035.865 22a25.53 25.53 0 00-13.44 3.484 12.557 12.557 0 00-5.371 6.249 3.22 3.22 0 001.239 4.008 14.09 14.09 0 004.43 2.138 43.306 43.306 0 0013.142 1.77 41.128 41.128 0 0014.06-2.084 11.979 11.979 0 003.776-2.04 3.047 3.047 0 001.076-3.464z"/><circle cx="27.008" cy="31.805" r=".571"/><circle cx="32.722" cy="31.805" r=".571"/><circle cx="24.722" cy="28.376" r=".571"/><circle cx="31.579" cy="35.233" r=".571"/><circle cx="21.293" cy="31.805" r=".571"/><circle cx="38.436" cy="34.091" r=".571"/><circle cx="38.436" cy="30.662" r=".571"/><circle cx="41.865" cy="36.376" r=".571"/><circle cx="44.151" cy="30.662" r=".571"/><circle cx="46.437" cy="32.948" r=".571"/><circle cx="47.58" cy="27.233" r=".571"/><circle cx="49.865" cy="30.662" r=".571"/><path fill="none" stroke="#000" stroke-linecap="round" stroke-linejoin="round" stroke-width="2" d="M22.048 42.932a4.308 4.308 0 005.292-.573 2.678 2.678 0 001.739 1.968 2.97 2.97 0 002.26-.345 4.279 4.279 0 003.941 3.09 4.184 4.184 0 004.268-3.119 2.42 2.42 0 002.475.787 2.665 2.665 0 001.782-1.4 4.294 4.294 0 004.984.71"/><circle cx="26.579" cy="35.233" r=".571"/></g></svg>