<svg viewBox="0 0 72 72" xmlns="http://www.w3.org/2000/svg"><path fill="#b3b3b3" d="M68 4v64H4V4h64m4-4H0v72h72V0z"/><path fill="none" stroke="#00a5ff" stroke-miterlimit="10" stroke-width=".1" d="M12.923 10.958h46.154A1.923 1.923 0 0161 12.881v46.154a1.923 1.923 0 01-1.923 1.923H12.923A1.923 1.923 0 0111 59.035V12.881a1.923 1.923 0 011.923-1.923z"/><rect x="16" y="4" rx="2.254" width="40" height="64" fill="none" stroke="#00a5ff" stroke-miterlimit="10" stroke-width=".1"/><rect x="16" y="4" rx="2.254" width="40" height="64" transform="rotate(90 36 36)" fill="none" stroke="#00a5ff" stroke-miterlimit="10" stroke-width=".1"/><circle cx="36" cy="36" r="29" fill="none" stroke="#00a5ff" stroke-miterlimit="10" stroke-width=".1"/><g stroke-linecap="round" stroke-miterlimit="10" stroke-width="6" stroke="#fff" fill="none" stroke-linejoin="round"><path d="M40.67 31.49a6.311 6.311 0 013.368 5.39c0 3.65-3.592 6.595-8.019 6.595S28 40.531 28 36.88a6.316 6.316 0 013.24-5.3"/><path d="M39.387 30.46a2.38 2.38 0 01-.77 1.237 4.614 4.614 0 01-5.485 0 2.63 2.63 0 01-.77-1.237 3.529 3.529 0 01-.128-1.237 3.955 3.955 0 011.54.177 3.103 3.103 0 01.833.412 3.406 3.406 0 011.155-1.855l.096-.088.097.088a3.233 3.233 0 011.154 1.855 4.436 4.436 0 01.834-.412 3.98 3.98 0 011.54-.177 2.524 2.524 0 01-.096 1.237zM23 5h26M19 21h34M19 49h34"/><path d="M19.895 5H19v55h34V5h-.895"/></g><path fill="#d0cfce" d="M19 49h34v11H19z"/><path fill="#fff" d="M19 21h34v28H19z"/><path fill="#d0cfce" d="M19 4h34v16.795H19z"/><ellipse cx="36" cy="36.651" rx="8" ry="6.349" fill="#ea5a47"/><ellipse cx="36" cy="30.623" rx="3" ry="1.836" fill="#5c9e31"/><path fill="#9b9b9a" d="M47 4h6.5v17H47zm0 45h6v11h-6z"/><path fill="#d0cfce" d="M47 21h6v28h-6z"/><g fill="none" stroke="#000" stroke-linejoin="round" stroke-width="2"><path stroke-linecap="round" d="M40.67 31.49a6.311 6.311 0 013.368 5.39c0 3.65-3.592 6.595-8.019 6.595S28 40.531 28 36.88a6.316 6.316 0 013.24-5.3"/><path d="M39.387 30.46a2.38 2.38 0 01-.77 1.237 4.614 4.614 0 01-5.485 0 2.63 2.63 0 01-.77-1.237 3.529 3.529 0 01-.128-1.237 3.955 3.955 0 011.54.177 3.103 3.103 0 01.833.412 3.406 3.406 0 011.155-1.855l.096-.088.097.088a3.233 3.233 0 011.154 1.855 4.436 4.436 0 01.834-.412 3.98 3.98 0 011.54-.177 2.524 2.524 0 01-.096 1.237z"/><path stroke-linecap="round" d="M23 5h26M19 21h34M19 49h34M19.895 5H19v55h34V5h-.895"/></g></svg>