<svg viewBox="0 0 72 72" xmlns="http://www.w3.org/2000/svg"><path fill="#b3b3b3" d="M68 4v64H4V4h64m4-4H0v72h72V0z"/><path fill="none" stroke="#00a5ff" stroke-miterlimit="10" stroke-width=".1" d="M12.923 10.958h46.154A1.923 1.923 0 0161 12.881v46.154a1.923 1.923 0 01-1.923 1.923H12.923A1.923 1.923 0 0111 59.035V12.881a1.923 1.923 0 011.923-1.923z"/><rect x="16" y="4" rx="2.254" width="40" height="64" fill="none" stroke="#00a5ff" stroke-miterlimit="10" stroke-width=".1"/><rect x="16" y="4" rx="2.254" width="40" height="64" transform="rotate(90 36 36)" fill="none" stroke="#00a5ff" stroke-miterlimit="10" stroke-width=".1"/><circle cx="36" cy="36" r="29" fill="none" stroke="#00a5ff" stroke-miterlimit="10" stroke-width=".1"/><g stroke-linecap="round" stroke-miterlimit="10" stroke-width="6" stroke="#fff" fill="none" stroke-linejoin="round"><path d="M19 33a3.416 3.416 0 00-3.314 2.983l-1.372 13.034A2.65 2.65 0 0017 52h38a2.65 2.65 0 002.686-2.983l-1.372-13.034A3.416 3.416 0 0053 33zm-7.62 19H36"/><path d="M36 56H15a2.44 2.44 0 01-1.82-.583l-.239-.238-3.934-8.009-4.127-.019M60.62 52H36m0 4h21a2.44 2.44 0 001.82-.583l.239-.238 3.934-8.009 4.127-.019"/></g><path fill="#fcea2b" d="M19 33a3.416 3.416 0 00-3.314 2.983l-1.372 13.034A2.65 2.65 0 0017 52h38a2.65 2.65 0 002.686-2.983l-1.372-13.034A3.416 3.416 0 0053 33z"/><path fill="#fff" d="M12.251 52h47.938L58 56H13.616l-1.365-4"/><g fill="none" stroke="#000" stroke-linecap="round" stroke-linejoin="round" stroke-width="2"><path d="M19 33a3.416 3.416 0 00-3.314 2.983l-1.372 13.034A2.65 2.65 0 0017 52h38a2.65 2.65 0 002.686-2.983l-1.372-13.034A3.416 3.416 0 0053 33zm-7.62 19H36"/><path d="M36 56H15a2.44 2.44 0 01-1.82-.583l-.239-.238-3.934-8.009-4.127-.019M60.62 52H36m0 4h21a2.44 2.44 0 001.82-.583l.239-.238 3.934-8.009 4.127-.019"/></g></svg>