<svg viewBox="0 0 72 72" xmlns="http://www.w3.org/2000/svg"><path fill="#b3b3b3" d="M68 4v64H4V4h64m4-4H0v72h72V0z"/><path fill="none" stroke="#00a5ff" stroke-miterlimit="10" stroke-width=".1" d="M12.923 10.958h46.154A1.923 1.923 0 0161 12.881v46.154a1.923 1.923 0 01-1.923 1.923H12.923A1.923 1.923 0 0111 59.035V12.881a1.923 1.923 0 011.923-1.923z"/><rect x="16" y="4" rx="2.254" width="40" height="64" fill="none" stroke="#00a5ff" stroke-miterlimit="10" stroke-width=".1"/><rect x="16" y="4" rx="2.254" width="40" height="64" transform="rotate(90 36 36)" fill="none" stroke="#00a5ff" stroke-miterlimit="10" stroke-width=".1"/><circle cx="36" cy="36" r="29" fill="none" stroke="#00a5ff" stroke-miterlimit="10" stroke-width=".1"/><g stroke-linecap="round" stroke-miterlimit="10" stroke-width="6" stroke="#fff" fill="none" stroke-linejoin="round"><path d="M62.625 40.98v27.066h-50V40.98m50-5.022h-50V3.891h50zm-45 5.57h40m-40 5.569h40m-40 5.569h40"/><path d="M30.717 56.186h13.506v8.104H30.717zm31.908-20.228h-50V3.891h50z"/></g><path fill="#9B9B9A" d="M63.738 40.98v27.066H11.812V35.96h51.926zm-1.113-5.022h-50V3.891h50z"/><path fill="#FFF" d="M62.625 36l-50-22.221V3.892l50 22.22z"/><g fill="none" stroke="#000" stroke-linecap="round" stroke-linejoin="round" stroke-miterlimit="10" stroke-width="2"><path d="M62.625 40.98v27.066h-50V40.98m50-5.022h-50V3.891h50zm-45 5.57h40m-40 5.569h40m-40 5.569h40"/><path d="M30.717 56.186h13.506v8.104H30.717zm31.908-20.228h-50V3.891h50z"/></g></svg>