<svg viewBox="0 0 72 72" xmlns="http://www.w3.org/2000/svg"><path fill="#b3b3b3" d="M68 4v64H4V4h64m4-4H0v72h72V0z"/><path fill="none" stroke="#00a5ff" stroke-miterlimit="10" stroke-width=".1" d="M12.923 10.958h46.154A1.923 1.923 0 0161 12.881v46.154a1.923 1.923 0 01-1.923 1.923H12.923A1.923 1.923 0 0111 59.035V12.881a1.923 1.923 0 011.923-1.923z"/><rect x="16" y="4" rx="2.254" width="40" height="64" fill="none" stroke="#00a5ff" stroke-miterlimit="10" stroke-width=".1"/><rect x="16" y="4" rx="2.254" width="40" height="64" transform="rotate(90 36 36)" fill="none" stroke="#00a5ff" stroke-miterlimit="10" stroke-width=".1"/><circle cx="36" cy="36" r="29" fill="none" stroke="#00a5ff" stroke-miterlimit="10" stroke-width=".1"/><g stroke-linecap="round" stroke-miterlimit="10" stroke-width="6" stroke="#fff" fill="none" stroke-linejoin="round"><path d="M16.5 12.503v-7.51h40v7.882m-4.914 37.712V68H21.414V50.587m39.731-30.252v31.95"/><path d="M46.783 44.453v19.303H26.217V44.453m3.311 3.925h13.944m-13.944 4.827h13.944m-13.944 5.299h13.944M11.5 20.335v31.95"/><path d="M16.5 52.285V49.15a4.716 4.716 0 014.716-4.717h30.568A4.716 4.716 0 0156.5 49.15v3.135"/><path d="M56.5 56h12V15.929h-64V56h12"/></g><path fill="#9B9B9A" d="M56.5 57.039h12v-41.11h-64v41.11h12z"/><path fill="#9B9B9A" d="M16.5 56h-12V15.929h64V56h-12"/><path fill="#D0CFCE" d="M5.393 15.929h7.141V56H5.393zm54.743 0h7.918V56h-7.918zM15.5 15.412V4.992h42V15.93"/><path fill="#D0CFCE" d="M16.5 12.503v-7.51h40v7.882"/><path fill="#3F3F3F" d="M52.54 44.433V68H20.46V44.433"/><path fill="#3F3F3F" d="M51.586 50.587V68H21.414V50.587"/><path fill="#FFF" d="M61.145 20.335v31.95m-14.362-7.832v19.303H26.217V44.453M11.5 20.335v31.95"/><g fill="none" stroke="#000" stroke-linecap="round" stroke-linejoin="round" stroke-miterlimit="10" stroke-width="2"><path d="M16.5 12.503v-7.51h40v7.882m-4.914 37.712V68H21.414V50.587m39.731-30.252v31.95"/><path d="M46.783 44.453v19.303H26.217V44.453m3.311 3.925h13.944m-13.944 4.827h13.944m-13.944 5.299h13.944M11.5 20.335v31.95"/><path d="M16.5 52.285V49.15a4.716 4.716 0 014.716-4.717h30.568A4.716 4.716 0 0156.5 49.15v3.135"/><path d="M56.5 56h12V15.929h-64V56h12"/></g></svg>