<svg viewBox="0 0 72 72" xmlns="http://www.w3.org/2000/svg"><path fill="#b3b3b3" d="M68 4v64H4V4h64m4-4H0v72h72V0z"/><path fill="none" stroke="#00a5ff" stroke-miterlimit="10" stroke-width=".1" d="M12.923 10.958h46.154A1.923 1.923 0 0161 12.881v46.154a1.923 1.923 0 01-1.923 1.923H12.923A1.923 1.923 0 0111 59.035V12.881a1.923 1.923 0 011.923-1.923z"/><rect x="16" y="4" rx="2.254" width="40" height="64" fill="none" stroke="#00a5ff" stroke-miterlimit="10" stroke-width=".1"/><rect x="16" y="4" rx="2.254" width="40" height="64" transform="rotate(90 36 36)" fill="none" stroke="#00a5ff" stroke-miterlimit="10" stroke-width=".1"/><circle cx="36" cy="36" r="29" fill="none" stroke="#00a5ff" stroke-miterlimit="10" stroke-width=".1"/><path d="M5 18.5h62v35H5zm3.972 21h7.498M9 46.5h3m10.93 0h26.14M16 46.5h3m34 0h3m4 0h3m-54-21h3m8.5 14h3m4 0h3m4 0h3m4 0h3m4 0h3m4 0H63m-46.71-14h3m4.28 0h3m4.29 0h3m4.28 0h3m4.29 0h3m4.28 0h3m4.29 0h3m-47.5 7h3m3.99 0h3m4.01 0h3m4 0h3m4 0h3m4 0h3m3.58 0h5.921m-54.029 0h3" stroke-linecap="round" stroke-miterlimit="10" stroke-width="6" stroke="#fff" fill="none" stroke-linejoin="round"/><path fill="#d0cfce" d="M5 18.498h62v35.82H5z"/><path d="M5 18.5h62v35H5zm3.972 21h7.498M9 46.5h3m10.93 0h26.14M16 46.5h3m34 0h3m4 0h3m-54-21h3m8.5 14h3m4 0h3m4 0h3m4 0h3m4 0h3m4 0H63m-46.71-14h3m4.28 0h3m4.29 0h3m4.28 0h3m4.29 0h3m4.28 0h3m4.29 0h3m-47.5 7h3m3.99 0h3m4.01 0h3m4 0h3m4 0h3m4 0h3m3.58 0h5.921m-54.029 0h3" fill="none" stroke="#000" stroke-linecap="round" stroke-linejoin="round" stroke-miterlimit="10" stroke-width="2"/></svg>