<svg viewBox="0 0 72 72" xmlns="http://www.w3.org/2000/svg"><path fill="#b3b3b3" d="M68 4v64H4V4h64m4-4H0v72h72V0z"/><path fill="none" stroke="#00a5ff" stroke-miterlimit="10" stroke-width=".1" d="M12.923 10.958h46.154A1.923 1.923 0 0161 12.881v46.154a1.923 1.923 0 01-1.923 1.923H12.923A1.923 1.923 0 0111 59.035V12.881a1.923 1.923 0 011.923-1.923z"/><rect x="16" y="4" rx="2.254" ry="2.254" width="40" height="64" fill="none" stroke="#00a5ff" stroke-miterlimit="10" stroke-width=".1"/><rect x="16" y="4" rx="2.254" ry="2.254" width="40" height="64" transform="rotate(90 36 36)" fill="none" stroke="#00a5ff" stroke-miterlimit="10" stroke-width=".1"/><circle cx="36" cy="36" r="29" fill="none" stroke="#00a5ff" stroke-miterlimit="10" stroke-width=".1"/><g stroke-linecap="round" stroke-miterlimit="10" stroke-width="6" stroke="#fff" fill="none" stroke-linejoin="round"><path d="M24.761 27.38a17.585 17.585 0 00-.114 2.012c0 7.83 5.08 14.18 11.34 14.18s11.34-6.35 11.34-14.18a17.864 17.864 0 00-.113-2.012"/><path d="M40.098 26.253a2 2 0 11-2 2 2 2 0 012-2zm-.11 9.81a.994.994 0 01-.439 1.334l-.01.006a7.33 7.33 0 01-6.89 0 1.01 1.01 0 01-.45-1.34.994.994 0 011.329-.456l.01.006a5.383 5.383 0 005.11 0 .994.994 0 011.335.439zm-7.89-9.81a2 2 0 11-2 2 2.026 2.026 0 01.45-1.27 2 2 0 011.55-.73z"/><path d="M40.098 26.253a2 2 0 11-2 2 2 2 0 012-2zm-8 0a2 2 0 11-2 2 2.026 2.026 0 01.45-1.27 2 2 0 011.55-.73zm12.81 19.859c12 0 10 13 10 13m-13.44-10.93a35.344 35.344 0 003.33-2m-27.76 12.93s-2-13 10-13c3.14 2.09 5.84 3.55 8.87 3.59h.13a12.204 12.204 0 005.42-1.51m-16.61-20.419c.33-.22 1.59-1.07 3.17-2.35a39.458 39.458 0 004.08-3.79 18.721 18.721 0 004.07-6.24 9.084 9.084 0 00.47-1.95 6.892 6.892 0 00-.53-3.75c0-.01-.01-.02-.01-.03a13.1 13.1 0 00-3.84.54c-15.84 4.84-7.5 17.63-7.5 17.63l.09-.06m-1.44-3.811a40.622 40.622 0 009.66-10.11m14.34 13.91a46.098 46.098 0 01-6.98-6.13 21.354 21.354 0 01-4.13-6.19"/><path d="M36.168 9.662a13.215 13.215 0 013.85.54c10.25 3.13 10.37 9.6 9.18 13.76a15.584 15.584 0 01-1.69 3.87l-.1-.07m1.45-3.8a49.714 49.714 0 01-9.3-10.11m-7.46 7.781s4.59 3.57 8.33 0h.01m4.47 24.479a.921.921 0 00-.11.07c-.37.21-1.64.96-3.33 2a.01.01 0 01-.01.01c-5.09 3.14-14.05 8.95-14.05 10.92"/></g><path fill="#d0cfce" d="M40.951 10.512s5.481 8.946 1.145 12.828l5.415 4.493s8.312-12.222-6.56-17.321z"/><path fill="#b1cc33" d="M54.864 60.107s2-13.797-10-13.797c-3.192 2.12-5.926 3.584-9 3.578h.125c-3.073.006-5.808-1.459-9-3.578-12 0-10 13.797-10 13.797"/><path fill="#5c9e31" d="M45.257 45.163c-3.112 2.075-4.983 3.24-8.972 3.819 12.826.404 12.826 7.179 13.575 11.107h5.02s2.16-14.926-9.623-14.926z"/><g><path fill="#fcea2b" d="M47.02 26.765a17.639 17.639 0 01.32 3.36c0 7.83-5.08 14.18-11.34 14.18s-11.34-6.35-11.34-14.18A8.868 8.868 0 0125 27l.74-.995C28.14 23.993 34.298 20.967 36 23c2.812-2.027 8.726 1.602 10.18 3.005L47 27c.08.32-.04-.565.02-.235zM41 29c0-1.1.11-2.235-1-2.235-1.1 0-1 1.135-1 2.235 0 1.11-.1 1 1 1 1.11 0 1 .11 1-1zm-2 8c.49-.25 1.14.065.9-.425a.994.994 0 00-1.33-.455l-.01.005a5.383 5.383 0 01-5.11 0 .988.988 0 00-1.33.429l-.01.021c-.25.49 1.39.175 1.89.425 1.14.57.85 1 2 1a6.221 6.221 0 003-1zm-6-8c0-1.1.11-2.235-1-2.235-1.1 0-1 1.135-1 2.235 0 1.11-.1 1 1 1 1.11 0 1 .11 1-1z"/></g><g><path fill="none" stroke="#000" stroke-miterlimit="10" stroke-width="2" d="M24.761 27.38a17.585 17.585 0 00-.114 2.012c0 7.83 5.08 14.18 11.34 14.18s11.34-6.35 11.34-14.18a17.864 17.864 0 00-.113-2.012"/><path d="M40.098 26.253a2 2 0 11-2 2 2 2 0 012-2zm-.11 9.81a.994.994 0 01-.439 1.334l-.01.006a7.33 7.33 0 01-6.89 0 1.01 1.01 0 01-.45-1.34.994.994 0 011.329-.456l.01.006a5.383 5.383 0 005.11 0 .994.994 0 011.335.439zm-7.89-9.81a2 2 0 11-2 2 2.026 2.026 0 01.45-1.27 2 2 0 011.55-.73z"/><path d="M40.098 26.253a2 2 0 11-2 2 2 2 0 012-2zm-8 0a2 2 0 11-2 2 2.026 2.026 0 01.45-1.27 2 2 0 011.55-.73z"/><path fill="none" stroke="#000" stroke-linecap="round" stroke-linejoin="round" stroke-width="2" d="M44.908 46.112c12 0 10 13 10 13m-13.44-10.93a35.344 35.344 0 003.33-2m-27.76 12.93s-2-13 10-13c3.14 2.09 5.84 3.55 8.87 3.59h.13a12.204 12.204 0 005.42-1.51m-16.61-20.419c.33-.22 1.59-1.07 3.17-2.35a39.458 39.458 0 004.08-3.79 18.721 18.721 0 004.07-6.24 9.084 9.084 0 00.47-1.95 6.892 6.892 0 00-.53-3.75c0-.01-.01-.02-.01-.03a13.1 13.1 0 00-3.84.54c-15.84 4.84-7.5 17.63-7.5 17.63l.09-.06m-1.44-3.811a40.622 40.622 0 009.66-10.11m14.34 13.91a46.098 46.098 0 01-6.98-6.13 21.354 21.354 0 01-4.13-6.19"/><path fill="none" stroke="#000" stroke-linecap="round" stroke-linejoin="round" stroke-width="2" d="M36.168 9.662a13.215 13.215 0 013.85.54c10.25 3.13 10.37 9.6 9.18 13.76a15.584 15.584 0 01-1.69 3.87l-.1-.07m1.45-3.8a49.714 49.714 0 01-9.3-10.11m-7.46 7.781s4.59 3.57 8.33 0h.01m4.47 24.479a.921.921 0 00-.11.07c-.37.21-1.64.96-3.33 2a.01.01 0 01-.01.01c-5.09 3.14-14.05 8.95-14.05 10.92"/></g></svg>