<svg viewBox="0 0 72 72" xmlns="http://www.w3.org/2000/svg"><path fill="#b3b3b3" d="M68 4v64H4V4h64m4-4H0v72h72V0z"/><rect x="11" y="10.958" rx="1.923" ry="1.923" width="50" height="50" fill="none" stroke="#00a5ff" stroke-miterlimit="10" stroke-width=".1"/><rect x="16" y="4" rx="2.254" ry="2.254" width="40" height="64" fill="none" stroke="#00a5ff" stroke-miterlimit="10" stroke-width=".1"/><rect x="16" y="4" rx="2.254" ry="2.254" width="40" height="64" transform="rotate(90 36 36)" fill="none" stroke="#00a5ff" stroke-miterlimit="10" stroke-width=".1"/><circle cx="36" cy="36" r="29" fill="none" stroke="#00a5ff" stroke-miterlimit="10" stroke-width=".1"/><g stroke-linecap="round" stroke-miterlimit="10" stroke-width="6" stroke="#fff" fill="none" stroke-linejoin="round"><path d="M41.873 30a2 2 0 11-2-2 2 2 0 012 2m-8 0a2 2 0 11-2-2 2 2 0 012 2m-1 8.25a8.274 8.274 0 006 0"/><path d="M26 38c-3 0-4-7-4-14 0-6 5-12 14-12s14 6 14 12c0 7-1 14-4 14"/><path d="M41.873 30a2 2 0 11-2-2 2 2 0 012 2m-8 0a2 2 0 11-2-2 2 2 0 012 2"/><path d="M24.936 31c-.101 7.999 4.937 14 11 14C41.873 45 47 39 47 31c0-5-3-11-3-11-8 0-10 3-16 1 0 0-3 5-3.064 10zm7.937 7.25a8.274 8.274 0 006 0m-5.18 12.162S32.486 56.433 36 56.433s2.307-6.021 2.307-6.021"/><path d="M35.15 56.433l-2.415 3.638c-3.63-1.754-5.672-12.962-5.672-12.962l-5.105 6.935 2.974 1.842-.998 3.113 8.869 1.072m4.047-3.638l2.415 3.638c3.63-1.754 5.672-12.962 5.672-12.962l5.105 6.935-2.974 1.842.998 3.113-8.869 1.072"/><path d="M17.063 60.109s-2-13 10-13c3.191 2.128 5.926 3.598 9 3.592h-.126c3.074.006 5.809-1.464 9-3.592 12 0 10 13 10 13"/></g><path fill="#f4aa41" d="M26 38c-3 0-4-7-4-14 0-6 5-12 14-12s14 6 14 12c0 7-1 14-4 14"/><path fill="#fcea2b" d="M24.842 30.5c-.101 7.999 4.064 14 11 14 7.064 0 11.064-6 11.064-14 0-5-3-10-3-10-8 0-10 3-16 1a17.077 17.077 0 00-3.064 9z"/><path fill="#fff" d="M54.938 60.906s2-13.797-10-13.797c-3.192 2.12-5.927 3.584-9 3.578h.124c-3.073.006-5.808-1.459-9-3.578-12 0-10 13.797-10 13.797"/><path d="M27.063 47.109c-12 0-10 13.967-10 13.967h15.893s-4.422-3.264-5.894-13.967m17.876 0c12 0 10 13.967 10 13.967H39.19s5.422-7.443 5.748-13.967" fill="#3f3f3f"/><path d="M33.693 50.598S32.486 56.62 36 56.62s2.307-6.021 2.307-6.021"/><path fill="#3f3f3f" d="M35.15 56.802l-2.416 3.638c-3.63-1.754-5.672-12.962-5.672-12.962l-5.104 6.935 2.974 1.842-.999 3.113 8.87 1.072m4.047-3.638l2.416 3.638c3.63-1.754 5.672-12.962 5.672-12.962l5.104 6.935-2.974 1.842.999 3.113-8.87 1.072"/><path d="M36 55.569l-4.353 5.507h8.641L36 55.569z"/><g><path d="M41.873 30a2 2 0 11-2-2 2 2 0 012 2m-8 0a2 2 0 11-2-2 2 2 0 012 2"/><path fill="none" stroke="#000" stroke-linecap="round" stroke-linejoin="round" stroke-width="2" d="M32.873 38.25a8.274 8.274 0 006 0M26 38c-3 0-4-7-4-14 0-6 5-12 14-12s14 6 14 12c0 7-1 14-4 14"/><path d="M41.873 30a2 2 0 11-2-2 2 2 0 012 2m-8 0a2 2 0 11-2-2 2 2 0 012 2"/><path fill="none" stroke="#000" stroke-linejoin="round" stroke-width="2" d="M24.936 31c-.101 7.999 4.937 14 11 14C41.873 45 47 39 47 31c0-5-3-11-3-11-8 0-10 3-16 1 0 0-3 5-3.064 10z"/><path fill="none" stroke="#000" stroke-linecap="round" stroke-linejoin="round" stroke-width="2" d="M32.873 38.25a8.274 8.274 0 006 0m-5.18 12.162S32.486 56.433 36 56.433s2.307-6.021 2.307-6.021"/><path fill="none" stroke="#000" stroke-linecap="round" stroke-linejoin="round" stroke-width="2" d="M35.15 56.433l-2.415 3.638c-3.63-1.754-5.672-12.962-5.672-12.962l-5.105 6.935 2.974 1.842-.998 3.113 8.869 1.072m4.047-3.638l2.415 3.638c3.63-1.754 5.672-12.962 5.672-12.962l5.105 6.935-2.974 1.842.998 3.113-8.869 1.072"/><path fill="none" stroke="#000" stroke-linecap="round" stroke-linejoin="round" stroke-width="2" d="M17.063 60.109s-2-13 10-13c3.191 2.128 5.926 3.598 9 3.592h-.126c3.074.006 5.809-1.464 9-3.592 12 0 10 13 10 13"/></g></svg>