<svg viewBox="0 0 72 72" xmlns="http://www.w3.org/2000/svg"><path fill="#B3B3B3" d="M68 4v64H4V4h64m4-4H0v72h72V0z"/><path fill="none" stroke="#00A5FF" stroke-miterlimit="10" stroke-width=".1" d="M12.923 10.958h46.154c1.062 0 1.923.861 1.923 1.923v46.154a1.923 1.923 0 01-1.923 1.923H12.923A1.923 1.923 0 0111 59.035h0V12.881c0-1.062.861-1.923 1.923-1.923h0z"/><path fill="none" stroke="#00A5FF" stroke-miterlimit="10" stroke-width=".1" d="M18.254 4h35.492A2.254 2.254 0 0156 6.254v59.492A2.254 2.254 0 0153.746 68H18.254A2.254 2.254 0 0116 65.746V6.254A2.254 2.254 0 0118.254 4z"/><path fill="none" stroke="#00A5FF" stroke-miterlimit="10" stroke-width=".1" d="M68 18.254v35.492A2.254 2.254 0 0165.746 56H6.254A2.254 2.254 0 014 53.746V18.254A2.254 2.254 0 016.254 16h59.492A2.254 2.254 0 0168 18.254z"/><circle cx="36" cy="36" r="29" fill="none" stroke="#00A5FF" stroke-miterlimit="10" stroke-width=".1"/><g stroke-linecap="round" stroke-miterlimit="10" stroke-width="6" stroke="#fff" fill="none" stroke-linejoin="round"><path d="M26.2 20.867c-1.034 2.137-1.628 4.642-1.628 7.321 0 7.828 5.076 14.173 11.338 14.173s11.34-6.345 11.34-14.173c0-2.679-.595-5.184-1.628-7.32m9.288 36.959a1 1 0 01-1-1v-3c0-4.451-4.496-7.81-8.651-7.992-6.205 5.012-12.492 5.012-18.697 0-4.155.182-8.652 3.54-8.652 7.992v3a1 1 0 01-2 0v-3c0-5.324 5.14-9.997 11-10h0a1 1 0 01.64.232c5.625 4.688 11.095 4.688 16.72 0a1 1 0 01.64-.232h0c5.86.003 11 4.676 11 10v3a1 1 0 01-1 1z"/><path d="M41.91 26.827a2 2 0 11-4.001-.001 2 2 0 014.002.001m-8.001 0a2 2 0 11-4.001-.001 2 2 0 014.002.001M35.91 36.83c-1.151 0-2.303-.286-3.447-.858a1 1 0 11.895-1.79c1.717.86 3.387.86 5.105 0a1 1 0 01.895 1.79c-1.144.572-2.296.858-3.448.858zm-9.348 9.005s3.665 10.858 20.167 5.097v5.875"/><circle cx="28.41" cy="55.827" r="1.5"/><circle cx="43.41" cy="55.827" r="1.5"/><path d="M26.192 20.867A16.314 16.314 0 0024.8 25.31l.064-.36s3.29.619 8.457-3.763m12.104-.32a16.314 16.314 0 011.394 4.443l-.064-.36s-3.29.619-8.457-3.763m-12.023-6.34v6.057"/><path d="M26.275 20.904h19.271v-6.057a4 4 0 000-8c-.876 0-1.679.29-2.338.766a3.956 3.956 0 00.526-1.946 4 4 0 00-4-4c-1.82 0-3.34 1.224-3.824 2.888-.484-1.664-2.003-2.887-3.823-2.887a4 4 0 00-4 4c0 .71.2 1.367.525 1.945a3.968 3.968 0 00-2.337-.766 4 4 0 100 8"/></g><path fill="#FFF" d="M26.275 20.904h19.271v-6.057a4 4 0 000-8c-.876 0-1.679.29-2.338.766a3.956 3.956 0 00.526-1.946 4 4 0 00-4-4c-1.82 0-3.34 1.224-3.824 2.888-.484-1.664-2.003-2.887-3.823-2.887a4 4 0 00-4 4c0 .71.2 1.367.525 1.945a3.968 3.968 0 00-2.337-.766 4 4 0 100 8M54.848 57.79s2-12.802-10-12.802c-3.192 2.128-5.926 3.599-9 3.592h.125c-3.074.007-5.808-1.464-9-3.592-12 0-10 12.802-10 12.802"/><path fill="#D0CFCE" d="M47.768 7.081c-.987-.674-4.059.378-4.059.378 1.498-3.758-1.934-5.637-1.934-5.637s.8 3.729-1.567 5.748c-.254.217-.433.506-.433.84v12.303h.636l.313.036h5.323v-6.056a4 4 0 001.72-7.612l-.017.397M44.254 45.14c-3.17 2.113-9.076 6.272-17.344 0 .385 5.535 9.673 10.639 19.312 5.894l.42 6.737h8.18s1.432-12.632-10.568-12.632z"/><path d="M45.425 20.867a16.314 16.314 0 011.394 4.443l-.064-.36s-3.29.619-8.457-3.763m-12.106-.32A16.314 16.314 0 0024.8 25.31l.064-.36s3.29.619 8.457-3.763" fill="#A57939"/><path fill="#FCEA2B" d="M24.892 24.829a17.605 17.605 0 00-.32 3.36c0 7.827 5.076 14.172 11.338 14.172s11.34-6.345 11.34-14.173c0-1.042-.09-2.057-.26-3.035-3.47-.228-6.29-1.82-8.69-4.286h-4.39c-2.588 2.06-5.544 3.468-9.019 3.962z"/><path fill="none" stroke="#000" stroke-linecap="round" stroke-linejoin="round" stroke-miterlimit="10" stroke-width="2" d="M26.2 20.867c-1.034 2.137-1.628 4.642-1.628 7.321 0 7.828 5.076 14.173 11.338 14.173s11.34-6.345 11.34-14.173c0-2.679-.595-5.184-1.628-7.32"/><path d="M54.91 57.827a1 1 0 01-1-1v-3c0-4.451-4.496-7.81-8.651-7.992-6.205 5.012-12.492 5.012-18.697 0-4.155.182-8.652 3.54-8.652 7.992v3a1 1 0 01-2 0v-3c0-5.324 5.14-9.997 11-10a1 1 0 01.64.232c5.625 4.688 11.095 4.688 16.72 0a1 1 0 01.64-.232c5.86.003 11 4.676 11 10v3a1 1 0 01-1 1zm-13-31a2 2 0 11-4.001-.001 2 2 0 014.002.001m-8.001 0a2 2 0 11-4.001-.001 2 2 0 014.002.001M35.91 36.83c-1.151 0-2.303-.286-3.447-.858a1 1 0 11.895-1.79c1.717.86 3.387.86 5.105 0a1 1 0 01.895 1.79c-1.144.572-2.296.858-3.448.858z"/><path fill="none" stroke="#000" stroke-linecap="round" stroke-linejoin="round" stroke-miterlimit="10" stroke-width="2" d="M26.562 45.835s3.665 10.858 20.167 5.097v5.875"/><circle cx="28.41" cy="55.827" r="1.5"/><circle cx="43.41" cy="55.827" r="1.5"/><path fill="none" stroke="#000" stroke-linecap="round" stroke-linejoin="round" stroke-miterlimit="10" stroke-width="2" d="M26.192 20.867A16.314 16.314 0 0024.8 25.31l.064-.36s3.29.619 8.457-3.763m12.104-.32a16.314 16.314 0 011.394 4.443l-.064-.36s-3.29.619-8.457-3.763m-12.023-6.34v6.057"/><path fill="none" stroke="#000" stroke-linecap="round" stroke-linejoin="round" stroke-miterlimit="10" stroke-width="2" d="M26.275 20.904h19.271v-6.057a4 4 0 000-8c-.876 0-1.679.29-2.338.766a3.956 3.956 0 00.526-1.946 4 4 0 00-4-4c-1.82 0-3.34 1.224-3.824 2.888-.484-1.664-2.003-2.887-3.823-2.887a4 4 0 00-4 4c0 .71.2 1.367.525 1.945a3.968 3.968 0 00-2.337-.766 4 4 0 100 8"/></svg>