<svg viewBox="0 0 72 72" xmlns="http://www.w3.org/2000/svg"><path fill="#B3B3B3" d="M68 4v64H4V4h64m4-4H0v72h72V0z"/><path fill="none" stroke="#00A5FF" stroke-miterlimit="10" stroke-width=".1" d="M12.923 10.958h46.154c1.062 0 1.923.861 1.923 1.923h0v46.154a1.923 1.923 0 01-1.923 1.923H12.923A1.923 1.923 0 0111 59.035h0V12.881c0-1.062.861-1.923 1.923-1.923h0z"/><path fill="none" stroke="#00A5FF" stroke-miterlimit="10" stroke-width=".1" d="M18.254 4h35.492A2.254 2.254 0 0156 6.254v59.492A2.254 2.254 0 0153.746 68H18.254A2.254 2.254 0 0116 65.746V6.254A2.254 2.254 0 0118.254 4z"/><path fill="none" stroke="#00A5FF" stroke-miterlimit="10" stroke-width=".1" d="M68 18.254v35.492A2.254 2.254 0 0165.746 56H6.254A2.254 2.254 0 014 53.746V18.254A2.254 2.254 0 016.254 16h59.492A2.254 2.254 0 0168 18.254z"/><circle cx="36" cy="36" r="29" fill="none" stroke="#00A5FF" stroke-miterlimit="10" stroke-width=".1"/><g stroke-linecap="round" stroke-miterlimit="10" stroke-width="6" stroke="#fff" fill="none" stroke-linejoin="round"><path d="M20.95 27.277a6.306 6.306 0 013.664-2.66 6.304 6.304 0 014.55.019m21.395 1.636a7.19 7.19 0 00-7.608-4.056"/><path d="M58.963 34.7C58.29 22.6 48.265 13 36 13c-12.703 0-23 10.297-23 23 0 12.702 10.297 23 23 23 7.08 0 13.413-3.2 17.632-8.232"/><path d="M30 31a3.001 3.001 0 01-6 0c0-1.655 1.345-3 3-3s3 1.345 3 3m18 0a3.001 3.001 0 01-6 0c0-1.655 1.345-3 3-3s3 1.345 3 3m-8.278 19.635s-5.718-1.834-8.871 1.55m6.579-8.023s8.736-.08 12.075.59c3.339.67 6.732 2.066 9.141.95 1.136-.527 1.648-1.641 1.722-2.71.102-1.065-.22-2.247-1.255-2.953-2.193-1.497-5.774-.624-9.177-.51s-12.009-1.398-12.009-1.398"/></g><g fill="#FCEA2B"><path d="M36 12c-13.234 0-24 10.766-24 24s10.766 24 24 24 24-10.766 24-24-10.766-24-24-24z"/><path d="M37.43 44.162s8.736-.08 12.075.59c3.339.67 6.732 2.066 9.141.95 1.136-.527 1.648-1.641 1.722-2.71.102-1.065-.22-2.247-1.255-2.953-2.193-1.497-5.774-.624-9.177-.51s-12.009-1.398-12.009-1.398"/></g><path fill="none" stroke="#000" stroke-linecap="round" stroke-linejoin="round" stroke-miterlimit="10" stroke-width="2" d="M20.95 27.277a6.306 6.306 0 013.664-2.66 6.304 6.304 0 014.55.019m21.395 1.636a7.19 7.19 0 00-7.608-4.056"/><path fill="none" stroke="#000" stroke-linecap="round" stroke-linejoin="round" stroke-miterlimit="10" stroke-width="2" d="M58.963 34.7C58.29 22.6 48.265 13 36 13c-12.703 0-23 10.297-23 23 0 12.702 10.297 23 23 23 7.08 0 13.413-3.2 17.632-8.232"/><path d="M30 31a3.001 3.001 0 01-6 0c0-1.655 1.345-3 3-3s3 1.345 3 3m18 0a3.001 3.001 0 01-6 0c0-1.655 1.345-3 3-3s3 1.345 3 3"/><path fill="none" stroke="#000" stroke-linecap="round" stroke-linejoin="round" stroke-miterlimit="10" stroke-width="2" d="M39.722 50.635s-5.718-1.834-8.871 1.55m6.579-8.023s8.736-.08 12.075.59c3.339.67 6.732 2.066 9.141.95 1.136-.527 1.648-1.641 1.722-2.71.102-1.065-.22-2.247-1.255-2.953-2.193-1.497-5.774-.624-9.177-.51s-12.009-1.398-12.009-1.398"/></svg>