<svg viewBox="0 0 72 72" xmlns="http://www.w3.org/2000/svg"><path fill="#B3B3B3" d="M68 4v64H4V4h64m4-4H0v72h72V0z"/><path fill="none" stroke="#00A5FF" stroke-miterlimit="10" stroke-width=".1" d="M12.923 10.958h46.154c1.062 0 1.923.861 1.923 1.923v46.154a1.923 1.923 0 01-1.923 1.923H12.923A1.923 1.923 0 0111 59.035h0V12.881c0-1.062.861-1.923 1.923-1.923h0z"/><path fill="none" stroke="#00A5FF" stroke-miterlimit="10" stroke-width=".1" d="M18.254 4h35.492A2.254 2.254 0 0156 6.254v59.492A2.254 2.254 0 0153.746 68H18.254A2.254 2.254 0 0116 65.746V6.254A2.254 2.254 0 0118.254 4z"/><path fill="none" stroke="#00A5FF" stroke-miterlimit="10" stroke-width=".1" d="M68 18.254v35.492A2.254 2.254 0 0165.746 56H6.254A2.254 2.254 0 014 53.746V18.254A2.254 2.254 0 016.254 16h59.492A2.254 2.254 0 0168 18.254z"/><circle cx="36" cy="36" r="29" fill="none" stroke="#00A5FF" stroke-miterlimit="10" stroke-width=".1"/><g stroke-linecap="round" stroke-miterlimit="10" stroke-width="6" stroke="#fff" fill="none" stroke-linejoin="round"><path d="M48.023 56.664l-.069-4.944c0-1.45 1.65-3.035 2.58-4.1a21.547 21.547 0 005.291-14.242c0-11.6-8.894-21.006-19.856-20.983a19.68 19.68 0 00-3.924.407c-7.89 1.618-14.177 8.457-15.548 16.842a21.754 21.754 0 005.043 18.041c.917 1.037 2.382 2.62 2.382 4.04l-.022 4.983m3.964-1.706v4.78m5.714-3.715v4.781m10.634-5.846v4.78m-5.184-3.715v4.781"/><path d="M33.036 52.209l2.932-5.849 3.505 5.849"/><circle cx="27.864" cy="40.817" r="5"/><circle cx="44.212" cy="40.817" r="5"/></g><path fill="#FFF" d="M41.184 14.216a17.831 17.831 0 00-5.177-.77h-.036a18.73 18.73 0 00-3.726.386 18.4 18.4 0 00-10.86 6.964 20.323 20.323 0 00-3.9 9.061 20.78 20.78 0 004.8 17.218l.134.149c1.055 1.19 2.5 2.82 2.5 4.554l-.022 4.988a1 1 0 01-1 1 29.923 29.923 0 007.012 2.536c3.811.859 7.777.75 11.536-.315 3.215-15.177 2.365-31.029-1.261-45.771z"/><path fill="#D0CFCE" d="M48.89 18.863a18.506 18.506 0 00-7.707-4.648c3.627 14.742 4.476 30.595 1.258 45.766a26.88 26.88 0 005.6-2.271c-.55.002-1-.436-1.013-.986l-.07-4.943c0-1.65 1.4-3.191 2.421-4.317.145-.159.283-.311.407-.453 7.052-8.192 6.665-20.417-.89-28.147l-.007-.001z"/><path fill="#3F3F3F" d="M27.863 36.364a4.5 4.5 0 100 9 4.5 4.5 0 000-9zm16.349 0a4.5 4.5 0 100 9 4.5 4.5 0 000-9z"/><g fill="none" stroke="#000" stroke-width="2"><path stroke-linecap="round" stroke-linejoin="round" d="M48.023 56.664l-.069-4.944c0-1.45 1.65-3.035 2.58-4.1a21.547 21.547 0 005.291-14.242c0-11.6-8.894-21.006-19.856-20.983a19.68 19.68 0 00-3.924.407c-7.89 1.618-14.177 8.457-15.548 16.842a21.754 21.754 0 005.043 18.041c.917 1.037 2.382 2.62 2.382 4.04l-.022 4.983m3.964-1.706v4.78m5.714-3.715v4.781m10.634-5.846v4.78m-5.184-3.715v4.781"/><path stroke-linecap="round" stroke-linejoin="round" d="M33.036 52.209l2.932-5.849 3.505 5.849"/><circle cx="27.864" cy="40.817" r="5" stroke-miterlimit="10"/><circle cx="44.212" cy="40.817" r="5" stroke-miterlimit="10"/></g></svg>