<svg viewBox="0 0 72 72" xmlns="http://www.w3.org/2000/svg"><path fill="#B3B3B3" d="M68 4v64H4V4h64m4-4H0v72h72V0z"/><path fill="none" stroke="#00A5FF" stroke-miterlimit="10" stroke-width=".1" d="M12.923 10.958h46.154c1.062 0 1.923.861 1.923 1.923v46.154a1.923 1.923 0 01-1.923 1.923H12.923A1.923 1.923 0 0111 59.035h0V12.881c0-1.062.861-1.923 1.923-1.923h0z"/><path fill="none" stroke="#00A5FF" stroke-miterlimit="10" stroke-width=".1" d="M18.254 4h35.492A2.254 2.254 0 0156 6.254v59.492A2.254 2.254 0 0153.746 68H18.254A2.254 2.254 0 0116 65.746V6.254A2.254 2.254 0 0118.254 4z"/><path fill="none" stroke="#00A5FF" stroke-miterlimit="10" stroke-width=".1" d="M68 18.254v35.492A2.254 2.254 0 0165.746 56H6.254A2.254 2.254 0 014 53.746V18.254A2.254 2.254 0 016.254 16h59.492A2.254 2.254 0 0168 18.254z"/><circle cx="36" cy="36" r="29" fill="none" stroke="#00A5FF" stroke-miterlimit="10" stroke-width=".1"/><g stroke-linecap="round" stroke-miterlimit="10" stroke-width="6" stroke="#fff" fill="none" stroke-linejoin="round"><path d="M46.717 56.356a23.04 23.04 0 01-21.538-.056m22.272-.349c-.242.14-.487.275-.735.405M13.122 38.388A23.276 23.276 0 0113 36c0-12.703 10.297-23 23-23s23 10.297 23 23c0 .504-.016 1.005-.048 1.501M23 24l7 4m19-4l-7 4M30 43a17.625 17.625 0 016.842-.998A16.363 16.363 0 0143 43"/><path d="M22.5 33.078a7.174 7.174 0 004.91 1.636 7.078 7.078 0 004.09-1.636m9 0a7.174 7.174 0 004.91 1.636 7.078 7.078 0 004.09-1.636m-19.04 4.419L16.713 43.81s-3.811-4.378-7.394-.753a4.475 4.475 0 00-.141 6.395c.034.035-3.46 3.322-.303 6.48a4.418 4.418 0 006.029.313S17.426 60 20.99 56.03s-.81-7.42-.81-7.42l10.28-11.113zm11.08 0l13.747 6.313s3.811-4.378 7.394-.753a4.475 4.475 0 01.208 6.325s0 0 0 0a4.851 4.851 0 01-.067.07c-.034.035 3.46 3.322.303 6.48a4.418 4.418 0 01-6.029.313S54.574 60 51.01 56.03s.81-7.42.81-7.42L41.54 37.497z"/></g><path fill="#FCEA2B" d="M36 12c-13.255 0-24 10.745-24 24s10.745 24 24 24 24-10.745 24-24-10.745-24-24-24z"/><path fill="#D0CFCE" d="M41.54 37.497l13.747 6.313s3.811-4.378 7.394-.753a4.475 4.475 0 01.208 6.325 4.851 4.851 0 01-.067.07c-.034.035 3.46 3.322.303 6.48a4.418 4.418 0 01-6.029.313S54.574 60 51.01 56.03s.81-7.42.81-7.42L41.54 37.497zm-11.08 0L16.713 43.81s-3.811-4.378-7.394-.753a4.475 4.475 0 00-.141 6.395c.034.035-3.46 3.322-.303 6.48a4.418 4.418 0 006.029.313S17.426 60 20.99 56.03s-.81-7.42-.81-7.42l10.28-11.113z"/><g fill="none" stroke="#000" stroke-linecap="round" stroke-linejoin="round" stroke-width="2"><path d="M46.717 56.356a23.04 23.04 0 01-21.538-.056m22.272-.349c-.242.14-.487.275-.735.405M13.122 38.388A23.276 23.276 0 0113 36c0-12.703 10.297-23 23-23s23 10.297 23 23c0 .504-.016 1.005-.048 1.501M23 24l7 4m19-4l-7 4M30 43a17.625 17.625 0 016.842-.998A16.363 16.363 0 0143 43"/><path d="M22.5 33.078a7.174 7.174 0 004.91 1.636 7.078 7.078 0 004.09-1.636m9 0a7.174 7.174 0 004.91 1.636 7.078 7.078 0 004.09-1.636m-19.04 4.419L16.713 43.81s-3.811-4.378-7.394-.753a4.475 4.475 0 00-.141 6.395c.034.035-3.46 3.322-.303 6.48a4.418 4.418 0 006.029.313S17.426 60 20.99 56.03s-.81-7.42-.81-7.42l10.28-11.113zm11.08 0l13.747 6.313s3.811-4.378 7.394-.753a4.475 4.475 0 01.208 6.325s0 0 0 0a4.851 4.851 0 01-.067.07c-.034.035 3.46 3.322.303 6.48a4.418 4.418 0 01-6.029.313S54.574 60 51.01 56.03s.81-7.42.81-7.42L41.54 37.497z"/></g></svg>