<svg viewBox="0 0 72 72" xmlns="http://www.w3.org/2000/svg"><path fill="#b3b3b3" d="M68 4v64H4V4h64m4-4H0v72h72V0z"/><path fill="none" stroke="#00a5ff" stroke-miterlimit="10" stroke-width=".1" d="M12.92 10.96h46.15a1.923 1.923 0 011.923 1.923v46.15a1.922 1.922 0 01-1.922 1.922h-46.16a1.923 1.923 0 01-1.923-1.923v-46.15a1.923 1.923 0 011.923-1.923z"/><rect x="16" y="4" rx="2.254" ry="2.254" width="40" height="64" fill="none" stroke="#00a5ff" stroke-miterlimit="10" stroke-width=".1"/><rect x="16" y="4" rx="2.254" ry="2.254" width="40" height="64" transform="rotate(90 36 36)" fill="none" stroke="#00a5ff" stroke-miterlimit="10" stroke-width=".1"/><circle cx="36" cy="36" r="29" fill="none" stroke="#00a5ff" stroke-miterlimit="10" stroke-width=".1"/><g stroke-linecap="round" stroke-miterlimit="10" stroke-width="6" stroke="#fff" fill="none" stroke-linejoin="round"><path d="M25.24 30.12c12.84-6.27 12.38 4.635 4.133 7.694 0 0 6.959.88 6.9 5.387-.059 4.506-2.585 7.392-6.788 7.13-2.878-.263-7.598-1.336-9.064-8.283M35.37 24.17s5.631 7.013 11.78.896"/><path d="M34 39.48s5.35 1.423 6.959-2.687c0 0 2.813-6.988 7.322-4.92s3.465 10.09 2.277 11.98c0 0-4.101 7.366-9.378 1.375"/><circle cx="40.11" cy="22.15" r="2"/><path d="M12 12h48v48H12z"/></g><path fill="#b399c8" d="M12 12h48v47.83H12z"/><path fill="none" stroke="#000" stroke-linecap="round" stroke-linejoin="round" stroke-miterlimit="10" stroke-width="3" d="M25.24 30.12c12.84-6.27 12.38 4.635 4.133 7.694 0 0 6.959.88 6.9 5.387-.059 4.506-2.585 7.392-6.788 7.13-2.878-.263-7.598-1.336-9.064-8.283"/><path fill="none" stroke="#000" stroke-linecap="round" stroke-miterlimit="10" stroke-width="3" d="M35.37 24.17s5.631 7.013 11.78.896M34 39.48s5.35 1.423 6.959-2.687c0 0 2.813-6.988 7.322-4.92s3.465 10.09 2.277 11.98c0 0-4.101 7.366-9.378 1.375"/><circle cx="40.11" cy="22.15" r="2"/><path fill="none" stroke="#000" stroke-linecap="round" stroke-linejoin="round" stroke-width="2" d="M12 12h48v48H12z"/></svg>