<svg viewBox="0 0 72 72" xmlns="http://www.w3.org/2000/svg"><path fill="#b3b3b3" d="M68 4v64H4V4h64m4-4H0v72h72V0z"/><path fill="none" stroke="#00a5ff" stroke-miterlimit="10" stroke-width=".1" d="M12.923 10.958h46.154A1.923 1.923 0 0161 12.881v46.154a1.923 1.923 0 01-1.923 1.923H12.923A1.923 1.923 0 0111 59.035V12.881a1.923 1.923 0 011.923-1.923z"/><rect x="16" y="4" rx="2.254" width="40" height="64" fill="none" stroke="#00a5ff" stroke-miterlimit="10" stroke-width=".1"/><rect x="16" y="4" rx="2.254" width="40" height="64" transform="rotate(90 36 36)" fill="none" stroke="#00a5ff" stroke-miterlimit="10" stroke-width=".1"/><circle cx="36" cy="36" r="29" fill="none" stroke="#00a5ff" stroke-miterlimit="10" stroke-width=".1"/><g stroke-linecap="round" stroke-miterlimit="10" stroke-width="6" stroke="#fff" fill="none" stroke-linejoin="round"><path d="M7 24c0 4.503 1.488 8.66 4 12.002l-.005.003A19.912 19.912 0 007 48c5.746-.96 10.297-4.596 11.614-9.243l.006-.006C21.055 44.053 30.375 48 41.5 48 54.479 48 65 42.627 65 36S54.479 24 41.5 24c-11.127 0-20.448 3.949-22.88 9.252l.008.004c-1.281-4.612-5.746-8.238-11.41-9.256"/><circle cx="53" cy="34" r="2"/></g><path fill="#F1B31C" d="M7 24c0 4.503 1.488 8.66 4 12.002l-.005.003A19.912 19.912 0 007 48c5.746-.96 10.297-4.596 11.614-9.243l.006-.006C21.055 44.053 30.375 48 41.5 48 54.479 48 65 42.627 65 36S54.479 24 41.5 24c-11.127 0-20.448 3.949-22.88 9.252l.008.004c-1.281-4.612-5.746-8.238-11.41-9.256"/><path fill="#E27022" d="M33.574 47.3c2.476.453 5.145.7 7.926.7C54.479 48 65 42.627 65 36c0-5.454-7.125-10.058-16.882-11.518L33.574 47.3z"/><path fill="none" stroke="#000" stroke-linecap="round" stroke-linejoin="round" stroke-miterlimit="10" stroke-width="2" d="M7 24c0 4.503 1.488 8.66 4 12.002l-.005.003A19.912 19.912 0 007 48c5.746-.96 10.297-4.596 11.614-9.243l.006-.006C21.055 44.053 30.375 48 41.5 48 54.479 48 65 42.627 65 36S54.479 24 41.5 24c-11.127 0-20.448 3.949-22.88 9.252l.008.004c-1.281-4.612-5.746-8.238-11.41-9.256"/><circle cx="53" cy="34" r="2"/></svg>