<svg viewBox="0 0 72 72" xmlns="http://www.w3.org/2000/svg"><path fill="#B3B3B3" d="M68 4v64H4V4h64m4-4H0v72h72V0z"/><path fill="none" stroke="#00A5FF" stroke-miterlimit="10" stroke-width=".1" d="M12.9 11h46.2c1.1 0 1.9.9 1.9 1.9h0V59c0 1.1-.9 1.9-1.9 1.9H12.9c-1 .1-1.9-.8-1.9-1.9h0V12.9c0-1.1.9-1.9 1.9-1.9h0z"/><path fill="none" stroke="#00A5FF" stroke-miterlimit="10" stroke-width=".1" d="M18.3 4h35.5C55 4 56 5 56 6.3v59.5c0 1.2-1 2.3-2.3 2.3H18.3C17 68 16 67 16 65.7V6.3C16 5 17 4 18.3 4z"/><path fill="none" stroke="#00A5FF" stroke-miterlimit="10" stroke-width=".1" d="M68 18.3v35.5c0 1.2-1 2.3-2.3 2.3H6.3C5 56 4 55 4 53.7V18.3C4 17 5 16 6.3 16h59.5c1.2 0 2.2 1 2.2 2.3z"/><circle cx="36" cy="36" r="29" fill="none" stroke="#00A5FF" stroke-miterlimit="10" stroke-width=".1"/><g stroke-linecap="round" stroke-miterlimit="10" stroke-width="6" stroke="#fff" fill="none" stroke-linejoin="round"><path d="M60 55l-6.6-6.9L50 39m-13-6l-4-8-4-3-4-4-7 19-2 12-4 6"/><path d="M31 24l1 9h10l8 6-1 6 1 5-2 2-3 3m-6-27l4-3 4 4 3 5"/></g><path fill="#3F3F3F" d="M52 42.2s-.2-6.2-.3-6.8-.7-1.6-1-2.1L48.2 29 42 24.5l-7.2 5.4 2.6 4.5 4.9-.4 10.2 13.3-.5-5.1z"/><path fill="#9B9B9A" d="M50 39l3.4 9.1L60 56H12l4-7 2-12 7-19 4 4 4 3 4 8h5l8 6"/><g fill="none" stroke="#000" stroke-linecap="round" stroke-linejoin="round" stroke-miterlimit="10" stroke-width="2"><path d="M60 55l-6.6-6.9L50 39m-13-6l-4-8-4-3-4-4-7 19-2 12-4 6"/><path d="M31 24l1 9h10l8 6-1 6 1 5-2 2-3 3m-6-27l4-3 4 4 3 5"/></g></svg>