<svg viewBox="0 0 72 72" xmlns="http://www.w3.org/2000/svg"><path fill="#b3b3b3" d="M68 4v64H4V4h64m4-4H0v72h72V0z"/><path fill="none" stroke="#00a5ff" stroke-miterlimit="10" stroke-width=".1" d="M12.923 10.958h46.154A1.923 1.923 0 0161 12.881v46.154a1.923 1.923 0 01-1.923 1.923H12.923A1.923 1.923 0 0111 59.035V12.881a1.923 1.923 0 011.923-1.923z"/><rect x="16" y="4" rx="2.254" width="40" height="64" fill="none" stroke="#00a5ff" stroke-miterlimit="10" stroke-width=".1"/><rect x="16" y="4" rx="2.254" width="40" height="64" transform="rotate(90 36 36)" fill="none" stroke="#00a5ff" stroke-miterlimit="10" stroke-width=".1"/><circle cx="36" cy="36" r="29" fill="none" stroke="#00a5ff" stroke-miterlimit="10" stroke-width=".1"/><g stroke-linecap="round" stroke-miterlimit="10" stroke-width="6" stroke="#fff" fill="none" stroke-linejoin="round"><path d="M59.042 27.873c0 18.29-7.596 27.208-14.675 31.541-6.185 3.804-11.992 4.107-11.992 4.107-10.807 0-19.574-8.767-19.574-19.575 0-6.65 3.733-11.43 8.376-16.073C33.247 15.804 31.94 9.508 42.83 9.508c8.956 0 16.212 7.268 16.212 16.224v2.141z"/><circle cx="39.534" cy="16.215" r="1.26"/><circle cx="38.274" cy="51.65" r="3.241"/><path d="M59.042 27.873c0 18.29-7.596 27.208-14.675 31.541-6.185 3.804-11.992 4.107-11.992 4.107-10.807 0-19.574-8.767-19.574-19.575 0-6.65 3.733-11.43 8.376-16.073C33.247 15.804 31.94 9.508 42.83 9.508c8.956 0 16.212 7.268 16.212 16.224v2.141z"/></g><path fill="#A57939" d="M59.042 27.873c0 18.29-7.596 27.208-14.675 31.541-6.185 3.804-11.992 4.107-11.992 4.107-10.807 0-19.574-8.767-19.574-19.575 0-6.65 3.733-11.43 8.376-16.073C33.247 15.804 31.94 9.508 42.83 9.508c8.956 0 16.212 7.268 16.212 16.224v2.141z"/><path fill="#a57939" d="M59.045 25.73v2.14c0 18.29-7.6 27.21-14.68 31.54-6.18 3.81-11.99 4.11-11.99 4.11-1.67 0-3.28-.21-4.82-.6 31.56-8.62 25.35-49.89 25.35-49.89 3.74 2.97 6.14 7.56 6.14 12.7z"/><circle cx="38.274" cy="51.65" r="3.241" fill="#A57939"/><path fill="none" stroke="#000" stroke-linecap="round" stroke-linejoin="round" stroke-miterlimit="10" stroke-width="2" d="M59.042 27.873c0 18.29-7.596 27.208-14.675 31.541-6.185 3.804-11.992 4.107-11.992 4.107-10.807 0-19.574-8.767-19.574-19.575 0-6.65 3.733-11.43 8.376-16.073C33.247 15.804 31.94 9.508 42.83 9.508c8.956 0 16.212 7.268 16.212 16.224v2.141z"/><circle cx="39.534" cy="16.215" r="1.26"/><circle cx="38.274" cy="51.65" r="3.241" fill="none" stroke="#000" stroke-linecap="round" stroke-linejoin="round" stroke-miterlimit="10" stroke-width="2"/><path fill="none" stroke="#000" stroke-linecap="round" stroke-linejoin="round" stroke-miterlimit="10" stroke-width="2" d="M59.042 27.873c0 18.29-7.596 27.208-14.675 31.541-6.185 3.804-11.992 4.107-11.992 4.107-10.807 0-19.574-8.767-19.574-19.575 0-6.65 3.733-11.43 8.376-16.073C33.247 15.804 31.94 9.508 42.83 9.508c8.956 0 16.212 7.268 16.212 16.224v2.141z"/></svg>