<svg viewBox="0 0 72 72" xmlns="http://www.w3.org/2000/svg"><path fill="#b3b3b3" d="M68 4v64H4V4h64m4-4H0v72h72V0z"/><path fill="none" stroke="#00a5ff" stroke-miterlimit="10" stroke-width=".1" d="M12.923 10.958h46.154A1.923 1.923 0 0161 12.881v46.154a1.923 1.923 0 01-1.923 1.923H12.923A1.923 1.923 0 0111 59.035V12.881a1.923 1.923 0 011.923-1.923z"/><rect x="16" y="4" rx="2.254" width="40" height="64" fill="none" stroke="#00a5ff" stroke-miterlimit="10" stroke-width=".1"/><rect x="16" y="4" rx="2.254" width="40" height="64" transform="rotate(90 36 36)" fill="none" stroke="#00a5ff" stroke-miterlimit="10" stroke-width=".1"/><circle cx="36" cy="36" r="29" fill="none" stroke="#00a5ff" stroke-miterlimit="10" stroke-width=".1"/><path d="M31 34c-7.272-1.91-10-9.545-10-14.318V13m0 46v-6.682C21 47.546 23.727 39.91 31 38m0 0c1-.272 2-.894 2-2 0-1.105-1-1.728-2-2m10 0c7.272-1.91 10-9.545 10-14.318V13m0 46v-6.682C51 47.546 48.273 39.91 41 38m0 0c-1-.272-2-.894-2-2 0-1.105 1-1.728 2-2m14-23c0 1.1-.9 2-2 2H19c-1.1 0-2-.9-2-2v-1c0-1.1.9-2 2-2h34c1.1 0 2 .9 2 2v1zm0 51c0 1.1-.9 2-2 2H19c-1.1 0-2-.9-2-2v-1c0-1.1.9-2 2-2h34c1.1 0 2 .9 2 2v1zM29 43h14" stroke-linecap="round" stroke-miterlimit="10" stroke-width="6" stroke="#fff" fill="none" stroke-linejoin="round"/><path fill="#9B9B9A" d="M44.045 43H27.956C25.136 45.584 24 49.665 24 52.318V59h24v-6.682c0-2.653-1.136-6.734-3.955-9.318z"/><path fill="#a57939" d="M55 11c0 1.1-.9 2-2 2H19c-1.1 0-2-.9-2-2v-1c0-1.1.9-2 2-2h34c1.1 0 2 .9 2 2v1zm0 51c0 1.1-.9 2-2 2H19c-1.1 0-2-.9-2-2v-1c0-1.1.9-2 2-2h34c1.1 0 2 .9 2 2v1z"/><path d="M31 34c-7.272-1.91-10-9.545-10-14.318V13m0 46v-6.682C21 47.546 23.727 39.91 31 38m0 0c1-.272 2-.894 2-2 0-1.105-1-1.728-2-2m10 0c7.272-1.91 10-9.545 10-14.318V13m0 46v-6.682C51 47.546 48.273 39.91 41 38m0 0c-1-.272-2-.894-2-2 0-1.105 1-1.728 2-2m14-23c0 1.1-.9 2-2 2H19c-1.1 0-2-.9-2-2v-1c0-1.1.9-2 2-2h34c1.1 0 2 .9 2 2v1zm0 51c0 1.1-.9 2-2 2H19c-1.1 0-2-.9-2-2v-1c0-1.1.9-2 2-2h34c1.1 0 2 .9 2 2v1zM29 43h14" fill="none" stroke="#000" stroke-linecap="round" stroke-linejoin="round" stroke-miterlimit="10" stroke-width="2"/></svg>