<svg viewBox="0 0 72 72" xmlns="http://www.w3.org/2000/svg"><path fill="#b3b3b3" d="M68 4v64H4V4h64m4-4H0v72h72V0z"/><path fill="none" stroke="#00a5ff" stroke-miterlimit="10" stroke-width=".1" d="M12.923 10.958h46.154A1.923 1.923 0 0161 12.881v46.154a1.923 1.923 0 01-1.923 1.923H12.923A1.923 1.923 0 0111 59.035V12.881a1.923 1.923 0 011.923-1.923z"/><rect x="16" y="4" rx="2.254" width="40" height="64" fill="none" stroke="#00a5ff" stroke-miterlimit="10" stroke-width=".1"/><rect x="16" y="4" rx="2.254" width="40" height="64" transform="rotate(90 36 36)" fill="none" stroke="#00a5ff" stroke-miterlimit="10" stroke-width=".1"/><circle cx="36" cy="36" r="29" fill="none" stroke="#00a5ff" stroke-miterlimit="10" stroke-width=".1"/><g stroke-linecap="round" stroke-miterlimit="10" stroke-width="6" stroke="#fff" fill="none" stroke-linejoin="round"><path d="M12.605 57.682v-23c0-12.702 10.297-23 23-23s23 10.298 23 23v23h-46z"/><circle cx="35.605" cy="34.682" r="15"/><circle cx="35.605" cy="34.682" r="15"/><path d="M12.605 57.682v-23c0-12.702 10.297-23 23-23s23 10.298 23 23v23h-46z"/><circle cx="35.605" cy="34.682" r="15"/><path d="M35.417 35.087h-6.812"/><circle cx="24.407" cy="34.988" r="1"/><circle cx="46.678" cy="34.988" r="1"/><circle cx="27.668" cy="42.862" transform="rotate(-45.001 27.668 42.862)" r="1"/><circle cx="43.416" cy="27.114" transform="rotate(-45.001 43.416 27.114)" r="1"/><circle cx="35.542" cy="46.123" r="1"/><circle cx="35.542" cy="23.852" r="1"/><circle cx="43.416" cy="42.862" transform="rotate(-45.001 43.416 42.863)" r="1"/><circle cx="27.668" cy="27.114" transform="rotate(-45.001 27.668 27.114)" r="1"/></g><path fill="#9b9b9a" d="M12.605 57.682v-23c0-12.702 10.297-23 23-23s23 10.298 23 23v23h-46z"/><circle cx="35.605" cy="34.682" r="15" fill="#d0cfce"/><circle cx="35.605" cy="34.682" r="15" fill="#FFF"/><path fill="#FFF" d="M35.417 35.087h-6.812"/><path fill="none" stroke="#000" stroke-linecap="round" stroke-linejoin="round" stroke-miterlimit="10" stroke-width="2" d="M12.605 57.682v-23c0-12.702 10.297-23 23-23s23 10.298 23 23v23h-46z"/><circle cx="35.605" cy="34.682" r="15" fill="none" stroke="#000" stroke-linecap="round" stroke-linejoin="round" stroke-miterlimit="10" stroke-width="2"/><circle cx="35.605" cy="34.682" r="15" fill="none" stroke="#000" stroke-linecap="round" stroke-linejoin="round" stroke-miterlimit="10" stroke-width="2"/><path fill="none" stroke="#000" stroke-linecap="round" stroke-linejoin="round" stroke-miterlimit="10" stroke-width="2" d="M12.605 57.682v-23c0-12.702 10.297-23 23-23s23 10.298 23 23v23h-46z"/><circle cx="35.605" cy="34.682" r="15" fill="none" stroke="#000" stroke-linecap="round" stroke-linejoin="round" stroke-miterlimit="10" stroke-width="2"/><path fill="none" stroke="#000" stroke-linecap="round" stroke-linejoin="round" stroke-miterlimit="10" stroke-width="1.758" d="M35.417 35.087h-6.812"/><circle cx="24.407" cy="34.988" r="1"/><circle cx="46.678" cy="34.988" r="1"/><circle cx="27.668" cy="42.862" transform="rotate(-45.001 27.668 42.862)" r="1"/><circle cx="43.416" cy="27.114" transform="rotate(-45.001 43.416 27.114)" r="1"/><circle cx="35.542" cy="46.123" r="1"/><circle cx="35.542" cy="23.852" r="1"/><circle cx="43.416" cy="42.862" transform="rotate(-45.001 43.416 42.863)" r="1"/><circle cx="27.668" cy="27.114" transform="rotate(-45.001 27.668 27.114)" r="1"/></svg>