<svg viewBox="0 0 72 72" xmlns="http://www.w3.org/2000/svg"><path fill="#b3b3b3" d="M68 4v64H4V4h64m4-4H0v72h72V0z"/><rect x="11" y="10.958" rx="1.923" ry="1.923" width="50" height="50" fill="none" stroke="#00a5ff" stroke-miterlimit="10" stroke-width=".1"/><rect x="16" y="4" rx="2.254" ry="2.254" width="40" height="64" fill="none" stroke="#00a5ff" stroke-miterlimit="10" stroke-width=".1"/><rect x="16" y="4" rx="2.254" ry="2.254" width="40" height="64" transform="rotate(90 36 36)" fill="none" stroke="#00a5ff" stroke-miterlimit="10" stroke-width=".1"/><circle cx="36" cy="36" r="29" fill="none" stroke="#00a5ff" stroke-miterlimit="10" stroke-width=".1"/><g stroke-linecap="round" stroke-miterlimit="10" stroke-width="6" stroke="#fff" fill="none" stroke-linejoin="round"><path d="M42.17 30.096a2 2 0 11-2-2 2 2 0 012 2m-8 0a2 2 0 11-2-2 2 2 0 012 2m-1 8.25a8.274 8.274 0 006 0"/><path d="M26.296 38.096c-3 0-4-7-4-14 0-6 5-12 14-12s14 6 14 12c0 7-1 14-4 14"/><path d="M25.233 31.096c-.102 7.999 4.936 14 11 14 5.936 0 11.063-6 11.063-14 0-5-3-11-3-11-8 0-10 3-16 1 0 0-3 5-3.063 10zm7.937 7.25a8.274 8.274 0 006 0"/><path d="M42.17 30.096a2 2 0 11-2-2 2 2 0 012 2m-8 0a2 2 0 11-2-2 2 2 0 012 2M20.587 53.601a11.896 11.896 0 014.048-3.359 11.752 11.752 0 013.307-1.087m1.304.485a10.357 10.357 0 00-6.77 7.526m29.201-3.321a11.896 11.896 0 00-4.048-3.36 11.752 11.752 0 00-3.307-1.087m-1.304.486a10.357 10.357 0 016.77 7.526M29.98 50.583a21.015 21.015 0 00-4.294 6.281 20.57 20.57 0 00-1.042 2.962"/><path d="M16.97 59.937v-3c0-4.995 5.009-9 10-9q9 7.5 18 0c4.995 0 10 4.005 10 9v3"/><path d="M42.392 50.583a26.435 26.435 0 014.19 6.312 26.104 26.104 0 011.195 2.999m-16.634-.448l-1.027-1.894a2.36 2.36 0 001.977-2.048h7.854a2.36 2.36 0 001.977 2.048l-.995 1.835M25.296 29.33a6.47 6.47 0 003.817-1.102c1.407-1.19 3.11-2.175 5.565-.4a3.157 3.157 0 001.528.601 3.157 3.157 0 001.527-.6c2.456-1.776 4.158-.79 5.566.399a6.47 6.47 0 003.817 1.103l-.073 1.53a6.47 6.47 0 00-3.817 1.103c-1.408 1.189-3.11 2.174-5.565.399a3.156 3.156 0 00-1.528-.6 3.157 3.157 0 00-1.528.6c-2.455 1.775-4.157.79-5.565-.4a6.47 6.47 0 00-3.817-1.102z"/></g><path fill="#f4aa41" d="M26.296 38.096c-3 0-4-7-4-14 0-6 5-12 14-12s14 6 14 12c0 7-1 14-4 14"/><path fill="#fcea2b" d="M25.233 31.096c-.102 7.999 4.063 14 11 14 7.063 0 11.063-6 11.063-14 0-5-3-10-3-10-8 0-10 3-16 1a17.077 17.077 0 00-3.063 9z"/><path fill="#3f3f3f" d="M17.03 60.893V57.06c0-4.994 5.007-9 10-9q9 7.5 18 0c4.993 0 10 4.006 10 9v3.833z"/><path fill="#ea5a47" d="M47.078 60.893c-1.132-3.474-2.978-7.894-5.447-9.667H30.758c-2.478 1.757-4.33 6.183-5.467 9.667z"/><path fill="#fcea2b" d="M41.259 60.958l1.43-2.786a2.883 2.883 0 01-1.543-.718 2.27 2.27 0 01-.705-1.329h-4.46l-.003 2.94-.004-2.94h-4.46a2.244 2.244 0 01-.182.609 2.326 2.326 0 01-.522.72 2.809 2.809 0 01-1.497.711l1.517 2.793z"/><path fill="#ea5a47" d="M25.296 29.33a6.47 6.47 0 003.817-1.102c1.407-1.19 3.11-2.175 5.565-.4a3.157 3.157 0 001.528.601 3.157 3.157 0 001.527-.6c2.456-1.776 4.158-.79 5.566.399a6.47 6.47 0 003.817 1.103l-.073 1.53a6.47 6.47 0 00-3.817 1.103c-1.408 1.189-3.11 2.174-5.565.399a3.156 3.156 0 00-1.528-.6 3.157 3.157 0 00-1.528.6c-2.455 1.775-4.157.79-5.565-.4a6.47 6.47 0 00-3.817-1.102z"/><g><path d="M42.17 30.096a2 2 0 11-2-2 2 2 0 012 2m-8 0a2 2 0 11-2-2 2 2 0 012 2"/><path fill="none" stroke="#000" stroke-linecap="round" stroke-linejoin="round" stroke-width="2" d="M33.17 38.346a8.274 8.274 0 006 0m-12.874-.25c-3 0-4-7-4-14 0-6 5-12 14-12s14 6 14 12c0 7-1 14-4 14"/><path fill="none" stroke="#000" stroke-linejoin="round" stroke-width="2" d="M25.233 31.096c-.102 7.999 4.936 14 11 14 5.936 0 11.063-6 11.063-14 0-5-3-11-3-11-8 0-10 3-16 1 0 0-3 5-3.063 10z"/><path fill="none" stroke="#000" stroke-linecap="round" stroke-linejoin="round" stroke-width="2" d="M33.17 38.346a8.274 8.274 0 006 0"/><path d="M42.17 30.096a2 2 0 11-2-2 2 2 0 012 2m-8 0a2 2 0 11-2-2 2 2 0 012 2"/><path fill="none" stroke="#000" stroke-linecap="round" stroke-miterlimit="10" stroke-width="2" d="M20.587 53.601a11.896 11.896 0 014.048-3.359 11.752 11.752 0 013.307-1.087m1.304.485a10.357 10.357 0 00-6.77 7.526m29.201-3.321a11.896 11.896 0 00-4.048-3.36 11.752 11.752 0 00-3.307-1.087m-1.304.486a10.357 10.357 0 016.77 7.526M29.98 50.583a21.015 21.015 0 00-4.294 6.281 20.57 20.57 0 00-1.042 2.962"/><path fill="none" stroke="#000" stroke-linecap="round" stroke-linejoin="round" stroke-width="2" d="M16.97 59.937v-3c0-4.995 5.009-9 10-9q9 7.5 18 0c4.995 0 10 4.005 10 9v3"/><path fill="none" stroke="#000" stroke-linecap="round" stroke-miterlimit="10" stroke-width="2" d="M42.392 50.583a26.435 26.435 0 014.19 6.312 26.104 26.104 0 011.195 2.999"/><path fill="none" stroke="#000" stroke-linecap="round" stroke-linejoin="round" stroke-width="2" d="M31.143 59.446l-1.027-1.894a2.36 2.36 0 001.977-2.048h7.854a2.36 2.36 0 001.977 2.048l-.995 1.835"/><path fill="none" stroke="#000" stroke-linejoin="round" stroke-width="2" d="M25.296 29.33a6.47 6.47 0 003.817-1.102c1.407-1.19 3.11-2.175 5.565-.4a3.157 3.157 0 001.528.601 3.157 3.157 0 001.527-.6c2.456-1.776 4.158-.79 5.566.399a6.47 6.47 0 003.817 1.103l-.073 1.53a6.47 6.47 0 00-3.817 1.103c-1.408 1.189-3.11 2.174-5.565.399a3.156 3.156 0 00-1.528-.6 3.157 3.157 0 00-1.528.6c-2.455 1.775-4.157.79-5.565-.4a6.47 6.47 0 00-3.817-1.102z"/></g></svg>