<svg viewBox="0 0 72 72" xmlns="http://www.w3.org/2000/svg"><path fill="#B3B3B3" d="M68 4v64H4V4h64m4-4H0v72h72V0z"/><path fill="none" stroke="#00A5FF" stroke-miterlimit="10" stroke-width=".1" d="M12.9 11h46.2c1.049 0 1.9.849 1.9 1.897v.003h0V59c0 1.049-.849 1.9-1.897 1.9H12.9A1.837 1.837 0 0111 59h0V12.9a1.899 1.899 0 011.9-1.9z"/><path fill="none" stroke="#00A5FF" stroke-miterlimit="10" stroke-width=".1" d="M18.3 4h35.5A2.243 2.243 0 0156 6.284V65.8a2.326 2.326 0 01-2.3 2.3H18.3a2.414 2.414 0 01-2.3-2.4V6.3A2.263 2.263 0 0118.3 4z"/><path fill="none" stroke="#00A5FF" stroke-miterlimit="10" stroke-width=".1" d="M68 18.3v35.5a2.326 2.326 0 01-2.3 2.3H6.3A2.414 2.414 0 014 53.7V18.3A2.263 2.263 0 016.3 16h59.5a2.243 2.243 0 012.2 2.284v.016z"/><circle cx="36" cy="36" r="29" fill="none" stroke="#00A5FF" stroke-miterlimit="10" stroke-width=".1"/><g stroke-linecap="round" stroke-miterlimit="10" stroke-width="6" stroke="#fff" fill="none" stroke-linejoin="round"><path d="M19.086 25.8L16.9 31.4a2.54 2.54 0 00-.2 1.9L19.5 44a.365.365 0 00.7 0l.2-7.7c.01-.473.077-.943.2-1.4m6.3-17.4a15.942 15.942 0 00-.9 3.4h0l-12 4.9h44l-11.9-4.9c-.2-4.3-2.2-11.3-10.9-11.6-13 0-15.2 13.5-15.2 13.5m33.368 17.79a5 5 0 114.287-.188m-.341 19.649V40.605h-4v19.446"/><path d="M17 60v-3c0-4.994 5.008-9 10-9 6 5 12 5 18 0 3.212 0 6.43 1.657 8.316 4.169M42 29.9c0 1.1-.9 2-2 2s-2-.9-2-2 .9-2 2-2 2 .9 2 2m-8 0c0 1.1-.9 2-2 2s-2-.9-2-2 .9-2 2-2 2 .9 2 2"/><path d="M25.907 25.8c-.605 1.515-.907 3.156-.907 5.1 0 8 5 14 11 14s11-6 11-14c0-1.944-.302-3.585-.906-5.1M33 38.1c1.9 1 4.1 1 6 0"/></g><path fill="#92D3F5" d="M58 25.7l-11.9-4.8c-.2-4.3-1.9-11.3-10.6-11.6-12 0-14.6 11-14.6 11l-1 2-.6 1.2-5.3 2.2"/><path fill="#61B2E4" d="M19.086 25.7L16.8 31.4a2.54 2.54 0 00-.2 1.9L19.5 44a.365.365 0 00.7 0l.2-7.7.6-.6 1-1.3 8-8.8"/><path fill="#92D3F5" d="M17 60.949v-4c0-4.994 5.008-9 10-9 6 5 12 5 18 0 4.994 0 10 4.006 10 9v4"/><path fill="#61B2E4" d="M45.662 60.949v-4.012c-.14-2.631-1.594-5.262-3.648-6.913A19.526 19.526 0 0045 47.95c4.994 0 10 4.006 10 9v4m-1.632-20.411a5 5 0 114.287-.188"/><path fill="#92D3F5" d="M55.315 32.472a4.382 4.382 0 00-2.34 1.15 10.65 10.65 0 014.68 0 4.382 4.382 0 00-2.34-1.15z"/><path fill="#A57939" d="M57.314 61V40.539h-4V61"/><g><path fill="#FCEA2B" d="M25.907 25.8c-.605 1.515-.907 3.156-.907 5.1 0 8 5 14 11 14s11-6 11-14c0-1.944-.302-3.585-.906-5.1"/></g><g><path fill="none" stroke="#000" stroke-linecap="round" stroke-linejoin="round" stroke-width="2" d="M19.086 25.8L16.9 31.4a2.54 2.54 0 00-.2 1.9L19.5 44a.365.365 0 00.7 0l.2-7.7c.01-.473.077-.943.2-1.4m6.3-17.4a15.942 15.942 0 00-.9 3.4h0l-12 4.9h44l-11.9-4.9c-.2-4.3-2.2-11.3-10.9-11.6-13 0-15.2 13.5-15.2 13.5m33.368 17.79a5 5 0 114.287-.188m-.341 19.649V40.605h-4v19.446"/><path fill="none" stroke="#000" stroke-linecap="round" stroke-linejoin="round" stroke-width="2" d="M17 60v-3c0-4.994 5.008-9 10-9 6 5 12 5 18 0 3.212 0 6.43 1.657 8.316 4.169"/><path d="M42 29.9c0 1.1-.9 2-2 2s-2-.9-2-2 .9-2 2-2 2 .9 2 2m-8 0c0 1.1-.9 2-2 2s-2-.9-2-2 .9-2 2-2 2 .9 2 2"/><path fill="none" stroke="#000" stroke-linecap="round" stroke-linejoin="round" stroke-width="2" d="M25.907 25.8c-.605 1.515-.907 3.156-.907 5.1 0 8 5 14 11 14s11-6 11-14c0-1.944-.302-3.585-.906-5.1M33 38.1c1.9 1 4.1 1 6 0"/></g></svg>