<svg viewBox="0 0 72 72" xmlns="http://www.w3.org/2000/svg"><path fill="#B3B3B3" d="M68 4v64H4V4h64m4-4H0v72h72V0z"/><path fill="none" stroke="#00A5FF" stroke-miterlimit="10" stroke-width=".1" d="M12.9 11h46.2c1.049 0 1.9.849 1.9 1.897v.003h0V59c0 1.049-.849 1.9-1.897 1.9H12.9A1.837 1.837 0 0111 59h0V12.9a1.899 1.899 0 011.9-1.9z"/><path fill="none" stroke="#00A5FF" stroke-miterlimit="10" stroke-width=".1" d="M18.3 4h35.5A2.243 2.243 0 0156 6.284V65.8a2.326 2.326 0 01-2.3 2.3H18.3a2.414 2.414 0 01-2.3-2.4V6.3A2.263 2.263 0 0118.3 4z"/><path fill="none" stroke="#00A5FF" stroke-miterlimit="10" stroke-width=".1" d="M68 18.3v35.5a2.326 2.326 0 01-2.3 2.3H6.3A2.414 2.414 0 014 53.7V18.3A2.263 2.263 0 016.3 16h59.5a2.243 2.243 0 012.2 2.284v.016z"/><circle cx="36" cy="36" r="29" fill="none" stroke="#00A5FF" stroke-miterlimit="10" stroke-width=".1"/><g stroke-linecap="round" stroke-miterlimit="10" stroke-width="6" stroke="#fff" fill="none" stroke-linejoin="round"><path d="M26 39c-4 0-4-6-4-13s4-14 14-14 14 7 14 14 0 13-4 13"/><path d="M24.936 31c0 9 4.937 14 11 14C41.873 45 47 40 47 31c0-3-1-5-1-5-3-3-7-8-7-8-4 3-7 6-13 7 0 0-1.064 1-1.064 6z"/><path d="M37.793 51.449a24.542 24.542 0 014.25-6.833c1.982-2.23 2.903-2.25 16.866-10.248 2.225-1.275 4.066-2.321 5.309-3.026A175.422 175.422 0 0063.26 36m-4.13 22.755c.096-.188.761-1.511.906-1.88.483-1.186.807-2.43.965-3.699m-47.986 5.579c-.097-.188-.761-1.511-.907-1.88-1.587-4.025-.647-6.937-3.015-19.76-.458-2.483-.886-4.5-1.166-5.773 1.243.705 3.084 1.751 5.308 3.025 13.964 7.999 14.884 8.02 16.867 10.249a24.447 24.447 0 014.15 6.598m25.182-3.472l-8.429 14.141"/><path d="M61.95 50.163l-2.15-3.649-4.225-.296 2.805-3.173-1.024-4.11 3.885 1.687 3.592-2.244-.404 4.216 3.244 2.723-4.134.919zm-44.874 9.905v-3c0-4.994 5.008-9 10-9 6 5 12 5 18 0a10.65 10.65 0 018.105 3.915"/><path d="M24.41 48.643s.736 1.17.687 5.667c-.015 1.353-.2 3.742-.397 5.69m22.89-11.595s-.741 1.408-.693 5.905c.015 1.353.2 3.742.397 5.69M42 29.942a2 2 0 11-4 0 2 2 0 014 0m-8 0a2 2 0 11-4 0 2 2 0 014 0m-1 8.25c1.875 1 4.125 1 6 0"/></g><path fill="#F4AA41" d="M26 39c-4 0-4-6-4-13s4-14 14-14 14 7 14 14 0 13-4 13"/><path d="M24.936 31c0 9 4.937 14 11 14C41.873 45 47 40 47 31c0-3-1-5-1-5-3-3-7-8-7-8-4 3-7 6-13 7 0 0-1.064 1-1.064 6zM17 61v-4c0-4.994 5.008-9 10-9 6 5 12 5 18 0 4.994 0 10 4.006 10 9v4" fill="#FCEA2B"/><path fill="#B1CC33" d="M64.22 31.343c-.28 1.27.307 2.992-.153 5.472-.46 2.52-.67 4.43-1.05 7.76-.67 6.01-1.032 6.952-1.022 7.952-.042 1.03-1.507 5.148-1.764 6.146a2.72 2.72 0 01-.2.52 2.123 2.123 0 01-.17.24 11.96 11.96 0 01-2.23 1.57L55 61v-3.833c0-4.99-4.93-9.004-9.93-9.004a15.079 15.079 0 01-7.54 3.65 20.59 20.59 0 014.51-7.2c1.35-1.35 6.54-4.33 16.87-10.25 2.22-1.27 4.06-2.32 5.31-3.02zm-29.6 20.47a15.026 15.026 0 01-7.55-3.65c-4.99 0-10 4.01-10 9v3.84h-2.55a11.809 11.809 0 01-2.24-1.57 2.81 2.81 0 01-.16-.24 1.77 1.77 0 01-.2-.52 14.335 14.335 0 01-.46-3.05c.02-1-.38-4-1.05-10.01-.37-3.33-.85-5.98-1.32-8.5-.46-2.48-.88-4.5-1.16-5.77 1.24.7 3.08 1.75 5.3 3.02 10.33 5.92 15.52 8.9 16.87 10.25a20.674 20.674 0 014.37 6.81l.15.39z"/><path fill="#FCEA2B" d="M61.95 50.163l-2.15-3.649-4.225-.296 2.805-3.173-1.024-4.11 3.885 1.687 3.592-2.244-.404 4.216 3.244 2.723-4.134.919z"/><path fill="#A57939" d="M24.7 61c.198-1.948.383-5.337.397-6.69.048-4.497-.797-5.84-.797-5.84a10 10 0 012.776-.402c6 5 12 5 18 0a10.64 10.64 0 012.514.337s-.741 1.408-.693 5.905c.015 1.353.2 4.742.397 6.69"/><g><path fill="none" stroke="#000" stroke-linecap="round" stroke-linejoin="round" stroke-width="2" d="M26 39c-4 0-4-6-4-13s4-14 14-14 14 7 14 14 0 13-4 13"/><path fill="none" stroke="#000" stroke-linejoin="round" stroke-width="2" d="M24.936 31c0 9 4.937 14 11 14C41.873 45 47 40 47 31c0-3-1-5-1-5-3-3-7-8-7-8-4 3-7 6-13 7 0 0-1.064 1-1.064 6z"/><path fill="none" stroke="#000" stroke-linecap="round" stroke-linejoin="round" stroke-width="2" d="M37.793 51.449a24.542 24.542 0 014.25-6.833c1.982-2.23 2.903-2.25 16.866-10.248 2.225-1.275 4.066-2.321 5.309-3.026A175.422 175.422 0 0063.26 36m-4.13 22.755c.096-.188.761-1.511.906-1.88.483-1.186.807-2.43.965-3.699m-47.986 5.579c-.097-.188-.761-1.511-.907-1.88-1.587-4.025-.647-6.937-3.015-19.76-.458-2.483-.886-4.5-1.166-5.773 1.243.705 3.084 1.751 5.308 3.025 13.964 7.999 14.884 8.02 16.867 10.249a24.447 24.447 0 014.15 6.598m25.182-3.472l-8.429 14.141"/><path fill="none" stroke="#000" stroke-linecap="round" stroke-linejoin="round" stroke-width="2" d="M61.95 50.163l-2.15-3.649-4.225-.296 2.805-3.173-1.024-4.11 3.885 1.687 3.592-2.244-.404 4.216 3.244 2.723-4.134.919zm-44.874 9.905v-3c0-4.994 5.008-9 10-9 6 5 12 5 18 0a10.65 10.65 0 018.105 3.915"/><path fill="none" stroke="#000" stroke-linecap="round" stroke-linejoin="round" stroke-width="2" d="M24.41 48.643s.736 1.17.687 5.667c-.015 1.353-.2 3.742-.397 5.69m22.89-11.595s-.741 1.408-.693 5.905c.015 1.353.2 3.742.397 5.69"/><path d="M42 29.942a2 2 0 11-4 0 2 2 0 014 0m-8 0a2 2 0 11-4 0 2 2 0 014 0"/><path fill="none" stroke="#000" stroke-linecap="round" stroke-linejoin="round" stroke-width="2" d="M33 38.192c1.875 1 4.125 1 6 0"/></g></svg>