<svg viewBox="0 0 72 72" xmlns="http://www.w3.org/2000/svg"><path fill="#B3B3B3" d="M68 4v64H4V4h64m4-4H0v72h72V0z"/><path fill="none" stroke="#00A5FF" stroke-miterlimit="10" stroke-width=".1" d="M12.9 11h46.2c1.049 0 1.9.849 1.9 1.897V59c0 1.049-.849 1.9-1.897 1.9H12.9A1.837 1.837 0 0111 59V12.9a1.899 1.899 0 011.9-1.9z"/><path fill="none" stroke="#00A5FF" stroke-miterlimit="10" stroke-width=".1" d="M18.3 4h35.5A2.243 2.243 0 0156 6.284V65.8a2.326 2.326 0 01-2.3 2.3H18.3a2.414 2.414 0 01-2.3-2.4V6.3A2.263 2.263 0 0118.3 4z"/><path fill="none" stroke="#00A5FF" stroke-miterlimit="10" stroke-width=".1" d="M68 18.3v35.5a2.326 2.326 0 01-2.3 2.3H6.3A2.414 2.414 0 014 53.7V18.3A2.263 2.263 0 016.3 16h59.5a2.243 2.243 0 012.2 2.284v.016z"/><circle cx="36" cy="36" r="29" fill="none" stroke="#00A5FF" stroke-miterlimit="10" stroke-width=".1"/><g stroke-linecap="round" stroke-miterlimit="10" stroke-width="6" stroke="#fff" fill="none" stroke-linejoin="round"><path d="M26.5 39.4H13.4a55.456 55.456 0 014.3 8.4c.507 1.24.941 2.509 1.3 3.8m34-.2c.4-1.2.8-2.4 1.3-3.6a51.128 51.128 0 014.3-8.4H44.7M42 30.1a2 2 0 11-4 0 2 2 0 014 0m-8 0a2 2 0 11-4 0 2 2 0 014 0M33 39c1.875-1 4.125-1 6 0m-1-.5c.24.082.475.182.7.3"/><path d="M17 60v-3c0-5 5-9 10-9 6 5 12 5 18 0 5 0 10 4 10 9v3M34 38.7l.3 2.4.8-2.3-.1-.1zm3.9 0l-.2 2.4-.8-2.3-.1-.1z"/><path d="M24.95 31.1c0 9 4.9 14 11 14 5.9 0 11.1-5 11.1-14a12.134 12.134 0 00-1-5c-3-3-7-8-7-8-4 3-7 6-13 7 0 0-1.1 1-1.1 6z"/><path d="M26 39.1c-4 0-4-6-4-13s4-14 14-14 14 7 14 14 0 13-4 13"/></g><path fill="#3F3F3F" d="M26.1 39.2c-4 0-4-6-4-13s4-14 14-14 14 7 14 14 0 13-4 13"/><path fill="#FCEA2B" d="M24.95 31.1c0 9 4.9 14 11 14 5.9 0 11.1-5 11.1-14a12.134 12.134 0 00-1-5c-3-3-7-8-7-8-4 3-7 6-13 7 0 0-1.1 1-1.1 6z"/><path fill="#D22F27" d="M35.65 45.1c-3.4-.1-8.6-5.7-8.6-5.7h-13.6a82.948 82.948 0 014.3 8.4 48.596 48.596 0 012.8 9.9h30.9a48.596 48.596 0 012.8-9.9 82.948 82.948 0 014.3-8.4h-13.9c.1 0-5.5 5.7-9 5.7z"/><path fill="#3F3F3F" d="M17 61v-3.8c0-5 5-9 10-9 6 5 12 5 18 0 5 0 10 4 10 9V61H17z"/><path d="M31.45 61h9c3.6-2.9 5.6-13.5 5.6-13.5-5.767 5-14.333 5-20.1 0 0-.1 2 10.5 5.5 13.5z"/><g><path fill="none" stroke="#000" stroke-linejoin="round" stroke-width="2" d="M26.5 39.4H13.4a55.456 55.456 0 014.3 8.4c.507 1.24.941 2.509 1.3 3.8m34-.2c.4-1.2.8-2.4 1.3-3.6a51.128 51.128 0 014.3-8.4H44.7"/><path d="M42 30.1a2 2 0 11-4 0 2 2 0 014 0m-8 0a2 2 0 11-4 0 2 2 0 014 0"/><path fill="none" stroke="#000" stroke-linecap="round" stroke-linejoin="round" stroke-width="2" d="M33 39c1.875-1 4.125-1 6 0"/><path fill="none" stroke="#000" stroke-linecap="round" stroke-linejoin="round" d="M38 38.5c.24.082.475.182.7.3"/><path fill="none" stroke="#000" stroke-linecap="round" stroke-linejoin="round" stroke-width="2" d="M17 60v-3c0-5 5-9 10-9 6 5 12 5 18 0 5 0 10 4 10 9v3"/><path stroke="#000" stroke-linecap="round" stroke-linejoin="round" d="M34 38.7l.3 2.4.8-2.3-.1-.1zm3.9 0l-.2 2.4-.8-2.3-.1-.1z"/><path fill="none" stroke="#000" stroke-linejoin="round" stroke-width="2" d="M24.95 31.1c0 9 4.9 14 11 14 5.9 0 11.1-5 11.1-14a12.134 12.134 0 00-1-5c-3-3-7-8-7-8-4 3-7 6-13 7 0 0-1.1 1-1.1 6z"/><path fill="none" stroke="#000" stroke-linecap="round" stroke-linejoin="round" stroke-width="2" d="M26 39.1c-4 0-4-6-4-13s4-14 14-14 14 7 14 14 0 13-4 13"/></g></svg>