<svg viewBox="0 0 72 72" xmlns="http://www.w3.org/2000/svg"><path fill="#B3B3B3" d="M68 4v64H4V4h64m4-4H0v72h72V0z"/><path fill="none" stroke="#00A5FF" stroke-miterlimit="10" stroke-width=".1" d="M12.923 10.958h46.154c1.062 0 1.923.861 1.923 1.923v46.154a1.923 1.923 0 01-1.923 1.923H12.923A1.923 1.923 0 0111 59.035V12.881c0-1.062.861-1.923 1.923-1.923z"/><path fill="none" stroke="#00A5FF" stroke-miterlimit="10" stroke-width=".1" d="M18.254 4h35.492A2.254 2.254 0 0156 6.254v59.492A2.254 2.254 0 0153.746 68H18.254A2.254 2.254 0 0116 65.746V6.254A2.254 2.254 0 0118.254 4z"/><path fill="none" stroke="#00A5FF" stroke-miterlimit="10" stroke-width=".1" d="M68 18.254v35.492A2.254 2.254 0 0165.746 56H6.254A2.254 2.254 0 014 53.746V18.254A2.254 2.254 0 016.254 16h59.492A2.254 2.254 0 0168 18.254z"/><circle cx="36" cy="36" r="29" fill="none" stroke="#00A5FF" stroke-miterlimit="10" stroke-width=".1"/><g stroke-linecap="round" stroke-miterlimit="10" stroke-width="6" stroke="#fff" fill="none" stroke-linejoin="round"><path d="M25 30.934c0 8 5 14 11 14s11-6 11-14c0-5-2-8-6-12-4 4-16 9-16 11v1z"/><path d="M17.248 39.138c.495-2.48 1.786-4.785 2.727-7.204 1.636-4.2-.209-6.451 1.291-12.034 1.48-5.5 7.277-8.966 13.71-8.966 5.4 0 8 3 8 3a8.132 8.132 0 017.404 8.037c.387 7.18 1.025 7.153 3.429 12.822a11.58 11.58 0 01.943 4.14M26.5 39.4H13.4a55.456 55.456 0 014.3 8.4c.507 1.24.941 2.509 1.3 3.8m34-.2c.4-1.2.8-2.4 1.3-3.6a51.128 51.128 0 014.3-8.4H44.7"/><path d="M42 30.1a2 2 0 11-4 0 2 2 0 014 0m-8 0a2 2 0 11-4 0 2 2 0 014 0M33 39c1.875-1 4.125-1 6 0m-1-.5c.24.082.475.182.7.3M17 60v-3c0-5 5-9 10-9 6 5 12 5 18 0 5 0 10 4 10 9v3"/><path d="M34 38.7l.3 2.4.8-2.3-.1-.1zm3.9 0l-.2 2.4-.8-2.3-.1-.1z"/></g><path fill="#3F3F3F" d="M17.658 47.37a24.053 24.053 0 003.633 2.72A10.464 10.464 0 0126.652 48c6.21 5.012 12.495 5.012 18.7 0a8.343 8.343 0 014.21 1.513 22.787 22.787 0 002.971-2.33c1.189-.715 3.125-8.282.392-13.026a23.74 23.74 0 01-1.158-2.632C50.295 28.255 49.744 27.03 49.42 21c.027-3.693-3.794-6.784-7.475-7.093a1.002 1.002 0 01-.688-.343c-.093-.1-2.408-2.655-7.243-2.655-6.2 0-11.442 3.382-12.743 8.226a18.518 18.518 0 00-.565 6.176 13.317 13.317 0 01-.76 5.96 6.804 6.804 0 01-1.12 2.089c-3.772 4.42-.974 14.303-1.167 14.01z"/><path fill="#FCEA2B" d="M25 30.934c0 8 5 14 11 14s11-6 11-14c0-5-2-8-6-12-4 4-16 9-16 11v1z"/><path fill="#D22F27" d="M35.65 45.1c-3.4-.1-8.6-5.7-8.6-5.7h-13.6a82.948 82.948 0 014.3 8.4 48.596 48.596 0 012.8 9.9h30.9a48.596 48.596 0 012.8-9.9 82.948 82.948 0 014.3-8.4h-13.9c.1 0-5.5 5.7-9 5.7z"/><path fill="#3F3F3F" d="M17 61v-3.8c0-5 5-9 10-9 6 5 12 5 18 0 5 0 10 4 10 9V61H17z"/><path d="M31.45 61h9c3.6-2.9 5.6-13.5 5.6-13.5-5.767 5-14.333 5-20.1 0 0-.1 2 10.5 5.5 13.5z"/><g><path fill="none" stroke="#000" stroke-linejoin="round" stroke-width="2" d="M25 30.934c0 8 5 14 11 14s11-6 11-14c0-5-2-8-6-12-4 4-16 9-16 11v1z"/><path fill="none" stroke="#000" stroke-linecap="round" stroke-linejoin="round" stroke-width="2" d="M17.248 39.138c.495-2.48 1.786-4.785 2.727-7.204 1.636-4.2-.209-6.451 1.291-12.034 1.48-5.5 7.277-8.966 13.71-8.966 5.4 0 8 3 8 3a8.132 8.132 0 017.404 8.037c.387 7.18 1.025 7.153 3.429 12.822a11.58 11.58 0 01.943 4.14"/><path fill="none" stroke="#000" stroke-linejoin="round" stroke-width="2" d="M26.5 39.4H13.4a55.456 55.456 0 014.3 8.4c.507 1.24.941 2.509 1.3 3.8m34-.2c.4-1.2.8-2.4 1.3-3.6a51.128 51.128 0 014.3-8.4H44.7"/><path d="M42 30.1a2 2 0 11-4 0 2 2 0 014 0m-8 0a2 2 0 11-4 0 2 2 0 014 0"/><path fill="none" stroke="#000" stroke-linecap="round" stroke-linejoin="round" stroke-width="2" d="M33 39c1.875-1 4.125-1 6 0"/><path fill="none" stroke="#000" stroke-linecap="round" stroke-linejoin="round" d="M38 38.5c.24.082.475.182.7.3"/><path fill="none" stroke="#000" stroke-linecap="round" stroke-linejoin="round" stroke-width="2" d="M17 60v-3c0-5 5-9 10-9 6 5 12 5 18 0 5 0 10 4 10 9v3"/><path stroke="#000" stroke-linecap="round" stroke-linejoin="round" d="M34 38.7l.3 2.4.8-2.3-.1-.1zm3.9 0l-.2 2.4-.8-2.3-.1-.1z"/></g></svg>