<svg viewBox="0 0 72 72" xmlns="http://www.w3.org/2000/svg"><path fill="#b3b3b3" d="M68 4v64H4V4h64m4-4H0v72h72V0z"/><path fill="none" stroke="#00a5ff" stroke-miterlimit="10" stroke-width=".1" d="M12.923 10.958h46.154A1.923 1.923 0 0161 12.881v46.154a1.923 1.923 0 01-1.923 1.923H12.923A1.923 1.923 0 0111 59.035V12.881a1.923 1.923 0 011.923-1.923z"/><rect x="16" y="4" rx="2.254" width="40" height="64" fill="none" stroke="#00a5ff" stroke-miterlimit="10" stroke-width=".1"/><rect x="16" y="4" rx="2.254" width="40" height="64" transform="rotate(90 36 36)" fill="none" stroke="#00a5ff" stroke-miterlimit="10" stroke-width=".1"/><circle cx="36" cy="36" r="29" fill="none" stroke="#00a5ff" stroke-miterlimit="10" stroke-width=".1"/><g stroke-linecap="round" stroke-miterlimit="10" stroke-width="6" stroke="#fff" fill="none" stroke-linejoin="round"><path d="M40.004 63.711A23.967 23.967 0 0054.94 59.6s2-13-10-13c-3.192 2.128-5.926 3.598-9 3.592h.125c-3.074.006-5.808-1.464-9-3.592-12 0-10 13-10 13 9.978 6.02 14.368 3.708 28.119-1.562l.617-3.52-24.068 1.35"/><path d="M45.522 50.562l.797 2.48-1.134 4.995m-3.181-29.299a2 2 0 11-2-2 2 2 0 012 2m-8 0a2 2 0 11-2-2 2 2 0 012 2m2 10.002a7.653 7.653 0 01-3.448-.858 1 1 0 01.895-1.789 5.377 5.377 0 005.105 0 1 1 0 01.895 1.79 7.653 7.653 0 01-3.447.857z"/><path d="M34.006 21.718c-1.28.77-2.47 1.53-3.53 2.24-3.13 2.09-5.21 3.75-5.7 4.14-.07.06-.11.09-.11.09s-3.96-5.34-2.24-10.72c0 0 2.24-8.08 13.04-8.08 7.7 0 11.59 3.17 13.71 5.29 5.58 7.91-.72 12.65-1.94 13.47-.13.09-.2.13-.2.13s-4.41-3.38-9.03-7.75m-.03-1.07a66.431 66.431 0 0111.2-4.78"/><path d="M36.004 25.765h0a2 2 0 01-2-2v-4a2 2 0 012-2h0a2 2 0 012 2v4a2 2 0 01-2 2zm4.769 29.151v4.748M24.743 28.28a17.861 17.861 0 00-.095 1.842c0 7.828 5.077 14.173 11.339 14.173s11.338-6.345 11.338-14.173a17.826 17.826 0 00-.1-1.9"/></g><path fill="#b1cc33" d="M45.522 50.562l.797 2.48-1.134 4.995-5.181 5.674a23.967 23.967 0 0014.937-4.113s2-13-10-13c-3.192 2.128-5.926 3.599-9 3.593h.125c-3.074.006-5.808-1.465-9-3.593-12 0-10 13-10 13 9.978 6.021 14.368 3.708 28.119-1.561l.617-3.521-24.068 1.35 5.31-.908"/><path fill="#b1cc33" d="M54.926 59.599s2-13-10-13c-3.192 2.128-5.927 3.598-9 3.592h.125c-3.074.006-5.808-1.464-9-3.592-12 0-10 13-10 13"/><path fill="#5c9e31" d="M45.208 46.599a18.013 18.013 0 01-8.937 3.588C49.333 50.6 49.333 55.6 50.095 59.6h5.113s2-13-10-13z"/><path fill="#5c9e31" d="M55.208 59.599s-11.756 9.026-20.737 2.963l10.714-4.525 1.134-4.995s8.977-2.464 8.89 6.557z"/><ellipse cx="36.004" cy="30.099" rx="11.339" ry="14.173" fill="#b1cc33"/><path fill="#fff" d="M49.175 14.673c-13.171 4.117-24.51 13.519-24.51 13.519s-3.96-5.34-2.237-10.727c0 0 2.237-8.077 13.036-8.077 7.703 0 11.595 3.17 13.71 5.285 6.147 8.725-2.134 13.604-2.134 13.604a126.166 126.166 0 01-9.655-8.34"/><path fill="#d0cfce" d="M49.175 14.673c6.146 8.725-2.135 13.604-2.135 13.604a126.166 126.166 0 01-9.655-8.34"/><path fill="#fcea2b" d="M36.004 25.765a2 2 0 01-2-2v-4a2 2 0 012-2 2 2 0 012 2v4a2 2 0 01-2 2zm9.181 32.272l-4.412 1.831v-5.245h5.029l-.617 3.414z"/><g><path fill="none" stroke="#000" stroke-linecap="round" stroke-linejoin="round" stroke-width="2" d="M40.004 63.711A23.967 23.967 0 0054.94 59.6s2-13-10-13c-3.192 2.128-5.926 3.598-9 3.592h.125c-3.074.006-5.808-1.464-9-3.592-12 0-10 13-10 13 9.978 6.02 14.368 3.708 28.119-1.562l.617-3.52-24.068 1.35"/><path fill="none" stroke="#000" stroke-linecap="round" stroke-linejoin="round" stroke-width="2" d="M45.522 50.562l.797 2.48-1.134 4.995"/><path d="M42.004 28.738a2 2 0 11-2-2 2 2 0 012 2m-8 0a2 2 0 11-2-2 2 2 0 012 2m2 10.002a7.653 7.653 0 01-3.448-.858 1 1 0 01.895-1.789 5.377 5.377 0 005.105 0 1 1 0 01.895 1.79 7.653 7.653 0 01-3.447.857z"/><path fill="none" stroke="#000" stroke-linecap="round" stroke-linejoin="round" stroke-width="2" d="M34.006 21.718c-1.28.77-2.47 1.53-3.53 2.24-3.13 2.09-5.21 3.75-5.7 4.14-.07.06-.11.09-.11.09s-3.96-5.34-2.24-10.72c0 0 2.24-8.08 13.04-8.08 7.7 0 11.59 3.17 13.71 5.29 5.58 7.91-.72 12.65-1.94 13.47-.13.09-.2.13-.2.13s-4.41-3.38-9.03-7.75m-.03-1.07a66.431 66.431 0 0111.2-4.78"/><path fill="none" stroke="#000" stroke-linecap="round" stroke-linejoin="round" stroke-width="2" d="M36.004 25.765h0a2 2 0 01-2-2v-4a2 2 0 012-2h0a2 2 0 012 2v4a2 2 0 01-2 2zm4.769 29.151v4.748M24.743 28.28a17.861 17.861 0 00-.095 1.842c0 7.828 5.077 14.173 11.339 14.173s11.338-6.345 11.338-14.173a17.826 17.826 0 00-.1-1.9"/></g></svg>