<svg viewBox="0 0 72 72" xmlns="http://www.w3.org/2000/svg"><path fill="#b3b3b3" d="M68 4v64H4V4h64m4-4H0v72h72V0z"/><path fill="none" stroke="#00a5ff" stroke-miterlimit="10" stroke-width=".1" d="M12.923 10.958h46.154A1.923 1.923 0 0161 12.881v46.154a1.923 1.923 0 01-1.923 1.923H12.923A1.923 1.923 0 0111 59.035V12.881a1.923 1.923 0 011.923-1.923z"/><rect x="16" y="4" rx="2.254" width="40" height="64" fill="none" stroke="#00a5ff" stroke-miterlimit="10" stroke-width=".1"/><rect x="16" y="4" rx="2.254" width="40" height="64" transform="rotate(90 36 36)" fill="none" stroke="#00a5ff" stroke-miterlimit="10" stroke-width=".1"/><circle cx="36" cy="36" r="29" fill="none" stroke="#00a5ff" stroke-miterlimit="10" stroke-width=".1"/><path d="M61 27H51m0 8v-8m0 8H41m0 8v-8m0 8H31m0 8v-8m0 8H21m0 8v-8m0 8H11m5.397-19.37l22.627-22.628m-8.485 0h8.485m0 8.485v-8.485M16.397 31.144v8.486m8.485 0h-8.485" stroke-linecap="round" stroke-miterlimit="10" stroke-width="6" stroke="#fff" fill="none" stroke-linejoin="round"/><path fill="#9B9B9A" d="M62 27v33H21v-9h10v-8l9.565.068L42 35h9l1-8z"/><path d="M61 27H51m0 8v-8m0 8H41m0 8v-8m0 8H31m0 8v-8m0 8H21m0 8v-8m0 8H11m5.397-19.37l22.627-22.628m-8.485 0h8.485m0 8.485v-8.485M16.397 31.144v8.486m8.485 0h-8.485" fill="none" stroke="#000" stroke-linecap="round" stroke-linejoin="round" stroke-miterlimit="10" stroke-width="2"/></svg>