<svg viewBox="0 0 72 72" xmlns="http://www.w3.org/2000/svg"><path fill="#b3b3b3" d="M68 4v64H4V4h64m4-4H0v72h72V0z"/><path fill="none" stroke="#00a5ff" stroke-miterlimit="10" stroke-width=".1" d="M12.923 10.958h46.154A1.923 1.923 0 0161 12.881v46.154a1.923 1.923 0 01-1.923 1.923H12.923A1.923 1.923 0 0111 59.035V12.881a1.923 1.923 0 011.923-1.923z"/><rect x="16" y="4" rx="2.254" width="40" height="64" fill="none" stroke="#00a5ff" stroke-miterlimit="10" stroke-width=".1"/><rect x="16" y="4" rx="2.254" width="40" height="64" transform="rotate(90 36 36)" fill="none" stroke="#00a5ff" stroke-miterlimit="10" stroke-width=".1"/><circle cx="36" cy="36" r="29" fill="none" stroke="#00a5ff" stroke-miterlimit="10" stroke-width=".1"/><g stroke-linecap="round" stroke-miterlimit="10" stroke-width="6" stroke="#fff" fill="none" stroke-linejoin="round"><path d="M59.177 59.927l-46 .146a1 1 0 01-1.003-.997l-.147-46a1 1 0 01.997-1.003l46-.146a1 1 0 011.003.997l.146 46a1 1 0 01-.996 1.003zM19.062 27.048L36.036 18m17.026 8.952L36.036 18"/><path d="M30.023 53.008v-22h8.389a5.48 5.48 0 015.479 5.48h0a5.48 5.48 0 01-5.48 5.479h-8.388"/></g><path fill="#61B2E4" d="M12.069 12.235h48.338v47.864H12.069z"/><g fill="none" stroke="#000" stroke-linecap="round" stroke-linejoin="round" stroke-miterlimit="10" stroke-width="2"><path d="M59.177 59.927l-46 .146a1 1 0 01-1.003-.997l-.147-46a1 1 0 01.997-1.003l46-.146a1 1 0 011.003.997l.146 46a1 1 0 01-.996 1.003zM19.062 27.048L36.036 18m17.026 8.952L36.036 18"/><path d="M30.023 53.008v-22h8.389a5.48 5.48 0 015.479 5.48h0a5.48 5.48 0 01-5.48 5.479h-8.388"/></g></svg>