<svg viewBox="0 0 72 72" xmlns="http://www.w3.org/2000/svg"><path fill="#B3B3B3" d="M68 4v64H4V4h64zm4-4H0v72h72V0z"/><path fill="none" stroke="#00A5FF" stroke-miterlimit="10" stroke-width=".1" d="M12.923 10.958h46.154A1.923 1.923 0 0161 12.881v46.154a1.923 1.923 0 01-1.923 1.923H12.923A1.923 1.923 0 0111 59.035V12.881a1.923 1.923 0 011.923-1.923v0z"/><path fill="none" stroke="#00A5FF" stroke-miterlimit="10" stroke-width=".1" d="M53.746 4H18.254A2.254 2.254 0 0016 6.254v59.492A2.254 2.254 0 0018.254 68h35.492A2.254 2.254 0 0056 65.746V6.254A2.254 2.254 0 0053.746 4z"/><path fill="none" stroke="#00A5FF" stroke-miterlimit="10" stroke-width=".1" d="M68 53.746V18.254A2.254 2.254 0 0065.746 16H6.254A2.254 2.254 0 004 18.254v35.492A2.254 2.254 0 006.254 56h59.492A2.254 2.254 0 0068 53.746z"/><path fill="none" stroke="#00A5FF" stroke-miterlimit="10" stroke-width=".1" d="M36 65c16.016 0 29-12.984 29-29S52.016 7 36 7 7 19.984 7 36s12.984 29 29 29z"/><g stroke-linecap="round" stroke-miterlimit="10" stroke-width="6" stroke="#fff" fill="none" stroke-linejoin="round"><path d="M18 54h14M15 27v-1a1 1 0 00-1 1h1zm20 0h1a1 1 0 00-1-1v1zM20 38a1 1 0 10-2 0h2zm4 0a1 1 0 10-2 0h2zm4 0a1 1 0 10-2 0h2zm4 0a1 1 0 10-2 0h2zM15 28h20v-2H15v2zm1 10V27h-2v11h2zm1 1a1 1 0 01-1-1h-2a3 3 0 003 3v-2zm1-1a1 1 0 01-1 1v2a3 3 0 003-3h-2zm3 1a1 1 0 01-1-1h-2a3 3 0 003 3v-2zm1-1a1 1 0 01-1 1v2a3 3 0 003-3h-2zm3 1a1 1 0 01-1-1h-2a3 3 0 003 3v-2zm1-1a1 1 0 01-1 1v2a3 3 0 003-3h-2zm3 1a1 1 0 01-1-1h-2a3 3 0 003 3v-2zm1-1a1 1 0 01-1 1v2a3 3 0 003-3h-2zm3 1a1 1 0 01-1-1h-2a3 3 0 003 3v-2zm1-1a1 1 0 01-1 1v2a3 3 0 003-3h-2zm0-11v11h2V27h-2zm1 32V43M15 59V43m41 17h1a1 1 0 01-1 1v-1zm-14 0v1a1 1 0 01-1-1h1zm7-27a6 6 0 00-6 6h-2a8 8 0 018-8v2zm6 6a6 6 0 00-6-6v-2a8 8 0 018 8h-2zm0 21V39h2v21h-2zm-13-1h14v2H42v-2zm1-20v21h-2V39h2z"/><path d="M12 13h48v47H12z"/><path d="M50.03 16h-4v7h4m-4-3.5h3m8-3.5h-4v7h4m-4-3.5h3m-27 3.5l-3-7-3 7m1-1.68h4M35.03 19.5h-3V23v-7h4M42.2 19.5h-3V23v-7h4M16 16v7m.02-2.461l4-4.539m-2.034 2.357l2.397 4.647"/></g><path fill="#D0CFCE" d="M12 13h48v47H12z"/><path fill="#d0cfce" stroke="#9B9B9A" stroke-linejoin="round" stroke-width="2" d="M44 27h10l-2 5h-6l-2-5z"/><path fill="none" stroke="#9B9B9A" stroke-linejoin="round" stroke-width="2" d="M43.5 34.5L40 31h-4v-4h8m-2 11h-6v-7m18.5 3.5L58 31h1m-3 7h3m-3 7h3m-3 7h3m-23-7h5m-5 7h5"/><path fill="#A57939" fill-rule="evenodd" d="M42 39a7 7 0 1114 0v21H42V39z" clip-rule="evenodd"/><path fill="#3F3F3F" d="M17 40h16v14H17z"/><path fill="#6A462F" d="M54 40h-4v18h4zm-6 0h-4v18h4z"/><path fill="#6A462F" fill-rule="evenodd" d="M44 39a5 5 0 0110 0H44z" clip-rule="evenodd"/><path fill="none" stroke="#9B9B9A" stroke-width="2" d="M54 27h5"/><g fill="none" stroke-width="4"><path stroke="#EA5A47" d="M17 37V27m8 10V27m8 10V27"/><path stroke="#fff" d="M29 37V27m-8 10V27"/><path stroke="#D22F27" d="M17 39v-2m8 2v-2m8 2v-2"/><path stroke="#D0CFCE" d="M29 39v-2m-8 2v-2"/></g><g><path fill="none" stroke="#000" stroke-linecap="round" stroke-width="2" d="M18 54h14"/><path d="M15 27v-1a1 1 0 00-1 1h1zm20 0h1a1 1 0 00-1-1v1zM20 38a1 1 0 10-2 0h2zm4 0a1 1 0 10-2 0h2zm4 0a1 1 0 10-2 0h2zm4 0a1 1 0 10-2 0h2zM15 28h20v-2H15v2zm1 10V27h-2v11h2zm1 1a1 1 0 01-1-1h-2a3 3 0 003 3v-2zm1-1a1 1 0 01-1 1v2a3 3 0 003-3h-2zm3 1a1 1 0 01-1-1h-2a3 3 0 003 3v-2zm1-1a1 1 0 01-1 1v2a3 3 0 003-3h-2zm3 1a1 1 0 01-1-1h-2a3 3 0 003 3v-2zm1-1a1 1 0 01-1 1v2a3 3 0 003-3h-2zm3 1a1 1 0 01-1-1h-2a3 3 0 003 3v-2zm1-1a1 1 0 01-1 1v2a3 3 0 003-3h-2zm3 1a1 1 0 01-1-1h-2a3 3 0 003 3v-2zm1-1a1 1 0 01-1 1v2a3 3 0 003-3h-2zm0-11v11h2V27h-2z"/><path stroke="#000" stroke-linecap="round" stroke-width="2" d="M35 59V43M15 59V43"/><path d="M56 60h1a1 1 0 01-1 1v-1zm-14 0v1a1 1 0 01-1-1h1zm7-27a6 6 0 00-6 6h-2a8 8 0 018-8v2zm6 6a6 6 0 00-6-6v-2a8 8 0 018 8h-2zm0 21V39h2v21h-2zm-13-1h14v2H42v-2zm1-20v21h-2V39h2z"/><path fill="none" stroke="#000" stroke-linejoin="round" stroke-width="2" d="M12 13h48v47H12z"/><path fill="none" stroke="#000" stroke-linecap="round" stroke-linejoin="round" stroke-miterlimit="10" stroke-width="2" d="M50.03 16h-4v7h4m-4-3.5h3m8-3.5h-4v7h4m-4-3.5h3m-27 3.5l-3-7-3 7m1-1.68h4M35.03 19.5h-3V23v-7h4M42.2 19.5h-3V23v-7h4M16 16v7m.02-2.461l4-4.539m-2.034 2.357l2.397 4.647"/></g></svg>