<svg viewBox="0 0 72 72" xmlns="http://www.w3.org/2000/svg"><path fill="#b3b3b3" d="M68 4v64H4V4h64m4-4H0v72h72V0z"/><path fill="none" stroke="#00a5ff" stroke-miterlimit="10" stroke-width=".1" d="M12.923 10.958h46.154A1.923 1.923 0 0161 12.881v46.154a1.923 1.923 0 01-1.923 1.923H12.923A1.923 1.923 0 0111 59.035V12.881a1.923 1.923 0 011.923-1.923z"/><rect x="16" y="4" rx="2.254" width="40" height="64" fill="none" stroke="#00a5ff" stroke-miterlimit="10" stroke-width=".1"/><rect x="16" y="4" rx="2.254" width="40" height="64" transform="rotate(90 36 36)" fill="none" stroke="#00a5ff" stroke-miterlimit="10" stroke-width=".1"/><circle cx="36" cy="36" r="29" fill="none" stroke="#00a5ff" stroke-miterlimit="10" stroke-width=".1"/><g stroke-linecap="round" stroke-miterlimit="10" stroke-width="6" stroke="#fff" fill="none" stroke-linejoin="round"><path d="M19.705 25.833L9.551 32.48l4.175 8.353 8.191 6.132h19.71l13.227-4.578 6.563-11.579-13-7.975-18.25 5.75-10.462-2.75z"/><path d="M9.551 32.48v7l4.175 8.353 8.191 6.132h19.71l13.227-4.578 6.563-11.579v-7"/></g><path fill="#92d3f5" d="M4 4h64v64H4z"/><path fill="#61b2e4" d="M9.55 36.774l-.542.837a6.055 6.055 0 00-.227 6.205l4.315 7.868a6.054 6.054 0 001.68 1.935l5.594 4.188a6.056 6.056 0 003.478 1.206l16.985.422a6.054 6.054 0 001.878-.25l11.445-3.41a6.055 6.055 0 003.527-2.796l5.339-9.334a6.055 6.055 0 00-1.605-7.836"/><path fill="#fff" d="M19.705 25.833L9.551 32.48l4.175 8.353 8.191 6.132h19.71l13.227-4.578 6.563-11.579-13-7.975-18.25 5.75-10.462-2.75z"/><path fill="#fff" d="M9.551 32.48v7l4.175 8.353 8.191 6.132h19.71l13.227-4.578 6.563-11.579v-7"/><path fill="#fff" d="M32.917 53.965l1.125-3.007-1.5-1.375 1.062-2.618m-3.437-18.382l4.187 5.313-3.187 3.687 1.093 3.25-1.78 2.125a32.026 32.026 0 001.124 4.007"/><g fill="none" stroke="#000" stroke-linecap="round" stroke-linejoin="round" stroke-width="2"><path d="M19.705 25.833L9.551 32.48l4.175 8.353 8.191 6.132h19.71l13.227-4.578 6.563-11.579-13-7.975-18.25 5.75-10.462-2.75z"/><path d="M9.551 32.48v7l4.175 8.353 8.191 6.132h19.71l13.227-4.578 6.563-11.579v-7"/></g></svg>