<svg viewBox="0 0 72 72" xmlns="http://www.w3.org/2000/svg"><path fill="#B3B3B3" d="M68 4v64H4V4h64m4-4H0v72h72V0z"/><path fill="none" stroke="#00A5FF" stroke-miterlimit="10" stroke-width=".1" d="M12.923 10.958h46.154c1.062 0 1.923.861 1.923 1.923v46.154a1.923 1.923 0 01-1.923 1.923H12.923A1.923 1.923 0 0111 59.035h0V12.881c0-1.062.861-1.923 1.923-1.923h0z"/><path fill="none" stroke="#00A5FF" stroke-miterlimit="10" stroke-width=".1" d="M18.254 4h35.492A2.254 2.254 0 0156 6.254v59.492A2.254 2.254 0 0153.746 68H18.254A2.254 2.254 0 0116 65.746V6.254A2.254 2.254 0 0118.254 4z"/><path fill="none" stroke="#00A5FF" stroke-miterlimit="10" stroke-width=".1" d="M68 18.254v35.492A2.254 2.254 0 0165.746 56H6.254A2.254 2.254 0 014 53.746V18.254A2.254 2.254 0 016.254 16h59.492A2.254 2.254 0 0168 18.254z"/><circle cx="36" cy="36" r="29" fill="none" stroke="#00A5FF" stroke-miterlimit="10" stroke-width=".1"/><path d="M4.887 44.774c3 0 9 3 15 3s10-3 16-3 11 3 16 3 7-3 15-3m-47.965-5.218V26.493m-5.001 4.614l4.879-5.181a.105.105 0 01.154 0l4.968 5.444m27.616 8.186V26.493m-5 4.614l4.879-5.181a.105.105 0 01.153 0l4.968 5.444" stroke-linecap="round" stroke-miterlimit="10" stroke-width="6" stroke="#fff" fill="none" stroke-linejoin="round"/><path fill="#61B2E4" d="M68 44.774c-8 0-11.113 3-16.113 3s-10-3-16-3-10 3-16 3-12.887-3-15.887-3V68h64V44.774z"/><g fill="none" stroke="#000" stroke-linecap="round" stroke-width="2"><path stroke-linejoin="round" d="M4.887 44.774c3 0 9 3 15 3s10-3 16-3 11 3 16 3 7-3 15-3"/><path stroke-miterlimit="10" d="M18.922 39.556V26.493m-5.001 4.614l4.879-5.181a.105.105 0 01.154 0l4.968 5.444m27.616 8.186V26.493m-5 4.614l4.879-5.181a.105.105 0 01.153 0l4.968 5.444"/></g></svg>