<svg viewBox="0 0 72 72" xmlns="http://www.w3.org/2000/svg"><path fill="#b3b3b3" d="M68 4v64H4V4h64m4-4H0v72h72V0z"/><path fill="none" stroke="#00a5ff" stroke-miterlimit="10" stroke-width=".1" d="M12.923 10.958h46.154A1.923 1.923 0 0161 12.881v46.154a1.923 1.923 0 01-1.923 1.923H12.923A1.923 1.923 0 0111 59.035V12.881a1.923 1.923 0 011.923-1.923z"/><rect x="16" y="4" rx="2.254" width="40" height="64" fill="none" stroke="#00a5ff" stroke-miterlimit="10" stroke-width=".1"/><rect x="16" y="4" rx="2.254" width="40" height="64" transform="rotate(90 36 36)" fill="none" stroke="#00a5ff" stroke-miterlimit="10" stroke-width=".1"/><circle cx="36" cy="36" r="29" fill="none" stroke="#00a5ff" stroke-miterlimit="10" stroke-width=".1"/><g stroke-linecap="round" stroke-miterlimit="10" stroke-width="6" stroke="#fff" fill="none" stroke-linejoin="round"><path d="M33.645 38.054c1.806-2.92 5.868-3.616 5.868-3.616s1.118 3.996-.67 6.838-5.869 3.617-5.869 3.617-1.136-3.919.67-6.839zM32.1 46.457l.807-1.658M28.157 25.663c0-7.445 3.416-13.48 7.63-13.48s7.631 6.035 7.631 13.48"/><rect x="19.693" y="20.941" rx="6.783" width="32.615" height="38.612"/></g><rect x="19.693" y="20.941" rx="6.783" width="32.615" height="38.612" fill="#a57939"/><path fill="#b1cc33" d="M33.427 38.127c1.806-2.92 5.868-3.617 5.868-3.617s1.118 3.996-.67 6.839-5.869 3.616-5.869 3.616-1.136-3.919.67-6.838z"/><g fill="none" stroke="#000" stroke-width="2"><path d="M33.645 38.054c1.806-2.92 5.868-3.616 5.868-3.616s1.118 3.996-.67 6.838-5.869 3.617-5.869 3.617-1.136-3.919.67-6.839zM32.1 46.457l.807-1.658" stroke-linecap="round" stroke-linejoin="round"/><g stroke-miterlimit="10"><path stroke-linecap="round" d="M28.157 25.663c0-7.445 3.416-13.48 7.63-13.48s7.631 6.035 7.631 13.48"/><rect x="19.693" y="20.941" rx="6.783" width="32.615" height="38.612"/></g></g></svg>