<svg viewBox="0 0 72 72" xmlns="http://www.w3.org/2000/svg"><path fill="#b3b3b3" d="M68 4v64H4V4h64m4-4H0v72h72V0z"/><path fill="none" stroke="#00a5ff" stroke-miterlimit="10" stroke-width=".1" d="M12.923 10.958h46.154A1.923 1.923 0 0161 12.881v46.154a1.923 1.923 0 01-1.923 1.923H12.923A1.923 1.923 0 0111 59.035V12.881a1.923 1.923 0 011.923-1.923z"/><rect x="16" y="4" rx="2.254" width="40" height="64" fill="none" stroke="#00a5ff" stroke-miterlimit="10" stroke-width=".1"/><rect x="16" y="4" rx="2.254" width="40" height="64" transform="rotate(90 36 36)" fill="none" stroke="#00a5ff" stroke-miterlimit="10" stroke-width=".1"/><circle cx="36" cy="36" r="29" fill="none" stroke="#00a5ff" stroke-miterlimit="10" stroke-width=".1"/><g stroke-linecap="round" stroke-miterlimit="10" stroke-width="6" stroke="#fff" fill="none" stroke-linejoin="round"><path d="M39.197 30H34l-14 2 3 5-2 3 1 3-5.035 2.014c-.708 8.48-2.98 17.3-5.965 20.986h33.197c-5-6.171-8-26.743-5-36zM53 66h4V42.5L54 41l-1-4-2-.4v14.121"/><path d="M44.197 66H53v-.75L52 64l1-3-3-2 2.945-4.908c-.01-.083-.026-.164-.038-.246L50 49h-3l-1.31-1.965A8.03 8.03 0 0045 47a7.983 7.983 0 00-6.187 2.93"/></g><path fill="#9b9b9a" d="M70.24 10.506a.847.847 0 00-.17-.04c-.01-.05-.03-.1-.04-.14a1.68 1.68 0 01.21.18z"/><path fill="#d0cfce" d="M20 32l3 5-2 3 1 3-5.035 2.014c-.708 8.48-2.98 17.3-5.965 20.986h22V30.143z"/><path fill="#9b9b9a" d="M45 47a7.983 7.983 0 00-6.187 2.93c-1.111-7.297-1.17-15.132.384-19.93H34l-1 .143V66h14V49l-1.302-1.953C45.467 47.026 45.237 47 45 47z"/><path fill="#fff" d="M54 41l-1-4-2-.4V66h6V42.5L54 41z"/><path fill="#3f3f3f" d="M52 64l1-3-3-2 2.943-4.905q-.014-.121-.031-.242L50 49h-3v17h6v-.75z"/><g fill="none" stroke="#000" stroke-linecap="round" stroke-linejoin="round" stroke-width="2"><path d="M39.197 30H34l-14 2 3 5-2 3 1 3-5.035 2.014c-.708 8.48-2.98 17.3-5.965 20.986h33.197c-5-6.171-8-26.743-5-36zM53 66h4V42.5L54 41l-1-4-2-.4v14.121"/><path d="M44.197 66H53v-.75L52 64l1-3-3-2 2.945-4.908c-.01-.083-.026-.164-.038-.246L50 49h-3l-1.31-1.965A8.03 8.03 0 0045 47a7.983 7.983 0 00-6.187 2.93"/></g></svg>