<svg viewBox="0 0 72 72" xmlns="http://www.w3.org/2000/svg"><path fill="#b3b3b3" d="M68 4v64H4V4h64m4-4H0v72h72V0z"/><path fill="none" stroke="#00a5ff" stroke-miterlimit="10" stroke-width=".1" d="M12.923 10.958h46.154A1.923 1.923 0 0161 12.881v46.154a1.923 1.923 0 01-1.923 1.923H12.923A1.923 1.923 0 0111 59.035V12.881a1.923 1.923 0 011.923-1.923z"/><rect x="16" y="4" rx="2.254" width="40" height="64" fill="none" stroke="#00a5ff" stroke-miterlimit="10" stroke-width=".1"/><rect x="16" y="4" rx="2.254" width="40" height="64" transform="rotate(90 36 36)" fill="none" stroke="#00a5ff" stroke-miterlimit="10" stroke-width=".1"/><circle cx="36" cy="36" r="29" fill="none" stroke="#00a5ff" stroke-miterlimit="10" stroke-width=".1"/><g stroke-linecap="round" stroke-miterlimit="10" stroke-width="6" stroke="#fff" fill="none" stroke-linejoin="round"><path d="M24.754 45.133a.629.629 0 11-.315-.545.629.629 0 01.315.545zm-3.146 0a2.515 2.515 0 011.258-2.18l-1.258-2.18a5.03 5.03 0 00-2.516 4.36zm3.775 2.18a2.52 2.52 0 01-2.517 0l-1.258 2.18a5.04 5.04 0 005.033 0zm0-4.36a2.515 2.515 0 011.258 2.18h2.516a5.03 5.03 0 00-2.516-4.359z"/><rect x="16" y="12" rx="6" width="36" height="49"/><path d="M42.347 31.5a9.992 9.992 0 00-16.695 0M29 23l1.797 4.494M36 35.8a10 10 0 10-4 0m0 14.755a4 4 0 104 0"/><rect x="32" y="31" rx="1" width="4" height="25"/></g><rect x="16" y="12" rx="6" width="36" height="49" fill="#f4aa41"/><circle cx="34" cy="26" r="10" fill="#fff"/><ellipse cx="34" cy="31.5" rx="8.348" ry="4.5" fill="#d0cfce"/><path fill="#e27022" d="M52 55V18a6.018 6.018 0 00-6-6v49a6.018 6.018 0 006-6z"/><path fill="#f1b31c" d="M32 31h4v25h-4z"/><g stroke="#000" stroke-linecap="round" stroke-linejoin="round"><path d="M24.754 45.133a.629.629 0 11-.315-.545.629.629 0 01.315.545zm-3.146 0a2.515 2.515 0 011.258-2.18l-1.258-2.18a5.03 5.03 0 00-2.516 4.36zm3.775 2.18a2.52 2.52 0 01-2.517 0l-1.258 2.18a5.04 5.04 0 005.033 0zm0-4.36a2.515 2.515 0 011.258 2.18h2.516a5.03 5.03 0 00-2.516-4.359z"/><rect x="16" y="12" rx="6" width="36" height="49" fill="none" stroke-width="2"/><path fill="none" stroke-width="2" d="M42.347 31.5a9.992 9.992 0 00-16.695 0M29 23l1.797 4.494M36 35.8a10 10 0 10-4 0m0 14.755a4 4 0 104 0"/><rect x="32" y="31" rx="1" width="4" height="25" fill="none" stroke-width="2"/></g></svg>