<svg viewBox="0 0 72 72" xmlns="http://www.w3.org/2000/svg"><path fill="#b3b3b3" d="M68 4v64H4V4h64m4-4H0v72h72V0z"/><path fill="none" stroke="#00a5ff" stroke-miterlimit="10" stroke-width=".1" d="M12.923 10.958h46.154A1.923 1.923 0 0161 12.881v46.154a1.923 1.923 0 01-1.923 1.923H12.923A1.923 1.923 0 0111 59.035V12.881a1.923 1.923 0 011.923-1.923z"/><rect x="16" y="4" rx="2.254" width="40" height="64" fill="none" stroke="#00a5ff" stroke-miterlimit="10" stroke-width=".1"/><rect x="16" y="4" rx="2.254" width="40" height="64" transform="rotate(90 36 36)" fill="none" stroke="#00a5ff" stroke-miterlimit="10" stroke-width=".1"/><circle cx="36" cy="36" r="29" fill="none" stroke="#00a5ff" stroke-miterlimit="10" stroke-width=".1"/><g stroke-linecap="round" stroke-miterlimit="10" stroke-width="6" stroke="#fff" fill="none" stroke-linejoin="round"><path d="M46 57a10 10 0 01-20 0m20 0V38H26v19m7-37h6v10h-6zm-7 18l7-8-5-5v-3h4.972M46 38l-7-8 5-5v-3h-4.73M36 15V5m-6 2v11M42 7v11"/><path d="M37.006 51.875a.76.76 0 11-.38-.658.76.76 0 01.38.658zm-3.8 0a3.039 3.039 0 011.52-2.633l-1.52-2.633a6.078 6.078 0 00-3.04 5.266zm4.561 2.633a3.044 3.044 0 01-3.041 0l-1.52 2.633a6.088 6.088 0 006.081 0zm0-5.266a3.039 3.039 0 011.52 2.633h3.04a6.078 6.078 0 00-3.04-5.266z"/></g><path fill="#9b9b9a" d="M39 30l5-5v-3H28v3l5 5h6z"/><path fill="#d0cfce" d="M33 20h6v10h-6z"/><path fill="#9b9b9a" d="M39 30l7 8v19a10 10 0 01-20 0V38l7-8z"/><path fill="#d0cfce" d="M36 67a10 10 0 01-10-10V38l7-8h6l3 8v19c0 5.523-2.686 10-6 10"/><g stroke="#000" stroke-linecap="round" stroke-linejoin="round"><path fill="none" stroke-width="2" d="M46 57a10 10 0 01-20 0m20 0V38H26v19m7-37h6v10h-6zm-7 18l7-8-5-5v-3h4.972M46 38l-7-8 5-5v-3h-4.73M36 15V5m-6 2v11M42 7v11"/><path d="M37.006 51.875a.76.76 0 11-.38-.658.76.76 0 01.38.658zm-3.8 0a3.039 3.039 0 011.52-2.633l-1.52-2.633a6.078 6.078 0 00-3.04 5.266zm4.561 2.633a3.044 3.044 0 01-3.041 0l-1.52 2.633a6.088 6.088 0 006.081 0zm0-5.266a3.039 3.039 0 011.52 2.633h3.04a6.078 6.078 0 00-3.04-5.266z"/></g></svg>