<svg viewBox="0 0 72 72" xmlns="http://www.w3.org/2000/svg"><path fill="#b3b3b3" d="M68 4v64H4V4h64m4-4H0v72h72V0z"/><path fill="none" stroke="#00a5ff" stroke-miterlimit="10" stroke-width=".1" d="M12.923 10.958h46.154A1.923 1.923 0 0161 12.881v46.154a1.923 1.923 0 01-1.923 1.923H12.923A1.923 1.923 0 0111 59.035V12.881a1.923 1.923 0 011.923-1.923z"/><rect x="16" y="4" rx="2.254" width="40" height="64" fill="none" stroke="#00a5ff" stroke-miterlimit="10" stroke-width=".1"/><rect x="16" y="4" rx="2.254" width="40" height="64" transform="rotate(90 36 36)" fill="none" stroke="#00a5ff" stroke-miterlimit="10" stroke-width=".1"/><circle cx="36" cy="36" r="29" fill="none" stroke="#00a5ff" stroke-miterlimit="10" stroke-width=".1"/><g stroke-linecap="round" stroke-miterlimit="10" stroke-width="6" stroke="#fff" fill="none" stroke-linejoin="round"><path d="M32.625 55.625L37 54m5.85-24.53a.772.772 0 00-.934.51h0c-.685 2.167-3.066 7.137-10.488 10.083l.006.009s-.762.203-.443 1.027c.276.713.98.556 1.167.5 8.302-3.328 10.782-9.112 11.447-11.34.059-.198-.015-.648-.755-.79zM31.625 40.875S40 39 43 29"/><path d="M41 22s3-9 11-4c0 0 8.25.75 8.625 3.375C60.625 21.375 53 23 51 27s3 7-5.125 15.625C45.875 42.625 42 47 36 47l-1 2 2 5 6 1"/><path d="M10.125 46.875S35 24 43 25s2 13.25-5.5 17.625-27.375 4.25-27.375 4.25z"/></g><path fill="#6A462F" d="M40.203 22s3.122-9 11.447-4c0 0 8.585.75 8.975 3.375 0 0-7.935 1.625-10.016 5.625s3.122 7-5.333 15.625c0 0-4.032 4.375-10.276 4.375 0 0-22 3-25 0"/><path fill="#A57939" d="M10.125 46.875S35 24 43 25s2 13.25-5.5 17.625-27.375 4.25-27.375 4.25z"/><path fill="none" stroke="#000" stroke-linecap="round" stroke-linejoin="round" stroke-miterlimit="10" stroke-width="2" d="M32.625 55.625L37 54"/><path d="M42.85 29.47a.772.772 0 00-.934.51c-.685 2.167-3.066 7.137-10.488 10.083l.006.009s-.762.203-.443 1.027c.276.713.98.556 1.167.5 8.302-3.328 10.782-9.112 11.447-11.34.059-.198-.015-.648-.755-.79z"/><path fill="none" stroke="#000" stroke-linecap="round" stroke-linejoin="round" stroke-miterlimit="10" stroke-width="2" d="M31.625 40.875S40 39 43 29m-2-7s3-9 11-4c0 0 8.25.75 8.625 3.375C60.625 21.375 53 23 51 27s3 7-5.125 15.625C45.875 42.625 42 47 36 47l-1 2 2 5 6 1"/><path fill="none" stroke="#000" stroke-linecap="round" stroke-linejoin="round" stroke-miterlimit="10" stroke-width="2" d="M10.125 46.875S35 24 43 25s2 13.25-5.5 17.625-27.375 4.25-27.375 4.25z"/></svg>