<svg viewBox="0 0 72 72" xmlns="http://www.w3.org/2000/svg"><path fill="#b3b3b3" d="M68 4v64H4V4h64m4-4H0v72h72V0z"/><path fill="none" stroke="#00a5ff" stroke-miterlimit="10" stroke-width=".1" d="M12.923 10.958h46.154A1.923 1.923 0 0161 12.881v46.154a1.923 1.923 0 01-1.923 1.923H12.923A1.923 1.923 0 0111 59.035V12.881a1.923 1.923 0 011.923-1.923z"/><rect x="16" y="4" rx="2.254" width="40" height="64" fill="none" stroke="#00a5ff" stroke-miterlimit="10" stroke-width=".1"/><rect x="16" y="4" rx="2.254" width="40" height="64" transform="rotate(90 36 36)" fill="none" stroke="#00a5ff" stroke-miterlimit="10" stroke-width=".1"/><circle cx="36" cy="36" r="29" fill="none" stroke="#00a5ff" stroke-miterlimit="10" stroke-width=".1"/><g stroke-linecap="round" stroke-miterlimit="10" stroke-width="6" stroke="#fff" fill="none" stroke-linejoin="round"><path d="M23 49s4.797 5.025 13.48 5.012C45 54 49 49 49 49M33.625 13.5l-2.5-1.875m4 1.25l-1-2.125m3 2.5L37.25 10m-5.904 43.73l-.971 4.52L27.25 60m6-1l-3-1"/><path d="M40.154 53.73l.971 4.52L44.25 60m-6-1l3-1"/><circle cx="32.25" cy="23" r="2"/><circle cx="40.25" cy="23" r="2"/><path d="M36.372 26.603s5.913-.29 0 5.233c0 0-5.913-5.233 0-5.233z"/><path d="M42 36c2 9 9 9 9 9 2-6-6-11-6-11 7-6 1-10 1-10 0-10-10.375-11-10.375-11C25.25 15 26 24 26 24c-6 4 .625 9.75.625 9.75S19 38 21 45c0 0 8 0 8-9"/></g><ellipse cx="36" cy="43" rx="15" ry="11" fill="#FCEA2B" stroke="#FCEA2B" stroke-miterlimit="10" stroke-width="1.8"/><path fill="#FCEA2B" d="M42.25 36c2 9 9 9 9 9 2-6-6-11-6-11 7-6 1-10 1-10 0-10-10.375-11-10.375-11C25.5 15 26.25 24 26.25 24c-6 4 .625 9.75.625 9.75S19.25 38 21.25 45c0 0 8 0 8-9"/><path fill="#F1B31C" d="M36.622 26.603s5.925-.29 0 5.233c0 0-5.925-5.233 0-5.233z"/><path fill="none" stroke="#000" stroke-linecap="round" stroke-linejoin="round" stroke-miterlimit="10" stroke-width="2" d="M23 49s4.797 5.025 13.48 5.012C45 54 49 49 49 49M33.625 13.5l-2.5-1.875m4 1.25l-1-2.125m3 2.5L37.25 10m-5.904 43.73l-.971 4.52L27.25 60m6-1l-3-1"/><path fill="none" stroke="#000" stroke-linecap="round" stroke-linejoin="round" stroke-miterlimit="10" stroke-width="2" d="M40.154 53.73l.971 4.52L44.25 60m-6-1l3-1"/><circle cx="32.25" cy="23" r="2"/><circle cx="40.25" cy="23" r="2"/><path fill="none" stroke="#000" stroke-linecap="round" stroke-linejoin="round" stroke-miterlimit="10" stroke-width="2" d="M36.372 26.603s5.913-.29 0 5.233c0 0-5.913-5.233 0-5.233z"/><path fill="none" stroke="#000" stroke-linecap="round" stroke-linejoin="round" stroke-miterlimit="10" stroke-width="2" d="M42 36c2 9 9 9 9 9 2-6-6-11-6-11 7-6 1-10 1-10 0-10-10.375-11-10.375-11C25.25 15 26 24 26 24c-6 4 .625 9.75.625 9.75S19 38 21 45c0 0 8 0 8-9"/></svg>