<svg viewBox="0 0 72 72" xmlns="http://www.w3.org/2000/svg"><path fill="#b3b3b3" d="M68 4v64H4V4h64m4-4H0v72h72V0z"/><path fill="none" stroke="#00a5ff" stroke-miterlimit="10" stroke-width=".1" d="M12.923 10.958h46.154A1.923 1.923 0 0161 12.881v46.154a1.923 1.923 0 01-1.923 1.923H12.923A1.923 1.923 0 0111 59.035V12.881a1.923 1.923 0 011.923-1.923z"/><rect x="16" y="4" rx="2.254" width="40" height="64" fill="none" stroke="#00a5ff" stroke-miterlimit="10" stroke-width=".1"/><rect x="16" y="4" rx="2.254" width="40" height="64" transform="rotate(90 36 36)" fill="none" stroke="#00a5ff" stroke-miterlimit="10" stroke-width=".1"/><circle cx="36" cy="36" r="29" fill="none" stroke="#00a5ff" stroke-miterlimit="10" stroke-width=".1"/><g stroke-linecap="round" stroke-miterlimit="10" stroke-width="6" stroke="#fff" fill="none" stroke-linejoin="round"><path d="M55.184 57.69S34.96 45.877 23.097 24.206m22.131 30.096c-11.93.46-17.628-6.88-17.628-6.88"/><path d="M40.528 42.483c-.56-7.195 2.116-10.679 2.116-10.679 8.834 9.654 8.406 16.162 7.681 18.747m-13.311-3.129a30.15 30.15 0 01-13.341-7.162c-8.072-7.419-8.067-18.241-8.232-22.577a1.903 1.903 0 012.264-1.932C34.694 19.103 39.02 32.528 39.02 32.528"/></g><path fill="#b399c8" d="M42.334 49.147a29.945 29.945 0 01-19.338-8.151c-8.014-7.365-8.378-18.076-8.533-22.649l-.022-.627a2.904 2.904 0 013.457-2.951c17.005 3.355 21.695 16.324 22.056 17.4a49.543 49.543 0 013.574 15.922 1 1 0 01-.967 1.052c-.029.001-.106.004-.227.004z"/><path fill="#61b2e4" d="M44.435 55.316c-11.645 0-17.375-6.974-17.652-7.354a1 1 0 01.262-1.424 11.103 11.103 0 0112.774-1.574c-1.465-9.078 1.877-13.568 2.031-13.77a.998.998 0 01.75-.39.97.97 0 01.78.325c8.944 9.771 8.793 16.532 7.908 19.691-.034.14-1.062 4.092-4.772 4.406-.711.062-1.405.09-2.08.09z"/><g fill="none" stroke="#000" stroke-linecap="round" stroke-linejoin="round" stroke-width="2"><path d="M55.184 57.69S34.96 45.877 23.097 24.206m22.131 30.096c-11.93.46-17.628-6.88-17.628-6.88"/><path d="M40.528 42.483c-.56-7.195 2.116-10.679 2.116-10.679 8.834 9.654 8.406 16.162 7.681 18.747m-13.311-3.129a30.15 30.15 0 01-13.341-7.162c-8.072-7.419-8.067-18.241-8.232-22.577a1.903 1.903 0 012.264-1.932C34.694 19.103 39.02 32.528 39.02 32.528"/></g></svg>