<svg viewBox="0 0 72 72" xmlns="http://www.w3.org/2000/svg"><path fill="#b3b3b3" d="M68 4v64H4V4h64m4-4H0v72h72V0z"/><path fill="none" stroke="#00a5ff" stroke-miterlimit="10" stroke-width=".1" d="M12.923 10.958h46.154A1.923 1.923 0 0161 12.881v46.154a1.923 1.923 0 01-1.923 1.923H12.923A1.923 1.923 0 0111 59.035V12.881a1.923 1.923 0 011.923-1.923z"/><rect x="16" y="4" rx="2.254" width="40" height="64" fill="none" stroke="#00a5ff" stroke-miterlimit="10" stroke-width=".1"/><rect x="16" y="4" rx="2.254" width="40" height="64" transform="rotate(90 36 36)" fill="none" stroke="#00a5ff" stroke-miterlimit="10" stroke-width=".1"/><circle cx="36" cy="36" r="29" fill="none" stroke="#00a5ff" stroke-miterlimit="10" stroke-width=".1"/><path d="M49.224 17.187l4.667-4.827H17.207l4.668 4.827m0 0h27.349m-27.022 37.52h27.03m-.008 0l4.667 4.827H17.207l4.668-4.827m.159-37.52h27.031m-27.053 5.36h27.075m-27.098 5.36H49.11m-27.144 5.36h27.167m-27.19 5.36h27.213m-27.236 5.36h27.259m-27.282 5.36h27.304m-27.326 5.36h27.349M22.202 43.983h27.03a9.528 9.528 0 015.646 2.592c3.237 3.236 5.935 5.934 11.33 5.394" stroke-linecap="round" stroke-miterlimit="10" stroke-width="6" stroke="#fff" fill="none" stroke-linejoin="round"/><path fill="#d0cfce" d="M49.224 17.187l4.667-4.827H17.207l4.668 4.827m27.349 37.339l4.667 4.827H17.207l4.668-4.827"/><path fill="#ea5a47" d="M22.034 17.187h27.365v37.52H22.034z"/><path fill="#d22f27" d="M42.926 17.187H49.4v37.52h-6.474z"/><g fill="none" stroke="#000" stroke-linecap="round" stroke-linejoin="round"><path stroke-width="2" d="M49.224 17.187l4.667-4.827H17.207l4.668 4.827"/><path stroke-width="2.158" d="M21.875 17.187h27.349m-27.022 37.52h27.03"/><path stroke-width="2" d="M49.224 54.707l4.667 4.827H17.207l4.668-4.827M22.034 17.187h27.031m-27.053 5.36h27.075m-27.098 5.36H49.11m-27.144 5.36h27.167m-27.19 5.36h27.213m-27.236 5.36h27.259m-27.282 5.36h27.304m-27.326 5.36h27.349M22.202 43.983h27.03a9.528 9.528 0 015.646 2.592c3.237 3.236 5.935 5.934 11.33 5.394"/></g></svg>