<svg viewBox="0 0 72 72" xmlns="http://www.w3.org/2000/svg"><path fill="#b3b3b3" d="M68 4v64H4V4h64m4-4H0v72h72V0z"/><path fill="none" stroke="#00a5ff" stroke-miterlimit="10" stroke-width=".1" d="M12.923 10.958h46.154A1.923 1.923 0 0161 12.881v46.154a1.923 1.923 0 01-1.923 1.923H12.923A1.923 1.923 0 0111 59.035V12.881a1.923 1.923 0 011.923-1.923z"/><rect x="16" y="4" rx="2.254" ry="2.254" width="40" height="64" fill="none" stroke="#00a5ff" stroke-miterlimit="10" stroke-width=".1"/><rect x="16" y="4" rx="2.254" ry="2.254" width="40" height="64" transform="rotate(90 36 36)" fill="none" stroke="#00a5ff" stroke-miterlimit="10" stroke-width=".1"/><circle cx="36" cy="36" r="29" fill="none" stroke="#00a5ff" stroke-miterlimit="10" stroke-width=".1"/><g stroke-linecap="round" stroke-miterlimit="10" stroke-width="6" stroke="#fff" fill="none" stroke-linejoin="round"><ellipse cx="35.81" cy="10.162" rx="3.481" ry="5.162"/><ellipse cx="31.287" cy="19.207" rx="3.481" ry="5.162" transform="rotate(-45 31.287 19.207)"/><ellipse cx="31.287" cy="27.347" rx="3.481" ry="5.162" transform="rotate(-45 31.287 27.347)"/><ellipse cx="31.287" cy="35.488" rx="3.481" ry="5.162" transform="rotate(-45 31.287 35.488)"/><ellipse cx="31.287" cy="43.629" rx="3.481" ry="5.162" transform="rotate(-45 31.287 43.629)"/><ellipse cx="31.287" cy="51.769" rx="3.481" ry="5.162" transform="rotate(-45 31.287 51.77)"/><ellipse cx="40.713" cy="19.207" rx="5.162" ry="3.481" transform="rotate(-45 40.713 19.207)"/><ellipse cx="40.713" cy="27.347" rx="5.162" ry="3.481" transform="rotate(-45 40.713 27.347)"/><ellipse cx="40.713" cy="35.488" rx="5.162" ry="3.481" transform="rotate(-45 40.713 35.488)"/><ellipse cx="40.713" cy="43.629" rx="5.162" ry="3.481" transform="rotate(-45 40.713 43.629)"/><ellipse cx="40.713" cy="51.769" rx="5.162" ry="3.481" transform="rotate(-45 40.713 51.77)"/></g><ellipse cx="35.81" cy="10.162" rx="3.481" ry="5.162" fill="#f4aa41"/><ellipse cx="31.287" cy="19.207" rx="3.481" ry="5.162" transform="rotate(-45 31.287 19.207)" fill="#f1b31c"/><ellipse cx="31.287" cy="27.347" rx="3.481" ry="5.162" transform="rotate(-45 31.287 27.347)" fill="#f1b31c"/><ellipse cx="31.287" cy="35.488" rx="3.481" ry="5.162" transform="rotate(-45 31.287 35.488)" fill="#f1b31c"/><ellipse cx="31.287" cy="43.629" rx="3.481" ry="5.162" transform="rotate(-45 31.287 43.629)" fill="#f1b31c"/><ellipse cx="31.287" cy="51.769" rx="3.481" ry="5.162" transform="rotate(-45 31.287 51.77)" fill="#f1b31c"/><ellipse cx="40.713" cy="19.207" rx="5.162" ry="3.481" transform="rotate(-45 40.713 19.207)" fill="#f1b31c"/><ellipse cx="40.713" cy="27.347" rx="5.162" ry="3.481" transform="rotate(-45 40.713 27.347)" fill="#f1b31c"/><ellipse cx="40.713" cy="35.488" rx="5.162" ry="3.481" transform="rotate(-45 40.713 35.488)" fill="#f1b31c"/><ellipse cx="40.713" cy="43.629" rx="5.162" ry="3.481" transform="rotate(-45 40.713 43.629)" fill="#f1b31c"/><ellipse cx="40.713" cy="51.769" rx="5.162" ry="3.481" transform="rotate(-45 40.713 51.77)" fill="#f1b31c"/><path fill="none" stroke="#000" stroke-miterlimit="10" stroke-width="2" d="M35.79 56v9"/><ellipse cx="35.81" cy="10.162" rx="3.481" ry="5.162" fill="#f4aa41"/><ellipse cx="31.287" cy="19.207" rx="3.481" ry="5.162" transform="rotate(-45 31.287 19.207)" fill="#f1b31c"/><ellipse cx="31.287" cy="27.347" rx="3.481" ry="5.162" transform="rotate(-45 31.287 27.347)" fill="#f1b31c"/><ellipse cx="31.287" cy="35.488" rx="3.481" ry="5.162" transform="rotate(-45 31.287 35.488)" fill="#f1b31c"/><ellipse cx="31.287" cy="43.629" rx="3.481" ry="5.162" transform="rotate(-45 31.287 43.629)" fill="#f1b31c"/><ellipse cx="31.287" cy="51.769" rx="3.481" ry="5.162" transform="rotate(-45 31.287 51.77)" fill="#f1b31c"/><ellipse cx="40.713" cy="19.207" rx="5.162" ry="3.481" transform="rotate(-45 40.713 19.207)" fill="#f1b31c"/><ellipse cx="40.713" cy="27.347" rx="5.162" ry="3.481" transform="rotate(-45 40.713 27.347)" fill="#f1b31c"/><ellipse cx="40.713" cy="35.488" rx="5.162" ry="3.481" transform="rotate(-45 40.713 35.488)" fill="#f1b31c"/><ellipse cx="40.713" cy="43.629" rx="5.162" ry="3.481" transform="rotate(-45 40.713 43.629)" fill="#f1b31c"/><ellipse cx="40.713" cy="51.769" rx="5.162" ry="3.481" transform="rotate(-45 40.713 51.77)" fill="#f1b31c"/><ellipse cx="35.81" cy="10.162" rx="3.481" ry="5.162" fill="#f1b31c"/><ellipse cx="31.287" cy="19.207" rx="3.481" ry="5.162" transform="rotate(-45 31.287 19.207)" fill="#f1b31c"/><ellipse cx="31.287" cy="27.347" rx="3.481" ry="5.162" transform="rotate(-45 31.287 27.347)" fill="#f1b31c"/><ellipse cx="31.287" cy="35.488" rx="3.481" ry="5.162" transform="rotate(-45 31.287 35.488)" fill="#f1b31c"/><ellipse cx="31.287" cy="43.629" rx="3.481" ry="5.162" transform="rotate(-45 31.287 43.629)" fill="#f1b31c"/><ellipse cx="31.287" cy="51.769" rx="3.481" ry="5.162" transform="rotate(-45 31.287 51.77)" fill="#f1b31c"/><ellipse cx="40.713" cy="19.207" rx="5.162" ry="3.481" transform="rotate(-45 40.713 19.207)" fill="#f1b31c"/><ellipse cx="40.713" cy="27.347" rx="5.162" ry="3.481" transform="rotate(-45 40.713 27.347)" fill="#f1b31c"/><ellipse cx="40.713" cy="35.488" rx="5.162" ry="3.481" transform="rotate(-45 40.713 35.488)" fill="#f1b31c"/><ellipse cx="40.713" cy="43.629" rx="5.162" ry="3.481" transform="rotate(-45 40.713 43.629)" fill="#f1b31c"/><ellipse cx="40.713" cy="51.769" rx="5.162" ry="3.481" transform="rotate(-45 40.713 51.77)" fill="#f4aa41"/><g fill="none" stroke="#000" stroke-miterlimit="10" stroke-width="2"><ellipse cx="35.81" cy="10.162" rx="3.481" ry="5.162"/><ellipse cx="31.287" cy="19.207" rx="3.481" ry="5.162" transform="rotate(-45 31.287 19.207)"/><ellipse cx="31.287" cy="27.347" rx="3.481" ry="5.162" transform="rotate(-45 31.287 27.347)"/><ellipse cx="31.287" cy="35.488" rx="3.481" ry="5.162" transform="rotate(-45 31.287 35.488)"/><ellipse cx="31.287" cy="43.629" rx="3.481" ry="5.162" transform="rotate(-45 31.287 43.629)"/><ellipse cx="31.287" cy="51.769" rx="3.481" ry="5.162" transform="rotate(-45 31.287 51.77)"/><ellipse cx="40.713" cy="19.207" rx="5.162" ry="3.481" transform="rotate(-45 40.713 19.207)"/><ellipse cx="40.713" cy="27.347" rx="5.162" ry="3.481" transform="rotate(-45 40.713 27.347)"/><ellipse cx="40.713" cy="35.488" rx="5.162" ry="3.481" transform="rotate(-45 40.713 35.488)"/><ellipse cx="40.713" cy="43.629" rx="5.162" ry="3.481" transform="rotate(-45 40.713 43.629)"/><ellipse cx="40.713" cy="51.769" rx="5.162" ry="3.481" transform="rotate(-45 40.713 51.77)"/></g></svg>