<svg viewBox="0 0 72 72" xmlns="http://www.w3.org/2000/svg"><path fill="#b3b3b3" d="M68 4v64H4V4h64m4-4H0v72h72V0z"/><path fill="none" stroke="#00a5ff" stroke-miterlimit="10" stroke-width=".1" d="M12.923 10.958h46.154A1.923 1.923 0 0161 12.881v46.154a1.923 1.923 0 01-1.923 1.923H12.923A1.923 1.923 0 0111 59.035V12.881a1.923 1.923 0 011.923-1.923z"/><rect x="16" y="4" rx="2.254" width="40" height="64" fill="none" stroke="#00a5ff" stroke-miterlimit="10" stroke-width=".1"/><rect x="16" y="4" rx="2.254" width="40" height="64" transform="rotate(90 36 36)" fill="none" stroke="#00a5ff" stroke-miterlimit="10" stroke-width=".1"/><circle cx="36" cy="36" r="29" fill="none" stroke="#00a5ff" stroke-miterlimit="10" stroke-width=".1"/><path d="M36.044 10.906c3.692 4.616 5.539 8.308 6.462 15.693.417 3.338 0 5.538-.284 7.924 0 0 11.32-9.77 18.704-7.001 0 0-6.461 6.461-7.384 9.23-.923 2.77-2.77 6.462-6.462 6.462 0 0 0 4.616 10.154 2.77 0 0-6.461 10.153-17.538 5.538 0 0-1.846.923-1.846 7.384h-3.611c0-6.461-1.847-7.384-1.847-7.384-11.077 4.615-17.538-5.539-17.538-5.539 10.154 1.847 10.154-2.769 10.154-2.769-3.693 0-5.539-3.692-6.462-6.461-.923-2.77-7.384-9.231-7.384-9.231 7.384-2.77 18.704 7.001 18.704 7.001-.283-2.386-.7-4.586-.283-7.924.923-7.385 2.769-11.077 6.461-15.693h0z" stroke-linecap="round" stroke-miterlimit="10" stroke-width="6" stroke="#fff" fill="none" stroke-linejoin="round"/><path fill="#f4aa41" d="M36.044 11.166c3.692 4.615 5.539 8.308 6.462 15.692.417 3.339 0 5.539-.284 7.925 0 0 11.32-9.77 18.704-7.001 0 0-6.461 6.461-7.384 9.23-.923 2.77-2.77 6.462-6.462 6.462 0 0 0 4.615 10.154 2.769 0 0-6.461 10.154-17.538 5.538 0 0-1.846.924-1.846 7.385h-3.611c0-6.461-1.847-7.384-1.847-7.384-11.077 4.615-17.538-5.539-17.538-5.539 10.154 1.846 10.154-2.77 10.154-2.77-3.692 0-5.539-3.691-6.462-6.46-.923-2.77-7.384-9.231-7.384-9.231 7.384-2.77 18.704 7 18.704 7-.283-2.385-.7-4.585-.283-7.924.923-7.384 2.769-11.077 6.461-15.692z"/><path fill="none" stroke="#000" stroke-linecap="round" stroke-linejoin="round" stroke-miterlimit="10" stroke-width="2" d="M36.044 10.906c3.692 4.616 5.539 8.308 6.462 15.693.417 3.338 0 5.538-.284 7.924 0 0 11.32-9.77 18.704-7.001 0 0-6.461 6.461-7.384 9.23-.923 2.77-2.77 6.462-6.462 6.462 0 0 0 4.616 10.154 2.77 0 0-6.461 10.153-17.538 5.538 0 0-1.846.923-1.846 7.384h-3.611c0-6.461-1.847-7.384-1.847-7.384-11.077 4.615-17.538-5.539-17.538-5.539 10.154 1.847 10.154-2.769 10.154-2.769-3.693 0-5.539-3.692-6.462-6.461-.923-2.77-7.384-9.231-7.384-9.231 7.384-2.77 18.704 7.001 18.704 7.001-.283-2.386-.7-4.586-.283-7.924.923-7.385 2.769-11.077 6.461-15.693h0z"/></svg>