<svg viewBox="0 0 72 72" xmlns="http://www.w3.org/2000/svg"><path fill="#b3b3b3" d="M68 4v64H4V4h64m4-4H0v72h72V0z"/><path fill="none" stroke="#00a5ff" stroke-miterlimit="10" stroke-width=".1" d="M12.923 10.958h46.154A1.923 1.923 0 0161 12.881v46.154a1.923 1.923 0 01-1.923 1.923H12.923A1.923 1.923 0 0111 59.035V12.881a1.923 1.923 0 011.923-1.923z"/><rect x="16" y="4" rx="2.254" width="40" height="64" fill="none" stroke="#00a5ff" stroke-miterlimit="10" stroke-width=".1"/><rect x="16" y="4" rx="2.254" width="40" height="64" transform="rotate(90 36 36)" fill="none" stroke="#00a5ff" stroke-miterlimit="10" stroke-width=".1"/><circle cx="36" cy="36" r="29" fill="none" stroke="#00a5ff" stroke-miterlimit="10" stroke-width=".1"/><path d="M19.762 22.361C26.154 17.008 36.05 18.5 36.05 18.5s-.47 10.065-6.762 15.254S13 37.616 13 37.616s.37-9.9 6.762-15.255zm35.97 14.328c5.432 6.231 4.132 16.317 4.132 16.317s-9.931-.223-15.363-6.454-4.132-16.317-4.132-16.317 10.046.069 15.363 6.454z" stroke-linecap="round" stroke-miterlimit="10" stroke-width="6" stroke="#fff" fill="none" stroke-linejoin="round"/><path fill="#a57939" d="M55.732 36.689c5.432 6.231 4.132 16.317 4.132 16.317s-9.931-.223-15.363-6.454-4.132-16.317-4.132-16.317 10.046.069 15.363 6.454z"/><path fill="#e27022" d="M19.762 22.361C26.154 17.008 36.05 18.5 36.05 18.5s-.47 10.065-6.762 15.254S13 37.616 13 37.616s.37-9.9 6.762-15.255z"/><g fill="none" stroke="#000" stroke-linecap="round" stroke-linejoin="round" stroke-width="2"><path d="M19.762 22.361C26.154 17.008 36.05 18.5 36.05 18.5s-.47 10.065-6.762 15.254S13 37.616 13 37.616s.37-9.9 6.762-15.255zm35.97 14.328c5.432 6.231 4.132 16.317 4.132 16.317s-9.931-.223-15.363-6.454-4.132-16.317-4.132-16.317 10.046.069 15.363 6.454z"/></g></svg>