<svg viewBox="0 0 72 72" xmlns="http://www.w3.org/2000/svg"><path fill="#b3b3b3" d="M68 4v64H4V4h64m4-4H0v72h72V0z"/><path fill="none" stroke="#00a5ff" stroke-miterlimit="10" stroke-width=".1" d="M12.923 10.958h46.154A1.923 1.923 0 0161 12.881v46.154a1.923 1.923 0 01-1.923 1.923H12.923A1.923 1.923 0 0111 59.035V12.881a1.923 1.923 0 011.923-1.923z"/><rect x="16" y="4" rx="2.254" width="40" height="64" fill="none" stroke="#00a5ff" stroke-miterlimit="10" stroke-width=".1"/><rect x="16" y="4" rx="2.254" width="40" height="64" transform="rotate(90 36 36)" fill="none" stroke="#00a5ff" stroke-miterlimit="10" stroke-width=".1"/><circle cx="36" cy="36" r="29" fill="none" stroke="#00a5ff" stroke-miterlimit="10" stroke-width=".1"/><g stroke-linecap="round" stroke-miterlimit="10" stroke-width="6" stroke="#fff" fill="none" stroke-linejoin="round"><path d="M13.125 36.792c4.094 1.364 5.14 1.552 11.563.145m34.187-.145c-4.094 1.364-5.14 1.552-11.563.145m-34.187-.145c4.094 1.364 5.14 1.552 11.563.145"/><path d="M13.125 36.792L25.375 48.5c2.063 2 4.752 3.688 10.625 3.688S44.563 50.5 46.625 48.5l12.25-11.708m-45.75 0c3.719-2.417 8.125-7.573 12.792-11.667 1.083-.953 2.385-2.094 4.77-.953l3.141 1.672c.724.419.971.562 2.172.562s1.448-.143 2.172-.562l3.14-1.672c2.386-1.14 3.688 0 4.771.953 4.667 4.094 9.073 9.25 12.792 11.667m0 0c-4.094 1.364-5.14 1.552-11.563.145"/><path d="M36 40.438c-6.253 0-7.984-4-11.313-3.5 5.516-4.157 8.547-.5 11.313-.5s5.797-3.657 11.313.5c-3.329-.5-5.06 3.5-11.313 3.5z"/></g><path fill="#ea5a47" d="M58.875 36.792c-3.719-2.417-8.125-7.573-12.792-11.667-1.083-.953-2.385-2.094-4.77-.953l-3.141 1.672c-.724.419-.971.562-2.172.562s-1.448-.143-2.172-.562l-3.14-1.672c-2.386-1.14-3.688 0-4.771.953-4.667 4.094-9.073 9.25-12.792 11.667L25.375 48.5c2.063 2 4.752 3.688 10.625 3.688S44.563 50.5 46.625 48.5l12.25-11.708z"/><path fill="#FFF" d="M36 40.438c-6.253 0-7.984-4-11.313-3.5 5.516-4.157 8.547-.5 11.313-.5s5.797-3.657 11.313.5c-3.329-.5-5.06 3.5-11.313 3.5z"/><path fill="#FFF" d="M36 40.438c-6.253 0-7.984-4-11.313-3.5 5.516-4.157 8.547-.5 11.313-.5s5.797-3.657 11.313.5c-3.329-.5-5.06 3.5-11.313 3.5z"/><g fill="none" stroke="#000" stroke-linecap="round" stroke-linejoin="round" stroke-miterlimit="10" stroke-width="2"><path d="M13.125 36.792c4.094 1.364 5.14 1.552 11.563.145m34.187-.145c-4.094 1.364-5.14 1.552-11.563.145m-34.187-.145c4.094 1.364 5.14 1.552 11.563.145"/><path d="M13.125 36.792L25.375 48.5c2.063 2 4.752 3.688 10.625 3.688S44.563 50.5 46.625 48.5l12.25-11.708m-45.75 0c3.719-2.417 8.125-7.573 12.792-11.667 1.083-.953 2.385-2.094 4.77-.953l3.141 1.672c.724.419.971.562 2.172.562s1.448-.143 2.172-.562l3.14-1.672c2.386-1.14 3.688 0 4.771.953 4.667 4.094 9.073 9.25 12.792 11.667m0 0c-4.094 1.364-5.14 1.552-11.563.145"/><path d="M36 40.438c-6.253 0-7.984-4-11.313-3.5 5.516-4.157 8.547-.5 11.313-.5s5.797-3.657 11.313.5c-3.329-.5-5.06 3.5-11.313 3.5z"/></g></svg>