<svg viewBox="0 0 72 72" xmlns="http://www.w3.org/2000/svg"><path fill="#b3b3b3" d="M68 4v64H4V4h64m4-4H0v72h72V0z"/><path fill="none" stroke="#00a5ff" stroke-miterlimit="10" stroke-width=".1" d="M12.923 10.958h46.154A1.923 1.923 0 0161 12.881v46.154a1.923 1.923 0 01-1.923 1.923H12.923A1.923 1.923 0 0111 59.035V12.881a1.923 1.923 0 011.923-1.923z"/><rect x="16" y="4" rx="2.254" width="40" height="64" fill="none" stroke="#00a5ff" stroke-miterlimit="10" stroke-width=".1"/><rect x="16" y="4" rx="2.254" width="40" height="64" transform="rotate(90 36 36)" fill="none" stroke="#00a5ff" stroke-miterlimit="10" stroke-width=".1"/><circle cx="36" cy="36" r="29" fill="none" stroke="#00a5ff" stroke-miterlimit="10" stroke-width=".1"/><g stroke-linecap="round" stroke-miterlimit="10" stroke-width="6" stroke="#fff" fill="none" stroke-linejoin="round"><path d="M41.256 43.458l.537-.358a2 2 0 012.523.25l1.295 1.295a2 2 0 01.145 2.666l-.653.814a2 2 0 01-1.668.745l-1.177-.064a2 2 0 01-1.892-1.997v-1.687a2 2 0 01.89-1.664zm-16.036-.016l.62-.553a2 2 0 011.33-.505h10.574a2 2 0 011.33.505l.62.553a2 2 0 01.671 1.494v2.341a2 2 0 01-.67 1.495l-.622.552a2 2 0 01-1.329.506H27.17a2 2 0 01-1.329-.506l-.622-.552a2 2 0 01-.67-1.495v-2.34a2 2 0 01.67-1.495z"/><path d="M45.678 45.039l-1.859-1.859a2 2 0 01-.577-1.595l.756-8.316q.008-.088.024-.176l1.53-8.414a2 2 0 01.858-1.306l3.485-2.324a2 2 0 011.897-.174l3.734 1.6a2 2 0 011.212 1.838v3.345a2 2 0 01-.176.821l-7.104 15.785a2 2 0 01-1.191 1.077l-.542.18a2 2 0 01-2.047-.482zm-31.282-.622c-1.72.656-1.495 2.417-.075 2.698m0-.001a1.407 1.407 0 00.057 2.763m1.738.269l-1.738-.269m1.479-2.763l-1.536.001m1.326-2.79l-1.251.092"/><path d="M14.396 44.417a1.399 1.399 0 01.088-2.785l2.45-.182a2.04 2.04 0 001.848-2.102 13.463 13.463 0 01.343-3.523c.528-.884 2.234-.802 2.502.092l.726 4.997a2.002 2.002 0 00.2.628l1.63 3.166v3.53l-2.447 1.586a1.999 1.999 0 01-1.087.322h-4.534"/></g><path fill="#d0cfce" d="M18.862 40.352l.263-5.488 2.501.092.831 5.439 2.029 3.943v4.468l-2.55 1.494-7.855-.53-.188-8.828 4.969-.59zm21.877 3.7l2.791-1.861 3.722 3.722-2.418 3.012-4.095-.221v-4.652z"/><path fill="#d0cfce" d="M23.991 43.587l1.861-1.861h12.096l1.861 1.861v4.652L37.948 50.1H25.852l-1.861-1.861v-4.652zm22.902 2.326l-3.395-3.396.848-9.337 1.698-9.337 5.093-3.395 5.942 2.547v5.092l-7.64 16.977-2.546.849z"/><path fill="#9b9b9a" d="M53.84 22.357s.928 6.588-6.962 22.451c0 0 3.079.85 7.482-9.95s6.45-11.512-.52-12.501m-8.412 22.467l-2.946 3.557h3.49l-.544-3.557z"/><g fill="none" stroke="#000" stroke-width="2"><path stroke-linecap="round" stroke-linejoin="round" d="M41.256 43.458l.537-.358a2 2 0 012.523.25l1.295 1.295a2 2 0 01.145 2.666l-.653.814a2 2 0 01-1.668.745l-1.177-.064a2 2 0 01-1.892-1.997v-1.687a2 2 0 01.89-1.664z"/><path stroke-miterlimit="10" d="M25.22 43.442l.62-.553a2 2 0 011.33-.505h10.574a2 2 0 011.33.505l.62.553a2 2 0 01.671 1.494v2.341a2 2 0 01-.67 1.495l-.622.552a2 2 0 01-1.329.506H27.17a2 2 0 01-1.329-.506l-.622-.552a2 2 0 01-.67-1.495v-2.34a2 2 0 01.67-1.495zm20.458 1.597l-1.859-1.859a2 2 0 01-.577-1.595l.756-8.316q.008-.088.024-.176l1.53-8.414a2 2 0 01.858-1.306l3.485-2.324a2 2 0 011.897-.174l3.734 1.6a2 2 0 011.212 1.838v3.345a2 2 0 01-.176.821l-7.104 15.785a2 2 0 01-1.191 1.077l-.542.18a2 2 0 01-2.047-.482z"/><g stroke-linecap="round" stroke-linejoin="round"><path d="M14.396 44.417c-1.72.656-1.495 2.417-.075 2.698m0-.001a1.407 1.407 0 00.057 2.763m1.738.269l-1.738-.269m1.479-2.763l-1.536.001m1.326-2.79l-1.251.092"/><path d="M14.396 44.417a1.399 1.399 0 01.088-2.785l2.45-.182a2.04 2.04 0 001.848-2.102 13.463 13.463 0 01.343-3.523c.528-.884 2.234-.802 2.502.092l.726 4.997a2.002 2.002 0 00.2.628l1.63 3.166v3.53l-2.447 1.586a1.999 1.999 0 01-1.087.322h-4.534"/></g></g></svg>