<svg viewBox="0 0 72 72" xmlns="http://www.w3.org/2000/svg"><path fill="#b3b3b3" d="M68 4v64H4V4h64m4-4H0v72h72V0z"/><path fill="none" stroke="#00a5ff" stroke-miterlimit="10" stroke-width=".1" d="M12.923 10.958h46.154A1.923 1.923 0 0161 12.881v46.154a1.923 1.923 0 01-1.923 1.923H12.923A1.923 1.923 0 0111 59.035V12.881a1.923 1.923 0 011.923-1.923z"/><rect x="16" y="4" rx="2.254" width="40" height="64" fill="none" stroke="#00a5ff" stroke-miterlimit="10" stroke-width=".1"/><rect x="16" y="4" rx="2.254" width="40" height="64" transform="rotate(90 36 36)" fill="none" stroke="#00a5ff" stroke-miterlimit="10" stroke-width=".1"/><circle cx="36" cy="36" r="29" fill="none" stroke="#00a5ff" stroke-miterlimit="10" stroke-width=".1"/><path d="M56.846 18.796a11.642 11.642 0 00-10.55-5.013c-4.808.546-6.06 2.765-10.357 3.188-4.296-.423-5.55-2.642-10.357-3.188a11.642 11.642 0 00-10.55 5.013c-2.758 4.212-2.153 10.504 1.812 15.318a6.092 6.092 0 011.444 3.626c.237 6.121 1.402 23.342 6.988 24.508 4.31.9 2.03-19.697 10.663-19.43 8.632-.267 6.354 20.329 10.663 19.43 5.586-1.166 6.75-18.387 6.988-24.508a6.092 6.092 0 011.444-3.626c3.965-4.814 4.57-11.106 1.812-15.318z" stroke-linecap="round" stroke-miterlimit="10" stroke-width="6" stroke="#fff" fill="none" stroke-linejoin="round"/><path fill="#fff" d="M56.846 18.796a11.642 11.642 0 00-10.55-5.013c-4.808.546-6.06 2.765-10.357 3.188-4.296-.423-5.55-2.642-10.357-3.188a11.642 11.642 0 00-10.55 5.013c-2.758 4.212-2.153 10.504 1.812 15.318a6.092 6.092 0 011.444 3.626c.237 6.121 1.402 23.342 6.988 24.508 4.31.9 2.03-19.697 10.663-19.43 8.632-.267 6.354 20.329 10.663 19.43 5.586-1.166 6.75-18.387 6.988-24.508a6.092 6.092 0 011.444-3.626c3.965-4.814 4.57-11.106 1.812-15.318z"/><path fill="#d0cfce" d="M56.846 18.796c-1.252-2.796-12.474-7.687-10.55-5.013 3.06 4.252 4.207 12.231 3.257 20.922-.818 7.468-5.476 23.877-5.476 23.877-.365 2.232.97 4.208 1.83 4.071 2.375-.377 7.936-7.613 7.683-24.913a5.675 5.675 0 011.443-3.626 14.41 14.41 0 001.813-15.318z"/><g><path fill="none" stroke="#000" stroke-miterlimit="10" stroke-width="2" d="M56.846 18.796a11.642 11.642 0 00-10.55-5.013c-4.808.546-6.06 2.765-10.357 3.188-4.296-.423-5.55-2.642-10.357-3.188a11.642 11.642 0 00-10.55 5.013c-2.758 4.212-2.153 10.504 1.812 15.318a6.092 6.092 0 011.444 3.626c.237 6.121 1.402 23.342 6.988 24.508 4.31.9 2.03-19.697 10.663-19.43 8.632-.267 6.354 20.329 10.663 19.43 5.586-1.166 6.75-18.387 6.988-24.508a6.092 6.092 0 011.444-3.626c3.965-4.814 4.57-11.106 1.812-15.318z"/></g></svg>