<svg viewBox="0 0 72 72" xmlns="http://www.w3.org/2000/svg"><path fill="#b3b3b3" d="M68 4v64H4V4h64m4-4H0v72h72V0z"/><path fill="none" stroke="#00a5ff" stroke-miterlimit="10" stroke-width=".1" d="M12.923 10.958h46.154A1.923 1.923 0 0161 12.881v46.154a1.923 1.923 0 01-1.923 1.923H12.923A1.923 1.923 0 0111 59.035V12.881a1.923 1.923 0 011.923-1.923z"/><rect x="16" y="4" rx="2.254" width="40" height="64" fill="none" stroke="#00a5ff" stroke-miterlimit="10" stroke-width=".1"/><rect x="16" y="4" rx="2.254" width="40" height="64" transform="rotate(90 36 36)" fill="none" stroke="#00a5ff" stroke-miterlimit="10" stroke-width=".1"/><circle cx="36" cy="36" r="29" fill="none" stroke="#00a5ff" stroke-miterlimit="10" stroke-width=".1"/><path d="M38 13s2 18 2 23c0 4.123-2.172 7.586-5 9-4 2-14 7-19 7h-3.4a4.894 4.894 0 00-.6 2.5 3.5 3.5 0 003.5 3.5H49a5 5 0 005-5c0-6-3-11-3-17s3-23 3-23m-6 34a4 4 0 01-4 4" stroke-linecap="round" stroke-miterlimit="10" stroke-width="6" stroke="#fff" fill="none" stroke-linejoin="round"/><path fill="#fcea2b" d="M38 13s2 18 2 23c0 4.123-2.172 7.586-5 9-4 2-14 7-19 7h-3.4a4.894 4.894 0 00-.6 2.5 3.5 3.5 0 003.5 3.5H49a5 5 0 005-5c0-6-3-11-3-17s3-23 3-23v-1H38z"/><path fill="#f1b31c" d="M45.5 58H49a5 5 0 005-5c0-6-3-11-3-17s3-23 3-23v-1h-4s-3 17-3 23 3 11 3 17a5 5 0 01-5 5z"/><g fill="none" stroke="#000" stroke-linecap="round" stroke-width="2"><path stroke-linejoin="round" d="M38 13s2 18 2 23c0 4.123-2.172 7.586-5 9-4 2-14 7-19 7h-3.4a4.894 4.894 0 00-.6 2.5 3.5 3.5 0 003.5 3.5H49a5 5 0 005-5c0-6-3-11-3-17s3-23 3-23"/><path stroke-miterlimit="10" d="M48 47a4 4 0 01-4 4"/></g></svg>