<svg viewBox="0 0 72 72" xmlns="http://www.w3.org/2000/svg"><path fill="#b3b3b3" d="M68 4v64H4V4h64m4-4H0v72h72V0z"/><path fill="none" stroke="#00a5ff" stroke-miterlimit="10" stroke-width=".1" d="M12.923 10.958h46.154A1.923 1.923 0 0161 12.881v46.154a1.923 1.923 0 01-1.923 1.923H12.923A1.923 1.923 0 0111 59.035V12.881a1.923 1.923 0 011.923-1.923z"/><rect x="16" y="4" rx="2.254" width="40" height="64" fill="none" stroke="#00a5ff" stroke-miterlimit="10" stroke-width=".1"/><rect x="16" y="4" rx="2.254" width="40" height="64" transform="rotate(90 36 36)" fill="none" stroke="#00a5ff" stroke-miterlimit="10" stroke-width=".1"/><circle cx="36" cy="36" r="29" fill="none" stroke="#00a5ff" stroke-miterlimit="10" stroke-width=".1"/><g stroke-linecap="round" stroke-miterlimit="10" stroke-width="6" stroke="#fff" fill="none" stroke-linejoin="round"><path d="M32.24 32.645c-.16-.661-.27-1.294-.472-1.895a18.1 18.1 0 00-.924-2.357 3.204 3.204 0 00-4.43-1.628 9.748 9.748 0 00-2.647 1.683 26.67 26.67 0 00-5.973 7.645 21.851 21.851 0 00-2.231 5.582 14.915 14.915 0 00-.416 2.843c-.074 2.303-.073 4.608-.062 6.912a10.923 10.923 0 00.487 3.405 3.235 3.235 0 003.14 2.455 1.635 1.635 0 01.29.065h.152c.337-.04.676-.07 1.01-.122a15.89 15.89 0 006.629-2.851 15.632 15.632 0 004.808-5.14 9.095 9.095 0 001.241-4.747q-.092-3.889-.175-7.778a23.371 23.371 0 00-.426-4.072zm5.255-.319c.05-.224.089-.38.122-.536a11.836 11.836 0 011.278-3.632 3.228 3.228 0 012.653-1.841 4.326 4.326 0 012.22.553 14.593 14.593 0 014.247 3.511 29.367 29.367 0 015.124 8.203 16.216 16.216 0 011.432 6.624c-.012.528.039 1.058.061 1.588v4.861c-.025.198-.041.397-.078.592a23.776 23.776 0 01-.532 2.665 2.984 2.984 0 01-2.322 2.162 6.52 6.52 0 01-3.189-.163 17.333 17.333 0 01-10.115-7.276 8.913 8.913 0 01-1.55-5.152c.049-2.644.118-5.287.175-7.93a23.711 23.711 0 01.474-4.229z"/><path d="M34.604 14.562v15.173a7.037 7.037 0 01-2.55 5.457 25.564 25.564 0 01-6.83 3.774s-4.39 1.839-6.053 8.358m5.92-2.195s-.436-4.92 1.08-6.552M21.3 36.82s1.966 2.145 6.039 1.236"/><path d="M34.604 14.562v15.173a7.038 7.038 0 002.55 5.457 25.566 25.566 0 006.83 3.774s4.391 1.839 6.054 8.358m-5.921-2.195s.437-4.92-1.079-6.552m4.872-1.757s-1.967 2.145-6.04 1.236"/></g><path d="M32.24 32.645c-.16-.661-.27-1.294-.472-1.895a18.1 18.1 0 00-.924-2.357 3.204 3.204 0 00-4.43-1.628 9.748 9.748 0 00-2.647 1.683 26.67 26.67 0 00-5.973 7.645 21.851 21.851 0 00-2.231 5.582 14.915 14.915 0 00-.416 2.843c-.074 2.303-.073 4.608-.062 6.912a10.923 10.923 0 00.487 3.405 3.235 3.235 0 003.14 2.455 1.635 1.635 0 01.29.065h.152c.337-.04.676-.07 1.01-.122a15.89 15.89 0 006.629-2.851 15.632 15.632 0 004.808-5.14 9.095 9.095 0 001.241-4.747q-.092-3.889-.175-7.778a23.371 23.371 0 00-.426-4.072zm5.255-.319c.05-.224.089-.38.122-.536a11.836 11.836 0 011.278-3.632 3.228 3.228 0 012.653-1.841 4.326 4.326 0 012.22.553 14.593 14.593 0 014.247 3.511 29.367 29.367 0 015.124 8.203 16.216 16.216 0 011.432 6.624c-.012.528.039 1.058.061 1.588v4.861c-.025.198-.041.397-.078.592a23.776 23.776 0 01-.532 2.665 2.984 2.984 0 01-2.322 2.162 6.52 6.52 0 01-3.189-.163 17.333 17.333 0 01-10.115-7.276 8.913 8.913 0 01-1.55-5.152c.049-2.644.118-5.287.175-7.93a23.711 23.711 0 01.474-4.229z" fill="#ea5a47"/><g fill="none" stroke="#000" stroke-linecap="round" stroke-linejoin="round" stroke-width="2"><path d="M32.24 32.645c-.16-.661-.27-1.294-.472-1.895a18.1 18.1 0 00-.924-2.357 3.204 3.204 0 00-4.43-1.628 9.748 9.748 0 00-2.647 1.683 26.67 26.67 0 00-5.973 7.645 21.851 21.851 0 00-2.231 5.582 14.915 14.915 0 00-.416 2.843c-.074 2.303-.073 4.608-.062 6.912a10.923 10.923 0 00.487 3.405 3.235 3.235 0 003.14 2.455 1.635 1.635 0 01.29.065h.152c.337-.04.676-.07 1.01-.122a15.89 15.89 0 006.629-2.851 15.632 15.632 0 004.808-5.14 9.095 9.095 0 001.241-4.747q-.092-3.889-.175-7.778a23.371 23.371 0 00-.426-4.072zm5.255-.319c.05-.224.089-.38.122-.536a11.836 11.836 0 011.278-3.632 3.228 3.228 0 012.653-1.841 4.326 4.326 0 012.22.553 14.593 14.593 0 014.247 3.511 29.367 29.367 0 015.124 8.203 16.216 16.216 0 011.432 6.624c-.012.528.039 1.058.061 1.588v4.861c-.025.198-.041.397-.078.592a23.776 23.776 0 01-.532 2.665 2.984 2.984 0 01-2.322 2.162 6.52 6.52 0 01-3.189-.163 17.333 17.333 0 01-10.115-7.276 8.913 8.913 0 01-1.55-5.152c.049-2.644.118-5.287.175-7.93a23.711 23.711 0 01.474-4.229z"/><path d="M34.604 14.562v15.173a7.037 7.037 0 01-2.55 5.457 25.564 25.564 0 01-6.83 3.774s-4.39 1.839-6.053 8.358m5.92-2.195s-.436-4.92 1.08-6.552M21.3 36.82s1.966 2.145 6.039 1.236"/><path d="M34.604 14.562v15.173a7.038 7.038 0 002.55 5.457 25.566 25.566 0 006.83 3.774s4.391 1.839 6.054 8.358m-5.921-2.195s.437-4.92-1.079-6.552m4.872-1.757s-1.967 2.145-6.04 1.236"/></g></svg>