<svg viewBox="0 0 72 72" xmlns="http://www.w3.org/2000/svg"><path fill="#b3b3b3" d="M68 4v64H4V4h64m4-4H0v72h72V0z"/><path fill="none" stroke="#00a5ff" stroke-miterlimit="10" stroke-width=".1" d="M12.923 10.958h46.154A1.923 1.923 0 0161 12.881v46.154a1.923 1.923 0 01-1.923 1.923H12.923A1.923 1.923 0 0111 59.035V12.881a1.923 1.923 0 011.923-1.923z"/><rect x="16" y="4" rx="2.254" width="40" height="64" fill="none" stroke="#00a5ff" stroke-miterlimit="10" stroke-width=".1"/><rect x="16" y="4" rx="2.254" width="40" height="64" transform="rotate(90 36 36)" fill="none" stroke="#00a5ff" stroke-miterlimit="10" stroke-width=".1"/><circle cx="36" cy="36" r="29" fill="none" stroke="#00a5ff" stroke-miterlimit="10" stroke-width=".1"/><g stroke-linecap="round" stroke-miterlimit="10" stroke-width="6" stroke="#fff" fill="none" stroke-linejoin="round"><path d="M11 50V22m50 28H11m50-28v28M11 22h50M16 38.2V27m33 11.2H16M49 27v11.2M16 27h33"/><circle cx="20.638" cy="44.1" r="2"/><circle cx="28.638" cy="44.1" r="2"/><circle cx="36.638" cy="44.1" r="2"/></g><path fill="#d0cfce" d="M11 22h50v28H11z"/><path fill="#9b9b9a" d="M61 50H50.685L36.512 22H61v28z"/><path fill="#b1cc33" d="M16 27h33v11.2H16z"/><path fill="#5c9e31" d="M49 38.2h-7.488L35.843 27H49v11.2z"/><g><path fill="none" stroke="#000" stroke-linecap="round" stroke-linejoin="round" stroke-width="2" d="M11 50V22m50 28H11m50-28v28M11 22h50"/><path fill="none" stroke="#000" stroke-linecap="round" stroke-linejoin="round" stroke-width="1.8" d="M16 38.2V27m33 11.2H16M49 27v11.2M16 27h33"/><circle cx="20.638" cy="44.1" r="2"/><circle cx="28.638" cy="44.1" r="2"/><circle cx="36.638" cy="44.1" r="2"/></g></svg>