<svg viewBox="0 0 72 72" xmlns="http://www.w3.org/2000/svg"><path fill="#b3b3b3" d="M68 4v64H4V4h64m4-4H0v72h72V0z"/><path fill="none" stroke="#00a5ff" stroke-miterlimit="10" stroke-width=".1" d="M12.923 10.958h46.154A1.923 1.923 0 0161 12.881v46.154a1.923 1.923 0 01-1.923 1.923H12.923A1.923 1.923 0 0111 59.035V12.881a1.923 1.923 0 011.923-1.923z"/><rect x="16" y="4" rx="2.254" width="40" height="64" fill="none" stroke="#00a5ff" stroke-miterlimit="10" stroke-width=".1"/><rect x="16" y="4" rx="2.254" width="40" height="64" transform="rotate(90 36 36)" fill="none" stroke="#00a5ff" stroke-miterlimit="10" stroke-width=".1"/><circle cx="36" cy="36" r="29" fill="none" stroke="#00a5ff" stroke-miterlimit="10" stroke-width=".1"/><g stroke-linecap="round" stroke-miterlimit="10" stroke-width="6" stroke="#fff" fill="none" stroke-linejoin="round"><path d="M13 32h46v26H13z"/><path d="M21 55h-1a3 3 0 01-3-3V38a3 3 0 013-3h1a3 3 0 013 3v14a3 3 0 01-3 3zm-4-42h38v19H17z"/><path d="M29 17h22v15H29z"/><circle cx="29" cy="39" r="2"/><circle cx="35" cy="39" r="2"/><circle cx="41" cy="39" r="2"/><circle cx="29" cy="45" r="2"/><circle cx="35" cy="45" r="2"/><circle cx="41" cy="45" r="2"/><circle cx="29" cy="51" r="2"/><circle cx="35" cy="51" r="2"/><circle cx="41" cy="51" r="2"/><path d="M46 37h9v8h-9z"/></g><path fill="#9B9B9A" d="M13 32h46v26H13z"/><path fill="#D0CFCE" d="M21 55h-1a3 3 0 01-3-3V38a3 3 0 013-3h1a3 3 0 013 3v14a3 3 0 01-3 3z"/><path fill="#9B9B9A" d="M17 13h38v19H17z"/><path fill="#FFF" d="M29 17h22v15H29z"/><path fill="#B1CC33" d="M46 37h9v8h-9z"/><path fill="none" stroke="#000" stroke-linecap="round" stroke-linejoin="round" stroke-miterlimit="10" stroke-width="2" d="M13 32h46v26H13z"/><path fill="none" stroke="#000" stroke-linecap="round" stroke-linejoin="round" stroke-miterlimit="10" stroke-width="2" d="M21 55h-1a3 3 0 01-3-3V38a3 3 0 013-3h1a3 3 0 013 3v14a3 3 0 01-3 3zm-4-42h38v19H17z"/><path fill="none" stroke="#000" stroke-linecap="round" stroke-linejoin="round" stroke-miterlimit="10" stroke-width="2" d="M29 17h22v15H29z"/><circle cx="29" cy="39" r="2"/><circle cx="35" cy="39" r="2"/><circle cx="41" cy="39" r="2"/><circle cx="29" cy="45" r="2"/><circle cx="35" cy="45" r="2"/><circle cx="41" cy="45" r="2"/><circle cx="29" cy="51" r="2"/><circle cx="35" cy="51" r="2"/><circle cx="41" cy="51" r="2"/><path fill="none" stroke="#000" stroke-linecap="round" stroke-linejoin="round" stroke-miterlimit="10" stroke-width="2" d="M46 37h9v8h-9z"/></svg>