<svg viewBox="0 0 72 72" xmlns="http://www.w3.org/2000/svg"><path fill="#b3b3b3" d="M68 4v64H4V4h64m4-4H0v72h72V0z"/><path fill="none" stroke="#00a5ff" stroke-miterlimit="10" stroke-width=".1" d="M12.923 10.958h46.154A1.923 1.923 0 0161 12.881v46.154a1.923 1.923 0 01-1.923 1.923H12.923A1.923 1.923 0 0111 59.035V12.881a1.923 1.923 0 011.923-1.923z"/><rect x="16" y="4" rx="2.254" width="40" height="64" fill="none" stroke="#00a5ff" stroke-miterlimit="10" stroke-width=".1"/><rect x="16" y="4" rx="2.254" width="40" height="64" transform="rotate(90 36 36)" fill="none" stroke="#00a5ff" stroke-miterlimit="10" stroke-width=".1"/><circle cx="36" cy="36" r="29" fill="none" stroke="#00a5ff" stroke-miterlimit="10" stroke-width=".1"/><g stroke-linecap="round" stroke-miterlimit="10" stroke-width="6" stroke="#fff" fill="none" stroke-linejoin="round"><path d="M52.5 64.764h-33a1 1 0 01-1-1v-56a1 1 0 011-1h33a1 1 0 011 1v56a1 1 0 01-1 1z"/><path d="M48.034 55H23.966a.966.966 0 01-.966-.966V13.966c0-.534.433-.966.966-.966h24.068c.534 0 .966.432.966.966v40.068a.966.966 0 01-.966.966z"/><circle cx="36" cy="60" r="2"/><path d="M31 10h10-10z"/></g><path fill="#9B9B9A" d="M52.5 64.764h-33a1 1 0 01-1-1v-56a1 1 0 011-1h33a1 1 0 011 1v56a1 1 0 01-1 1z"/><path fill="#D0CFCE" d="M48.034 55H23.966a.966.966 0 01-.966-.966V13.966c0-.534.433-.966.966-.966h24.068c.534 0 .966.432.966.966v40.068a.966.966 0 01-.966.966z"/><path fill="#FFF" d="M31 10h10-10z"/><g stroke="#000" stroke-miterlimit="10"><path fill="none" stroke-linecap="round" stroke-linejoin="round" stroke-width="2" d="M52.5 64.764h-33a1 1 0 01-1-1v-56a1 1 0 011-1h33a1 1 0 011 1v56a1 1 0 01-1 1z"/><path fill="none" stroke-linecap="round" stroke-linejoin="round" stroke-width="2" d="M48.034 55H23.966a.966.966 0 01-.966-.966V13.966c0-.534.433-.966.966-.966h24.068c.534 0 .966.432.966.966v40.068a.966.966 0 01-.966.966z"/><circle cx="36" cy="60" r="2"/><path fill="none" stroke-linecap="round" stroke-linejoin="round" stroke-width="2" d="M31 10h10-10z"/></g></svg>