<svg viewBox="0 0 72 72" xmlns="http://www.w3.org/2000/svg"><path fill="#b3b3b3" d="M68 4v64H4V4h64m4-4H0v72h72V0z"/><path fill="none" stroke="#00a5ff" stroke-miterlimit="10" stroke-width=".1" d="M12.923 10.958h46.154A1.923 1.923 0 0161 12.881v46.154a1.923 1.923 0 01-1.923 1.923H12.923A1.923 1.923 0 0111 59.035V12.881a1.923 1.923 0 011.923-1.923z"/><rect x="16" y="4" rx="2.254" width="40" height="64" fill="none" stroke="#00a5ff" stroke-miterlimit="10" stroke-width=".1"/><rect x="16" y="4" rx="2.254" width="40" height="64" transform="rotate(90 36 36)" fill="none" stroke="#00a5ff" stroke-miterlimit="10" stroke-width=".1"/><circle cx="36" cy="36" r="29" fill="none" stroke="#00a5ff" stroke-miterlimit="10" stroke-width=".1"/><g stroke-linecap="round" stroke-miterlimit="10" stroke-width="6" stroke="#fff" fill="none" stroke-linejoin="round"><path d="M41.71 20.846h17.8a1 1 0 011 1v29.201a1 1 0 01-1 1h-17.8m-5.141-30.243V51.09c0 .105-.02.2-.05.297a1 1 0 01-.95.66h-15.34a1 1 0 01-.95-.66.975.975 0 01-.05-.297V21.804c0-.105.02-.2.05-.297a1 1 0 01.95-.66h15.34a1 1 0 01.95.66c.03.096.05.192.05.297zM13.75 52.047h-1.609a1 1 0 01-1-1v-29.2a1 1 0 011-1h1.609m11.663 15.59h1.778"/><path d="M30.046 39.95h-3.744v-5.134c0-1.034.838-1.872 1.872-1.872h0c.97 0 1.767.736 1.863 1.68m23.199-1.68h0a1.916 1.916 0 01-1.915-1.916V27.86c0-1.058.858-1.915 1.915-1.915h0c1.059 0 1.916.857 1.916 1.915v3.17a1.916 1.916 0 01-1.916 1.915zm-9.282-5.284a2.151 2.151 0 012.106-1.716h0c.594 0 1.132.24 1.52.63.606.605.55 1.61-.018 2.251l-3.652 4.119h4.3"/></g><path fill="#FFF" d="M11.558 19.946h48.553v32.877H11.558z"/><path fill="#B399C8" d="M34.375 19.884h22.563v33.125H34.375z"/><path fill="#D0CFCE" d="M36.569 21.804V51.09c0 .105-.02.2-.05.297a1 1 0 01-.95.66h-15.34a1 1 0 01-.95-.66.975.975 0 01-.05-.297V21.804c0-.105.02-.2.05-.297a1 1 0 01.95-.66h15.34a1 1 0 01.95.66c.03.096.05.192.05.297z"/><g fill="none" stroke="#000" stroke-linecap="round" stroke-linejoin="round" stroke-miterlimit="10" stroke-width="2"><path d="M41.71 20.846h17.8a1 1 0 011 1v29.201a1 1 0 01-1 1h-17.8m-5.141-30.243V51.09c0 .105-.02.2-.05.297a1 1 0 01-.95.66h-15.34a1 1 0 01-.95-.66.975.975 0 01-.05-.297V21.804c0-.105.02-.2.05-.297a1 1 0 01.95-.66h15.34a1 1 0 01.95.66c.03.096.05.192.05.297zM13.75 52.047h-1.609a1 1 0 01-1-1v-29.2a1 1 0 011-1h1.609m11.663 15.59h1.778"/><path d="M30.046 39.95h-3.744v-5.134c0-1.034.838-1.872 1.872-1.872h0c.97 0 1.767.736 1.863 1.68m23.199-1.68h0a1.916 1.916 0 01-1.915-1.916V27.86c0-1.058.858-1.915 1.915-1.915h0c1.059 0 1.916.857 1.916 1.915v3.17a1.916 1.916 0 01-1.916 1.915zm-9.282-5.284a2.151 2.151 0 012.106-1.716h0c.594 0 1.132.24 1.52.63.606.605.55 1.61-.018 2.251l-3.652 4.119h4.3"/></g></svg>