<svg viewBox="0 0 72 72" xmlns="http://www.w3.org/2000/svg"><path fill="#b3b3b3" d="M68 4v64H4V4h64m4-4H0v72h72V0z"/><path fill="none" stroke="#00a5ff" stroke-miterlimit="10" stroke-width=".1" d="M12.923 10.958h46.154A1.923 1.923 0 0161 12.881v46.154a1.923 1.923 0 01-1.923 1.923H12.923A1.923 1.923 0 0111 59.035V12.881a1.923 1.923 0 011.923-1.923z"/><rect x="16" y="4" rx="2.254" width="40" height="64" fill="none" stroke="#00a5ff" stroke-miterlimit="10" stroke-width=".1"/><rect x="16" y="4" rx="2.254" width="40" height="64" transform="rotate(90 36 36)" fill="none" stroke="#00a5ff" stroke-miterlimit="10" stroke-width=".1"/><circle cx="36" cy="36" r="29" fill="none" stroke="#00a5ff" stroke-miterlimit="10" stroke-width=".1"/><g stroke-linecap="round" stroke-miterlimit="10" stroke-width="6" stroke="#fff" fill="none" stroke-linejoin="round"><circle cx="46.302" cy="34.578" r="5.933"/><path d="M37.494 21.951V51.05c0 .104-.02.2-.05.295a1 1 0 01-.95.656h-15.34a1 1 0 01-.95-.656.963.963 0 01-.05-.295V21.952c0-.105.02-.2.05-.295a1 1 0 01.95-.657h15.34a1 1 0 01.95.656c.03.096.05.19.05.296z"/><path d="M29.037 41v-3.87l2.58-5.16-2.58 5.16-2.58-5.16m.131 4.498h4.863M15.706 52.079h-3.63a1 1 0 01-1-1v-29.2a1 1 0 011-1h3.63M42 21l17.446-.122a1 1 0 011 1V51.08a1 1 0 01-1 1L42 52"/><path d="M42 25.156h13.817V47.83H42M15.706 48V25.156"/></g><path fill="#FFF" d="M11.354 20.134h48.742v32.634H11.354z"/><path fill="#EA5A47" d="M15.33 24.4h40.032v24.2H15.33z"/><path fill="#F4AA41" d="M55.82 20.62h4.63v.19h-4.63z"/><circle cx="46.302" cy="34.578" r="5.933" fill="#FFF"/><path fill="#D0CFCE" d="M37.494 21.951V51.05c0 .104-.02.2-.05.295a1 1 0 01-.95.656h-15.34a1 1 0 01-.95-.656.963.963 0 01-.05-.295V21.952c0-.105.02-.2.05-.295a1 1 0 01.95-.657h15.34a1 1 0 01.95.656c.03.096.05.19.05.296z"/><g fill="none" stroke="#000" stroke-miterlimit="10" stroke-width="2"><circle cx="46.302" cy="34.578" r="5.933"/><path stroke-linecap="round" stroke-linejoin="round" d="M37.494 21.951V51.05c0 .104-.02.2-.05.295a1 1 0 01-.95.656h-15.34a1 1 0 01-.95-.656.963.963 0 01-.05-.295V21.952c0-.105.02-.2.05-.295a1 1 0 01.95-.657h15.34a1 1 0 01.95.656c.03.096.05.19.05.296z"/><path stroke-linecap="round" stroke-linejoin="round" d="M29.037 41v-3.87l2.58-5.16-2.58 5.16-2.58-5.16m.131 4.498h4.863M15.706 52.079h-3.63a1 1 0 01-1-1v-29.2a1 1 0 011-1h3.63M42 21l17.446-.122a1 1 0 011 1V51.08a1 1 0 01-1 1L42 52"/><path stroke-linecap="round" stroke-linejoin="round" d="M42 25.156h13.817V47.83H42M15.706 48V25.156"/></g></svg>