<svg viewBox="0 0 72 72" xmlns="http://www.w3.org/2000/svg"><path fill="#B3B3B3" d="M68 4v64H4V4h64m4-4H0v72h72V0z"/><path fill="none" stroke="#00A5FF" stroke-miterlimit="10" stroke-width=".1" d="M12.923 10.958h46.154c1.062 0 1.923.861 1.923 1.923v46.154a1.923 1.923 0 01-1.923 1.923H12.923A1.923 1.923 0 0111 59.035h0V12.881c0-1.062.861-1.923 1.923-1.923h0z"/><path fill="none" stroke="#00A5FF" stroke-miterlimit="10" stroke-width=".1" d="M18.254 4h35.492A2.254 2.254 0 0156 6.254v59.492A2.254 2.254 0 0153.746 68H18.254A2.254 2.254 0 0116 65.746V6.254A2.254 2.254 0 0118.254 4z"/><path fill="none" stroke="#00A5FF" stroke-miterlimit="10" stroke-width=".1" d="M68 18.254v35.492A2.254 2.254 0 0165.746 56H6.254A2.254 2.254 0 014 53.746V18.254A2.254 2.254 0 016.254 16h59.492A2.254 2.254 0 0168 18.254z"/><circle cx="36" cy="36" r="29" fill="none" stroke="#00A5FF" stroke-miterlimit="10" stroke-width=".1"/><g stroke-linecap="round" stroke-miterlimit="10" stroke-width="6" stroke="#fff" fill="none" stroke-linejoin="round"><path d="M64.05 7.95v5.121c-27.56 0-51.04 23.42-51.04 50.98H7.947c0-30.99 25.11-56.1 56.1-56.1z"/><path d="M64.05 13.07v5.12c-24.4 0-45.86 21.46-45.86 45.86h-5.174c0-27.56 23.47-50.98 51.03-50.98z"/><path d="M64.05 18.19v5.121c-21.51 0-40.74 19.25-40.74 40.74h-5.121c0-24.4 21.46-45.86 45.86-45.86z"/><path d="M64.05 23.31v5.121c-18.88 0-35.61 16.83-35.61 35.62h-5.131c0-21.48 19.23-40.74 40.74-40.74z"/><path d="M64.05 28.43v5.12c-16.34 0-30.5 14.22-30.5 30.5h-5.11c0-18.78 16.73-35.62 35.61-35.62z"/><path d="M64.05 33.55v5.121c-14.02 0-25.38 11.36-25.38 25.38h-5.121c0-16.28 14.16-30.5 30.5-30.5z"/></g><path fill="#ea5a47" d="M64.05 7.95v5.121c-27.56 0-51.03 23.42-51.03 50.98H7.953c0-30.99 25.11-56.1 56.1-56.1z"/><path fill="#f4aa41" d="M64.05 13.07v5.12c-24.4 0-45.86 21.46-45.86 45.86h-5.178c0-27.56 23.48-50.98 51.04-50.98z"/><path fill="#fcea2b" d="M64.05 18.19v5.121c-21.51 0-40.74 19.25-40.74 40.74h-5.121c0-24.4 21.46-45.86 45.86-45.86z"/><path fill="#b1cc33" d="M64.05 23.31v5.121c-18.88 0-35.61 16.83-35.61 35.62h-5.131c0-21.48 19.23-40.74 40.74-40.74z"/><path fill="#92d3f5" d="M64.05 28.43v5.12c-16.34 0-30.5 14.22-30.5 30.5h-5.11c0-18.78 16.73-35.62 35.61-35.62z"/><path fill="#b399c8" d="M64.05 33.55v5.121c-14.02 0-25.38 11.36-25.38 25.38h-5.121c0-16.28 14.16-30.5 30.5-30.5z"/><g stroke-miterlimit="10" fill="none" stroke="#000" stroke-linecap="round" stroke-linejoin="round" stroke-width="2"><path d="M64.05 7.95v5.121c-27.56 0-51.04 23.42-51.04 50.98H7.947c0-30.99 25.11-56.1 56.1-56.1z"/><path d="M64.05 13.07v5.12c-24.4 0-45.86 21.46-45.86 45.86h-5.174c0-27.56 23.47-50.98 51.03-50.98z"/><path d="M64.05 18.19v5.121c-21.51 0-40.74 19.25-40.74 40.74h-5.121c0-24.4 21.46-45.86 45.86-45.86z"/><path d="M64.05 23.31v5.121c-18.88 0-35.61 16.83-35.61 35.62h-5.131c0-21.48 19.23-40.74 40.74-40.74z"/><path d="M64.05 28.43v5.12c-16.34 0-30.5 14.22-30.5 30.5h-5.11c0-18.78 16.73-35.62 35.61-35.62z"/><path d="M64.05 33.55v5.121c-14.02 0-25.38 11.36-25.38 25.38h-5.121c0-16.28 14.16-30.5 30.5-30.5z"/></g></svg>