<svg viewBox="0 0 72 72" xmlns="http://www.w3.org/2000/svg"><path fill="#b2b2b2" d="M68 4v64H4V4h64m4-4H0v72h72V0z"/><path fill="none" stroke="#00a4ff" stroke-miterlimit="10" stroke-width=".1" d="M12.923 10.958h46.154A1.923 1.923 0 0161 12.881v46.154a1.923 1.923 0 01-1.923 1.923H12.923A1.923 1.923 0 0111 59.035V12.881a1.923 1.923 0 011.923-1.923z"/><rect x="16" y="4" rx="2.254" width="40" height="64" fill="none" stroke="#00a4ff" stroke-miterlimit="10" stroke-width=".1"/><rect x="16" y="4" rx="2.254" width="40" height="64" transform="rotate(90 36 36)" fill="none" stroke="#00a4ff" stroke-miterlimit="10" stroke-width=".1"/><circle cx="36" cy="36" r="29" fill="none" stroke="#00a4ff" stroke-miterlimit="10" stroke-width=".1"/><g stroke-linecap="round" stroke-miterlimit="10" stroke-width="6" stroke="#fff" fill="none" stroke-linejoin="round"><path d="M25.48 36.21c2.03-.5 3.683-3.204 3.7-4.783 1.717-.292 3.768-1.743 4.293-3.76 1.858.703 4.348-.05 5.344-1.785 1.475 1.057 4.452.992 6.111-.862l9.824 39.03z"/><path d="M33.47 27.67L22.86 9.52c-2.058-3.519-7.198-.525-5.144 2.988"/></g><path fill="#8967aa" d="M54.75 64.05l-9.824-39.03c-12.55 2.717-15 5.801-19.45 11.19z"/><path fill="#b399c8" d="M29.18 31.43l25.57 32.62-21.28-36.38zm9.64-5.54l15.93 38.16-9.824-39.03c-1.715 1.145-3.645 1.719-6.111.862z"/><g fill="none" stroke="#000" stroke-linecap="round" stroke-linejoin="round" stroke-width="2"><path d="M25.48 36.21c2.03-.5 3.683-3.204 3.7-4.783 1.717-.292 3.768-1.743 4.293-3.76 1.858.703 4.348-.05 5.344-1.785 1.475 1.057 4.452.992 6.111-.862l9.824 39.03z"/><path d="M33.47 27.67L22.86 9.52c-2.058-3.519-7.198-.525-5.144 2.988"/></g></svg>