<svg viewBox="0 0 72 72" xmlns="http://www.w3.org/2000/svg"><path fill="#b3b3b3" d="M68 4v64H4V4h64m4-4H0v72h72V0z"/><path fill="none" stroke="#00a5ff" stroke-miterlimit="10" stroke-width=".1" d="M12.923 10.958h46.154A1.923 1.923 0 0161 12.881v46.154a1.923 1.923 0 01-1.923 1.923H12.923A1.923 1.923 0 0111 59.035V12.881a1.923 1.923 0 011.923-1.923z"/><rect x="16" y="4" rx="2.254" width="40" height="64" fill="none" stroke="#00a5ff" stroke-miterlimit="10" stroke-width=".1"/><rect x="16" y="4" rx="2.254" width="40" height="64" transform="rotate(90 36 36)" fill="none" stroke="#00a5ff" stroke-miterlimit="10" stroke-width=".1"/><circle cx="36" cy="36" r="29" fill="none" stroke="#00a5ff" stroke-miterlimit="10" stroke-width=".1"/><path d="M35.99 7C50.615 7 65 18.583 65 35.958 65 51.958 52.249 65 35.99 65 22.145 65 9.923 55.604 9.923 41.116c0-10.406 8.436-18.841 18.842-18.841 8.324 0 15.073 6.748 15.073 15.073 0 6.66-5.399 12.058-12.059 12.058a9.647 9.647 0 01-9.647-9.646 7.717 7.717 0 017.718-7.718 6.174 6.174 0 016.174 6.174 4.94 4.94 0 01-4.94 4.94 3.947 3.947 0 01-3.95-3.952c.005-1.802 1.212-2.874 2.823-2.443.268.072.656.277.94.633.358.448.427.903.464 1.312" stroke-linecap="round" stroke-miterlimit="10" stroke-width="6" stroke="#fff" fill="none" stroke-linejoin="round"/><path fill="none" stroke="#000" stroke-linecap="round" stroke-linejoin="round" stroke-width="2" d="M35.99 7C50.615 7 65 18.583 65 35.958 65 51.958 52.249 65 35.99 65 22.145 65 9.923 55.604 9.923 41.116c0-10.406 8.436-18.841 18.842-18.841 8.324 0 15.073 6.748 15.073 15.073 0 6.66-5.399 12.058-12.059 12.058a9.647 9.647 0 01-9.647-9.646 7.717 7.717 0 017.718-7.718 6.174 6.174 0 016.174 6.174 4.94 4.94 0 01-4.94 4.94 3.947 3.947 0 01-3.95-3.952c.005-1.802 1.212-2.874 2.823-2.443.268.072.656.277.94.633.358.448.427.903.464 1.312"/></svg>