<svg viewBox="0 0 72 72" xmlns="http://www.w3.org/2000/svg"><path fill="#b2b2b2" d="M68 4v64H4V4h64m4-4H0v72h72V0z"/><rect x="11" y="10.958" rx="1.923" width="50" height="50" fill="none" stroke="#00a4ff" stroke-miterlimit="10" stroke-width=".1"/><rect x="16" y="4" rx="2.254" width="40" height="64" fill="none" stroke="#00a4ff" stroke-miterlimit="10" stroke-width=".1"/><rect x="16" y="4" rx="2.254" width="40" height="64" transform="rotate(90 36 36)" fill="none" stroke="#00a4ff" stroke-miterlimit="10" stroke-width=".1"/><circle cx="36" cy="36" r="29" fill="none" stroke="#00a4ff" stroke-miterlimit="10" stroke-width=".1"/><g stroke-linecap="round" stroke-miterlimit="10" stroke-width="6" stroke="#fff" fill="none" stroke-linejoin="round"><circle cx="36" cy="36" r="28"/><path d="M55 35a28.001 28.001 0 01-26.547 27.963A28 28 0 1036 8q-.731 0-1.454.037A28.006 28.006 0 0155 35z"/></g><circle cx="36" cy="36" r="28" fill="#fcea2b" stroke="#3f3f3f" stroke-linecap="round" stroke-linejoin="round" stroke-width="2"/><path fill="#3f3f3f" d="M55 35a28.001 28.001 0 01-26.547 27.963A28 28 0 1036 8q-.731 0-1.454.037A28.006 28.006 0 0155 35z"/><g fill="none" stroke="#000" stroke-linecap="round" stroke-linejoin="round" stroke-width="2"><circle cx="36" cy="36" r="28"/><path d="M55 35a28.001 28.001 0 01-26.547 27.963A28 28 0 1036 8q-.731 0-1.454.037A28.006 28.006 0 0155 35z"/></g></svg>