<svg viewBox="0 0 72 72" xmlns="http://www.w3.org/2000/svg"><path fill="#b3b3b3" d="M68 4v64H4V4h64m4-4H0v72h72V0z"/><path fill="none" stroke="#00a5ff" stroke-miterlimit="10" stroke-width=".1" d="M12.923 10.958h46.154A1.923 1.923 0 0161 12.881v46.154a1.923 1.923 0 01-1.923 1.923H12.923A1.923 1.923 0 0111 59.035V12.881a1.923 1.923 0 011.923-1.923z"/><rect x="16" y="4" rx="2.254" width="40" height="64" fill="none" stroke="#00a5ff" stroke-miterlimit="10" stroke-width=".1"/><rect x="16" y="4" rx="2.254" width="40" height="64" transform="rotate(90 36 36)" fill="none" stroke="#00a5ff" stroke-miterlimit="10" stroke-width=".1"/><circle cx="36" cy="36" r="29" fill="none" stroke="#00a5ff" stroke-miterlimit="10" stroke-width=".1"/><path d="M7.363 42.41c4.553 6.17 11.874 10.172 20.13 10.172 13.808 0 25-11.193 25-25 0-8.523-4.264-16.05-10.776-20.562C54.756 9.858 64.5 21.463 64.5 35.352c0 16.016-12.984 29-29 29-13.588 0-24.99-9.33-28.136-21.943z" stroke-linecap="round" stroke-miterlimit="10" stroke-width="6" stroke="#fff" fill="none" stroke-linejoin="round"/><path fill="#FCEA2B" d="M7.363 42.41c4.553 6.17 11.874 10.172 20.13 10.172 13.808 0 25-11.193 25-25 0-8.523-4.264-16.05-10.776-20.562C54.756 9.858 64.5 21.463 64.5 35.352c0 16.016-12.984 29-29 29-13.588 0-24.99-9.33-28.136-21.943z"/><path fill="#F1B31C" d="M45.837 9.21c8.25 4.25 16.195 11.873 16.195 24.675 0 15.45-12.524 27.974-27.974 27.974-9.243 0-19.752-4.836-24.294-15.544 0 0 4.38 18.657 25.72 18.665 19.326.007 28.041-20.622 28.041-20.622C70.033 12.382 45.837 9.211 45.837 9.211z"/><path fill="none" stroke="#000" stroke-linecap="round" stroke-linejoin="round" stroke-miterlimit="10" stroke-width="2" d="M7.363 42.41c4.553 6.17 11.874 10.172 20.13 10.172 13.808 0 25-11.193 25-25 0-8.523-4.264-16.05-10.776-20.562C54.756 9.858 64.5 21.463 64.5 35.352c0 16.016-12.984 29-29 29-13.588 0-24.99-9.33-28.136-21.943z"/></svg>