<svg viewBox="0 0 72 72" xmlns="http://www.w3.org/2000/svg"><path fill="#b2b2b2" d="M68 4v64H4V4h64m4-4H0v72h72V0z"/><path fill="none" stroke="#00a4ff" stroke-miterlimit="10" stroke-width=".1" d="M12.923 10.958h46.154A1.923 1.923 0 0161 12.881v46.154a1.923 1.923 0 01-1.923 1.923H12.923A1.923 1.923 0 0111 59.035V12.881a1.923 1.923 0 011.923-1.923z"/><rect x="16" y="4" rx="2.254" width="40" height="64" fill="none" stroke="#00a4ff" stroke-miterlimit="10" stroke-width=".1"/><rect x="16" y="4" rx="2.254" width="40" height="64" transform="rotate(90 36 36)" fill="none" stroke="#00a4ff" stroke-miterlimit="10" stroke-width=".1"/><circle cx="36" cy="36" r="29" fill="none" stroke="#00a4ff" stroke-miterlimit="10" stroke-width=".1"/><g stroke-linecap="round" stroke-miterlimit="10" stroke-width="6" stroke="#fff" fill="none" stroke-linejoin="round"><path d="M42.59 40.04l21.52-7.12m-6.15 2.03l2.74-7.28"/><circle cx="36" cy="47.93" r="1.757"/><circle cx="36" cy="54.08" r="1.757"/><circle cx="36" cy="60.23" r="1.757"/><circle cx="32.37" cy="25.39" r="1.537"/><circle cx="39.63" cy="25.39" r="1.537"/><path d="M40.7 31.87a7.527 7.527 0 01-4.477 1.488 7.345 7.345 0 01-4.476-1.488M26.96 18.22h18.08M29.44 7.537h13.12v10.69H29.44z"/><path d="M43.42 21.38a10.063 10.063 0 012.685 6.858c0 5.579-4.522 10.1-10.1 10.1s-10.1-4.522-10.1-10.1c0-2.648 1.019-5.059 2.687-6.86m.818 18.662L7.894 32.92m6.146 2.04l-2.74-7.29m34.52 15a13.12 13.12 0 013.354 8.781c0 7.276-5.899 13.17-13.17 13.17s-13.17-5.899-13.17-13.17c0-3.373 1.268-6.45 3.353-8.781m-16.974-.324l5.393 5.394m.824-4.151l-7.124 2.754m2.561 2.308l2.001-7.37m3.583-24.474l5.393 5.394m.823-4.151l-7.123 2.754m2.561 2.308l2.001-7.371m31.213-6.994l5.393 5.393m.823-4.151l-7.123 2.754m2.561 2.309l2.001-7.371m3.68 34.394l5.394 5.393m.823-4.15l-7.123 2.754m2.561 2.308l2.001-7.371"/></g><circle cx="36" cy="28.11" r="10.75" fill="#fff"/><circle cx="36" cy="51.44" r="13.86" fill="#fff"/><path fill="#d0cfce" d="M36 17.35c7.776 0 7.776 21.51 0 21.51 5.939 0 10.75-4.815 10.75-10.75 0-5.939-4.815-10.75-10.75-10.75z"/><path fill="#d0cfce" d="M36 37.58c8.008 0 8.008 27.72 0 27.72 7.653 0 13.86-6.204 13.86-13.86 0-7.653-6.204-13.86-13.86-13.86z"/><path fill="#3f3f3f" d="M29.47 7.719h13.06v10.64H29.47z"/><g><path fill="none" stroke="#000" stroke-linecap="round" stroke-linejoin="round" stroke-miterlimit="10" stroke-width="1.757" d="M42.59 40.04l21.52-7.12m-6.15 2.03l2.74-7.28"/><circle cx="36" cy="47.93" r="1.757"/><circle cx="36" cy="54.08" r="1.757"/><circle cx="36" cy="60.23" r="1.757"/><circle cx="32.37" cy="25.39" r="1.537"/><circle cx="39.63" cy="25.39" r="1.537"/><path fill="none" stroke="#000" stroke-linecap="round" stroke-linejoin="round" stroke-miterlimit="10" stroke-width="1.581" d="M40.7 31.87a7.527 7.527 0 01-4.477 1.488 7.345 7.345 0 01-4.476-1.488"/><path fill="none" stroke="#000" stroke-linecap="round" stroke-linejoin="round" stroke-width="1.757" d="M26.96 18.22h18.08M29.44 7.537h13.12v10.69H29.44z"/><path fill="none" stroke="#000" stroke-linecap="round" stroke-linejoin="round" stroke-miterlimit="10" stroke-width="1.757" d="M43.42 21.38a10.063 10.063 0 012.685 6.858c0 5.579-4.522 10.1-10.1 10.1s-10.1-4.522-10.1-10.1c0-2.648 1.019-5.059 2.687-6.86m.818 18.662L7.894 32.92m6.146 2.04l-2.74-7.29m34.52 15a13.12 13.12 0 013.354 8.781c0 7.276-5.899 13.17-13.17 13.17s-13.17-5.899-13.17-13.17c0-3.373 1.268-6.45 3.353-8.781"/><path fill="none" stroke="#000" stroke-linecap="round" stroke-linejoin="round" stroke-width="2" d="M9.213 42.346l5.393 5.394m.824-4.151l-7.124 2.754m2.561 2.308l2.001-7.37m3.583-24.474l5.393 5.394m.823-4.151l-7.123 2.754m2.561 2.308l2.001-7.371m31.213-6.994l5.393 5.393m.823-4.151l-7.123 2.754m2.561 2.309l2.001-7.371m3.68 34.394l5.394 5.393m.823-4.15l-7.123 2.754m2.561 2.308l2.001-7.371"/></g></svg>