<svg viewBox="0 0 72 72" xmlns="http://www.w3.org/2000/svg"><path fill="#b3b3b3" d="M68 4v64H4V4h64m4-4H0v72h72V0z"/><path fill="none" stroke="#00a5ff" stroke-miterlimit="10" stroke-width=".1" d="M12.923 10.958h46.154A1.923 1.923 0 0161 12.881v46.154a1.923 1.923 0 01-1.923 1.923H12.923A1.923 1.923 0 0111 59.035V12.881a1.923 1.923 0 011.923-1.923z"/><rect x="16" y="4" rx="2.254" width="40" height="64" fill="none" stroke="#00a5ff" stroke-miterlimit="10" stroke-width=".1"/><rect x="16" y="4" rx="2.254" width="40" height="64" transform="rotate(90 36 36)" fill="none" stroke="#00a5ff" stroke-miterlimit="10" stroke-width=".1"/><circle cx="36" cy="36" r="29" fill="none" stroke="#00a5ff" stroke-miterlimit="10" stroke-width=".1"/><g stroke-linecap="round" stroke-miterlimit="10" stroke-width="6" stroke="#fff" fill="none" stroke-linejoin="round"><path d="M14.291 42.414l-3.2 1.796 1.667-7.977-8.065-1.161 6.036-5.474-5.841-5.68 8.104-.878-1.394-8.03 7.072 4.056 3.595-7.318 3.336 7.437 7.209-3.804-1.666 7.976 8.064 1.162-2.924 2.383"/><path d="M17.282 39.517a10.783 10.783 0 01-6.113-9.722c0-5.955 4.827-10.782 10.782-10.782 5.59 0 10.186 4.254 10.728 9.701m-7.385 10.833a.767.767 0 01-.681.687c-4.362.467-7.716 4.762-7.716 9.989 0 5.539 3.841 10.029 8.58 10.029h32.71c5.206 0 9.426-4.745 9.426-10.599 0-5.61-3.876-10.201-8.781-10.574a.817.817 0 01-.751-.659c-1.096-5.627-6.15-9.855-12.127-9.855-3.884 0-7.343 1.758-9.59 4.555-.22.274-.588.4-.912.263-.865-.362-1.778-.538-2.8-.538-3.86 0-7.029 2.946-7.358 6.702z"/></g><path fill="#FCEA2B" d="M17.889 41.528l-6.167 3.404.73-8.537-8.065-1.162 6.036-5.472-5.841-5.682 8.103-.877-1.393-8.03 7.072 4.056 3.595-7.318 3.336 7.437 7.209-3.804-1.666 7.976 8.888 1.81-6.602 5.366 5.873 5.835-8.123.676 1.195 8.064-6.97-4.22-4.659 7.558z"/><path fill="#FFF" d="M25.294 39.547a.767.767 0 01-.681.687c-4.362.467-7.716 4.762-7.716 9.989 0 5.539 3.841 10.029 8.58 10.029h32.71c5.206 0 9.426-4.745 9.426-10.599 0-5.61-3.876-10.201-8.781-10.574a.817.817 0 01-.751-.659c-1.096-5.627-6.15-9.855-12.127-9.855-3.884 0-7.343 1.758-9.59 4.555-.22.274-.588.4-.912.263-.865-.362-1.778-.538-2.8-.538-3.86 0-7.029 2.946-7.358 6.702z"/><g fill="none" stroke="#000" stroke-linecap="round" stroke-linejoin="round" stroke-miterlimit="10"><path stroke-width="1.9" d="M14.291 42.414l-3.2 1.796 1.667-7.977-8.065-1.161 6.036-5.474-5.841-5.68 8.104-.878-1.394-8.03 7.072 4.056 3.595-7.318 3.336 7.437 7.209-3.804-1.666 7.976 8.064 1.162-2.924 2.383"/><path stroke-width="1.9" d="M17.282 39.517a10.783 10.783 0 01-6.113-9.722c0-5.955 4.827-10.782 10.782-10.782 5.59 0 10.186 4.254 10.728 9.701"/><path stroke-width="2" d="M25.294 39.547a.767.767 0 01-.681.687c-4.362.467-7.716 4.762-7.716 9.989 0 5.539 3.841 10.029 8.58 10.029h32.71c5.206 0 9.426-4.745 9.426-10.599 0-5.61-3.876-10.201-8.781-10.574a.817.817 0 01-.751-.659c-1.096-5.627-6.15-9.855-12.127-9.855-3.884 0-7.343 1.758-9.59 4.555-.22.274-.588.4-.912.263-.865-.362-1.778-.538-2.8-.538-3.86 0-7.029 2.946-7.358 6.702z"/></g></svg>