<svg viewBox="0 0 72 72" xmlns="http://www.w3.org/2000/svg"><path fill="#b3b3b3" d="M68 4v64H4V4h64m4-4H0v72h72V0z"/><path fill="none" stroke="#00a5ff" stroke-miterlimit="10" stroke-width=".1" d="M12.923 10.958h46.154A1.923 1.923 0 0161 12.881v46.154a1.923 1.923 0 01-1.923 1.923H12.923A1.923 1.923 0 0111 59.035V12.881a1.923 1.923 0 011.923-1.923z"/><rect x="16" y="4" rx="2.254" width="40" height="64" fill="none" stroke="#00a5ff" stroke-miterlimit="10" stroke-width=".1"/><rect x="16" y="4" rx="2.254" width="40" height="64" transform="rotate(90 36 36)" fill="none" stroke="#00a5ff" stroke-miterlimit="10" stroke-width=".1"/><circle cx="36" cy="36" r="29" fill="none" stroke="#00a5ff" stroke-miterlimit="10" stroke-width=".1"/><path d="M36 7v58M11.237 50.502l49.526-29.004m0 29.004L11.237 21.498m9.806 5.742V16m4.914-2.292L36 18.458M21.043 27.24L11 31.991m35.043-18.283L36 18.458M25.957 58.209L36 53.458m10.043 4.751L36 53.458m-14.923-8.716l-10.043-4.75M61 31.991L50.957 27.24m10.011 12.752l-10.043 4.75m0 11.241V44.742M21.077 55.983V44.742m29.88-17.502V16" stroke-linecap="round" stroke-miterlimit="10" stroke-width="6" stroke="#fff" fill="none" stroke-linejoin="round"/><path d="M36 7v58M11.237 50.502l49.526-29.004m0 29.004L11.237 21.498m9.806 5.742V16m4.914-2.292L36 18.458M21.043 27.24L11 31.991m35.043-18.283L36 18.458M25.957 58.209L36 53.458m10.043 4.751L36 53.458m-14.923-8.716l-10.043-4.75M61 31.991L50.957 27.24m10.011 12.752l-10.043 4.75m0 11.241V44.742M21.077 55.983V44.742m29.88-17.502V16" fill="none" stroke="#000" stroke-linecap="round" stroke-linejoin="round" stroke-miterlimit="10" stroke-width="2"/></svg>