<svg viewBox="0 0 72 72" xmlns="http://www.w3.org/2000/svg"><path fill="#b3b3b3" d="M68 4v64H4V4h64m4-4H0v72h72V0z"/><path fill="none" stroke="#00a5ff" stroke-miterlimit="10" stroke-width=".1" d="M12.923 10.958h46.154A1.923 1.923 0 0161 12.881v46.154a1.923 1.923 0 01-1.923 1.923H12.923A1.923 1.923 0 0111 59.035V12.881a1.923 1.923 0 011.923-1.923z"/><rect x="16" y="4" rx="2.254" width="40" height="64" fill="none" stroke="#00a5ff" stroke-miterlimit="10" stroke-width=".1"/><rect x="16" y="4" rx="2.254" width="40" height="64" transform="rotate(90 36 36)" fill="none" stroke="#00a5ff" stroke-miterlimit="10" stroke-width=".1"/><circle cx="36" cy="36" r="29" fill="none" stroke="#00a5ff" stroke-miterlimit="10" stroke-width=".1"/><g stroke-linecap="round" stroke-miterlimit="10" stroke-width="6" stroke="#fff" fill="none" stroke-linejoin="round"><path d="M48.578 39.538a2.9 2.9 0 01-2.586 1.42m-20 0a3.553 3.553 0 01-3.312-1.937m19.185-7.063a2 2 0 11-2-2 2 2 0 012 2m-8 0a2 2 0 11-2-2 2 2 0 012 2"/><path d="M24.929 32.958c0 9 4.936 14 11 14 5.936 0 11.063-5 11.063-14a12.137 12.137 0 00-1-5c-3-3-7-8-7-8-4 3-7 6-13 7 0 0-1.063 1-1.063 6zm14.063 6.5c-1 2-5 2-6 0"/><path d="M48.774 39.46c.985-3.842 1.724-8.028 2.218-10.502.667-3.334-5-12-5-12a3.491 3.491 0 00-2-1c-3 0-4-2-6-3a52.19 52.19 0 00-7.555-.993 1.327 1.327 0 01-1.403-1.324s-.042-1.479 2.08-1.445a49.99 49.99 0 019.878.762c.98.197 6.024 1.051 8 2a11.067 11.067 0 012 2s7 11 7 15v13.968"/><path d="M39.934 14.41a.831.831 0 01-.942.548c-6 0-8 2-11 2h-2s-5.643 9.41-5 12.75c.313 1.625.813 5.438 1.734 9.22"/><path d="M13.992 41.958v-13c0-4 7-15 7-15a11.464 11.464 0 014-2 13.369 13.369 0 014.736-.187m-7.236 28.155l-10.5 3.032 4 17m32.586-20.42l11.414 4.42-4 16"/></g><path fill="#92d3f5" d="M56.492 60.926l4-17-10.937-4.375-.155-.624c-2.408 3.031-2.754 1.345-4.334 2.397-6.657 8.603-13.824 6.134-19.074.05-1.817-1.363-1.656.584-2.504-1.448h-.996l-10 3 4 18"/><g fill="#fcea2b"><path d="M24.929 32.958c0 9 4.936 14 11 14 5.936 0 11.063-5 11.063-14a12.137 12.137 0 00-1-5c-3-3-7-8-7-8-4 3-7 6-13 7 0 0-1.063 1-1.063 6z"/><path d="M22.988 39.958c-1.092-4.1-1.655-8.476-1.996-10.25-.643-3.34 5-12.75 5-12.75h2c3 0 5-2 11-2a.831.831 0 00.942-.548l-10.985-2.868a25.434 25.434 0 00-3.957.416 11.464 11.464 0 00-4 2s-7 11-7 15v13"/><path d="M48.9 38.96c.922-3.7 1.618-7.636 2.092-10.002.667-3.334-5-12-5-12a3.491 3.491 0 00-2-1c-3 0-4-2-6-3a53.843 53.843 0 00-8-1 .98.98 0 01-1-1s.04-1.083 1.04-1.083c2.58 0 7.228.083 10.96.083a32.879 32.879 0 018 2 11.067 11.067 0 012 2s7 11 7 15v13"/></g><path fill="#f1b31c" d="M45.493 27.45c-1.902 0-4.648-7.492-6.239-6.916-3.921 1.42-10.879 5.66-13.262 6.617-1.656.666-.354 13.425-.354 13.425-2.737 0-5.08-5.583-3.866-12.477 1.582-8.992 2.012-11.052 13.352-12.44 12.568-1.54 15.405 5.376 15.408 12.477.002 7-.54 12.44-4.54 12.44 1.059-.552 1.417-13.126-.499-13.126z"/><path fill="none" stroke="#000" stroke-linecap="round" stroke-linejoin="round" stroke-width="2" d="M48.578 39.538a2.9 2.9 0 01-2.586 1.42m-20 0a3.553 3.553 0 01-3.312-1.937"/><path d="M41.865 31.958a2 2 0 11-2-2 2 2 0 012 2m-8 0a2 2 0 11-2-2 2 2 0 012 2"/><path fill="none" stroke="#000" stroke-linejoin="round" stroke-width="2" d="M24.929 32.958c0 9 4.936 14 11 14 5.936 0 11.063-5 11.063-14a12.137 12.137 0 00-1-5c-3-3-7-8-7-8-4 3-7 6-13 7 0 0-1.063 1-1.063 6z"/><path fill="none" stroke="#000" stroke-linecap="round" stroke-linejoin="round" stroke-width="2" d="M38.992 39.458c-1 2-5 2-6 0m15.782.002c.985-3.842 1.724-8.028 2.218-10.502.667-3.334-5-12-5-12a3.491 3.491 0 00-2-1c-3 0-4-2-6-3a52.19 52.19 0 00-7.555-.993 1.327 1.327 0 01-1.403-1.324s-.042-1.479 2.08-1.445a49.99 49.99 0 019.878.762c.98.197 6.024 1.051 8 2a11.067 11.067 0 012 2s7 11 7 15v13.968"/><path fill="none" stroke="#000" stroke-linecap="round" stroke-linejoin="round" stroke-width="2" d="M39.934 14.41a.831.831 0 01-.942.548c-6 0-8 2-11 2h-2s-5.643 9.41-5 12.75c.313 1.625.813 5.438 1.734 9.22"/><path fill="none" stroke="#000" stroke-linecap="round" stroke-linejoin="round" stroke-width="2" d="M13.992 41.958v-13c0-4 7-15 7-15a11.464 11.464 0 014-2 13.369 13.369 0 014.736-.187m-7.236 28.155l-10.5 3.032 4 17m32.586-20.42l11.414 4.42-4 16"/></svg>