<svg viewBox="0 0 72 72" xmlns="http://www.w3.org/2000/svg"><path fill="#b3b3b3" d="M68 4v64H4V4h64m4-4H0v72h72V0z"/><path fill="none" stroke="#00a5ff" stroke-miterlimit="10" stroke-width=".1" d="M12.923 10.958h46.154A1.923 1.923 0 0161 12.881v46.154a1.923 1.923 0 01-1.923 1.923H12.923A1.923 1.923 0 0111 59.035V12.881a1.923 1.923 0 011.923-1.923z"/><rect x="16" y="4" rx="2.254" width="40" height="64" fill="none" stroke="#00a5ff" stroke-miterlimit="10" stroke-width=".1"/><rect x="16" y="4" rx="2.254" width="40" height="64" transform="rotate(90 36 36)" fill="none" stroke="#00a5ff" stroke-miterlimit="10" stroke-width=".1"/><circle cx="36" cy="36" r="29" fill="none" stroke="#00a5ff" stroke-miterlimit="10" stroke-width=".1"/><g stroke-linecap="round" stroke-miterlimit="10" stroke-width="6" stroke="#fff" fill="none" stroke-linejoin="round"><path d="M25.167 43.042c-1.602-1.618-3-3-3-10s4-14 14-14 14 7 14 14-2.05 8.695-3.308 9.888"/><path d="M28.126 34.586c-2.043 1.265-2.805 4-2.96 7.456h0c0 4 4.873 8 10.937 8 5.936 0 11.063-4 11.063-10h0c-.554-9.64-19.567.048-19.052-7.543l.226-3.68m5.827 29.223a1.92 1.92 0 01-2 1.942c-1.103 0-6 .058-6 .058h-6s0-4 5-4h7a1.959 1.959 0 012 2zm4 0a1.92 1.92 0 002 1.942c1.102 0 6 .058 6 .058h6s0-4-5-4h-7a1.959 1.959 0 00-2 2zm-20-22s-4 3-4 12v4c0 3 0 6 2 8m38-24s4 3 4 12v5c0 3 0 5-2 7m-33-45l3 3m5-3l-2-3m20 3l-3 3m-5-3l2-3m-10 31a2.782 2.782 0 01-3 0m9 0a2.966 2.966 0 003 0"/></g><path fill="#92d3f5" d="M21.167 33.042a23.705 23.705 0 00-3.665 2.333c-2.216 1.774-3.918 16.334-3.834 17.667s1.583 7.916 2.25 7.916H56.25s2.166-3.333 2.083-4.333.25-14.749-1.166-16.583-1.546-4.19-2.418-4.833a28.567 28.567 0 00-3.582-2.167"/><path d="M28.027 32.806c0 4-3.302 4.908-2.86 9.236 0 4 4.873 8 10.936 8 5.937 0 11.064-4 11.064-10-1.891-9.067-18.041-1.611-19.002-6.96m6.002 24.96a1.92 1.92 0 01-2 1.942c-1.103 0-6 .058-6 .058h-6s0-4 5-4h7a1.959 1.959 0 012 2zm4 0a1.92 1.92 0 002 1.942c1.102 0 6 .058 6 .058h6s0-4-5-4h-7a1.959 1.959 0 00-2 2z" fill="#fcea2b"/><path fill="#f1b31c" d="M27.981 32.485c-.256 1.228-4.04 9.992-2.814 10.557-2 0-3-3-3-10s4-14 14-14 14 7 14 14-1 10-3 10c0 0 2.28-9.869-13.59-6.75-4.684.921-5.596-3.807-5.596-3.807z"/><g fill="none" stroke="#000" stroke-linecap="round" stroke-width="2"><path stroke-linejoin="round" d="M25.167 43.042c-1.602-1.618-3-3-3-10s4-14 14-14 14 7 14 14-2.05 8.695-3.308 9.888"/><path stroke-linejoin="round" d="M28.126 34.586c-2.043 1.265-2.805 4-2.96 7.456h0c0 4 4.873 8 10.937 8 5.936 0 11.063-4 11.063-10h0c-.554-9.64-19.567.048-19.052-7.543l.226-3.68m5.827 29.223a1.92 1.92 0 01-2 1.942c-1.103 0-6 .058-6 .058h-6s0-4 5-4h7a1.959 1.959 0 012 2zm4 0a1.92 1.92 0 002 1.942c1.102 0 6 .058 6 .058h6s0-4-5-4h-7a1.959 1.959 0 00-2 2zm-20-22s-4 3-4 12v4c0 3 0 6 2 8m38-24s4 3 4 12v5c0 3 0 5-2 7m-33-45l3 3m5-3l-2-3m20 3l-3 3m-5-3l2-3"/><path stroke-miterlimit="10" d="M33.167 43.042a2.782 2.782 0 01-3 0m9 0a2.966 2.966 0 003 0"/></g></svg>